<?xml version="1.0" encoding="utf-8"?>
<!-- Generator: Adobe Illustrator 19.1.0, SVG Export Plug-In . SVG Version: 6.00 Build 0)  -->
<svg version="1.1" id="bard" xmlns="http://www.w3.org/2000/svg" xmlns:xlink="http://www.w3.org/1999/xlink" x="0px" y="0px"
	 viewBox="-71.7 72.4 630 630" style="enable-background:new -71.7 72.4 630 630;" xml:space="preserve">
<style type="text/css">
	.st0{opacity:0.2;fill:#564963;}
	.st1{fill:#302D35;}
	.st2{fill:#A8A5A5;}
	.st3{fill:#473F51;}
	.st4{fill:#564963;}
	.st5{fill:#3D3844;}
	.st6{fill:#503F37;}
	.st7{fill:#5D6057;}
	.st8{fill:#A67C52;}
	.st9{fill:#945553;}
	.st10{fill:#BCBBBB;}
	.st11{fill:#56473D;}
	.st12{fill:#685345;}
	.st13{fill:#775E49;}
	.st14{fill:#6D7066;}
	.st15{fill:#D8D6D6;}
	.st16{fill:#83877B;}
	.st17{fill:#7DD8CD;}
	.st18{fill:#E2BF60;}
	.st19{fill:#5E546B;}
	.st20{fill:#BEBCBC;}
	.st21{fill:none;stroke:#773C3C;stroke-width:2;stroke-miterlimit:10;}
	.st22{fill:#D1AA4B;}
	.st23{fill:#A59F9F;}
	.st24{fill:#F4E3C3;}
</style>
<path class="st0" d="M102,560.8l98.4,144.5l357.9-2.9L227.4,573.2l-15.4,1.4l43.9,34.7c0,0,11.6,40-93.5-18.7
	c-48.8-27.2-48-28.7-48-28.7L102,560.8z"/>
<polygon id="leftFoot" class="st1" points="103.6,549.6 102,560.8 104.9,563.1 114.4,562 114.4,547.6 "/>
<polygon id="ponyTail" class="st2" points="207.4,146.1 203.4,109.1 192.4,90.1 176.9,84.1 164.4,85.1 150.4,96.1 135.2,120.3 
	128.7,135.7 137.5,136.8 160.4,118.3 159.4,140.1 "/>
<polygon id="midHairClip" class="st3" points="160.4,107.1 157.4,95.1 164.4,85.1 176.4,83.1 192.4,90.1 177.4,85.1 165.4,90.1 
	162.4,96.1 164.4,105.1 "/>
<polygon id="lightHairClip" class="st4" points="203.5,110.1 195.4,101.1 173.4,101.1 163.4,111.1 160.4,107.1 168.4,93.1 
	183.4,88.1 192.4,90.1 201.4,103.1 "/>
<polygon id="darkHairClip" class="st5" points="159.4,89.1 150.4,95.1 148.4,102.1 152.4,114.1 158.1,120.1 160.4,118.3 
	155.4,109.1 153.4,100.1 "/>
<polygon id="leftPants" class="st6" points="53.8,460.6 52.7,481.5 71.5,510.4 96.8,514.6 133.2,498.1 138.7,482.6 141.4,431.1 "/>
<polygon id="rightFoot" class="st1" points="200.1,550.9 203.6,562 218,559.7 216.9,541.1 "/>
<polygon id="rightAnkle" class="st5" points="197.9,532.2 200.1,550.9 212.1,545.4 217.4,547.6 219.1,527.8 "/>
<polygon id="rightCalf" class="st3" points="191.4,516.8 191.4,528.9 197.8,532.2 218.9,531.1 223.4,522.3 215.4,509.1 "/>
<polygon id="rightSleeve" class="st7" points="240.8,264.6 259.1,284.4 266.4,298.7 266.4,306.4 280.5,333.9 279.5,341.7 291.6,367 
	220.1,396.7 221.1,265.7 "/>
<polygon id="rightSuedeBand" class="st8" points="302.8,372.5 309.5,413.2 251,435.3 236.6,389 275.1,368.1 "/>
<polygon id="rightPurpleTop" class="st4" points="296.1,359.3 274.1,361.5 232.2,384.6 233.4,402.2 256.5,385.7 280.6,375.8 
	302.8,372.5 "/>
<polygon id="rightPurpleBand" class="st4" points="309.4,412.4 310.5,426.2 306.1,431.1 292.9,431.1 264.1,437.9 250.8,441.9 
	246.6,435.4 263.1,423.2 288.5,414.4 "/>
<polygon id="rightRedBand" class="st9" points="303.9,379.4 309.4,385.9 311.6,401.5 308.2,406.1 295.1,406.1 259.8,417.7 
	243.2,428.7 236.6,406.6 260.9,391.2 "/>
<polygon id="rightGlove" class="st10" points="302.8,426.1 312.6,448.3 311.6,456.1 270.8,452.9 257.6,439.7 267.5,433.1 
	289.6,426.1 "/>
<polygon id="rightPinky" class="st11" points="270.8,452.9 262.2,456.8 258.5,468.6 271.9,470.5 277.4,459.5 "/>
<polygon id="rightIndex" class="st12" points="311.6,456.2 305,450.7 296.1,451.8 270.8,472.7 267.5,481.5 276.2,492.6 292.9,490.4 
	306.1,480.4 "/>
<polygon id="rightThumb" class="st13" points="278.5,440.8 292.9,443 296.1,451.8 291.8,470.5 285.1,483.7 274.1,482.6 271.9,470.5 
	270.8,452.9 "/>
<polygon id="rightPants" class="st6" points="252.1,488.2 260.9,455.1 257.6,435.3 240,392.3 245.5,381.3 236.6,374.7 222.4,375.8 
	159.2,456.2 167.5,483.7 172.4,485.9 172.4,491.5 188.4,497 216.9,501.4 235.5,494.8 "/>
<polygon id="rightKnee" class="st4" points="188.4,497 188.4,514.6 191.4,516.8 215.6,514.6 223.4,522.3 234.5,515.7 235.6,494.8 
	217.8,489.3 192.4,491.5 "/>
<polygon id="greenBelly" class="st14" points="224.6,309.7 230.1,328.4 225.6,380.2 53.8,354.9 86.9,239.2 "/>
<polygon id="maneHair" class="st10" points="201.4,135.7 200.2,129.1 186,126.9 161.8,124.7 128.7,135.7 96.8,155.5 89.1,170.9 
	75.9,181.9 88,187.5 78.1,209.5 237.8,208.4 244.4,204 242.1,178.6 235.6,173.1 234.5,153.3 "/>
<polygon id="leftBunny" class="st15" points="198.6,159.9 197.4,140.1 157.4,102.1 172.4,147.1 186.4,167.1 "/>
<polygon id="rightBunny" class="st15" points="218.4,169.1 224.4,156.1 249.4,150.1 240.4,171.1 222.4,183.1 "/>
<circle id="maskDongle" class="st9" cx="213.6" cy="135.7" r="11"/>
<polyline id="maskWrapping" class="st6" points="206.9,144.5 200.2,167.6 212.5,172 220.1,144.5 213.6,140.1 206.9,144.5 "/>
<polygon id="purpleApron" class="st3" points="99,350.5 221.2,364.8 232.2,353.8 237.8,354.9 229,378 227.9,396.7 215.8,432 
	187.1,457.3 166.1,459.5 138.7,447.4 81.4,395.6 "/>
<polygon id="redApron" class="st9" points="105.6,297.6 121,385.7 171.6,415.5 219.1,386.8 213.6,356 214.6,322.9 "/>
<polygon id="leftSleeve" class="st16" points="65.4,237 50.5,263.5 47.2,272.3 34,283.3 19.7,322.9 99.2,336.2 96.8,313 87.4,286.1 
	93.4,260.1 123.2,213.9 104.5,197.4 73.7,213.9 "/>
<polygon id="shoulderPad" class="st9" points="121.2,203.5 115.3,191.8 91.1,195.9 74.4,206.2 65.4,227.1 65.4,237 81.4,212.8 
	93.5,213.9 100.1,201.8 102.3,212.8 114.4,217.2 "/>
<polygon id="beardWrapping" class="st6" points="156.2,381.3 164,387.9 171.6,382.4 179.4,343.3 169.5,339.5 155.1,343.3 "/>
<polygon id="tipOfBeard" class="st15" points="156.2,381.6 147.5,389.2 143.1,399 150.8,396.3 155.1,420.1 161.8,420.1 173.9,401.5 
	176.1,389.2 171.6,382.5 "/>
<polygon id="leftSuedeBand" class="st8" points="11.7,341.7 -1.3,385.7 9.8,400 53.8,382.4 101.2,391.2 105.1,353.8 91.4,330.6 
	44.4,318.3 24.6,326.3 "/>
<polygon id="leftPurpleTop" class="st4" points="11.7,341.7 16.3,326.2 19.6,322.9 43.9,315.2 87.4,324 104.4,339.5 105.1,353.8 
	89.1,330.6 38.4,321.8 "/>
<polygon id="leftRedBand" class="st9" points="1.4,356 1.4,369.2 -1.3,385.7 5.3,381.3 8.7,375.8 28.5,369.2 79.2,368.1 
	102.3,380.2 101.2,391.2 107.8,384.6 110,369.2 106.7,358.2 91.3,346.1 45,336.2 15.2,346.1 "/>
<ellipse id="endOrb" class="st17" cx="-41.4" cy="438.6" rx="11.6" ry="14.3"/>
<ellipse id="topOrb" class="st17" cx="-5.6" cy="395.1" rx="13.2" ry="11.6"/>
<ellipse id="goldOrb" class="st18" cx="-2.9" cy="435.3" rx="43.5" ry="43"/>
<ellipse id="bigOrb" class="st17" cx="-8.9" cy="461.7" rx="13.2" ry="12.1"/>
<polygon id="leftPurpleBand" class="st4" points="17.9,409.9 14.2,404 8.9,387.9 20.7,378 66.4,372.5 94.4,380.2 94.4,402.2 "/>
<polygon id="leftThumb" class="st13" points="90.2,397.8 81.4,399.1 82.4,415.1 104.4,410.1 "/>
<polygon id="greenHandle" class="st16" points="59.4,460.6 97.9,456.2 115.4,450.1 121.4,443.1 123.4,408.1 112.2,404.4 40.6,416.6 
	"/>
<polygon id="leftGlove" class="st10" points="90.2,397.8 80.3,392.3 40.6,396.7 19.7,405.5 17.5,426.5 54.9,428.7 82.5,411.1 
	85.4,401.1 "/>
<polygon id="leftPinky" class="st12" points="17.5,426.5 15.3,445.2 29.6,457.3 41.7,459.5 26.3,426.5 21.9,424.3 "/>
<polygon id="leftBird" class="st13" points="26,426.5 30.6,452.9 46.1,469.4 59,473.8 66.4,470.5 66.4,460.6 53.8,447.4 52.2,428.7 
	38.1,423.2 "/>
<polygon id="leftIndex" class="st13" points="78.9,413.3 71.3,409.9 58.2,415.5 54.9,428.7 63.7,446.3 74.8,458.4 86.3,467.2 
	92.4,462.8 92.4,450.7 83.3,430.9 "/>
<polygon id="leftKnee" class="st4" points="79.2,511.3 80.3,526.7 92.9,528.9 121,516.8 125.4,501.4 "/>
<polygon id="leftCalf" class="st3" points="88,527.8 97.1,537.7 110,536.6 122.5,529.6 121,516.8 "/>
<polygon id="leftAnkle" class="st5" points="97.1,537.7 98.6,549.3 102.3,552.2 115,551.3 119.7,546 120.4,530.5 "/>
<polygon id="goldHandle" class="st18" points="132,411.1 118.4,406.5 110,417.7 111.1,434.2 118.8,445.2 133.2,438.6 "/>
<polygon id="lightHandle" class="st5" points="148.6,413.3 150.8,435.3 130.9,436.4 124.3,428.7 123.2,414.4 132,411.1 "/>
<polygon id="darkHandle" class="st1" points="219.1,400 200.1,404.4 176,407.7 148.2,413.3 141.4,419.9 141.4,427.6 150.8,435.3 
	171.6,426.5 180.5,418.8 208,414.4 "/>
<polygon id="dongleTwo" class="st19" points="173.1,473.1 181.6,458.3 190.1,473.1 "/>
<polygon id="dongleThree" class="st19" points="203.9,453.1 212.5,438.3 221,453.1 "/>
<polygon id="dongleFour" class="st19" points="220.4,417.1 227.4,404.9 234.4,417.1 "/>
<polygon id="dongleOne" class="st19" points="133.4,462.1 141.4,447.3 149.4,462.1 "/>
<ellipse id="TasselTwo" class="st4" cx="180" cy="459.5" rx="7.2" ry="4.4"/>
<ellipse id="tasselThree" class="st4" cx="209.6" cy="438" rx="7.2" ry="5"/>
<ellipse id="tasselFour" class="st4" cx="226.4" cy="405" rx="6.1" ry="3.9"/>
<ellipse id="tasselOne" class="st4" cx="140.9" cy="447.9" rx="6.6" ry="5"/>
<polygon id="midBeard" class="st20" points="101.4,237 101.4,263.5 102.4,293.2 120.4,318.5 143.1,334.5 193.9,333.6 222.9,315.8 
	229,303.4 236.6,314.3 243.2,276.7 240.1,234.1 "/>
<polygon id="darkBeard" class="st2" points="211.4,310.1 204.1,322.1 194.2,331.1 193.2,312.1 185.4,326.1 178.4,333.1 168.4,313.1 
	166.4,333.1 156.4,325.1 148.4,312.1 147.4,329.1 139.4,323.1 129.4,312.1 134.4,328.1 120.3,318.5 129.8,331.8 155.1,345.1 
	179.4,345.1 187.1,340.1 199.1,340.1 222.4,316.9 222.9,315.8 211.4,322.1 "/>
<polygon id="mainBeard" class="st15" points="116.4,270.1 119.4,285.1 138.4,255.1 135.4,272.1 137.4,296.1 154.4,266.1 
	160.4,283.1 172.4,303.1 175.4,269.1 180.4,255.1 186.4,282.1 192.4,270.1 193.4,302.1 204.4,284.1 207.4,265.1 211.4,287.1 
	218.4,266.1 226.4,296.1 231.4,275.1 230.4,257.1 235.4,270.1 238.4,246.1 244.4,249.9 237.8,200.8 229,193.1 197,193.1 
	183.8,169.3 172.4,160.1 164,164.8 150.8,163.4 138.4,175.1 101.2,231.6 95.4,262.1 101.2,256.3 107.2,271.6 117.4,254.1 "/>
<circle id="mask" class="st9" cx="198.6" cy="185.8" r="25.9"/>
<circle id="maskBevel" class="st21" cx="199.8" cy="189.1" r="20.4"/>
<polygon id="maskPlate" class="st22" points="219.4,183.1 204.6,183.1 192.8,170.7 184.4,173.2 180.5,182 188.1,191.9 186,204 
	191.4,209.1 199.8,209.5 206.9,201.8 216.9,198.5 220.4,192.4 "/>
<polygon class="st23" points="236.6,314.3 235.4,282.1 229,303.4 "/>
<ellipse id="mouth" class="st24" cx="195.1" cy="201.5" rx="4.5" ry="5.6"/>
<ellipse id="lefteye" class="st24" cx="191.6" cy="183" rx="5.2" ry="6.1"/>
<ellipse id="righteye" class="st24" cx="211.1" cy="191.8" rx="5.7" ry="4.8"/>
</svg>
