<svg xmlns="http://www.w3.org/2000/svg" viewBox="0 0 794.5 788.377">
  <style>
    .st0{fill:none;stroke:#FFFFFF;stroke-width:2;stroke-miterlimit:10;} .st1{fill:#F23D4A;stroke:#F4464B;stroke-miterlimit:10;} .st2{fill:#FFFFFF;} .st3{fill:#F9DD64;stroke:#FADB5B;stroke-miterlimit:10;}
  </style>
  <g id="frame">
    <path class="st0" d="M474.5 80.8s9.4 220.6 5.5 291.7M385.3 430.5s69-47 94.7-58c85-35.7 217.7-53.4 217.7-53.4"/>
    <path class="st0" d="M346.7 207.6s28.2 92.2 38.6 223c2.3 16 5.4 72 6.2 77.2 1.6 11.5 8 46 8 46M391.5 507.8s-51-129.6-87-173"/>
    <path class="st0" d="M586.6 503.6s-118 17-187.2 50c-17.4 7.7-67.4 44-67.4 44M494.3 609.8c-47.8-15.4-200.4-23.7-212.4 6M275.5 514.5l9.8 152.6M384 676s-40.4-7.4-98.7-9c0 0-52.4 18.8-54.7 25M298.8 729.6L230.6 692s-48.5-5-51.2 3M170 638l15.4 89M216.7 749.6L185.4 727s-41.3-8-44.4-1.5M131.6 709.7l18.8 30.8M480.3 262.2s-152-71.4-371-54.6"/>
    <circle class="st0" cx="385.3" cy="430.3" r="6.7"/>
    <circle class="st0" cx="480.3" cy="371.3" r="6.7"/>
    <circle class="st0" cx="285.3" cy="667.3" r="6.7"/>
    <circle class="st0" cx="333.2" cy="597.4" r="5.3"/>
    <circle class="st0" cx="230.2" cy="692.4" r="5.3"/>
    <circle class="st0" cx="391.2" cy="504.4" r="5.3"/>
    <ellipse class="st0" cx="185.1" cy="726.7" rx="3.1" ry="6.1"/>
    <circle class="st0" cx="480.3" cy="262.3" r="6.7"/>
    <circle class="st0" cx="282.4" cy="613.3" r="4.4"/>
  </g>
  <g id="paddles">
    <path class="st1" d="M549.5 510l57.4 27 43 2.4 5-41.8-31.5-23.7z"/>
    <path class="st2" d="M666.6 324l89.5 37 38.5-79-67 8zM346.7 231.7l9.7-11-2.2-55.7-45.6-17.7zM319.4 356l-4.4-43-27-30-6.5 53.8zM277 544l37.8-11-47.3-72-15 42.6v20.7zM172.5 653l15.6-14 7.2-13.7h-63.6z"/>
    <path class="st3" d="M152.4 206l-78-30.2H32L0 257.3V303z"/>
    <path class="st2" d="M475 91.7l-10-46L460.7 0l23 34zM136.5 718.7v-18l-25-7zM145.3 732l7.7 41 10.4-29.8zM198.3 736.3l25.6 52 18.3-2.2 19.6-27.8zM277 717.6l18.4 29.3 31.3 33.5 46-14.7-61-42.8zM358 672.4l76 40.3 38.5-45.6-53.2-11.2zM464.5 603l61.8 64 45.2-47.7-51.2-28.5z"/>
  </g>
</svg>
