<?xml version="1.0" encoding="utf-8"?>
<!-- Generator: Adobe Illustrator 19.1.0, SVG Export Plug-In . SVG Version: 6.00 Build 0)  -->
<svg version="1.1" id="Layer_3" xmlns="http://www.w3.org/2000/svg" xmlns:xlink="http://www.w3.org/1999/xlink" x="0px" y="0px"
	 viewBox="0 0 91.683 92.255" style="enable-background:new 0 0 91.683 92.255;" xml:space="preserve">
<style type="text/css">
	.st0{fill:#FFFFFF;}
	.st1{fill:#B1DAE5;}
</style>
<path d="M63.32,31.149c0,0.01-0.01,0.01-0.01,0.01c-0.01,0-0.02,0-0.03,0c0-0.01,0-0.02,0.01-0.03
	C63.3,31.139,63.31,31.139,63.32,31.149z"/>
<path d="M59.74,41.879c-0.32-2.9-0.55-5.78-0.1-8.67C60.28,36.099,59.84,39.009,59.74,41.879z"/>
<path class="st0" d="M22.02,58.389c-0.41-1.33-0.81-2.66-1.21-3.98c-0.11-0.36-0.36-0.75,0.01-1.12c3.72-0.24,8.99,1.89,10.4,4.28
	c-2.79,0.03-5.51,0.25-8.27,0.54L22.02,58.389z"/>
<path class="st0" d="M5.99,57.249c1.64-0.76,3.06-1.69,4.56-2.41c0.29-0.14,0.56-0.31,0.87-0.4c0.73-0.21,1.55-0.9,2.21-0.19
	c0.66,0.7,0.78,1.72,0.65,2.71c-0.05,0.34-0.25,0.61-0.59,0.66c-0.78,0.14-1.67,0.52-2.33,0.27c-1.49-0.55-2.96-0.49-4.47-0.39
	C6.6,57.509,6.29,57.339,5.99,57.249z"/>
<g>
	<path class="st0" d="M89.4,11.42c-1.55-1.76-3.59-2.8-5.71-3.47c-2.8-0.88-5.38-2.17-7.93-3.51c-2.55-1.33-5.21-2.08-8.03-2.41
		c-1.04-0.12-2.05-0.4-3.06-0.66c-0.3-0.08-0.59-0.32-0.53-0.71l-2.44-0.01c-0.06,0.14-0.2,0.24-0.35,0.31
		c-1.24,0.56-2.39,1.26-3.85,1.28c-1.28,0.01-2.43,0.61-3.55,1.34c-3.39,2.19-5.72,5.38-8.12,8.5c-2.55,3.33-5.46,6.32-8.49,9.19
		c-0.16,0.16-0.39,0.24-0.93,0.56l-1.29,1.95c0.52,0.65,0.15,1.22-0.22,1.74c-0.69,0.99-1.44,1.94-2.14,2.92
		c-1.15,1.63-0.92,3.75,0.6,4.98c1.66,1.34,3.56,1.99,5.62,1.14c2.97-1.22,6.11-1.31,9.22-1.64c0.96-0.1,1.9-0.2,2.83-0.53
		c2.13-0.76,4.33-1.25,6.58-1.43c3.62-0.28,6.94-1.37,9.92-3.41c1.28-0.88,2.83-1.12,4.16-1.9c1.32-0.77,2.69-1.43,3.78-2.55
		c0.97-1,2.26-1.54,3.44-2.21c2.43-1.38,4.64-3.18,7.46-3.88c1.35-0.33,2.36-1.33,3.2-2.45C90.57,13.23,90.49,12.67,89.4,11.42z
		 M36.51,25.779c-0.11,0.03-0.32-0.09-0.38-0.2c-0.06-0.1-0.01-0.34,0.07-0.4c0.44-0.32,0.89-0.64,1.5-0.41
		C37.52,25.379,37.06,25.649,36.51,25.779z M41.86,20.449c-0.01-0.52,0.18-0.86,0.76-0.85C42.66,20.149,42.39,20.409,41.86,20.449z
		 M44.11,17.069c1.05-1.9,2.1-3.8,3.25-5.89C47.87,12.98,47.13,14.36,44.11,17.069z M48.01,19.299c-0.24-1.25,0.44-2.07,0.87-2.88
		c0.42-0.79,0.53-1.84,1.53-2.36C50.33,15.769,49.76,17.019,48.01,19.299z M50.46,20.569c0.82-2.27,2.08-4.25,3.78-6.13
		C54,16.209,52.53,18.679,50.46,20.569z M55.93,20.989c-0.08,0.22-0.4,0.33-0.58,0.18c-0.15-0.11-0.3-0.45-0.23-0.6
		c0.61-1.35,1.26-2.68,1.9-4.02c0.15,0.09,0.3,0.18,0.45,0.27C57.2,18.289,56.41,19.589,55.93,20.989z M61.84,18.219
		c-0.23,0.37-0.63,0.47-1.01,0.24c-0.7-0.41-0.91-1-0.5-1.98c0.54,0.43,0.87,0.72,1.24,0.98C61.85,17.659,62.04,17.899,61.84,18.219
		z"/>
	<path class="st0" d="M63.27,31.17c-0.96,0.1-1.41,0.66-1.26,1.62c0.11,0.71,0.56,5.31,0.08,7.19c-0.88-0.85-0.73-1.69-0.69-2.43
		c0.09-1.65,0.07-3.16-0.22-4.74c-0.11-0.6-0.4-1.06-1.11-1.03c-0.79,0.03-1.45,0.55-1.52,1.26c-0.05,0.56-0.07,1.14,0.03,1.69
		c0.52,2.65,0.25,5.28,0.04,7.94c-0.14,1.71-0.71,3.3-1.07,4.94c-0.93,4.19-2.91,8-4.61,11.9c-0.1,0.21-0.3,0.38-0.43,0.58
		c-1.68,2.56-3.66,4.91-5.41,7.41c-1.31,1.88-2.83,3.48-4.53,4.97c-2.07,1.81-3.99,3.75-5.48,6.08c-0.43,0.67-0.87,1.32-0.66,2.32
		c1.35-1.09,1.49-2.92,2.91-3.97c0.22,0.91-0.35,1.37-0.52,1.94c-0.2,0.7-0.54,1.34-1.04,1.89c-0.55,0.62-0.83,1.34-0.88,2.19
		c-0.03,0.72-0.2,1.43-0.33,2.14c-0.08,0.38-0.14,0.81-0.75,0.7c-0.07-0.21-0.19-0.44-0.19-0.66c-0.01-1.45,0.18-2.93-1.5-3.75
		c-0.26-0.13-0.3-0.7-0.44-1.07c-0.16-0.46-0.22-0.98-0.49-1.35c-1.61-2.21-3.24-4.4-4.92-6.55c-1.28-1.65-2.83-3.07-3.86-4.92
		c-1.51-2.69-2.62-5.51-3.35-8.51c-0.47-1.94-0.98-3.9-2.04-5.64c-0.13-0.21-0.41-0.28-0.63-0.14c-0.11,0.06-0.2,0.26-0.21,0.39
		c0,0.24,0.05,0.48,0.12,0.71c0.61,2,1.25,3.99,1.83,6c0.2,0.73,0.75,1.43,0.36,2.56c-1.6-2.76-1.83-5.79-3.39-8.26
		c0.02,1.95,0.53,3.8,0.91,5.68c0.38,1.84,1.5,3.46,1.53,5.41c-2.49-3.51-2.54-7.89-4.09-12.09c-0.34,0.73-0.24,1.1-0.18,1.49
		c0.28,1.92,0.86,3.76,1.43,5.6c1.91,6.23,3.3,12.6,5.63,18.71c1.18,3.1,2.7,6,4.35,8.87c1.26,2.21,3.3,3.2,5.61,3.13
		c1.43-0.04,3.32,0.12,4.22-1.7c0.2-0.39,0.59-0.42,1.04-0.36c1.71,0.23,1.7,0.21,2.36-1.37c0.44-1.05,0.85-2.09,1.03-3.22
		c0.06-0.36,0-0.84,0.7-0.98c0.32,1.78-0.6,3.37-0.81,4.95c0.46,0.31,0.8,0.28,1.01,0.02c0.98-1.16,2.39-1.93,3.04-3.39
		c0.15-0.35,0.42-0.87,0.86-0.63c0.83,0.45,1.03-0.18,1.24-0.65c0.44-0.97,1.12-1.77,1.76-2.59c2.06-2.6,3.52-5.58,5.12-8.45
		c2.06-3.72,3.78-7.64,5.42-11.58c1.65-3.97,2.44-8.18,3.34-12.31c1.11-5.12,0.79-10.41,0.38-15.64
		C62.94,32.67,62.85,31.899,63.27,31.17z M38.01,87.459c-1-0.24-0.58-0.78-0.52-1.17c0.55-3.34,1.32-5.44,2.59-6.75
		C39.63,82.439,38.09,84.739,38.01,87.459z M59.74,41.879c-0.32-2.9-0.55-5.78-0.1-8.67C60.28,36.099,59.84,39.009,59.74,41.879z"/>
	<path class="st0" d="M18.66,51.42c4.28,0.25,8.47,0.97,12.13,3.46c0.53,0.36,1.11,0.67,1.69,0.93c1.45,0.65,2.37,0.21,2.61-1.36
		c0.26-1.64-0.13-3.18-1-4.62c-1.13-1.84-2.67-3.18-4.55-4.19c-2.12-1.14-4.08-2.61-6.43-3.26c-1.85-0.52-3.71-1.14-5.6-1.34
		c-4.18-0.42-7.99,0.52-10.93,3.8c-0.22,0.24-0.48,0.43-0.73,0.64c-2.68,2.23-4.47,5.02-5.24,8.44c-0.05,0.24-0.1,0.48-0.2,0.69
		c-0.09,0.18-0.23,0.35-0.41,0.35l1.38,1.35c0.13-0.16,0.35-0.21,0.58-0.18c2.37,0.34,4.38-0.8,6.46-1.61
		c1.94-0.76,3.77-1.82,5.74-2.46C15.59,51.589,17.18,51.329,18.66,51.42z"/>
</g>
<g>
	<path class="st1" d="M35.181,80.255c-0.622,2.91-0.87,6.076,1.317,8.432c2.218,2.39,5.877,2.249,8.177,0.088
		c2.82-2.649-1.429-6.886-4.243-4.243c0.149-0.14,0.305,0.004,0.441,0.032c0.304,0.064-0.183,0.037-0.017-0.002
		c-0.08,0.018-0.14-0.239-0.014,0.037c-0.373-0.815-0.073-1.829,0.124-2.751c0.338-1.583-0.469-3.244-2.095-3.69
		C37.377,77.749,35.521,78.664,35.181,80.255L35.181,80.255z"/>
</g>
<g>
	<path class="st1" d="M20.895,58.486c1.343-0.168,2.687-0.398,4.037-0.705c0.281-0.064,0.5-0.187,0.672-0.342
		c1.062,0.343,2.133,0.665,3.233,0.899c1.883,0.4,2.615-2.491,0.725-2.893c-3.455-0.734-6.726-2.245-10.205-2.843
		c-0.553-0.564-1.31-0.923-2.112-0.887c-0.785,0.035-1.493,0.343-2.026,0.831c-2.552,0.463-4.665,1.756-7.435,2.503
		c-1.373,0.37-1.484,2.586,0,2.893c2.325,0.48,4.631,0.748,6.933,0.824c0.148,0.59,0.32,1.173,0.542,1.738
		c0.593,1.507,2.01,2.557,3.69,2.095c1.436-0.395,2.692-2.174,2.095-3.69C20.985,58.762,20.946,58.628,20.895,58.486z"/>
	<path class="st1" d="M63.836,33.472c-0.25-3.833-6.252-3.862-6,0c0.211,3.237,0.166,6.494-0.29,9.71
		c-0.229,1.617,0.397,3.203,2.095,3.69c1.403,0.403,3.464-0.493,3.69-2.095C63.866,41.006,64.084,37.278,63.836,33.472z"/>
	<path class="st1" d="M56.822,14.573c-2.022,0.305-4.082-0.163-6.108-0.413c0.397-0.692,0.781-1.393,1.136-2.11
		c1.706-3.45-3.467-6.493-5.181-3.028c-1.913,3.868-4.4,7.231-7.559,10.173c-0.051,0.048-0.084,0.099-0.13,0.148
		c-2.881,1.535-1.286,6.587,2.202,5.535c1.297-0.391,2.368-0.95,3.432-1.798c0.954-0.76,1.949-2.249,3.061-2.76
		c1.376-0.633,3.089,0.142,4.592,0.302c2.106,0.224,4.065,0.051,6.151-0.263C62.222,19.785,60.605,14.003,56.822,14.573z"/>
	<path class="st1" d="M51.148,74.247c-1.942,1.977-3.884,3.954-5.826,5.931c-1.052,1.071-1.853,2.443-3.15,0.961
		c-1.058-1.209-1.265-3.253-1.046-4.757c0.275-1.888-2.615-2.704-2.893-0.797c-0.462,3.165,0.488,8.928,4.467,9.61
		c1.806,0.31,2.913-1.032,4.058-2.198c2.17-2.21,4.341-4.419,6.511-6.629C54.623,74.99,52.503,72.867,51.148,74.247z"/>
	<path class="st1" d="M34.813,85.36c-0.769,1.581-2.205,2.794-4.036,2.839c-1.127,0.028-4.312-1.357-4.748-2.812
		c-0.565-1.888-3.036-3.603-2.721-1.699c0.531,3.219,5.897,7.453,6.125,7.469c0.144,0.595,1.314,1.085,2.104,1.097
		c3.427,0.052,6.173-2.702,6.072-6.138C37.567,84.723,35.497,83.954,34.813,85.36z"/>
</g>
<g>
	<path d="M37.49,86.289c0.55-3.34,1.32-5.44,2.59-6.75c-0.45,2.9-1.99,5.2-2.07,7.92C37.01,87.219,37.43,86.679,37.49,86.289z"/>
	<g>
		<path d="M60.33,16.479c0.54,0.43,0.87,0.72,1.24,0.98c0.28,0.2,0.47,0.44,0.27,0.76c-0.23,0.37-0.63,0.47-1.01,0.24
			C60.13,18.049,59.92,17.459,60.33,16.479z"/>
		<path d="M57.47,16.819c-0.27,1.47-1.06,2.77-1.54,4.17c-0.08,0.22-0.4,0.33-0.58,0.18c-0.15-0.11-0.3-0.45-0.23-0.6
			c0.61-1.35,1.26-2.68,1.9-4.02C57.17,16.639,57.32,16.729,57.47,16.819z"/>
		<path d="M54.24,14.439c-0.24,1.77-1.71,4.24-3.78,6.13C51.28,18.299,52.54,16.319,54.24,14.439z"/>
		<path d="M48.01,19.299c-0.24-1.25,0.44-2.07,0.87-2.88c0.42-0.79,0.53-1.84,1.53-2.36C50.33,15.769,49.76,17.019,48.01,19.299z"/>
		<path d="M44.11,17.069c1.05-1.9,2.1-3.8,3.25-5.89C47.87,12.979,47.13,14.359,44.11,17.069z"/>
		<path d="M42.62,19.599c0.04,0.55-0.23,0.81-0.76,0.85C41.85,19.929,42.04,19.589,42.62,19.599z"/>
		<path d="M45.83,12.079c-2.55,3.33-5.46,6.32-8.49,9.19c-0.16,0.16-0.39,0.24-0.93,0.56c0-1.35,0.59-2.02,1.24-2.57
			c4.31-3.7,7.56-8.31,11.13-12.66c1.95-2.37,4.35-4.28,7.36-5.23c1.59-0.5,3.33-0.49,4.85-1.3c0.26-0.14,0.66-0.09,0.73,0.35
			c0.02,0.09,0.01,0.17-0.02,0.23c-0.06,0.14-0.2,0.24-0.35,0.31c-1.24,0.56-2.39,1.26-3.85,1.28c-1.28,0.01-2.43,0.61-3.55,1.34
			C50.56,5.769,48.23,8.959,45.83,12.079z"/>
		<path d="M36.13,25.579c-0.06-0.1-0.01-0.34,0.07-0.4c0.44-0.32,0.89-0.64,1.5-0.41c-0.18,0.61-0.64,0.88-1.19,1.01
			C36.4,25.809,36.19,25.689,36.13,25.579z"/>
		<path d="M15.28,55.059c0.28,1.92,0.86,3.76,1.43,5.6c1.91,6.23,3.3,12.6,5.63,18.71c1.18,3.1,2.7,6,4.35,8.87
			c1.26,2.21,3.3,3.2,5.61,3.13c1.43-0.04,3.32,0.12,4.22-1.7c0.2-0.39,0.59-0.42,1.04-0.36c1.71,0.23,1.7,0.21,2.36-1.37
			c0.44-1.05,0.85-2.09,1.03-3.22c0.06-0.36,0-0.84,0.7-0.98c0.32,1.78-0.6,3.37-0.81,4.95c0.46,0.31,0.8,0.28,1.01,0.02
			c0.98-1.16,2.39-1.93,3.04-3.39c0.15-0.35,0.42-0.87,0.86-0.63c0.83,0.45,1.03-0.18,1.24-0.65c0.44-0.97,1.12-1.77,1.76-2.59
			c2.06-2.6,3.52-5.58,5.12-8.45c2.06-3.72,3.78-7.64,5.42-11.58c1.65-3.97,2.44-8.18,3.34-12.31c1.11-5.12,0.79-10.41,0.38-15.64
			c-0.07-0.8-0.16-1.57,0.26-2.3c-0.96,0.1-1.41,0.66-1.26,1.62c0.11,0.71,0.56,5.31,0.08,7.19c-0.88-0.85-0.73-1.69-0.69-2.43
			c0.09-1.65,0.07-3.16-0.22-4.74c-0.11-0.6-0.4-1.06-1.11-1.03c-0.79,0.03-1.45,0.55-1.52,1.26c-0.05,0.56-0.07,1.14,0.03,1.69
			c0.52,2.65,0.25,5.28,0.04,7.94c-0.14,1.71-0.71,3.3-1.07,4.94c-0.93,4.19-2.91,8-4.61,11.9c-0.1,0.21-0.3,0.38-0.43,0.58
			c-1.68,2.56-3.66,4.91-5.41,7.41c-1.31,1.88-2.83,3.48-4.53,4.97c-2.07,1.81-3.99,3.75-5.48,6.08c-0.43,0.67-0.87,1.32-0.66,2.32
			c1.35-1.09,1.49-2.92,2.91-3.97c0.22,0.91-0.35,1.37-0.52,1.94c-0.2,0.7-0.54,1.34-1.04,1.89c-0.55,0.62-0.83,1.34-0.88,2.19
			c-0.03,0.72-0.2,1.43-0.33,2.14c-0.08,0.38-0.14,0.81-0.75,0.7c-0.07-0.21-0.19-0.44-0.19-0.66c-0.01-1.45,0.18-2.93-1.5-3.75
			c-0.26-0.13-0.3-0.7-0.44-1.07c-0.16-0.46-0.22-0.98-0.49-1.35c-1.61-2.21-3.24-4.4-4.92-6.55c-1.28-1.65-2.83-3.07-3.86-4.92
			c-1.51-2.69-2.62-5.51-3.35-8.51c-0.47-1.94-0.98-3.9-2.04-5.64c-0.13-0.21-0.41-0.28-0.63-0.14c-0.11,0.06-0.2,0.26-0.21,0.39
			c0,0.24,0.05,0.48,0.12,0.71c0.61,2,1.25,3.99,1.83,6c0.2,0.73,0.75,1.43,0.36,2.56c-1.6-2.76-1.83-5.79-3.39-8.26
			c0.02,1.95,0.53,3.8,0.91,5.68c0.38,1.84,1.5,3.46,1.53,5.41c-2.49-3.51-2.54-7.89-4.09-12.09
			C15.12,54.299,15.22,54.669,15.28,55.059z M10.55,54.839c-1.5,0.72-2.92,1.65-4.56,2.41c0.3,0.09,0.61,0.26,0.9,0.25
			c1.51-0.1,2.98-0.16,4.47,0.39c0.66,0.25,1.55-0.13,2.33-0.27c0.34-0.05,0.54-0.32,0.59-0.66c0.13-0.99,0.01-2.01-0.65-2.71
			c-0.66-0.71-1.48-0.02-2.21,0.19C11.11,54.529,10.84,54.699,10.55,54.839z M-0.53,54.389c-0.02-0.55-0.1-1.17,0.1-1.66
			c0.92-2.3,1.65-4.72,3.76-6.35c0.94-0.74,1.74-1.67,2.58-2.54c2.94-3.07,6.72-4.16,10.75-3.92c3.76,0.21,7.42,1.19,10.75,3.15
			c1.59,0.93,3.22,1.8,4.77,2.82c2.31,1.51,3.59,3.66,4.17,6.25c0.68,3.06-0.45,5.2-3.41,6.23c-2.77,0.96-5.68,1.05-8.58,0.77
			c-0.51-0.05-1.14-0.14-1.41-1.03c2.76-0.29,5.48-0.51,8.27-0.54c-1.41-2.39-6.68-4.52-10.4-4.28c-0.37,0.37-0.12,0.76-0.01,1.12
			c0.4,1.32,0.8,2.65,1.21,3.98c0.44,1.44,0.89,2.88,1.35,4.31c1.03,3.2,2.94,5.89,5.21,8.31c2.32,2.48,4.3,5.18,6.04,8.09
			c0.07,0.12,0.24,0.19,0.42,0.33c0.62-0.82,1.34-1.59,1.84-2.48c1.3-2.31,3.33-3.9,5.31-5.53c1.19-0.99,2.26-2.11,3.08-3.38
			c1.87-2.92,4.21-5.49,6.13-8.38c0.58-0.88,1.18-1.74,1.5-2.73c0.71-2.23,1.61-4.38,2.61-6.49c0.41-0.88,0.71-1.79,0.87-2.75
			c0.51-3.02,1.12-6.01,1.3-9.08c0.11-1.79-0.13-3.53-0.39-5.28c-0.14-0.93-0.58-1.18-1.57-0.94c-1.87,0.45-3.86,0.43-5.59,1.41
			c-0.27,0.15-0.65,0.26-0.93,0.19c-2.22-0.53-4.26,0.58-6.43,0.65c-1.09,0.03-2.19,0.44-3.23,0.9c-2.98,1.29-6.79-0.5-7.93-2.39
			c-1.22-2.05-1.14-3.96,0.47-5.75c0.81-0.91,1.56-1.84,2.15-2.91c0.19-0.35,0.39-0.7,0.89-0.71c0.52,0.65,0.15,1.22-0.22,1.74
			c-0.69,0.99-1.44,1.94-2.14,2.92c-1.15,1.63-0.92,3.75,0.6,4.98c1.66,1.34,3.56,1.99,5.62,1.14c2.97-1.22,6.11-1.31,9.22-1.64
			c0.96-0.1,1.9-0.2,2.83-0.53c2.13-0.76,4.33-1.25,6.58-1.43c3.62-0.28,6.94-1.37,9.92-3.41c1.28-0.88,2.83-1.12,4.16-1.9
			c1.32-0.77,2.69-1.43,3.78-2.55c0.97-1,2.26-1.54,3.44-2.21c2.43-1.38,4.64-3.18,7.46-3.88c1.35-0.33,2.36-1.33,3.2-2.45
			c1-1.33,0.92-1.89-0.17-3.14c-1.55-1.76-3.59-2.8-5.71-3.47c-2.8-0.88-5.38-2.17-7.93-3.51c-2.55-1.33-5.21-2.08-8.03-2.41
			c-1.04-0.12-2.05-0.4-3.06-0.66c-0.3-0.08-0.59-0.32-0.53-0.71c0.07-0.42,0.38-0.44,0.72-0.37c2.59,0.53,5.18,1.04,7.76,1.61
			c1.75,0.39,3.26,1.37,4.84,2.16c2.08,1.05,4.15,2.06,6.42,2.75c2.6,0.78,5.06,2.03,6.88,4.23c1.18,1.43,1.22,2.33,0.17,3.88
			c-1.08,1.6-2.49,2.78-4.34,3.26c-2.55,0.66-4.62,2.24-6.84,3.5c-1.75,0.99-3.44,2.07-4.96,3.41c-1.03,0.91-2.31,1.46-3.56,2
			c-2.74,1.16-5.28,2.69-7.91,4.06c-0.01-0.01-0.02-0.01-0.03-0.02c-0.01,0.01-0.01,0.02-0.01,0.03c0.01,0,0.02,0,0.03,0
			c0,0,0.01,0,0.01-0.01c0.42,0.27,0.65,0.67,0.72,1.16c0.09,0.64,0.21,1.28,0.22,1.92c0.11,4.91,0.63,9.87-0.44,14.68
			c-0.88,3.99-1.73,8-3.13,11.88c-1.73,4.79-4.1,9.26-6.42,13.77c-2.33,4.52-5.56,8.47-8.01,12.91c-0.67,1.21-1.98,1.61-3.1,2.13
			c-1.38,0.65-2.86,1.06-4.32,1.52c-1.59,0.5-3.19,0.95-4.79,1.4c-2.77,0.78-6.29-0.49-7.84-2.92c-3.13-4.93-5.33-10.23-6.74-15.92
			c-0.67-2.71-1.64-5.37-2.46-8.06c-0.52-1.69-1.05-3.37-1.62-5.04c-0.46-1.36-1.09-1.8-2.52-1.54c-1,0.19-1.89,0.13-2.84-0.14
			c-0.61-0.17-1.29-0.18-1.92-0.11c-2.28,0.27-4.25-0.73-6.29-1.45c-0.32-0.12-0.55-0.37-0.54-0.72c0-0.13,0.04-0.23,0.1-0.31
			c0.13-0.16,0.35-0.21,0.58-0.18c2.37,0.34,4.38-0.8,6.46-1.61c1.94-0.76,3.77-1.82,5.74-2.46c1.43-0.47,3.02-0.73,4.5-0.64
			c4.28,0.25,8.47,0.97,12.13,3.46c0.53,0.36,1.11,0.67,1.69,0.93c1.45,0.65,2.37,0.21,2.61-1.36c0.26-1.64-0.13-3.18-1-4.62
			c-1.13-1.84-2.67-3.18-4.55-4.19c-2.12-1.14-4.08-2.61-6.43-3.26c-1.85-0.52-3.71-1.14-5.6-1.34c-4.18-0.42-7.99,0.52-10.93,3.8
			c-0.22,0.24-0.48,0.43-0.73,0.64c-2.68,2.23-4.47,5.02-5.24,8.44c-0.05,0.24-0.1,0.48-0.2,0.69c-0.09,0.18-0.23,0.35-0.41,0.35
			c-0.05,0-0.1-0.01-0.15-0.04C-0.33,54.819-0.52,54.579-0.53,54.389z"/>
	</g>
</g>
</svg>
