<svg id="Layer_3" xmlns="http://www.w3.org/2000/svg" viewBox="0 0 91.683 92.255">
  <style>
    .st0{fill:#FFFFFF;} .st1{fill:#B1DAE5;}
  </style>
  <path d="M63.3 31v.2zM59.7 42c-.3-3-.5-6 0-8.8.6 3 0 5.8 0 8.7z"/>
  <path class="st0" d="M22 58.4l-1.2-4c0-.4-.4-.7 0-1 3.7-.4 9 1.8 10.4 4.2-2.8 0-5.5.2-8.3.5l-1 .4zM6 57.2c1.6-.7 3-1.6 4.5-2.4.3 0 .6-.3 1-.4.6-.2 1.5-1 2-.2.8.7 1 1.8.8 2.8 0 .3-.3.6-.6.6-.8.2-1.7.5-2.3.3-1.5-.7-3-.6-4.5-.5-.4 0-.7-.2-1-.3zM89.4 11.4c-1.6-1.7-3.6-2.8-5.7-3.5-2.8-1-5.4-2.2-8-3.6-2.5-1.3-5-2-8-2.4-1 0-2-.4-3-.6-.3 0-.6-.4-.6-.7h-2.3l-.3.3c-1.3.5-2.4 1.2-4 1.2-1.2 0-2.3.6-3.4 1.4-3.4 2.2-5.8 5.4-8.2 8.5-2.5 3.4-5.4 6.4-8.5 9.3l-1 .5-1.2 2c.6.6.3 1.2 0 1.7l-2.2 3c-1.2 1.6-1 3.7.6 5 1.6 1.3 3.5 2 5.6 1 3-1.2 6-1.3 9.2-1.6 1-.2 2-.3 2.8-.6 2.2-.8 4.4-1.3 6.6-1.4 3.6-.3 7-1.4 10-3.5 1.2-.8 2.8-1 4-2 1.4-.6 2.8-1.3 4-2.4.8-1 2-1.4 3.3-2 2.3-1.5 4.6-3.3 7.4-4 1.3-.3 2.3-1.3 3.2-2.4 1-1.4 1-2-.2-3.2zm-53 14.4s-.2 0-.3-.2c0 0 0-.4.2-.4.4-.3 1-.7 1.5-.4-.2.6-.6.8-1.2 1zm5.5-5.4c-.2-.5 0-.8.6-.8 0 .5-.2.8-.7.8zm2-3.3c1.2-1.8 2.2-3.7 3.4-5.8.5 1.8-.3 3.2-3.3 6zm4 2.3c-.2-1.3.4-2 1-3 .3-.7.4-1.7 1.4-2.2 0 1.8-.6 3-2.4 5.3zm2.5 1.3c.8-2.3 2-4.3 3.7-6.2-.2 1.8-1.7 4.3-3.7 6.2zm5.4.4c-.2.2-.5.3-.7.2l-.2-.6 2-4c.2 0 .3 0 .5.2-.3 1.5-1 2.8-1.6 4.2zm5.8-2.8c-.2.4-.6.5-1 .3-.7-.5-1-1-.5-2l1.3 1c.3.2.4.4.2.7z"/>
  <path class="st0" d="M63.3 31.2c-1 0-1.4.6-1.3 1.6 0 .7.6 5.3 0 7.2-.8-1-.6-1.7-.6-2.5 0-1.6 0-3-.2-4.7 0-.6-.4-1-1-1-1 0-1.6.5-1.6 1.2v1.7c.5 2.7.2 5.3 0 8 0 1.7-.7 3.3-1 5-1 4-3 8-4.7 11.8l-.5.6c-1.7 2.6-3.6 5-5.4 7.5-1.2 2-2.7 3.5-4.4 5-2 1.8-4 3.7-5.5 6-.3.7-.8 1.4-.6 2.4 1.4-1.2 1.5-3 3-4 .2.8-.4 1.3-.6 1.8-.2.7-.5 1.4-1 2-.6.5-.8 1.3-1 2 0 .8 0 1.5-.2 2.3 0 .4-.2 1-.8.8l-.2-.7c0-1.4.2-2.8-1.5-3.7l-.3-1c-.2-.5-.2-1-.5-1.4-1.6-2.3-3.2-4.5-5-6.6-1.2-1.7-2.7-3-3.8-5C23 65 21.8 62 21 59c-.4-2-1-4-2-5.7 0-.2-.4-.3-.6 0 0 0-.2 0-.2.3v.7l2 6c0 .7.7 1.4.3 2.5C19 60 18.7 57 17 54.6c0 2 .6 3.8 1 5.6.4 2 1.5 3.5 1.5 5.5-2.4-3.6-2.5-8-4-12-.4.6-.3 1-.2 1.4.3 2 .8 3.8 1.4 5.7 2 6.2 3.3 12.6 5.6 18.7 1.2 3 2.7 6 4.4 8.8 1.2 2.3 3.3 3.2 5.6 3.2 1.4 0 3.3 0 4.2-1.7.2-.4.6-.5 1-.4 1.8.2 1.8.2 2.4-1.4.4-1 .8-2.2 1-3.3 0-.3 0-.8.6-1 .4 1.8-.6 3.4-.8 5 .5.3.8.3 1 0 1-1.2 2.4-2 3-3.4.2-.3.5-1 1-.6.8.4 1-.2 1.2-.7.4-1 1-1.7 1.7-2.6 2-2.6 3.6-5.5 5.2-8.4 2-3.7 3.6-7.6 5.3-11.6 1.6-4 2.4-8.2 3.3-12.3 1-5 .8-10.3.4-15.5 0-.8 0-1.6.3-2.3zM38 87.5c-1-.3-.6-.8-.5-1.2.5-3.4 1.3-5.5 2.6-6.8-.4 3-2 5.2-2 8zM59.7 42c-.3-3-.5-6 0-8.8.6 3 0 5.8 0 8.7z"/>
  <path class="st0" d="M18.7 51.4c4.2.3 8.4 1 12 3.5l1.8.8c1.4.7 2.3.2 2.6-1.3.3-1.7 0-3.2-1-4.7-1-1.8-2.6-3-4.5-4.2-2-1-4-2.6-6.4-3.2-1.7-.5-3.6-1.2-5.5-1.4-4.2-.4-8 .6-11 3.8 0 .3-.4.5-.7.7-2.6 2.2-4.4 5-5.2 8.4 0 .2 0 .4-.2.6 0 .2-.2.4-.4.4l1.4 1.3.6-.2c2.3.5 4.3-.7 6.4-1.5 2-.7 3.8-1.8 5.8-2.4 1.4-.4 3-.7 4.5-.6z"/>
  <path class="st1" d="M35.2 80.3c-.6 3-1 6 1.3 8.4 2.2 2.4 6 2.2 8.2 0 2.8-2.6-1.5-6.8-4.3-4.2h.5c.2 0-.3 0 0 0-.2 0-.3-.2-.2 0-.3-.7 0-1.7.2-2.7.3-1.5-.5-3.2-2-3.6-1.6-.5-3.5.5-3.8 2z"/>
  <g>
    <path class="st1" d="M21 58.5l4-.7c.2 0 .4-.2.6-.4l3.2 1c2 .3 2.7-2.6.8-3-3.5-.7-6.8-2.2-10.2-2.8-.6-.6-1.4-1-2.2-1-.7.2-1.4.5-2 1-2.5.4-4.6 1.7-7.4 2.4-1.4.4-1.5 2.6 0 3 2.3.4 4.6.7 7 .8 0 .6.2 1 .5 1.7.6 1.5 2 2.6 3.6 2 1.4-.3 2.6-2 2-3.6v-.5zM63.8 33.5c-.2-4-6.2-4-6 0 .2 3.2.2 6.5-.3 9.7-.2 1.6.4 3.2 2 3.7 1.5.3 3.6-.6 3.8-2.2.6-3.8.8-7.5.5-11.3zM56.8 14.6c-2 .3-4-.2-6-.4l1-2c1.8-3.6-3.4-6.6-5-3.2-2 4-4.5 7.3-7.7 10.2-3 1.7-1.3 6.7 2.2 5.7 1.3-.5 2.4-1 3.4-2 1-.7 2-2.2 3-2.7 1.5-.6 3.2.2 4.7.3 2 .2 4 0 6-.2 4-.6 2.3-6.4-1.5-5.8zM51 74.2l-5.7 6c-1 1-1.8 2.4-3 1-1.2-1.3-1.4-3.3-1.2-4.8.4-2-2.5-2.7-2.8-.8-.4 3 .5 9 4.5 9.6 1.8.3 3-1 4-2.2l6.6-6.6c1.3-1.4-.8-3.5-2.2-2.2zM34.8 85.4c-.8 1.5-2.2 2.8-4 2.8-1 0-4.3-1.4-4.8-2.8-.5-2-3-3.6-2.7-1.7.5 3.2 6 7.4 6 7.5.3.6 1.4 1 2.2 1 3.5 0 6.2-2.6 6-6 0-1.5-2-2.2-2.7-.8z"/>
  </g>
  <g>
    <path d="M37.5 86.3c.5-3.4 1.3-5.5 2.6-6.8-.4 3-2 5.2-2 8-1-.3-.6-.8-.5-1.2zM60.3 16.5l1.3 1c.2.2.4.4.2.7-.2.4-.6.5-1 .3-.7-.5-1-1-.5-2zM57.5 16.8c-.3 1.5-1 2.8-1.6 4.2-.2.2-.5.3-.7.2l-.2-.6 2-4c.2 0 .3 0 .5.2zM54.2 14.4c-.2 1.8-1.7 4.3-3.7 6.2.8-2.3 2-4.3 3.7-6.2zM48 19.3c-.2-1.3.4-2 1-3 .3-.7.4-1.7 1.4-2.2 0 1.8-.6 3-2.4 5.3zM44 17c1.2-1.8 2.2-3.7 3.4-5.8.5 1.8-.3 3.2-3.3 6zM42.6 19.6c0 .5-.2.8-.7.8 0-.5 0-.8.6-.8z"/>
    <path d="M45.8 12c-2.5 3.4-5.4 6.4-8.5 9.3l-1 .5c0-1.3.7-2 1.3-2.5C42 15.6 45.3 11 48.8 6.6c2-2.4 4.3-4.3 7.3-5.2C57.8 1 59.6 1 61 0c.3 0 .7 0 .7.4v.2c0 .2-.2.3-.4.4-1.2.5-2.3 1.2-3.8 1.2-1.3 0-2.4.6-3.6 1.4C50.5 5.8 48 9 45.8 12zM36 25.6s0-.4.2-.4c.4-.3 1-.7 1.5-.4-.2.6-.6.8-1.2 1 0 0-.3 0-.4-.2z"/>
    <path d="M15.3 55c.3 2 .8 3.8 1.4 5.7 2 6.2 3.3 12.6 5.6 18.7 1.2 3 2.7 6 4.4 8.8 1.2 2.2 3.3 3.2 5.6 3.2 1.4 0 3.3 0 4.2-1.7.2-.4.6-.5 1-.4 1.8.2 1.8.2 2.4-1.4.4-1 .8-2.2 1-3.3 0-.3 0-.8.6-1 .4 1.8-.6 3.4-.8 5 .5.3.8.3 1 0 1-1.2 2.4-2 3-3.4.2-.3.5-1 1-.6.8.4 1-.2 1.2-.7.4-1 1-1.7 1.7-2.6 2-2.6 3.6-5.5 5.2-8.4 2-3.7 3.6-7.6 5.3-11.6 1.6-4 2.4-8.2 3.3-12.3 1-5 .8-10.3.4-15.5 0-.8-.2-1.6.3-2.3-1 0-1.4.6-1.3 1.6 0 .7.6 5.3 0 7.2-.8-1-.6-1.7-.6-2.5 0-1.6 0-3-.2-4.7 0-.6-.4-1-1-1-1 0-1.6.5-1.7 1.2v1.7c.6 2.7.3 5.3 0 8 0 1.7-.6 3.3-1 5-1 4-3 8-4.6 11.8l-.5.6c-1.7 2.6-3.7 5-5.4 7.5-1.2 2-2.7 3.5-4.4 5-2 1.8-4 3.7-5.5 6-.3.7-.8 1.4-.6 2.4 1.4-1.2 1.5-3 3-4 .2.8-.4 1.3-.6 1.8-.2.7-.5 1.4-1 2-.6.5-1 1.3-1 2 0 .8 0 1.5-.2 2.3 0 .4-.2 1-.8.8l-.2-.7c0-1.4.2-2.8-1.5-3.7l-.3-1c-.2-.5-.2-1-.5-1.4-1.6-2.3-3.2-4.5-5-6.6-1.2-1.7-2.8-3-3.8-5C23 65 21.8 62 21 59c-.4-2-1-4-2-5.7 0-.2-.4-.3-.6 0 0 0-.2 0-.2.3v.7l2 6c0 .7.7 1.4.3 2.5C19 60 18.7 57 17 54.6c0 2 .6 3.8 1 5.6.4 2 1.5 3.5 1.5 5.5-2.4-3.6-2.5-8-4-12-.4.6-.3 1-.2 1.4zm-4.8-.2L6 57.2c.3 0 .6.3 1 .3 1.4 0 3-.2 4.4.4.6 0 1.5-.2 2.3-.4.3 0 .5-.3.6-.6 0-1 0-2-.7-2.8-.6-.7-1.4 0-2.2.2-.3 0-.6.3-.8.4zm-11-.4v-1.7c1-2.3 1.7-4.7 3.8-6.3 1-.8 1.8-1.7 2.6-2.6 3-3 6.6-4 10.7-4 3.7.3 7.4 1.3 10.7 3.3l4.8 3c2.3 1.4 3.6 3.5 4 6 .8 3.2-.3 5.3-3.3 6.4-2.8 1-5.7 1-8.6.7-.5 0-1.2 0-1.4-1 2.7-.2 5.4-.4 8.2-.4-1.4-2.4-6.7-4.6-10.4-4.3-.4.4 0 .7 0 1l1.2 4 1.4 4.4c1 3.2 3 6 5.2 8.3 2.3 2.5 4.3 5.2 6 8 0 .2.3.3.4.4l2-2.5c1.2-2.4 3.2-4 5.2-5.6 1.2-1 2.3-2 3-3.4 2-3 4.3-5.5 6.2-8.3.6-1 1.2-1.8 1.5-2.8.6-2.3 1.5-4.5 2.5-6.6l1-2.7c.4-3 1-6 1.2-9 0-2 0-3.6-.4-5.4 0-1-.6-1.2-1.6-1C54 33 52 33 50 34c0 0-.5.3-.8.2-2.2-.5-4.3.6-6.4.6-1 0-2.2.5-3.3 1-3 1.2-6.7-.6-8-2.5-1-2-1-3.8.6-5.6 1-1 1.6-1.8 2.2-3 .2-.3.4-.6 1-.6.4.6 0 1.2-.3 1.7l-2.2 3c-1.2 1.6-1 3.7.6 5 1.6 1.3 3.5 2 5.6 1 3-1.2 6-1.3 9.2-1.6 1-.2 2-.3 2.8-.6 2.2-.8 4.4-1.3 6.6-1.4 3.6-.3 7-1.4 10-3.5 1.2-.8 2.8-1 4-2 1.4-.6 2.8-1.3 4-2.4.8-1 2-1.4 3.3-2 2.3-1.5 4.5-3.3 7.4-4 1.3-.3 2.3-1.3 3.2-2.4 1-1.4 1-2-.2-3.2-1.6-1.7-3.6-2.8-5.7-3.5-2.8-1-5.4-2.2-8-3.6-2.5-1.3-5.2-2-8-2.4-1 0-2-.4-3-.6-.3 0-.6-.4-.6-.7.2-.5.5-.5 1-.4L72.5 2c1.8.3 3.3 1.3 5 2 2 1 4 2 6.3 2.8 2.5.8 5 2 6.8 4.2 1 1.5 1.2 2.4 0 4-1 1.5-2.4 2.7-4.2 3.2-2.6.6-4.6 2.2-7 3.5-1.6 1-3.3 2-4.8 3.4-1 1-2.3 1.5-3.6 2-2.7 1.2-5.3 2.8-8 4v.2c.5.2.8.6.8 1 0 .7.2 1.4.3 2 0 5 .6 10-.5 14.7-1 4-1.7 8-3 11.8-1.8 4.8-4.2 9.2-6.5 13.8-2.4 4.5-5.6 8.4-8 13-.7 1-2 1.5-3 2L38.7 91 34 92.6c-2.7.8-6.2-.5-7.8-3-3-4.8-5.3-10-6.7-15.8-.7-2.7-1.7-5.4-2.5-8-.5-1.8-1-3.5-1.6-5-.5-1.5-1-2-2.5-1.7-1 .2-2 .2-3 0-.6-.3-1.3-.3-2-.2C6 59 4 58 2 57.3c-.3 0-.5-.3-.5-.7v-.3c.2-.2.4-.2.7-.2 2.3.5 4.3-.7 6.4-1.5 2-.7 3.8-1.8 5.8-2.4 1.4-.4 3-.7 4.5-.6 4.2.3 8.4 1 12 3.5l1.8.8c1.4.7 2.3.2 2.6-1.4.3-1.6 0-3-1-4.6-1-1.8-2.6-3.2-4.5-4.2-2-1-4-2.6-6.4-3.2-1.7-.5-3.6-1.2-5.5-1.4-4.2-.4-8 .6-11 3.8 0 .3-.4.5-.7.7-2.6 2.2-4.4 5-5.2 8.4 0 .2 0 .4-.2.6 0 .2-.2.4-.4.4h-.2l-.3-.6z"/>
  </g>
</svg>
