<svg id="Layer_1" xmlns="http://www.w3.org/2000/svg" viewBox="-265 193.772 367.972 515.228">
  <style>
    .st0{fill:#FFFFFF;}
  </style>
  <g id="Layer_1_1_">
    <path class="st0" d="M17 623c-.6 0-1 .3-1 .7-.6 1.2-.7 1.3-1.7 1.5-.4 0-.8.3-.8.6 0 .2.2.5.6.7 1 .3 1 .5 1.3 1 .5 1 .7 1.6 1.2 1.6.4 0 .5 0 .6-.2.6-1.8.7-2 2-2.2.2 0 .2-.2.2-.4 0-.5 0-.7-.4-.7-1-.5-1.3-.7-1.5-1.5l-.4-1zm-6.6-8.3c0 .2 0 .3.2.3 1.7.5 1.7.7 1.3 2-1 2.8-2.6 6-4 8.3-.6-1.5-2.2-7-2.7-8.6-.3-1.3 0-1.4 1.8-2 .2 0 0-.7 0-1H.8c-.3.2-.4.2-.5.5 0 .4-.2.6-.2.7l.3.2c1 .2 1.2.4 1.5 1.4C4 621 5 624.3 6 628c.2.7.2 1.3 0 1.6 0 .6-3.6 7-3.7 7.3-.3.3-.3.7 0 1 .5.5 1.3.6 1.8.6.3 0 .7 0 1-.2v-.4s0-.7.3-1.6l2.5-7c1-2.5 2.6-6 5.4-11.3 1-1.8 1.4-2.7 3-3.2l-.4-1h-.4-4.8l-.2 1zM-8.8 627c-1.4 0-1.7-1-1.7-2.2 0-.7 0-1 .3-1 1-.8 2.3-1.2 4.5-1.6 0 0 .2.2.2.5v2.4c-.2.6-.5.8-1 1-1 .6-2 1-2.3 1zm-1.4-9.7c.2 0 .2-.2.2-.4 0-1.4 0-1.6.3-1.8.2 0 .7-.2 1.5-.2s1.8.3 2 .6c.4.3.7 1.2.7 2.8v2.7c-2.3.5-4.6 1-6.6 2-1 .7-1.7 1.3-1.7 2 0 1.6.6 2.6 1 3 1 .7 1.7.8 2.2.8.5 0 3.4-1.2 5-2 .2 1.7.8 2 1.4 2 1.2 0 3.7-.6 4-.8.3 0 .4-.3.4-.4v-.7c0-.2-.2-.6-.3-.5 0 0-1.2.5-1.8.5-.6 0-1-.7-1-2.7l.2-8c0-.3 0-1-.8-1.7-.6-.7-1.4-1.4-3-1.4-.7 0-1.4.2-2.2.5-1 .3-3.7 2-4.5 3-.2.3-.4.6-.4 1 0 0 .3.4.5.4h.8l2-.7zm-22.4-3.3c0-.2 0-.3-.4-.3h-5.4l-.2.4-.3.7c0 .2 0 .2.3.2 1.2.2 1.4.4 2 2 1.8 4 3 7.5 4.4 11.2 0 .5.3.6.5.7h.5l.4-.4c1-2.5 2-4.4 4-8.8 0-.2.2 0 .2 0l3.2 8.7c0 .4.2.4.5.4.4 0 .8-.2 1-.5 0-.5.5-1.5 1.2-3l4-8.7c.6-1.2 1-1.6 1.4-2 .5 0 .5-.2.5-.4v-.5-.3h-1.4l-4 .2c-.2 0-.4.6-.4 1 2 0 2.4.4 2.4.7l-.7 2.2c-.7 1.7-2 5-2.8 6.5 0 .2-.3.2-.4 0-1-2.5-2-5.8-3-8.5 0-.7 0-.8 1.4-1 .2-.2.2-.5.2-1.2h-5.8c-.2 0-.3 0-.4.3l-.2 1c1.7.2 1.7.2 2.3 2 0 .4.2.7 0 1-1 2.4-1.7 4.2-2.8 6.4 0 0-.2.2-.3 0-1.2-3.2-2.8-7.3-3-8.2-.2-1-.2-1.2 1.4-1.5l-.2-.7zm-18.5 3.6c0 .4-.3.5-.5.6-1.7.4-3.5.7-5.2 1.2 0-1.6.5-3.5 1.6-4.3l1-.3c1.5 0 3 1.8 3 3zm-1.8-4.3c-1 0-2.4.5-3.4 1.2-2 1.5-4 4-4 7.3 0 2.5 1 4.2 1.7 4.8.5.6 2.2 2.2 5 2.2.3 0 .8 0 1.3-.2 1.3-.4 3-1.2 4.7-2.5.2-.2.3-.4.3-1.3 0-.2-.4-.2-.6 0-1.3 1-2.8 2-4.5 2-2.5 0-4.5-1.7-4.7-5.5 0-.4 0-.6.3-.6 1.6-.5 6.5-1.5 9-2 .5-.2.7-1 1-1.2 0 0 0-.3-.2-.3 0 0-.8 0-1 .2-.4-1-1-2-1.6-2.5-.7-.7-2-1.4-3.2-1.4zm-26.6 15.3h.3c1.6-.2 3.7-.2 6.7-.2 0 0 .2 0 .2-.3l-.3-.8c-1.8-.2-2-.4-2-1.3-.2-1-.2-2.2-.2-4.3v-4c0-.8 0-1 .4-1.2 1-.6 2.4-1 3.5-1 .7 0 1.4 0 2.3.7.8.6 1.4 1.6 1.4 5.2v4.3c-.3 1-.4 1-1 1.5-.4 0-1 .3-1.2.4s0 0 0 .6c0 .5 0 .5.2.5l3.8-.2h2.7c.2 0 .3 0 .3-.3v-.6s0-.2-.4-.2c-1.5-.5-1.7-.6-1.7-1.8v-6.2c0-3.2-.7-6-4-6-.8 0-1.4 0-2.2.3l-4 1.7s-.3 0-.3-.2v-5.6-7.5-.4h-.5c-1 .6-3.2 1.8-3.8 2.3-.2 0-.2.3 0 .4 1.3 1.2 1.4 1.2 1.4 3.5v15c0 3.6 0 3.8-2.2 4.7v.3l.2.6zM-86 611h-.3c-.8 1-3.2 3.3-4.6 4.5l.3.4h1.6s.2.2.2.5c0 1 0 6.3-.2 8.4 0 1.3 0 2 .6 2.6.8 1 2.2 1.2 3 1.2 1.7 0 3.2-.8 4.6-1.6.2 0 .3-.3.3-.4v-.8h-.4c-.8.6-1.4.8-2.3.8-1.7 0-2.8-1-2.8-2.6 0-2-.2-6 0-7.7 0-.5 0-.6.2-.6 2-.2 3.8-.2 5-.2.2 0 .4 0 .4-.3l.3-1.3c0-.3-.2-.4-.6-.4H-86l.2-2.7zm-14 4.8c.3 0 .4-.2.4-.4v-1.2c0-.2-.4-.5-.7-.5l-3.5.2c-.2 0-.4-.3-.4-.6 0-5.6.5-7.7 1.5-8.8.6-.6 1.2-1 2-1 .6 0 1 .3 2 1 .7.3 1.2.6 1.6.6 0 0 .3 0 .4-.2.5-.5 1-1 1-1.5 0-.2 0-.4-.2-.7-.4-.6-1.7-1-2.8-1-.5 0-1.2 0-2 .3-1.8.8-3.4 2-4.4 3-2 1.7-2.2 4-2.2 7v2c-.6 0-1.5.2-1.7.3l-.3.4-.3.6.3.2h1c1 .2 1 .3 1 1v6.7c0 3.6 0 3.7-2 4.2 0 0-.2 0-.3 1 0 .2 0 .2.2.2l3.4-.2h4c.4 0 .5 0 .5-.7s0-1-.3-1l-2 .3c-.5 0-.6-.4-.6-2.5v-7c0-1.7 0-1.8.4-1.8h4zm-20.2-1c1.3 0 2.6.5 3.3 1.2 1.7 1.4 2.4 4 2.4 6.2s-.8 3.7-1.7 4.5c-.5.5-1.3.7-1.8.7-1 0-2.4-.4-3.7-1.8-1-1-2-2.6-2-5 0-2.5.5-4 1.6-5 .4-.6 1.2-1 1.8-1zm1.7-1.6c-1.2 0-3 .6-4.3 1.2-1 .6-1.8 1.2-2.6 2.2-1 1.2-1.5 3-1.5 4.6 0 1.3.6 3.3 1.7 4.8 1.5 2 4.4 2.8 5.8 2.8 1.6 0 3.4-.6 5-1.7.6-.2 3-2.2 3-6 0-5.3-4.3-7.8-7-7.8zm-22.8-2.3h-.4c-1 1-3.2 3.3-4.6 4.5-.2 0 0 .4 0 .4h1.7c.2 0 .4.2.3.5v8.4c-.2 1.3 0 2 .4 2.6 1 1 2.3 1.2 3 1.2 1.8 0 3.3-.8 4.8-1.6l.2-.4v-.8h-.4c-1 .6-1.5.8-2.4.8-1.7 0-2.8-1-2.8-2.6v-7.7c0-.5.2-.6.3-.6 2-.2 3.8-.2 5-.2.2 0 .4 0 .5-.3l.2-1.3c0-.3 0-.4-.4-.4h-5.4l.2-2.7zm-19 2.3l-4 1c-.2 0-.3 0-.2.5 0 .4 0 .5.3.6 1.5.7 1.5 1 1.5 1.5v7.7c0 .8 0 1.8.4 2.4 1 1.5 2.2 2 3.4 2 1 0 1.8-.3 2.5-.7l3.5-1.7v1.6s0 .3.2.5c0 .2.3.2.5.2.4-.2 2.7-1 4.6-1 .2 0 .2 0 .6-1.3 0-.2-.4-.4-.5-.4l-2 .5c-.2 0-.3 0-.3-.2l-.2-2.4v-3.6c0-2.4 0-3.7.2-4.8V614c-.2-.2-.3-.3-.7-.3-1.5 0-4.7.4-5 .4v1l.4.2c1.2.3 1.7.5 2 .8.2.5.3 1.4.3 4 0 1.8 0 3.5-.3 4.7 0 .5-.2.6-.3.8-1 .6-2.3 1.2-3.7 1.2-1 0-3-.7-3-2.5 0-2.4 0-5.8.2-7.6V614c0-.5 0-.7-.4-.7zm-15 1.4c1.3 0 2.5.6 3.3 1.3 1.6 1.4 2.2 4 2.2 6.2s-.8 3.7-1.6 4.5c-.5.5-1.4.7-2 .7-.8 0-2-.4-3.4-1.8-1-1-2-2.6-2-5 0-2.5.5-4 1.6-5 .5-.6 1.2-1 2-1zm1.7-1.5c-1.2 0-3 .6-4.3 1.2-1 .6-1.7 1.2-2.5 2.2-1 1.2-1.5 3-1.5 4.6 0 1.3.5 3.3 1.6 4.8 1.4 2 4.4 2.8 5.8 2.8 1.6 0 3.4-.6 5-1.7.6-.2 3-2.2 3-6 0-5.3-4.3-7.8-7-7.8zM94 579c0-3-3.3-4.2-4.3-4.7-1.6-1-3-1.7-3-3.4 0-1.4 1-2 1.6-2 2 0 3 1.7 3.4 2.7.4.5.5.5 1 .5.2 0 .5-.2.5-.3-.4-1.5-.7-2.8-.8-4v-.2h-3.5c-1 0-2.3.3-3.4 1-1 1-1.7 2-1.7 3.3 0 2.6 2.7 3.8 3.7 4.3 1 .6 3.3 1.5 3.3 3.6 0 1.2-1.4 2-2.3 2-.7 0-1.6-.2-2.6-1.3-.6-.8-1.2-2-1.6-3-.5 0-.7.2-1 .3v.2c.2 1.5.2 2.8 0 4.2v.4H85.2c.7 0 2.4.4 3.4.4 1.2 0 2.7-.3 3.8-1 1.3-1 1.8-2 1.8-3v-.2zm-16.4-7c0 .4-.2.5-.4.6-1.7.4-3.5.7-5.2 1.2 0-1.6.5-3.5 1.6-4.3l1-.4c1.6 0 3 2 3 3zm-1.7-4.3c-1.2 0-2.6.5-3.5 1.2-2 1.4-4 4-4 7.3 0 2.4 1 4 1.7 4.7.5.6 2.2 2.2 4.8 2.2.5 0 1 0 1.4-.2 1.3-.4 3-1.2 4.8-2.5.2-.3.3-.5.3-1.4H81c-1.4 1.2-3 2-4.6 2-2.5 0-4.5-1.6-4.7-5.4 0-.4 0-.6.3-.6 1.6-.5 6.5-1.5 9-2 .5-.2.7-1 .8-1.2v-.3c0-.2-1 0-1.2 0-.4-1-1-1.8-1.5-2.4-.6-.6-2-1.3-3-1.3zM49.2 583h.3c1.7-.2 3.7-.2 6.8-.2 0 0 .2 0 .2-.3 0-1 0-1-.3-1-1.7 0-1.8-.3-2-1.2 0-1-.2-2-.2-4.2v-4c0-.7.3-1 .6-1 1-.7 2.5-1 3.6-1 .7 0 1.4 0 2.3.6.7.6 1.4 1.6 1.4 5.2 0 1.4 0 2.5-.3 4.3 0 1-.2 1.2-1 1.6l-1 .4v1.1h6.7c.2 0 .2 0 .2-.4v-.6s0-.2-.3-.2c-1.5-.5-1.7-.6-1.7-1.8v-6.2c0-3.2-.6-6-4-6-.7 0-1.3 0-2 .3l-4 1.8c-.2 0-.4 0-.4-.2V564v-7.5-.5h-.5c-1 .6-3.2 1.8-3.8 2.3-.3 0-.3.4-.2.5 1.4 1.2 1.5 1.2 1.5 3.5v15c0 3.7-.2 4-2.2 4.8v.4l.3.6zm-5-15.4c-1 0-2 .4-3 1-1 .4-2.6 1.4-3.4 2.3-.8.5-2.4 2-2.4 5.8 0 2.4 1.3 4.2 2 4.8 1.3 1 3 1.6 4.3 1.6.4 0 1.3 0 2-.4 1.3-.5 3-1.3 3.5-1.8.3-.2.4-1 .4-1 0-.3-.4-.4-.5-.4-1 .7-3 1.6-4 1.6s-2.5-.4-3.6-1.8c-.6-.5-1.3-2-1.3-4.4 0-2 .3-3.5 1.3-4.5.5-.5 1.3-1 2.5-1 1 0 2 .4 3 1l.7.5c.2 0 .6 0 1-.2.3-.3 1-1 1-1.4 0-.3 0-.4-.2-.6-.7-.8-2.3-1.2-3.5-1.2zM29 565.3c-.2 0-.4 0-.5.2L24 570c-.3 0 0 .3 0 .3h1.6c.2 0 .4.3.3.6 0 1 0 6.2-.2 8.3 0 1.4 0 2 .5 2.7.8 1 2.2 1.2 3 1.2 1.7 0 3.2-.8 4.7-1.6l.2-.4v-.8h-.4c-1 .6-1.5.8-2.4.8-1.7 0-2.8-1-2.8-2.6V571c0-.6.2-.7.3-.7h4.8c.3 0 .5 0 .6-.4l.2-1.4c0-.3 0-.4-.4-.4h-5.4l.2-2.7v-.2zm-11.4 9.5c0 2.4-.2 5-.3 5.7-.2 1-.5 1-2 1.3v1.2h.3s1.6-.2 3.3-.2H22.5v-1c.2-.2 0-.5-.2-.5h-1.6c-.4.2-.4 0-.5-.6v-3c0-2 0-7.4.3-10v-.3h-.3l-4.5 1.7c-.2 0-.2.2-.5 1v.2c2 .3 2 .4 2.2.6v4zm2-15.7c-.8 0-2 .8-2 2s1 2 1.8 2c1 0 2-1 2-2.2 0-1-.7-1.7-1.7-1.7zM10.4 576c0 2.2-.7 3.6-2.3 5-1 .7-2 1-2.5 1-1 0-2.2-.7-3-1.4-1-1-1.3-2.6-1.3-4v-5c.2-.5.2-.7.5-.8.3-.3 1.6-.8 3-.8 1 0 2.6.2 4 2 1.2 1.2 1.7 2.7 1.7 4zm3-1.6c0-1.5-1-3.4-2.6-5-1.2-1.2-3-1.7-4-1.6-.4 0-2.6.8-5 1.7 0 0-.4 0-.4-.3 0-7 .2-10.2.2-11.7 0-1 0-1.3-.2-1.3-.5 0-3.8 2-4.4 2.5-.3.2-.4.4 0 .8 1.3 1 1.4 1.3 1.5 2.4v13.5c0 5.8 0 7 .5 7.7H5c.7 0 2 0 2.8-.6 3.3-1.7 5.5-4 5.5-8v-.2zm-27.5 2.3c0 .4 0 .5.2.4 1.6-.5 7-1.7 7.5-1.8.3 0 .5-.2 1-2v-.6c-.5-.3-.6-.3-1-.3-1 .5-6.2 2-7 2.6-.5 0-.8.8-.8 1.5zm-1.7-6.3c.3 0 .5-.2.5-.4s0-1-.2-1.2c0-.2-.3-.5-.6-.5 0 0-2.3.3-3.5.3-.2 0-.4-.2-.4-.5 0-5.6.6-7.7 1.6-8.8.6-.6 1.3-1 2-1 .6 0 1 .3 2 1 .7.3 1.2.6 1.6.6.3 0 .4 0 .6-.2.4-.5 1-1 1-1.5 0-.3-.2-.5-.3-.8-.4-.6-1.7-1-2.8-1-.5 0-1.2 0-2 .3-1.8.7-3.4 1.8-4.3 2.8-2 1.8-2.3 4-2.3 7v2c-.5 0-1.4.3-1.6.4 0 0-.2 0-.3.4l-.3.7.3.2h1c1 0 1 .2 1 1v6.6c0 3.6 0 3.7-2 4.2 0 0-.2 0-.3 1 0 .2 0 .2.2.2l3.3-.2h4c.4 0 .5 0 .5-.7 0-.6 0-.8-.3-.8l-2 .2c-.5 0-.6-.4-.6-2.5v-7c0-1.8 0-2 .3-2 1.6 0 2.5.2 3 .2h1zm-20-1c1 0 2.4.5 3 1.2 1.7 1.4 2.4 4 2.4 6.2s-.8 3.7-1.7 4.5c-.5.6-1.3.8-1.8.8-1 0-2.3-.4-3.6-1.8-1-1-2-2.6-2-5 0-2.5.6-4 1.6-5 .5-.6 1.3-1 2-1zm1.5-1.6c-1 0-3 .6-4.3 1.2-1 .6-1.8 1.2-2.5 2.2-1 1.2-1.6 3-1.6 4.6 0 1.3.5 3.3 1.6 4.8 1.5 2 4.4 2.8 5.8 2.8 1.6 0 3.4-.6 5-1.7.6-.3 3-2.3 3-6.2 0-5.2-4.3-7.7-7-7.7zm-20.6 9c0 .3 0 .4.3.3 1.5-.5 7-1.7 7.5-1.8.3 0 .4-.2 1-2v-.6c-.6-.3-.7-.3-1-.3-1 .5-6.2 2-7 2.6-.5 0-.8.8-.8 1.5zm-2.7 2.4c0-3-3.3-4.2-4.4-4.7-1.5-1-3-1.7-3-3.4 0-1.4 1-2 1.7-2 2 0 3 1.7 3.4 2.7.5.5.6.5 1.2.5l.4-.3c-.4-1.5-.7-2.8-.7-4l-.2-.2h-3.5c-1 0-2.2.3-3.3 1-1 1-1.6 2-1.6 3.3 0 2.6 2.7 3.8 3.7 4.3 1.2.6 3.5 1.5 3.5 3.6 0 1.2-1.5 2-2.4 2-.5 0-1.5-.2-2.5-1.3-.7-.8-1.3-2-1.7-3-.5 0-.7.2-1 .3v.2c.2 1.5.2 2.8 0 4.2v.4H-66.4s2.3.4 3.3.4c1.3 0 2.7-.3 3.8-1 1.3-1 2-2 2-3v-.2zm-30 3.8s0 .2.2.2l3.5-.2h3.2l.3-.8c0-.2 0-.2-.3-.3-2-.3-2-.4-2-1V572c0-.4 0-.6.5-1 .7-.4 2.2-1 3-1 1.2 0 2 .4 2.6 1 1 1 1 2 1 4 0 2.8 0 4.3-.3 5.4-.2 1-.6 1.4-1.7 1.7l.2 1h6.5s.2 0 .2-.3l.2-1s0-.3-.2-.3l-2 .2s-.2 0-.2-.4V576v-3.4c-.2-1.7-.8-3-1.7-3.8-.8-.6-1.5-.8-2.6-.8-.7 0-1.6.2-2.2.5l-3.3 1.7c-.2 0-.2 0-.2-.3v-2c0-.3-.3-.4-.4-.4h-.6c-.2.3-1.8 1.2-3.5 2-.3 0-.4 0-.4.2-.2.6 0 .6 0 .8 1.8.4 2 .5 2 1v3.4c0 2 0 4-.2 5.3 0 1-.6 1.3-1.7 1.7v.8zM-98.2 569c1.3 0 2.5.7 3.3 1.4 1.6 1.4 2.2 4 2.2 6.2s-.8 3.7-1.6 4.5c-.5.6-1.4.8-2 .8-.8 0-2-.4-3.4-1.8-1-1-2-2.6-2-5 0-2.5.5-4 1.6-5 .5-.6 1.2-1 2-1zm1.7-1.4c-1.2 0-3 .6-4.3 1.2-1 .6-1.7 1.2-2.5 2.2-1 1.2-1.5 3-1.5 4.6 0 1.3.5 3.3 1.6 4.8 1.4 2 4.4 2.8 5.8 2.8 1.6 0 3.4-.6 5-1.7.6-.3 3-2.3 3-6.2 0-5.2-4.3-7.7-7-7.7zm-10.7 11.4c0-3-3.3-4.2-4.3-4.7-1.6-1-3-1.7-3-3.4 0-1.4 1-2 1.5-2 2 0 3 1.7 3.4 2.7.3.5.5.5 1 .5.2 0 .4-.2.4-.3-.4-1.5-.6-2.8-.7-4v-.2h-3.3c-1 0-2.3.3-3.3 1-1.2 1-1.7 2-1.7 3.3 0 2.6 2.8 3.8 3.7 4.3 1.2.6 3.4 1.5 3.4 3.6 0 1.2-1.5 2-2.3 2-.7 0-1.6-.2-2.6-1.3-.7-.8-1.4-2-1.7-3-.5 0-.7.2-.8.3v4.4c-.2.2-.2.3 0 .4h1.6s2.2.4 3.3.4c1.3 0 2.8-.3 4-1 1.2-1 1.7-2 1.7-3v-.2zm-37.2-7c0 .4-.2.5-.5.6l-5.2 1.2c0-1.6.6-3.5 1.7-4.3.3-.2.7-.4 1-.4 1.5 0 3 2 3 3zm-1.8-4.3c-1 0-2.4.5-3.4 1.2-2 1.4-4 4-4 7.3 0 2.4 1.2 4 1.8 4.7.5.6 2.2 2.2 5 2.2.3 0 .8 0 1.3-.2 1.3-.4 3-1.2 4.7-2.5.2-.3.3-.5.4-1.4h-.7c-1.2 1.2-2.7 2-4.5 2-2.5 0-4.5-1.6-4.6-5.4 0-.4 0-.6.3-.6 1.5-.5 6.4-1.5 9-2 .3-.2.6-1 .7-1.2v-.3c-.2-.2-1 0-1.3 0-.3-1-.8-1.8-1.5-2.4-.7-.6-2-1.3-3.2-1.3zM-156 579c0-3-3.2-4.2-4.3-4.7-1.5-1-3-1.7-3-3.4 0-1.4 1-2 1.6-2 2 0 3 1.7 3.5 2.7.3.5.5.5 1 .5l.4-.3c-.4-1.5-.7-2.8-.7-4v-.2h-.4-3.1c-1 0-2.3.3-3.4 1-1 1-1.6 2-1.6 3.3 0 2.6 2.7 3.8 3.7 4.3 1 .6 3.4 1.5 3.4 3.6 0 1.2-1.4 2-2.3 2-.6 0-1.5-.2-2.6-1.3-.5-.8-1.2-2-1.5-3-.6 0-.8.2-1 .3V582.8h1.4s2.4.4 3.4.4c1.3 0 2.7-.3 4-1 1-1 1.7-2 1.7-3v-.2zm-21.7-10c1.3 0 2.5.7 3.2 1.4 1.6 1.4 2.3 4 2.3 6.2s-.8 3.7-1.6 4.5c-.5.6-1.4.8-2 .8-.8 0-2.2-.4-3.5-1.8-.8-1-1.8-2.6-1.8-5 0-2.5.3-4 1.3-5 .6-.6 1.3-1 2-1zm1.6-1.4c-1.2 0-3 .6-4.4 1.2-1 .6-1.7 1.2-2.5 2.2-.8 1.2-1.4 3-1.4 4.6 0 1.3.4 3.3 1.6 4.8 1.4 2 4.3 2.8 5.7 2.8 1.6 0 3.4-.6 5-1.7.6-.3 3-2.3 3-6.2 0-5.2-4.4-7.7-7-7.7zm-27.6 15.4h.3c1.7-.2 3.7-.2 6.8-.2l.2-.3c0-1 0-1-.3-1-1.7 0-1.8-.3-2-1.2 0-1-.2-2-.2-4.2v-4c0-.7 0-1 .5-1 1-.7 2.4-1 3.5-1 .8 0 1.4 0 2.3.6.8.6 1.5 1.6 1.5 5.2 0 1.4 0 2.5-.2 4.3 0 1-.3 1.2-1 1.6-.3 0-1 .3-1 .4 0 0-.2 0 0 .6v.5h6.6c.3 0 .3 0 .3-.4v-.6s0-.2-.4-.2c-1.4-.5-1.6-.6-1.6-1.8v-6.2c0-3.2-.6-6-4-6-.7 0-1.4 0-2.2.3l-4 1.8s-.2 0-.2-.2V564v-7.5-.5h-.5c-1 .6-3.3 1.8-3.8 2.3-.2 0-.2.4 0 .5 1.3 1.2 1.3 1.2 1.3 3.5v15c0 3.7 0 4-2 4.8-.2 0-.3.2 0 .4v.6zm-6.5-17.7c-.2 0-.4 0-.5.2l-4.6 4.4c-.2 0 0 .3 0 .3h1.6c.2 0 .4.3.4.6 0 1 0 6.2-.2 8.3 0 1.4 0 2 .5 2.7.8 1 2.2 1.2 3 1.2 1.8 0 3.2-.8 4.7-1.6l.2-.4v-.8h-.4c-1 .6-1.5.8-2.4.8-1.7 0-2.8-1-2.8-2.6V571c0-.6.2-.7.3-.7h4.8c.3 0 .5 0 .6-.4l.2-1.4c0-.3 0-.4-.4-.4h-5.4l.2-2.7v-.2zm-27.7 5c.3 0 .5-.3.5-.5s0-1-.2-1.2c0-.2-.3-.5-.6-.5 0 0-2.3.3-3.5.3-.2 0-.4-.2-.4-.5 0-5.6.6-7.7 1.6-8.8.6-.6 1.3-1 2-1 .6 0 1 .3 2 1 .7.3 1.2.6 1.6.6.3 0 .4 0 .6-.2.4-.5 1-1 1-1.5 0-.3-.2-.5-.3-.8-.4-.6-1.7-1-2.8-1-.5 0-1.2 0-2 .3-1.8.7-3.4 1.8-4.3 2.8-2 1.8-2.3 4-2.3 7v2c-.5 0-1.4.3-1.6.4 0 0-.2 0-.3.4l-.3.7.3.2h1c1 0 1 .2 1 1v6.6c0 3.6 0 3.7-2 4.2 0 0-.2 0-.3 1 0 .2 0 .2.2.2l3.3-.2h4c.4 0 .5 0 .5-.7 0-.6 0-.8-.3-.8l-2 .2c-.5 0-.6-.4-.6-2.5v-7c0-1.8 0-2 .3-2 1.6 0 2.5.2 3 .2h1zm-20-1.2c1 0 2.4.7 3 1.4 1.7 1.4 2.4 4 2.4 6.2s-.8 3.7-1.7 4.5c-.5.6-1.3.8-1.8.8-1 0-2.3-.4-3.6-1.8-1-1-2-2.6-2-5 0-2.5.6-4 1.6-5 .5-.6 1.3-1 2-1zm1.5-1.4c-1 0-3 .6-4.3 1.2-1 .6-1.8 1.2-2.5 2.2-1 1.2-1.6 3-1.6 4.6 0 1.3.5 3.3 1.6 4.8 1.5 2 4.4 2.8 5.8 2.8 1.6 0 3.4-.6 5-1.7.6-.3 3-2.3 3-6.2 0-5.2-4.3-7.7-7-7.7zM90 526.4c0 .4-.2.5-.4.6-1.7.4-3.5.7-5.2 1.2 0-1.6.5-3.5 1.6-4.3l1-.5c1.6 0 3 1.8 3 3zm-1.7-4.3c-1 0-2.5.6-3.4 1.3-2.2 1.5-4 4-4 7.4 0 2.4 1 4 1.6 4.7.5.6 2.2 2.2 4.8 2.2.5 0 1 0 1.4-.2 1.3-.4 3-1.2 4.8-2.5.2-.4.3-.6.3-1.5 0-.2-.5-.2-.7 0-1.3 1-2.8 2-4.5 2-2.5 0-4.6-1.7-4.7-5.5 0-.4.2-.6.4-.6 1.6-.5 6.5-1.5 9-2 .5-.2.7-1 .8-1.2v-.3c-.2-.3-1 0-1.2 0-.4-1-1-2-1.5-2.5-.7-.7-2-1.4-3.2-1.4zm-26 15.2v.2l3.5-.2H69l.2-.8c0-.2 0-.2-.2-.3-2-.2-2-.3-2-.8v-8.8c0-.4 0-.6.4-1 1-.4 2.3-1 3.2-1 1 0 2 .4 2.6 1 1 1 1 2 1 4 0 2.8 0 4.3-.3 5.4-.3 1-.7 1.4-1.8 1.7l.2.8c0 .2.2.2.4.2 1.5 0 2.6-.2 6-.2.2 0 .2 0 .3-.2.2 0 .3-.6.3-.8s0-.4-.2-.4l-2 .2v-.4-5.3c0-1.6 0-2.5-.2-3.3-.2-1.7-.7-3-1.7-3.8-.6-.6-1.4-.8-2.5-.8-.6 0-1.5.2-2 .5-1 .4-1.8.7-3.4 1.6v-.3l-.2-2c0-.2-.2-.3-.4-.3H66c-.2.3-2 1.2-3.5 2-.2 0-.3 0-.3.2-.2.6 0 .6 0 .8 1.8.4 2 .5 2 1v3.4c0 2 0 4-.2 5.3 0 1-.6 1.3-1.8 1.7v.8zm-11-13.7c1.3 0 2.5.6 3.2 1.3 1.6 1.4 2.3 4 2.3 6.2s-.8 3.7-1.6 4.5c-.5.5-1.4.7-2 .7-.8 0-2.2-.4-3.5-1.8-.8-1-1.8-2.6-1.8-5 0-2.5.3-4 1.3-5 .6-.6 1.3-1 2-1zM53 522c-1.2 0-3 .6-4.4 1.2-1 .6-1.7 1.2-2.5 2.2-.8 1.2-1.4 3-1.4 4.6 0 1.3.4 3.3 1.6 4.8 1.4 2 4.3 2.8 5.7 2.8 1.6 0 3.4-.6 5-1.7.6-.4 3-2.4 3-6.3 0-5.2-4.4-7.7-7-7.7zm-23.7-2.3s-.3 0-.5.2l-4.6 4.3.2.4H26c.2 0 .4.3.3.6v8.4c-.2 1.4 0 2 .4 2.7.8 1 2.2 1.2 3 1.2 1.7 0 3.2-.8 4.6-1.6.2 0 .3-.3.3-.4v-.8H34c-1 .6-1.5.8-2.4.8-1.7 0-2.8-1-2.8-2.6v-7.7c0-.5.2-.6.3-.6h5c.2 0 .4 0 .5-.4l.2-1.3c0-.3 0-.4-.4-.4h-5.4l.2-2.7v-.3zm-15.5 3.8c1.2 0 2.5.6 3.2 1.3 1.6 1.4 2.3 4 2.3 6.2s-.8 3.7-1.6 4.5c-.5.5-1.4.7-2 .7-.8 0-2.2-.4-3.5-1.8-.8-1-1.8-2.6-1.8-5 0-2.5.4-4 1.4-5 .5-.6 1.3-1 2-1zm1.6-1.5c-1 0-3 .6-4.3 1.2-1 .6-1.7 1.2-2.4 2.2-1 1.2-1.5 3-1.5 4.6 0 1.3.5 3.3 1.7 4.8 1.4 2 4.3 2.8 5.7 2.8 1.7 0 3.5-.6 5-1.7.7-.4 3-2.4 3-6.3 0-5.2-4.3-7.7-7-7.7zm-17.6 23.6c-3.8 0-4.6-2-4.6-2.6 0-.6.4-1.6 1.4-2.4.6-.6 1-.8 1.4-1l4-.2c1.2 0 2.3.2 3 .8 1 .6 1 1 1 1.7 0 .8-.6 1.5-1.4 2.2-1 1-2.5 1.4-4.7 1.4h-.2zM1.3 529c0 2.6-1.3 3.5-2.7 3.5-.7 0-1.6-.3-3-1.4-1-.8-1.6-2.7-1.6-4.2 0-1 .3-2 1-2.6.7-.6 1.3-1 2-1 1.7 0 2.8 1 3.3 2 .7 1 1 2.6 1 3.8zm-2.7-7.3c-1.6 0-3 .7-4.3 1.6-1.7 1.2-3 3-3 5.2 0 1.5.7 3 1.7 4 1 .8 2 1.3 3 1.6l-3.5 2c-.3.4-.3.5-.3.8 0 1.2 1 1.7 2.6 2.4l-3 2c-.8.6-1.3 1.6-1.3 3 0 1.5 1.6 3.4 5.8 3.4 1 0 2.8-.2 3.7-.5 1-.3 2.7-1 4.7-3.3 1-1.3 1.3-2 1.3-3 0-1.4-.5-2.4-1-2.8-1.3-1-2.8-1.2-4.4-1.2h-3.2c-1 0-2-.3-2-1 0 0 .2-.4.5-.5.7-.4 1.6-1 3-1.4 3-1.3 4.8-3.7 4.8-6.3 0-1-.4-2.4-1-3.3H6c.5 0 .7-.3.7-.5 0-.3 0-1.2-.2-1.3 0 0-.4-.5-.7-.5-.8 0-3 .5-3.7.5 0 0-.3 0-.5-.2-.7-.3-2-.8-3-.8zm-30 .4c-.4 0-3.5 1-4 1-.3 0-.4.2-.3.6 0 .4.2.5.3.6 1.5.7 1.5 1 1.5 1.5v7.8c0 .8 0 1.8.5 2.4 1 1.3 2.2 1.7 3.5 1.7.7 0 1.6-.2 2.4-.6l3.4-1.6v1.6s0 .3.2.5.3.2.5.2c.4 0 2.7-.8 4.6-1 .3 0 .4 0 .7-1.2 0-.2-.3-.4-.4-.4l-2 .6c-.2 0-.2 0-.3-.2l-.2-2.4v-3.6c0-2.4 0-3.7.2-4.8V523c0-.4-.3-.5-.7-.5-1.5 0-4.7.4-4.8.4h-.2c0 .2 0 .7.2.8 0 0 0 .2.3.2 1.3.3 1.7.5 2 .8.2.5.3 1.4.3 4v4.7l-.5.8c-1 .6-2.3 1.2-3.6 1.2-1.3 0-3.2-.7-3.2-2.5 0-2.4 0-5.8.2-7.6v-2.7c0-.4 0-.6-.4-.6zm-15 1.5c1.2 0 2.5.6 3.2 1.3 1.6 1.4 2.3 4 2.3 6.2s-.7 3.7-1.6 4.5c-.5.5-1.3.7-1.8.7-1 0-2.3-.4-3.6-1.8-1-1-2-2.6-2-5 0-2.5.6-4 1.6-5 .5-.6 1.3-1 2-1zm1.6-1.5c-1.2 0-3 .6-4.3 1.2-1 .6-2 1.2-2.7 2.2-1 1.2-1.5 3-1.5 4.6 0 1.3.5 3.3 1.6 4.8 1.5 2 4.4 2.8 5.8 2.8 1.6 0 3.4-.6 5-1.7.6-.4 3-2.4 3-6.3 0-5.2-4.3-7.7-7-7.7zm-19.4-9.4c0-.2 0-.2-.3-.2h-1.3l-2.5.2-4.4-.2s-.2 0-.2.4v1h.4c1.3 0 1.8 0 2 .2.3.5 2.2 3 6.3 9.7.8 1.3 1 1.6 1 3v3.8c0 3.3-.2 4.3-.4 4.7-.3.5-1.4.7-3.2 1 0 .3 0 .8.2 1h3.8l6 .2h.7l.3-1.3c-3.6-.2-4-.2-4-2v-6.8c0-2 0-2.2 1-3.4.5-1 3-4.8 6-8.3 1-1 1.6-1.6 3.6-1.6v-1.4H-57v1.3c1.7 0 2 .2 2 .4 0 .3-.2 1-.8 1.8-.5 1-1.6 2.6-4.3 6.4-.4.5-.6.5-.8.5-.2 0-.4-.4-.7-.7-.2-.5-3.2-4.8-5-7.8 0-.2 0-.5.5-.5s1 0 1.5-.2c.2 0 .3-.6.3-1v-.2zM-83 532c-.4 0-.8 0-1 .5-.4 1.2-.5 1.3-1.6 1.5-.3 0-.7.3-.7.6 0 .2.2.5.6.7.8.3 1 .5 1.2 1 .5 1 .7 1.6 1.2 1.6.4 0 .5-.2.6-.4.5-1.8.5-2 2-2.2v-.4c0-.5 0-.7-.3-.7-1.2-.5-1.3-.7-1.5-1.5l-.4-1zm-8-1.5c0 2-1 3.5-1.8 4.2-.8.6-1.7 1-2.8 1-1.2 0-2.5-.4-3.6-1-.4-.3-.5-.5-.5-.8-.2-1.7-.3-3.2-.3-5.4v-2.3-1c1-.5 2.4-1 3.5-1 1.4 0 2.8.5 3.8 1.8 1.3 1.3 1.7 2.8 1.7 4.4zm-14.2 16.4l8-.4c.2 0 .2 0 .3-.4l.3-.7s0-.2-.2-.2h-2c-.8-.2-1-.3-1-3.6 0-1 0-3.7.2-4 0-.4 0-.6.3-.6.6.3 1.6.5 2.7.5.3 0 .8 0 1.3-.2 2-.7 4-2 4.7-2.7 1.4-1 2.5-3.3 2.5-5.4 0-1.6-.4-3.8-2.2-5.4-1.2-1-2.8-1.6-4-1.6-.6 0-3.8 1.2-5.5 2v-2.7-.2c-.3 0-.5 0-.8.2-1.2.8-3 2-4 3 0 .5.3.8.4.8 1.3 0 1.4.2 1.5.6.2.3.3 2.3.3 4.7v4.2c0 5.3-.2 8-.3 8.7 0 1-.4 2-2.5 2.3l.3 1zm-9.3-11.3c-1.4 0-1.8-.8-1.8-2 0-.8.2-1 .4-1.2 1-.7 2.4-1 4.6-1.5 0 0 .2.2.2.5v2.4c-.2.4-.5.6-1 1l-2.3.7zm-1.5-9.6c.3 0 .3 0 .3-.3 0-1.3 0-1.5.2-1.7l1.6-.2c1 0 2 .3 2.2.6.3.3.6 1.2.6 2.8v2.7c-2.3.3-4.6 1-6.6 2-1 .5-1.6 1-1.6 2 0 1.4.6 2.4 1 2.8 1 .7 1.7.8 2.2.8.5 0 3.4-1.2 4.8-2 .3 1.7 1 2 1.6 2 1.3 0 3.8-.6 4.2-.8.2 0 .2-.3.2-.4v-.7s0-.5-.3-.4c0 0-1.2.5-1.8.5-.6 0-1-.7-1-2.7v-7.8c0-.4 0-1-.6-1.8-.7-.7-1.6-1.4-3.2-1.4-.6 0-1.3.2-2 .5-1 .3-3.8 2-4.6 3-.2.3-.3.6-.3 1 0 0 .2.4.4.4s.4 0 .7-.2l2-.7zm-15.6 11v.3h7.3l.3-1.3s0-.3-.3-.3h-2c-.5 0-.6 0-.8-.2s-.2-.7-.2-1.6v-5c0-1.7 0-2.2.3-2.4.8-.6 2-1.3 2.7-1.3.6 0 1 .5 1.4 1l.6.2.7-.3c.3-.3 1.3-1.4 1.3-2 0-1-1-1.8-2-1.8-.5 0-1 .2-1.2.5-.5.2-2.8 2-3.6 2.5v-3c.2-.4 0-.6-.2-.6h-.4l-4.2 2.6c0 .2 0 .7.4.8 1.5.5 1.6.7 1.6 1.6v8.2c-.2.5-.4.6-1.2 1l-.4.8zm-5.7-15c-1.2 0-2.2.4-3.2 1-1 .4-2.6 1.4-3.4 2.3-.5.6-2.2 2-2.2 6 0 2.3 1.3 4 2 4.7 1.3 1 3 1.6 4.4 1.6.4 0 1.3 0 2-.4 1.4-.5 3-1.3 3.6-1.8.2-.2.4-1 .4-1 0-.3-.4-.4-.5-.4-1 .7-3 1.6-4 1.6s-2.4-.4-3.6-1.8c-.4-.5-1-2-1-4.4 0-2 .2-3.5 1.2-4.5.5-.6 1.4-1 2.6-1 .8 0 2 .3 2.8 1l.8.4c.2 0 .6 0 1-.2.4-.3 1-1 1-1.4v-.6c-1-.8-2.5-1.2-3.7-1.2zm-24.2-2.3l-.4.2-4.5 4.3s0 .4.2.4h1.5c.2 0 .4.3.4.6 0 1 0 6.3-.2 8.4 0 1.4 0 2 .6 2.7.8 1 2.2 1.2 3 1.2 1.7 0 3.2-.8 4.6-1.6.2 0 .3-.3.3-.4l-.2-.8h-.3c-1 .6-1.5.8-2.4.8-1.6 0-2.7-1-2.7-2.6v-7.7c0-.5 0-.6.3-.6h5c.2 0 .4 0 .4-.4l.3-1.3c0-.3 0-.4-.5-.4h-5.4l.2-2.7v-.3zm-6.5 13.7c0-3-3.3-4.2-4.4-4.7-1.5-1-3-1.7-3-3.4 0-1.3 1-2 1.6-2 2 0 3 1.8 3.5 2.8.3.6.5.6 1 .6l.4-.3c-.3-1.4-.6-2.7-.6-3.8v-.3h-.4-3.2c-1 0-2.2.3-3.3 1-1 1-1.6 2-1.6 3.3 0 2.5 2.6 3.7 3.6 4.2 1 .6 3.4 1.5 3.4 3.6 0 1.3-1.5 2-2.4 2-.6 0-1.5 0-2.6-1.2-.6-.7-1.3-2-1.6-3l-1 .4V537.2H-177s2.3.4 3.3.4c1.3 0 2.7-.3 4-1 1-1 1.7-2 1.7-3v-.2zm-25.5-11.3c-.4 0-3.5 1-4 1-.3 0-.4.2-.3.6 0 .4 0 .5.3.6 1.5.7 1.5 1 1.5 1.5v7.8c0 .8 0 1.8.4 2.4 1 1.3 2.2 1.7 3.5 1.7.6 0 1.5-.2 2.2-.6l3.5-1.6v1.6s0 .3.2.5c0 .2.2.2.4.2.4 0 2.7-.8 4.6-1 .2 0 .3 0 .6-1.2 0-.2-.3-.4-.4-.4l-2 .6c-.2 0-.3 0-.3-.2 0-.3-.3-1.2-.3-2.4v-3.6c0-2.4 0-3.7.2-4.8 0-1 0-1.3-.2-1.7 0-.4-.2-.5-.6-.5-1.5 0-4.7.4-5 .4v.8l.5.2c1.2.3 1.7.5 2 .8.2.5.3 1.4.3 4 0 1.8 0 3.5-.3 4.7 0 .5 0 .6-.3.8-1 .6-2.3 1.2-3.6 1.2-1.2 0-3-.7-3-2.5v-7.6c.2-1.6.2-2.3 0-2.7 0-.4 0-.6-.3-.6zm-7.7 8.8c0-3.7.3-7.6.3-8.5.2-.2 0-.4 0-.5h-.5c-.5.5-2.7 1.4-4.4 2.2v1c1.8.2 2 .3 2 1.4v7c0 3.8-.2 7-.3 8.7-.2 1.5-.6 2-1.2 2.6-.5.4-1 .4-1.3.4-.5 0-1.5-.5-2-.7-.3 0-.5-.2-.7 0-.3 0-1.3 1-1.6 1.2-.3.3-.2.8 0 1 .2.5 1.5.8 2 .8.3 0 1 0 1.4-.2 1.4-.4 3.8-2 5-3.7 1-1 1.4-2 1.4-5v-7.5zm-1-17.4c-1 0-1.8 1-1.8 2s1 2 1.8 2c1 0 2-1 2-2 0-.8-.8-2-2-2zm-14 20c0-3-3.4-4.2-4.4-4.7-1.6-1-3-1.7-3-3.4 0-1.3 1-2 1.5-2 2 0 3 1.8 3.4 2.8.3.6.5.6 1 .6.2 0 .4-.2.4-.3-.4-1.4-.6-2.7-.7-3.8v-.3h-.3-3.1c-.8 0-2.2.3-3.2 1-1.2 1-1.7 2-1.7 3.3 0 2.5 2.8 3.7 3.7 4.2 1.2.6 3.4 1.5 3.4 3.6 0 1.3-1.5 2-2.3 2-.7 0-1.6 0-2.6-1.2-.7-.7-1.4-2-1.7-3l-.8.4v4.4c-.2.2-.2.3 0 .4h1.6s2.2.4 3.3.4c1.3 0 2.8-.3 4-1 1-1 1.7-2 1.7-3v-.2zm-21.6 2.3c-1.3 0-1.7-.8-1.7-2 0-.8.2-1 .4-1.2.8-.7 2.2-1 4.4-1.5 0 0 .2.2.2.5v2.4c-.2.4-.5.6-1 1l-2.3.7zm-1.4-9.6c.3 0 .3 0 .3-.3 0-1.3.2-1.5.3-1.7l1.6-.2c.7 0 1.7.3 2 .6.3.3.6 1.2.6 2.8v2.7c-2.3.3-4.6 1-6.6 2-1 .5-1.6 1-1.6 2 0 1.4.6 2.4 1 2.8 1 .7 1.7.8 2.2.8.5 0 3.4-1.2 4.8-2 .3 1.7 1 2 1.6 2 1.3 0 3.8-.6 4.2-.8.2 0 .2-.3.2-.4v-.7s0-.5-.3-.4c0 0-1 .5-1.7.5-.6 0-1-.7-1-2.7v-7.8c0-.4 0-1-.6-1.8-.6-.7-1.5-1.4-3-1.4-.7 0-1.4.2-2.2.5-1 .3-3.7 2-4.5 3-.2.3-.3.6-.3 1 0 0 .3.4.5.4s.4 0 .7-.2l1.8-.7zm-22.3-3.2c0-.2 0-.3-.4-.3h-5.3l-.2.4-.3.5v.2c1.4.3 1.6.5 2.3 2 1.6 4.2 3 7.6 4.3 11.3 0 .5.3.6.5.7h.5l.4-.3c1-2.5 1.8-4.4 4-8.8 0-.2 0 0 0 0 1.2 2.7 2.2 5.7 3.3 8.7 0 .4.2.4.5.4.5 0 1 0 1-.4 0-.5.6-1.5 1.3-3l4-8.7c.6-1.2.8-1.6 1.4-2 .5 0 .5-.2.5-.4v-.5c0-.2 0-.2-.2-.2h-1.4l-4 .2-.3 1c2 .2 2.3.5 2.3.8l-.6 2.2c-.6 1.8-2 5.2-2.7 6.6 0 .2-.4.2-.4 0-1-2.5-2.2-5.8-3-8.5-.2-.7 0-.8 1.3-1 .2-.2.2-.5.2-1.2h-5.8c-.2 0-.4 0-.4.3l-.2.7c1.8.3 1.8.3 2.4 2 0 .5.2.8 0 1.2l-2.8 6.2s-.2.2-.3 0c-1.2-3.2-2.8-7.3-3-8.2-.2-1-.2-1.2 1.4-1.5l-.2-.7zM91.2 474s-.2 0-.4.3c-.8 1-3.2 3-4.6 4.4 0 0 0 .4.2.4.3 0 1 0 1.6.2.2 0 .3.2.3.5v8.4c-.2 1.5 0 2.2.4 2.8.8 1 2.2 1.2 3 1.2 1.7 0 3.2-.8 4.6-1.6.2 0 .3-.3.3-.4v-.8H96c-1 .6-1.5.8-2.4.8-1.7 0-2.8-1-2.8-2.6v-7.7c0-.5.2-.6.3-.6h5c.2 0 .4 0 .4-.3l.3-1.3c0-.3 0-.4-.4-.4h-5.4v-2.7-.2zM80 483.7c0 2.4-.2 5-.3 5.7-.2 1-.6 1-2 1.3v1.2h.3s1.6-.2 3.3-.2H85v-1c0-.2 0-.5-.2-.5l-1.6.2c-.4 0-.5-.2-.6-.7v-3l.3-10v-.3h-.3l-4.5 1.7c-.2 0-.2 0-.5.7v.3c2 .3 2 .4 2 .6l.2 4zm2-15.7c-.8 0-2 .6-2 2 0 1 1 1.7 1.8 1.7 1 0 2-.8 2-2 0-1-.8-1.8-1.8-1.8zm-36.7 10.3c1.5 0 3 .4 4 1.2.6.3.6.5.7 1 .2 1.2.2 6 0 7.7 0 .3 0 .4-.5.6-.6.4-2.3.8-3 .8-1 0-2 0-3.2-1-2-1.8-2-4.5-2-5.5 0-1.4.5-2.8 1.3-3.5.8-.8 2-1.2 2.7-1.2zm-7 7c0 1.5.7 3.6 2.2 5 .8.8 2.4 1.7 4 1.7.4 0 2.7-1 5.6-2.3 0 .5 0 1.4.2 2 0 .3.4.7.7.7l4.4-1c.3 0 .5-.2.5-.5l-.3-1.2h-.4c-.4.2-1.3.5-1.7.5-.3 0-.4 0-.5-.6V481v-15.6c0-.3 0-.5-.2-.6h-.5c-1.4 1-2.6 1.6-4.4 2.3-.2 0-.2.2-.2.3v.3c0 .2.2.3.4.3 1.7.2 1.8.4 1.8 1 0 .7.2 2 .2 5v2.7c0 .2-.4.3-.5.3-.5-.2-1.8-.4-2.7-.4-1.8 0-4.5 1.4-6 2.6-2 2-2.7 4.2-2.7 6zm-18.7 6.3v.2l3.6-.2h3.2l.3-.8c0-.2 0-.2-.3-.3-2-.3-2-.4-2-1V481c0-.4 0-.6.5-1 .7-.4 2.2-1 3-1 1.2 0 2 .4 2.6 1 1 1 1 2 1 4 0 2.8 0 4.3-.3 5.4 0 1-.6 1.4-1.7 1.7l.2.7c0 .2.3.2.5.2 1.4 0 2.6-.3 6-.3 0 0 .2 0 .3-.2v-1s0-.3 0-.3l-2 .2c-.2 0-.3 0-.3-.4v-5.3-3.3c-.2-1.7-.8-3-1.7-3.8-.8-.6-1.5-.8-2.6-.8-.7 0-1.5.2-2.2.5l-3.3 1.7s-.2 0-.2-.3v-2c0-.2-.3-.3-.4-.3h-.6c0 .3-1.8 1.2-3.5 2-.3 0-.4 0-.4.2v.7c1.8.5 2 .6 2 1v3.5c0 2 0 4-.2 5.3 0 1-.5 1.4-1.7 1.8v.8zM9.3 490c-1.3 0-1.7-.7-1.7-2 0-.7.2-1 .4-1 .8-.8 2.3-1.2 4.5-1.6 0 0 .2.2.2.5v2.3c-.2.5-.5.7-1 1-1 .5-2 .8-2.3.8zM8 480.6c.2 0 .2-.2.2-.4 0-1.2 0-1.4.2-1.6l1.6-.2c.8 0 1.8.3 2 .6.4.3.7 1.2.7 2.8v2.7c-2.3.4-4.6 1-6.6 2-1 .6-1.5 1.2-1.5 2 0 1.5.6 2.5 1 3 1 .6 1.7.7 2.2.7.5 0 3.4-1.2 4.8-2 .3 1.7 1 2 1.6 2 1.4 0 4-.6 4.3-.8.2 0 .2-.3.2-.4v-.7s-.2-.4-.3-.3c0 0-1.2.5-1.8.5-.6 0-1-.7-1-2.7v-8c0-.3 0-1-.6-1.7s-1.5-1.4-3-1.4c-.7 0-1.4.2-2.2.5-1 .2-3.8 2-4.5 3l-.2.8c0 .2.3.5.5.5H6l2-.8zm-36-2.2c1.5 0 3 .4 4 1.2.6.3.6.5.7 1 .2 1.2.2 6 0 7.7 0 .3-.2.4-.5.6-.6.4-2.3.8-3 .8-1 0-2 0-3.2-1-2-1.8-2-4.5-2-5.5 0-1.4.5-2.8 1.3-3.5.8-.8 2-1.2 2.7-1.2zm-7 7c0 1.5.7 3.6 2.2 5 .8.8 2.4 1.7 4 1.7.4 0 2.7-1 5.6-2.3v2c0 .3.5.7.8.7l4.5-1c.4 0 .6-.2.6-.5 0-.4 0-.8-.2-1.2h-.4c-.4.2-1.3.5-1.7.5-.3 0-.4 0-.5-.6-.2-1-.3-2.8-.3-4V481l.3-15.6c0-.3 0-.5-.3-.6h-.5c-1.4 1-2.6 1.6-4.4 2.3v.6c0 .2 0 .3.3.3 1.6.2 1.7.4 1.7 1 0 .7.2 2 .2 5 0 1.4-.2 2-.2 2.7 0 .2-.3.3-.4.3-.5-.2-1.8-.4-2.7-.4-1.8 0-4.5 1.4-6 2.6-2 2-2.7 4.2-2.7 6zm-12 6v.4h7.3l.2-1.3s0-.3-.3-.3l-2 .2c-.4 0-.6 0-.7-.3v-6.5c0-1.8 0-2.3.2-2.5.7-.6 1.7-1.3 2.5-1.3.7 0 1.2.5 1.5 1l.5.2.6-.4c.4-.3 1.3-1.4 1.3-2 0-1-1-1.8-2-1.8-.3 0-.7.2-1 .5-.6.3-3 2.2-3.6 2.6v-3c0-.5 0-.7-.2-.7h-.5c-1 1-2.7 1.8-4 2.7-.2.2 0 .7.3.8 1.5.5 1.5.7 1.5 1.6v8.2c0 .5-.3.6-1.2 1l-.3.8zm-10.7-1.2c-1.3 0-1.7-.7-1.7-2 0-.7.2-1 .4-1 1-.8 2.3-1.2 4.5-1.6 0 0 .2.2.2.5v2.3c-.2.5-.5.7-1 1-1 .5-2 .8-2.3.8zm-1.4-9.5c.2 0 .2-.2.2-.4 0-1.2 0-1.4.2-1.6l1.6-.2c.8 0 1.8.3 2 .6.4.3.7 1.2.7 2.8v2.7c-2.3.4-4.6 1-6.6 2-1 .6-1.5 1.2-1.5 2 0 1.5.6 2.5 1 3 1 .6 1.7.7 2.2.7.5 0 3.4-1.2 4.8-2 .3 1.7 1 2 1.6 2 1.4 0 4-.6 4.3-.8.2 0 .2-.3.2-.4v-.7s0-.4-.3-.3c0 0-1.2.5-1.8.5-.6 0-1-.7-1-2.7v-8c0-.3 0-1-.6-1.7s-1.5-1.4-3-1.4c-.7 0-1.4.2-2.2.5-1 .2-3.7 2-4.5 3l-.2.8c0 .2.3.5.5.5h.7l2-.8zm-23 11.3h.4c1.7-.2 3.8-.2 6.8-.2.2 0 .2 0 .2-.3 0-1 0-1-.2-1-1.7 0-2-.3-2-1.2-.2-1-.2-2-.2-4v-4c0-1 0-1.2.4-1.3 1-.6 2.5-1 3.6-1 .7 0 1.4 0 2.3.7.8.6 1.4 1.6 1.4 5.2v4.3c-.2.8-.4 1-1 1.4-.4 0-1 .3-1 .4s-.3 0-.2.6c0 .5 0 .5.2.5.4 0 2-.3 3.8-.3h2.7c.2 0 .3 0 .3-.3v-.6s0-.2-.4-.2c-1.4-.5-1.5-.6-1.5-1.8v-6.2c0-3.2-.7-6-4-6-.8 0-1.4 0-2.2.3l-4 1.6s-.3 0-.3-.2v-5.6l.2-7.5v-.5h-.6l-4 2.3v.6c1.4 1.2 1.5 1.2 1.5 3.5v15.2c0 3.6 0 3.8-2 4.7-.2 0-.2 0 0 .2v.6zm-27-14v.4c1.8.5 1.8.7 1.4 2-1 2.8-2.5 6-3.7 8.3-.8-1.6-2.4-7-3-8.6-.2-1.4 0-1.5 2-2l-.3-1h-6c-.2 0-.3 0-.4.4 0 .4-.2.6-.2.7l.3.4c1 .2 1.3.4 1.6 1.4 1.7 4.5 2.8 7.7 4 11.5v1.5l-3.8 7.3c-.3.5-.3 1 0 1.3.5.4 1.3.5 1.8.5.3 0 .6 0 .8-.2v-.4s0-.7.4-1.6l2.5-7c1-2.5 2.6-6 5.4-11.3 1-2 1.4-2.8 3-3.3l-.4-1H-109v1zm-18.3 14h.2l7.2-.2h.2l.2-1.2s0-.2-.2-.2h-1.6c-1 0-1-.6-1-5.5 0-7 0-14.5.4-19.4v-.3h-.2c-1.8 1-3.3 1.5-4.6 2-.3 0-.4 0-.4.2-.2.7-.2.8 0 .8 1.7 0 2 .2 2 1.3v5.8c0 3.2 0 9.8-.3 14.4 0 .6 0 .7-1 1l-.8.4c-.2 0-.3.4-.3.6v.3zm-9 0h.3l7.3-.2h.3v-1.2c.2 0 0-.2 0-.2h-1.6c-1 0-1-.6-1-5.5 0-7 0-14.5.3-19.4v-.3h-.2c-1.7 1-3.2 1.5-4.5 2-.3 0-.4 0-.4.2v.8c1.8 0 2 .2 2 1.3.2 1.2.2 3 .2 5.8 0 3.2 0 9.8-.3 14.4-.2.6-.3.7-1 1-.4 0-.8.3-1 .4l-.2.6v.3zm-9.7-1.7c-1.3 0-1.7-.7-1.7-2 0-.7.2-1 .4-1 .8-.8 2.2-1.2 4.5-1.6 0 0 .2.2.2.5v2.3c-.2.5-.5.7-1 1-1 .5-2 .8-2.3.8zm-1.4-9.5c.3 0 .3-.2.3-.4v-1.6l1.6-.2c1 0 2 .3 2.2.6.3.3.6 1.2.6 2.8v2.7c-2.3.4-4.7 1-6.6 2-1 .6-1.6 1.2-1.6 2 0 1.5.6 2.5 1 3 1 .6 1.7.7 2.2.7.5 0 3.3-1.2 4.8-2 .3 1.7 1 2 1.6 2 1.3 0 3.7-.6 4.2-.8.2 0 .2-.3.2-.4v-.7s-.2-.4-.3-.3c-.2 0-1.3.5-2 .5-.5 0-1-.7-1-2.7l.2-8c0-.3 0-1-.7-1.7-.6-.7-1.5-1.4-3-1.4-.8 0-1.4.2-2.2.5-1 .2-3.8 2-4.5 3-.2.2-.3.5-.3.8 0 .2.3.5.5.5h.7l2-.8zm-9 .3c0 .4-.2.5-.4.6-1.7.4-3.5.7-5.2 1.2 0-1.6.5-3.5 1.6-4.3l1-.4c1.6 0 3 1.7 3 2.8zm-1.7-4.3c-1.2 0-2.6.5-3.5 1.2-2 1.5-4 4-4 7.4 0 2.5 1 4.2 1.7 4.8.5.6 2.2 2.2 4.8 2.2.5 0 1 0 1.4-.2 1.3-.4 3-1.2 4.8-2.5.2-.3.3-.5.3-1.4 0-.3-.4-.3-.6 0-1.4 1-3 1.8-4.6 1.8-2.5 0-4.6-1.6-4.7-5.4 0-.4 0-.6.3-.6 1.6-.5 6.5-1.5 9-2 .5-.2.7-1 .8-1.2v-.3c0-.2-1 0-1.2 0-.4-1-1-1.8-1.5-2.4-.6-.8-2-1.5-3-1.5zm-19.5 15c-.2 0 0 .2 0 .2h7.3l.2-1.3s0-.3-.3-.3l-2 .2c-.5 0-.6 0-.7-.3 0-.3-.2-.8-.2-1.7v-4.8c0-1.8 0-2.3.4-2.5.7-.6 1.7-1.3 2.5-1.3.6 0 1.2.5 1.5 1 0 0 .2.2.5.2s.4-.3.6-.4c.3-.3 1.3-1.4 1.3-2 0-1-1-1.8-2-1.8-.4 0-1 .2-1.2.5-.5.3-2.8 2.2-3.6 2.6v-3c.2-.5 0-.7 0-.7h-.6c-1.2 1-2.7 1.8-4.2 2.7 0 .2.2.7.5.8 1.4.5 1.5.7 1.5 1.6v8.2c0 .5-.3.6-1.2 1l-.3.8zm-33-13.2c1.6 0 3 .4 4 1.2.7.3.7.5.8 1v7.7c0 .3-.2.4-.5.6-.6.4-2.3.8-3 .8-1 0-2 0-3.2-1-2-1.8-2-4.5-2-5.5 0-1.4.5-2.8 1.3-3.5.7-.8 2-1.2 2.5-1.2zm-7 7c0 1.5.8 3.6 2.3 5 .8.8 2.4 1.7 4 1.7.4 0 2.7-1 5.6-2.3v2c0 .3.5.7.8.7l4.5-1c.3 0 .5-.2.5-.5 0-.4 0-.8-.2-1.2h-.4c-.4.2-1.3.5-1.7.5-.4 0-.5 0-.6-.6-.2-1-.3-2.8-.3-4V481c0-4.3.3-12 .4-15.6 0-.3 0-.5-.3-.6h-.4c-1.4 1-2.6 1.6-4.4 2.3v.6c0 .2 0 .3.3.3 1.7.2 1.8.4 1.8 1 0 .7.2 2 0 5v2.7c0 .2-.2.3-.3.3-.5-.2-1.8-.4-2.7-.4-1.8 0-4.5 1.4-6 2.6-2 2-2.7 4.2-2.7 6zm-5.4-4.5c0 .4 0 .5-.4.6l-5.2 1.2c0-1.6.6-3.5 1.7-4.3l1-.4c1.6 0 3 1.7 3 2.8zm-1.7-4.3c-1 0-2.4.5-3.3 1.2-2 1.5-4 4-4 7.4 0 2.5 1 4.2 1.7 4.8.4.6 2 2.2 4.8 2.2.4 0 1 0 1.4-.2 1.2-.4 3-1.2 4.6-2.5.2-.3.3-.5.4-1.4 0-.3-.5-.3-.6 0-1.3 1-2.8 1.8-4.6 1.8-2.5 0-4.5-1.6-4.6-5.4 0-.4 0-.6.3-.6 1.6-.5 6.5-1.5 9-2 .4-.2.7-1 .8-1.2v-.3c-.2-.2-1 0-1.3 0-.3-1-.8-1.8-1.5-2.4-.6-.8-2-1.5-3-1.5h-.2zm-14 7c0 2.5-.2 5.2-.3 5.8-.3 1-.6 1-2 1.3v1.2h.3s1.6-.2 3.3-.2H-233.7v-1c0-.2 0-.5-.2-.5l-1.5.2c-.4 0-.5-.2-.6-.7v-3c0-2 0-7.4.2-10v-.3h-.2l-4.5 1.7c-.2 0-.2 0-.5.7v.3c2 .3 2 .4 2 .6l.2 4zm2-15.6c-.8 0-2 .6-2 2 0 1 .8 1.7 1.8 1.7s2-.8 2-2c0-1-.7-1.8-1.7-1.8zm-16.6 23.4v.3h7.3l.2-1.3s0-.3-.3-.3l-2 .2c-.5 0-.7 0-.8-.3v-6.5c0-1.8 0-2.3.2-2.5.7-.6 1.7-1.3 2.5-1.3.6 0 1 .5 1.4 1l.5.2.5-.4c.4-.3 1.3-1.4 1.3-2 0-1-1-1.8-2-1.8-.4 0-.8.2-1.2.5l-3.5 2.6c0-1.3 0-2 .2-3 0-.5 0-.7-.3-.7h-.6c-1 1-2.7 1.8-4 2.7-.2.2 0 .7.3.8 1.5.5 1.5.7 1.5 1.6v8.2c0 .5-.3.6-1.2 1l-.3.8zm-7.3-17.3s-.3 0-.4.3l-4.6 4.4s0 .4.2.4 1 0 1.5.2c.3 0 .5.2.5.5 0 1 0 6.3-.2 8.4 0 1.5 0 2.2.5 2.8.8 1 2.2 1.2 3 1.2 1.8 0 3.2-.8 4.7-1.6l.2-.4v-.8h-.4c-1 .6-1.5.8-2.4.8-1.8 0-3-1-3-2.6 0-2 0-6 .2-7.7 0-.5 0-.6.2-.6h5c.2 0 .4 0 .5-.3v-1.3c0-.3 0-.4-.3-.4h-5.4l.2-2.7v-.2zM82.2 431l-4 .8c-.3 0-.4.2-.3.6 0 .4 0 .5.2.6 1.5.7 1.5 1 1.5 1.5v7.8c0 .8 0 1.8.4 2.4 1 1.4 2.3 1.8 3.6 1.8.7 0 1.6-.2 2.4-.6 1-.6 2.4-1.4 3.4-1.8v1.6s0 .3.2.5.3.2.5.2c.5 0 2.8-.8 4.7-1 .2 0 .3 0 .6-1.2 0-.2-.3-.4-.4-.4-1 0-2 .3-2 .4s-.4 0-.4-.2l-.2-2.4v-3.6c0-2.4 0-3.7.2-4.8v-1.7c0-.3-.3-.4-.7-.4-1.6 0-4.8.4-5 .4v.8l.4.2c1.3.3 1.7.5 2 .8.2.5.3 1.4.3 4 0 2 0 3.5-.2 4.7 0 .5-.2.6-.4.8-1 .7-2.2 1.3-3.5 1.3-1.2 0-3-.7-3-2.5v-7.6l.2-2.7c0-.4-.2-.6-.5-.6zm-15 1.3c1.2 0 2.5.6 3.2 1.3 1.6 1.4 2.3 4 2.3 6.2s-.8 3.7-1.7 4.5c-.5.5-1.3.7-1.8.7-1 0-2.3-.4-3.6-1.8-1-1-2-2.6-2-5 0-2.5.5-4 1.6-5 .5-.6 1.3-1 2-1zm1.6-1.5c-1.2 0-3 .6-4.3 1.2-1 .6-1.8 1.2-2.6 2.2-1 1.2-1.6 3-1.6 4.6 0 1.3.5 3.3 1.6 4.8 1.5 2 4.4 2.8 5.8 2.8 1.6 0 3.4-.6 5-1.7.6-.3 3-2.3 3-6.2 0-5.2-4.3-7.7-7-7.7zm-14.3 1.5v.3c2 .5 2 .7 1.4 2-1 2.8-2.6 6-3.8 8.3-.8-1.7-2.4-7.2-2.8-8.7-.4-1.3-.2-1.4 1.7-2 .2 0 0-.7 0-1h-6c-.3.2-.4.2-.5.5 0 .4-.2.6-.2.7 0 0 0 .2.3.3 1 .2 1.2.4 1.6 1.4l4 11.5v1.5l-4 7.3c0 .4 0 .8.2 1.2.5.4 1.2.5 1.7.5.4 0 .7 0 1-.2v-.4s0-.7.3-1.6l2.5-7c1-2.5 2.6-6 5.4-11.3 1-2 1.4-2.8 3-3.3l-.4-1h-5.2v1zm-35.5 3c0 .3-.2.4-.5.5l-5.2 1.2c0-1.6.6-3.5 1.7-4.3.3-.2.7-.4 1-.4 1.5 0 3 1.8 3 3zm-1.8-4.4c-1 0-2.4.4-3.3 1-2.2 1.6-4 4-4 7.4 0 2.5 1 4.2 1.6 4.8.4.6 2 2.2 4.8 2.2.4 0 1 0 1.4-.2 1.3-.4 3-1.2 4.7-2.5.3-.3.3-.5.4-1.4 0-.2-.5-.2-.7 0-1.3 1-2.8 2-4.6 2-2.5 0-4.5-1.7-4.6-5.5 0-.4.2-.6.4-.6 1.6-.5 6.5-1.5 9-2 .4-.2.7-1 .8-1.2v-.3c-.2-.2-1 0-1.2 0-.4-1-1-1.8-1.6-2.4-.6-.7-2-1.4-3-1.4H17zm-18.7 14s0-.2-.2-.2c-2-.3-2-.3-2-1-.2-1.3-.3-6.4-.2-8.6 0-.4 0-.5.4-.7 1-.6 2.3-1 3.3-1 1.3 0 2 .2 2.5 1 .6.6 1 1.8 1 5 0 .8 0 3.5-.3 5-.2.5-.6.8-1 1v.8H8.3l.3-1s0-.2-.2-.2c-1.6-.2-2-.3-2.3-.7v-2-5.4c-.2-3.5-1-4.3-1.6-5-.6-.5-1.7-.8-2.3-.8-.8 0-1.5.2-2.2.5l-4 2c-1-1.5-2-2.6-4-2.6-.5 0-1 .2-1.5.4-1.3.6-3.2 2-4 2.5v-3c0-.2-.2-.3-.4-.3-.4 0-.5 0-.8.3-.5.2-1.7 1-3.7 2.5 0 0 0 .6.2.7 0 0 .2.2.7.3.8 0 1 .2 1 .8v8.7c0 .5-.2.6-.5.7-.4 0-1 .4-1.2.5v1l3-.2h3.4v-1l-.2-.2c-1.7 0-1.8-.3-1.8-4.5v-4.8c.2-.3.3-.6.6-.8 1.3-1 2.6-1.3 3.4-1.3 1.2 0 2.2.5 2.6 1 .4.5.5 1 .5 2.7 0 4 0 6-.2 7 0 .5 0 .7-1.6 1v1.3c1.5-.2 3.2-.2 7-.2v-1zm-24-7c.2 2.4 0 5-.2 5.7-.2 1-.5 1-2 1.3v1.2h.3l3.3-.2H-20.5v-1c.2-.2 0-.5-.2-.5h-1.6c-.3.2-.4 0-.5-.6v-3.2l.3-10v-.2h-.3l-4.4 1.7c-.3 0-.4 0-.6.8v.4c1.8.3 2 .4 2 .6l.2 4zm2.2-15.7c-1 0-2 .7-2 2 0 1 .8 1.8 1.7 1.8 1 0 2-.7 2-2 0-1-.7-1.7-1.7-1.7zm-11.2 6.2l-.4.2c-.7 1-3 3.2-4.5 4.4 0 .2 0 .5.2.5h1.6s.3.3.3.6c0 1.2 0 6.4-.2 8.5 0 1.4 0 2 .6 2.7.8 1 2.2 1.2 3 1.2 1.7 0 3.2-.8 4.6-1.6.2 0 .3-.3.3-.4l-.2-.8h-.3c-1 .6-1.5.8-2.4.8-1.6 0-2.7-1-2.7-2.6V434c0-.4.2-.5.3-.5h5c.2 0 .4 0 .4-.4l.3-1.2c0-.3 0-.4-.5-.4h-5.3v-2.7-.2zm-32 0c-.2 0-.4 0-.5.2-.8 1-3.2 3.2-4.6 4.4 0 .2 0 .5.2.5h1.5c.3 0 .5.3.5.6 0 1.2 0 6.4-.2 8.5 0 1.4 0 2 .6 2.7.7 1 2 1.2 2.8 1.2 1.8 0 3.3-.8 4.7-1.6.2 0 .3-.3.3-.4v-.8h-.4c-1 .6-1.5.8-2.4.8-1.8 0-3-1-3-2.6 0-2 0-6 .2-7.7 0-.4 0-.5.2-.5h5c.3 0 .4 0 .5-.4V432c0-.3 0-.4-.3-.4h-5.4l.2-2.7v-.2zm-21 3.7s0 .2.2.3c2 .6 2.5 1.5 5 6 .4.4.4.6.3.8l-4.4 4.4c-.6.5-1 1-1.2 1l-.2.7.4.6h4.5v-.8c-.6-.2-1-.6-1-1-.2-.8 2-3.3 2.6-4 .5.6 2.3 3.5 2.3 4s-1 .8-1.3 1l.5 1 3-.2h3.9l.6-.7s0-.3-.3-.3c-1.3-.4-2.3-.6-3-1.5-1.5-1.7-2.8-4.2-3.3-5v-.5c1.3-1.5 2.5-2.8 4-4.2.6-.7 1.2-1 2-1.3.2 0 .4-.4.5-1v-.3h-2c-1.2.2-3 .2-3.4.2l-.3 1c1 .2 1.3.4 1.3.7 0 1-2.2 3.4-3 4l-2-3.4c-.3-.7-.3-.8.7-1 .2-.3.2-1 .2-1.2h-6.6v.8zm-5.2 3c0 .4-.2.5-.5.6l-5.2 1.2c0-1.6.6-3.5 1.7-4.3.3-.2.7-.4 1-.4 1.5 0 3 1.8 3 3zm-1.8-4.3c-1 0-2.4.4-3.4 1-2 1.6-4 4-4 7.4 0 2.5 1.2 4.2 2 4.8.3.6 2 2.2 4.7 2.2.4 0 1 0 1.4-.2 1.4-.4 3.2-1.2 4.8-2.5.2-.3.3-.5.3-1.4.2-.2-.3-.2-.5 0-1.3 1-2.7 2-4.5 2-2.5 0-4.5-1.7-4.6-5.5 0-.4 0-.6.2-.6 1.7-.5 6.6-1.5 9.2-2 .3-.2.6-1 .7-1.2v-.3c-.2-.2-1 0-1.3 0-.3-1-.8-1.8-1.5-2.4-.6-.7-2-1.4-3-1.4h-.2zm-26 15v.2l3.5-.2h3.3l.2-.8c0-.2 0-.2-.2-.3-2-.4-2-.5-2-1v-8.8c0-.4 0-.6.4-1 .8-.4 2.3-1 3.2-1 1 0 1.8.4 2.4 1 1 1 1 2 1 4 0 2.8 0 4.3-.3 5.4 0 1-.5 1.4-1.6 1.7l.2.8c0 .3.3.3.5.3 1.5 0 2.7-.2 6-.2h.4v-1-.4l-2 .2c-.2 0-.2 0-.2-.4V439c0-1.5 0-2.4-.2-3.2 0-1.7-.6-3-1.6-3.8-.8-.6-1.5-.8-2.6-.8-.7 0-1.5.2-2 .5l-3.5 1.7s-.2 0-.2-.3v-2s0-.2-.3-.2h-.4c-.2.3-2 1.2-3.5 2-.3 0-.4 0-.4.2v.7c1.8.5 2 .6 2 1v3.5c0 2 0 4-.2 5.3 0 1-.5 1.3-1.7 1.7v.8zm-27.6-17.5c-.2 0-.4 0-.6.2-.8 1-3.2 3.2-4.6 4.4l.2.5h1.6c.2 0 .4.3.3.6 0 1.2 0 6.4-.2 8.5 0 1.4 0 2 .5 2.7.8 1 2.2 1.2 3 1.2 1.7 0 3.2-.8 4.6-1.6l.2-.4v-.8h-.4c-1 .6-1.5.8-2.4.8-1.7 0-2.8-1-2.8-2.6V434c0-.4.2-.5.3-.5h4.8c.3 0 .5 0 .6-.4l.2-1.2c0-.3 0-.4-.4-.4h-5.4l.2-2.7v-.2zm-14.8 16c-1.3 0-1.7-.8-1.7-2 0-.8.2-1 .4-1.2.7-.7 2-1 4.4-1.5 0 0 .2.2.2.5v2.4c-.2.5-.5.7-1 1-1 .5-2 .8-2.3.8zm-1.4-9.6c.2 0 .2-.3.2-.5 0-1.3.2-1.5.3-1.7l1.5-.2c1 0 2 .3 2.2.6.3.3.6 1.2.6 2.8v2.7c-2.3.4-4.7 1-6.6 2-1 .6-1.6 1.2-1.6 2 0 1.5.6 2.5 1 3 1 .6 1.7.7 2.2.7.4 0 3.3-1.2 4.8-2 .3 1.7 1 2 1.6 2 1.3 0 3.7-.6 4.2-.8l.2-.5v-.5s-.2-.5-.3-.4c0 .2-1 .6-1.7.6s-1-.7-1-2.7v-8c0-.4 0-1-.6-1.8-.6-.7-1.5-1.4-3.2-1.4-.6 0-1.2.2-2 .5-1 .3-3.8 2-4.5 3-.2.3-.3.6-.3 1 0 0 .3.4.5.4h.6l2-.8zM-187 446h.3c1.7-.2 3.7-.2 6.8-.2.2 0 .3 0 .3-.3 0-1 0-1-.3-1-1.7 0-1.8-.3-2-1.2 0-1-.2-2-.2-4.2v-4c0-.8.2-1 .5-1.2 1-.5 2.5-1 3.6-1 .6 0 1.3 0 2.2.8.8.6 1.4 1.6 1.4 5.2 0 1.4 0 2.5-.2 4.3 0 1-.2 1-1 1.5l-1 .4v1.1l4-.2h2.7c.3 0 .3 0 .3-.2v-.6s0-.2-.3-.2c-1.5-.5-1.7-.6-1.7-1.8V437c0-3.2-.6-6-4-6-.7 0-1.3 0-2 .3l-4 1.7c-.2 0-.4 0-.4-.2v-5.6-7.5-.5h-.6c-1 .6-3.2 1.8-3.8 2.3-.2 0-.2.4 0 .5 1.3 1.2 1.4 1.2 1.4 3.5v15c0 3.7-.2 4-2.2 4.8v.3l.2.6zm-6.5-17.7l-.4.2c-.7 1-3 3.2-4.5 4.4 0 .2 0 .5.2.5h1.6s.3.3.3.6c0 1.2 0 6.4-.2 8.5 0 1.4 0 2 .6 2.7.8 1 2.2 1.2 3 1.2 1.7 0 3.2-.8 4.6-1.6.2 0 .3-.3.3-.4l-.2-.8h-.3c-1 .6-1.5.8-2.4.8-1.6 0-2.7-1-2.7-2.6V434c0-.4 0-.5.3-.5h5c.2 0 .4 0 .4-.4l.3-1.2c0-.3 0-.4-.5-.4h-5.4l.2-2.7v-.2zm-37.6 17.3c-.3.2-.2.3 0 .3h7.2l.2-1.2s0-.3-.3-.3h-2c-.4 0-.5 0-.6-.2l-.2-1.6V438c0-2 0-2.4.4-2.6.7-.6 1.7-1.3 2.5-1.3.7 0 1.3.6 1.6 1 0 .2.2.3.5.3s.5-.2.7-.3c.3-.3 1.3-1.4 1.3-2 0-1-1-1.8-2-1.8-.4 0-1 .2-1.2.5-.5.3-2.8 2.2-3.6 2.6v-3c.2-.4 0-.6 0-.6h-.6c-1.2 1-2.7 1.8-4.2 2.7 0 .2.2.7.5.8 1.3.5 1.4.7 1.4 1.6v8.2c0 .5-.3.6-1.2 1l-.3.8zm-6-10.6c0 .4-.3.5-.6.6l-5.2 1.2c0-1.6.6-3.5 1.7-4.3.2-.2.6-.4 1-.4 1.4 0 3 1.8 3 3zm-2-4.3c-1 0-2.3.4-3.2 1-2 1.6-4 4-4 7.4 0 2.5 1 4.2 1.7 4.8.4.6 2 2.2 4.8 2.2.4 0 1 0 1.4-.2 1.3-.4 3-1.2 4.7-2.5.3-.3.3-.5.4-1.4 0-.2-.5-.2-.6 0-1.3 1-2.8 2-4.6 2-2.5 0-4.5-1.7-4.6-5.5 0-.4 0-.6.3-.6 1.6-.5 6.5-1.5 9-2 .4-.2.7-1 .8-1.2v-.3c0-.2-.8 0-1 0-.5-1-1-1.8-1.7-2.4-.6-.7-2-1.4-3-1.4h-.2zm-12.5 8c0 2.2-.7 3.6-2.3 5-1 .7-2 1-2.7 1-1 0-2.2-.7-3-1.4-1-1-1.2-2.6-1.2-4v-5c0-.5.2-.7.4-1 .4 0 1.6-.6 3-.6 1.2 0 2.6.2 4.2 2 1 1.2 1.5 2.7 1.5 4zm2.8-1.6c0-1.5-.8-3.4-2.4-5-1.3-1.2-3-1.7-4.2-1.6-.4 0-2.5.8-5 1.7 0 0-.4 0-.4-.3 0-7 .2-10.2.2-11.7 0-1 0-1.3-.2-1.3-.5 0-3.7 2-4.4 2.5-.3.2-.3.4 0 .8 1.3 1 1.4 1.3 1.6 2.4v13.4c0 5.8 0 7 .5 7.7.3.3.4.3.8.2h5.4c.5 0 1.8 0 2.7-.6 3.2-1.7 5.3-4 5.3-8v-.2zM94 394c0 .5.2.6.4.5l7.5-1.7c.2 0 .4-.2 1-2v-.6c-.6-.3-.7-.3-1-.3-1 .4-6.3 2-7 2.5-.6.2-1 1-1 1.6zm-12 5.5c0-.2 0-.3-.2-.3-2-.3-2-.3-2-1-.2-1.3-.2-6.4-.2-8.6 0-.4 0-.5.3-.7 1-.7 2.2-1.2 3.3-1.2 1.2 0 2 .3 2.5 1s1 2 1 5c0 1 0 3.6-.4 5 0 .6-.5 1-1 1V400.7H92l.3-1v-.2c-1.7-.3-2.2-.4-2.4-.8 0-.2-.2-.6-.2-2v-5.4c0-3.4-.8-4.2-1.4-4.8-.7-.6-1.7-1-2.4-1-1 0-1.6.3-2.2.6l-4 2.2c-1-1.6-2.2-2.7-4.2-2.7-.4 0-1 0-1.3.3-1.4.6-3.4 2-4.3 2.5v-2.8c0-.3 0-.4-.3-.4s-.4.2-.7.4c-.5.2-1.7 1-3.7 2.5 0 0 0 .5.2.6 0 0 .2.2.8.3.7 0 .8 0 1 .7v4c0 3 0 4.3-.2 4.7 0 .5 0 .6-.4.7l-1 .6c-.2.4 0 1 0 1l3-.2h3.3v-1l-.2-.2c-1.7 0-1.7-.3-1.7-4.5V390c0-.4.2-.7.5-1 1.3-.8 2.6-1.2 3.5-1.2 1.2 0 2 .5 2.6 1 .4.5.5 1 .5 2.7 0 3.8-.2 5.8-.4 7 0 .4-.2.6-1.7 1l-.2.2v.8H82v-1zm-22.5-10c0 .5-.2.6-.5.7-1.7.4-3.5.7-5.2 1.2 0-1.6.6-3.5 1.7-4.3l1-.3c1.5 0 3 1.8 3 3zm-1.8-4.2c-1 0-2.4.5-3.4 1.2-2 1.5-4 4-4 7.4 0 2.3 1 4 1.8 4.6.5.6 2.2 2.2 5 2.2.3 0 .8 0 1.3-.2 1.3-.4 3-1.2 4.7-2.5.2-.2.3-.4.3-1.3 0-.2-.4-.2-.6 0-1.3 1-2.7 2-4.5 2-2.5 0-4.5-1.7-4.6-5.5 0-.4 0-.6.2-.6 1.7-.5 6.6-1.5 9.2-2 .3-.2.6-1 .7-1.2v-.3c-.2 0-1 0-1.3.2-.3-1-.8-2-1.5-2.5-.7-.7-2-1.4-3.2-1.4zM39 399.5c0-.2 0-.3-.2-.3-2-.3-2-.3-2-1-.3-1.3-.3-6.4-.3-8.6 0-.4 0-.5.4-.7 1-.7 2-1.2 3.2-1.2 1.3 0 2 .3 2.5 1s1 2 1 5c0 1 0 3.6-.3 5 0 .6-.5 1-1 1V400.7h6.3c.2 0 .4-.8.4-1v-.2c-1.7-.3-2.2-.4-2.5-.8v-2-5.4c-.3-3.4-1-4.2-1.6-4.8-.8-.6-1.8-1-2.4-1-1 0-1.6.3-2.3.6l-4 2.2c-1-1.6-2-2.7-4.2-2.7-.3 0-.8 0-1.2.3-1.3.6-3.3 2-4.2 2.5v-2.8c0-.3 0-.4-.3-.4l-.7.4c-.5.2-1.6 1-3.6 2.5v.6c.2 0 .3.2 1 .3.7 0 .8 0 1 .7v4c0 3 0 4.3-.2 4.7 0 .5-.2.6-.5.7l-1 .6v1l3-.2h3.3l.2-1-.3-.2c-1.7 0-1.8-.3-1.8-4.5V390c0-.4.3-.7.5-1 1.4-.8 2.6-1.2 3.5-1.2 1.2 0 2 .5 2.6 1 .4.5.5 1 .5 2.7 0 3.8 0 5.8-.3 7 0 .4 0 .6-1.6 1-.2 0-.2.2-.2.2v.8h7v-1zm-22.6-10c0 .5-.2.6-.4.7l-5.3 1.2c0-1.6.6-3.5 1.7-4.3.4 0 .7-.3 1-.3 1.6 0 3 1.8 3 3zm-1.7-4.2c-1 0-2.5.5-3.4 1.2-2 1.5-4 4-4 7.4 0 2.3 1 4 1.7 4.6.5.6 2.2 2.2 4.8 2.2.4 0 1 0 1.4-.2 1.3-.4 3-1.2 4.7-2.5.2-.2.2-.4.3-1.3 0-.2-.4-.2-.6 0-1.3 1-2.8 2-4.5 2-2.6 0-4.6-1.7-4.7-5.5 0-.4 0-.6.3-.6 1.6-.5 6.5-1.5 9-2 .4-.2.7-1 .8-1.2v-.3c-.2 0-1 0-1.2.2-.4-1-1-2-1.5-2.5-.8-.7-2-1.4-3.3-1.4zm-17-3c0 1.5-.5 3-1.4 4-1.2 1.5-3 2-6 2-.6 0-1 0-1.2-.2 0 0-.2 0-.2-3.6 0-3.5 0-5.4.3-6.6.2-.3.3-.6.6-.7.6-.2 1.3-.3 2.6-.3 3.4 0 5.6 2.6 5.6 5.5zm-14.7-5.4c2.4.5 2.6.7 2.6 2V390c0 4.7 0 7.8-.4 8.4-.3.5-1.4.8-2.2 1 0 0 0 .8.3 1H-8l.2-1c-.8-.3-2.5-.5-3-1 0 0-.2-.3-.3-1-.2-2-.2-4.3-.2-7.2 0-.3.2-.5.5-.6H-9c2.5 0 3 .3 3.7 2 1.3 2.5 2.5 4.6 4 6.2 2.3 2 4.7 3 8 3.5.2 0 .3-.4.4-.8 0-.2 0-.3-.3-.5-3.2-1.6-5-3.5-7-6.2-1.5-2.5-2.3-4.7-2.5-5.5 0-.3 0-.5.2-.6 1.5-.8 4-2.6 4-5.6 0-1.8-.8-3.6-2.6-5-2-1.3-4.4-1.6-6.6-1.6-1 0-2 0-3.8.2-1.7 0-3.4 0-5.4.2 0 0-.2 0 0 .2v1zm-19.4 18c-.5 0-1 .3-1 .7-.4 1.2-.6 1.3-1.6 1.5-.3 0-.7.3-.7.6 0 .2 0 .5.5.7.8.3 1 .5 1.2 1 .6 1 .7 1.6 1.3 1.6.4 0 .5 0 .5-.2.5-1.8.6-2 2-2.2l.2-.4c0-.5-.2-.7-.5-.7-1-.5-1.2-.7-1.4-1.5 0-.7-.2-1-.3-1zm-16.3 3c-1 0-1.6-1.3-1.6-3.4 0-2.5 1.2-5 2.2-6 .7-.8 1.8-1.6 3-1.6 1.3 0 2.2.2 3 .7 0 1.5-.5 3.5-1 4.3-2 3.3-4.8 6-5.7 6zm-1.2 3c.4 0 .5 0 .7-.3.4-.4 5.2-5.3 6.3-6.6.2 0 .2 1-.6 6 0 .8.2 1.3.5 1.3 1 0 4.8-3.8 5.4-4.7 0-.7 0-1-.3-.7l-2 1.5c-.8.5-1 .2-.3-4.7.6-5.6 2-12.6 2.3-14.4.6-3.5.8-4.7.2-4.7-.8 0-4.6 1.5-5.7 2 0 0 .2.6.4.6l2-.3c.4 0 .7 0 .7.6 0 1.4-.8 6-1.3 9-.8-.4-1.4-.5-2.2-.5-.4 0-.8.3-1.2.5-2.4 1-6 3.8-7.3 7-.4 1-.7 2.2-.7 3.5 0 2.6 1.3 5 3 5zm-11-14c1 0 1.7.5 2.2 1 .4.8.8 2 .8 3.8 0 3-1 5.5-2 6.6-.7.5-1.3.7-2 .7-2.2 0-3-2.2-3-4.5 0-3 1-5.6 2-6.5.5-.5 1.2-1 2-1zm1.7-2c-1 0-5 2.2-5.7 3-1.7 1.7-3 4.3-3 7.2 0 3 1.6 5.8 4.5 5.8.3 0 .8 0 1.2-.3 2.3-1 4.4-2.4 5.5-3.8 1-1.4 1.6-3.4 1.6-5.8 0-4.2-2.2-6-4-6zm-16.8 2c1 0 1.6.5 2 1 .5.8 1 2 1 3.8 0 3-1 5.5-2.3 6.6-.5.5-1 .7-2 .7-2 0-3-2.2-3-4.5 0-3 1.2-5.6 2.2-6.5.4-.5 1-1 2-1zm1.5-2c-1 0-5 2.2-5.7 3-1.7 1.7-2.8 4.3-2.8 7.2 0 3 1.4 5.8 4.4 5.8.3 0 .8 0 1.2-.3 2.3-1 4.3-2.4 5.4-3.8 1-1.4 1.6-3.4 1.6-5.8 0-4.2-2.2-6-4-6zm-14 22.2c.2 1-1.4 2-3.6 2-1.5 0-3.4-.7-4.3-1.3-.8-.7-1-1.3-1-1.8 0-.8 2.2-2.7 3.6-3.5 3.4 2.2 5.3 3.5 5.3 4.5zm.2-16.6c0 3-1 4.5-1.5 5-.5.6-1 1-1.6 1-.8 0-1.5-.5-2-1-.3-.7-.6-1.7-.6-3 0-2.6 1.2-4.8 2-5.3.3-.4.8-.6 1.3-.6 1.8 0 2.4 2 2.4 3.8zm-1-5.6c-.8 0-4 1.7-4.5 2.3-1.4 1.4-3 3.5-2.8 6.5 0 2.4 1.2 3.8 3 4.4l-1.4 1.4c-.2.2-.3.4-.3.7 0 .6.2 1 .8 1.7-1 .6-4.5 3-5 3.6-.6.4-.8 1-.8 1.2 0 .3 0 .7.3 1 1.3 2 4.3 3 6.5 3 .5 0 1 0 1.4-.2 2.4-.6 4.7-2 5.3-2.4.5-.4 1-1 1-1.7 0-1.2-2.8-3.3-4.2-4.3-1-.7-3-2-3-3 0-.3.3-.6.5-1 1.3-.3 2.5-1 4-2.2 1.3-1 2.7-3.5 2.7-5.5 0-1 0-2-.5-3l3 .5v-1.4c0-.2-.4-.4-.6-.5H-91c-.5-.3-1.5-1-2-1h-.2zm-32.6 23.8c-3.7 0-4.5-2-4.5-2.6 0-.6.3-1.6 1.3-2.4.6-.6 1-.8 1.5-1l3.8-.2s2.6.2 3.4.8c.8.6.8 1 .8 1.7 0 1-.6 1.7-1.3 2.4-1 1-2.7 1.4-5 1.4zm3.5-16.5c0 2.5-1.3 3.4-2.7 3.4-.7 0-1.5-.3-2.8-1.4-1-1-1.7-2.8-1.7-4.2 0-1 .3-2 1-2.6.6-.6 1.2-1 2-1 1.6 0 2.8 1 3.3 2 .6 1 1 2.6 1 3.8zm-2.7-7.4c-1.5 0-3 .6-4.2 1.5-1.8 1.2-3 3-3 5.2 0 1.5.6 3 1.7 4 1 .8 2 1.3 3 1.6-1.5.7-3.2 1.6-3.6 2-.2.2-.2.4-.2.7 0 1.2 1 1.7 2.5 2.4-1 .8-2 1.3-2.8 2-1 .6-1.4 1.6-1.4 3 0 1.5 1.6 3.4 5.7 3.4 1 0 3-.2 3.8-.5 1-.4 2.7-1 4.6-3.4 1-1.4 1.3-2 1.3-3.2 0-1.3-.5-2.3-1-2.7-1.4-.8-2.8-1-4.4-1h-3.3c-1 0-2-.3-2-1l.4-.5c1-.4 1.8-1 3.2-1.4 3-1 5-3.5 5-6 0-1.2-.6-2.5-1-3.4h3c.6 0 .7-.3.7-.5l-.2-1c0-.2-.5-.6-.8-.6-.8 0-3 .5-3.6.5 0 0-.4 0-.7-.3-.6-.3-1.8-.8-2.8-.8h-.2zm-25.8 15.4v.2l3.6-.2h3.3v-.8-.3c-2-.3-2.2-.4-2.2-1v-8.7c0-.4 0-.6.5-1 .8-.4 2.3-1 3.2-1 1 0 2 .4 2.5 1 1 1 1 2 1 4 0 2.8 0 4.3-.3 5.4 0 1-.6 1.4-1.7 1.7l.2.8c0 .2.3.2.5.2 1.4 0 2.6-.2 6-.2 0 0 .2 0 .3-.2v-1-.3l-2 .2c-.2 0-.2 0-.2-.4v-5.3c0-1.6 0-2.5-.2-3.3 0-1.7-.6-3-1.6-3.8-.8-.6-1.5-.8-2.6-.8-.7 0-1.5.2-2 .5l-3.5 1.8c-.2 0-.3 0-.3-.3v-2c0-.2-.2-.3-.4-.3h-.5c0 .3-1.8 1.2-3.4 2-.3 0-.4 0-.4.2v.7c1.8.6 2 .7 2 1v3.6c0 2 0 4-.2 5.3 0 1-.5 1.2-1.7 1.6v.8zm-7-8c.2 2.4 0 5-.2 5.7-.2 1-.5 1.2-2 1.4v1.2h.3l3.4-.2H-153l.2-1c0-.2-.2-.5-.3-.5h-1.7c-.4 0-.4-.2-.5-.7v-3c0-2 0-7.4.3-10v-.3h-.2l-4.5 1.7s-.2 0-.4.8c-.3.2-.2.2 0 .3 1.7.3 2 .4 2 .6v4zm2-15.7c-.7 0-1.8.7-1.8 2 0 1 .8 1.8 1.7 1.8 1 0 1.8-.8 1.8-2 0-1-.6-1.8-1.6-1.8zm-23.5 24h.4c1.5-.3 3.6-.3 6.7-.3v-.3-.8c-1.8-.2-2-.4-2-1.3-.2-1-.3-2.2-.3-4.3v-4c0-.8 0-1 .4-1.2 1-.6 2.5-1 3.6-1 .7 0 1.4 0 2.3.7.8.6 1.4 1.6 1.4 5.2 0 1.4.2 2.5 0 4.3 0 1-.3 1-1 1.5-.3 0-1 .3-1 .4s-.2 0 0 .6v.5l4-.2h2.6c.2 0 .3 0 .3-.3v-.6s-.2-.2-.5-.2c-1.5-.5-1.6-.6-1.6-1.8v-6.2c0-3.2-.8-6-4.2-6-.6 0-1.3 0-2 .3l-4 1.7c-.2 0-.4 0-.4-.2v-5.6l.2-7.5v-.4h-.6l-4 2.3v.4c1.4 1.2 1.5 1.2 1.5 3.5v15c0 3.6 0 3.8-2 4.7-.3 0-.3 0-.2.3l.2.6zm-6.4-17.8h-.4c-.8 1-3.2 3.3-4.6 4.5 0 0 0 .4.2.4h1.6c.2 0 .4.2.3.5v8.4c0 1.3 0 2 .5 2.6.8 1 2.2 1.2 3 1.2 1.7 0 3.2-.8 4.6-1.6.3 0 .4-.3.4-.4v-.8h-.4c-1 .6-1.5.8-2.4.8-1.7 0-2.8-1-2.8-2.6v-7.7c0-.5.2-.6.3-.6 2-.2 4-.2 5-.2.3 0 .5 0 .6-.3l.2-1.3c0-.3 0-.4-.4-.4h-5.4l.2-2.7zm-10.2 6.6c0 .4-.2.5-.4.6-1.7.4-3.5.7-5.2 1.2 0-1.6.5-3.5 1.6-4.3.4 0 .8-.3 1-.3 1.6 0 3 1.8 3 3zm-1.7-4.3c-1 0-2.4.5-3.3 1.2-2 1.5-4 4-4 7.4 0 2.3 1 4 1.7 4.6.5.6 2.2 2.2 4.8 2.2.5 0 1 0 1.5-.2 1.2-.4 3-1.2 4.7-2.5.2-.2.3-.4.3-1.3 0-.2-.4-.2-.6 0-1.2 1-2.7 2-4.4 2-2.5 0-4.5-1.7-4.7-5.5 0-.4 0-.6.2-.6 1.6-.5 6.5-1.5 9-2 .5-.2.7-1 .8-1.2v-.3s-1 0-1.2.2c-.3-1-1-2-1.5-2.5-.7-.7-2-1.4-3.2-1.4zm-18.7 14.2c0-.2 0-.3-.2-.3-1.8-.3-2-.3-2-1v-8.6c0-.4 0-.5.3-.7 1-.7 2.2-1.2 3.3-1.2 1.2 0 2 .3 2.5 1 .6.7 1 2 1 5 0 1 0 3.6-.2 5 0 .6-.6 1-1 1V400.7H-207c.2 0 .4-.8.4-1 0 0 0-.2-.2-.2-1.6-.3-2-.4-2.3-.8-.2-.2-.2-.6-.2-2v-5.4c-.2-3.4-1-4.2-1.5-4.8-.7-.6-1.7-1-2.4-1-1 0-1.7.3-2.3.6l-4 2.2c-1-1.6-2-2.7-4.2-2.7-.4 0-1 0-1.3.3-1.3.6-3.3 2-4.2 2.5v-2.8c0-.3 0-.4-.3-.4s-.4.2-.7.4c-.5.2-1.7 1-3.6 2.5v.6c.2 0 .3.2 1 .3.6 0 .7 0 .8.7v8.7c0 .5-.2.6-.5.7l-1 .6v1l3-.2h3.3v-1l-.2-.2c-1.7 0-1.7-.3-1.7-4.5V390c.2-.4.3-.7.6-1 1.3-.8 2.6-1.2 3.5-1.2 1.3 0 2.2.5 2.7 1 .4.5.5 1 .5 2.7 0 3.8 0 5.8-.3 7 0 .4-.3.6-1.8 1v1h7v-1zm-27.8-12.8c1.2 0 2.5.6 3.2 1.3 1.6 1.4 2.3 4 2.3 6.2s-.8 3.7-1.6 4.5c-.5.5-1.4.7-2 .7-.8 0-2.2-.4-3.5-1.8-1-1-2-2.6-2-5 0-2.5.5-4 1.5-5 .5-.6 1.3-1 2-1zm1.6-1.5c-1 0-3 .6-4.2 1.2-1 .6-1.8 1.2-2.5 2.2-1 1.2-1.5 3-1.5 4.6 0 1.3.4 3.3 1.6 4.8 1.4 2 4.3 2.8 5.7 2.8 1.8 0 3.6-.6 5.2-1.7.6-.2 3-2.2 3-6 0-5.3-4.4-7.8-7-7.8zm-10.5 11.4c0-3-3.3-4.2-4.3-4.7-1.6-1-3.2-1.8-3.2-3.5 0-1.3 1-2 1.7-2 2 0 3 1.8 3.5 2.8.3.5.5.5 1 .5l.4-.3c-.4-1.4-.7-2.7-.7-3.8 0 0 0-.2-.2-.3h-.3-3.2c-1 0-2.2.3-3.2 1-1 1-1.6 2-1.6 3.3 0 2.5 2.8 3.7 3.7 4.2 1.2.5 3.5 1.4 3.5 3.5 0 1.3-1.5 2-2.4 2-.5 0-1.4 0-2.5-1.2-.6-.8-1.3-2-1.6-3-.7 0-1 .2-1 .3l-.2.2c.2 1.5.2 2.8 0 4.2v.4h1.8s2.2.4 3.2.4c1.3 0 2.7-.3 4-1 1-1 1.7-2 1.7-3v-.2zM87.8 363.2c-3.8 0-4.6-2-4.6-2.6 0-.6.4-1.6 1.3-2.4.7-.6 1-.8 1.5-1l4-.2c1.2 0 2.3.2 3 .8 1 .6 1 1 1 1.7 0 1-.6 1.6-1.4 2.3-1 1-2.5 1.4-4.7 1.4h-.2zm3.5-16.5c0 2.5-1.4 3.4-2.8 3.4-.6 0-1.5-.2-2.8-1.3-1-1-1.7-2.8-1.7-4.2 0-1 .3-2.2 1-2.7.6-.6 1.3-1 2-1 1.7 0 2.8 1 3.3 2 .7 1 1 2.6 1 3.8zm-2.7-7.4c-1.6 0-3 .7-4.3 1.6-1.7 1-3 2.8-3 5 0 1.6.7 3.2 1.7 4 1 1 2 1.4 3 1.7-1.5.7-3.2 1.6-3.5 2-.3.2-.3.4-.3.7 0 1.2 1 1.7 2.6 2.4l-3 2c-.8.6-1.3 1.6-1.3 3 0 1.5 1.6 3.4 5.8 3.4 1 0 2.8-.2 3.7-.5 1-.4 2.7-1 4.7-3.4 1-1.3 1.3-2 1.3-3 0-1.4-.5-2.4-1-2.8-1.3-1-2.8-1-4.4-1h-3.2c-1 0-2-.4-2-1 0-.2.2-.5.4-.6 1-.5 1.7-1 3.2-1.5 3-1.2 4.8-3.6 4.8-6.2 0-1-.4-2.4-1-3.3H96c.5 0 .7-.3.7-.5s0-1-.2-1.2c0 0-.4-.5-.7-.5-.8 0-3 .5-3.7.5 0 0-.3 0-.5-.2-.7-.2-2-.7-3-.7zm-26 15.5l.2.2 3.5-.2h3.3l.2-.8c0-.2 0-.2-.2-.3-2-.3-2-.4-2-1V344c0-.4 0-.6.4-1 1-.4 2.3-1 3.2-1 1 0 2 .4 2.6 1 .8 1 1 2 1 4 0 2.8-.2 4.3-.4 5.4 0 1-.5 1.4-1.6 1.7l.2 1h6.4s.2 0 .3-.3v-1s0-.3 0-.3l-2 .2c-.2 0-.2 0-.2-.4V348v-3.4c-.3-1.7-.8-3-1.8-3.8-.7-.6-1.5-.8-2.6-.8-.6 0-1.4.2-2 .5l-3.4 1.7s-.2 0-.2-.3v-2c0-.3-.2-.4-.4-.4h-.4c-.2.3-2 1.2-3.5 2-.2 0-.3 0-.3.2v.7c2 .5 2 .6 2 1v8.8c-.3 1-.7 1.3-2 1.7v.8zm-6.8-8c0 2.4 0 5-.2 5.7-.3 1-.6 1-2 1.3v1.2h.2l3.3-.2H61v-1c.2-.2 0-.5-.2-.5H59c-.3.2-.4 0-.5-.6v-3l.3-10v-.3h-.2L54 341s-.2.2-.4 1v.2c1.8.3 2 .4 2 .6l.2 4zm2-15.7c-.8 0-1.8.8-1.8 2s.7 2 1.6 2c1 0 2-1 2-2.2 0-1-.7-1.7-1.7-1.7zm-22.7 23.7c0 .2 0 .2.3.2l3.8-.2h3.3l.2-1c0-.4 0-.5-.2-.5h-1.6c-.3 0-.6-.3-.6-2.4 0-1.8 0-2.3.2-3 0-.4 0-.6.2-.6 0 0 .5.2 1 .7l5 5.2c.4.3 0 .4-.8.6-.2 0-.2 0 0 .5v.5H51c.7.2 1.5.2 2 .2v-.3-1c-2-.2-2.3-.5-4-2.2-1.5-1.3-4.4-4.2-5-5-.5-.5-.4-.6 0-1l4.2-3.3c1-.6 2-1 3-1.2.4 0 .5 0 .6-.3v-.8-.2c-2.2.2-4.8.2-6.8.3-.2 0-.2.2-.3.4v.7c-.2.3 0 .4 0 .4h1c.4 0 .7.2.4.5l-4.5 4-1 .6c-.2 0-.3 0-.3-.5l.2-11.7v-5.8c0-.5 0-.7-.5-.5-.5 0-4 1.6-4.3 1.8 0 .2 0 .5.2.7 0 .2.5.5 1 1 .3.2.4.5.5 1.7v9.8c0 5.7 0 9-.4 10 0 .4-.4.5-1.5.7-.2 0-.3.2-.3.4v.7zm-9.6-1.4c-1.3 0-1.7-.8-1.7-2 0-.8.2-1 .4-1.2 1-.6 2.3-1 4.6-1.4 0 0 .2.2.2.5 0 .6 0 2-.2 2.5 0 .5-.3.7-.8 1-1 .5-2 .8-2.3.8zm-1.4-9.6c.2 0 .2-.2.2-.4 0-1.3.2-1.5.3-1.7l1.5-.2c1 0 2 .3 2.2.6.3.3.6 1.2.6 2.8v2.7c-2.4.4-4.7 1-6.6 2-1 .6-1.6 1.2-1.6 2 0 1.5.6 2.5 1 3 1 .6 1.7.7 2.2.7.4 0 3.3-1.2 4.8-2 .3 1.7 1 2 1.6 2 1.3 0 3.7-.6 4.2-.8l.2-.4v-.7s-.2-.5-.3-.4c0 0-1.2.4-2 .4-.5 0-.8-.7-.8-2.7v-8c0-.3 0-1-.6-1.7-.7-.7-1.6-1.4-3.3-1.4-.6 0-1.2.2-2 .5-1 .4-3.8 2-4.5 3l-.3 1c0 .2.2.5.4.5h.6l2-.8zM9 354c0-.3 0-.4-.2-.4-2-.3-2-.3-2-1-.2-1.3-.2-6.4-.2-8.6 0-.4 0-.5.4-.7 1-.6 2.2-1 3.3-1 1.2 0 2 .2 2.5 1 .5.6 1 1.8 1 5 0 .8 0 3.5-.4 5 0 .5-.5.8-1 1v.8c0 .2.2.2.3.2h6.1l.3-1v-.3c-1.7-.4-2.2-.5-2.4-1v-2c0-1.5 0-3.3-.2-5.3 0-3.4-.8-4.2-1.4-4.8-.7-.7-1.7-1-2.4-1-1 0-1.6.2-2.2.5l-4 2c-1-1.5-2-2.6-4.2-2.6-.4 0-1 0-1.3.2-1.4.6-3.4 2-4.3 2.5V340c0-.4 0-.5-.3-.5s-.4 0-.7.3c-.5.2-1.7 1-3.6 2.5 0 0 0 .6.2.7 0 0 .2.2.8.3.7 0 .8.2 1 .8v4.2c0 3 0 4.2-.2 4.6 0 .5 0 .6-.4.7l-1 .5c-.2.4 0 1 0 1l3-.2h3.3v-1s0 0-.2-.2c-1.7 0-1.7-.3-1.7-4.5v-4.7c0-.3.2-.6.5-.8 1.3-1 2.6-1.3 3.5-1.3 1.2 0 2 .5 2.6 1 .4.5.5 1 .5 2.7 0 3.7-.2 5.7-.4 6.8 0 .5-.2.7-1.7 1l-.2.3v1c1.6-.2 3.3-.2 7.2-.2v-1zm-33-16.7c-.2 0-.4 0-.5.2L-29 342c-.2 0 0 .3 0 .3h1.6c.2 0 .4.3.4.6 0 1 0 6.2-.2 8.3 0 1.4 0 2 .5 2.7.8 1 2.2 1.2 3 1.2 1.7 0 3.2-.8 4.7-1.6l.2-.4v-.8h-.4c-1 .6-1.5.8-2.4.8-1.7 0-2.8-1-2.8-2.6V343c0-.6.2-.7.3-.7h4.8c.3 0 .5 0 .6-.4l.2-1.4c0-.3 0-.4-.4-.4h-5.4l.2-2.7v-.2zm-17 17.3c-.3.2-.2.3 0 .3l2.2-.2h5l.2-1.2s0-.3-.3-.3h-2c-.4 0-.5 0-.6-.2l-.2-1.5v-4.8c0-1.8 0-2.3.4-2.5.7-.6 1.7-1.3 2.5-1.3.7 0 1.3.4 1.6.8 0 .2.2.3.5.3s.5 0 .7-.2c.3-.3 1.3-1.4 1.3-2 0-1-1-1.8-2-1.8-.4 0-1 .2-1.2.5-.5.3-2.8 2.2-3.6 2.6v-3c.2-.3 0-.5 0-.5h-.6c-1.2 1-2.7 1.8-4.2 2.7 0 .2.2.7.5.8 1.3.5 1.4.7 1.4 1.6v8.2c0 .5-.3.6-1.2 1l-.3.8zm-10.8-1.3c-1.3 0-1.7-.8-1.7-2 0-.8.2-1 .4-1.2.7-.6 2-1 4.4-1.4 0 0 .2.2.2.5 0 .6 0 2-.2 2.5 0 .5-.3.7-.8 1-1 .5-2 .8-2.3.8zm-1.4-9.6c.2 0 .2-.2.2-.4 0-1.3.2-1.5.3-1.7l1.5-.2c1 0 2 .3 2.2.6.3.3.6 1.2.6 2.8v2.7c-2.4.4-4.7 1-6.6 2-1 .6-1.6 1.2-1.6 2 0 1.5.6 2.5 1 3 1 .6 1.7.7 2.2.7.4 0 3.3-1.2 4.8-2 .3 1.7 1 2 1.6 2 1.3 0 3.7-.6 4.2-.8l.2-.4v-.7s-.2-.5-.3-.4c0 0-1 .4-1.7.4s-1-.7-1-2.7v-8c0-.3 0-1-.6-1.7s-1.5-1.4-3.2-1.4c-.6 0-1.2.2-2 .5-1 .4-3.8 2-4.5 3l-.3 1c0 .2.3.5.5.5h.6l2-.8zm-10.6-6.4s-.3 0-.4.2l-4.6 4.4c-.2 0 0 .3 0 .3h1.7s.3.3.2.6v8.3c-.2 1.4 0 2 .4 2.7.8 1 2.2 1.2 3 1.2 1.7 0 3.2-.8 4.7-1.6l.2-.4v-.8h-.4c-.8.6-1.4.8-2.3.8-1.7 0-2.8-1-2.8-2.6V343c0-.6 0-.7.2-.7h5c.2 0 .4 0 .5-.4l.2-1.4c0-.3 0-.4-.5-.4H-64l.3-2.7v-.2zm-6.6 13.7c0-3-3.3-4.2-4.3-4.7-1.6-1-3-1.7-3-3.4 0-1.4 1-2 1.6-2 1.8 0 2.8 1.7 3.3 2.7.4.5.5.5 1 .5.2 0 .5-.2.5-.3-.5-1.5-.7-2.8-.8-4v-.2h-3.5c-1 0-2.2.3-3.3 1-1 1-1.7 2-1.7 3.3 0 2.6 2.8 3.8 3.8 4.3 1 .6 3.3 1.5 3.3 3.6 0 1.2-1.4 2-2.3 2-.7 0-1.6-.2-2.6-1.3-.7-.8-1.3-2-1.7-3-.5 0-.7.2-1 .3v.2c.2 1.5.2 2.8 0 4.2v.4H-79.2s2.3.4 3.3.4c1.2 0 2.7-.3 3.8-1 1.3-1 1.8-2 1.8-3v-.2zm-29.2 4l7.4-.2h.3l.3-1.2s0-.2-.2-.2h-1.5c-1 0-1-.6-1-5.5 0-7.2 0-14.6.4-19.5 0-.2 0-.3-.2-.3h-.2c-1.7 1-3.3 1.5-4.6 2-.2 0-.3 0-.3.2-.2.7-.2.8 0 .8 1.6 0 2 .2 2 1.3v5.8c0 3 0 9.7-.3 14.3 0 .6 0 .7-1 1l-.8.4-.2.6v.3zm-9 0h.3l7.3-.2h.2l.2-1.2s0-.2-.2-.2h-1.6c-1 0-1-.6-1-5.5 0-7.2 0-14.6.4-19.5v-.3h-.3c-1.7 1-3.3 1.5-4.6 2 0 0-.2 0-.2.2-.2.7-.2.8 0 .8 1.6 0 2 .2 2 1.3v5.8c0 3 0 9.7-.3 14.3 0 .6 0 .7-1 1l-.8.4-.2.6v.3zm-4.5-26.7c-.4 0-.5 0-.6.3-.4.6-.8 1-1.4 1.4-.3 0-.4.2-.4.4v.5c.7.3 1 .8 1 1.4 0 1.2-1 2.4-2 3.8 0 0 0 .2.2.2h1c1.3-1 3.7-3.3 3.7-5.7 0-1.3-.8-2.4-1.6-2.4zm-17.6 11.4l-4 1c-.3 0-.4 0-.3.5 0 .4.2.5.4.6 1.5.7 1.5 1 1.5 1.5 0 1.3-.2 3.8-.2 7.8 0 1 0 2 .5 2.5 1 1.4 2.2 1.8 3.5 1.8.7 0 1.6-.2 2.4-.6l3.4-1.7v1.6s0 .3.2.5c.2.3.3.3.5.3.4 0 2.7-.8 4.6-1 0 0 .2 0 .5-1.2l-.4-.3-2 .5s-.2 0-.2-.2l-.2-2.4V347c0-2.4 0-3.7.2-4.8v-1.7c-.2-.3-.3-.4-.7-.4-1.4 0-4.6.5-4.7.5 0 0-.2 0-.2.2l.3.7.3.2c1.2.3 1.7.5 2 .8.2.5.3 1.4.3 4 0 2-.2 3.5-.4 4.7 0 .6 0 .7-.3 1-1 .5-2.3 1-3.6 1-1.2 0-3-.6-3-2.4V343c.2-1.6.2-2.3 0-2.7 0-.4 0-.6-.3-.6zm-15 1.4c1.2 0 2.4.7 3.2 1.4 1.6 1.4 2.3 4 2.3 6.2s-1 3.7-1.8 4.5c-.5.6-1.4.8-1.8.8-1 0-2.3-.4-3.6-1.8-1-1-2-2.6-2-5 0-2.5.5-4 1.6-5 .5-.6 1.3-1 2-1zm1.6-1.4c-1.2 0-3 .6-4.3 1.2-1 .6-1.8 1.2-2.6 2.2-.8 1.2-1.4 3-1.4 4.6 0 1.3.5 3.3 1.6 4.8 1.5 2 4.4 2.8 5.8 2.8 1.6 0 3.4-.6 5-1.7.6-.3 3-2.3 3-6.2 0-5.2-4.3-7.7-7-7.7zm-14.4 1.5c0 .3 0 .4.2.4 1.7.5 1.7.7 1.3 2-1 2.8-2.4 6-3.6 8.3-.8-1.6-2.4-7-2.8-8.6-.4-1.2-.2-1.3 1.7-2 0 0 0-.6-.2-.8H-167.8s-.2 0-.3.4c0 .4-.2.6-.2.7l.3.3c1 .2 1.2.4 1.6 1.4l4 11.5v1.5l-4 7.3c0 .4 0 .8.2 1.2.4.4 1.2.5 1.7.5.3 0 .6 0 .8-.2.3 0 .3-.2.3-.4l.2-1.6 2.5-7c1-2.5 2.6-6 5.4-11.3 1-2 1.4-2.8 3-3.3l-.4-1h-5.2l-.2 1zm-24 3c0 .4-.2.5-.5.6l-5 1.2c-.2-1.6.5-3.5 1.6-4.3.3-.2.7-.4 1-.4 1.5 0 3 2 3 3zm-1.8-4.3c-1 0-2.4.5-3.4 1.2-2 1.4-4 4-4 7.2 0 2.5 1.2 4.2 1.8 4.8.4.6 2 2.2 4.8 2.2.4 0 1 0 1.4-.2 1.3-.4 3-1.2 4.7-2.5.3-.3.4-.5.4-1.4h-.6c-1.3 1.2-2.7 2-4.5 2-2.5 0-4.5-1.6-4.6-5.4 0-.4 0-.6.2-.6 1.6-.5 6.5-1.5 9-2 .4-.2.7-1 .8-1.2v-.3c-.2-.2-1 0-1.3 0-.3-1-.8-1.8-1.5-2.4-.6-.6-2-1.3-3-1.3h-.2zm-19.4 15v.2l2.3-.2h5l.3-1.2s0-.3-.3-.3h-2c-.5 0-.7 0-.8-.2-.2 0-.2-.6-.2-1.5v-4.8c0-1.8 0-2.3.3-2.5.8-.6 1.8-1.3 2.7-1.3.6 0 1 .4 1.4.8l.6.3.6-.2c.4-.3 1.3-1.4 1.3-2 0-1-1-1.8-2-1.8-.4 0-.8.2-1.2.5l-3.5 2.6v-3c.2-.3 0-.5-.2-.5h-.4c-1.2 1-2.8 1.8-4.2 2.7 0 .2 0 .7.4.8 1.5.5 1.6.7 1.6 1.6v8.2c-.2.5-.4.6-1.3 1l-.3.8zm-11.2-13.6c1.2 0 2.5.7 3.2 1.4 1.6 1.4 2.3 4 2.3 6.2s-.8 3.7-1.7 4.5c-.5.6-1.3.8-1.8.8-1 0-2.3-.4-3.6-1.8-1-1-2-2.6-2-5 0-2.5.6-4 1.6-5 .5-.6 1.3-1 2-1zm1.6-1.4c-1 0-3 .6-4.3 1.2-1 .6-1.8 1.2-2.5 2.2-1 1.2-1.6 3-1.6 4.6 0 1.3.5 3.3 1.6 4.8 1.5 2 4.4 2.8 5.8 2.8 1.6 0 3.4-.6 5-1.7.6-.3 3-2.3 3-6.2 0-5.2-4.3-7.7-7-7.7zm-9 2.6c.3 0 .4-.2.4-.4v-1.2c0-.2-.4-.5-.7-.5 0 0-2.3.3-3.5.3-.2 0-.4-.2-.4-.5 0-5.6.5-7.7 1.5-8.8.7-.6 1.3-1 2-1s1.2.3 2 1c.8.3 1.3.6 1.7.6.2 0 .4 0 .5-.2.5-.5 1-1 1-1.5 0-.3 0-.5-.2-.8-.4-.6-1.7-1-2.8-1-.5 0-1.2 0-2 .3-1.8.7-3.4 1.8-4.4 2.8-2 1.8-2.2 4-2.2 7v2c-.6 0-1.5.3-1.7.3-.3 0-.3.2-.4.5l-.4.7.3.2h1c1 0 1 .2 1 1v6.6c0 3.6 0 3.7-2 4.2 0 0-.2 0-.3 1 0 .2 0 .2.2.2l3.4-.2h4c.4 0 .5 0 .5-.7 0-.6 0-.8-.3-.8l-2 .2c-.5 0-.6-.4-.6-2.5v-7c0-1.8 0-2 .4-2 1.6 0 2.5.2 3 .2h1zm-15 1.8c0 .4 0 .5-.4.6l-5.2 1.2c0-1.6.6-3.5 1.7-4.3.2-.2.6-.4 1-.4 1.4 0 3 2 3 3zm-1.7-4.3c-1 0-2.3.5-3.2 1.2-2 1.4-4 4-4 7.2 0 2.5 1 4.2 1.7 4.8.4.6 2 2.2 4.8 2.2.4 0 1 0 1.4-.2 1.3-.4 3-1.2 4.7-2.5.3-.3.3-.5.4-1.4h-.6c-1.3 1.2-2.8 2-4.6 2-2.5 0-4.5-1.6-4.6-5.4 0-.4 0-.6.3-.6 1.6-.5 6.5-1.5 9-2 .4-.2.7-1 .8-1.2v-.3c0-.2-.8 0-1 0-.5-1-1-1.8-1.7-2.4-.6-.6-2-1.3-3-1.3h-.2zm-12.5 8c0 2.3-.7 3.7-2.3 5-1 .8-2 1-2.7 1-1 0-2.2-.6-3-1.3-1-1-1.2-2.6-1.2-4v-5c0-.5.2-.7.4-.8.4-.3 1.6-.8 3-.8 1.2 0 2.6.2 4.2 2 1 1.2 1.5 2.7 1.5 4zm2.8-1.5c0-1.5-.8-3.4-2.4-5-1.3-1.2-3-1.7-4.2-1.6-.4 0-2.5.8-5 1.7 0 0-.4 0-.4-.3 0-7 .2-10.2.2-11.7 0-1 0-1.3-.2-1.3-.5 0-3.7 2-4.4 2.5-.3.2-.3.4 0 .8 1.3 1 1.4 1.3 1.6 2.4v13.5c0 5.8 0 7 .5 7.7h6.2c.5 0 1.8 0 2.7-.6 3.2-1.7 5.3-4 5.3-8v-.2zM93 293.7c0 3.8-1.4 7-4 7-.8 0-1.5-.3-2.3-.8-.3-.2-.5-.4-.5-.6V294c0-3.5 0-5.2.2-5.8 0-.4.2-.6.4-.7.2-.2.8-.3 1.3-.3 3.8 0 5 3.6 5 6.5zm6.5 0c0-1.8-.7-4-2.8-5.5-2.2-1.5-5-2-7.7-2l-5.8.2H77.3l-.2.5h.3l1.6.5c1.3.3 1.5 1.3 1.5 7v7c0 2.8-.2 4.5-.3 5-.2 1.5-1.4 2-2.7 2.3v.3l.5.5 4.8-.3 7 .4v-.4-.3l-2.5-1.2c-1-.6-1.2-1.3-1.2-6.4.6 0 1.4.2 2.5 0 3 0 6.6-.8 8.4-2.3 1.4-1.2 2.5-3 2.5-5v-.2zm-44.3 7c-1.6 0-1.7-.2-1.6-.7 1.2-3.3 2.2-5.7 3.4-8.3l3.2 8.2c0 .3 0 .6-.5.6h-4.5zm4.7-15c-.8 0-1.4.3-2 .5l-.4.7-.8 2.4-7 15c-1.2 2.8-2.2 3.6-4 4.4v.3c0 .3 0 .4.4.4l3.5-.2c1 0 2.5 0 4.2.3v-.4c.2 0 0-.2 0-.3-2-1-2.7-1.4-2.7-2.2 0-1 .7-2.7 1.2-3.5.3-.7.6-1 1.2-1h6.7c.4 0 .6.2.8.6.5 1.2 1.6 4 1.6 4.6s-.7 1.2-2.2 1.7c0 .2.2.5.4.5 1 0 2.7-.3 4.7-.3l5.8.2c.3 0 .4 0 .5-.5 0-.2 0-.3-.2-.4-2-1-2-1-3.2-3.8-3-6.3-5.8-13.2-8-18.7 0-.2-.4-.4-.6-.4zM33 293.3c0 2-.6 3.3-1.3 4-1 .7-3 1.2-5 1.2-.6 0-.6-.3-.6-1 0-4.6 0-7.8.2-9.5 0-.3.3-.5.5-.6.4-.2 1-.3 1.7-.3 2 0 4.5 2 4.5 6.4zm-4 15.2c-.8-.3-2-1-2.5-1.3-.3-.3-.3-2.2-.3-6.6 0-.8.3-1.2 1.3-1.2 1.4 0 2 .4 2.6 2 1 2.3 2.8 4.6 4 6 2 1.8 4.4 2 8.4 2h.8v-.5c-.6-.3-1.5-.6-2.2-1.2-2.3-2-4.5-5.5-6-9.3 0-.3 0-.7.3-.8 1.5-.8 3.7-2.6 3.7-5.2 0-2-1-3.5-2.2-4.5-1.6-1.3-4.6-2-7.3-2-2.4 0-4.4.3-6.5.4-1.5.2-3.4 0-5 0l-.3.3c0 .2 0 .4.3.5l1.6.7s.5.5.6 1v17.5c-.3 1-1 1.5-2.8 2.4v.2c0 .2 0 .3.5.3 1 0 3.3-.3 5.7-.3h4.7c.3 0 .4 0 .5-.4v-.2zm-41-10.7c0 6 4 12 14 12 3 0 5.7-.5 6.6-.5.5 0 .8-.2 1-.6.6-1 1.5-2.8 2-5.5l-.3-.5c-.2-.2-.3-.3-.5 0-.5 1.2-1 2.3-2.5 3.7C7 308 5 308.5 4 308.5c-6 0-9-6-9-10.2 0-4.7 1-7.4 2.7-9.5 1.3-1.5 3-2 5-2 1.8 0 3.4.5 4.5 1.5 1.2 1.2 2.2 2.7 2.6 4 .2.6.4.7.7.7.2 0 .3 0 .2-.4-.3-1.5-.3-4 .5-6.2 0 0 0-.2-.2-.3h-.3l-1 .3h-1c-.7-.2-3-.7-5-.7-1.7 0-3.2 0-4.8.5-3.3 1-6 2-7.7 4-2 2.2-3 5-3 8zM-45 309.4l.2-.2v-.5c-3.2-.8-3.7-1-3.7-4.6V300c0-.8 0-1 .2-1 .8-.3 1.7-.3 3.2-.3 2.8 0 4 .5 4.5 1.2.5.6.8 1 1.3 2h.4v-.5-3.4-3c0-.2 0-.2-.3-.2-.2 0-.4 0-.7.5-.8 1.4-1 2-1.8 2-2.7.2-4.5.2-6.7.2 0 0-.3 0-.3-.6 0-1.5 0-5.3.2-8.3 0-.6.3-1 .7-1h2.8c4.5 0 5 1 6.5 4.3 0 .3.3.4.5.4s.3 0 .3-.2v-5.5c0-.3-.2-.6-.3-.6-1.2.3-3 .4-5.7.4h-7.3l-5.6-.2c-.5 0-.6 0-.6.2v.4c2.4 1 2.6 1 2.7 2.5.2 3.4 0 6.8 0 9.4 0 4 0 7.2-.2 8.3 0 .7-.3 1.2-1.2 1.5l-1 .3s-.2 0-.2.3l.2.4h.3l5.2-.2c2.6 0 4.2 0 5.5.3h.7zm-32.3-22.8c2.2 0 3.8 1 5 2.2 2.3 2.4 2.8 6.2 2.8 9.7 0 7-2.5 10-5.4 10-1.6 0-3.4-.4-5-2.3-1.7-1.8-3-5.3-3-9.6 0-3.3.8-6.3 2-8 1-1.2 2-2 3.6-2zm1.3-1c-4.4 0-7.3 1.2-10 3.5-2.4 2-3.8 5.4-3.8 8.5 0 3.3 1.4 6.3 3 8.2 2.8 2.7 6.5 4 10.8 4 2.4 0 6.4-1 8.4-2.7 2.8-2 4.8-5.2 4.8-9.8 0-6.6-5.8-12-13.2-12zm-39.4 17c0-2-.5-3.3-2.3-4.8-1-1-3.5-2.2-6.3-3.3-3-1-5-2.2-5-4.2 0-2.3 2-3.8 4-3.8s3.5.5 5 1.8c1.2 1 2 2.3 2.5 3.8 0 .4.2.5.5.3l.2-.5c-.3-3-.5-4.2-.4-6.3 0 0 0-.2-.5-.2 0 0-.2 0-.5.5-.3.4-.7.5-1.2.4-2-.6-3.7-.7-5-.7-2 0-4 .4-5.3 1-2.6 1-4.5 2.7-4.5 5.7 0 2 .7 3.2 1.7 4.2 1.2 1.2 3.4 2.4 5.7 3.3 3 1 6 2.2 6 4.5 0 3.2-2.6 4.5-4.7 4.5-3.3 0-7-2.3-8.6-6.4l-.6-1c-.2 0-.4.2-.5.3.2 3 .5 4.7.5 7.4 0 .6.2.7.4.7h.4c.5-1 .8-1 1.7-.8 2 .4 4.6.8 6 .8 2 0 4.6-.3 6.6-1.2 2-1 4-2.8 4-6zm-44-2c0 3-.2 5.3-.2 5.8-.2 1.2-.4 1.4-2.2 2.2-.3 0-.4.2-.4.4v.5c3.2 0 5.4-.3 10.2-.3h9.9c.3-1 1-3.3 1.2-6 0-.2 0-.2-.2-.3 0-.2-.2-.2-.3-.2l-.4.4c-1.7 3.5-3.3 5-7.7 5-3 0-4-.7-4-1.3l-.2-2c0-5.7 0-6.2.2-6.4.3 0 .6-.2 2-.2 2.3 0 3 0 4.2.2 1 0 1.4.7 1.8 1.2l1 2c.5 0 .6 0 .6-.2v-3.3-4-.4c-.3 0-.5 0-.6.2-1.2 2.3-2 2.6-3 2.8h-5.5c-.5 0-.6 0-.6-.8v-7c0-1 0-1.3.7-1.4.5 0 1.8-.3 3.4-.3 3.7 0 4.5.7 5.8 4 .3.6.4.7.7.7v-.3c0-1 0-2.6.4-4.7v-.8c-.2-.2-.5-.3-1-.3l-10.8.2h-7.6-.2v.5c2 .6 2.3 1 2.4 1.2.3.5.4 2.2.4 5v7.6zm-32.2-2.8c0 6 4 12 14 12 3 0 5.5-.5 6.4-.5.6 0 .8-.2 1-.6.6-1 1.5-2.8 2-5.5 0 0 0-.4-.2-.5-.3-.2-.4-.3-.5 0-.4 1.2-1 2.3-2.5 3.7-1.4 1.3-3.3 1.8-4.5 1.8-6 0-8.8-6-8.8-10.2 0-4.7.8-7.4 2.6-9.5 1.2-1.5 3-2 5-2 1.7 0 3.3.5 4.4 1.5 1.3 1.2 2.2 2.7 2.6 4 .3.6.4.7.7.7.3 0 .3 0 .3-.4-.3-1.5-.4-4 .4-6.2v-.3h-.4l-1 .3h-1c-.8-.2-3-.7-5-.7-1.7 0-3.2 0-4.8.5-3.2 1-5.8 2-7.7 4-2 2.2-3 5-3 8zm-24.5 2.8c0 3-.2 5.2-.3 5.7 0 1.2-.4 1.4-2 2.2-.4 0-.6.2-.6.4s0 .5.2.5c3.2 0 5.3-.3 10-.3h10c.4-1 1-3.3 1.2-6v-.3l-.5-.2-.3.4c-1.8 3.5-3.4 5-7.7 5-3 0-4-.7-4-1.3-.2-.3-.2-1-.2-2v-6.4c.4 0 .7-.2 2.3-.2 2.3 0 3 0 4.2.2 1 0 1.4.7 1.8 1.2l1 2c.4 0 .5 0 .5-.2v-3.3-4-.4c-.2 0-.4 0-.6.2-1.2 2.3-2 2.6-3 2.8h-5.8c-.3 0-.4 0-.4-.8v-7c0-1 0-1.3.6-1.4.5 0 1.7-.3 3.4-.3 3.7 0 4.5.7 5.7 4 .3.6.4.7.7.7.2 0 .3 0 .3-.3 0-1 0-2.6.3-4.7v-.8c-.3-.2-.5-.3-1-.3l-11 .2H-218.7l-.2.5c2.2.6 2.4 1 2.6 1.2.2.5.3 2.2.3 5v7.6zm-21.4 8v.3c0 .3 0 .5.3.5.2 0 1.5-.3 5-.3 2.6 0 4.4.2 6.3.3.3 0 .5 0 .5-.2v-.6c-2-.7-2.8-1-3-2.4l-.2-5.5v-6.5c0-4 0-5.2.3-5.8 0-.5.3-.8 3-1.6v-.6l-.6-.2-5.5.2c-2.5 0-3.7 0-5.6-.2 0 0-.3 0-.4.2l-.2.4.5.3c1.4.5 2.2.8 2.4 2.3V306c-.2 1-.5 1.7-1.4 2l-1.7.8zm-12-15c0 3.7-1.4 6.8-4.2 6.8-.7 0-1.3-.2-2-.7-.5-.2-.7-.4-.7-.6V294c0-3.5.2-5.2.2-5.8 0-.4.2-.6.3-.7.2-.2.8-.3 1.4-.3 3.6 0 5 3.6 5 6.5zm6.4 0c0-2-.7-4-2.8-5.6-2.2-1.5-5-2-7.7-2l-5.8.2h-5.9v.5l1.7.5c1.3.3 1.5 1.3 1.5 7v7c0 2.8-.2 4.5-.2 5-.2 1.5-1.4 2-2.7 2.3v.3c.2.3.4.5.6.5l4.7-.3c1.8 0 4.3.3 7 .4v-.4-.3l-2.5-1.2c-1-.6-1.2-1.3-1.2-6.4.5 0 1.4.2 2.4 0 3 0 6.6-.8 8.4-2.3 1.5-1.2 2.6-3 2.6-5v-.2zM44 251c1.6 0 3 .3 4 1 .7.4.7.6.8 1 .2 1.3.2 6.2 0 7.8 0 .3 0 .4-.5.6-.6.4-2.3.8-3 .8-1 0-2 0-3.2-1-2-1.8-2-4.5-2-5.5 0-1.5.6-3 1.4-3.6.8-.7 2-1 2.7-1zm-7 7c0 1.4.8 3.5 2.3 5 .8.7 2.4 1.6 4 1.6.4 0 2.7-1 5.6-2.3v2c0 .3.4.7.7.7l4.5-1c.3 0 .5-.2.5-.5l-.2-1c0-.2-.2-.2-.4 0l-1.6.4c-.2 0-.4-.2-.5-.7-.3-1-.3-2.8-.3-4v-4.6L52 238c0-.3-.2-.5-.4-.6H51c-1.3 1-2.5 1.6-4.3 2.3v.4c0 .2 0 .3.3.3 1.7.3 1.8.5 2 1v7.8c0 .2-.4.3-.5.3-.5-.2-1.8-.4-2.7-.4-1.8 0-4.5 1.4-5.8 2.6-2.2 2-3 4.2-3 6zM18 264v.2l3.6-.2H25v-.8-.3c-2-.2-2.2-.3-2.2-.8v-8.8c0-.4.2-.6.5-1 .8-.4 2.3-1 3.2-1 1 0 2 .4 2.6 1 1 1 1 2 1 4 0 2.8 0 4.3-.3 5.4 0 1-.5 1.4-1.6 1.7l.3.8c0 .2.2.2.4.2 1.5 0 2.6-.2 6-.2 0 0 .2 0 .3-.2v-.8s0-.4 0-.4l-2 .2c-.2 0-.2 0-.2-.4v-5.3-3.3c-.3-1.7-.8-3-1.8-3.8-.7-.6-1.5-.8-2.6-.8-.7 0-1.5.2-2 .5-1 .4-1.8.7-3.5 1.6-.2 0-.3 0-.3-.3v-2c0-.2-.2-.3-.4-.3H22c-.3.3-2 1.2-3.6 2-.3 0-.4 0-.4.2v.7c2 .4 2 .5 2 1v8.7c-.3 1-.7 1.3-2 1.7v.8zm-10.6-1.5c-1.3 0-1.7-.8-1.7-2 0-.8 0-1 .4-1.2 1-.7 2.3-1 4.5-1.5.2 0 .2.2.2.5v2.4c-.2.4-.5.6-1 1l-2.3.7zM6 253c.2 0 .2 0 .2-.3 0-1.3 0-1.5.3-1.7.2 0 .7-.2 1.5-.2 1 0 1.8.3 2 .6.5.3.8 1.2.8 2.8v2.7c-2.4.3-4.7 1-6.6 2-1 .5-1.7 1-1.7 2 0 1.4.6 2.4 1 2.8 1 .7 1.7.8 2.3.8.4 0 3.3-1.2 4.8-2 .3 1.7 1 2 1.5 2 1.4 0 4-.6 4.4-.8l.2-.4v-.7s-.2-.5-.3-.4c0 0-1.2.5-2 .5-.5 0-.8-.7-.8-2.7v-7.8c0-.4 0-1-.6-1.8-.7-.7-1.6-1.4-3.3-1.4-.6 0-1.2.2-2 .5-1 .3-3.8 2-4.5 3-.2.3-.3.6-.3 1l.3.4c.3 0 .5 0 .7-.2l2-.7zm-6 7.4c0-3-3.3-4.2-4.3-4.7-1.6-1-3.2-1.7-3.2-3.4 0-1.3 1-2 1.7-2 2 0 3 1.8 3.5 2.8.3.6.5.6 1 .6l.4-.3c-.3-1.4-.6-2.7-.6-3.8v-.3H-2h-3.2c-1 0-2.2.3-3.3 1-1 1-1.6 2-1.6 3.3 0 2.5 2.6 3.7 3.6 4.2 1 .6 3.4 1.5 3.4 3.6 0 1.3-1.5 2-2.4 2-.6 0-1.5 0-2.6-1.2-.6-.7-1.3-2-1.6-3l-1 .4V264.2H-9c.7 0 2.3.4 3.3.4 1.3 0 2.7-.3 4-1 1-1 1.7-2 1.7-3v-.2zM-26 249c-.3 0-3.4 1-4 1-.2 0-.3.2-.2.6 0 .4.2.5.4.6 1.4.7 1.4 1 1.4 1.5v7.8c0 .8 0 1.8.4 2.4 1 1.3 2.2 1.7 3.5 1.7.7 0 1.6-.2 2.4-.6l3.3-1.6v1.6s0 .3.2.5.3.2.5.2c.4 0 2.7-.8 4.6-1 .2 0 .3 0 .6-1.2 0-.2-.3-.4-.4-.4l-2 .6s-.2 0-.3-.2l-.2-2.4v-3.6c0-2.4 0-3.7.2-4.8V250c0-.4-.2-.5-.7-.5-1.5 0-4.7.4-4.8.4h-.2c0 .2 0 .7.2.8l.3.2c1.3.3 1.7.5 2 .8.2.5.3 1.4.3 4 0 2 0 3.5-.2 4.7 0 .5-.2.6-.4.8-1 .6-2.3 1.2-3.6 1.2-1.2 0-3-.7-3-2.5v-7.6l.2-2.7c0-.4-.2-.6-.5-.6zm-15.3 1.5c1.2 0 2.5.6 3.2 1.3 1.5 1.4 2.2 4 2.2 6.2s-.8 3.7-1.6 4.5c-.5.5-1.4.7-2 .7-1 0-2.2-.4-3.5-1.8-.8-1-1.7-2.6-1.7-5 0-2.5.4-4 1.4-5 .5-.6 1.3-1 2-1zm1.6-1.5c-1 0-3 .6-4.3 1.2-1 .6-1.8 1.2-2.5 2.2-1 1.2-1.5 3-1.5 4.6 0 1.3.4 3.3 1.5 4.8 1.5 2 4.4 2.8 5.8 2.8 1.7 0 3.4-.6 5-1.7.6-.4 3-2.4 3-6.3 0-5.2-4.3-7.7-7-7.7zm-28 15.4h.4c1.7-.2 3.7-.2 6.8-.2l.2-.3c0-1 0-1-.3-1-1.7-.2-2-.4-2-1.3 0-1-.2-2-.2-4.2v-4c0-.8 0-1 .5-1.2 1-.6 2.4-1 3.5-1 .8 0 1.4 0 2.3.7.8.6 1.5 1.6 1.5 5.2 0 1.4 0 2.5-.2 4.3 0 1-.3 1-1 1.5-.3 0-1 .3-1 .4 0 0-.2 0 0 .6v.5l4-.2h2.6c.3 0 .3 0 .3-.3v-.6s0-.2-.4-.2c-1.5-.5-1.6-.6-1.6-1.8v-6.2c0-3.2-.7-6-4-6-.7 0-1.4 0-2.2.3l-4 1.7s-.2 0-.2-.2v-5.6-7.5-.6h-.5c-1 .6-3.3 1.8-3.8 2.3-.2 0-.2.4 0 .5 1.2 1.2 1.3 1.2 1.3 3.5v15c0 3.7 0 4-2 4.8-.2 0-.3 0 0 .3v.6zm-6.8-17.7s-.3 0-.4.2l-4.5 4.3s0 .4.2.4h1.5c.2 0 .4.3.4.6 0 1 0 6.3-.2 8.4 0 1.4 0 2 .6 2.7.8 1 2.2 1.2 2.8 1.2 2 0 3.4-.8 4.8-1.6l.3-.4c0-.3-.2-.5-.3-.8h-.3c-1 .6-1.4.8-2.4.8-1.7 0-2.8-1-2.8-2.6v-7.7l.3-.6h5c.2 0 .4 0 .5-.4.2-.6.2-1 .2-1.3 0-.3 0-.4-.4-.4h-5.4l.2-2.7v-.3zm-18.3 6.7c0 .4-.2.5-.4.6-1.8.4-3.5.7-5.2 1.2 0-1.6.5-3.5 1.6-4.3.4-.3.7-.5 1-.5 1.6 0 3 1.8 3 3zm-1.7-4.3c-1 0-2.5.6-3.4 1.3-2 1.5-4 4-4 7.3 0 2.5 1.2 4.2 1.8 4.8.5.6 2.2 2.2 4.8 2.2.4 0 1 0 1.4-.2 1.3-.4 3-1.2 4.7-2.5.3-.4.4-.6.4-1.5 0-.2-.3-.2-.5 0-1.3 1-2.8 2-4.5 2-2.5 0-4.6-1.7-4.7-5.5 0-.4 0-.6.3-.6 1.6-.5 6.5-1.5 9-2 .5-.2.7-1 .8-1.2v-.3c-.2-.3-1 0-1.2 0-.4-1-1-2-1.5-2.5-.7-.7-2-1.4-3.2-1.4zm-26.5 15.2v.2l3.6-.2h3.2l.3-.8c0-.2 0-.2-.2-.3-2-.2-2-.3-2-.8v-8.8c0-.4 0-.6.5-1 .8-.4 2.2-1 3.2-1s2 .4 2.5 1c1 1 1 2 1 4 0 2.8 0 4.3-.3 5.4-.2 1-.6 1.4-1.7 1.7l.2.8c0 .2.2.2.5.2 1.4 0 2.5-.2 6-.2 0 0 .2 0 .2-.2v-.8s0-.4 0-.4l-2 .2c-.2 0-.3 0-.3-.4v-5.3-3.3c-.2-1.7-.8-3-1.8-3.8-.8-.6-1.5-.8-2.6-.8-.7 0-1.6.2-2.2.5l-3.3 1.6c-.3 0-.3 0-.3-.3v-2c0-.2-.3-.3-.5-.3h-.4c-.2.3-1.8 1.2-3.5 2-.2 0-.3 0-.3.2-.2.6 0 .6 0 .7 1.8.4 2 .5 2 1v3.4c0 2 0 4-.2 5.3 0 1-.6 1.3-1.7 1.7v.8zm-11.3-13.7c1.3 0 2.5.6 3.3 1.3 1.6 1.4 2.2 4 2.2 6.2s-.8 3.7-1.6 4.5c-.5.5-1.4.7-2 .7-.8 0-2-.4-3.4-1.8-1-1-2-2.6-2-5 0-2.5.5-4 1.6-5 .5-.6 1.2-1 2-1zm1.7-1.5c-1.2 0-3 .6-4.3 1.2-1 .6-1.7 1.2-2.5 2.2-1 1.2-1.5 3-1.5 4.6 0 1.3.5 3.3 1.6 4.8 1.4 2 4.4 2.8 5.8 2.8 1.6 0 3.4-.6 5-1.7.6-.4 3-2.4 3-6.3 0-5.2-4.3-7.7-7-7.7zm-22.2 4.4c0 .4 0 .5-.4.6-1.7.4-3.5.7-5.2 1.2 0-1.6.6-3.5 1.7-4.3.3-.3.7-.5 1-.5 1.5 0 3 1.8 3 3zm-1.7-4.3c-1 0-2.4.6-3.4 1.3-2 1.5-4 4-4 7.3 0 2.5 1.2 4.2 1.8 4.8.5.6 2.2 2.2 5 2.2.3 0 .8 0 1.3-.2 1.4-.4 3-1.2 4.8-2.5.2-.4.3-.6.3-1.5.2-.2-.3-.2-.5 0-1.3 1-2.8 2-4.5 2-2.5 0-4.5-1.7-4.6-5.5 0-.4 0-.6.2-.6 1.7-.5 6.6-1.5 9-2 .5-.2.7-1 1-1.2 0 0 0-.3-.2-.3 0-.3-1 0-1.2 0-.3-1-1-2-1.5-2.5-.7-.7-2-1.4-3.2-1.4zm-26 15c0 .3 0 .3.3.3h6.8s.2 0 .2-.2c.2-.2.2-.5.2-.8s0-.5-.2-.5h-1.6c-.3 0-.6-.3-.6-2.4v-2.8c0-.5 0-.7.3-.7l1 .7 5 5c.3.4 0 .5-1 .7v.5l.2.5h5.1c.7.2 1.5.2 2 .2v-.3-.8c-2-.3-2.3-.6-4-2.3l-5-5c-.5-.6-.4-.7 0-1l4.2-3.4c1-.6 2-1 3-1.2.4 0 .5 0 .6-.3.2-.2.2-.4.2-.7h-.2c-2 0-4.7 0-6.7.2 0 0-.2 0-.3.3v1h1c.4 0 .7.2.4.5l-4.4 4c-.5.5-1 .7-1 .7-.2 0-.3 0-.3-.5l.2-11.8V238c0-.6-.2-.8-.6-.6-.4 0-4 1.6-4.2 1.8 0 .2 0 .5.2.7.2 0 .6.4 1 .8.4.3.5.6.6 1.8v9.8c0 5.7 0 9-.4 10-.2.4-.5.5-1.6.7-.2.2-.3.3-.3.5v.6zm-10-1.3c-1.3 0-1.7-.8-1.7-2 0-.8.2-1 .4-1.2 1-.7 2.3-1 4.5-1.5 0 0 .2.2.2.5l-.2 2.4c0 .4-.4.6-1 1-.8.4-1.8.7-2.2.7zm-1.4-9.6c.4 0 .4 0 .4-.3 0-1.3 0-1.5.2-1.7l1.6-.2c.8 0 1.8.3 2 .6.4.3.7 1.2.7 2.8v2.7c-2.4.3-4.7 1-6.7 2-1 .5-1.6 1-1.6 2 0 1.4.6 2.4 1 2.8 1 .7 1.7.8 2.2.8.4 0 3.3-1.2 4.7-2 .3 1.7 1 2 1.6 2 1.3 0 3.8-.6 4.2-.8.2 0 .2-.3.2-.4v-.7s0-.5-.3-.4c0 0-1.2.5-1.8.5-.6 0-1-.7-1-2.7v-7.8c0-.4 0-1-.6-1.8-.6-.7-1.5-1.4-3-1.4-.7 0-1.4.2-2.2.5-1 .3-3.7 2-4.5 3-.2.3-.3.6-.3 1 0 0 .3.4.5.4s.4 0 .7-.2l2-.7zm-15.2 10.3c0-.2 0-.3-.2-.3-2-.3-2-.3-2-1-.2-1.3-.3-6.4-.2-8.6 0-.4 0-.5.3-.7 1-.6 2.2-1 3.3-1 1.3 0 2 .2 2.5 1 .5.6 1 1.8 1 5 0 .8 0 3.5-.3 5 0 .5-.5.8-1 1v.8h6.4l.3-1-.3-.2c-1.6-.3-2-.4-2.3-.8-.2-.2-.2-.6-.2-2V255c-.2-3.3-1-4-1.5-4.7-.7-.6-1.7-1-2.3-1-1 0-1.6.3-2.3.6-1 .3-1.7.8-3.8 2-1-1.6-2.2-2.7-4.3-2.7-.5 0-1 0-1.4.3-1.3.6-3.2 2-4.2 2.5v-2.7c0-.3 0-.4-.3-.4l-.5.2c-.5.2-1.7 1-3.7 2.5 0 0 0 .6.2.7 0 0 0 .2.7.3.8 0 1 .2 1 .8v8.7c0 .5-.3.6-.6.7l-1 .4v1l3.2-.2h3.3v-1l-.2-.2c-1.7 0-1.8-.3-1.8-4.5v-4.8c0-.3.3-.6.5-.8 1.4-1 2.6-1.4 3.5-1.4 1.2 0 2 .5 2.6 1 .5.5.6 1 .6 2.7 0 3.8 0 5.8-.2 7 0 .4-.2.6-1.7 1v.2c-.2.2-.2.7-.2.8h7.3v-1zM-13.2 205c1.3 0 2.5.5 3.3 1.2 1.7 1.4 2.3 4 2.3 6.2 0 2.3-.8 3.7-1.6 4.5-.5.4-1.4.6-2 .6-.8 0-2-.4-3.4-1.8-1-1-2-2.6-2-5 0-2.5.5-4 1.6-5 .4-.6 1-1 1.8-1zm1.7-1.6c-1.2 0-3 .6-4.3 1.2-1 .6-1.8 1.2-2.6 2.2-1 1.2-1.5 3-1.5 4.6 0 1.3.6 3.3 1.7 4.8 1.4 2 4.4 2.8 5.8 2.8 1.6 0 3.4-.6 5-1.7.6-.3 3-2.3 3-6.2 0-5-4.3-7.6-7-7.6zM-27 201s-.3 0-.4.3l-4.6 4.4s0 .4.2.4 1 0 1.5.2c.2 0 .4.2.4.5v8.4c-.2 1.5 0 2.2.5 2.8.8 1 2.2 1.2 2.8 1.2 2 0 3.3-.8 4.8-1.6.2 0 .4-.3.4-.4 0-.3 0-.5-.2-.8h-.3c-1 .6-1.5.8-2.5.8-1.7 0-2.8-1-2.8-2.6v-7.7c0-.5.2-.6.3-.6h5c.2 0 .4 0 .5-.3.2-.6.2-1 .2-1.3 0-.3 0-.4-.4-.4H-27v-2.7-.2zm-24.5 4.3c1.5 0 3 .4 4 1.2.6.3.6.5.7 1 .2 1.2.2 6 0 7.7 0 .3 0 .4-.5.6-.6.4-2.3.8-3 .8-1 0-2 0-3.2-1-2-1.8-2-4.5-2-5.5 0-1.4.6-2.8 1.3-3.5.8-.8 2-1.2 2.7-1.2zm-7 7c0 1.5.7 3.6 2.2 5 1 .8 2.4 1.7 4 1.7.4 0 2.7-1 5.6-2.3v2c.2.3.5.7.8.7.5 0 3.5-.7 4.7-1 .2 0 .4-.2.4-.5v-1.2h-.5c-.4.2-1.3.5-1.7.5-.2 0-.4 0-.5-.6-.2-1-.2-2.8-.2-4V208l.3-15.6c0-.3 0-.5-.3-.6h-.5c-1.4 1-2.6 1.6-4.4 2.3v.6c0 .2.2.3.4.4 1.8.2 1.8.4 2 1v7.7c0 .2-.4.3-.5.3-.6-.2-2-.4-2.8-.4-1.8 0-4.5 1.4-5.8 2.6-2.2 2-2.8 4.2-2.8 6zm-6-4.5c0 .4 0 .5-.3.6-1.7.4-3.5.7-5.2 1.2 0-1.6.5-3.5 1.6-4.3l1-.4c1.6 0 3 1.7 3 2.8zm-1.6-4.3c-1.2 0-2.5.5-3.5 1.2-2 1.5-4 4-4 7.4 0 2.5 1 4.2 1.7 4.8.5.6 2.2 2.2 5 2.2.3 0 .8 0 1.3-.2 1.2-.4 3-1.2 4.7-2.5.2-.3.3-.5.3-1.4 0-.3-.4-.3-.6 0-1.4 1-3 1.8-4.6 1.8-2.5 0-4.5-1.6-4.7-5.4 0-.4 0-.6.3-.6 1.6-.5 6.5-1.5 9-2 .5-.2.7-1 1-1.2 0 0 0-.3-.2-.3 0-.2-1 0-1.2 0-.3-1-1-1.8-1.5-2.4-.6-.8-2-1.5-3-1.5zm-13.4 4.3c0 .4-.2.5-.5.6l-5 1.2c-.2-1.6.5-3.5 1.6-4.3.3-.2.7-.4 1-.4 1.5 0 3 1.7 3 2.8zm-1.8-4.3c-1 0-2.4.5-3.3 1.2-2 1.5-4 4-4 7.4 0 2.5 1 4.2 1.7 4.8.4.6 2 2.2 4.8 2.2.4 0 1 0 1.4-.2 1.3-.4 3-1.2 4.7-2.5.3-.3.4-.5.5-1.4 0-.3-.5-.3-.6 0-1.4 1-3 1.8-4.7 1.8-2.5 0-4.5-1.6-4.6-5.4 0-.4 0-.6.3-.6 1.6-.5 6.5-1.5 9-2 .4-.2.7-1 .8-1.2v-.3c-.2-.2-1 0-1.2 0-.4-1-1-1.8-1.6-2.4-.6-.8-2-1.5-3-1.5h-.2zm-26.4 15v.3l3.6-.2h3.2l.2-.8c0-.2 0-.2-.2-.3-2-.3-2-.4-2-1V208c0-.4 0-.6.4-1 1-.4 2.3-1 3.2-1 1 0 2 .4 2.6 1 .8 1 1 2 1 4 0 2.8-.2 4.3-.3 5.4 0 1-.5 1.4-1.6 1.7l.2.7c0 .2.2.2.4.2 1.5 0 2.6-.3 6-.3.2 0 .2 0 .3-.2l.2-1s0-.3-.2-.3l-2 .2c-.2 0-.2 0-.2-.4v-5.3-3.3c-.2-1.7-.7-3-1.7-3.8-.7-.6-1.5-.8-2.6-.8-.7 0-1.5.2-2 .5l-3.4 1.7c-.2 0-.2 0-.2-.3v-2c0-.2-.2-.3-.4-.3h-.4c-.2.3-2 1.2-3.5 2-.2 0-.3 0-.3.2-.2.6 0 .6 0 .7 1.8.5 2 .6 2 1v3.5c0 2 0 4-.2 5.3 0 1-.6 1.4-1.8 1.8v.8zm-22.7-15l-4 1c-.3 0-.4 0-.3.5 0 .4.2.5.3.6 1.5.7 1.5 1 1.5 1.5v8c0 .7 0 1.7.4 2.3 1 1.4 2.2 1.8 3.5 1.8.8 0 1.7 0 2.5-.5l3.4-1.7-.2 1.6s0 .3.3.5h.6c.4 0 2.7-.7 4.6-.8.2 0 .3 0 .6-1.3 0-.3-.3-.5-.4-.5l-2 .5c-.2 0-.3 0-.3-.2v-6-4.8-1.7c0-.3-.2-.4-.6-.4l-4.8.3h-.2c0 .3 0 .8.2 1h.3c1.2.4 1.6.6 1.8 1 .3.4.4 1.3.4 4 0 1.7 0 3.4-.2 4.6 0 .4-.2.5-.4.7-1 .6-2.3 1.2-3.6 1.2-1.2 0-3-.8-3-2.6v-7.6l.2-2.7c0-.3-.2-.5-.5-.5zm-15.4 1.4c1.2 0 2.5.5 3.2 1.2 1.6 1.4 2.3 4 2.3 6.2 0 2.3-.8 3.7-1.7 4.5-.3.4-1.2.6-1.7.6-1 0-2.3-.4-3.6-1.8-1-1-2-2.6-2-5 0-2.5.6-4 1.6-5 .5-.6 1.3-1 2-1zm1.6-1.6c-1.2 0-3 .6-4.4 1.2-1 .6-1.8 1.2-2.5 2.2-1 1.2-1.5 3-1.5 4.6 0 1.3.5 3.3 1.6 4.8 1.6 2 4.5 2.8 6 2.8s3.3-.6 5-1.7c.5-.3 3-2.3 3-6.2 0-5-4.4-7.6-7-7.6zm-20-9.4v-.2h-1.5l-2.5.2-4.3-.2s-.2 0-.3.4v1h.3c1.4 0 1.8 0 2 .2.3.5 2.2 3 6.4 9.7.8 1.3 1 1.7 1 3v4c0 3.2 0 4.2-.4 4.6-.3.5-1.4.7-3 1h-.2v1h3.8l6 .2h.7l.3-1.3c-3.6-.3-3.8-.3-4-2v-7c0-2 0-2.2 1-3.4.5-1 3.2-4.8 6.2-8.3 1-1.2 1.4-1.7 3.4-1.7V194h-7.6s-.2 0-.2.3v1c1.8 0 2.3.3 2.3.5 0 .3-.4 1-1 1.8-.4 1-1.5 2.6-4.2 6.4-.4.4-.6.5-.7.4-.3 0-.5-.4-.7-.7-.4-.5-3.4-4.8-5-7.8-.2-.3 0-.6.4-.6s1 0 1.5-.2v-1-.2zM8.3 692.2c-.2 0-.5.3-.8.6-.2.2-.2.3-.2.5 0 1.5-.6 4.2-1.8 7-.2.3-.4.3-.4 0 0-2.6-.4-5.7-1.2-7-.3-.5-1-1-1.3-1-1 0-2 1.5-2.4 2.7 0 .3.5.6.7.4.4-1 .8-1.4 1.2-1.4.3 0 .5.4.8 1 1 2.5 1 6.6 1 7.3 0 .2 0 .5.2.8-1 3.2-2.8 4.4-5.6 4.6l-.2.3c0 .5.6 1 1.2 1 .5 0 1.4-.3 2-.6 1-.6 2.3-1.6 3-3.4.2-.7.5-1.8 1-2.8l2.2-4.6c.8-2 1.5-4 1.5-4.5 0-.4-.3-.8-.7-.8zm-9.5 8c-.7.5-1.5.8-1.7.8-.2 0-.4-.4-.2-1.7.4-3 1.4-8 2.2-12.2.2-1 0-1.6-.2-1.6-.3 0-2.8 1.7-3.3 2v.6l1.5-.6c.2 0 .4 0 .3.3l-.8 5c-.7 3.8-1.4 7.5-1.4 8.7 0 .5.3 1.6 1.3 1.6.2 0 2.3-1.7 2.5-2v-.7zm-9-6.2c1.2 0 1.4 1.5 1.4 2.3 0 2-1 4-2 4.5-.4.4-1 .6-1.5.6s-1.2 0-1.7-.5c-.2-.3-.3-.8-.3-1.4 0-1 .6-2 1.6-3.4.5-.5 2-2.2 2.6-2.2zm-3.5 9c.5 0 1.8-.3 2.3-.7 1.4-1 3-2.4 3.4-3.2.5-1 .8-2.3.8-3.6 0-1.6-.7-3-1.6-3-.4 0-1.3.4-2 1l-3 3c.4-3 1.8-10 2-10.5 0-.3-.3-.6-.4-.6-.3 0-2.8 1.4-3.5 1.8 0 0 0 .4.2.5l1.4-.4s.2 0-.2 2.5c-1.2 7-1.6 9.7-1.6 11 0 1 1 2 2 2zm-12.2-3.6c0-1.5.6-3 1.5-4.3.7-.8 1.6-1.3 2.6-1.3.7 0 1.3 0 1.6.2-.3 1.8-.6 2.7-1 3.4-.8 1.2-3 3.6-3.6 3.6-.6 0-1-.7-1-1.6zm.2 3.5l.5-.4 4.3-4.4c0 .7-.2 1.6-.7 4.4l.6.4c.3 0 2.7-2.6 3-3.2.2 0 0-.5 0-.6-.5.3-1.2 1-1.7 1.2-.2 0-.2-.4-.2-1.4.4-2 .7-4 1.5-6.7-.3 0-.7 0-1 .2h-2.8c-2 1.4-3 2.2-3.8 3.2-1 .8-1.6 2.7-1.6 4.3 0 .8.3 1.8.7 2.3.5.4 1 .6 1.2.6zm-6.7-9c1 0 1.2 1.5 1.2 2.3 0 2-1 4-1.8 4.5-.6.4-1.3.6-1.7.6-.5 0-1.2 0-1.7-.5-.2-.3-.3-.8-.3-1.4 0-1 .6-2 1.6-3.4.4-.5 2-2.2 2.5-2.2zm-3.6 9c.4 0 1.7-.3 2.2-.7 1.3-1 3-2.4 3.3-3.2.5-1 1-2.3 1-3.6 0-1.6-1-3-1.8-3-.3 0-1.3.4-2 1l-3 3c.4-3 1.8-10 2-10.5 0-.3-.3-.6-.4-.6l-3.4 1.8c-.2 0 0 .4 0 .5l1.5-.4c.2 0 .3 0-.2 2.5-1 7-1.6 9.7-1.6 11 0 1 1 2 2 2h.2zm-8.5-9.4c.7 0 1.2.3 1.5.6.4.4.7 1.2.7 2.4 0 1.8-.7 3.7-1.5 4.4-.4.3-1 .6-1.6.6-1.5 0-2-1.7-2-3 0-2.2.8-4 1.5-4.4.4-.3 1-.6 1.4-.6zm1-1.3c-.8 0-3.2 1.4-3.8 2-1 1-1.8 3-1.8 4.7 0 2 1 4 3 4l.7-.3c1.4-.6 3-1.6 3.7-2.7.6-.8 1-2.2 1-3.8 0-2.2-1.4-4-3-4zm-11.7 0c-.4 0-2.5 2.2-3 2.7 0 0 .4.3.5.2l1.4-.8c.3 0 .5 0 .4.4 0 2.7-.8 5.8-1.2 7.7l.2.4c.5 0 1.2-.3 1.4-.5l1-4.8c.5-1.2 1.7-3.5 3-3.5.5 0 .8.2 1 .3h.4c.3-.2.3-1 .3-1.4 0-.5-.7-.8-1-.8-.5 0-1 .2-1.2.3-.4.4-2 3-2.3 3.4 0 0-.2 0-.2-.2l.2-2.5c0-.4-.2-1-.6-1h-.2zm-7.6 1.8c.8 0 1.3 1.2 1.3 2.5 0 2.2-1.2 3.7-1.7 4-.4.5-1.3 1-2.3 1-.8 0-1.4 0-1.7-.3.4-2.4.6-3 1-3.6.6-1 3-3.5 3.4-3.5zm-3 14.2c.2 0 0-.2 0-.2-2-.2-2.3-.3-2.3-1 0-.6 0-1.5.5-4 1.2 0 2.2 0 3-.5.7-.6 2.7-2 3.3-2.7.6-.8 1.3-2 1.3-4s-.8-3.5-2-3.5c-.4 0-3 2.6-4.3 4-.2.3-.4.3-.3 0 .3-2.7.6-4 .7-4.4v-.4c-.2-.3-.3-.2-.6 0l-3 3c-.2.2-.2.4-.2 1 0 .2 0 .2.2 0l1.8-1.8c.2 0 .2.3 0 1.6-.4 3.4-1.6 10.7-2 11.7-.2.8-.4 1-2 1 0 .4-.4.8-.2.8 1 0 3-.2 6 0l.3-.6zM-80 699c-.5 0-1.4.5-1.4 1l.4.4c.2.2.6.7.6 1.3 0 1-1 1.8-1.8 2.4l-.3.5c0 .2 0 .3.3.2 2-.5 3.6-1.8 3.5-3.7 0-1.4-1-2-1.3-2zm-11.2 2c-.6 0-1-1-1-2.2 0-1.7.7-3.2 1.6-4 .7-.8 1.5-1.2 2.4-1.2 1 0 1.5.2 1.8.4 0 .7-.3 2.5-.6 3-1.4 2-3.5 4-4.2 4zm-.6 2l.4-.4 4.4-4-.5 3.6c0 .4.2 1 .5 1 .6 0 3-2.4 3.4-3 0-.6 0-.8-.2-.7-.4.3-1 1-1.5 1-.4.4-.5.2-.2-2.5.5-4.3 1.3-8.2 1.5-9.7.4-2 .4-2.7 0-2.7-.6 0-2.7.7-3.5 1.2l.3.4h1.4c.2 0 .4 0 .4.3 0 .8-.4 3.2-.7 5l-1.5-.2c-.5 0-.8 0-1.2.3-1.7.8-3.6 2-4.5 4.2-.4.8-.7 1.7-.7 2.7 0 2 1 3.4 2 3.4h.2zm-11.7-3.6c0-1.5.4-3 1.4-4.3.6-.8 1.5-1.3 2.5-1.3.5 0 1.2 0 1.5.2-.3 1.8-.6 2.7-1 3.4-.8 1.2-3 3.6-3.6 3.6-.6 0-1-.7-1-1.6zm0 3.5c.2 0 .4-.2.6-.4l4.4-4.4c0 .7-.2 1.6-.8 4.4l.7.4c.4 0 2.8-2.6 3.2-3.2 0 0 0-.5-.2-.6-.4.3-1 1-1.6 1.2-.2 0-.3-.4-.2-1.4.3-2 .6-4 1.4-6.7-.4 0-.8 0-1.2.2h-2.7c-2 1.4-3 2.2-3.7 3.2-.8.8-1.5 2.7-1.5 4.3 0 .8.3 1.8.7 2.3.4.4.8.6 1 .6zm-11-2c-.5 0-1-1-1-2.2 0-1.7 1-3.2 1.7-4 .7-.8 1.5-1.2 2.5-1.2.8 0 1.4.2 1.7.4 0 .7-.3 2.5-.6 3-1.4 2-3.5 4-4.2 4zm-.5 2l.4-.4 4.4-4-.5 3.6c0 .4.2 1 .5 1 .6 0 3-2.4 3.4-3 0-.6 0-.8-.2-.7-.4.3-1 1-1.5 1-.4.4-.5.2-.2-2.5.6-4.3 1.3-8.2 1.6-9.7.2-2 .2-2.7-.2-2.7-.6 0-2.6.7-3.5 1.2l.3.4h1.4c.2 0 .4 0 .4.3 0 .8-.4 3.2-.7 5l-1.4-.2c-.5 0-.8 0-1.2.3-1.5.8-3.4 2-4.4 4.2-.4.8-.6 1.7-.6 2.7 0 2 1 3.4 2 3.4zm-10.4-10.8c-.2 0-.5.3-.8.6-.2.2-.2.3-.2.5 0 1.5-.6 4.2-1.8 7-.2.3-.4.3-.4 0-.2-2.6-.5-5.7-1.3-7-.2-.5-.8-1-1.2-1-1 0-2 1.5-2.4 2.7 0 .3.4.6.6.4.4-1 .8-1.4 1.2-1.4s.6.4 1 1c1 2.5 1 6.6.8 7.3 0 .2 0 .5.3.8-1 3.2-2.8 4.4-5.6 4.6l-.2.3c0 .5.6 1 1.2 1 .5 0 1.4-.3 2-.6 1-.6 2.3-1.6 3-3.4.2-.7.5-1.8 1-2.8l2.2-4.6c.7-2 1.4-4 1.4-4.5 0-.4-.4-.8-.8-.8zm-17.2 0c-1 0-1.5.3-2 .8-.7.4-2 1.6-3.4 3.2-.4.5-.6.6-.6.4l.7-3.3c.2-.3-.2-1-.4-1-.3 0-2.7 2-3.3 2.7l.2.6c.2 0 1-.7 1.5-1 .2 0 .4 0 .3.4-.2 2.5-1.2 5.6-1.6 7.5 0 .2 0 .4.2.4 0 0 1-.3 1-.5.6-1.7 1.2-3.6 2-4.8 1.4-2.2 3-3.8 3.7-3.8.3 0 .5.2.5 1 0 1.4-1 5.2-1.4 6.4-.3.8-.4 1.2-.3 1.3l1 .2c.3 0 .5-.2.5-.7l1.2-3.2c.7-1.5 3.6-5 4.6-5 .3 0 .5.2.5 1 0 2.2-1 5.7-1.5 7.4 0 .2.3.6.5.6.4 0 2.6-1.6 3.7-3 0-.3 0-.7-.2-.6l-1.7 1.2s-.2 0 0-.2l1-6.4c0-.7-.5-1.7-1.2-1.7s-4.2 3.2-5 4.4l-.5.2.6-3.8c0-.5-.2-1-.6-1zm-35.2 4.4c-.2 0-.3.4-.4 1 0 0 0 .3.2.3h18s.2-1.4 0-1.4h-17.8z"/>
  </g>
</svg>
