<svg xmlns="http://www.w3.org/2000/svg" viewBox="0 0 900 900"><style>.st0{fill:#FFFFFF;} .st1{fill:#353333;} .st2{fill:#B2814B;} .st3{fill:#C9502B;} .st4{fill:none;stroke:#000000;stroke-width:5;stroke-linecap:round;stroke-miterlimit:10;} .st5{fill:none;stroke:#000000;stroke-width:4;stroke-linecap:round;stroke-linejoin:round;stroke-miterlimit:10;} .st6{fill:none;stroke:#000000;stroke-width:5;stroke-linecap:round;stroke-linejoin:round;stroke-miterlimit:10;} .st7{fill:none;stroke:#000000;stroke-width:8;stroke-linecap:round;stroke-linejoin:round;stroke-miterlimit:10;} .shapes &gt; * { opacity: 0; animation-duration: 0.5s; animation-iteration-count: infinite; animation-timing-function: steps(1); } /* timing out 3 frames and 3 corresponding layers */ @keyframes lines1 { 0% { opacity: 1; } 33.33333% { opacity: 0; } } .shapes &gt; :nth-child(1) { animation-name: lines1; } @keyframes lines2 { 33.33333% { opacity: 1; } 66.66667% { opacity: 0; } } .shapes &gt; :nth-child(2) { animation-name: lines2; } @keyframes lines3 { 66.66667% { opacity: 1; } 100% { opacity: 0; } } .shapes &gt; :nth-child(3) { animation-name: lines3; }</style><g id="colours"><path class="st0" d="M238 916l.333-131.667s-5.333-38 22.667-56.667l-6-13.333-55.333-82.667 14-68-33.333-107.333 4-80S199 261 245.667 181.666 329.667 41 475 53.666c0 0 120-19.332 195.333 76.668s38 232.667 38 232.667l-2 157.334s37.333 123.333 11.333 200-27.333 72-27.333 72L689.667 941 238 916z"/><path class="st1" d="M681.255 1029.064H242.24c-6.6 0-12-5.4-12-12V782.56c0-6.6 5.4-12 12-12h439.015c6.6 0 12 5.4 12 12v234.503c0 6.6-5.4 12-12 12z"/><path class="st2" d="M422.023 102.59s-6.56 102.787 193.547 183.704c0 0-4.374 130.125 15.31 178.238l-31.712 37.178s2.153 102.608-10.935 133.405c-17.233 40.552-43.9 103.218-43.9 103.218C505.667 835 537.907 981.576 553 963c39-48 137.98-111.765 165.357-240.405C737 635 716.285 557.055 712.89 532.328 709 504 734.76 402.204 705.235 350.81c0 0 51.394-271.184-202.295-301.802 0 0-48.113-2.187-55.768 14.215 0 0-155.275-26.244-197.92 112.63s-95.134 220.883-63.423 333.512c0 0 27.336 47.02 13.12 107.16C184.738 676.67 287.297 778.116 392 739c31.61-11.808-142.748 17.493-69.484-37.182 73.263-54.674-17.496-188.08-17.496-188.08s-40.46-39.364-40.46-65.608-8.747-139.966-8.747-139.966 155.275-51.394 166.21-205.575z"/><path class="st3" d="M300.646 508.272s-30.618 6.56-4.374 41.552c0 0-50.3 49.207 4.374 72.17 0 0-50.3 52.487 31.71 80.918 0 0-98.413 37.178-73.262 226.35 10.942 82.304 104.314 68.033 171.18-9.766 86.83-101.023 150.305-287.66 150.305-287.66s30.617-20.776 13.12-30.618c0 0 30.62-27.337 6.562-69.983 0 0 19.683-13.122-2.187-38.272 0 0-199.015 62.33-297.43 15.31z"/><path class="st2" d="M616.663 384.708l12.028 77.637 43.74-40.46 6.562-197.92z"/><path class="st0" d="M657.67 390.722s7.255 27.834 20.36-12.888c36.5-113.41-14.347-54.35-14.347-54.35l-6.014 67.238z"/><path class="st4" d="M260.554 729.076S234 743 239 784"/></g><g class="shapes"><g id="lines1"><path class="st5" d="M300.854 507.823c-.01-.01-.044-.01-.044-.022-1.575-1.75-3.62-3.804-5.107-5.652-9.286-9.732-24.352-25.356-31.984-49.708M658.358 264.293c0 .01.17.033.17.044 3.51 17.31 5.472 35.352 5.472 53.887v5.379c0 12.225-1 24.144-3 35.724v.142c0 .568.04 1.136-.058 1.705-2.045 11.45-3.583 22.548-6.437 33.253-.01.033.05.055.04.087-4.112 15.385-9.734 29.94-16.83 43.51-10.006 19.158-23.087 38.544-39.642 53.34"/><path class="st6" d="M595.447 322.22c.558 8.692-16.837 14.28-16.837 14.28H552M522 336.5h-37M553.81 345.42c0 10.805-7.622 19.524-17.037 19.524s-17.047-8.7-17.047-19.504c0-3.248.69-5.94 1.914-8.94h30.257c1.224 3 1.913 5.673 1.913 8.92zM551.896 336.5H521.64c2.83-6 8.55-10.552 15.133-10.552 6.583 0 12.29 4.552 15.123 10.552zM283.314 316.804c3.805 12.52 12.86 14.696 12.86 14.696H329M375 331.5h-21"/><path class="st6" d="M355.692 340.44c0 10.803-6.397 19.52-14.292 19.52s-14.292-8.702-14.292-19.506c0-3.248.58-6.954 1.607-8.954h25.37c1.028 2 1.607 5.69 1.607 8.94z"/><path class="st6" d="M354.085 331.5h-25.37c2.374-6 7.163-10.552 12.686-10.552s10.312 4.552 12.685 10.552zM341.403 452.44l195.37-6.208M656.575 393.456c17.46 17.435 21.456-15.62 21.456-15.62 34.63-105.544-14.293-57.427-14.293-57.427"/><path class="st6" d="M423.867 127.74s7.872 83.124 129.947 134.723c115.883 48.98 109.88 63.326 109.88 63.326M553.814 154.437S678.266 265.86 681.106 309.615"/><path class="st6" d="M663.737 320.408s-17.574 115.332 12.97 211.556c19.074 60.093-10.522 89.57-11.56 139.237"/><path class="st6" d="M641 838s37.298-39.808 63-88c48-90 9.876-183.325-5.274-239.2-15.15-55.876 8.515-131.38 12.53-170.422C744.155 20.38 474.725 53.86 474.725 53.86l-39.53 33.48"/><path class="st6" d="M446.49 52.858S211.34 26.05 230.817 340.378c3.06 49.37-17.854 127.068 6.492 197.84s33.143 97.24 23.156 127.793c-7.502 22.953-19.412 52.568 25.586 85.567"/><path class="st6" d="M415.85 100.547S340.135 274.37 249.768 312.24s13.897 123.912 13.897 123.912"/><path class="st7" d="M485.548 288.7l68.266-10.117 24.797 5.15M375.172 283.733l-57.445-10.116-23.714 7.633"/><path class="st6" d="M708.37 359.933s28.413 81.857-5.764 168.62C668.43 615.312 719.45 725.61 719.45 725.61M579 868.333c37.667-68.667-11.333-104.667-11.333-162.667 0-34.628 5.833-49.906 15.833-77.56V629M260.472 810.04c4.735-53.492 42.406-77.268 72.88-107.908M300.977 507.79s91.51 33.676 297.11-16.424c0 0 54.42 51.615-112.54 80.276-166.957 28.66-230.63-42.028-184.57-63.852z"/><path class="st6" d="M296.177 550.262s-71.42 90.95 103.884 86.587c175.304-4.365 219.23-13.56 199.432-108.297"/><path class="st6" d="M303.468 621.97s-83.04 136.197 182.08 56.593c0 0 122.366-39.995 108.796-79.045M485.548 366.142l68.266 21.73M376.805 366.142l-58.17 16.764M616.96 290.7s-9.877 114.806 21.937 208.46C672.577 598.3 597 591 643 709c8.837 22.67 18.687 48.872-10 96-42 69-11 141-11 141"/><path class="st6" d="M260.467 307.1s8.657 102.71 0 177.417c-8.657 74.708-76.71 107.532 3.848 219.013"/><path class="st6" d="M270.444 137.1s-105.227 157.182-85.707 328.798c6.56 57.682 32.532 80.924 25.13 122.603-3.665 20.628-34.97 54.737 3.05 95.823"/></g><g id="lines2"><path class="st5" d="M300.854 507.823c-.01-.01-.044-.01-.044-.022-1.575-1.75-26.81-18.05-33.81-49.467M664.333 267c3.51 17.31-.333 53.04-.333 53.597v.098s-1 27.053-3 38.633v.142c0 .57.04 1.137-.058 1.706-2.045 11.45-3.583 22.548-6.437 33.253-.01.032.05.054.04.086-4.11 15.386-6.448 32.914-13.545 46.484-10.005 19.158-26.37 35.57-42.927 50.365"/><path class="st6" d="M595.447 322.22c.558 8.692-16.837 14.28-16.837 14.28H552M522 336.5h-37M553.81 345.42c0 10.805-7.622 19.524-17.037 19.524s-17.047-8.7-17.047-19.504c0-3.248.69-5.94 1.914-8.94h30.257c1.224 3 1.913 5.673 1.913 8.92zM551.896 336.5H521.64c2.83-6 8.55-10.552 15.133-10.552 6.583 0 12.29 4.552 15.123 10.552zM283.314 316.804c3.805 12.52 12.86 14.696 12.86 14.696H329M375 331.5h-21"/><path class="st6" d="M355.692 340.44c0 10.803-6.397 19.52-14.292 19.52s-14.292-8.702-14.292-19.506c0-3.248.58-6.954 1.607-8.954h25.37c1.028 2 1.607 5.69 1.607 8.94z"/><path class="st6" d="M354.085 331.5h-25.37c2.374-6 7.163-10.552 12.686-10.552s10.312 4.552 12.685 10.552zM341.403 452.44l195.37-6.208M656.575 393.456C674.035 410.89 675 374.333 675 374.333c34.628-105.543-10.263-54.925-10.263-54.925"/><path class="st6" d="M427.053 120.276S435.243 202.65 557 255c103.5 44.5 111 60.75 111 60.75M553.814 154.437S679 253.667 681.106 309.615M664 321.75s-22.21 115.693 8.333 211.917c19.074 60.093-6.667 90.667-4 140.667"/><path class="st6" d="M652.333 842.333S671 797 704 750c58.612-83.478 4.816-181.79-10.333-237.667-15.15-55.876 13.82-132.888 17.588-171.956C740.333 39 474.727 53.86 474.727 53.86l-39.06 38.473"/><path class="st6" d="M446.49 52.858S195 23.668 241 343.668c7.038 48.96-27.48 123.59-3.69 194.55C254.333 589 264.32 630.45 254.333 661c-7.502 22.952-14.998 52.335 30 85.333"/><path class="st6" d="M415.667 111s-48 143.333-165.9 201.24c-71.332 35.037 13.897 123.912 13.897 123.912"/><path class="st7" d="M485.548 288.7l68.266-10.117 24.797 5.15M375.172 283.733l-57.445-10.116-23.714 7.633"/><path class="st6" d="M708.37 359.933s17.68 78.96-8.703 168.4C672.333 621 719.667 737 719.667 737M581.667 874.333C619.333 805.667 564.333 767 564.333 709c0-34.628 3.333-39.68 13.333-67.333M257 807.667c4.735-53.493 38-64.667 63.333-103.333M300.977 507.79S391 551 598.087 491.366c0 0 56.912 69.635-112.54 80.276-169.067 10.618-230.63-42.028-184.57-63.852z"/><path class="st6" d="M295 543s-70.243 98.213 105.06 93.85c175.304-4.365 222.073-7.112 202.274-101.85"/><path class="st6" d="M303.468 621.97s-80.92 141.967 184.2 62.363c0 0 128.666-37.333 106.677-84.816M485.548 366.142l68.266 21.73M376.805 366.142l-57.17 16.764M617 283.667S604.588 406.39 638.897 499.16C681 613 597 591 643 709c8.837 22.67 12.02 50.205-16.667 97.333C584.333 875.333 622 946 622 946"/><path class="st6" d="M260.467 307.1s11.857 106.525 3.2 181.233-79.91 103.716.648 215.197"/><path class="st6" d="M259.667 150.333s-99.52 145.05-80 316.667c6.56 57.682 37.602 79.823 30.2 121.5C206.2 609.13 184.98 652.916 223 694"/></g><g id="lines3"><path class="st5" d="M300.854 507.823c-.01-.01-.044-.01-.044-.022-1.575-1.75-26.81-18.05-33.81-49.467M664.333 267c3.51 17.31-.333 53.04-.333 53.597v.098s-1 27.053-3 38.633v.142c0 .57.04 1.137-.058 1.706-2.045 11.45-3.583 22.548-6.437 33.253-.01.032.05.054.04.086-4.11 15.386-6.448 32.914-13.545 46.484-10.005 19.158-26.37 35.57-42.927 50.365"/><path class="st6" d="M595.447 322.22c.558 8.692-16.837 14.28-16.837 14.28H552M522 336.5h-37M553.81 345.42c0 10.805-7.622 19.524-17.037 19.524s-17.047-8.7-17.047-19.504c0-3.248.69-5.94 1.914-8.94h30.257c1.224 3 1.913 5.673 1.913 8.92zM551.896 336.5H521.64c2.83-6 8.55-10.552 15.133-10.552 6.583 0 12.29 4.552 15.123 10.552zM283.314 316.804c3.805 12.52 12.86 14.696 12.86 14.696H329M375 331.5h-21"/><path class="st6" d="M355.692 340.44c0 10.803-6.397 19.52-14.292 19.52s-14.292-8.702-14.292-19.506c0-3.248.58-6.954 1.607-8.954h25.37c1.028 2 1.607 5.69 1.607 8.94z"/><path class="st6" d="M354.085 331.5h-25.37c2.374-6 7.163-10.552 12.686-10.552s10.312 4.552 12.685 10.552zM341.403 452.44l195.37-6.208M656.575 393.456C674.035 410.89 675 374.333 675 374.333c34.628-105.543-10.263-54.925-10.263-54.925"/><path class="st6" d="M428.333 115S427.666 206.333 557 255c104.65 39.378 111 60.75 111 60.75M549 159s128.894 90.052 131 146M664 321.75s-17.543 115.693 13 211.917c19.074 60.093-9.333 90.667-6.667 140.667"/><path class="st6" d="M664.333 834.333S671 797 704 750c58.612-83.478 4.816-168.458-10.333-224.333-15.15-55.876 13.8-146.223 17.588-185.29C739 54.334 474.727 53.86 474.727 53.86L431 91.667"/><path class="st6" d="M445.667 58.333S206.334 4.333 245 343c5.61 49.146-38.79 123.038-15 194 17.024 50.782 34.32 93.447 24.333 124-7.502 22.952-14.998 52.335 30 85.333"/><path class="st6" d="M415.667 111s-50.99 137.606-165.9 201.24C187 347 263.664 436.153 263.664 436.153M711 343s15.05 95.892-11.333 185.333C672.333 621 719.667 737 719.667 737M581.667 874.333c30-80.667-6.667-108.667-17.333-165.333-6.406-34.03 3.333-39.68 13.333-67.333M257 807.667c4.735-53.493 32.667-78 61-107.667M300.977 507.79S392 536 598.087 491.366c0 0 65.364 73.993-104.088 84.635-169.068 10.618-239.082-46.386-193.023-68.21z"/><path class="st6" d="M295 543s-68.303 102.364 107 98 220.133-11.263 200.333-106"/><path class="st6" d="M303.468 621.97S212 749 487.668 684.332c0 0 130.32-29.85 108.332-77.333M485.548 366.142l68.266 21.73M376.805 366.142l-57.17 16.764"/><path class="st6" d="M613 281s-18.667 106 25.897 218.16c44.818 112.798-47.23 91.173-1.23 209.173 8.836 22.67 10.686 50.872-18 98C577.666 875.333 622 946 622 946M260.467 307.1S267.657 415.29 259 490c-8.657 74.708-71.558 101.52 9 213"/><path class="st6" d="M250.333 168.333s-88.333 145-72.667 300c5.84 57.76 43.737 81.99 36.334 123.667-3.664 20.627-33.687 61.915 4.333 103"/><path class="st7" d="M485.548 288.7l68.266-10.117 24.797 5.15M375.172 283.733l-57.445-10.116-23.714 7.633"/></g></g></svg>