<?xml version="1.0" encoding="utf-8"?>
<!-- Generator: Adobe Illustrator 19.1.0, SVG Export Plug-In . SVG Version: 6.00 Build 0)  -->
<svg version="1.1" xmlns="http://www.w3.org/2000/svg" xmlns:xlink="http://www.w3.org/1999/xlink" x="0px" y="0px"
	 viewBox="0 0 900 900" style="enable-background:new 0 0 900 900;" xml:space="preserve">
<style type="text/css">
	.st0{fill:#FFFFFF;}
	.st1{fill:#353333;}
	.st2{fill:#B2814B;}
	.st3{fill:#C9502B;}
	.st4{fill:none;stroke:#000000;stroke-width:5;stroke-linecap:round;stroke-miterlimit:10;}
	.st5{fill:none;stroke:#000000;stroke-width:4;stroke-linecap:round;stroke-linejoin:round;stroke-miterlimit:10;}
	.st6{fill:none;stroke:#000000;stroke-width:5;stroke-linecap:round;stroke-linejoin:round;stroke-miterlimit:10;}
	.st7{fill:none;stroke:#000000;stroke-width:8;stroke-linecap:round;stroke-linejoin:round;stroke-miterlimit:10;}
	.st8{display:none;}
	.st9{display:inline;fill:none;stroke:#000000;stroke-width:4;stroke-linecap:round;stroke-linejoin:round;stroke-miterlimit:10;}
	.st10{display:inline;fill:none;stroke:#000000;stroke-width:5;stroke-linecap:round;stroke-linejoin:round;stroke-miterlimit:10;}
	.st11{display:inline;fill:none;stroke:#000000;stroke-width:8;stroke-linecap:round;stroke-linejoin:round;stroke-miterlimit:10;}
</style>
<g id="colours">
	<path class="st0" d="M238,916l0.333-131.667c0,0-5.333-38,22.667-56.667l-6-13.333l-55.333-82.667l14-68l-33.333-107.333l4-80
		c0,0,14.667-115.333,61.333-194.667S329.667,41,475,53.667c0,0,120-19.333,195.333,76.667s38,232.667,38,232.667l-2,157.333
		c0,0,37.333,123.333,11.333,200s-27.333,72-27.333,72L689.667,941L238,916z"/>
	<path class="st1" d="M681.255,1029.064H242.241c-6.6,0-12-5.4-12-12V782.561c0-6.6,5.4-12,12-12h439.014c6.6,0,12,5.4,12,12
		v234.502C693.255,1023.664,687.855,1029.064,681.255,1029.064z"/>
	<path class="st2" d="M422.023,102.589c0,0-6.561,102.788,193.547,183.705c0,0-4.374,130.125,15.309,178.238l-31.711,37.178
		c0,0,2.153,102.608-10.935,133.405C571,675.667,544.333,738.333,544.333,738.333C505.667,835,537.907,981.576,553,963
		c39-48,137.979-111.765,165.357-240.405C737,635,716.285,557.056,712.89,532.328C709,504,734.759,402.204,705.235,350.81
		c0,0,51.394-271.184-202.295-301.802c0,0-48.113-2.187-55.768,14.215c0,0-155.275-26.244-197.921,112.629
		s-95.133,220.884-63.422,333.513c0,0,27.337,47.02,13.122,107.161C184.737,676.668,287.296,778.114,392,739
		c31.61-11.808-142.748,17.493-69.484-37.182c73.263-54.674-17.496-188.079-17.496-188.079s-40.459-39.365-40.459-65.609
		s-8.748-139.966-8.748-139.966S411.088,256.77,422.023,102.589z"/>
	<path class="st3" d="M300.646,508.272c0,0-30.618,6.561-4.374,41.552c0,0-50.3,49.207,4.374,72.17c0,0-50.3,52.487,31.711,80.918
		c0,0-98.414,37.178-73.263,226.351c10.942,82.303,104.314,68.032,171.181-9.767c86.828-101.023,150.304-287.66,150.304-287.66
		s30.618-20.776,13.122-30.618c0,0,30.618-27.337,6.561-69.983c0,0,19.683-13.122-2.187-38.272
		C598.074,492.963,399.06,555.292,300.646,508.272z"/>
	<polygon class="st2" points="616.663,384.708 628.691,462.345 672.431,421.886 678.992,223.966 	"/>
	<path class="st0" d="M657.669,390.722c0,0,7.256,27.834,20.362-12.888c36.499-113.41-14.348-54.351-14.348-54.351L657.669,390.722z
		"/>
	<path class="st4" d="M260.554,729.076c0,0-26.554,13.924-21.554,54.924"/>
</g>
<g id="lines1">
	<path class="st5" d="M263.654,436.145"/>
	<path class="st5" d="M263.468,437.195L263.468,437.195"/>
	<path class="st5" d="M263.468,438.65"/>
	<path class="st5" d="M300.854,507.823c-0.011-0.011-0.044-0.011-0.044-0.022c-1.575-1.75-3.619-3.805-5.107-5.653
		c-9.286-9.732-24.352-25.356-31.984-49.708"/>
	<path class="st5" d="M658.358,264.293c0,0.011,0.169,0.033,0.169,0.044c3.51,17.31,5.473,35.352,5.473,53.887
		c0,0.098,0,0.208,0,0.306c0,0.011,0,0.022,0,0.033c0,0.12,0,0.241,0,0.361c0,0.558,0,1.115,0,1.673c0,0.033,0,0.066,0,0.098v0.011
		c0,0.919,0,1.848,0,2.777c0,0.033,0,0.077,0,0.12c0,12.225-1,24.144-3,35.724v0.011c0,0.033,0,0.055,0,0.087
		c0,0.011,0,0.033,0,0.044c0,0.569,0.04,1.137-0.058,1.706c-2.045,11.449-3.583,22.548-6.437,33.253
		c-0.011,0.033,0.051,0.055,0.04,0.087c-4.112,15.385-9.734,29.94-16.831,43.51c-10.005,19.158-23.086,38.544-39.641,53.339"/>
	<path class="st6" d="M595.447,322.219c0.558,8.693-16.837,14.281-16.837,14.281H552"/>
	<line class="st6" x1="522" y1="336.5" x2="485" y2="336.5"/>
	<path class="st6" d="M553.81,345.421c0,10.804-7.622,19.523-17.037,19.523c-9.415,0-17.047-8.7-17.047-19.504
		c0-3.248,0.689-5.941,1.914-8.941h30.257C553.121,339.5,553.81,342.173,553.81,345.421z"/>
	<path class="st6" d="M551.896,336.5h-30.257c2.832-6,8.551-10.552,15.134-10.552C543.356,325.948,549.064,330.5,551.896,336.5z"/>
	<path class="st6" d="M283.314,316.804c3.805,12.52,12.859,14.696,12.859,14.696H329"/>
	<line class="st6" x1="375" y1="331.5" x2="354" y2="331.5"/>
	<path class="st6" d="M355.692,340.439c0,10.804-6.397,19.521-14.292,19.521s-14.292-8.702-14.292-19.506
		c0-3.248,0.58-6.954,1.607-8.954h25.369C355.113,333.5,355.692,337.191,355.692,340.439z"/>
	<path class="st6" d="M354.085,331.5h-25.369c2.373-6,7.162-10.552,12.685-10.552S351.712,325.5,354.085,331.5z"/>
	<line class="st6" x1="341.403" y1="452.44" x2="536.772" y2="446.232"/>
	<path class="st6" d="M656.575,393.456c17.461,17.435,21.456-15.621,21.456-15.621c34.628-105.543-14.294-57.426-14.294-57.426"/>
	<path class="st6" d="M423.867,127.739c0,0,7.872,83.125,129.947,134.724c115.883,48.981,109.881,63.326,109.881,63.326"/>
	<path class="st6" d="M553.814,154.437c0,0,124.452,111.422,127.292,155.178"/>
	<path class="st6" d="M663.737,320.408c0,0-17.574,115.332,12.969,211.556c19.075,60.093-10.521,89.57-11.558,139.237"/>
	<path class="st6" d="M641,838c0,0,37.298-39.808,63-88c48-90,9.876-183.325-5.274-239.2
		c-15.15-55.876,8.515-131.379,12.529-170.422C744.155,20.381,474.727,53.86,474.727,53.86l-39.531,33.48"/>
	<path class="st6" d="M446.49,52.858c0,0-235.15-26.808-215.673,287.52c3.059,49.371-17.854,127.068,6.492,197.841
		s33.144,97.239,23.157,127.792c-7.502,22.952-19.412,52.567,25.586,85.566"/>
	<path class="st6" d="M415.851,100.547c0,0-75.717,173.822-166.084,211.694s13.897,123.911,13.897,123.911"/>
	<polyline class="st7" points="485.548,288.7 553.814,278.583 578.611,283.733 	"/>
	<polyline class="st7" points="375.172,283.733 317.727,273.617 294.013,281.25 	"/>
	<path class="st6" d="M708.369,359.933c0,0,28.414,81.857-5.763,168.619c-34.177,86.762,16.843,197.058,16.843,197.058"/>
	<line class="st6" x1="304.473" y1="553.105" x2="304.473" y2="553.105"/>
	<path class="st6" d="M296.786,509.956"/>
	<path class="st6" d="M579,868.333c37.667-68.667-11.333-104.667-11.333-162.667c0-34.628,5.833-49.906,15.833-77.56V629"/>
	<path class="st6" d="M260.472,810.041c4.735-53.493,42.406-77.269,72.881-107.909"/>
	<path class="st6" d="M300.977,507.79c0,0,91.509,33.676,297.111-16.424c0,0,54.418,51.615-112.541,80.276
		C318.59,600.303,254.918,529.614,300.977,507.79z"/>
	<path class="st6" d="M296.177,550.262c0,0-71.42,90.951,103.884,86.587c175.303-4.364,219.23-13.559,199.431-108.296"/>
	<path class="st6" d="M303.468,621.969c0,0-83.039,136.198,182.08,56.594c0,0,122.366-39.995,108.796-79.045"/>
	<line class="st6" x1="485.548" y1="366.142" x2="553.814" y2="387.873"/>
	<line class="st6" x1="376.805" y1="366.142" x2="318.636" y2="382.906"/>
	<path class="st6" d="M402.225,394.081"/>
	<path class="st6" d="M410.882,357.158"/>
	<path class="st6" d="M616.959,290.7c0,0-9.876,114.806,21.938,208.46C672.576,598.301,597,591,643,709
		c8.837,22.669,18.687,48.872-10,96c-42,69-11,141-11,141"/>
	<path class="st6" d="M260.467,307.099c0,0,8.657,102.71,0,177.418c-8.657,74.708-76.71,107.532,3.848,219.013"/>
	<path class="st6" d="M270.444,137.1c0,0-105.227,157.182-85.707,328.798c6.561,57.682,32.532,80.924,25.129,122.603
		c-3.664,20.627-34.97,54.736,3.05,95.822"/>
</g>
<g id="lines2" class="st8">
	<path class="st9" d="M263.654,436.145"/>
	<path class="st9" d="M263.468,437.195L263.468,437.195"/>
	<path class="st9" d="M263.468,438.65"/>
	<path class="st9" d="M300.854,507.823c-0.011-0.011-0.044-0.011-0.044-0.022c-1.575-1.75-26.81-18.052-33.81-49.468"/>
	<path class="st9" d="M664.333,267c3.51,17.31-0.333,53.039-0.333,53.597c0,0.033,0,0.066,0,0.098c0,0-1,27.053-3,38.633v0.011
		c0,0.033,0,0.055,0,0.087c0,0.011,0,0.033,0,0.044c0,0.569,0.04,1.137-0.058,1.706c-2.045,11.449-3.583,22.548-6.437,33.253
		c-0.011,0.033,0.051,0.055,0.04,0.087C650.434,409.902,648.097,427.43,641,441c-10.005,19.158-26.371,35.571-42.927,50.365"/>
	<path class="st10" d="M595.447,322.219c0.558,8.693-16.837,14.281-16.837,14.281H552"/>
	<line class="st10" x1="522" y1="336.5" x2="485" y2="336.5"/>
	<path class="st10" d="M555.81,347.421c0,10.804-7.622,19.523-17.037,19.523c-9.415,0-17.047-8.7-17.047-19.504
		c0-3.248,0.689-5.941,1.914-8.941h30.257C555.121,341.5,555.81,344.173,555.81,347.421z"/>
	<path class="st10" d="M553.896,338.5h-30.257c2.832-6,8.551-10.552,15.134-10.552C545.356,327.948,551.064,332.5,553.896,338.5z"/>
	<path class="st10" d="M283.314,316.804c3.805,12.52,12.859,14.696,12.859,14.696H329"/>
	<line class="st10" x1="375" y1="331.5" x2="354" y2="331.5"/>
	<path class="st10" d="M357.692,342.439c0,10.804-6.397,19.521-14.292,19.521s-14.292-8.702-14.292-19.506
		c0-3.248,0.58-6.954,1.607-8.954h25.369C357.113,335.5,357.692,339.191,357.692,342.439z"/>
	<path class="st10" d="M356.085,333.5h-25.369c2.373-6,7.162-10.552,12.685-10.552S353.712,327.5,356.085,333.5z"/>
	<line class="st10" x1="341.403" y1="452.44" x2="536.772" y2="446.232"/>
	<path class="st10" d="M656.575,393.456C674.036,410.891,675,374.333,675,374.333c34.628-105.543-10.263-54.925-10.263-54.925"/>
	<path class="st10" d="M427.053,120.276c0,0,8.191,82.375,129.947,134.724c103.5,44.5,111,60.75,111,60.75"/>
	<path class="st10" d="M553.814,154.437c0,0,125.186,99.23,127.292,155.178"/>
	<path class="st10" d="M664,321.75c0,0-22.21,115.693,8.333,211.917c19.074,60.093-6.667,90.667-4,140.667"/>
	<path class="st10" d="M652.333,842.333c0,0,18.667-45.333,51.667-92.333c58.612-83.478,4.816-181.791-10.333-237.667
		c-15.15-55.876,13.819-132.888,17.588-171.956C740.333,39,474.727,53.86,474.727,53.86l-39.06,38.473"/>
	<path class="st10" d="M446.49,52.858c0,0-251.49-29.191-205.49,290.809c7.038,48.962-27.479,123.59-3.69,194.552
		C254.333,589,264.32,630.447,254.333,661c-7.502,22.952-14.998,52.335,30,85.333"/>
	<path class="st10" d="M415.667,111c0,0-48,143.333-165.9,201.241c-71.332,35.036,13.897,123.911,13.897,123.911"/>
	<polyline class="st11" points="485.548,290.7 553.814,280.583 578.611,285.733 	"/>
	<polyline class="st11" points="375.172,285.733 317.727,275.617 294.013,283.25 	"/>
	<path class="st10" d="M708.369,359.933c0,0,17.68,78.959-8.702,168.4C672.333,621,719.667,737,719.667,737"/>
	<path class="st10" d="M296.786,509.956"/>
	<path class="st10" d="M581.667,874.333C619.333,805.667,564.333,767,564.333,709c0-34.628,3.333-39.679,13.333-67.333"/>
	<path class="st10" d="M257,807.667c4.735-53.493,38-64.667,63.333-103.333"/>
	<path class="st10" d="M300.977,507.79c0,0,90.023,43.21,297.111-16.424c0,0,56.911,69.635-112.541,80.276
		C316.48,582.26,254.918,529.614,300.977,507.79z"/>
	<path class="st10" d="M295,543c0,0-70.243,98.213,105.061,93.849c175.303-4.364,222.072-7.111,202.273-101.849"/>
	<path class="st10" d="M303.468,621.969c0,0-80.921,141.968,184.199,62.364c0,0,128.667-37.333,106.678-84.816"/>
	<line class="st10" x1="483.548" y1="368.142" x2="551.814" y2="389.873"/>
	<line class="st10" x1="374.805" y1="368.142" x2="317.636" y2="384.906"/>
	<path class="st10" d="M402.225,394.081"/>
	<path class="st10" d="M410.882,357.158"/>
	<path class="st10" d="M617,283.667c0,0-12.412,122.724,21.897,215.493C681,613,597,591,643,709
		c8.837,22.669,12.02,50.205-16.667,97.333C584.333,875.333,622,946,622,946"/>
	<path class="st10" d="M260.467,307.099c0,0,11.857,106.526,3.2,181.234c-8.657,74.708-79.91,103.716,0.648,215.197"/>
	<path class="st10" d="M259.667,150.333c0,0-99.52,145.05-80,316.667c6.561,57.682,37.602,79.823,30.199,121.501
		C206.202,609.128,184.98,652.915,223,694"/>
</g>
<g id="lines3" class="st8">
	<path class="st9" d="M263.654,436.145"/>
	<path class="st9" d="M263.468,437.195L263.468,437.195"/>
	<path class="st9" d="M263.468,438.65"/>
	<path class="st9" d="M300.854,507.823c-0.011-0.011-0.044-0.011-0.044-0.022c-1.575-1.75-26.81-18.052-33.81-49.468"/>
	<path class="st9" d="M664.333,267c3.51,17.31-0.333,53.039-0.333,53.597c0,0.033,0,0.066,0,0.098c0,0-1,27.053-3,38.633v0.011
		c0,0.033,0,0.055,0,0.087c0,0.011,0,0.033,0,0.044c0,0.569,0.04,1.137-0.058,1.706c-2.045,11.449-3.583,22.548-6.437,33.253
		c-0.011,0.033,0.051,0.055,0.04,0.087C650.434,409.902,648.097,427.43,641,441c-10.005,19.158-26.371,35.571-42.927,50.365"/>
	<path class="st10" d="M595.447,322.219c0.558,8.693-16.837,14.281-16.837,14.281H552"/>
	<line class="st10" x1="522" y1="336.5" x2="485" y2="336.5"/>
	<path class="st10" d="M553.81,348.421c0,10.804-7.622,19.523-17.037,19.523c-9.415,0-17.047-8.7-17.047-19.504
		c0-3.248,0.689-5.941,1.914-8.941h30.257C553.121,342.5,553.81,345.173,553.81,348.421z"/>
	<path class="st10" d="M551.896,339.5h-30.257c2.832-6,8.551-10.552,15.134-10.552C543.356,328.948,549.064,333.5,551.896,339.5z"/>
	<path class="st10" d="M283.314,316.804c3.805,12.52,12.859,14.696,12.859,14.696H329"/>
	<line class="st10" x1="375" y1="331.5" x2="354" y2="331.5"/>
	<path class="st10" d="M355.692,343.439c0,10.804-6.397,19.521-14.292,19.521s-14.292-8.702-14.292-19.506
		c0-3.248,0.58-6.954,1.607-8.954h25.369C355.113,336.5,355.692,340.191,355.692,343.439z"/>
	<path class="st10" d="M354.085,334.5h-25.369c2.373-6,7.162-10.552,12.685-10.552S351.712,328.5,354.085,334.5z"/>
	<line class="st10" x1="343.403" y1="452.44" x2="538.772" y2="446.232"/>
	<path class="st10" d="M656.575,393.456C674.036,410.891,675,374.333,675,374.333c34.628-105.543-10.263-54.925-10.263-54.925"/>
	<path class="st10" d="M428.333,115c0,0-0.667,91.333,128.667,140c104.65,39.378,111,60.75,111,60.75"/>
	<path class="st10" d="M549,159c0,0,128.894,90.052,131,146"/>
	<path class="st10" d="M664,321.75c0,0-17.543,115.693,13,211.917c19.074,60.093-9.333,90.667-6.667,140.667"/>
	<path class="st10" d="M664.333,834.333c0,0,6.667-37.333,39.667-84.333c58.612-83.478,4.816-168.458-10.333-224.333
		c-15.15-55.876,13.799-146.223,17.588-185.289C739,54.333,474.727,53.86,474.727,53.86L431,91.667"/>
	<path class="st10" d="M445.667,58.333c0,0-239.333-54-200.667,284.667c5.611,49.146-38.789,123.038-15,194
		c17.024,50.782,34.32,93.447,24.333,124c-7.502,22.952-14.998,52.335,30,85.333"/>
	<path class="st10" d="M415.667,111c0,0-50.99,137.606-165.9,201.241C187,347,263.664,436.152,263.664,436.152"/>
	<polyline class="st11" points="485.296,287.088 554.14,282.279 578.464,289.329 	"/>
	<polyline class="st11" points="375.395,283.404 317.465,276.59 294.227,285.566 	"/>
	<path class="st10" d="M711,343c0,0,15.049,95.892-11.333,185.333C672.333,621,719.667,737,719.667,737"/>
	<path class="st10" d="M296.786,509.956"/>
	<path class="st10" d="M581.667,874.333c30-80.667-6.667-108.667-17.333-165.333c-6.406-34.03,3.333-39.679,13.333-67.333"/>
	<path class="st10" d="M257,807.667c4.735-53.493,32.667-78,61-107.667"/>
	<path class="st10" d="M300.977,507.79c0,0,91.023,28.21,297.111-16.424c0,0,65.363,73.993-104.089,84.635
		C324.932,586.618,254.918,529.614,300.977,507.79z"/>
	<path class="st10" d="M295,543c0,0-68.303,102.364,107,98s220.133-11.263,200.333-106"/>
	<path class="st10" d="M303.468,621.969c0,0-91.468,127.031,184.199,62.364c0,0,130.322-29.851,108.333-77.333"/>
	<line class="st10" x1="480.548" y1="368.142" x2="548.814" y2="389.873"/>
	<line class="st10" x1="371.805" y1="368.142" x2="314.636" y2="384.906"/>
	<path class="st10" d="M402.225,394.081"/>
	<path class="st10" d="M410.882,357.158"/>
	<path class="st10" d="M613,281c0,0-18.667,106,25.897,218.159c44.818,112.799-47.231,91.174-1.231,209.174
		c8.837,22.669,10.687,50.872-18,98C577.667,875.333,622,946,622,946"/>
	<path class="st10" d="M260.467,307.099c0,0,7.19,108.193-1.467,182.901c-8.657,74.708-71.558,101.519,9,213"/>
	<path class="st10" d="M250.333,168.333c0,0-88.333,145-72.667,300C183.505,526.093,221.403,550.322,214,592
		c-3.664,20.627-33.687,61.915,4.333,103"/>
</g>
</svg>
