<?xml version="1.0" encoding="utf-8"?>
<!-- Generator: Adobe Illustrator 19.1.0, SVG Export Plug-In . SVG Version: 6.00 Build 0)  -->
<svg version="1.1" id="Layer_2" xmlns="http://www.w3.org/2000/svg" xmlns:xlink="http://www.w3.org/1999/xlink" x="0px" y="0px"
	 viewBox="0 0 658 823" style="enable-background:new 0 0 658 823;" xml:space="preserve">
<style type="text/css">
	.st0{opacity:0.51;fill:#31283A;}
	.st1{fill:none;stroke:#000000;stroke-width:7;stroke-miterlimit:10;}
	.st2{fill:#423677;}
	.st3{fill:none;stroke:#000000;stroke-width:16;stroke-miterlimit:10;}
	.st4{fill:#5B4599;}
	.st5{fill:#D1305A;}
	.st6{fill:#E3DBEB;}
	.st7{fill:#8E1C46;}
	.st8{fill:#EDBE5F;}
	.st9{fill:#C1872B;}
	.st10{fill:none;stroke:#000000;stroke-width:3;stroke-miterlimit:10;}
</style>
<path class="st0" d="M508,768c0,19.882-97.472,202-215.109,202S82,787.882,82,768s95.363-54,213-54S508,748.118,508,768z"/>
<g>
	<path class="st1" d="M267,647c0,0,16,51,42,71c0,0,14,13,11-1s35-52,35-52l-8-41L267,647z"/>
	<path class="st2" d="M267,647c0,0,16,51,42,71c0,0,14,13,11-1s35-52,35-52l-8-41L267,647z"/>
</g>
<g>
	<path class="st3" d="M20,669c0,0-16.807,31.627-9,51c13.5,33.5,21-45,21-45L20,669z"/>
	<path class="st2" d="M20,669c0,0-16.807,31.627-9,51c13.5,33.5,21-45,21-45L20,669z"/>
</g>
<g>
	<path class="st3" d="M46,696c0,0-7.5,19.5-3,32s16.5,10.5,16,1s-4-30-4-30L46,696z"/>
	<path class="st2" d="M46,696c0,0-7.5,19.5-3,32s16.5,10.5,16,1s-4-30-4-30L46,696z"/>
</g>
<g>
	<path class="st3" d="M70,704c0,0-3,18,8,28s11.5-15.5,3-28S70,704,70,704z"/>
	<path class="st2" d="M70,704c0,0-3,18,8,28s11.5-15.5,3-28S70,704,70,704z"/>
</g>
<g>
	<path class="st3" d="M566,696c0,0,13,35.5-11,51c0,0-20.5,6-11-9s10-39,10-39L566,696z"/>
	<path class="st2" d="M566,696c0,0,13,35.5-11,51c0,0-20.5,6-11-9s10-39,10-39L566,696z"/>
</g>
<g>
	<path class="st3" d="M530,706c0,0,3.5,30-13,33s-8.5-16.5,3-31S530,706,530,706z"/>
	<path class="st2" d="M530,706c0,0,3.5,30-13,33s-8.5-16.5,3-31S530,706,530,706z"/>
</g>
<g>
	<path class="st3" d="M501,699c0,0,4,25.5-10,29s1-30,1-30L501,699z"/>
	<path class="st2" d="M501,699c0,0,4,25.5-10,29s1-30,1-30L501,699z"/>
</g>
<g>
	<path class="st3" d="M545,365c0,0,74,209,47,300s-138,21-138,21L545,365z"/>
	<path class="st4" d="M545,365c0,0,74,209,47,300s-138,21-138,21L545,365z"/>
</g>
<g>
	<path class="st3" d="M110,281c0,0-134,273-93,379s114,16,114,16L110,281z"/>
	<path class="st4" d="M110,281c0,0-134,273-93,379s114,16,114,16L110,281z"/>
</g>
<g>
	<path class="st3" d="M125,239c0,0-65.365,148.022-53,308c5.224,67.587,34.578,119.235,72,192c0,0-23,32,7,15c0,0-9,29,20,2
		c0,0-2,18,13-2s40-76,37-89c0,0,59-1,109-12c0,0,31,101.5,56,105c0,0,46.5,26,25,2c0,0,53,12,14-6c0,0,48,7,1-8
		c0,0,153-171,118-375c-1.671-9.74,11.333-23.333,6-42c0,0,37.436-37.715,63-83c35-62,50-115,16-112c-72.827,6.426-196,45-218,103
		c0,0-3.112-13.904-17-29c-19.228-20.901-51-46.839-51-66c0,0-14,23,6,50s17,34,17,34s-25-13-38-41c0,0-14,17-5,40c0,0-27-15-28-44
		c0,0-22,7-26,29c-1.586,8.721-3.513-27.445-15-72c-17.49-67.837-48.686-153.8-68-120C154,74,110,191,125,239z"/>
	<path class="st4" d="M125,239c0,0-65.365,148.022-53,308c5.224,67.587,34.578,119.235,72,192c0,0-23,32,7,15c0,0-9,29,20,2
		c0,0-2,18,13-2s40-76,37-89c0,0,59-1,109-12c0,0,31,101.5,56,105c0,0,46.5,26,25,2c0,0,53,12,14-6c0,0,48,7,1-8
		c0,0,153-171,118-375c-1.671-9.74,11.333-23.333,6-42c0,0,37.436-37.715,63-83c35-62,50-115,16-112c-72.827,6.426-196,45-218,103
		c0,0-3.112-13.904-17-29c-19.228-20.901-51-46.839-51-66c0,0-14,23,6,50s17,34,17,34s-25-13-38-41c0,0-14,17-5,40c0,0-27-15-28-44
		c0,0-22,7-26,29c-1.586,8.721-3.513-27.445-15-72c-17.49-67.837-48.686-153.8-68-120C154,74,110,191,125,239z"/>
</g>
<g>
	<path class="st2" d="M20.992,669.496L20,669c0,0-16.807,31.627-9,51c10.105,25.076,16.848-12.601,19.601-33.136
		C27.277,681.959,24.061,676.207,20.992,669.496z"/>
</g>
<g>
	<path class="st2" d="M56.628,709.203c-4.215-1.556-8.411-3.914-12.529-7.239C42.234,708.72,40.065,719.847,43,728
		c4.5,12.5,16.5,10.5,16,1C58.733,723.936,57.615,715.747,56.628,709.203z"/>
</g>
<g>
	<path class="st2" d="M69.677,711.64c0.283,6.107,1.956,14.571,8.323,20.36c9.523,8.658,11.171-9.29,5.927-22.377
		C79.298,710.971,74.517,711.727,69.677,711.64z"/>
</g>
<g>
	<path class="st2" d="M553.158,708.856C552.071,717.193,549.6,729.158,544,738c-9.5,15,11,9,11,9
		c17.965-11.602,15.198-34.408,12.671-45.146C563.13,704.999,558.251,707.284,553.158,708.856z"/>
</g>
<g>
	<path class="st2" d="M518.069,710.53C507.668,724.656,501.443,741.829,517,739c11.943-2.171,13.407-18.482,13.305-27.329
		C526.227,711.549,522.132,711.148,518.069,710.53z"/>
</g>
<g>
	<path class="st2" d="M489.9,703.116c-3.56,9.237-9.425,27.516,1.1,24.884c8.891-2.223,10.52-13.314,10.526-21.116
		C497.516,705.745,493.622,704.466,489.9,703.116z"/>
</g>
<g>
	<path class="st3" d="M468,426c-5.56,6.8-12.03,12.259-19.19,15.93C422.667,455.333,387,455,387,455
		c-49.16,2.79-57.31-33.49-56.69-65.18C330.79,364.79,338,342,338,342C378,354,468,426,468,426z"/>
	<path class="st5" d="M468,426c-5.56,6.8-12.03,12.259-19.19,15.93C422.667,455.333,387,455,387,455
		c-49.16,2.79-57.31-33.49-56.69-65.18C330.79,364.79,338,342,338,342C378,354,468,426,468,426z"/>
</g>
<g>
	<path class="st3" d="M208,339c0,0-1.29,19.29-7.13,41.83c-5.66,21.9-15.62,46.86-32.87,60.17c-22.17,17.1-44.34,3.71-55.07-12.22
		c-6.21-9.21-8.6-19.28-4.93-24.78C118,389,208,339,208,339z"/>
	<path class="st5" d="M208,339c0,0-1.29,19.29-7.13,41.83c-5.66,21.9-15.62,46.86-32.87,60.17c-22.17,17.1-44.34,3.71-55.07-12.22
		c-6.21-9.21-8.6-19.28-4.93-24.78C118,389,208,339,208,339z"/>
</g>
<g>
	<path class="st3" d="M377,542c0,0-55.99,1.67-121,0c-39-1-103-7-103-7C189,458,353,495,377,542z"/>
	<path class="st6" d="M377,542c0,0-55.99,1.67-121,0c-39-1-103-7-103-7C189,458,353,495,377,542z"/>
</g>
<path class="st7" d="M208,339c0,0-1.29,19.29-7.13,41.83c-9.39-18.06-74.42,29.19-81.87,36.17c-4.19,3.93-5.64,8.41-6.07,11.78
	c-6.21-9.21-8.6-19.28-4.93-24.78C118,389,208,339,208,339z"/>
<g>
	<ellipse class="st3" cx="278" cy="299" rx="26" ry="40"/>
	<ellipse class="st8" cx="278" cy="299" rx="26" ry="40"/>
</g>
<path class="st7" d="M468,426c-5.56,6.8-12.18,11.98-19.19,15.93c8.05-19.23-55.46-38.79-85.81-50.93
	c-20.87-8.34-29.3-5.04-32.69-1.18C330.79,364.79,338,342,338,342C378,354,468,426,468,426z"/>
<path class="st9" d="M304,299c-7-15-39-21-52,0c0-22.09,11.64-40,26-40S304,276.91,304,299z"/>
<ellipse cx="276.483" cy="299" rx="9.172" ry="19"/>
<path d="M360,349c-2.759,24.835-8.5,73,4,75c13.656,2.185,11-50.54,11-66L360,349z"/>
<path d="M134,382c-1.741,13.182-9.5,39,3,39c11.511,0,11.503-31.667,11-48L134,382z"/>
<g>
	<path class="st10" d="M186.8,537.88c0.08-11.59,1.78-26.1,3.38-37.29"/>
	<path class="st10" d="M231.1,540.93c-1.25-11.02-3.14-32.79-0.88-49.71"/>
	<path class="st10" d="M280.12,542.48c-0.88-10.37-1.86-29-0.07-49.04"/>
	<path class="st10" d="M334.28,542.68c-0.66-6.29-1.38-17.93-0.22-33.72"/>
</g>
</svg>
