<svg id="Layer_5" xmlns="http://www.w3.org/2000/svg" viewBox="0 0 900 900">
  <style>
    .st0{opacity:0.25;} .st1{fill:none;stroke:#000000;stroke-width:17;stroke-miterlimit:10;} .st2{fill:none;stroke:#5B4599;stroke-width:17;stroke-miterlimit:10;} .st3{fill:#EDBE5F;} .st4{fill:#5B4599;} .st5{opacity:0.15;}
  </style>
  <g class="st0">
    <path class="st1" d="M21 48C83 4 147 6 195 48c0 0-24 36-88 36-58 0-86-36-86-36z"/>
    <path d="M21 48C83 4 147 6 195 48c0 0-24 36-88 36-58 0-86-36-86-36z"/>
  </g>
  <path class="st2" d="M20 25c62-44 126-42 174 0 0 0-24 36-88 36-58 0-86-36-86-36z"/>
  <path class="st3" d="M20 25c62-44 126-42 174 0 0 0-24 36-88 36-58 0-86-36-86-36z"/>
  <path class="st4" d="M138.2 61c2.7-24.8 4.5-62-8-64-13.7-2-8.2 50.5-8.2 66l16.2-2z"/>
  <g class="st0">
    <path class="st1" d="M701 688c62-44 126-42 174 0 0 0-24 36-88 36-58 0-86-36-86-36z"/>
    <path d="M701 688c62-44 126-42 174 0 0 0-24 36-88 36-58 0-86-36-86-36z"/>
  </g>
  <path class="st2" d="M700 665c62-44 126-42 174 0 0 0-24 36-88 36-58 0-86-36-86-36z"/>
  <path class="st3" d="M700 665c62-44 126-42 174 0 0 0-24 36-88 36-58 0-86-36-86-36z"/>
  <path class="st4" d="M755 633c-2.8 24.8-4.6 46.5 8 46 23-1 15-32.5 15-48l-23 2z"/>
  <g class="st0">
    <path class="st1" d="M425 148.3c68.4-78 139-74.4 192 0 0 0-26.5 63.7-97 63.7-64 0-95-63.7-95-63.7z"/>
    <path d="M425 148.3c68.4-78 139-74.4 192 0 0 0-26.5 63.7-97 63.7-64 0-95-63.7-95-63.7z"/>
  </g>
  <path class="st2" d="M424 125.3c68.4-78 139-74.4 192 0 0 0-26.5 63.7-97 63.7-64 0-95-63.7-95-63.7z"/>
  <path class="st3" d="M424 125.3c68.4-78 139-74.4 192 0 0 0-26.5 63.7-97 63.7-64 0-95-63.7-95-63.7z"/>
  <path class="st4" d="M539 192c3-44-7.7-83.3-21.5-86.8-15-4-20.5 57.4-20.5 84.8l42 2z"/>
  <g class="st0">
    <path class="st1" d="M736 75c50-50.2 101.4-48 140 0 0 0-19.3 41-70.8 41-46.7 0-69.2-41-69.2-41z"/>
    <path d="M736 75c50-50.2 101.4-48 140 0 0 0-19.3 41-70.8 41-46.7 0-69.2-41-69.2-41z"/>
  </g>
  <path class="st2" d="M735 52c50-50.2 101.4-48 140 0 0 0-19.3 41-70.8 41-46.7 0-69.2-41-69.2-41z"/>
  <path class="st3" d="M735 52c50-50.2 101.4-48 140 0 0 0-19.3 41-70.8 41-46.7 0-69.2-41-69.2-41z"/>
  <path class="st4" d="M805 95c2-28.3-5.8-53.7-15.8-56-11-2.5-17.2 31.4-17.2 49l16 5 17 2z"/>
  <g>
    <g class="st0">
      <path class="st1" d="M-51 702c50-50.2 101.4-48 140 0 0 0-19.3 41-70.8 41-46.7 0-69.2-41-69.2-41z"/>
      <path d="M-51 702c50-50.2 101.4-48 140 0 0 0-19.3 41-70.8 41-46.7 0-69.2-41-69.2-41z"/>
    </g>
    <path class="st2" d="M-52 679c50-50.2 101.4-48 140 0 0 0-19.3 41-70.8 41-46.7 0-69.2-41-69.2-41z"/>
    <path class="st3" d="M-52 679c50-50.2 101.4-48 140 0 0 0-19.3 41-70.8 41-46.7 0-69.2-41-69.2-41z"/>
  </g>
  <path class="st4" d="M19 638c-2.2 28.3 6 60.6 16 63 11 2.4 18-38.4 18-56l-34-7z"/>
  <g>
    <g class="st5">
      <path class="st1" d="M663 359c51-44 103.6-42 143 0 0 0-19.7 36-72.3 36-47.7 0-70.7-36-70.7-36z"/>
      <path d="M663 359c51-44 103.6-42 143 0 0 0-19.7 36-72.3 36-47.7 0-70.7-36-70.7-36z"/>
    </g>
    <path class="st2" d="M662 336c51-44 103.6-42 143 0 0 0-19.7 36-72.3 36-47.7 0-70.7-36-70.7-36z"/>
    <path class="st3" d="M662 336c51-44 103.6-42 143 0 0 0-19.7 36-72.3 36-47.7 0-70.7-36-70.7-36z"/>
  </g>
  <path class="st4" d="M728.6 310c-2.3 24.8-3.7 62 6.5 64 11.4 2.2 6.7-46.5 6.7-62l-13-2z"/>
  <g>
    <g class="st0">
      <path class="st1" d="M140.8 347.5c40.8-20 82.8-19.2 114.4 0 0 0-15.8 16.5-58 16.5-38 0-56.4-16.5-56.4-16.5z"/>
      <path d="M140.8 347.5c40.8-20 82.8-19.2 114.4 0 0 0-15.8 16.5-58 16.5-38 0-56.4-16.5-56.4-16.5z"/>
    </g>
    <path class="st2" d="M139.8 324.5c40.8-20 82.8-19.2 114.4 0 0 0-15.8 16.5-58 16.5-38 0-56.4-16.5-56.4-16.5z"/>
    <path class="st3" d="M139.8 324.5c40.8-20 82.8-19.2 114.4 0 0 0-15.8 16.5-58 16.5-38 0-56.4-16.5-56.4-16.5z"/>
  </g>
  <path class="st4" d="M216 343c1.8-11.4 1.8-23-6.4-24-9-1-5.6 19-5.6 26l12-2z"/>
</svg>
