<?xml version="1.0" encoding="utf-8"?>
<!-- Generator: Adobe Illustrator 19.1.0, SVG Export Plug-In . SVG Version: 6.00 Build 0)  -->
<svg version="1.1" id="Layer_5" xmlns="http://www.w3.org/2000/svg" xmlns:xlink="http://www.w3.org/1999/xlink" x="0px" y="0px"
	 viewBox="0 0 900 900" style="enable-background:new 0 0 900 900;" xml:space="preserve">
<style type="text/css">
	.st0{fill:none;stroke:#000000;stroke-width:10;stroke-miterlimit:10;}
	.st1{fill:#D1305A;}
</style>
<g>
	<path class="st0" d="M20,25c62-44,126-42,174,0c0,0-24,36-88,36C48,61,20,25,20,25z"/>
	<path class="st1" d="M20,25c62-44,126-42,174,0c0,0-24,36-88,36C48,61,20,25,20,25z"/>
</g>
<path d="M138.181,61.071c2.759-24.835,4.5-62-8-64C116.526-5.114,122,47.54,122,63L138.181,61.071z"/>
<g>
	<path class="st0" d="M700,665c62-44,126-42,174,0c0,0-24,36-88,36C728,701,700,665,700,665z"/>
	<path class="st1" d="M700,665c62-44,126-42,174,0c0,0-24,36-88,36C728,701,700,665,700,665z"/>
</g>
<path d="M755,633c-2.759,24.835-4.647,46.55,8,46c23-1,15-32.54,15-48L755,633z"/>
<g>
	<path class="st0" d="M424,125.276c68.414-77.885,139.034-74.345,192,0c0,0-26.483,63.724-97.103,63.724
		C454.897,189,424,125.276,424,125.276z"/>
	<path class="st1" d="M424,125.276c68.414-77.885,139.034-74.345,192,0c0,0-26.483,63.724-97.103,63.724
		C454.897,189,424,125.276,424,125.276z"/>
</g>
<path d="M539,192c3.045-43.96-7.708-83.28-21.502-86.82C502.43,101.312,497,162.634,497,190L539,192z"/>
<g>
	<path class="st0" d="M735,51.987c49.885-50.208,101.379-47.926,140,0c0,0-19.31,41.079-70.805,41.079
		C757.529,93.066,735,51.987,735,51.987z"/>
	<path class="st1" d="M735,51.987c49.885-50.208,101.379-47.926,140,0c0,0-19.31,41.079-70.805,41.079
		C757.529,93.066,735,51.987,735,51.987z"/>
</g>
<path d="M804.854,95c2.22-28.338-5.621-53.686-15.678-55.968C778.189,36.539,772,70.359,772,88l16,5L804.854,95z"/>
<g>
	<path class="st0" d="M-52,678.987c49.885-50.208,101.379-47.926,140,0c0,0-19.31,41.079-70.805,41.079
		C-29.471,720.066-52,678.987-52,678.987z"/>
	<path class="st1" d="M-52,678.987c49.885-50.208,101.379-47.926,140,0c0,0-19.31,41.079-70.805,41.079
		C-29.471,720.066-52,678.987-52,678.987z"/>
</g>
<path d="M19,638c-2.22,28.338,5.999,60.587,16.057,62.869C46.044,703.363,53,662.641,53,645L19,638z"/>
<g>
	<path class="st0" d="M662,336c50.954-44,103.552-42,143,0c0,0-19.724,36-72.322,36C685.011,372,662,336,662,336z"/>
	<path class="st1" d="M662,336c50.954-44,103.552-42,143,0c0,0-19.724,36-72.322,36C685.011,372,662,336,662,336z"/>
</g>
<path d="M728.569,310c-2.268,24.835-3.698,62,6.575,64c11.223,2.185,6.575-46.54,6.575-62L728.569,310z"/>
<g>
	<path class="st0" d="M139.829,324.543c40.743-20.114,82.8-19.2,114.343,0c0,0-15.771,16.457-57.829,16.457
		C158.229,341,139.829,324.543,139.829,324.543z"/>
	<path class="st1" d="M139.829,324.543c40.743-20.114,82.8-19.2,114.343,0c0,0-15.771,16.457-57.829,16.457
		C158.229,341,139.829,324.543,139.829,324.543z"/>
</g>
<path d="M216,343c1.813-11.353,1.819-23.053-6.395-23.967C200.631,318.034,204,337.932,204,345L216,343z"/>
</svg>
