<?xml version="1.0" encoding="utf-8"?>
<!-- Generator: Adobe Illustrator 19.1.0, SVG Export Plug-In . SVG Version: 6.00 Build 0)  -->
<svg version="1.1" id="lines" xmlns="http://www.w3.org/2000/svg" xmlns:xlink="http://www.w3.org/1999/xlink" x="0px" y="0px"
	 viewBox="0 0 756 804.5" style="enable-background:new 0 0 756 804.5;" xml:space="preserve">
<style type="text/css">
	.st0{fill:#D76A5E;}
	.st1{fill:none;stroke:#FFFFFF;stroke-width:8.8861;stroke-linecap:round;stroke-miterlimit:10;}
	.st2{fill:#FFFFFF;}
	.st3{fill:#B2DCB5;}
</style>
<path class="st0" d="M348.1,802.4c0,0,43-5.4,80,1.6L451,756H348.1V802.4z"/>
<path class="st0" d="M755.6,508.8c-1.6-11.2-11.6-18.8-18-20.3l0-0.2c-73.2-8.7-98.9,34.5-98.9,34.5l-10.1,12.9
	c-0.7,0.9-84,106.6-87.4-66.6v-66.2c0,0,0,0,0,0V63.4c0-10.5-8.7-19.4-19.1-19.4h-22.8c-10.5,0-19.1,8.9-19.1,19.4v338.1v0v6.3
	c0,4.7-3.5,8.3-8.2,8.3h-14.7c-4.3,0-8.1-2.7-9.1-6.6V19c0-10.5-8.2-19-18.6-19h-26.3c-10.5,0-19.1,8.6-19.1,19v380.4v0v0.4
	c0,4.7-3.7,9.2-8.4,9.2H358c-4.9,0-8.8-4.1-9.8-8.9V63.4c0-10.5-8.2-19.4-18.6-19.4h-23.3c-10.5,0-19.1,8.9-19.1,19.4v334.9v0v15.7
	c0,4.7-3.7,9.1-8.4,9.1h-17.4c-5.2,0-9.1-4.8-9.1-10v-15.2c-0.1,0,0,0,0,0V153.8c0-10.4-8.9-18.8-19.3-18.8h-16.2
	c-10.5,0-18.5,8.3-18.5,18.8V397c-1,0-1,0-1,0v249.1l1,0c0,0,0,0,0,0c0,86.3,65.1,156.2,145.6,156.2c19.4,0,37.8-4.1,54.7-11.4
	c38.3,31.4,111.7,6.2,164.3-56.5c7.1-8.4,13.2-16.9,18.4-25.4l104.5-142.6l0.3,0.1c30.2-38,51.2-37.3,51.2-37.3v0
	C754.1,528.8,757.2,519.7,755.6,508.8z"/>
<path class="st1" d="M227.9,517.2"/>
<path class="st2" d="M372.2,729.7c-0.1,0-0.2,0-0.2,0c-2.5-0.1-4.3-2.2-4.2-4.7c3.4-64.6,41.4-102.5,72.7-123
	c24.4-16,60.4-28.3,61.3-28.6c2.4-0.7,4.8,0.7,5.5,3.1c0.7,2.4-0.7,4.8-3.1,5.5c-0.3,0.1-35.7,12.3-58.8,27.4
	c-29.6,19.3-65.5,55.2-68.7,116C376.5,727.9,374.5,729.7,372.2,729.7z"/>
<g>
	<path class="st3" d="M440.4,602.1c4.9-3.2,9.6-6,14.1-8.4L26.4,317.9c-5.6-3.6-13.1-2-16.7,3.6l-7.7,12c-3.6,5.6-2,13.1,3.6,16.7
		l414.6,267.1C427,611.4,433.8,606.4,440.4,602.1z"/>
	<path class="st3" d="M746.2,804.5l-82-127.6l-23.6,36.7L598,686.1c-7.1,9.7-14.5,20-22.3,31.4l44,28.4l-23.6,36.7L746.2,804.5z"/>
</g>
</svg>
