<svg id="lines" xmlns="http://www.w3.org/2000/svg" viewBox="0 0 756 804.5">
  <style>
    .st0{fill:#D76A5E;} .st1{fill:none;stroke:#FFFFFF;stroke-width:8.8861;stroke-linecap:round;stroke-miterlimit:10;} .st2{fill:#FFFFFF;} .st3{fill:#B2DCB5;}
  </style>
  <path class="st0" d="M348 802.4s43-5.4 80 1.6l23-48H348v46.4z"/>
  <path class="st0" d="M755.6 508.8c-1.6-11.2-11.6-18.8-18-20.3v-.2c-73.2-8.7-99 34.5-99 34.5l-10 13c-.7.8-84 106.5-87.4-66.7V63.5c0-10.5-8.7-19.4-19-19.4h-23c-10.4 0-19 9-19 19.4v344.4c0 4.7-3.5 8.3-8.2 8.3h-14.7c-4.3 0-8-2.6-9-6.5V19c0-10.5-8.3-19-18.7-19h-26.3c-10.5 0-19 8.6-19 19V399.8c0 4.7-3.8 9.2-8.5 9.2H358c-5 0-8.8-4-9.8-9V63.5C348.2 53 340 44 329.6 44h-23.3c-10.5 0-19 9-19 19.4V414c0 4.7-3.8 9-8.5 9h-17.4c-5.2 0-9-4.7-9-10v-15c-.2 0 0 0 0 0V153.7c0-10.4-9-18.8-19.4-18.8h-16.2c-10.5 0-18.5 8.3-18.5 18.8V397h-1v249h1c0 86.4 65 156.3 145.6 156.3 19.3 0 37.7-4 54.6-11.4 38.3 31.3 111.7 6 164.3-56.6 7-8.4 13-17 18.3-25.4l104.5-142.6h.3c30.3-38 51.3-37.2 51.3-37.2 16.8-.4 20-9.5 18.3-20.4z"/>
  <path class="st2" d="M372.2 729.7h-.2c-2.5 0-4.3-2.2-4.2-4.7 3.4-64.6 41.4-102.5 72.7-123 24.4-16 60.4-28.3 61.3-28.6 2.4-.7 4.8.7 5.5 3 .7 2.5-.7 5-3 5.6-.4 0-35.8 12.3-59 27.4-29.5 19.3-65.4 55.2-68.6 116-.2 2.5-2.2 4.3-4.5 4.3z"/>
  <path class="st3" d="M440.4 602c5-3 9.6-6 14-8.3L26.5 318c-5.6-3.7-13-2-16.7 3.5l-7.7 12c-3.6 5.6-2 13 3.6 16.7l414.6 267c6.8-5.8 13.6-10.8 20.2-15zM746.2 804.5l-82-127.6-23.6 36.6L598 686c-7 9.8-14.5 20-22.3 31.5l44 28.4-23.6 36.6 150.2 22z"/>
</svg>
