<?xml version="1.0" encoding="utf-8"?>
<!-- Generator: Adobe Illustrator 19.1.0, SVG Export Plug-In . SVG Version: 6.00 Build 0)  -->
<svg version="1.1" id="expanded" xmlns="http://www.w3.org/2000/svg" xmlns:xlink="http://www.w3.org/1999/xlink" x="0px" y="0px"
	 viewBox="-124 71.988 649.42 759.012" style="enable-background:new -124 71.988 649.42 759.012;" xml:space="preserve">
<style type="text/css">
	.st0{fill:#FFFFFF;}
	.st1{fill:#F2B8AD;}
	.st2{fill:#8C0C06;}
</style>
<g>
	<path class="st0" d="M290.86,82.565c-8.943-9.167-13.407,8.782-13.407,8.782s-12.647-4.115-10.322,8.601
		c3.95-4.129,9.014,8.292,10.322,11.328c9.516,22.084,5.837,118.972,0.637,159.983c-1.81,14.273-0.278,43.618-11.275,61.931
		c-4.914,8.183-17.155,24.058-22.218,32.497c-12.337,20.56-32.953,66.118-57.633,76.665c-21.006,8.977-30.343-4.309-32.121-15.514
		c5.718-14.584-5.082-19.36-9.354-18.231c-65.174,17.228-99.246,52.595-121.73,87.253C-2.094,535.714-81.811,637.515-86.807,664.422
		c-2.037,10.972-3.376,20.83-5.506,30.863c-11.85,3.231-22.778,37.851-28.279,45.647c-5.38,7.624,4.584,10.116,12.209,1.616
		c10.52-11.729,23.743-23.78,31.91-32.253C-52.696,685.628,61.985,603.233,91.02,588.081c17.547-9.157,39.748-3.89,54.47,7.96
		c28.745,23.136,61.044,64.276,81.871,122.807c2.131,5.988,5.745,15.082,15.082,20.468c13.386,7.723,29.872,35.531,40.936,46.322
		c29.086,28.368,80.109,41.737,107.366,43.09c32.628,1.62,52.156-1.89,61.655-10.429c5.241-4.712,6.982-13.039,8.59-17.938
		c5.067-15.443-26.259-17.771-32.541-33.036c-2.568-6.24,11.132-18.672-6.823-29.086c1.065-2.816,3.95-7.182,12.568-8.618
		c11.189-1.865,18.379-10.453,22.889-21.179c1.928,12.261,31.712,38.194,34.923,44.52c1.547,3.048,2.657,9.581,3.232,13.286
		c0.718,4.633,11.491,10.773,14.363-0.718c1.827-7.307,3.138-20.71,5.386-27.29c2.978-8.717,10.054-20.109,8.259-35.908
		c-3.744-32.948-2.585-72.86-7.9-100.401c-7.9-40.936-106.987-167.18-110.598-187.944c-1.436-8.259-4.97-19.397-13.422-21.004
		c-6.744-1.282-12.149-24.052-14.714-34.89c-5.923-25.025-45.489-76.891-50.744-88.074c-6.437-13.7-13.764-38.807-11.696-70.037
		c1.121-16.932,7.046-43.015,12.481-61.886c0.966-3.355,8.807-22.411,9.186-27.904c0.413-5.992-2.884-20.617-4.356-23.901
		c-4.029-8.991-7.852-6.309-11.629-3.544c-3.049,2.231-4.714,2.483-4.714,2.483c-4.934-3.982-11.428-8.637-15.604-10.712
		C293.877,71.704,291.324,78.751,290.86,82.565z"/>
</g>
<g>
	<path class="st0" d="M514.988,738.241c-2.251,6.574-3.56,19.978-5.388,27.287c-2.873,11.491-13.648,5.35-14.364,0.716
		c-0.575-3.702-1.686-10.238-3.231-13.281c-3.052-6.019-30.131-29.754-34.436-42.621c-0.235-0.659-0.396-1.3-0.49-1.903
		c-1.196,2.845-2.581,5.548-4.191,8.006c-4.417,6.81-10.483,11.811-18.697,13.177c-8.618,1.432-11.5,5.802-12.565,8.618
		c17.952,10.408,4.248,22.841,6.819,29.086c6.282,15.259,37.61,17.595,32.542,33.032c-1.611,4.898-3.353,13.224-8.59,17.943
		c-9.494,8.534-29.029,12.047-61.656,10.427c-10.483-0.518-24.47-2.816-39.381-7.064c-23.868-6.791-50.08-18.565-67.986-36.027
		c-9.626-9.4-23.368-31.685-35.594-42.385c-1.818-1.601-3.607-2.939-5.341-3.937c-9.334-5.388-12.951-14.477-15.08-20.467
		c-20.825-58.529-53.132-99.671-81.869-122.804c-14.722-11.849-36.922-17.124-54.47-7.959
		C61.985,603.23-52.7,685.626-76.473,710.295c-8.166,8.477-21.39,20.524-31.911,32.25c-7.62,8.505-17.585,6.009-12.207-1.611
		c5.501-7.799,16.427-42.423,28.276-45.654c2.138-10.031,3.476-19.883,5.51-30.856c4.992-26.91,84.714-128.71,110.569-168.561
		c22.483-34.662,56.551-70.03,121.73-87.257c4.267-1.13,15.07,3.645,9.353,18.235c1.771,11.199,11.114,24.489,32.119,15.513
		c24.678-10.549,45.296-56.109,57.634-76.67c5.058-8.439,17.303-24.31,22.219-32.495c3.73-6.226,6.028-13.723,7.488-21.466
		c2.854-15.051,2.59-31.045,3.786-40.464c5.199-41.01,8.873-137.903-0.64-159.981c-1.309-3.042-6.367-15.456-10.323-11.331
		c-2.326-12.716,10.323-8.599,10.323-8.599s4.465-17.952,13.413-8.788c0.462-3.805,3.014-10.86,8.675-8.044
		c4.173,2.072,10.672,6.735,15.598,10.709c0,0,1.667-0.245,4.719-2.477c3.777-2.769,7.601-5.454,11.623,3.542
		c1.479,3.287,4.775,17.905,4.361,23.905c-0.377,5.491-8.223,24.546-9.183,27.899c-5.435,18.876-11.359,44.957-12.48,61.882
		c-0.009,0.122-0.019,0.245-0.019,0.367c-1.997,31.064,5.303,56.033,11.708,69.672c5.256,11.18,44.825,63.05,50.749,88.076
		c2.562,10.841,7.968,33.607,14.712,34.888c8.449,1.611,11.981,12.744,13.422,21.004c3.607,20.769,102.695,147.011,110.597,187.945
		c5.312,27.541,4.154,67.449,7.902,100.396C525.038,718.131,517.965,729.519,514.988,738.241z"/>
</g>
<g>
	<path d="M457.571,710.342c-0.235-0.659-0.396-1.3-0.49-1.903L457.571,710.342z"/>
</g>
<g>
	<path class="st1" d="M514.988,738.241c-2.251,6.574-3.56,19.978-5.388,27.287c-2.873,11.491-13.648,5.35-14.364,0.716
		c-0.575-3.702-1.686-10.238-3.231-13.281c-3.212-6.33-32.995-32.26-34.925-44.523c-1.196,2.845-2.581,5.548-4.191,8.006
		l-32.354-67.374c0,0-11.799-6.207-24.355-59.575c0,0-2.915-29.308-27.374-40.619c-29.787-13.775-23.826-24.186-25.431-32.378
		c-5.752-29.351-53.999-33.644-62.513-1.752c-0.283,36.602-18.489,101.828-18.489,101.828
		c-9.419,62.165,5.416,120.176-14.59,126.675c-1.818-1.601-3.607-2.939-5.341-3.937c-9.334-5.388-12.951-14.477-15.08-20.467
		c-20.825-58.529-53.132-99.671-81.869-122.804c-14.722-11.849-36.922-17.124-54.47-7.959
		C61.985,603.23-52.7,685.626-76.473,710.295c-8.166,8.477-21.39,20.524-31.911,32.25c-7.62,8.505-17.585,6.009-12.207-1.611
		c5.501-7.799,16.427-42.423,28.276-45.654c2.138-10.031,3.476-19.883,5.51-30.856c4.992-26.91,84.714-128.71,110.569-168.561
		c22.483-34.662,56.551-70.03,121.73-87.257c4.267-1.13,15.07,3.645,9.353,18.235c1.771,11.199,11.114,24.489,32.119,15.513
		c24.678-10.549,45.296-56.109,57.634-76.67c5.058-8.439,17.303-24.31,22.219-32.495c3.73-6.226,6.028-13.723,7.488-21.466
		l2.119-0.48c0,0,18.518-43.949,23.227-63.418c2.703-11.18,9.344-31.883,14.505-47.481c-1.997,31.064,5.303,56.033,11.708,69.672
		c5.256,11.18,44.825,63.05,50.749,88.076c2.562,10.841,7.968,33.607,14.712,34.888c8.449,1.611,11.981,12.744,13.422,21.004
		c3.607,20.769,102.695,147.011,110.597,187.945c5.312,27.541,4.154,67.449,7.902,100.396
		C525.038,718.131,517.965,729.519,514.988,738.241z"/>
</g>
<g>
	<path class="st1" d="M460.99,800.358c-1.611,4.898-3.353,13.224-8.59,17.943c-9.494,8.534-29.029,12.047-61.656,10.427
		c-10.483-0.518-24.47-2.816-39.381-7.064c-0.32-0.151-0.622-0.301-0.923-0.461c-25.667-13.422-18.405-38.081-18.405-38.081
		c-29.472-12.885-29.623-55.195-29.623-55.195c-1.658-23.284,32.25-21.908,32.25-21.908c49.92-3.334,43.525,24.998,43.525,24.998
		c17.924-1.601,29.277,11.937,29.786,12.559c-3.918-11.912-11.303-13.226-15.855-16.483c-4.518-3.233-11.656-8.045,1.295-24.45
		c6.292-7.97,20.839-33.084,23.156-42.324c2.308-9.249,11.557-22.992,11.557-22.992s20.034-20.514,31.808,6.801
		s-2.854,64.312-2.854,64.312c-1.196,2.845-2.581,5.548-4.191,8.006c-4.417,6.81-10.483,11.811-18.697,13.177
		c-8.618,1.432-11.5,5.802-12.565,8.618c17.952,10.408,4.248,22.841,6.819,29.086C434.73,782.585,466.057,784.921,460.99,800.358z"
		/>
</g>
<g>
	<g>
		<path class="st2" d="M-44.917,658.137c-1.375,0-2.644-0.344-3.754-1.05c-2.756-1.751-6.476-7.06-0.428-22.936
			c9.749-25.59,42.921-65.603,98.594-118.928c41.366-39.622,80.395-72.198,80.785-72.522c0.8-0.666,1.987-0.558,2.653,0.241
			c0.666,0.799,0.558,1.987-0.241,2.653c-1.552,1.293-155.445,129.985-178.27,189.897c-4.323,11.348-3.279,17.012-1.072,18.416
			c2.225,1.411,6.618-0.538,10.685-4.744c18.872-19.524,53.938-50.83,90.654-74.809c55.005-35.923,100.35-56.319,142.705-64.192
			c6.009-1.117,8.61-3.081,8.522-4.534c-0.112-1.844-3.937-4.647-9.911-5.02c-17.134-1.07-40.394,5.955-40.627,6.027
			c-0.994,0.304-2.048-0.257-2.352-1.252c-0.304-0.995,0.256-2.048,1.251-2.352c0.977-0.297,24.136-7.297,41.963-6.183
			c7.393,0.462,13.169,4.139,13.437,8.552c0.142,2.331-1.176,6.53-11.594,8.467c-41.849,7.777-86.759,28-141.333,63.642
			c-36.455,23.808-71.269,54.889-90.006,74.272C-37.258,655.921-41.429,658.137-44.917,658.137z"/>
	</g>
	<g>
		<path class="st2" d="M229.248,625.395c-0.115,0-0.23-0.01-0.346-0.031c-1.023-0.19-1.698-1.174-1.508-2.197
			c0.109-0.584,10.857-58.692,11.01-79.926c0.047-6.428-0.753-9.755-2.762-11.486c-2.654-2.288-8.217-2.466-19.839-0.644
			c-43.366,6.803-118.054,34.43-155.893,63.197c-0.828,0.63-2.01,0.468-2.64-0.36s-0.469-2.01,0.36-2.639
			c38.284-29.107,113.778-57.048,157.589-63.92c11.32-1.777,18.693-2.099,22.882,1.511c3.646,3.142,4.111,8.762,4.07,14.368
			c-0.156,21.566-10.628,78.186-11.074,80.586C230.93,624.762,230.138,625.395,229.248,625.395z"/>
	</g>
	<g>
		<path class="st2" d="M503.498,693.082c-0.575,0-1.14-0.263-1.508-0.753c-41.458-55.263-71.703-115.118-91.716-154.726
			c-11.635-23.026-20.042-39.663-25.684-45.985c-6.332-7.095-15.378-9.701-23.05-6.64c-9.493,3.79-14.876,15.287-14.399,30.759
			c0.032,1.039-0.785,1.909-1.825,1.941c-1.036,0.013-1.909-0.786-1.941-1.825c-0.529-17.122,5.74-29.972,16.768-34.374
			c9.159-3.657,19.859-0.661,27.257,7.63c5.971,6.692,14.471,23.513,26.236,46.796c18.191,36.003,44.861,88.784,80.695,139.5
			c-11.615-27.389-18.052-50.686-24.312-73.338c-11.833-42.825-23.01-83.276-67.083-146.219
			c-7.897-11.279-9.885-21.547-11.337-29.044c-1.859-9.601-2.877-12.922-10.239-12.922c-1.04,0-1.884-0.843-1.884-1.884
			s0.843-1.884,1.884-1.884c10.846,0,12.211,7.049,13.938,15.973c1.465,7.564,3.287,16.978,10.725,27.599
			c44.445,63.476,55.706,104.23,67.628,147.377c7.443,26.937,15.139,54.79,31.547,89.327c0.415,0.874,0.1,1.921-0.728,2.421
			C504.168,692.994,503.831,693.082,503.498,693.082z"/>
	</g>
	<g>
		<path class="st2" d="M314.087,708.396c-6.991,1.707-13.628,3.321-13.628,14.94v0.493c0,13.85,0.02,46.283,30.727,60.994
			c0.263,0.126,0.618,0.186,0.891,0.185c0.702,0,1.293-0.395,1.617-1.07c0.45-0.938,0.185-2.063-0.753-2.513
			c-28.567-13.685-28.483-43.343-28.483-57.594v-0.495c0-8.329,3.01-9.417,10.636-11.281c18.039-4.407,42.126-7.511,54.354,2.726
			c7.393,6.191,6.913,14.368,6.892,14.712c-0.07,1.035,0.678,1.932,1.714,2.005c1.046,0.063,1.911-0.708,1.984-1.747
			c0.029-0.419,0.631-10.341-8.207-17.798C361.061,702.866,341.618,701.67,314.087,708.396z"/>
		<path class="st2" d="M359.39,721c-11.824-9.108-38.683-5.545-38.955-5.508c-4.696,0.645-7.76,2.102-9.641,4.584
			c-1.886,2.489-2.461,5.832-1.813,10.52c0.14,1.005,3.573,24.756,17.485,36.322c2.991,2.487,7.275,4.846,11.075,4.846
			c1.157,0,2.27-0.219,3.288-0.72c1.806-0.89,3.917-3.014,3.722-8.076c-0.04-1.038-0.885-1.875-1.955-1.809
			c-1.039,0.04-1.85,0.915-1.809,1.955c0.064,1.68-0.165,3.832-1.623,4.551c-2.116,1.042-6.537-0.524-10.289-3.643
			c-12.801-10.642-16.03-32.995-16.16-33.941c-0.497-3.583-0.142-6.11,1.084-7.727c1.237-1.634,3.509-2.628,7.15-3.127
			c7.073-0.972,27.355-2.009,36.144,4.76c2.249,1.732,3.493,3.799,3.801,6.318c0.126,1.033,1.057,1.769,2.099,1.641
			c1.033-0.127,1.767-1.066,1.641-2.099C364.201,726.322,362.438,723.347,359.39,721z"/>
		<path class="st2" d="M276.87,93.355c-0.04-0.029-0.089-0.055-0.133-0.082c0,0.03,0,0.082,0,0.082S276.871,93.355,276.87,93.355z"
			/>
		<path class="st2" d="M525.119,702.117c-1.587-13.967-2.297-29.366-2.984-44.258c-0.957-20.746-1.86-40.34-4.938-56.287
			c-4.649-24.089-39.118-75.377-69.529-120.628c-20.371-30.312-39.613-58.942-41.063-67.283
			c-1.615-9.291-5.516-20.743-14.926-22.532c-3.688-0.701-8.141-11.962-13.232-33.472c-4.153-17.549-23.797-46.937-38.139-68.395
			c-6.232-9.323-11.154-16.686-12.732-20.047c-3.31-7.044-13.923-32.923-11.523-69.186c0.21-3.173,0.635-6.356,1.138-10.356h0.269
			c0,0,0,0.148,0,0.147c2-16.598,7.068-36.981,11.165-51.205c0.264-0.915,1.094-3.342,2.146-6.15
			c3.554-9.482,6.726-18.311,6.99-22.145c0.429-6.222-2.884-21.115-4.536-24.801c-1.88-4.194-3.921-6.454-6.402-7.111
			c-3.096-0.823-5.86,1.197-8.073,2.817c-1.477,1.08-2.56,1.625-3.213,1.897c-5.038-4.06-10.893-8.172-15.159-10.293
			c-2.743-1.363-4.859-0.82-6.148-0.125c-2.467,1.329-3.99,4.315-4.75,7.152c-1.245-0.487-2.383-0.725-3.345-0.617
			c-5.097,0.564-8.456,6.811-9.811,9.883c-2.262-0.442-6.194-0.746-8.875,1.599c-2.242,1.96-2.972,5.179-2.17,9.564
			c0.128,0.696,0.635,1.263,1.313,1.466c0.68,0.202,1.414,0.009,1.902-0.502c0.258-0.27,0.362-0.25,0.396-0.247
			c0.694,0.126,2.729,1.411,6.654,10.594l0.181,0.424c9.221,21.4,5.792,117.253,0.499,159.001
			c-0.445,3.513-0.684,7.791-0.962,12.743c-0.711,12.702-1.661,29.436-7.076,42.456c-1.769,3.68-2.848,5.739-3.007,6.039
			c-2.402,3.993-6.688,10.01-10.835,15.832c-4.31,6.051-8.767,12.307-11.359,16.627c-2.36,3.934-5.065,8.853-7.927,14.062
			c-12.421,22.599-29.433,53.55-48.831,61.84c-8.088,3.456-14.86,3.733-20.128,0.821c-4.726-2.612-8.186-8.014-9.319-14.499
			c0.351-1.199,0.758-2.41,1.239-3.635c2.351-5.995,2.164-10.583-0.555-13.634c-3.269-3.67-9.235-3.738-12.452-2.889
			c-30.393,8.034-55.762,20.278-77.557,37.431c-17.095,13.455-31.903,30.012-45.271,50.618
			c-7.938,12.235-21.28,30.761-35.406,50.376c-33.701,46.795-71.899,99.832-75.433,118.867c-0.823,4.43-1.534,8.693-2.222,12.816
			c-0.973,5.833-1.896,11.36-3.056,16.959c-8.605,3.529-15.974,19.987-21.944,33.32c-2.509,5.603-4.675,10.441-6.25,12.672
			c-2.924,4.144-1.982,7.199-0.127,8.678c3.098,2.469,9.821,1.366,15.278-4.719c6.591-7.348,14.294-14.865,21.089-21.499
			c3.979-3.883,7.737-7.552,10.775-10.704c23.138-24.005,138.031-106.729,167.008-121.85c12.499-6.524,34.233-6.879,52.418,7.756
			c33.732,27.151,63.357,71.608,81.277,121.972c1.786,5.018,5.501,15.459,15.915,21.468c7.948,4.585,17.438,17.076,25.812,28.098
			c5.362,7.058,10.427,13.725,14.75,17.941c30.089,29.347,82.574,42.332,108.587,43.622c5.225,0.26,10.123,0.391,14.712,0.391
			c24.288-0.001,39.805-3.666,48.297-11.3c4.783-4.3,6.831-11.16,8.326-16.169c0.278-0.931,0.538-1.802,0.795-2.584
			c3.294-10.038-6.26-15.228-15.501-20.245c-5.151-2.797-10.418-5.668-13.919-9.372c2.048-5.036,1.434-15.005-0.457-19.238
			c0.142-4.717-1.636-9.903-8.856-14.58c1.799-3.115,5.377-5.188,10.456-6.035c7.619-1.269,14.036-5.534,19.073-12.673
			c1.322-1.873,2.507-3.909,3.581-6.054c4.029,8.465,14.359,19.714,22.951,29.066c4.744,5.164,9.226,10.042,10.217,11.996
			c1.031,2.031,2.058,6.312,3.05,12.723c0.573,3.694,5.015,7.238,9.319,7.434c0.108,0.005,0.224,0.008,0.346,0.008
			c2.17,0,6.618-0.913,8.388-7.992c0.794-3.175,1.471-7.343,2.188-11.754c0.939-5.774,1.91-11.744,3.153-15.384
			c0.629-1.841,1.467-3.854,2.354-5.984C522.445,724.886,526.577,714.958,525.119,702.117z M279.021,283.976
			c0.273-4.881,0.509-9.098,0.938-12.479c4.763-37.564,9.408-137.33-0.776-160.965l-0.178-0.415
			c-2.544-5.952-5.655-12.131-9.444-12.819c-0.279-0.051-0.552-0.069-0.829-0.063c-0.02-1.445,0.119-2.745,1.05-3.564
			c1.759-1.545,5.675-1.275,6.675-0.398c0-0.009,0-0.025,0-0.025c3,0.977,5.822,4.645,8.331,8.245
			c1.932,2.771,3.86,5.362,6.015,7.001c2.339,1.779,4.405,2.31,5.994,2.31c2.421,0,3.883-1.271,3.979-1.359
			c0.77-0.7,0.839-1.895,0.139-2.664c-0.699-0.769-1.883-0.829-2.655-0.128c-0.016,0.015-1.751,1.345-5.076-1.184
			c-1.684-1.28-3.343-3.663-5.101-6.185c-2.425-3.478-4.922-7.05-8.193-8.897c1.286-2.784,3.842-7.089,6.653-7.4
			c0.714-0.085,1.814,0.316,3.161,1.062c0.135,0.105,0.284,0.19,0.446,0.256c4.288,2.515,10.831,8.231,16.102,13.733
			c0.72,0.752,1.913,0.776,2.664,0.057c0.751-0.72,0.776-1.912,0.057-2.664c-1.936-2.02-9.557-9.79-16.05-13.796
			c0.494-2.329,1.625-4.824,3.088-5.612c0.478-0.258,1.275-0.517,2.683,0.182c6.05,3.006,15.918,10.608,20.993,15.55
			c4.136,4.029,7.125,6.94,3.318,17.443c-0.617,1.7-1.268,3.269-1.899,4.786c-1.307,3.145-2.541,6.116-3.317,9.832
			c-0.212,1.018,0.441,2.016,1.46,2.229c0.13,0.027,0.258,0.04,0.386,0.04c0.873,0,1.657-0.611,1.842-1.499
			c0.703-3.367,1.871-6.179,3.108-9.156c0.647-1.555,1.315-3.165,1.961-4.947c2.039-5.623,2.493-9.885,1.428-13.416
			c-0.986-3.272-3.146-5.563-5.658-8.01c-1.05-1.022-2.282-2.142-3.628-3.303c0.667-0.38,1.423-0.861,2.276-1.485
			c2.06-1.509,3.617-2.549,4.878-2.216c0.866,0.229,2.249,1.284,3.918,5.01c1.29,2.877,4.596,17.19,4.196,23
			c-0.248,3.603-4.349,14.544-6.798,21.081c-1.169,3.119-2.013,5.374-2.318,6.43c-4.116,14.292-9.075,34.767-11.409,51.559
			c-10.062,46.067-22.646,82.527-31.435,105.007c-1.716,4.39-3.356,8.425-4.896,12.103
			C278.211,298.42,278.648,290.654,279.021,283.976z M515.646,731.415c-0.911,2.188-1.772,4.256-2.441,6.214
			c-1.346,3.94-2.343,10.069-3.307,15.997c-0.704,4.331-1.369,8.423-2.125,11.444c-0.878,3.516-2.528,5.261-4.906,5.134
			c-2.84-0.129-5.522-2.663-5.767-4.247c-1.069-6.901-2.185-11.432-3.414-13.852c-1.226-2.416-5.243-6.788-10.802-12.84
			c-9.291-10.113-21.941-23.888-23.531-31.454c1.9-4.825,3.304-10.028,4.319-15.233c3.529,7.695,10.986,19.907,24.129,24.456
			c3.844,1.331,6.845,1.996,9.139,1.996c2.265,0,3.838-0.648,4.849-1.945c2.679-3.435-0.338-9.585-5.692-17.764
			c-6.098-9.316-27.502-35.892-30.616-39.749c-0.102-0.912-0.218-1.742-0.347-2.462c-2.919-16.347-10.463-27.198-20.181-29.027
			c-0.57-0.107-1.139-0.172-1.709-0.215c-11.338-16.286-19.779-31.509-28.699-47.608c-7.817-14.106-15.899-28.692-26.88-45.92
			c-8.596-13.485-15.405-15.309-19.594-14.459c-4.032,0.814-7.093,4.572-7.986,9.805c-1.084,6.355,1.126,14.735,8.509,19.134
			c23.879,14.226,27.43,40.014,27.463,40.272c0.131,1.032,1.078,1.765,2.104,1.633c1.033-0.13,1.764-1.072,1.635-2.104
			c-0.142-1.13-3.768-27.845-29.273-43.037c-5.849-3.485-7.591-10.178-6.723-15.264c0.625-3.663,2.547-6.247,5.017-6.746
			c2.013-0.407,7.542,0.035,15.672,12.791c10.918,17.13,18.972,31.665,26.761,45.72c8.631,15.577,16.815,30.338,27.619,46.082
			c-5.846,1.243-11.456,5.813-15.976,13.21c-2.367,3.871-4.624,9.554-7.238,16.135c-5.437,13.686-12.203,30.719-24.697,45.251
			c-5.489,6.385-4.989,15.116-4.965,15.485c0.068,1.038,0.968,1.831,2.002,1.758c1.038-0.068,1.825-0.964,1.758-2.002
			c-0.005-0.075-0.436-7.553,4.062-12.785c12.905-15.01,20.092-33.104,25.341-46.316c2.551-6.42,4.754-11.966,6.951-15.561
			c5.215-8.534,11.829-12.741,18.151-11.556c8.117,1.527,14.536,11.241,17.168,25.986c0.135,0.756,0.254,1.656,0.356,2.656
			c0.002,0.037,0.007,0.074,0.011,0.111c1.212,12.092-0.231,40.41-11.294,56.09c-4.435,6.286-10.025,10.031-16.615,11.129
			c-5.46,0.91-8.911,2.954-11.103,5.227c-1.232-3.854-4.198-8.01-10.407-9.509c-1.727-0.417-2.304-0.923-2.368-1.132
			c-0.337-1.115,2.919-4.637,4.865-6.74c2.341-2.533,4.763-5.152,6.255-7.887c2.374-4.352,2.885-11.414,3.476-19.59
			c0.842-11.626,1.888-26.097,8.641-38.355c2.223-4.035,4.827-6.49,7.335-6.913c1.791-0.302,3.675,0.414,5.586,2.134
			c0.773,0.698,1.966,0.633,2.66-0.14c0.696-0.774,0.634-1.965-0.14-2.66c-3.498-3.149-6.682-3.393-8.734-3.049
			c-3.717,0.627-7.177,3.675-10.008,8.811c-7.15,12.98-8.23,27.906-9.098,39.9c-0.56,7.739-1.044,14.424-3.026,18.058
			c-1.268,2.325-3.528,4.769-5.714,7.133c-3.577,3.869-6.666,7.21-5.704,10.389c0.809,2.67,4.03,3.448,5.089,3.704
			c8.685,2.095,8.28,10.593,8.257,10.973c-0.001,0.018,0.003,0.034,0.002,0.052c-0.003,0.078,0.002,0.155,0.008,0.232
			c0.004,0.042,0.004,0.085,0.011,0.127c0.013,0.083,0.035,0.164,0.059,0.245c0.009,0.031,0.014,0.063,0.025,0.094
			c0.038,0.108,0.086,0.212,0.143,0.311c0.016,0.028,0.037,0.052,0.054,0.079c0.045,0.07,0.092,0.14,0.146,0.204
			c0.028,0.033,0.061,0.061,0.091,0.093c0.05,0.051,0.1,0.102,0.156,0.147c0.04,0.033,0.084,0.061,0.128,0.09
			c0.039,0.026,0.073,0.057,0.114,0.081c10.978,6.367,8.903,12.984,6.895,19.382c-0.998,3.183-1.941,6.189-0.87,8.79
			c3.061,7.438,11.409,11.971,18.775,15.972c9.94,5.398,15.92,9.048,13.718,15.76c-0.266,0.811-0.536,1.715-0.825,2.68
			c-1.367,4.581-3.24,10.853-7.234,14.445c-4.98,4.475-13.069,7.477-24.431,9.041c-14.194,1.486-19.772-3.253-23.844-6.73
			c-3.409-2.911-6.628-5.661-12.28-0.855c-0.792,0.674-0.889,1.863-0.214,2.656c0.674,0.792,1.861,0.889,2.656,0.214
			c3.205-2.726,4.091-1.968,7.393,0.85c1.879,1.605,4.175,3.562,7.457,5.129c-5.243,0.064-10.915-0.054-17.037-0.357
			c-25.464-1.265-76.798-13.936-106.144-42.557c-4.124-4.021-9.106-10.58-14.381-17.523c-9.008-11.856-18.323-24.117-26.929-29.082
			c-8.096-4.671-11.633-12.117-14.248-19.468c-18.148-51.002-48.205-96.068-82.465-123.643
			c-14.129-11.373-37.085-18.305-56.523-8.162C60.188,602.045-53.841,684.099-77.83,708.988c-2.998,3.111-6.736,6.759-10.694,10.622
			c-6.838,6.674-14.588,14.239-21.262,21.68c-4.243,4.731-8.846,5.305-10.125,4.286c-0.781-0.622-0.026-2.306,0.858-3.559
			c1.785-2.53,4.021-7.524,6.61-13.306c5.278-11.786,13.254-29.6,20.626-31.609c0.681-0.186,1.2-0.736,1.347-1.427
			c1.282-6.038,2.265-11.926,3.305-18.162c0.685-4.106,1.394-8.352,2.21-12.748c3.38-18.205,42.973-73.181,74.786-117.353
			c14.154-19.653,27.522-38.215,35.509-50.526c18.343-28.275,50.803-68,120.63-86.458c2.323-0.615,6.687-0.482,8.677,1.752
			c2.114,2.373,1.091,6.613-0.139,9.752c-4.656,11.875-3.797,22.713,2.553,32.216c13.542,20.265,47.506,28.173,67.032,28.545
			c12.385,0.235,42.083,1.799,50.324,11.238c5.925,6.785,3.689,26.791,2.353,38.744c-0.257,2.29-0.499,4.455-0.655,6.242
			c-1.681,19.168-17.023,75.721-17.178,76.29c-0.273,1.004,0.319,2.039,1.323,2.312c1.005,0.273,2.039-0.319,2.312-1.323
			c0.636-2.337,15.586-57.448,17.295-76.95c0.153-1.743,0.382-3.787,0.646-6.153c1.497-13.382,3.757-33.606-3.258-41.64
			c-8.901-10.194-37.084-12.224-53.091-12.528c-22.593-0.429-52.692-9.993-63.971-26.871c-3.508-5.25-5.112-10.988-4.809-17.149
			c2.053,4.289,5.134,7.761,8.888,9.835c2.982,1.648,6.306,2.472,9.951,2.472c4.099-0.001,8.604-1.043,13.48-3.126
			c20.593-8.801,37.966-40.409,50.652-63.489c2.845-5.177,5.533-10.066,7.856-13.938c2.516-4.193,6.929-10.388,11.197-16.38
			c4.395-6.17,8.547-11.997,11.021-16.117c0.014-0.024,0.026-0.049,0.04-0.073c0.002-0.003,0.005-0.006,0.007-0.009
			c0.002-0.005,0.014-0.027,0.032-0.062c1.169-1.964,2.19-4.055,3.1-6.228c3.036-6.322,8.029-17.265,13.871-32.201
			c7.39-18.894,17.444-47.608,26.455-83.561c0.199,29.691,8.37,50.579,12.229,58.791c1.7,3.617,6.691,11.084,13.011,20.539
			c13.383,20.023,33.608,50.281,37.605,67.17c4.944,20.884,9.59,35.05,16.195,36.305c7.677,1.46,10.762,12.829,11.917,19.476
			c1.589,9.131,19.267,35.436,41.648,68.739c28.716,42.727,64.453,95.902,68.957,119.24c3.026,15.679,3.923,35.142,4.873,55.746
			c0.69,14.954,1.403,30.417,3.004,44.51C522.724,714.413,518.799,723.84,515.646,731.415z M465.899,666.111
			c7.07,8.827,22.22,27.904,27.044,35.276c6.718,10.262,6.346,12.778,5.874,13.384c-0.132,0.168-1.522,1.566-9.785-1.294
			c-16.259-5.629-23.216-25.214-24.183-28.17C465.769,678.256,466.036,671.531,465.899,666.111z"/>
		<path class="st2" d="M444.145,803.91c0.298-0.081,0.56-0.228,0.774-0.422c-0.072,0.206-0.169,0.405-0.293,0.596
			c-0.567,0.873-0.317,2.039,0.556,2.605c0.316,0.206,0.671,0.304,1.023,0.304c0.617,0,1.221-0.303,1.582-0.859
			c1.882-2.901,0.972-6.449-0.901-8.453c-1.5-1.608-3.061-1.612-4.024-1.076c-2.292,1.273-1.339,4.813-1.027,5.976
			C442.107,803.584,443.143,804.181,444.145,803.91z"/>
		<path class="st2" d="M454.112,804.838c0.183,0,0.369-0.028,0.553-0.084c0.994-0.304,1.554-1.359,1.249-2.353
			c-0.064-0.209-0.115-0.421-0.155-0.634c0.739-0.178,1.325-0.797,1.428-1.595c0.453-3.572,0.171-5.085-1.082-5.784
			c-0.762-0.424-1.676-0.333-2.382,0.237c-1.491,1.205-2.435,5.538-1.411,8.879C452.561,804.317,453.307,804.838,454.112,804.838z"
			/>
	</g>
	<g>
		<path class="st2" d="M399.767,775.389c-3.174,9.042-26.401,15.909-31.648,0c0-1.884,0.17-3.589,0.499-5.114
			c0.386-1.874,0.989-3.494,1.771-4.86C377.02,753.819,396.093,759.706,399.767,775.389z"/>
	</g>
</g>
<g>
	<path class="st0" d="M385.996,768.381c-0.471,2.666-4.502,1.563-10.05,1.563c-2.543,0-5.199,0.226-7.328,0.33
		c0.386-1.874,0.701-2.743,1.287-3.937c0.483-0.923,2.838-1.413,4.157-1.413C382.539,764.924,386.241,767.015,385.996,768.381z"/>
</g>
<g>
	<path class="st0" d="M391.765,777.758c0,0.91-0.765,1.354-1.766,1.648c-0.936,0.275-2.531,0.204-2.531-0.706
		s1.589-2.339,2.531-2.59C390.882,775.874,391.765,776.847,391.765,777.758z"/>
</g>
</svg>
