<svg id="expanded" xmlns="http://www.w3.org/2000/svg" viewBox="-124 71.988 649.42 759.012">
  <style>
    .st0{fill:#FFFFFF;} .st1{fill:#F2B8AD;} .st2{fill:#8C0C06;}
  </style>
  <path class="st0" d="M291 82.6c-9-9.2-13.5 8.7-13.5 8.7s-12.7-4-10.4 8.6c4-4.2 9 8.2 10.5 11.3 9.5 22 5.8 119 .6 160-1.7 14.2-.2 43.6-11.2 62-5 8-17 24-22.2 32.4-12.3 20.5-33 66-57.6 76.7-21 9-30.4-4.4-32.2-15.6 5.8-14.5-5-19.3-9.3-18.2-65.2 17.2-99.3 52.6-121.7 87.3-26 39.7-105.6 141.5-110.6 168.4-2 11-3.4 21-5.5 31-12 3-22.8 37.7-28.3 45.5-5.4 7.6 4.6 10 12.2 1.5 10.5-11.7 23.8-23.7 32-32.2C-52.8 685.6 62 603.3 91 588c17.6-9 39.8-3.8 54.5 8 28.7 23.2 61 64.3 82 122.8 2 6 5.6 15 15 20.5 13.3 7.7 29.8 35.5 41 46.3 29 28.4 80 41.8 107.2 43 32.7 1.7 52.2-1.8 61.7-10.3 5.2-4.7 7-13 8.6-18 5-15.4-26.3-17.7-32.6-33-2.5-6.2 11.2-18.6-6.8-29 1-3 4-7.2 12.6-8.7 11.2-1.8 18.4-10.4 23-21.2 1.8 12.3 31.6 38.2 34.8 44.6 1.6 3 2.7 9.5 3.2 13.2.8 4.7 11.5 10.8 14.4-.7 1.8-7.3 3-20.7 5.4-27.3 3-8.7 10-20 8.2-36-3.7-32.8-2.5-72.7-8-100.3-7.8-41-106.8-167.2-110.5-188-1.4-8.3-5-19.4-13.4-21-6.7-1.3-12-24-14.7-35-6-25-45.5-76.8-50.7-88-6.6-13.7-14-38.8-11.8-70 1-17 7-43 12.5-62 1-3.3 8.8-22.3 9-27.8.6-6-2.7-20.6-4.2-24-4-9-8-6.2-11.6-3.5-3.2 2.3-5 2.5-5 2.5-4.8-4-11.3-8.6-15.5-10.7-5.6-2.8-8.2 4.3-8.6 8z"/>
  <path class="st0" d="M515 738.2c-2.3 6.6-3.6 20-5.4 27.3-3 11.5-13.6 5.4-14.4.7-.5-3.7-1.6-10.2-3.2-13.2-3-6-30-29.8-34.4-42.7-.3-.6-.4-1.3-.5-2-1 3-2.5 5.7-4 8-4.5 7-10.6 12-18.8 13.3-8.6 1.5-11.5 5.8-12.6 8.6 18 10.4 4.3 23 6.8 29 6.3 15.4 37.7 17.7 32.6 33.2-1.6 5-3.4 13.2-8.6 18-9.5 8.4-29 12-61.7 10.3-10.4-.5-24.4-2.8-39.3-7-24-6.8-50-18.6-68-36-9.7-9.5-23.4-31.7-35.6-42.4-1.8-1.6-3.6-3-5.4-4-9.3-5.4-13-14.5-15-20.5-21-58.5-53.2-99.6-82-122.8-14.6-11.8-36.8-17-54.4-8-29 15.2-143.7 97.6-167.5 122.3-8 8.5-21.4 20.5-32 32.2-7.5 8.5-17.5 6-12-1.6 5.4-8 16.3-42.5 28.2-45.7 2-10 3.5-20 5.5-31C-81.8 637.6-2 535.8 23.8 496c22.4-34.8 56.5-70.2 121.7-87.4 4.3-1 15 3.7 9.3 18.2 1.8 11.2 11.2 24.5 32.2 15.6 24.6-10.6 45.3-56.2 57.6-76.7 5-8.5 17.3-24.3 22.2-32.5 3.7-6.2 6-13.7 7.5-21.5 3-15 2.6-31 3.8-40.4 5.3-41 9-138-.5-160-1.4-3-6.4-15.5-10.4-11.4-2.2-12.8 10.5-8.7 10.5-8.7s4.4-18 13.4-8.7c.3-3.8 3-11 8.5-8 4.2 2 10.7 6.7 15.6 10.6 0 0 1.8-.2 5-2.5 3.6-2.7 7.5-5.4 11.5 3.6 1.5 3.3 4.8 18 4.3 24-.3 5.4-8.2 24.4-9 27.8-5.6 19-11.5 45-12.6 62v.3c-2 31 5.3 56 11.7 69.7 5 11.2 44.7 63 50.6 88 2.6 11 8 33.7 14.7 35 8.5 1.6 12 12.7 13.5 21 3.6 20.8 102.6 147 110.5 188 5.4 27.5 4.2 67.4 8 100.3 1.7 15.8-5.3 27.2-8.3 36z"/>
  <path d="M457.6 710.3c-.3-.6-.4-1.3-.5-2l.6 2z"/>
  <path class="st1" d="M515 738.2c-2.3 6.6-3.6 20-5.4 27.3-3 11.5-13.6 5.4-14.4.7-.5-3.7-1.6-10.2-3.2-13.2-3.2-6.4-33-32.3-35-44.6-1 3-2.5 5.6-4 8L420.4 649s-11.8-6-24.3-59.5c0 0-3-29.3-27.4-40.6-29.8-14-23.8-24.3-25.4-32.5-5.8-29.4-54-33.6-62.5-1.8-.4 36.6-18.6 102-18.6 102-9.4 62 5.4 120-14.6 126.6-1.8-1.7-3.6-3-5.4-4-9.3-5.4-13-14.5-15-20.5-21-58.5-53.2-99.6-82-122.8-14.6-11.8-36.8-17-54.4-8-29 15.2-143.7 97.6-167.5 122.3-8 8.5-21.4 20.5-32 32.2-7.5 8.5-17.5 6-12-1.6 5.4-8 16.3-42.5 28.2-45.7 2-10 3.5-20 5.5-31C-81.8 637.6-2 535.8 23.8 496c22.4-34.8 56.5-70.2 121.7-87.4 4.3-1 15 3.7 9.3 18.2 1.8 11.2 11.2 24.5 32.2 15.6 24.6-10.6 45.3-56.2 57.6-76.7 5-8.5 17.3-24.3 22.2-32.5 3.7-6.2 6-13.7 7.5-21.5l2-.5s18.6-44 23.4-63.4c2.7-11.2 9.3-32 14.5-47.5-2 31 5.3 56 11.7 69.7 5 11.2 44.7 63 50.6 88 2.6 11 8 33.7 14.7 35 8.5 1.6 12 12.7 13.4 21 3.7 20.8 102.7 147 110.6 188 5.4 27.5 4.2 67.4 8 100.3 1.7 15.8-5.3 27.2-8.3 36z"/>
  <path class="st1" d="M461 800.4c-1.6 5-3.4 13.2-8.6 18-9.5 8.4-29 12-61.7 10.3-10.4-.5-24.4-2.8-39.3-7l-1-.5c-25.6-13.4-18.4-38-18.4-38-29.4-13-29.6-55.3-29.6-55.3-1.6-23.4 32.3-22 32.3-22 50-3.3 43.5 25 43.5 25 18-1.6 29.3 12 29.8 12.6-4-12-11.3-13.3-16-16.5-4.4-3-11.5-8 1.4-24.4 6.3-8 21-33 23.2-42.3 2.3-9.2 11.5-23 11.5-23s20.2-20.5 32 6.8-3 64.4-3 64.4c-1 3-2.5 5.6-4 8-4.5 7-10.6 12-18.8 13.2-8.6 1.5-11.5 5.8-12.6 8.6 18 10.4 4.3 23 6.8 29 6.3 15.4 37.7 17.7 32.6 33.2z"/>
  <path class="st2" d="M-45 658c-1.3 0-2.6-.2-3.7-1-2.7-1.7-6.4-7-.4-22.8 9.7-25.6 42.8-65.7 98.5-119C91 475.6 130 443 130.3 442.7c.8-.7 2-.6 2.6.2.6.7.5 2-.3 2.6-1.6 1.3-155.5 130-178.3 190-4.3 11.2-3.3 17-1 18.3 2.2 1.3 6.6-.6 10.6-4.8 19-19.6 54-51 90.7-74.8 55-36 100.3-56.4 142.7-64.2 6-1.2 8.6-3 8.5-4.6-.2-1.8-4-4.6-10-5-17-1-40.4 6-40.6 6-1 .3-2-.2-2.4-1.2-.3-1 .3-2 1.3-2.4 1-.3 24-7.3 42-6.2 7.3.5 13 4.2 13.4 8.6 0 2.3-1.2 6.5-11.6 8.5-41.8 7.6-86.7 28-141.3 63.5-36.4 23.8-71.2 55-90 74.3-4 4-8 6.3-11.6 6.3z"/>
  <path class="st2" d="M229.2 625.4h-.3c-1-.2-1.8-1.2-1.6-2.2 0-.6 11-58.7 11-80 0-6.4-.7-9.7-2.8-11.4-2.6-2.3-8.2-2.5-19.8-.7-43.4 7-118 34.5-156 63.3-.7.6-2 .5-2.5-.4s-.5-2 .3-2.7c38.3-29 113.8-57 157.6-64 11.3-1.7 18.7-2 23 1.6 3.5 3 4 8.7 4 14.3-.2 21.5-10.7 78.2-11 80.6-.3.8-1 1.4-2 1.4zM503.5 693c-.6 0-1-.2-1.5-.7-41.5-55.2-71.7-115-91.7-154.7-11.7-23-20-39.7-25.7-46-6.3-7-15.4-9.7-23-6.6-9.6 3.8-15 15.3-14.5 30.7.2 1-.6 2-1.7 2-1 0-2-.8-2-1.8-.5-17.3 5.8-30 16.8-34.5 9.3-3.7 20-.7 27.4 7.6 6 6.8 14.5 23.6 26.2 47 18.2 36 45 88.7 80.7 139.4-11.6-27.4-18-50.7-24.3-73.3-11.8-42.8-23-83.2-67-146.2-8-11.2-10-21.5-11.4-29-2-9.6-3-13-10.2-13-1 0-2-.8-2-1.8s1-2 2-2c10.8 0 12.2 7.2 14 16 1.4 7.7 3.2 17 10.6 27.7 44.5 63.5 55.7 104.2 67.7 147.4 7.4 27 15 55 31.5 89.4.4 1 0 2-.7 2.4-.3.2-.7.3-1 .3zM314 708.4c-7 1.7-13.5 3.3-13.5 15v.4c0 14 0 46.3 30.7 61l1 .2c.6 0 1.2-.4 1.5-1 .4-1 .2-2-.8-2.6-28.6-13.7-28.5-43.3-28.5-57.6v-.5c0-8.3 3-9.4 10.6-11.2 18-4.4 42.2-7.5 54.4 2.8 7.4 6.2 7 14.3 7 14.7 0 1 .6 2 1.7 2 1 0 2-.7 2-1.7 0-.5.7-10.4-8.2-17.8-10.7-9-30.2-10.3-57.7-3.6z"/>
  <path class="st2" d="M359.4 721c-11.8-9-38.7-5.5-39-5.5-4.7.6-7.7 2-9.6 4.6-2 2.6-2.5 6-1.8 10.6 0 1 3.6 24.8 17.5 36.3 3 2.4 7.2 4.8 11 4.8 1.2 0 2.3-.3 3.3-.8 1.8-.8 4-3 3.8-8 0-1-1-2-2-1.8-1 0-2 1-1.8 2 0 1.6-.2 3.7-1.6 4.5-2.2 1-6.6-.6-10.3-3.7-13-10.6-16.2-33-16.3-34-.5-3.5 0-6 1-7.6 1.3-1.7 3.6-2.7 7.2-3.2 7-1 27.3-2 36 4.8 2.3 1.7 3.6 3.8 4 6.3 0 1 1 1.8 2 1.6 1-.2 1.8-1 1.6-2.2-.4-3.5-2.2-6.5-5.2-8.8zM277 93.4h-.3.2z"/>
  <path class="st2" d="M525 702c-1.5-14-2.2-29.2-3-44-.8-21-1.7-40.5-4.8-56.4-4.7-24-39-75.4-69.5-120.7-20.4-30.4-39.6-59-41-67.3-1.7-9.3-5.6-20.8-15-22.6-3.7-.6-8.2-11.8-13.3-33.3-4-17.6-23.7-47-38-68.4-6.3-9.4-11.2-16.7-12.8-20-3.3-7-14-33-11.5-69.3l1.2-10.3h.3c2-16.5 7-37 11-51l2.3-6.2c3.5-9.5 6.7-18.3 7-22.2.4-6.2-3-21-4.6-24.8-2-4.2-4-6.4-6.4-7-3-1-5.8 1-8 2.7l-3.3 2c-5-4-11-8.3-15-10.4-3-1.3-5-.8-6.3 0-2.4 1.2-4 4.2-4.7 7-1.3-.4-2.4-.7-3.4-.6-5 .6-8.3 6.8-9.7 10-2.2-.5-6.2-.8-9 1.5-2 2-2.8 5.2-2 9.6 0 .7.6 1.2 1.3 1.5.7.2 1.4 0 2-.6l.3-.2c.6 0 2.6 1.4 6.5 10.6l.2.4c9.2 21.4 5.8 117.3.5 159-.4 3.5-.7 7.8-1 12.8-.6 12.7-1.6 29.4-7 42.4l-3 6c-2.4 4-6.7 10-11 16-4.2 6-8.6 12.2-11.2 16.5-2.4 4-5 9-8 14-12.4 22.7-29.4 53.6-48.8 62-8 3.4-14.8 3.7-20 .7-4.8-2.6-8.3-8-9.4-14.5.3-1.3.7-2.5 1.2-3.7 2.4-6 2.2-10.6-.5-13.6-3.3-3.7-9.3-3.8-12.5-3-30.4 8-55.8 20.4-77.5 37.5-17 13.5-32 30-45.3 50.6-8 12.3-21.3 30.8-35.4 50.4-33.7 46.8-72 99.8-75.5 119l-2.2 12.7c-.8 5.7-1.8 11.3-3 17-8.5 3.4-16 19.8-22 33.2-2.4 5.6-4.6 10.4-6 12.6-3 4.2-2 7.2-.3 8.7 3 2.5 10 1.4 15.3-4.7 6.6-7.3 14.3-15 21-21.5 4-4 8-7.5 11-10.7 23-24 138-106.7 167-122 12.4-6.4 34-6.7 52.3 8 33.7 27 63.4 71.5 81.3 122 1.8 5 5.5 15.3 16 21.3 8 4.5 17.3 17 25.7 28 5.4 7 10.4 13.8 14.8 18 30.2 29.3 82.6 42.3 108.7 43.6 5.2.3 10 .4 14.7.4 24.3 0 39.8-3.7 48.3-11.3 4.7-4.3 6.8-11.2 8.3-16.2l.8-2.6c3.3-10-6.3-15.3-15.5-20.3-5.2-2.8-10.4-5.7-14-9.4 2-5 1.5-15-.4-19.2 0-4.6-1.7-9.8-9-14.5 2-3 5.4-5.2 10.5-6 7.6-1.3 14-5.6 19-12.7 1.4-2 2.6-4 3.7-6 4 8.4 14.3 19.7 23 29 4.7 5.2 9 10 10 12 1.2 2 2.2 6.3 3.2 12.7.6 3.7 5 7.3 9.3 7.5h.3c2.2 0 6.7-1 8.4-8 .8-3.2 1.5-7.4 2.2-11.8 1-5.7 2-11.7 3.2-15.4l2.3-6c3.4-8 7.6-17.8 6-30.7zM279 284c.3-5 .5-9 1-12.5 4.7-37.6 9.4-137.3-.8-161l-.2-.4c-2.5-5.8-5.7-12-9.4-12.7h-1c0-1.5.3-2.8 1.2-3.6 1.7-1.6 5.7-1.3 6.7-.4 3 1 5.8 4.6 8.3 8.2 2 2.8 3.8 5.4 6 7 2.3 1.8 4.4 2.3 6 2.3 2.4 0 4-1.3 4-1.4.7-.7.8-1.8 0-2.6-.6-.8-1.8-.8-2.5 0 0 0-1.8 1.2-5-1.3-1.8-1.3-3.5-3.7-5.2-6.2-2.3-3.5-4.8-7-8-9 1.2-2.7 3.7-7 6.5-7.3.8 0 2 .3 3.2 1 0 .2.3.2.5.3 4.2 2.5 10.8 8.2 16 13.7.8.8 2 .8 2.7 0 .7-.6.7-1.8 0-2.6-2-2-9.6-9.8-16-13.8.4-2.3 1.5-4.8 3-5.6.5-.2 1.3-.5 2.7.2 6 3 16 10.6 21 15.6 4 4 7 7 3.3 17.4l-2 4.8c-1.2 3-2.4 6-3.2 9.8-.2 1 .4 2 1.4 2.2h.4c1 0 1.7-.5 2-1.4.6-3.4 1.7-6.2 3-9.2l2-5c2-5.5 2.4-9.8 1.4-13.3-1-3.2-3.2-5.5-5.7-8l-3.6-3.2 2.3-1.5c2-1.5 3.6-2.6 4.8-2.2 1 .3 2.3 1.3 4 5 1.3 3 4.6 17.3 4.2 23-.3 3.7-4.4 14.6-6.8 21l-2.4 6.6c-4 14.3-9 34.7-11.4 51.5-10 46.2-22.6 82.7-31.4 105-1.7 4.5-3.4 8.6-5 12.2 1.2-7.8 1.6-15.5 2-22.2zm236.6 447.4c-1 2.2-1.7 4.3-2.4 6.2-1.3 4-2.3 10-3.3 16-.8 4.4-1.5 8.4-2.2 11.5-1 3.6-2.6 5.3-5 5.2-2.8 0-5.5-2.7-5.7-4.2-1-7-2-11.5-3.3-14-1.2-2.3-5.3-6.7-10.8-12.7-9.4-10-22-24-23.6-31.5 2-4.8 3.3-10 4.3-15.2 3.5 7.7 11 20 24 24.4 4 1.4 7 2 9.2 2 2.2 0 3.8-.6 4.8-2 2.7-3.3-.3-9.5-5.7-17.7-6-9.3-27.4-36-30.5-39.7 0-1-.2-1.8-.4-2.5-2.8-16.2-10.3-27-20-29h-1.8c-11.3-16.4-19.7-31.6-28.7-47.7-7.8-14-16-28.7-26.8-46C379 521 372.3 519 368 520c-4 .7-7 4.5-8 9.7-1 6.3 1.2 14.7 8.6 19 24 14.3 27.4 40 27.5 40.4.2 1 1 2 2.2 1.7 1 0 1.7-1 1.6-2 0-1.2-3.8-28-29.3-43-5.8-3.6-7.6-10.3-6.7-15.4.6-3.6 2.5-6.2 5-6.7 2-.4 7.6 0 15.7 12.8 11 17 19 31.6 26.7 45.7 8.7 15.7 17 30.4 27.7 46.2-6 1.2-11.6 5.8-16 13.2-2.5 3.8-4.7 9.5-7.3 16-5.5 13.8-12.2 30.8-24.7 45.4-5.5 6.3-5 15-5 15.4 0 1 1 2 2 1.8 1 0 1.8-1 1.8-2 0 0-.5-7.5 4-12.8 13-15 20-33 25.4-46.3 2.5-6.5 4.7-12 7-15.7 5-8.5 11.7-12.7 18-11.5 8.2 1.5 14.6 11.2 17.2 26l.4 2.6c1.2 12.2-.2 40.5-11.3 56.2-4.4 6.3-10 10-16.6 11.2-5.6 1-9 3-11.2 5.2-1.3-4-4.2-8-10.4-9.5-1.8-.4-2.3-1-2.4-1.2-.3-1 3-4.6 5-6.7 2.2-2.5 4.6-5 6-8 2.5-4.2 3-11.3 3.6-19.5.8-11.5 2-26 8.6-38.2 2.3-4 5-6.5 7.4-7 1.8-.2 3.7.5 5.6 2.2.7.7 2 .6 2.6 0 .7-1 .7-2 0-2.8-3.6-3.2-6.8-3.4-8.8-3-3.8.6-7.2 3.6-10 8.8-7.2 13-8.3 28-9.2 40-.5 7.6-1 14.3-3 18-1.2 2.2-3.5 4.7-5.7 7-3.5 4-6.6 7.3-5.6 10.4.8 2.7 4 3.5 5 3.7 8.8 2.2 8.4 10.7 8.3 11v.8h.2v.4s0 .2.2.3l.2.2h.2v.2c11 6.2 9 13 7 19.2-1 3.2-2 6.2-1 8.8 3.2 7.5 11.5 12 19 16 9.8 5.4 15.8 9 13.6 15.8l-.8 2.7C457 807 455 813.3 451 817c-4.8 4.4-13 7.4-24.3 9-14.2 1.4-19.8-3.3-23.8-6.8-3.5-3-6.8-5.7-12.4-.8-.8.6-1 1.8-.2 2.6.6.8 1.8 1 2.6.2 3.2-2.7 4-2 7.4 1 2 1.5 4.2 3.4 7.5 5-5.4 0-11 0-17.2-.4-25.4-1.2-76.8-14-106-42.5-4.2-4-9.2-10.6-14.5-17.5-9-12-18.3-24.2-27-29-8-4.8-11.5-12.2-14.2-19.6-18-51-48-96-82.3-123.6-14.2-11.4-37-18.3-56.5-8.2-30 15.6-144 97.7-168 122.6l-10.7 10.6c-7 6.7-14.6 14.2-21.3 21.7-4.2 4.7-8.8 5.3-10 4.3-1-.6 0-2.3.7-3.6 1.7-2.5 4-7.5 6.6-13.3 5.2-11.8 13.2-29.6 20.6-31.6.7 0 1.2-.6 1.3-1.3 1.3-6 2.3-12 3.3-18.2l2.2-12.7c3.4-18.2 43-73.2 74.8-117.4C4 527.8 17.4 509.2 25.3 497 43.7 468.5 76 429 146 410.3c2.3-.6 6.7-.5 8.6 1.8 2.2 2.4 1 6.6 0 9.7-4.7 11.8-4 22.6 2.5 32 13.6 20.4 47.6 28.3 67 28.7 12.5.2 42.2 1.8 50.4 11.2 6 6.7 3.7 26.7 2.4 38.7l-.7 6.2c-1.6 19-17 75.6-17 76.2-.3 1 .3 2 1.3 2.3 1 .3 2-.3 2.3-1.3.6-2.3 15.6-57.5 17.3-77 0-1.7.2-3.7.5-6 1.5-13.5 3.8-33.7-3.2-41.7-9-10.2-37-12.3-53-12.6-22.7-.5-52.8-10-64-27-3.6-5.2-5.2-11-5-17 2 4.2 5.2 7.7 9 9.7 3 1.7 6.3 2.5 10 2.5 4 0 8.5-1 13.4-3 20.6-9 38-40.5 50.7-63.6l7.8-14c2.5-4 7-10.3 11.2-16.3 4.4-6.2 8.6-12 11-16v-.2c1.3-2 2.3-4 3.2-6.2 3-6.3 8-17.3 14-32.2 7.3-19 17.3-47.6 26.3-83.6 0 29.7 8.3 50.6 12.2 58.8 1.7 3.6 6.7 11 13 20.6 13.4 20 33.6 50.2 37.6 67 5 21 9.6 35.2 16.2 36.4 7.7 1.5 10.7 13 12 19.5 1.5 9 19.2 35.4 41.5 68.7 28.8 42.8 64.5 96 69 119.3 3 15.7 4 35 5 55.7.6 15 1.3 30.5 3 44.5 1.2 12-2.7 21.3-6 29zM466 666c7 9 22 28 27 35.4 6.7 10.2 6.3 12.8 5.8 13.4 0 0-1.5 1.5-9.8-1.3-16.2-5.7-23.2-25.2-24.2-28.2 1-7 1.2-13.8 1-19.2z"/>
  <path class="st2" d="M444 804l1-.5-.4.6c-.5 1-.3 2 .6 2.7.3.2.7.3 1 .3.6 0 1.2-.3 1.6-1 2-2.8 1-6.3-1-8.3-1.4-1.6-3-1.6-4-1-2.2 1.2-1.3 4.7-1 6 .3 1 1.3 1.5 2.3 1.2zM454 804.8h.7c1-.3 1.5-1.4 1.2-2.4l-.2-.6c.7-.2 1.3-.8 1.4-1.6.4-3.6.2-5-1-5.8-1-.4-1.8-.3-2.5.2-1.5 1.2-2.4 5.6-1.4 9 .3.7 1 1.2 1.8 1.2z"/>
  <g>
    <path class="st2" d="M399.8 775.4c-3.2 9-26.4 16-31.7 0 0-2 .3-3.6.6-5 .4-2 1-3.6 1.8-5 6.6-11.6 25.7-5.7 29.4 10z"/>
  </g>
  <g>
    <path class="st0" d="M386 768.4c-.5 2.6-4.5 1.5-10 1.5-2.6 0-5.3.2-7.4.3.4-2 .7-2.8 1.3-4 .4-1 2.7-1.4 4-1.4 8.5 0 12.2 2 12 3.4z"/>
  </g>
  <g>
    <path class="st0" d="M391.8 777.8c0 1-.8 1.3-1.8 1.6-1 .3-2.5.2-2.5-.7s1.6-2.3 2.5-2.6c1 0 1.8.8 1.8 1.8z"/>
  </g>
</svg>
