<svg id="meep" xmlns="http://www.w3.org/2000/svg" viewBox="-216 271.5 46.7 99.6">
  <style>
    .st0{fill:#D1B26B;} .st1{fill:none;stroke:#945553;stroke-miterlimit:10;} .st2{fill:#EFD7A5;stroke:#945553;stroke-miterlimit:10;} .st3{opacity:0.2;fill:#945553;enable-background:new ;}
  </style>
  <ellipse id="head" class="st0" cx="-190.7" cy="291.3" rx="21.4" ry="19.8"/>
  <ellipse id="abdomen" class="st0" cx="-202" cy="343.6" rx="10.4" ry="13.2"/>
  <path id="neck" class="st0" d="M-171.8 300.7l-12 13-7 9.4-3 7.4 2 13.2-20-4.6 5.3-12 3.5-14-7-13.3z"/>
  <path id="foots" class="st0" d="M-211.8 339l-2.4 9-1.8 15 5.8-7 5.4 3v11.6l9-11.7 3.8-12.2z"/>
  <path id="rightStripe" class="st1" d="M-208 303.7l1.5-3 2.5-7.5-5.5-11"/>
  <ellipse id="rightEye" class="st2" cx="-206.5" cy="293.7" rx="3.5" ry="6"/>
  <path id="leftStripe" class="st1" d="M-181.3 311l-9.4-7.5 1.7-8 19.5-7.2"/>
  <ellipse id="leftEye" class="st2" cx="-187.3" cy="298.3" rx="4.6" ry="6.6"/>
  <path id="neckShadow" class="st3" d="M-203 313l-1.8 7.2 2.8 4.7 13.8-5.3 4.4-6 4.8-5.3-12.8 4.4-9.4-1.6-5.6-5.2z"/>
  <path id="footShadow" class="st3" d="M-204.8 371v-12l-5.4-3-5.8 7 4.2-8.2 4-1 5.8 9 6.2-4z"/>
</svg>
