<?xml version="1.0" encoding="utf-8"?>
<!-- Generator: Adobe Illustrator 19.1.0, SVG Export Plug-In . SVG Version: 6.00 Build 0)  -->
<svg version="1.1" id="meep" xmlns="http://www.w3.org/2000/svg" xmlns:xlink="http://www.w3.org/1999/xlink" x="0px" y="0px"
	 viewBox="-216 271.5 46.7 99.6" style="enable-background:new -216 271.5 46.7 99.6;" xml:space="preserve">
<style type="text/css">
	.st0{fill:#D1B26B;}
	.st1{fill:none;stroke:#945553;stroke-miterlimit:10;}
	.st2{fill:#EFD7A5;stroke:#945553;stroke-miterlimit:10;}
	.st3{opacity:0.2;fill:#945553;enable-background:new    ;}
</style>
<ellipse id="head" class="st0" cx="-190.7" cy="291.3" rx="21.4" ry="19.8"/>
<ellipse id="abdomen" class="st0" cx="-202" cy="343.6" rx="10.4" ry="13.2"/>
<polygon id="neck" class="st0" points="-171.8,300.7 -183.8,313.7 -190.7,323.1 -193.8,330.4 -191.7,343.6 -211.8,339 -206.5,327.1 
	-203,313.1 -210,299.7 "/>
<polygon id="foots" class="st0" points="-211.8,339 -214.2,347.9 -216,362.9 -210.2,356.1 -204.8,359.1 -204.8,370.6 -195.8,358.9 
	-192,346.8 "/>
<polyline id="rightStripe" class="st1" points="-208,303.7 -206.5,300.6 -204,293.2 -209.5,282.1 "/>
<ellipse id="rightEye" class="st2" cx="-206.5" cy="293.7" rx="3.5" ry="6"/>
<polyline id="leftStripe" class="st1" points="-181.3,311.1 -190.7,303.5 -189,295.6 -169.5,288.3 "/>
<ellipse id="leftEye" class="st2" cx="-187.3" cy="298.3" rx="4.6" ry="6.6"/>
<polygon id="neckShadow" class="st3" points="-203,313.1 -204.8,320.2 -202,324.9 -188.2,319.7 -183.8,313.7 -179,308.4 
	-191.8,312.8 -201.2,311.2 -206.8,306 "/>
<polygon id="footShadow" class="st3" points="-204.8,371.1 -204.8,359.1 -210.2,356.1 -216,362.9 -211.8,354.8 -207.8,353.7 
	-202,362.7 -195.8,358.9 "/>
</svg>
