<?xml version="1.0" encoding="utf-8"?>
<!-- Generator: Adobe Illustrator 19.1.0, SVG Export Plug-In . SVG Version: 6.00 Build 0)  -->
<svg version="1.1" id="Layer_4" xmlns="http://www.w3.org/2000/svg" xmlns:xlink="http://www.w3.org/1999/xlink" x="0px" y="0px"
	 viewBox="0 0 203.5 837.6" style="enable-background:new 0 0 203.5 837.6;" xml:space="preserve">
<style type="text/css">
	.st0{fill:#FFFFFF;}
	.st1{fill:#95C4D8;}
	.st2{fill:#A1CDD1;}
</style>
<path class="st0" d="M199.6,571.7c-0.2-1.6-0.2-3.2-0.9-4.7c-1.8-4-1.5-8.3-2.1-12.4c-0.1-0.9-0.1-1.9,1.2-2.2l0.4-4.4
	c0,0,0,0-0.1,0c-0.3-0.1-0.7-0.3-0.8-0.5c-0.2-0.4-0.2-0.9-0.1-1.3c0.2-4.1,0.4-8.2,0.8-12.3c0.6-8.1,1.5-16.2,1.4-24.3
	c0-0.5,0-0.9,0.1-1.4c0.6-7.4,1.2-14.8,1.4-22.2c0-0.9,0.1-1.8,0.2-2.7c0.5-5.7,0.5-11.4,0.1-17.1c-0.5-8.4-1.3-16.9-1.9-25.3
	c-0.1-0.6-0.2-1.1-0.2-1.7c-1-9.2-3.7-17.9-6.4-26.6c-0.8-2.4-1.3-4.9-2.3-7.2c-4.1-9.3-8.2-18.6-12.4-27.9c-0.4-0.9-1-1.8-1.6-2.6
	c-3.2-5.1-6.6-10.2-9.6-15.4c-2.9-5.2-6.5-9.9-9.8-14.9c-2.3-3.5-4.8-6.9-7.2-10.4c-5.8-8.4-12-16.4-19-23.8
	c-5.2-5.5-9.6-11.6-12.6-18.7c-0.7-1.8-1.7-3.5-2.8-5.1c-2.9-4.1-3.9-8.8-5.2-13.6l-0.6-1.8c-0.5,0.2-0.6-0.3-0.6-0.6
	c-0.1-0.3,0-0.7,0-1l0.1-4.7c-0.8-0.4-1.1-1.2-1.2-2c-0.5-2.3-1.1-4.7-1.1-7.1c-0.1-5.6,0.4-11.2,0.9-16.8c0-0.2,0-0.4,0.1-0.7
	c0.3-3,0.9-5.8,2.1-8.6c1.3-2.8,2.3-5.8,2.9-8.8c1-5.2,2.7-10.2,5-14.9c4.2-8.5,7.2-17.5,10.5-26.4c2.7-7.3,4.6-14.8,7-22.2
	c3-9,4.3-18.2,5.7-27.5c1.8-11.2,1-22.6-1-33.8c-0.8-4.3-2-8.4-2.9-12.7c-1.6-7.8-3.4-15.6-5.9-23.2c-2-6-4.5-11.7-6.8-17.6
	c-0.8-2-2.4-5.2-3.6-7c-0.9-1.4-1.7-2.9-2.5-4.5c-1.7-3.6-6.4-13.6-7.3-14.9c-1.2-2.3-1.2-5.1-3.1-7.7c-0.4,2.2,0.3,3.9,0.4,5.6
	c0.1,1.4,0.9,8.9,0.9,9.7c0,1.3,0.5,4.8,0.3,6.1c-0.2,1.3,0.1,2.8-1,4.5c-0.8-3.6,0.5-6.6-0.5-9.9c-0.7,1.3-0.8,2.4-0.9,3.5
	c-0.2,2.1-0.4,4.3-0.8,6.4c-1.1,5.4-2,10.8-4,15.9c-2.9,7.7-5.7,15.4-9.6,22.6c-2.4,4.5-4.7,9-6.9,13.6c-3.7,7.9-7.9,15.5-10.6,24
	c-2.9,9.2-6,18.2-7.7,27.7c-0.3,1.5-0.7,2.9-0.7,4.4c0.1,6.4-1.5,12.7-2,19.1c-0.6,7.3-1.8,14.5-1.8,21.8c0,0.2,0,0.6-0.1,0.8
	c-1.2,8,0.5,15.9,1.4,23.8c0.7,6.3,2.7,12.5,3.4,18.8c0.2,2.3,0.8,4.5,1.2,6.7c0.6,3.4,1.5,6.7,1.7,10.1c0.1,2.3,0.3,4.5,0.6,6.8
	c0.5,3.9,1.1,7.7,1.7,11.5c1.1,8.1,2.6,16.2,3.6,24.4c0.8,6.9,2.3,13.7,3.5,20.6c0.5,2.8,1.3,5.6,0.8,8.5c-0.1,0.5-0.1,1.2-1,1.1
	l-4.4,14.5c0.7,1.4,0.1,2.8-0.4,4.2c-1.7,4.5-3.3,9-5.2,13.4c-1.9,4.5-3.4,9.2-4.2,14.1c-0.5,3.3-0.7,6.6-1.3,9.8
	c-1.2,6.5-1.7,13.1-1.7,19.7c0,4.1-0.3,8.2,0.3,12.3c0.7,4.6,1.3,9.3,1.2,14c0,1.7,0.3,3.4,0.3,5.1c0.1,2.7,0,5.4,0,8.3l0.6,9.5
	c0.3,0.5,0.7,0.8,0.8,1.2c0.3,1,0.7,1.9,0.9,2.9c2.6,11.5,5.4,22.9,9.9,33.8c2.3,5.5,5.1,10.7,7,16.3c1.5,4.2,3.7,8.1,5.5,12.1
	c1.3,2.9,2.3,5.9,3.7,8.8c1.2,2.6,2.3,5.2,3.3,7.9c1.3,3.4,1.7,7.1,3.9,10.1c0.2,0.2,0.2,0.7,0.3,1c1.6,4.2,4.8,6.9,8.9,8.4
	c1.9,0.7,3.4,0,4.2-1.9c1.1-2.5,1.5-5,0.6-7.8c-1.9-5.7-3.7-11.5-5.4-17.3c-2.5-8.3-5.9-16.3-9.2-24.3c-0.4-1.1-0.8-2.2-1.2-3.2
	c-0.4-1.1-0.9-2.1-1.4-3.1c-2-4.1-3.9-8.2-5-12.7c-0.2-0.5-0.6-1-0.7-1.5c-0.5-1.9-1-3.7-1.5-5.6c-0.4-1.6-1-3-3-3.2
	c-0.8-0.1-1.7-0.7-2.4-1.2c-0.6-0.3-1.4-0.8-1-1.5c0.5-1.1,1.4-0.3,2.1-0.1c0.2,0,0.4,0.2,0.6,0.3c4.1,1.6,5.5,0.8,5.8-3.6
	c0.4-5.4,0.6-10.7-0.1-16.1c-0.4-3.4-0.8-6.8-1.1-10.2c-0.1-1.1-0.1-2.3-0.1-3.4c0-1,0-2.1,0-3.2c1,0.5,0.9,1.1,0.9,1.7
	c0.5,3.9,1.1,7.9,1.6,11.9c0.2,1.7,0.5,3.4,0.8,5.1c0.7,4.9-0.1,9.8-0.1,14.7c0,1.8-0.3,3.7-1.7,5.1c-1.3,1.2-1.2,2.7-0.8,4.1
	c0.6,2.2,1.1,4.4,1.2,6.7c1.7,1.2,1.6,3.2,2.3,4.9c3.3,7.5,6.8,14.9,10.1,22.4c3.5,8,5.7,16.4,8.7,24.5c1.3,3.4,2.2,7,3,10.5
	c0.9,4.1,1.8,8.3,1.1,12.5c-0.1,0.6,0,1.4-1,1.4l-1.8,1.7c0.3,0.3,0.2,0.7,0,1.1c-0.2,0.3-0.4,0.6-0.6,0.8
	c-4.7,5.9-9,12.1-12.7,18.7c-2.6,4.5-5.7,8.8-8.1,13.5c-4.1,7.8-8.4,15.5-12.7,23.1c-0.7,1.2-1.2,2.5-2,3.6c-3,4-4.9,8.5-6.8,13
	c-0.2,0.5-0.7,1,0,1.5c2.2-0.1,3.6-2.2,5.6-2.6c0.4,1-0.1,1.4-0.5,1.8c-1.4,1.7-3.4,2.3-5.4,2.9c-3.1,0.9-5.9,2.5-8.6,4.2
	c-9.1,5.6-16.2,13.3-21.6,22.5c-3.2,5.4-6.5,10.7-9.8,16.1c-0.4,0.7-1.1,1.3-1.2,2.1c-0.7,2.8-2.6,4.7-4.3,6.9
	c-1.2,1.6-2.9,2.9-3.5,4.9c2.9-1.9,4.8-5.1,8-6.7c-1,1.9-2.9,3.1-4.2,5.1c3.5-0.2,5.5-3.2,9.4-3.6c-1.7,2.2-3.7,2.5-5.3,3.4
	c-1.6,0.9-3.4,1.6-5.3,3c5.5,1.2,10.1-0.4,14.7-1.9c-2.2,2.8-5.9,2.4-8.8,4.1c0.8,1.5,1.9,2,3.4,2.2c1.5,0.2,3,0.1,4.4-0.3
	c2.3-0.5,4.7-1.1,6.9-2.1c0.6-0.3,1.4-0.6,1.8,0.2c0.3,0.7-0.5,0.9-1,1.2c-3.1,1.6-6.4,2.4-9.9,2.5c-2.2,0.1-4.4-0.5-6.1-2
	c-1.3-1.1-2.8-1.7-4.5-2.3c-1.4-0.5-3.5-0.3-4.2-2.3c-0.4,0.4-0.9,0.9-0.4,1.5c0.5,0.6,1.2,1.1,1.9,1.5c4.5,2.2,9.1,4.2,14.1,5.1
	c1.2,0.2,2.5,0.3,3.7,0.2c3.5-0.2,7.1-0.4,10.6-1.1c8.6-1.7,16.8-4.2,23.3-10.6c2-2,4.5-3.5,6.5-5.6c0.7-0.7,1.2-2.6,2.5-1.4
	c0.8,0.7-0.6,1.7-1.3,2.5c-0.7,0.8-1.5,1.4-2.2,2.1c-1.8,1.6-3.8,3-5.5,4.6c-4.1,3.9-9.1,6.1-14.3,7.8c-3.6,1.2-7.3,2-11,2.7
	c-6.1,1.1-12.1,1.4-17.9-0.8c-2.5-1-4.5-0.9-6.5,1c-1.2,1.1-3.1,1.5-4.7,2c-0.4,0.1-0.9-0.1-1.4-0.1h-2.3c0.4,0,0.4,0.5,0.1,0.9
	c-0.6,0.8,0.1,1.2,0.5,1.7c1.1,1.6,2.8,2.6,4.2,3.9c-1-0.2-2.1-0.7-3.1-1.2l-3.5,0.2c0.3,0.2,0.7,0.4,1,0.6
	c-0.4,0.1-0.8,0.1-1.2,0.1l0.1,4.3c0.2,0.2,0.5,0.4,0.8,0.5c3.1,1.6,5.5,4.1,7.8,6.7c1,1.1,2,2.1,3.3,3c2,1.3,3.8,2.9,5.4,4.7
	c3.3,3.9,4.5,8.8,4.9,13.6c0.4,5.3,1.2,10.7,0.4,16.1c-0.2,1,0.1,2,0.2,3.1c0.1,1.1,0.2,2.3,0.1,3.4c-0.5,4.7-0.3,9.4-0.5,14
	c-0.1,3,0.6,5.8,1.1,8.7c0.3-0.2,0.4-0.2,0.5-0.3c0.5-0.4,0.3-1.6,1.3-1.2c0.8,0.3,0.5,1.1,0.4,1.8c-0.1,0.3-0.3,0.6,0,1
	c0.2-0.3,0.5-0.5,0.6-0.8c0.4-1.1,0.9-2.1,1.9-0.4c0,0,0.4-0.1,0.5-0.2c0.4-0.3,0.5-1.1,1.3-0.6c0.4,1.8-1.8,3-1,5.1
	c1.2-1.2,1.4-3,3.1-4c0.3,2.6-2,4.2-2.1,6.5c1.2-0.1,1.4-1,1.9-1.6c0.8-1,1.6-2,2.3-3c1.5,0.9,2.2-1.1,3.7-1
	c0.1,1.9-1.5,3.1-1.9,4.9c1.9,0.3,3.2-0.6,4.5-1.5c2.1-1.6,4.1-3.2,6.2-4.8c2.5-1.8,4.9-3.8,7.5-5.5c6.1-3.8,12.1-7.7,18.8-10.6
	c4.8-2.1,9.5-4.4,14.7-5.4c3.9-0.8,7.8-1.6,11.7-2.2c1.2-0.2,2.2,0,3.4,0.3c3.3,0.9,6.5,2.3,9.3,4.2c0.3,0.2,0.7,0.2,0.9-0.2
	c0.3-1-1.4-1.3-0.9-2.3c2.2,0.5,2.5,0.8,2.2,3.4l3.5-0.2c2,0.7,3.7,1.4,5.6,1.2c-2.1-3.7-2.2-3.8-1.8-5.4c0.2,0.1,0.4,0.3,0.5,0.4
	c0.6,1.1,1.1,2.1,1.8,3.1l3.3,0c-0.4-0.4-0.6-0.8-0.1-1.3c2,0.4,3.1,2.7,5.6,2.9c-0.6-2.7-1.1-5.1-1.6-7.5c-0.2-0.7-1-0.9-1.5-1.3
	c-1.7-1.1-3.2-2.4-4.1-4.1c-2-3.6-4.6-6.8-7.1-10.1c-4.9-6.5-7.6-14.3-11.7-21.3c-0.8-1.3-1.3-2.7-1.9-4c-1-2.1-1.8-4.2-2.2-6.5
	c-1.3-7.3-0.7-14.8-1.1-22.2c0-0.6-0.1-1.4,0.9-1.7c0.6,0.8,0.3,1.7,0.4,2.6c0.3,6.5,0.7,13,1.4,19.5c0.3,2.8,1.2,5.3,2.3,7.9
	c2.7,6.3,6.2,12.2,9.2,18.3c1.5,2.9,3.2,5.8,5.5,8.3c0.2,0.2,0.6,0.3,0.9,0.4c0.4-0.8-0.1-1.7,0.7-2.4c1.4,0.9,1.2,2.6,1.5,3.9
	c0.7,3.2,2.2,6,4.4,8.4c0.1,0.2,0.3,0.4,0.5,0.6c0.1,0,0.1,0.1,0.2,0.1c0,0,0,0,0,0c0,0,0,0,0,0c2.4,1.4,3.5-1,3.5-1
	c0.1-0.6,0.3-1.7,0.3-1.8c1.1-7.1,6.4-17.8,6.6-18.2c2.5-4.5,4-9.4,5.6-14.3c1.1-3.6,2.2-7.2,2.2-11c0-10.3-0.9-20.5-2.6-30.7
	c-0.6-3.4-1.2-6.7-1.7-10.1c-0.6-4.9-1.2-9.7-1.7-14.6c-0.6-6.9-1.2-13.9-0.1-20.8c0.2-1,0.1-2.2,1-3c0.7,0.3,0.9,0.7,0.8,1.2
	c-0.7,7.3-0.6,14.6,0.1,21.9c0.5,5.5,0.9,10.9,1.8,16.3c0.6,3.8,1.7,7.6,1.8,11.5c0,0.7,0.2,1.4,0.5,2c1.2,2.4,1.5,5,1.5,7.7
	c0,1.2-0.2,2.4,0.4,3.8c1.9-1.6,1.5-4.3,3.4-5.7c0.3,1.6,0.4,1.7-0.4,2.8c-3.4,4.8-3,10.1-2.5,15.5c0.3,2.6,0.4,2.6-0.2,4.5
	c-0.2,0.7-0.3,1.3-0.5,2c-1.7,6.4-3.3,12.8-6.1,18.8c-0.4,0.9-1.1,1.8-1,3c1.3-0.1,1.8-1,2.3-1.7c3-3.9,5.9-7.9,8.4-12.1
	c0.6-1,1.2-1.9,2.1-2.6c1.1-0.9-0.2-2.6,1-3.4c0,0,0,0,0-0.1c0,0,0-0.1,0.1-0.1c0.1-0.8,0-1.6,1.1-2.3c0,1.1-0.6,1.5-1.1,2.1
	c0,0,0,0,0,0h0c0,0,0,0.1,0,0.1c0.6,1.2,1,0.3,1.3-0.2c4.5-6.6,8.3-13.6,11.6-20.9c3.8-8.5,6-17.5,8.8-26.3c1.1-3.5,2.1-7,3-10.5
	c1.3-5.2,2-10.5,3.1-15.8c1-4.7,2-9.4,2.5-14.2c1.1-9,0.7-18,1.1-27C202.2,589.2,200.7,580.5,199.6,571.7z M124.4,57.8
	c0.1,0.3-0.1,0.4-0.4,0.4c-0.1-0.2-0.3-0.5-0.3-0.8c-0.1-0.3,0.2-0.5,0.4-0.4C124.3,57.2,124.4,57.5,124.4,57.8z M123.4,52.7
	c0.6,0.7,0.7,1.3,0.2,2.1C123,54.1,123,53.5,123.4,52.7z M122.1,47.6c0.3,1,0.5,2,0.8,3C122.2,49.7,121.3,48.8,122.1,47.6z
	 M117.2,37c1.4,0.9,1.6,2.1,1.4,3.3C117.6,39.5,117.1,38.6,117.2,37z M116.5,56c0.1,0,0.3,0,0.4,0c0.1,0.3,0.2,0.6,0.2,0.9
	c0.1,0.3,0.2,0.8-0.2,0.8c-0.4,0-0.5-0.4-0.5-0.8C116.4,56.6,116.5,56.3,116.5,56z M110.1,17c0.4,1.6,2.2,6,2.7,7.3
	c1.2,2.8,1.6,6,3.1,8.7c0.3,0.6,0.8,1.2,0,2.1c-1.6-1.9-3.4-8.8-4.7-11.2c0,5.2,2.2,16.4,3.6,21.1c0.6,2.3,1.4,4.6,1,7.1
	c-1.3-2.2-1.3-4.8-2-7.1c-0.6-2.3-1.2-4.6-1.9-6.9c-0.2,0.9-0.2,1.9-0.2,2.8c-0.1,0.9-0.2,1.8-0.3,2.8c-0.7-5.2-0.6-12.2-1.4-17.6
	c0,0,0,0,0,0C109.9,25.3,109.9,18.1,110.1,17z M110,57.5c0.5-3,0.7-6.1,1.2-9.8C112,51.7,111.6,55.1,110,57.5z M110.8,204.2
	c0.5-2.1,0.9-4.3,1.7-6.3c0.8-2,0.7-4.3,2.4-6.5c0.6,2.4,0,4.3-0.6,6.1c-1,2.9-1.9,5.9-2.9,8.8c-0.5,1.5-0.9,3-1.3,4.4
	C109.3,208.3,110.3,206.3,110.8,204.2z M94.7,236.5c-0.6-0.7-0.4-1.5-0.2-2.3c1.8-9.3,4.3-18.5,7.1-27.6c1,0.2,1.1,0.8,1.1,1.3
	c-0.1,0.9-0.3,1.8-0.6,2.7c-2.5,7.9-5,15.9-6.5,24.1C95.4,235.3,95.4,236,94.7,236.5z M109.4,212.3c-0.9,4.3-1.9,8.1-3.9,11.5
	c-0.7,4.2-1.2,5.6-2.7,7.2c0.4-1.5,0.7-2.9,1-4.3c0.3-1.1,0.6-2.2,1.5-3C106,220.2,108,214.3,109.4,212.3z M104.1,61.8
	c1.2-3.6,1-7.5,2.5-11.6c0.8,6.7-2.9,18.9-8,21.6C100.8,68.3,102.9,65.4,104.1,61.8z M96.6,74.2c-0.4,1.2-1.2,2.1-2.9,3
	C94.6,75.5,95.5,74.8,96.6,74.2z M89.9,226.4c0.4-2.5,1.1-4.8,1.8-7.3c0.1-0.5,0.4-1.1,1.4-0.8c-1.1,6.2-3.2,12.2-3.6,18.6
	c0,0.5-0.4,1-0.6,1.5C88.3,234.2,89.2,230.3,89.9,226.4z M88.5,242.9c0.1,0.7,0.2,1.3,0.3,1.9c0.4,3.3,0.1,5.5-0.8,7.1
	c-0.2-1.5-0.3-3-0.3-4.5C87.7,245.9,87.9,244.4,88.5,242.9z M78.3,251.5c0,0.3-0.2,0.7-0.7,0.6c-0.2-0.5-0.3-1.2-0.4-1.9
	c-0.4-3.2,0-8.1,1.2-11.9c0.1,1.5,0.2,3.1,0.2,4.6C78.7,245.8,78.5,248.6,78.3,251.5z M82.2,459.2c-1.4,0.5-1.3-1.2-1.6-2
	c-1-3.1-1.4-6.4-2.9-9.3c-0.2-0.3-0.1-0.7-0.2-1c0.2-0.2,0.3-0.4,0.5-0.4c0.2,0,0.5,0,0.6,0.2c0.3,0.3,0.4,0.8,0.7,1.2
	c1.6,2.8,2.1,5.9,2.8,9C82.3,457.6,83.2,458.9,82.2,459.2z M83.4,251.9c-0.5-0.3-0.8-0.5-0.8-0.6c0-2.8,0-5.6,0-8.5c0-4,0-8,0-11.9
	c0-0.1,0.3-0.2,0.6-0.4c0.5,0.5,0.4,1.2,0.4,1.9c0,4.9,0,9.8,0,14.8C83.5,248.8,83.5,250.4,83.4,251.9z M88.8,399.1
	c-0.1,0.3-0.3,0.6-0.7,0.6c-0.4,0-0.6-0.4-0.6-0.7c0-2.1-0.4-4.1-0.8-6.1c-0.5-2.4-0.9-4.9-0.6-7.7c0-0.8,0-2,0-3.1
	c0-0.3,0.3-0.7,0.5-0.7c0.5-0.1,0.8,0.3,0.9,0.8c0,0.3,0.1,0.7,0.1,1c0,4.9,0.6,9.7,1.2,14.6C88.9,398.2,88.9,398.7,88.8,399.1z
	 M89.2,261.1c-1.6-1.7-0.9-3.3-0.6-4.8C88.9,257.8,90,259.2,89.2,261.1z M94,252.7c-1-1.7-1-3.5,0-5.2C94,249.2,94,250.9,94,252.7z
	 M93.6,244.2c0-1.5-0.3-2.3,0.9-3.3c-0.1,0.6,0.1,1.2,0,1.8C94.4,243.1,94.2,243.6,93.6,244.2z M99.6,261.4
	c-0.4-2.6-0.4-2.6,0.2-4.2C99.8,258.4,100.2,259.7,99.6,261.4z M101,239.5C101,239.5,101,239.5,101,239.5l0.1,0c0,3.2,0,3.2-1,4.5
	c0.2-0.4,0.1-0.9,0.2-1.4C100.4,241.5,101,240.4,101,239.5C101,239.5,101,239.5,101,239.5h0.2c-0.1-1.1-0.1-2.3,0.6-3.3
	c0,0.8,0.1,1.6-0.1,2.4C101.6,238.9,102,239.2,101,239.5z M51.4,741.6c0,0.5-0.2,0.9-0.6,1.1c-0.7,0.3-1.1,0-1.5-0.5
	c-0.8-1-1.3-2.2-2.2-3.1c-1.8-1.7-2.5-3.8-3-6c-0.7-2.7-0.7-5.4-0.4-9.4c0.1-1.2,0.2-3.8,0.4-6.2c0.1-1.2,0.7-2.2,1.7-2.8
	c0.7-0.4,1.4-0.2,1.6,0.6c0.2,0.8,0.2,1.6,0.2,2.4c0,1.9-0.2,3.9,0.2,5.8c1.2,4.7,1.4,9.7,3,14.4C51.4,739.1,51.5,740.4,51.4,741.6z
	 M60.9,719.6c0.3-0.4,0.7-0.6,1.2-0.3c0.5,0.3,0.3,0.8,0,1.2c-0.6,0.8-0.9,1.9-2.4,2C59.6,721.1,60.3,720.4,60.9,719.6z M63,721.7
	c0.3-0.2,0.7-0.2,0.9,0.1c0.3,0.3,0.3,0.6,0,0.9c-0.8,0.8-1.4,1.8-3,2.5C61.3,723.5,61.8,722.4,63,721.7z M61.1,730.1
	c0.4-2.3,1.6-3.5,3.3-5.2C64.1,727.5,63.2,728.9,61.1,730.1z M103.4,605.5c2.3-4.1,4.1-8.4,5.5-12.8c0.1-0.3,0.4-0.5,0.9-0.2
	c0.1,1.9-0.9,3.6-1.5,5.4c-1.1,3.2-2.6,6.3-4.9,8.9c-0.6,0.9-0.4,2.4-2,2.7c0.2-1.3,0.9-2.2,1.7-3
	C103.3,606.2,103.3,605.8,103.4,605.5z M99.7,601.7c1-1.6,1.2-3.7,3.1-5.2c-0.4,3.6-2.1,7-5.3,10.3
	C97.6,604.9,98.7,603.3,99.7,601.7z M96.4,608.8c-0.4,2.2-1.3,3.3-2.9,4.7C94,611.4,94.9,610.3,96.4,608.8z M92.1,615.4
	c0.1-0.2,0.5,0,0.4,0.3c-0.1,0.6-0.2,1.1-1.3,1.2C91.5,616.3,91.7,615.8,92.1,615.4z M88,621c0,0,0.2,0,0.2,0
	c0.4-0.8,0.5-1.8,1.9-2.2c-0.2,1.3-0.6,2.1-1.8,2.2c0,0,0,0,0,0.1c0,0,0,0,0,0c0,2.7-2.3,3.7-3.8,5.2c-0.5,0.6-1.4,1.2-2.8,0.5
	C84.1,625,86,622.6,88,621C88,621.1,88,621.1,88,621z M86.1,615.8c-1.3,3.1-4.2,7.1-6,8.4C80.6,621.6,82.7,618.5,86.1,615.8z
	 M68.2,634.3c-0.3,0.1-0.7-0.1-0.7-0.5c-0.1-0.4,0.2-0.7,0.5-0.8c3-1.1,5.6-2.8,8.2-4.6c0,0,0.2,0.1,0.4,0.2
	c0.2,0.7-0.2,1.1-0.4,1.4C74.1,632.6,71.1,633.4,68.2,634.3z M81.8,636c2.6,0.1,4.8-0.4,7.8-1.4c-1.7,2.4-2.8,3.1-4.9,3.1
	C83.5,637.7,82.4,637.7,81.8,636z M89.4,654.3c-0.1,0.1-0.4,0-0.6,0c-0.1-0.1-0.2-0.2-0.2-0.3c0.7-2.5,2.1-4.7,3.2-7.1
	c0.2-0.3,0.6-0.3,0.9-0.1c0.3,0.2,0.4,0.6,0.2,0.9C91.9,650,91.1,652.4,89.4,654.3z M92.1,735.3c-0.3,0.6-0.6,1.5-1.6,1.3
	c-0.7-0.9,0.1-1.5,0.4-2.2c0.2-0.5,0.6-1.1,1.2-0.7C92.7,734.1,92.4,734.8,92.1,735.3z M87,644.7c-0.5,0.1-1-0.1-1-0.7
	c0-0.3,0.2-0.7,0.4-0.8c1.1-0.5,2.2-0.9,3.3-1.4c0.2,0.2,0.3,0.3,0.5,0.5C89.6,643.6,88.6,644.5,87,644.7z M87.1,735.4
	c-0.2,0.3-0.5,0.5-0.8,0.3c-0.3-0.2-0.4-0.5-0.3-0.8c0.2-0.8,0.5-1.5,1.5-1.5c0.1,0.1,0.2,0.1,0.3,0.2
	C88,734.4,87.6,734.9,87.1,735.4z M82.2,736.3c0.3-0.8,0.3-1.8,1.6-1.9c0.7,0.9,0.2,1.7-0.2,2.5c-0.2,0.4-0.6,0.8-1.1,0.6
	C82.1,737.3,82.1,736.8,82.2,736.3z M105.9,744c-0.4,0.8-1.1,1.5-1.8,2c-5.1,3.1-10.2,6.1-15.9,7.8c-0.8,0.2-1.5,0.4-2.2,0.6
	c-1.9-0.5-3.7-0.8-5.4-1.4c-0.7-0.2-1.1-0.9-0.6-1.6c0.8-1.1,1.6-2.1,3.2-2.3c1.6-0.2,3.2-0.4,4.8-0.4c5.5-0.1,10.6-1.6,15-5
	c0.7-0.5,1.3-1,2.1-1c0.3,0,0.7,0.1,0.9,0.3C106.1,743.3,106.1,743.7,105.9,744z M124,582.1c-1.1,2.6-1.7,5.4-2.5,8.2
	c-0.8,2.6-1.5,5.3-2.9,7.7c-1,1.8-1.9,3.6-2.6,5.6c-1.2,3.2-3.2,5.7-5.3,8.3c-4.9,6.2-11.4,10.4-17.4,15.2c-2.3,1.8-5.2,2.8-7.5,4.8
	c-0.4,0.3-1.2,0.6-1.6,0.4c-1.6-0.7-2.8,0.4-4.2,0.8c-1.1,0.3-2.2,0.8-3.3,1c-0.6,0.2-1.1-0.3-1.1-1.1c2.3-0.9,4.5-2.1,6.9-2.7
	c4.2-1.1,7.7-3.3,11-5.9c1.7-1.3,3.1-3,5.3-3.7c1.1-0.3,1.8-1.3,2.5-2.3c-1.3,0-2.2,1.7-3.7,1c0.2-0.8,0.8-1,1.2-1.3
	c1.8-1.2,3.7-2.4,4.9-4.2c4.2-6.1,7.9-12.5,10.5-19.5c0.5-1.4,1.2-2.6,2-4.1c0.8,1.5,0.1,2.5-0.3,3.5c-2,5.1-4.4,10-7.3,14.7
	c-1.3,2.1-2.7,4.2-4,6.3c0.5-0.3,1.1-0.5,1.5-0.8c1.6-1.6,3.2-3.3,4.6-5c1-1.2,2-2.5,2.7-4c2.9-6.4,6.2-12.7,7.8-19.7
	c0.4-1.8,0.9-3.7,2.4-5.1C124.1,581,124.2,581.6,124,582.1z M127.6,672c0.1-1.1,0.6-1.8,1.7-2.3C129,671.8,129,671.8,127.6,672z
	 M133.3,673c-0.1-1.7,0.9-2.8,1.7-4.7C135.8,671.3,135.6,671.8,133.3,673z M151.2,567.5c0.1-0.3,0.3-0.6,0.7-0.6
	c0.2,0.1,0.5,0.3,0.5,0.4c-1.1,6.4-3,12.5-5.2,18.8c0.7-3.8,1.4-7.5,2.2-11.2C149.8,572.3,150.5,569.9,151.2,567.5z M147.9,570
	c0.2-0.6,0.3-1.4,1.4-1.5c0.5,0.5,0.4,1,0.3,1.4c-1.5,4.8-2.9,9.6-4.4,14.4c-0.1,0.4-0.4,0.5-1,0C145,579.5,146.4,574.7,147.9,570z
	 M139.4,580.7c-0.2,2.9-0.4,5.8-1.3,8.6c-0.1,0.3-0.5,0.4-1-0.1C137.6,586.4,137.5,583.4,139.4,580.7z M138.4,597
	C138.4,597,138.4,597,138.4,597c0,0.1,0,0.1,0,0.1c0.1,1.8-0.4,3.4-1.8,4.6c0.4-1.6,0.4-3.3,1.4-4.6c0,0,0,0,0,0
	c0,0,0.2-0.1,0.2-0.1c1-8.4,2.5-16.8,4.3-25.1c0.1-0.2,0.5-0.4,0.8-0.6c0.9,0.7,0.4,1.5,0.3,2.2c-0.9,4.6-1.9,9.1-2.7,13.7
	C140.3,590.5,139.8,593.9,138.4,597z M141.8,672.4c-2.1-1.9-2.1-4-2.5-6C141.1,667.8,141.6,669.7,141.8,672.4z M144,747.1
	c-2,0.3,0.1,2-0.9,2.6c-1.8-1.9-3.5-6.5-3.5-10.3c0-2-0.6-4.2,1.3-6.4c0.6,4.3-0.6,8.4,1.6,12.1c0.2-3.5-0.6-7.1,0.1-11.2
	c0.9,1.3,0.8,2.2,0.9,3c0.1,1.1,0.1,2.3,0.2,3.4c0.1,1.1,0.2,2.3,0.2,3.4C144,744.8,144.5,745.9,144,747.1z M147.6,671.8
	c-1.2-1.6-2.8-2.9-3.2-5.5C146.7,667.8,147.5,669.6,147.6,671.8z M146.6,748.6c-0.1,0.5-0.1,1.1-0.1,1.4c-0.5,2.5-1.9,1.1-1.9-0.4
	c0-1.1,0.4-2.3,0.5-3.4c0.4-3.7,0.7-7.5,1.5-11.2c0.3-1.4,0.5-2.9,2.1-3.8c-1,2.3-0.1,4.4,0,6.6c0,0.6-0.2,1.1-0.4,1.7
	C147.8,742.6,147.2,745.6,146.6,748.6z M147.7,749.1c-0.5-1.8,0-3.5,0.6-5.2c1.1-2.9,2.2-5.8,3.3-8.7c0.2-0.5,0.2-1.3,0.9-1.4
	c0.4,0,0.7-0.2,1-0.4C152.3,735.7,148.8,743.1,147.7,749.1z M149.3,734c0.1-1.6,0.5-2.5,2-3.6C150.8,732,150.6,733,149.3,734z
	 M151.9,668.3c1.7,1.5,2.8,3.3,3.1,5.6C153.2,672.4,152.7,670.3,151.9,668.3z M155.4,572.2c-1.4,5.5-2.8,11-4.3,16.5
	c-0.5,1.8-1.2,3.6-1.8,5.4c-0.6-1.8,0.4-3.3,0.7-5c1.2-5.8,2.5-11.6,3.8-17.3c0.3-1.4,1-2.2,1.5-1.8
	C156,570.6,155.6,571.4,155.4,572.2z M160.3,617.6c-0.2,0.4-0.5,0.7-1,0.7c-0.2-2-0.3-2,0.3-3.9c1.2-3.3,1.6-6.9,3.6-9.8
	c0.1-0.2,0.6-0.2,0.9-0.3C164,605.5,160.9,616.3,160.3,617.6z M166.8,702.3c0-1.2,0.2-1.9,1.4-2.5
	C168.1,701.1,167.8,701.8,166.8,702.3z M168.7,697.9c0.2-1.8,0.2-1.8,1.7-3.2C169.9,696.8,169.9,696.8,168.7,697.9z M168.2,592.1
	c-0.3-2.4,0.2-3.7,2.3-7.1C171.1,588.3,169.9,590.1,168.2,592.1z M173.1,707.8c0.1-1.1,0.2-2.3,1.8-3.6
	C174.2,706,174.2,707.1,173.1,707.8z M176.1,688.3C176.1,688.3,176.1,688.3,176.1,688.3c0,1-0.2,1.9-1.3,3.1c0.1-1.5,0.2-2.3,1.2-3
	c0,0,0-0.1,0-0.1c0,0,0.1,0,0.1-0.1c0.1-1.8,1-3.3,2.5-5.2c-0.3,2.5-1.3,4-2.5,5.2C176.1,688.2,176.1,688.3,176.1,688.3z
	 M182.7,683.9c-1.2,5.5-3.4,10.6-5.4,15.8c-0.1,0.4-0.4,0.8-0.9,0.8c-0.1-0.1-0.2-0.2-0.2-0.2c1.8-5.6,3.6-11.3,5.4-16.9
	c0.1-0.3,0.4-0.6,0.8-0.5C183,683,182.8,683.5,182.7,683.9z"/>
<g>
	<path class="st1" d="M101.9,749.4c-6.2,3.1-13.9,9.4-21.2,5.7c-1.7-0.9-0.2-3.5,1.5-2.6c3,1.5,7.6,0,10.4-1.3
		c2.7-1.2,5.1-3.1,7.7-4.4C102.1,746,103.7,748.6,101.9,749.4L101.9,749.4z"/>
</g>
<g>
	<path class="st1" d="M48.1,744.2c-0.6-1.9-2.7-3.2-3.7-5c-0.8-1.6-1.2-3.3-1.5-5c-0.8-5.1-0.8-10.5,0.3-15.5
		c0.4-1.9,3.3-1.1,2.9,0.8c-1,4.6-0.9,9.8-0.1,14.5c0.7,4,3.9,5.9,5,9.5C51.6,745.2,48.7,746,48.1,744.2L48.1,744.2z"/>
</g>
<g>
	<path class="st1" d="M42.5,780.8c1.3-0.1,2.7-0.1,4-0.2c-1.3,1.7-2.6,3.4-3.9,5.1c-0.1-0.4-0.1-0.3,0.2,0.3
		c-0.1-0.1-0.1-0.3-0.2-0.4c0.4,0.5,0.5,0.6,0.2,0.3c-0.1-0.1-0.2-0.2-0.2-0.2c-0.2-0.2-0.1-0.1,0.4,0.3c-0.1-0.1-0.3-0.2-0.4-0.2
		c0.6,0.2,0.7,0.3,0.3,0.1c-0.1,0-0.3-0.1-0.4-0.1c-2.1-0.4-3.4-3-2.8-4.9c0.7-2.2,2.7-3.2,4.9-2.8c2.8,0.6,5,2.9,5.8,5.5
		c0.8,2.6-1.3,5-3.9,5.1c-1.3,0.1-2.7,0.1-4,0.2c-2.1,0.1-4.1-1.9-4-4C38.6,782.6,40.3,780.9,42.5,780.8L42.5,780.8z"/>
</g>
<g>
	<path class="st2" d="M96.5,764.3c0.2-0.4,0.7-0.6,1.1-0.9c0.8,0.9-0.5,1.5,0,2.3c2.5-0.1,2.7-4.1,5.7-3.5c0.5,1.1-1.2,1.2-1.1,2.2
		c0.5,0.7,0.9,0.2,1.3-0.1c0.8-0.7,1.6-1.3,2.3-2c1-1.1,2.2-1.6,3.6-1.7c1-0.1,2.1-0.2,3-0.4c2.6-0.6,4.9-0.1,7.1,0.9
		c0.8,1.4-1.2,2-0.5,3.3c1.1,0,1.5-0.9,2-1.6c0.6-0.7,1.2-0.7,1.8-0.3c0.2,0.1,0.4,0.2,0.6,0.4c-1.1,0.7-4.7,3.1-5.7,3.8
		c-0.3-0.4-0.6-0.7-1.1-0.5c-0.6,0.3-1.1,0.8-1.1,1.5c0,0.1,0.5,0.3,0.8,0.4c-0.1,0.2-0.3,0.3-0.4,0.5c-0.8,1.3-2.2-0.1-3.1,0.8
		c-0.7,0.7-0.7,1.9-1.6,2.5c-4.9,3-9.3,6.6-14.7,8.8c-1.5,0.6-3.1,0.8-4.7,0.8c-0.8,0-1.2-0.4-1.6-1c-1.6-2.3-0.9-4.5,0.4-6.4
		C92.9,770.9,95,767.7,96.5,764.3z M112.4,762.1c-0.8-0.8-1.4-0.2-2,0.1c-2,1.2-3.9,2.6-6,5c2.3-0.6,3.3-1.8,4.5-2.7
		C110,763.7,111.6,763.5,112.4,762.1z M112.3,765.9C112.3,765.9,112.3,765.9,112.3,765.9C112.3,765.9,112.3,765.8,112.3,765.9
		c2.3-0.7,3.6-2.3,5.2-4.2C115.3,762.3,114.3,763.1,112.3,765.9C112.3,765.8,112.3,765.8,112.3,765.9
		C112.3,765.9,112.3,765.9,112.3,765.9c-1,0.1-1.8,0.4-2.3,1.8C111.3,767.5,111.9,766.8,112.3,765.9z"/>
	<path class="st2" d="M2.9,786.9c-0.6,8.4-1.8,16.7-1.1,25.2c0.5,5.9,1.8,11.4,3.8,16.9c0.8,2.2,2.3,3.9,3.9,5.6
		c1.8,1.9,4.5,1.2,5.5-1.3c0.3-0.9,0.5-1.8,0.7-2.7c0.9-4.8,1.9-9.6,2.5-14.5c1.1-8.5,2.2-17,4-25.4c1.5-7.2,3.6-14.1,6.3-20.9
		c1.9-5,4.2-9.9,6.3-14.8c0.3-0.7,0.5-1.3,0-2.5c-1.8,3.5-3.3,6.6-4.8,9.7c0.5-3,1.4-5.7,2.9-8.3c2.3-4.1,3-8.3,2.3-12.9
		c0-0.1-0.3-0.3-0.4-0.4c-0.4,0.1-0.7,0.5-1.5,0.1c1.9-3.8,1.5-7.7-0.3-12.3c-0.9,2.2-1.6,3.8-2.1,5.4c-0.5,1.6-1,3.2-2.4,4.4
		c0,0,0,0,0,0.1c0,0,0,0,0,0c0,0.3,0,0.6-0.1,0.9c-0.1,0.3-0.2,0.7-0.6,0.5c-0.4-0.2-0.2-0.5,0-0.8c0.2-0.2,0.4-0.4,0.7-0.6
		c0,0,0,0,0-0.1c0,0,0,0,0,0c-0.2-1.2,0.4-2.2,0.8-3.2c0.7-1.8,1.4-3.6,2-5.5c1.2-3.9,0.6-5.3-3.1-7.5c-0.9,0.3-1.1,1.1-1.4,1.8
		c-0.6,1.5-1.1,3-1.7,4.5c-0.2,0.5-0.3,1.2-1.1,0.8c-0.3-0.5-0.1-0.9,0.1-1.3c0.7-2,1.3-3.9,2-5.8c0.3-0.9,0.4-1.8-0.5-2.5
		c-1-0.8-1.9-1.7-2.8-2.6l-1.2,0.6c0.3,0.4,0.2,1,0,1.5c-0.3,0.7-0.7,1.4-1.1,2.1c-0.9,1.6-1.6,3.3-1.9,5.1
		c-1.5,7.9-4.7,15.2-6.8,23c-1.3,4.9-2.8,9.9-3.8,14.9c-0.9,4.7-2.4,9.2-3.2,14C4.3,781.2,3.1,784,2.9,786.9z"/>
	<g>
		<path class="st2" d="M96.9,599.9c1.4-1,3.3-0.6,4.6,0.4c3.6-3.9,7.8-8.2,13.1-3.9c7.1,5.8-2.9,11.8-7,14.9
			c-1.6,1.2-3.2,2.5-4.9,3.7c1.4,2.1,1.1,5.4-2,6.2c-7,1.7-11.5,8.2-18.9,9.3c-4.3,0.6-6.6-4.1-3.5-6.9c-3.2-0.1-5.4-4.4-2.7-6.8
			C82.2,610.6,89.4,605,96.9,599.9z"/>
		<path class="st2" d="M155.9,725.1c-1,4.3,5.2,7.3,7.3,3.1c1-1.9,1.8-3.9,2.4-5.8c2.8-4.7,7.3-8.6,9.7-13.4
			c3.2-6.4,5.2-13.4,9.1-19.4c1.6-2.5,0-4.9-2.2-5.7c0.3-0.7,0.6-1.4,0.9-2.2c2.1-5.1,3.8-10.2,1.9-15.7c-1.7-4.8-9.4-2.7-7.7,2.2
			c1.7,5-1.4,10.4-3.4,14.9c-0.5,1.3-1.1,2.5-1.6,3.8c-0.7-2.2-1.5-4.5-2.4-6.7c-1.6-4.1-7.6-3.8-7.9,0.9c-0.6,12.8,0.4,26-3.9,38.1
			C157.3,721,156.4,722.9,155.9,725.1z M169.4,703c0-0.4,0.1-0.7,0.1-1.1c0.1,0.1,0.2,0.1,0.3,0.2
			C169.6,702.4,169.5,702.7,169.4,703z"/>
		<path class="st2" d="M110.8,545.5c-1.6,1.1-3.9,0.5-5.1-0.9c-0.6-0.2-1.3-0.5-1.8-1c-6.9-6.5-6-16.6-7.9-25.2
			c-1.1-5.3-2.8-10.4-4.5-15.5c-1.9-5.6-3.6-11.6-7-16.4c-1.7-2.5-0.1-4.9,2.2-5.6c-1.4-4.2-2.7-8.5-3.8-12.8
			c-1.3-5,6.4-7.1,7.7-2.1c4.1,15.4,9.9,30.2,15.8,44.9c2.5,6.3,6.3,14.6,6.4,22.3c1.5,0.6,2.7,2,2.5,3.7c-0.2,1.8-0.4,3.5-1.1,5.1
			C113.5,543.5,112.2,544.6,110.8,545.5z"/>
		<path class="st2" d="M84.7,646.8c0-3.8,1.4-7.2,3.8-10c1.4-1.6,4.2-1.5,5.7,0c1.6,1.6,1.4,4,0,5.7c-0.6,0.7-1,1.5-1.2,2.3
			c0.2,0,0.1,0,0.3,0c2.2,0.1,3.7,1.8,3.7,4c0,0.7,0,1.3,0,2c0,2.1-1.8,4.1-4,4c-2.2-0.1-4-1.8-4-4c0,0,0-0.1,0-0.1
			c0,0.1-0.3,0.1-0.6,0.1C86.3,650.8,84.7,649,84.7,646.8z"/>
		<path class="st2" d="M127,662.8c2.2,0.1,4,1.8,4,4c0,0.1,0,0.3,0,0.4c1-0.1,0.4-0.2,0.5-0.2c3.8-3.5,8.7-5.4,13.9-5.3
			c5.1,0.2,5.2,8.2,0.1,8c-3.1-0.1-5.8,0.8-8.1,2.9c-2,1.8-4.5,1.1-5.9-0.5c-0.2,1.9-2.2,3.7-4.2,3.6c-2.2-0.1-4.2-1.8-4.2-4
			c0-1.7,0-3.3,0-5C123,664.7,124.8,662.7,127,662.8z"/>
		<path class="st2" d="M66,716.8c6,0,6,8,0,8C61,724.8,61,716.8,66,716.8z"/>
		<path class="st2" d="M84,730.8c6,0,6,8,0,8C79,738.8,79,730.8,84,730.8z"/>
		<path class="st2" d="M40,664.8c2.2,0.1,4,1.8,4,4c0,0.3,0,0.7,0,1c0,2.1-1.8,4.1-4,4c-2.2-0.1-4-1.8-4-4c0-0.3,0-0.7,0-1
			C36,666.7,37.8,664.7,40,664.8z"/>
		<path class="st2" d="M47,670.8c6,0,6,8,0,8C42,678.8,42,670.8,47,670.8z"/>
		<path class="st2" d="M144,720.8c6,0,6,8,0,8C139,728.8,139,720.8,144,720.8z"/>
		<path class="st2" d="M175,583.8c-5,0-5-8,0-8C181,575.8,181,583.8,175,583.8z"/>
		<path class="st2" d="M174.5,591.8c0.5,6.7-1.2,13.2-4.7,18.9c-2.7,4.4-9.6,0.4-6.9-4c2.8-4.6,4-9.5,3.6-14.9
			C166.2,586.7,174.2,586.7,174.5,591.8z"/>
		<path class="st2" d="M87,399.8c0-8,0-15,0-23c0-5,8-5,8,0c0,8,0,15,0,23C95,404.8,87,404.8,87,399.8z"/>
		<path class="st2" d="M93,416.8c-5,0-5-8,0-8C99,408.8,99,416.8,93,416.8z"/>
		<path class="st2" d="M101.2,250.3c-0.5,1.9-3.1,1.7-3.9,0.5c-1,0-2.3-0.6-2.3-1.9c0,5.7,0,11,0,17c0,3-4,3-4,0c0-7,0-14.1,0-21.2
			c0,0.7-1.1,0.9-1.9,0.7c-0.1,5.2,0.3,10.3,0.8,15.5c0.3,2.6-3.7,2.5-3.9,0c-0.7-6.8-0.9-13.5-0.5-20.3c-0.5,0.3-1.1,0.3-1.6,0.2
			c0,1.8-3.1,2.4-4,0.3c-1-2.5,1.1-4.7,3.4-4.8c0.9-2.3,2.5-4.1,4.7-5.5c0.6-0.4,1.2-0.3,1.7-0.1c0.3-2.6,0.7-5.2,1-7.7
			c0.3-2.5,4.3-2.7,4-0.1c-0.5,4-1.3,8.1-1.9,12.1c1.1-0.2,2.2,0.4,2.2,1.9c0-3.7,0-7,0-11c0-3,4-3,4,0c0,4,0,7,0,10.5
			c1-5.7,1.7-11.3,2.8-17c0.5-2.5,4.5-1.5,4,1.1c-0.1,0.5-0.1,0.9-0.2,1.4c1.6-4.4,3.3-8.7,5.2-13c1-2.4,4.5-0.3,3.5,2
			C108.8,223.6,104.5,236.8,101.2,250.3z"/>
	</g>
</g>
<path class="st0" d="M21.8,767C21.8,767,21.8,767,21.8,767c-3.3-4.3-5.1-8.3-5.2-13.7c0-4.9,1.1-9.6,0.7-14.6c-0.2-1.9-3.2-1.9-3,0
	c0.1,1.1,0.1,2.2,0.1,3.2c-0.7-0.1-1.4,0.3-1.6,1.1c-0.1,0.3-0.1,0.6-0.2,0.9c-0.2,0.2-0.3,0.5-0.3,0.8c0,0.4,0,0.8-0.1,1.2
	c-0.3,1.7-0.5,3.5-0.7,5.2c-0.8,1.2-1.6,2.3-2.1,3.5c-1,2.6-1.1,5.4-1.4,8.1c-0.7,5.4-2.1,10.5-3.4,15.8c-0.1,0.3-0.1,0.6-0.2,0.8
	c0,0.1-0.1,0.3-0.1,0.4c-0.3,1.4-0.6,2.8-0.9,4.2c-0.9,2.3-1.3,4.7-1.2,7.1c-0.6,5.7-0.3,11.4-1.1,17.1c-0.1,0.7,0.2,1.3,0.7,1.6
	c-0.3,5.5,0.7,11.2,2.7,16.7c1.2,3.4,2.8,10.1,7.6,9.6c4.6-0.5,4.8-7,4.8-10.8c0.7-3.7,1.1-7.7,1.1-11.5c0.2-0.3,0.4-0.6,0.5-1.1
	c1.4-7.8,3.9-16.2,3.7-24.3c2.1-5.3,3.5-14.2,0.9-19.5C22.9,768.2,22.4,767.6,21.8,767z"/>
<path class="st0" d="M97.9,780.8c-4.2,0.5-2.9,0.9-7,1.8c0,0-3.1-7.6-2.1-7.7c4.5-0.4,8.8-1.4,13.3-1.9c3.8-0.4,6.9-2.3,10.8-2.4
	C114.3,770.5,101.1,780.4,97.9,780.8z"/>
<path class="st0" d="M85,751c-0.3,1,0.3,1,0.9,1.1c1.4,0.1,5.8-1.1,7.9-2.3C92.1,749.6,86.4,750.7,85,751z"/>
<path class="st0" d="M45.8,726.1c-1.2,3.8-0.2,8.1,2.2,10.3C47.9,733.5,46.9,728.7,45.8,726.1z"/>
<g>
	<path d="M123.7,762.6C123.7,762.5,123.7,762.5,123.7,762.6L123.7,762.6z M124.1,763.1c-2,2.3-6,5.5-8.5,7.2
		c-3.4,2.4-7,4.6-10.5,7.1c-2.5,1.8-5.2,3.3-8,4.6c-1.4,0.7-3,1-4.6,1.2c-2,0.2-3.3-0.7-4.1-2.4c-0.8-1.7-1.1-3.4-0.4-5.3
		c0.5-1.3,1.1-2.5,1.9-3.6c1.5-2.1,3.2-4.1,4.3-6.7c-0.6,0.1-1,0-1.2,0.1c-4.6,2.5-9.7,4-14.1,6.9c-5.8,3.7-11.8,7-17,11.5
		c-1.6,1.4-3.2,2.6-4.8,3.9c-1.8,1.5-3.8,2.5-6.2,2.5c-0.9,0-1.8,0.1-2.6,0.6c-1.8,1.2-3.7,0.9-5.5-0.1c-3.5-2-5.9-5-6.9-9
		c-0.6-2.5-1-5.2-0.9-7.8c0.1-4,0.3-8,0.4-12c0-0.6,0.4-1.3-0.4-1.9c-0.7,0.7-1,1.5-1.3,2.3c-0.5,1.3-1,2.6-1.6,3.8
		c-2.9,5.8-5.1,12-6.7,18.3c-1.4,5.4-2.5,10.9-3.4,16.4c-0.6,4.3-1.7,8.5-2,12.8c-0.4,6.1-1.9,11.9-2.7,17.9c-0.2,1.1-0.5,2.2-1,3.2
		c-1.5,3.1-4.6,3.8-7.4,1.7C7,835,5.6,833.2,4.7,831c-0.6-1.6-1.3-3.2-1.8-4.8c-0.8-2.4-1.7-4.8-2-7.2c-0.5-5.3-1.2-10.6-0.9-16
		c0.4-6.5,0.7-13,2.1-19.4c1.7-7.9,3.5-15.8,5.4-23.7c1.8-7.2,3.6-14.4,6.1-21.4c1.3-3.8,2.3-7.6,3.3-11.5c0.7-2.9,1.8-5.7,2.7-8.5
		c0.2-0.6,0.9-1.3,1.6-1c0.2,0.1,0.3,0.2,0.4,0.2c0.3,0.4,0.2,1,0,1.5c-0.3,0.7-0.7,1.4-1.1,2.1c-0.9,1.6-1.6,3.3-1.9,5.1
		c-1.5,7.9-4.7,15.2-6.8,23c-1.3,4.9-2.8,9.9-3.8,14.9c-0.9,4.7-2.4,9.2-3.2,14c-0.5,2.9-1.6,5.8-1.9,8.7
		c-0.6,8.4-1.8,16.7-1.1,25.2c0.5,5.9,1.8,11.4,3.8,16.9c0.8,2.2,2.3,3.9,3.9,5.6c1.8,1.9,4.5,1.2,5.5-1.3c0.3-0.9,0.5-1.8,0.7-2.7
		c0.9-4.8,1.9-9.6,2.5-14.5c1.1-8.5,2.2-17,4-25.4c1.5-7.2,3.6-14.1,6.3-20.9c1.9-5,4.2-9.9,6.3-14.8c0.3-0.7,0.5-1.3,0-2.5
		c-1.8,3.5-3.3,6.6-4.8,9.7c0.5-3,1.4-5.7,2.9-8.3c2.3-4.1,3-8.3,2.3-12.9c0-0.1-0.3-0.3-0.4-0.4c-0.4,0.1-0.7,0.5-1.5,0.1
		c1.9-3.8,1.5-7.7-0.3-12.3c-0.9,2.2-1.6,3.8-2.1,5.4c-0.5,1.6-1,3.2-2.4,4.4c-0.2-1.2,0.4-2.2,0.8-3.2c0.7-1.8,1.4-3.6,2-5.5
		c1.2-3.9,0.6-5.3-3.1-7.5c-0.9,0.3-1.1,1.1-1.4,1.8c-0.6,1.5-1.1,3-1.7,4.5c-0.2,0.5-0.3,1.2-1.1,0.8c-0.3-0.5-0.1-0.9,0.1-1.3
		c0.7-2,1.3-3.9,2-5.8c0.3-0.9,0.4-1.8-0.5-2.5c-1-0.8-1.9-1.7-2.8-2.6c-0.9-0.9-1.7-1.8-2.6-2.7c-1.8-1.7-3.6-3.5-5.9-4.7
		c-1.4-0.7-2.8-1.8-3.6-3.9c1.8,0.5,2.7,1.7,3.8,2.5c0.2,0.2,0.5,0.4,0.8,0.5c3.1,1.6,5.5,4.1,7.8,6.7c1,1.1,2,2.1,3.3,3
		c2,1.3,3.8,2.8,5.4,4.7c3.3,3.9,4.5,8.8,4.9,13.6c0.4,5.3,1.2,10.7,0.4,16.1c-0.2,1,0.1,2.1,0.2,3.1c0,1.1,0.2,2.3,0,3.4
		c-0.5,4.7-0.3,9.4-0.5,14c-0.1,3,0.6,5.8,1.1,8.7c0.3-0.2,0.4-0.2,0.5-0.3c0.5-0.4,0.3-1.6,1.3-1.2c0.8,0.3,0.5,1.1,0.3,1.8
		c-0.1,0.3-0.3,0.6,0,1c0.2-0.3,0.4-0.5,0.6-0.8c0.4-1.1,0.9-2.1,1.9-0.4c0,0,0.4-0.1,0.5-0.2c0.4-0.3,0.5-1.1,1.3-0.6
		c0.4,1.8-1.8,3-1,5.1c1.2-1.2,1.4-3,3.1-4c0.3,2.6-2,4.2-2.1,6.5c1.2-0.1,1.4-1,1.9-1.6c0.8-1,1.6-2,2.3-3c1.5,0.9,2.2-1.1,3.7-1
		c0.1,1.9-1.5,3.1-1.9,4.9c1.9,0.3,3.2-0.6,4.5-1.5c2.1-1.6,4.1-3.2,6.2-4.8c2.5-1.8,4.9-3.8,7.5-5.5c6.1-3.8,12.1-7.7,18.8-10.6
		c4.8-2.1,9.5-4.4,14.7-5.4c3.9-0.8,7.8-1.6,11.7-2.2c1.2-0.2,2.2,0,3.4,0.3c3.3,0.9,6.5,2.3,9.3,4.2c0.3,0.2,0.6,0.2,0.9-0.2
		c0.3-1-1.4-1.3-0.9-2.3c2.2,0.5,2.5,0.8,2.2,3.4c-0.1,0.3-0.1,0.7-0.2,1.2c-1.4,0.4-2.6-0.1-3.8-0.9
		C124.6,763.5,124.4,763.3,124.1,763.1c-0.3-0.3-0.4-0.5-0.4-0.6c0,0-0.1,0.1-0.2,0.2C123.7,762.9,123.9,763,124.1,763.1z
		 M122.9,762.4c-0.7-0.4-1.2-0.4-1.8,0.3c-0.5,0.6-0.9,1.6-2,1.6c-0.7-1.2,1.3-1.9,0.5-3.3c-2.2-1-4.6-1.5-7.1-0.9
		c-1,0.2-2,0.4-3,0.4c-1.5,0.1-2.6,0.6-3.6,1.7c-0.7,0.8-1.5,1.4-2.3,2c-0.4,0.3-0.8,0.8-1.3,0.1c-0.2-1,1.5-1.1,1.1-2.2
		c-3-0.6-3.2,3.4-5.7,3.5c-0.6-0.8,0.7-1.5,0-2.3c-0.4,0.3-0.9,0.6-1.1,0.9c-1.5,3.5-3.6,6.6-5.8,9.7c-1.3,1.9-2.1,4.1-0.4,6.4
		c0.4,0.6,0.8,1,1.6,1c1.6,0,3.2-0.2,4.7-0.8c5.3-2.2,9.8-5.8,14.7-8.8c1-0.6,0.9-1.8,1.6-2.5c0.9-0.9,2.3,0.5,3.1-0.8
		c0.1-0.2,0.3-0.4,0.4-0.5c0.5-0.5,0.9-0.9,1.4-1.3c1.1-0.7,4.7-3.1,5.7-3.8C123.3,762.6,123.1,762.5,122.9,762.4z"/>
	<path d="M14.6,703.4c-0.7-0.3-1.4-0.5-2.4-0.5c0.7,1,1.5,1.2,2.2,1.2c0.4,0,0.8-0.1,1.2-0.1C15.2,703.7,14.9,703.5,14.6,703.4z"/>
	<path d="M14.5,698.6c-0.1,0.3,0,0.7,0.1,1c0.5,1.2,1.8,2.6,3.4,3.6c1,0.6,2,1,3.1,1.2c-1.4-1.3-3.1-2.3-4.2-3.9
		c-0.4-0.5-1-1-0.5-1.8c0.3-0.4,0.2-0.8-0.1-0.9c-0.1,0-0.1-0.1-0.2-0.1C15.4,697.5,14.8,697.8,14.5,698.6z"/>
	<path d="M18.5,697.6c0.1,0.1,0.1,0.2,0.2,0.2c0.4,0.3,0.9,0.2,1.4,0.1c1.7-0.4,3.5-0.8,4.7-2c2.1-1.9,4-1.9,6.5-0.9
		c5.8,2.2,11.9,2,17.9,0.8c3.7-0.7,7.4-1.5,11-2.7c5.2-1.8,10.2-4,14.3-7.8c1.7-1.6,3.7-3.1,5.5-4.6c0.8-0.7,1.6-1.4,2.2-2.1
		c0.7-0.7,2-1.8,1.3-2.5c-1.3-1.1-1.8,0.7-2.5,1.4c-1.9,2.1-4.4,3.6-6.5,5.6c-6.5,6.4-14.7,8.9-23.3,10.6c-3.5,0.7-7,0.9-10.6,1.1
		c-1.2,0.1-2.5,0-3.7-0.2c-5-0.9-9.6-2.9-14.2-5.1c-0.7-0.3-1.3-0.9-1.9-1.5c-0.5-0.5,0-1,0.4-1.5c0.2-0.2,0.5-0.4,0.7-0.5
		c0.6-2.1,2.3-3.3,3.5-4.9c1.7-2.2,3.6-4.1,4.3-6.9c0.2-0.7,0.8-1.4,1.2-2.1c3.3-5.4,6.6-10.7,9.8-16.1c5.5-9.2,12.5-16.9,21.6-22.5
		c2.7-1.7,5.5-3.3,8.6-4.2c2-0.5,4-1.2,5.4-2.9c0.4-0.4,0.9-0.8,0.5-1.8c-2.1,0.3-3.5,2.5-5.6,2.6c-0.7-0.5-0.2-1,0-1.5
		c1.8-4.6,3.8-9.1,6.8-13c0.8-1.1,1.3-2.4,2-3.6c4.3-7.7,8.6-15.3,12.7-23.1c2.4-4.6,5.5-8.9,8.1-13.5c3.8-6.6,8.1-12.7,12.7-18.7
		c0.2-0.3,0.4-0.5,0.6-0.8c0.2-0.4,0.3-0.8,0-1.1c-0.1,0-0.1-0.1-0.2-0.1c-0.2-0.1-0.8-0.1-0.9,0.1c-0.8,0.8-1.6,1.7-2.3,2.5
		c-5.1,6.6-9.2,13.9-13.7,20.9c-5.3,8.2-9.4,17-14.3,25.4c-2.5,4.3-4.8,8.8-7.6,13c-2.6,3.8-4.2,8.1-5.9,12.3
		c-0.5,1.2-1.1,2.1-2.3,2.8c-4.9,2.5-9.4,5.7-13.5,9.2c-1.8,1.6-3.6,3.2-5.2,5c-5.6,6.3-9.8,13.4-14,20.7
		c-3.8,6.6-7.7,13.2-13.7,18.3c-3.5,3-3,6.4,0.9,8.9c1.2,0.8,2.7,1.2,3.7,2.5c-0.7,1.4-2,1.8-3.3,2.4
		C20.6,696.3,19.3,696.6,18.5,697.6z"/>
	<path d="M21.9,686c-0.2,0.2-0.5,0.4-0.7,0.5c0.7,2,2.8,1.8,4.2,2.3c1.6,0.6,3.1,1.2,4.5,2.3c1.7,1.4,3.9,2,6.1,2
		c3.5-0.1,6.8-0.9,9.9-2.5c0.5-0.3,1.2-0.5,1-1.2c-0.4-0.8-1.2-0.5-1.8-0.2c-2.2,1-4.5,1.5-6.9,2.1c-1.5,0.3-2.9,0.4-4.4,0.3
		c-1.4-0.2-2.6-0.7-3.4-2.2c2.9-1.7,6.6-1.2,8.8-4.1c-4.6,1.5-9.2,3.1-14.7,1.9c1.9-1.4,3.7-2.1,5.4-3c1.6-0.9,3.6-1.3,5.3-3.4
		c-3.9,0.4-6,3.5-9.4,3.6c1.3-2,3.2-3.2,4.2-5.1C26.7,680.9,24.8,684.1,21.9,686z"/>
	<path d="M27.9,739.1c-0.2,0.2-0.4,0.6,0,0.8c0.4,0.2,0.5-0.2,0.6-0.5c0.1-0.3,0.1-0.6,0.1-0.9C28.3,738.7,28.1,738.9,27.9,739.1z"
		/>
	<path d="M28.5,738.4C28.5,738.4,28.5,738.4,28.5,738.4C28.6,738.4,28.6,738.4,28.5,738.4L28.5,738.4z"/>
	<path d="M28.5,738.4L28.5,738.4C28.6,738.4,28.6,738.4,28.5,738.4C28.6,738.4,28.6,738.4,28.5,738.4z"/>
	<path d="M44.1,717.6c0.1-1.2,0.7-2.2,1.7-2.8c0.7-0.4,1.4-0.2,1.6,0.6c0.2,0.8,0.2,1.6,0.2,2.4c0,1.9-0.2,3.9,0.2,5.8
		c1.2,4.7,1.3,9.7,3,14.4c0.4,1.2,0.5,2.4,0.4,3.7c0,0.5-0.2,0.9-0.6,1.1c-0.7,0.3-1.1,0-1.5-0.5c-0.8-1-1.3-2.2-2.2-3.1
		c-1.8-1.7-2.5-3.8-3-6c-0.7-2.7-0.7-5.4-0.4-9.4C43.7,722.6,43.9,720.1,44.1,717.6z M45.8,726.1c-1.2,3.8-0.2,8.1,2.2,10.3
		C47.9,733.5,46.9,728.7,45.8,726.1z"/>
	<path d="M60.9,719.6c-0.6,0.8-1.3,1.5-1.2,2.9c1.5-0.1,1.8-1.2,2.4-2c0.2-0.4,0.5-0.9,0-1.2C61.6,719,61.2,719.3,60.9,719.6z"/>
	<path d="M60.8,384.7c-0.2,4.1-0.4,8.2-0.3,12.3c0.2,9.8,1.8,19.5,1.8,29.4c0,1.6,0.3,3.2,0.5,4.8c0.1,0.5,0.3,1.1,1.3,1.3
		c0-2.9,0.1-5.6,0-8.3c0-1.7-0.4-3.4-0.4-5.1c0.1-4.7-0.5-9.3-1.2-14c-0.6-4.1-0.3-8.2-0.3-12.3c0-6.6,0.6-13.2,1.7-19.7
		c0.6-3.2,0.8-6.6,1.3-9.8c0.8-4.9,2.3-9.5,4.2-14.1c1.8-4.4,3.5-8.9,5.2-13.4c0.5-1.3,1.1-2.7,0.4-4.1c-0.7,0-1,0.4-1.1,0.9
		c-1.5,5.3-4,10.2-6,15.3c-3.1,7.5-4.7,15.2-5.6,23.2C61.8,375.5,61.1,380.1,60.8,384.7z"/>
	<path d="M60.6,189.2c-0.3,7.9,0.9,15.8,2.4,23.5c1.1,6.1,2.3,12.1,3.2,18.2c0.8,5.2,1.9,10.4,2.6,15.6c0.2,1.5,0.3,3,0.5,4.5
		c0.8,9.4,2.8,18.5,4.3,27.8c0.1,0.9,0.3,2.4,0.3,3.3c0.2,5.6,1.5,11,2.4,16.5c0.9,5.9,2.4,11.6,2.8,17.6c0,0.3,0.3,0.6,0.4,0.8
		c0.9,0.1,0.9-0.6,1-1.1c0.5-2.9-0.3-5.7-0.8-8.5c-1.2-6.9-2.6-13.7-3.5-20.6c-1-8.2-2.4-16.3-3.6-24.4c-0.5-3.9-1.2-7.7-1.7-11.5
		c-0.3-2.2-0.5-4.5-0.6-6.8c-0.2-3.4-1.1-6.8-1.7-10.1c-0.4-2.2-1-4.5-1.2-6.7c-0.6-6.4-2.6-12.5-3.4-18.8
		c-0.9-7.9-2.7-15.7-1.4-23.8c0-0.2,0.1-0.6,0.1-0.8c0-7.3,1.2-14.6,1.8-21.8c0.6-6.4,2.1-12.6,2-19.1c0-1.5,0.5-2.9,0.7-4.4
		c1.7-9.5,4.9-18.5,7.7-27.7c2.7-8.4,6.9-16.1,10.6-24c2.2-4.6,4.5-9.1,6.9-13.6c3.9-7.3,6.7-15,9.6-22.6c2-5.1,2.9-10.6,4-15.9
		c0.4-2.1,0.6-4.3,0.8-6.5c0.1-1.1,0.2-2.2,0.9-3.5c1,3.3-0.3,6.4,0.5,9.9c1.1-1.7,0.8-3.2,1-4.5c0.2-1.4-0.3-4.8-0.3-6.1
		c0-0.8-0.9-8.3-0.9-9.7c-0.1-1.7-0.8-3.4-0.4-5.6c1.8,2.6,1.8,5.4,3.1,7.7c0.9,1.3,5.6,11.3,7.3,14.9c0.7,1.5,1.5,3,2.5,4.4
		c1.2,1.8,2.8,5,3.6,7c2.3,5.9,4.8,11.6,6.8,17.6c2.5,7.6,4.3,15.3,5.9,23.2c0.9,4.2,2.1,8.4,2.9,12.7c2,11.2,2.7,22.5,1,33.8
		c-1.4,9.2-2.8,18.5-5.7,27.5c-2.4,7.4-4.4,14.9-7,22.2c-3.2,8.9-6.2,17.9-10.5,26.4c-2.3,4.7-4,9.7-5,14.9c-0.6,3-1.6,6-2.9,8.8
		c-1.3,2.8-1.9,5.6-2.1,8.6c0,0.2,0,0.4-0.1,0.6c-0.5,5.6-1,11.2-0.9,16.8c0.1,2.4,0.6,4.7,1.1,7.1c0.1,0.7,0.4,1.6,1.2,2
		c0.8-0.2,0.5-0.9,0.4-1.3c-1.8-7.1-1.2-14.3-0.5-21.5c0.1-0.5,0.1-1.4,0.1-1.9c0.1-4.8,1.9-9.2,3.6-13.6c0.6-1.6,1.3-3.2,1.6-4.9
		c1.3-7.2,4.4-13.7,7.6-20.2c1.2-2.5,2.2-5,3.1-7.6c2.6-7.4,5.5-14.8,8-22.2c2.5-7.5,4.3-15.2,6.6-22.7c0.7-2.2,1.1-4.4,1.2-6.7
		c0.1-2,0.5-4,0.9-6c2.2-10.3,2.2-20.7,1.2-31.2c-0.6-6.7-2-13.3-3.7-19.8c-1-3.9-1.7-7.8-2.5-11.7c-0.7-3.1-1.1-6.4-2.3-9.3
		c-1.2-3.1-2.1-6.3-3.3-9.3c-2.2-5.5-4.4-11-6.9-16.4c-1.7-3.6-4-6.9-5.8-10.5c-2.4-5-4.6-10.2-6.8-15.4c-0.6-1.4-1.2-2.7-1.7-4.1
		c-0.9-2.3-2-4.6-2.3-7.1c-0.1-0.7-0.2-1.5-1.1-1.4c-0.8,0.1-0.8,1-0.9,1.7c-0.1,0.7-0.1,1.4-0.1,2.2c0.1,1.9,0.1,3.8,0.5,5.6
		c0.8,4,0.5,8,0.7,11.9c0,1.2-0.3,2.5-0.6,3.7c-0.6,2.9-0.6,5.9-1.1,8.8c-1.4,8.2-3.9,16-6.9,23.6C94.8,65.5,91,73,87.1,80.5
		C83.6,87.2,80.3,94,77,100.8c-0.5,1-0.9,2.1-1.2,3.1c-3.6,11.1-7.9,22-10,33.5c-0.4,2.5-1,5-0.9,7.5c0,4.5-1.4,8.8-1.7,13.2
		c-0.3,4.1-0.4,8.2-1.5,12.1c-0.1,0.4-0.2,1.1-0.2,1.5C61.2,177.6,60.8,183.4,60.6,189.2z"/>
	<path d="M64.4,724.9c-1.7,1.7-2.9,2.9-3.3,5.2C63.2,728.9,64.1,727.5,64.4,724.9z"/>
	<path d="M60.9,725.2c1.6-0.8,2.3-1.7,3-2.5c0.2-0.3,0.2-0.6,0-0.9c-0.3-0.3-0.6-0.3-0.9-0.1C61.8,722.4,61.3,723.5,60.9,725.2z"/>
	<path d="M64.8,441.9c-0.9,0.6-0.8,1.5-0.6,2.2c1.8,7,2.9,14.1,5.3,20.9c0.9,2.6,1.7,5.2,2.4,7.9c1.4,5.1,3.8,9.8,6,14.5
		c1.1,2.3,2,4.6,2.8,7c0.7,2.3,1.7,4.5,2.8,6.6c4.3,8.5,7.7,17.3,11,26.2c1.1,3,2.2,6,3.3,9c1.9,5.1,5.6,8.2,10.4,10.2
		c2.4,1,4,0.5,5.8-1.5c0.3-0.4,0.5-1,1.4-1.2c0.1,2.2,0.2,4.4,0.3,6.6c0.1,0,0.1,0,0.2,0c1.1,0,0.9-0.8,1-1.4
		c0.7-4.3-0.1-8.4-1.1-12.5c-0.8-3.6-1.7-7.2-3-10.5c-3.1-8.1-5.2-16.5-8.7-24.5c-3.3-7.5-6.8-14.9-10.1-22.4
		c-0.7-1.6-0.6-3.7-2.3-4.9l-0.2,0.2c1.1,4.5,3,8.6,5,12.7c0.5,1,0.9,2.1,1.3,3.1c0.4,1.1,0.8,2.2,1.2,3.2c3.3,8,6.7,16,9.2,24.3
		c1.7,5.8,3.5,11.6,5.4,17.3c1,2.9,0.5,5.3-0.6,7.8c-0.8,1.9-2.3,2.6-4.2,1.9c-4.1-1.6-7.3-4.2-8.8-8.4c-0.1-0.3-0.1-0.7-0.3-1
		c-2.3-3-2.7-6.8-3.9-10.2c-1-2.7-2-5.3-3.3-7.9c-1.4-2.9-2.5-5.9-3.7-8.8c-1.8-4.1-4-8-5.5-12.1c-2-5.6-4.8-10.9-7-16.3
		c-4.5-10.9-7.3-22.3-9.9-33.8c-0.2-1-0.5-2-0.9-2.9C65.4,442.8,65.1,442.5,64.8,441.9z"/>
	<path d="M68,633c-0.3,0.1-0.6,0.4-0.5,0.8c0.1,0.4,0.4,0.6,0.7,0.5c2.9-1,5.9-1.7,7.9-4.2c0.3-0.3,0.6-0.7,0.4-1.4
		c-0.2-0.1-0.4-0.2-0.4-0.2C73.6,630.3,70.9,631.9,68,633z"/>
	<path d="M75.6,633c0.1,0.8,0.5,1.2,1.1,1c1.1-0.2,2.2-0.7,3.3-1c1.4-0.4,2.6-1.5,4.2-0.8c0.4,0.2,1.2-0.1,1.6-0.4
		c2.2-2,5.1-3,7.5-4.8c6.1-4.8,12.6-9,17.4-15.2c2.1-2.6,4.1-5.2,5.3-8.3c0.7-1.9,1.6-3.8,2.6-5.6c1.4-2.4,2.1-5.1,2.9-7.7
		c0.8-2.7,1.5-5.5,2.5-8.2c0.2-0.5,0.2-1.1-0.4-1.8c-1.5,1.4-2,3.3-2.4,5.1c-1.6,7-4.9,13.3-7.8,19.7c-0.6,1.4-1.7,2.7-2.7,4
		c-1.5,1.8-3,3.4-4.6,5c-0.4,0.4-1,0.6-1.5,0.8c-1.1,1.1-2.2,2.3-3.4,3.5c-0.7,0.9-1.4,1.9-2.5,2.3c-2.2,0.7-3.6,2.4-5.3,3.7
		c-3.3,2.6-6.8,4.8-11,5.9C80.1,630.9,77.9,632.1,75.6,633z"/>
	<path d="M78.5,238.3c-1.2,3.8-1.6,8.7-1.2,11.9c0.1,0.7,0.2,1.4,0.4,1.9c0.4,0,0.6-0.3,0.7-0.6c0.2-2.8,0.4-5.7,0.4-8.6
		C78.7,241.4,78.7,239.8,78.5,238.3z"/>
	<path d="M77.6,446.9c0,0.3,0,0.7,0.2,1c1.5,2.9,1.9,6.2,2.9,9.4c0.2,0.8,0.2,2.5,1.6,2c1-0.4,0.1-1.6-0.1-2.4
		c-0.7-3.1-1.2-6.2-2.8-9c-0.2-0.4-0.4-0.8-0.7-1.2c-0.1-0.1-0.4-0.2-0.6-0.2C77.9,446.5,77.8,446.7,77.6,446.9z"/>
	<path d="M83.2,749.1c1.6-0.2,3.2-0.4,4.8-0.4c5.5-0.1,10.6-1.6,15-5c0.6-0.5,1.3-1,2.1-1c0.3,0,0.7,0.1,0.9,0.3
		c0.2,0.2,0.2,0.7,0,0.9c-0.4,0.8-1,1.5-1.8,2c-5.1,3.1-10.2,6.1-15.9,7.8c-0.8,0.2-1.5,0.4-2.2,0.6c-1.9-0.5-3.7-0.8-5.4-1.4
		c-0.7-0.2-1.1-0.9-0.6-1.6C80.8,750.3,81.6,749.3,83.2,749.1z M93.7,749.8c-1.6-0.2-7.3,0.9-8.7,1.2c-0.3,1,0.3,1,0.9,1.1
		C87.3,752.2,91.6,751,93.7,749.8z"/>
	<path d="M86.1,615.8c-3.4,2.7-5.5,5.8-6,8.4C81.9,622.9,84.8,618.9,86.1,615.8z"/>
	<path d="M89.5,634.6c-2.9,1-5.2,1.6-7.8,1.4c0.6,1.7,1.8,1.7,2.9,1.6C86.7,637.6,87.8,637,89.5,634.6z"/>
	<path d="M82.2,736.3c-0.2,0.4-0.1,1,0.3,1.2c0.4,0.2,0.8-0.1,1.1-0.6c0.4-0.8,0.9-1.6,0.2-2.5C82.6,734.5,82.6,735.6,82.2,736.3z"
		/>
	<path d="M82.6,231c0,4,0,8,0,11.9c0,2.8,0,5.6,0,8.5c0,0.1,0.3,0.2,0.8,0.6c0.1-1.6,0.1-3.1,0.1-4.7c0.1-5,0-9.9,0-14.8
		c0-0.6,0.1-1.3-0.4-1.9C82.9,230.7,82.6,230.9,82.6,231z"/>
	<path d="M81.8,626.9c1.4,0.6,2.1,0,2.7-0.5c1.5-1.6,3.8-2.6,3.8-5.2C85.8,622.6,84.2,625,81.8,626.9z"/>
	<path d="M82.9,461.2c-0.3,0.8,0.5,1.2,1,1.5c0.8,0.5,1.6,1.1,2.4,1.2c2,0.2,2.6,1.5,3,3.2c0.5,1.9,1,3.8,1.5,5.6
		c0.1,0.5,0.5,1,0.7,1.5l0.2-0.2c-0.1-2.3-0.7-4.5-1.2-6.7c-0.4-1.5-0.5-2.9,0.8-4.1c1.4-1.4,1.7-3.3,1.7-5.1
		c0.1-4.9,0.8-9.8,0.1-14.7c-0.2-1.7-0.5-3.4-0.7-5.1c-0.5-4-1-7.9-1.5-11.9c-0.1-0.5,0-1.1-0.8-1.7c0,1.2,0,2.2,0,3.2
		c0,1.2-0.1,2.3,0,3.4c0.3,3.4,0.6,6.8,1,10.2c0.7,5.4,0.5,10.7,0.1,16.1c-0.3,4.4-1.8,5.1-5.8,3.6c-0.2-0.1-0.4-0.2-0.6-0.3
		C84.2,461,83.3,460.1,82.9,461.2z"/>
	<path d="M86,734.9c-0.1,0.3,0,0.7,0.3,0.8c0.4,0.2,0.6-0.1,0.8-0.3c0.4-0.5,0.9-1,0.6-1.8c0-0.1-0.2-0.1-0.3-0.2
		C86.5,733.5,86.2,734.2,86,734.9z"/>
	<path d="M86.1,385.3c-0.2,2.8,0.2,5.3,0.6,7.7c0.4,2,0.7,4,0.8,6.1c0,0.3,0.2,0.6,0.6,0.7c0.4,0,0.6-0.3,0.7-0.6
		c0.1-0.4,0.1-0.9,0.1-1.3c-0.6-4.8-1.3-9.7-1.2-14.6c0-0.3,0-0.7-0.1-1c-0.1-0.5-0.3-0.9-0.9-0.8c-0.2,0-0.5,0.5-0.5,0.7
		C86.1,383.3,86.1,384.4,86.1,385.3z"/>
	<path d="M86.5,643.2c-0.2,0.1-0.4,0.5-0.4,0.8c0,0.6,0.5,0.7,1,0.7c1.6-0.2,2.5-1.1,3.3-2.3c-0.2-0.2-0.3-0.4-0.5-0.5
		C88.7,642.3,87.6,642.7,86.5,643.2z"/>
	<path d="M87.6,247.3c-0.1,1.5,0.1,3,0.3,4.5c1-1.6,1.2-3.8,0.8-7.1c-0.1-0.6-0.2-1.2-0.3-1.9C87.9,244.4,87.7,245.9,87.6,247.3z"/>
	<path d="M88.2,621C88.2,621.1,88.2,621.1,88.2,621C88.3,621.1,88.3,621.1,88.2,621L88.2,621z"/>
	<path d="M88.2,621L88.2,621C88.3,621.1,88.3,621,88.2,621C88.3,621,88.3,621,88.2,621z"/>
	<path d="M88.5,654c0,0.1,0.1,0.2,0.2,0.3c0.2,0,0.5,0.1,0.6,0c1.7-1.9,2.5-4.3,3.6-6.5c0.1-0.3,0.1-0.7-0.2-0.9
		c-0.3-0.2-0.7-0.2-0.9,0.1C90.7,649.3,89.3,651.5,88.5,654z"/>
	<path d="M88.6,256.3c-0.3,1.6-1,3.2,0.6,4.9C90,259.2,88.9,257.8,88.6,256.3z"/>
	<path d="M90.1,618.8c-1.3,0.4-1.4,1.4-1.8,2.2C89.5,620.9,89.9,620.1,90.1,618.8z"/>
	<path d="M89.9,226.4c-0.7,3.9-1.6,7.8-1.1,12c0.2-0.5,0.6-1,0.6-1.5c0.4-6.3,2.5-12.4,3.6-18.6c-1-0.3-1.3,0.3-1.4,0.8
		C91,221.6,90.3,224,89.9,226.4z"/>
	<path d="M90.9,734.5c-0.3,0.7-1,1.3-0.4,2.2c1.1,0.2,1.2-0.7,1.6-1.4c0.3-0.5,0.6-1.2,0-1.5C91.5,733.4,91.2,734,90.9,734.5z"/>
	<path d="M92.1,615.4c-0.3,0.4-0.5,0.9-0.9,1.4c1-0.1,1.2-0.6,1.3-1.2C92.5,615.4,92.2,615.2,92.1,615.4z"/>
	<path d="M93.7,247.5c-0.9,1.7-0.3,3.5,0,5.2C93.7,250.9,93.7,249.2,93.7,247.5z"/>
	<path d="M94.5,240.9c-1.2,1-0.9,1.8-0.9,3.3c0.6-0.6,0.8-1.1,0.8-1.5C94.5,242.1,94.4,241.5,94.5,240.9z"/>
	<path d="M96.4,608.8c-1.5,1.5-2.4,2.6-2.9,4.7C95.1,612.1,96,611,96.4,608.8z"/>
	<path d="M94.5,234.2c-0.2,0.8-0.3,1.6,0.2,2.3c0.6-0.5,0.6-1.2,0.8-1.8c1.5-8.2,4-16.1,6.5-24.1c0.3-0.9,0.5-1.8,0.6-2.7
		c0.1-0.6-0.1-1.1-1.1-1.3C98.8,215.7,96.3,224.9,94.5,234.2z"/>
	<path d="M96.6,74.2c-1.1,0.6-2,1.3-2.9,3C95.4,76.3,96.1,75.4,96.6,74.2z"/>
	<path d="M99.7,601.7c-0.9,1.6-2.1,3.2-2.3,5.1c3.2-3.3,5-6.8,5.3-10.3C100.9,598,100.6,600.1,99.7,601.7z"/>
	<path d="M97.6,619.5c1.5,0.7,2.4-1,3.7-1.1c1.1-1.1,2.2-2.3,3.4-3.5c1.4-2.1,2.7-4.2,4-6.4c2.9-4.7,5.3-9.6,7.3-14.7
		c0.4-1,1.1-2,0.3-3.6c-0.9,1.5-1.6,2.7-2,4.1c-2.5,7-6.3,13.4-10.5,19.5c-1.2,1.8-3.1,3-4.9,4.2C98.3,618.5,97.8,618.7,97.6,619.5z
		"/>
	<path d="M99.8,257.2c-0.5,1.6-0.5,1.6-0.2,4.2C100.2,259.7,99.8,258.4,99.8,257.2z"/>
	<path d="M100.5,242.6c-0.1,0.5-0.1,1-0.3,1.4c1-1.3,1-1.3,1.1-4.5C100.6,240.4,100.6,241.5,100.5,242.6z"/>
	<path d="M104.1,61.8c-1.2,3.5-3.3,6.5-5.4,10.1c5.1-2.7,8.8-15,8-21.6C105.1,54.3,105.3,58.2,104.1,61.8z"/>
	<path d="M101.9,236.2c-0.7,1-0.6,2.2-0.6,3.3c0.3-0.3,0.5-0.6,0.6-1C102.1,237.8,101.9,237,101.9,236.2z"/>
	<path d="M101.3,239.5C101.3,239.5,101.3,239.5,101.3,239.5L101.3,239.5L101.3,239.5z"/>
	<path d="M101.3,239.5L101.3,239.5C101.3,239.5,101.3,239.5,101.3,239.5L101.3,239.5z"/>
	<path d="M101.5,609.5c1.6-0.3,1.4-1.8,2-2.7c-0.1-0.1-0.2-0.2-0.3-0.3C102.4,607.3,101.7,608.2,101.5,609.5z"/>
	<path d="M103.2,606.5c0.1,0.1,0.2,0.2,0.3,0.3c2.3-2.6,3.8-5.7,4.9-8.9c0.6-1.8,1.6-3.5,1.5-5.4c-0.5-0.3-0.8-0.2-0.9,0.2
		c-1.4,4.5-3.2,8.7-5.5,12.8C103.3,605.8,103.3,606.2,103.2,606.5z"/>
	<path d="M103.8,226.7c-0.3,1.4-0.7,2.8-1,4.3c1.5-1.6,2-3,2.7-7.2l-0.2-0.2C104.4,224.5,104.1,225.6,103.8,226.7z"/>
	<path d="M105.3,223.6l0.2,0.2c2-3.4,3-7.2,3.9-11.5C108,214.3,106,220.2,105.3,223.6z"/>
	<path d="M104.4,767.2c2.3-0.6,3.3-1.8,4.5-2.7c1.1-0.9,2.7-1,3.4-2.4c-0.8-0.8-1.4-0.2-2,0.1C108.4,763.4,106.5,764.8,104.4,767.2z
		"/>
	<path d="M108.9,269.6c0,0.4,0,0.7,0,1c0.1,0.3,0.1,0.7,0.6,0.6c0.1,0,0.2-0.4,0.2-0.6C109.5,270.2,109.5,269.7,108.9,269.6z"/>
	<path d="M110.8,204.2c-0.5,2.1-1.5,4.2-0.8,6.5c0.4-1.5,0.9-3,1.3-4.4c0.9-2.9,1.9-5.9,2.9-8.8c0.6-1.8,1.2-3.7,0.6-6.1
		c-1.6,2.2-1.6,4.5-2.4,6.5S111.3,202.1,110.8,204.2z"/>
	<path d="M110.1,17c-0.2,1.1-0.2,8.3-0.2,8.8c0,0.1,0,0.1,0,0c0.8,5.4,0.7,12.4,1.4,17.6c0.1-0.9,0.2-1.8,0.3-2.8
		c0-0.9,0-1.8,0.2-2.8c0.6,2.3,1.2,4.6,1.9,6.9c0.7,2.4,0.6,4.9,1.9,7.1c0.4-2.5-0.4-4.8-1-7.1c-1.3-4.6-3.6-15.9-3.6-21.1
		c1.3,2.5,3.1,9.3,4.7,11.2c0.8-0.9,0.4-1.5,0-2.1c-1.6-2.7-2-5.8-3.1-8.7C112.3,23,110.6,18.6,110.1,17z"/>
	<path d="M112.3,765.9c-1,0.1-1.8,0.4-2.3,1.8C111.3,767.5,111.9,766.8,112.3,765.9z"/>
	<path d="M111.1,47.7c-0.4,3.7-0.6,6.8-1.2,9.8C111.6,55.1,112,51.7,111.1,47.7z"/>
	<path d="M111.6,274.7c-0.3-0.7-0.5-1.5-1.6-1.8c1.3,4.7,2.3,9.5,5.2,13.6c1.1,1.6,2.1,3.3,2.8,5.1c2.9,7.1,7.3,13.2,12.6,18.7
		c7,7.4,13.2,15.5,19,23.8c2.4,3.5,4.9,6.9,7.2,10.4c3.3,5,6.8,9.7,9.8,14.9c3,5.3,6.4,10.3,9.6,15.4c0.6,0.9,1.2,1.7,1.6,2.6
		c4.2,9.3,8.3,18.5,12.4,27.9c1,2.3,1.6,4.8,2.3,7.2c2.7,8.7,5.5,17.4,6.4,26.6c0.1,0.6,0.2,1.1,0.2,1.7c0.6,8.4,1.4,16.8,1.9,25.3
		c0.4,5.7,0.4,11.4-0.1,17.1c-0.1,0.9-0.1,1.8-0.2,2.7c-0.2,7.4-0.8,14.8-1.4,22.2c0,0.5-0.1,0.9-0.1,1.4c0.1,8.1-0.8,16.2-1.4,24.3
		c-0.3,4.1-0.5,8.2-0.8,12.3c0,0.5,0,0.9,0.1,1.3c0.1,0.2,0.5,0.4,0.8,0.5c0,0,0,0,0.1,0c0.2,0,0.4-0.2,0.5-0.3
		c0.6-0.9,0.7-1.9,0.7-3c0.1-1.8,0.3-3.7,0.2-5.5c-0.2-7.4,1.2-14.8,1.4-22.2c0.1-5.1,0.5-10.3,0.5-15.4c0-3.2,0.4-6.4,0.8-9.6
		c0.7-6.6,0.6-13.2,0.7-19.8c0.1-5.8,0-11.7-0.8-17.5c-1.4-10.7-1.6-21.7-4.8-32.1c-2.7-8.8-5-17.8-9.2-26.1
		c-3.1-6.2-5.9-12.6-8.7-19c-1.4-3.3-3.5-6.1-5.3-9.2c-3.8-6.3-7.6-12.5-11.5-18.7c-1.1-1.8-2.4-3.6-3.7-5.4
		c-6.1-8.1-11.6-16.7-17.9-24.7c-3.4-4.3-7.2-8.3-10.9-12.3c-3.7-4.1-6.8-8.6-9.2-13.5c-1.7-3.5-3.5-6.9-5.6-10.2
		C114,280.7,112.9,277.6,111.6,274.7z"/>
	<path d="M112.3,765.8C112.3,765.9,112.3,765.9,112.3,765.8C112.3,765.9,112.3,765.9,112.3,765.8L112.3,765.8z"/>
	<path d="M112.3,765.8L112.3,765.8C112.3,765.9,112.3,765.8,112.3,765.8C112.3,765.8,112.3,765.8,112.3,765.8z"/>
	<path d="M117.4,761.6c-2.1,0.6-3.1,1.5-5.1,4.2C114.5,765.2,115.8,763.6,117.4,761.6z"/>
	<path d="M117,685.5c-1,0.2-1,1-0.9,1.6c0.3,7.4-0.2,14.9,1.1,22.2c0.4,2.2,1.2,4.4,2.2,6.5c0.6,1.3,1.2,2.8,1.9,4
		c4.1,7,6.8,14.8,11.7,21.3c2.5,3.3,5,6.5,7.1,10.1c1,1.7,2.4,3,4.1,4.1c0.6,0.4,1.4,0.6,1.5,1.3c0.6,2.4,1.1,4.8,1.6,7.5
		c-2.6-0.2-3.6-2.5-5.6-2.9c-0.6,0.6-0.3,0.9,0.1,1.3c0,0,0.1,0.1,0.1,0.1c2.5,2.3,5.2,4.2,8.5,5.3c0.7-0.6,0.3-1.3-0.1-1.8
		c-1.7-2.9-1.8-6.1-2.3-9.2c-0.1-0.6,0-1.1,0.2-1.7c2.1-4.3,3.1-9,4.6-13.6c0.9-2.7,2.3-5,4.6-6.5c1.7-1.1,3-2.5,4.2-4
		c6.5-8.5,12.5-17.5,17.7-26.9c3.1-5.7,6-11.5,8.2-17.7c3-8.8,5.5-17.7,8.2-26.5c1.5-4.9,2.5-10,3.2-15.1c0.5-3.4,1.1-6.8,1.9-10.1
		c1.5-6.4,2.1-12.9,2.4-19.4c0.3-5.9,0.4-11.9,0.4-17.8c0-3-0.3-5.9-0.5-8.9c-0.4-5.1-1-10.2-1.4-15.3c-0.3-3.5-0.9-7-2.2-10.4
		c-0.5-1.3-0.5-2.7-0.5-4c0-2.3-0.3-4.5-1-6.7c-1.3,0.4-1.3,1.4-1.2,2.2c0.6,4.2,0.2,8.5,2.1,12.4c0.7,1.5,0.7,3.1,0.9,4.7
		c1.1,8.7,2.6,17.5,2.2,26.3c-0.4,9,0,18-1.1,27c-0.6,4.8-1.5,9.5-2.5,14.2c-1.1,5.2-1.8,10.6-3.1,15.8c-0.9,3.5-1.9,7.1-3,10.5
		c-2.8,8.8-4.9,17.9-8.8,26.3c-3.3,7.3-7.1,14.4-11.6,21c-0.3,0.5-0.7,1.4-1.3,0.2c-1.3,0.8,0.1,2.5-1,3.4c-0.9,0.7-1.5,1.6-2.1,2.6
		c-2.5,4.2-5.3,8.2-8.4,12.1c-0.5,0.7-1,1.6-2.3,1.7c-0.1-1.2,0.6-2.1,1-3c2.8-6,4.5-12.4,6.1-18.8c0.2-0.7,0.3-1.3,0.5-2
		c0.6-1.9,0.5-1.9,0.2-4.5c-0.5-5.4-0.9-10.7,2.5-15.5c0.8-1.1,0.7-1.2,0.4-2.8c-1.8,1.4-1.4,4.1-3.4,5.7c-0.6-1.4-0.4-2.7-0.4-3.9
		c0-2.7-0.3-5.2-1.5-7.6c-0.3-0.6-0.5-1.3-0.5-2c-0.2-3.9-1.3-7.6-1.8-11.5c-0.8-5.4-1.3-10.9-1.8-16.3c-0.7-7.3-0.8-14.6-0.1-21.9
		c0.1-0.5-0.1-0.9-0.8-1.2c-0.9,0.8-0.8,2-1,3c-1.1,7-0.5,13.9,0.1,20.8c0.4,4.9,1,9.8,1.7,14.6c0.4,3.4,1.1,6.7,1.7,10.1
		c1.8,10.2,2.6,20.4,2.6,30.7c0,3.8-1.1,7.4-2.2,11c-1.6,4.9-3.1,9.7-5.6,14.3c-0.2,0.4-5.5,11.1-6.6,18.2c0,0.1-0.3,1.1-0.3,1.8
		c0,0-1.2,2.4-3.5,1c0,0,0,0,0,0c0,0,0,0,0,0c-0.1,0-0.1-0.1-0.2-0.1c-0.2-0.2-0.4-0.4-0.6-0.5c-2.2-2.4-3.7-5.2-4.4-8.4
		c-0.3-1.3-0.1-3-1.5-3.9c-0.8,0.6-0.3,1.6-0.7,2.4c-0.4-0.2-0.7-0.2-0.9-0.4c-2.3-2.4-4-5.3-5.5-8.3c-3.1-6.1-6.5-12.1-9.2-18.4
		c-1.1-2.5-2-5.1-2.3-7.9c-0.7-6.5-1.1-13-1.4-19.5C117.3,687.2,117.6,686.3,117,685.5z"/>
	<path d="M115.6,767.5c0,0.1,0.5,0.3,0.8,0.4c0.5-0.5,0.9-0.9,1.4-1.3c-0.3-0.4-0.6-0.7-1.1-0.5
		C116.1,766.3,115.7,766.8,115.6,767.5z"/>
	<path d="M116.5,56c0,0.3-0.1,0.7-0.1,1c0,0.3,0.1,0.8,0.5,0.8c0.4-0.1,0.3-0.5,0.2-0.8c-0.1-0.3-0.2-0.6-0.2-0.9
		C116.8,55.9,116.6,55.9,116.5,56z"/>
	<path d="M117.2,37c-0.1,1.6,0.4,2.6,1.4,3.3C118.8,39,118.6,37.9,117.2,37z"/>
	<path d="M122.1,47.6c-0.8,1.3,0,2.2,0.8,3C122.7,49.6,122.4,48.6,122.1,47.6z"/>
	<path d="M123.4,52.7c-0.4,0.8-0.4,1.4,0.2,2.1C124.1,54,124.1,53.4,123.4,52.7z"/>
	<path d="M123.7,762.6c0,0-0.1,0.1-0.2,0.2c0.2,0.1,0.4,0.3,0.6,0.4C123.8,762.8,123.7,762.6,123.7,762.6z"/>
	<path d="M124.1,57c-0.1-0.1-0.4,0.1-0.4,0.4c0.1,0.3,0.2,0.6,0.3,0.8c0.3,0.1,0.5-0.1,0.4-0.4C124.4,57.5,124.3,57.2,124.1,57z"/>
	<path d="M127.6,672c1.5-0.2,1.5-0.2,1.7-2.3C128.2,670.2,127.7,670.9,127.6,672z"/>
	<path d="M134.9,668.3c-0.8,2-1.8,3.1-1.7,4.7C135.6,671.8,135.8,671.3,134.9,668.3z"/>
	<path d="M132.3,763.3c0.7,1.8,1.9,2.1,3,2.3c2.6,0.4,4.8,2,7.2,2.8c0.5,0.2,0.5,1,1.5,1c0.1-1.4-0.5-2.2-1.4-2.7
		c-1.9-1-3.2-2.4-4.3-4.1c-0.7-1-1.2-2-1.8-3.1c-0.1-0.2-0.3-0.3-0.5-0.4c-0.4,1.7-0.3,1.7,1.8,5.4C136,764.7,134.4,764,132.3,763.3
		z"/>
	<path d="M138.4,597.1c-1.2,1.3-1.2,3-1.6,4.6C138.1,600.5,138.5,598.8,138.4,597.1z"/>
	<path d="M139.4,580.7c-1.9,2.7-1.8,5.7-2.3,8.5c0.5,0.5,0.9,0.4,1,0.1C139,586.5,139.2,583.6,139.4,580.7z"/>
	<path d="M138.4,597C138.4,597,138.4,597,138.4,597L138.4,597C138.4,597,138.4,597,138.4,597z"/>
	<path d="M138.4,597C138.4,597,138.4,597.1,138.4,597C138.4,597.1,138.4,597.1,138.4,597L138.4,597z"/>
	<path d="M140.9,733c-1.9,2.2-1.3,4.4-1.3,6.4c0,3.9,1.7,8.4,3.5,10.3c1-0.7-1.1-2.4,0.9-2.7c0.5-1.1-0.1-2.2,0-3.4
		c0-1.1-0.1-2.3-0.2-3.4c-0.1-1.1-0.1-2.3-0.2-3.4c-0.1-0.8-0.1-1.8-0.9-3c-0.7,4.1,0.1,7.7-0.1,11.2
		C140.3,741.4,141.5,737.3,140.9,733z"/>
	<path d="M138.4,597c1.4-3.1,2-6.5,2.6-9.8c0.8-4.6,1.8-9.1,2.7-13.7c0.2-0.7,0.7-1.5-0.2-2.2c-0.3,0.2-0.7,0.3-0.8,0.6
		C140.8,580.2,139.4,588.5,138.4,597z"/>
	<path d="M139.4,666.5c0.4,1.9,0.4,4,2.5,5.9C141.6,669.7,141.1,667.8,139.4,666.5z"/>
	<path d="M144.2,584.3c0.5,0.4,0.9,0.3,1,0c1.5-4.8,3-9.6,4.4-14.4c0.1-0.4,0.2-0.9-0.3-1.4c-1,0.1-1.1,0.9-1.3,1.5
		C146.4,574.7,145,579.5,144.2,584.3z"/>
	<path d="M145.1,746.2c-0.1,1.1-0.5,2.2-0.5,3.4c0,1.5,1.4,2.9,1.9,0.4c0.1-0.3,0-0.9,0.1-1.4c0.5-3,1.1-6.1,1.7-9.1
		c0.1-0.6,0.4-1.1,0.4-1.7c0-2.2-1-4.4,0-6.6c-1.6,0.9-1.8,2.4-2.1,3.8C145.8,738.7,145.5,742.5,145.1,746.2z"/>
	<path d="M144.3,666.3c0.5,2.6,2.1,3.9,3.2,5.5C147.5,669.6,146.7,667.8,144.3,666.3z"/>
	<path d="M148.3,743.8c-0.6,1.7-1.1,3.4-0.6,5.2c1.1-6,4.6-13.3,5.8-15.6c-0.2,0.2-0.6,0.3-1,0.4c-0.6,0-0.7,0.8-0.9,1.4
		C150.5,738.1,149.4,741,148.3,743.8z"/>
	<path d="M149.3,574.7c-0.8,3.7-1.4,7.5-2.2,11.2c2.2-6.2,4.1-12.4,5.2-18.8c0-0.1-0.3-0.2-0.5-0.4c-0.4,0-0.6,0.3-0.7,0.6
		C150.5,569.9,149.8,572.3,149.3,574.7z"/>
	<path d="M149.9,589.1c-0.3,1.6-1.2,3.1-0.7,5c0.6-1.8,1.3-3.5,1.8-5.4c1.5-5.5,2.9-11,4.3-16.5c0.2-0.8,0.6-1.5-0.1-2.2
		c-0.5-0.4-1.2,0.4-1.5,1.8C152.4,577.5,151.1,583.3,149.9,589.1z"/>
	<path d="M151.3,730.4c-1.5,1.1-1.9,2-2,3.6C150.6,733,150.8,732,151.3,730.4z"/>
	<path d="M151.9,668.3c0.8,2,1.3,4.2,3.1,5.6C154.7,671.5,153.5,669.8,151.9,668.3z"/>
	<path d="M159.6,614.4c-0.6,1.8-0.6,1.9-0.3,3.9c0.5,0,0.8-0.3,1-0.7c0.6-1.3,3.7-12.1,3.8-13.3c-0.3,0.1-0.8,0.1-0.9,0.3
		C161.1,607.5,160.7,611.1,159.6,614.4z"/>
	<path d="M168.3,699.8c-1.2,0.5-1.4,1.3-1.4,2.5C167.8,701.8,168.1,701.1,168.3,699.8z"/>
	<path d="M170.5,585c-2.2,3.4-2.6,4.7-2.3,7.1C169.9,590.1,171.1,588.3,170.5,585z"/>
	<path d="M170.4,694.7c-1.5,1.4-1.5,1.4-1.7,3.2C169.9,696.8,169.9,696.8,170.4,694.7z"/>
	<path d="M170.7,712.9C170.6,713,170.6,713,170.7,712.9l0,0.1h0C170.7,713,170.7,713,170.7,712.9z"/>
	<path d="M170.6,713C170.6,713,170.6,713,170.6,713C170.6,713.1,170.6,713.1,170.6,713L170.6,713z"/>
	<path d="M171.8,710.7c-1.1,0.6-1,1.5-1.1,2.3C171.1,712.3,171.8,711.8,171.8,710.7z"/>
	<path d="M174.9,704.3c-1.6,1.2-1.7,2.4-1.8,3.6C174.2,707.1,174.2,706,174.9,704.3z"/>
	<path d="M176.1,688.4c-0.8,0.7-1.1,1.5-1.2,3C175.9,690.3,176.1,689.4,176.1,688.4z"/>
	<path d="M176.1,688.2C176.1,688.2,176.1,688.3,176.1,688.2L176.1,688.2C176.1,688.3,176.1,688.2,176.1,688.2z"/>
	<path d="M176.1,688.3C176.1,688.3,176.1,688.3,176.1,688.3C176.1,688.3,176.1,688.3,176.1,688.3L176.1,688.3z"/>
	<path d="M176.2,700.2c0,0.1,0.1,0.2,0.2,0.2c0.6,0,0.8-0.4,0.9-0.8c1.9-5.2,4.2-10.3,5.4-15.8c0.1-0.5,0.2-0.9-0.3-1.1
		c-0.4-0.1-0.7,0.2-0.8,0.5C179.8,689,178,694.6,176.2,700.2z"/>
	<path d="M176.1,688.2c1.2-1.3,2.2-2.7,2.5-5.2C177.1,684.9,176.3,686.4,176.1,688.2z"/>
</g>
</svg>
