<svg id="Layer_4" xmlns="http://www.w3.org/2000/svg" viewBox="0 0 203.5 837.6">
  <style>
    .st0{fill:#FFFFFF;} .st1{fill:#95C4D8;} .st2{fill:#A1CDD1;}
  </style>
  <path class="st0" d="M199.6 571.7c-.2-1.6-.2-3.2-1-4.7-1.7-4-1.4-8.3-2-12.4 0-1 0-2 1.2-2.2l.4-4.4c-.4 0-.8-.3-1-.5v-1.3c.2-4 .4-8.2.8-12.3.6-8.2 1.5-16.3 1.4-24.4v-1.4c.7-7.4 1.3-14.8 1.5-22.2v-2.7c.6-5.7.6-11.4.2-17-.5-8.5-1.3-17-2-25.4V439c-1-9.2-3.8-18-6.5-26.6-.8-2.4-1.3-5-2.3-7.2-4-9.3-8.2-18.6-12.4-28l-1.6-2.5c-3.2-5.2-6.6-10.3-9.6-15.5-3-5.2-6.5-10-9.8-15l-7.2-10.3c-5.8-8.4-12-16.4-19-23.8-5.2-5.5-9.6-11.6-12.6-18.7-.7-1.8-1.7-3.5-2.8-5-3-4.2-4-9-5.2-13.7l-.6-1.8c-.5.2-.6-.3-.6-.6V265c-.7-.5-1-1.3-1-2-.6-2.4-1.2-4.8-1.2-7.2 0-5.6.4-11.2 1-16.8v-.7c.3-3 1-5.8 2-8.6 1.4-2.8 2.4-5.8 3-8.8 1-5.3 2.7-10.3 5-15 4.2-8.5 7.2-17.5 10.5-26.4 2.7-7.3 4.6-14.8 7-22.2 3-9 4.3-18.2 5.7-27.5 1.8-11.3 1-22.7-1-34-.8-4.2-2-8.3-3-12.6-1.5-7.8-3.3-15.6-5.8-23.2-2-6-4.5-11.7-6.8-17.6-.8-2-2.4-5.2-3.6-7-1-1.4-1.7-3-2.5-4.5-1.7-3.5-6.4-13.5-7.3-14.8-1.2-2.3-1.2-5-3-7.7-.5 2.2.2 4 .3 5.6 0 1.5 1 9 1 9.8 0 1.3.4 4.8.2 6-.2 1.4 0 3-1 4.6-.8-3.6.5-6.6-.5-10-.7 1.4-.8 2.5-1 3.6 0 2-.3 4.3-.7 6.4-1 5.4-2 10.8-4 16-3 7.6-5.7 15.3-9.6 22.5-2.4 4.4-4.7 9-7 13.5-3.6 8-7.8 15.5-10.5 24-3 9.2-6 18.2-7.7 27.7-.3 1.5-.7 3-.7 4.4 0 6.4-1.5 12.7-2 19-.6 7.4-1.8 14.6-1.8 22v.7c-1.3 8 .4 16 1.3 23.8.7 6.4 2.7 12.6 3.4 19 .2 2.2.8 4.4 1.2 6.6.5 3.4 1.4 6.7 1.6 10 0 2.4.3 4.6.6 7 .5 3.8 1 7.6 1.7 11.4 1 8 2.5 16.2 3.5 24.4.8 7 2.3 13.7 3.5 20.6.5 2.8 1.3 5.6.8 8.5 0 .5 0 1.2-1 1l-4.4 14.6c.7 1.5 0 3-.4 4.3-1.7 4.5-3.3 9-5.2 13.4-2 4.5-3.4 9.2-4.2 14-.5 3.4-.7 6.7-1.3 10-1.2 6.4-1.7 13-1.7 19.6 0 4-.3 8.2.3 12.3.6 4.6 1.2 9.3 1 14 0 1.7.4 3.4.4 5v8.4l.6 9.5c.3.5.7.8.8 1.2l1 3c2.5 11.4 5.3 22.8 9.8 33.7 2.3 5.5 5 10.7 7 16.3 1.5 4.2 3.7 8 5.5 12 1.4 3 2.4 6 3.8 9 1.2 2.5 2.3 5 3.3 7.8 1.4 3.4 1.8 7 4 10 .2.3.2.8.3 1 1.6 4.3 4.8 7 9 8.5 1.8.7 3.3 0 4-2 1.2-2.4 1.6-5 .7-7.7-2-5.7-3.7-11.5-5.4-17.3-2.5-8.3-6-16.3-9.2-24.3l-1.2-3.2-1.4-3c-2-4.2-4-8.3-5-12.8-.2-.5-.6-1-.7-1.5l-1.4-5.6c-.4-1.6-1-3-3-3.2-.8 0-1.7-.7-2.4-1.2-.6-.3-1.4-.8-1-1.5.5-1 1.4-.3 2 0 .3 0 .5 0 .7.2 4 1.5 5.4.7 5.7-3.7.4-5.4.6-10.7 0-16-.5-3.5-1-7-1.2-10.3v-3.4-3.2c1 .5.8 1 .8 1.7l1.6 12c0 1.7.4 3.4.7 5 .7 5 0 10 0 14.8 0 1.8-.4 3.7-1.8 5-1.4 1.3-1.3 2.8-1 4.2.7 2.2 1.2 4.4 1.3 6.7 1.7 1.2 1.6 3.2 2.3 5 3.3 7.4 6.8 14.8 10 22.3 3.6 8 5.8 16.4 8.8 24.5 1.3 3.4 2.2 7 3 10.5 1 4 1.8 8.3 1 12.5 0 .6 0 1.4-1 1.4l-1.7 1.6c.3.3.2.7 0 1l-.6 1c-4.6 5.8-9 12-12.6 18.6-2.6 4.5-5.7 8.8-8 13.5-4.2 7.8-8.5 15.5-12.8 23-.7 1.3-1.2 2.6-2 3.7-3 4-5 8.5-6.8 13-.2.5-.7 1 0 1.5 2.2-.2 3.6-2.3 5.6-2.7.4 1 0 1.4-.5 1.8-1.5 1.8-3.5 2.4-5.5 3-3 1-6 2.5-8.6 4.2-9.2 5.6-16.3 13.3-21.7 22.5l-9.8 16c-.4.8-1 1.4-1.2 2.2-.7 2.7-2.6 4.6-4.3 6.8-1.2 1.6-3 3-3.5 5 3-2 4.8-5.2 8-6.8-1 2-3 3-4.2 5 3.5 0 5.5-3 9.4-3.5-1.7 2.2-3.7 2.5-5.3 3.4-1.6.8-3.4 1.5-5.3 3 5.6 1 10.2-.5 14.8-2-2.2 2.8-6 2.4-8.8 4 .8 1.6 2 2 3.4 2.3 1.5.2 3 0 4.4-.3 2.3-.5 4.7-1 7-2 .5-.4 1.3-.7 1.7 0 .3.8-.5 1-1 1.3-3 1.6-6.4 2.4-10 2.5-2 0-4.3-.5-6-2-1.3-1-2.8-1.7-4.5-2.3-1.4-.5-3.5-.3-4.2-2.3-.4.4-1 1-.4 1.5.5.6 1.2 1 2 1.5 4.4 2.2 9 4.2 14 5 1.2.3 2.5.4 3.7.3 3.6-.2 7.2-.4 10.7-1 8.6-1.8 16.8-4.3 23.3-10.7 2-2 4.5-3.5 6.5-5.6.7-.7 1.2-2.6 2.5-1.4.8.7-.6 1.7-1.3 2.5-.7.8-1.5 1.4-2.2 2-1.8 1.7-3.8 3-5.5 4.7-4 4-9 6-14.3 7.8-3.6 1.2-7.3 2-11 2.7-6 1-12 1.4-18-.8-2.4-1-4.4-1-6.4 1-1.2 1-3 1.5-4.7 2H17c.3 0 .3.4 0 .8-.6.8 0 1.2.5 1.7 1 1.6 2.8 2.6 4.2 4-1-.3-2-.8-3-1.3H15l1 .7h-1v4.4c.2.3.5.5.8.6 3 1.6 5.5 4 7.8 6.7 1 1 2 2 3.3 3 2 1.3 3.7 3 5.3 4.7 3.3 4 4.5 8.8 5 13.6.3 5.3 1 10.7.3 16-.2 1 0 2 .2 3.2 0 1 .2 2.3 0 3.4-.4 4.7-.2 9.4-.4 14 0 3 .6 5.8 1 8.7l.6-.4c.5-.4.3-1.6 1.3-1.2.8.3.5 1 .4 1.8 0 .3-.3.6 0 1 .2-.3.5-.5.6-.8.4-1 1-2 2-.4 0 0 .3 0 .4-.2.4-.3.5-1 1.3-.6.4 1.8-1.8 3-1 5 1.2-1 1.4-3 3-4 .4 2.7-2 4.3-2 6.6 1.2 0 1.4-1 2-1.6l2.2-3c1.5 1 2.2-1 3.7-1 0 2-1.6 3-2 5 2 .2 3.2-.7 4.5-1.6l6.2-4.8c2.5-1.8 5-3.8 7.5-5.5 6-3.8 12-7.7 18.8-10.6 4.8-2 9.5-4.4 14.7-5.4 4-.8 7.8-1.6 11.7-2.2 1.2 0 2.2 0 3.4.4 3.3 1 6.5 2.3 9.3 4.2.4.2.8.2 1-.2.3-1-1.4-1.3-1-2.3 2.3.6 2.6 1 2.3 3.5l3.5-.2c2 .7 3.7 1.4 5.6 1.2-2-3.7-2.2-3.8-1.8-5.4l.5.5c.7 1 1.2 2 2 3h3.2c-.4-.3-.6-.7 0-1.2 2 .4 3 2.7 5.5 3l-1.6-7.6c0-.7-1-1-1.4-1.3-1.7-1-3.2-2.4-4-4-2-3.7-4.7-7-7.2-10.2-5-6.5-7.6-14.3-11.7-21.3l-2-4c-1-2.2-1.7-4.3-2-6.6-1.4-7.3-.8-14.8-1.2-22.2 0-.6 0-1.4 1-1.7.5.8.2 1.7.3 2.6.3 6.6.7 13 1.4 19.6.3 2.8 1.2 5.3 2.3 8 2.7 6.2 6.2 12 9.2 18.2 1.5 3 3.2 5.8 5.5 8.3.2.3.6.4 1 .5.3-.8-.2-1.7.6-2.4 1.4 1 1.2 2.7 1.5 4 .7 3.2 2.2 6 4.4 8.4 0 .2.3.4.5.6h.2c2.4 1.5 3.5-1 3.5-1l.2-1.7c1-7 6.4-17.8 6.6-18.2 2.5-4.4 4-9.3 5.6-14.2 1-3.6 2.2-7.2 2.2-11 0-10.3-1-20.5-2.6-30.7l-1.7-10-1.7-14.6c-.6-7-1.2-14 0-20.8 0-1 0-2.2 1-3 .6.3.8.7.7 1.2-.7 7.3-.6 14.6 0 22 .6 5.4 1 10.8 2 16.2.5 3.8 1.6 7.6 1.7 11.5 0 .7.2 1.4.5 2 1.2 2.4 1.5 5 1.5 7.7 0 1.2-.2 2.4.4 3.8 2-1.6 1.5-4.3 3.4-5.7.3 1.6.4 1.7-.4 2.8-3.4 5-3 10.2-2.5 15.6.2 2.6.3 2.6-.3 4.5l-.5 2c-1.7 6.5-3.3 13-6 19-.5.8-1.2 1.7-1 3 1.2-.2 1.7-1 2.2-1.8 3-4 6-8 8.4-12 .6-1 1.2-2 2-2.7 1.2-1 0-2.6 1-3.4h.2c0-1 0-1.7 1-2.4 0 1-.5 1.5-1 2v.2c.6 1.2 1 .3 1.3-.2 4.5-6.6 8.3-13.6 11.6-21 3.7-8.4 6-17.4 8.7-26.2l3-10.5c1.3-5.3 2-10.6 3-16 1-4.6 2-9.3 2.6-14 1-9 .7-18 1-27 0-8.8-1.6-17.5-2.7-26.3zm-75.2-514c0 .4 0 .5-.4.5 0-.2-.3-.5-.3-.8 0-.3.2-.5.4-.4.3.2.4.5.4.8zm-1-5c.6.7.7 1.3.2 2-.6-.6-.6-1.2-.2-2zm-1.3-5l1 3c-.8-1-1.7-2-1-3zM117.3 37c1.4 1 1.6 2 1.4 3.3-1-.8-1.5-1.7-1.4-3.3zm-.7 19h.4v1c.2.2.3.7 0 .7-.5 0-.6-.4-.6-.8v-1zM110 17c.5 1.6 2.3 6 2.8 7.3 1.2 2.8 1.6 6 3 8.7.4.6 1 1.2 0 2-1.5-1.8-3.3-8.7-4.6-11 0 5 2.2 16.3 3.6 21 .6 2.3 1.4 4.6 1 7-1.3-2-1.3-4.7-2-7-.6-2.3-1.2-4.6-2-7v3l-.4 2.7c-.7-5.2-.6-12.2-1.4-17.6v-9zm0 40.5c.5-3 .7-6 1.2-9.8.8 4 .4 7.4-1.2 9.8zm.8 146.7c.5-2 1-4.3 1.7-6.3.8-2 .7-4.4 2.4-6.6.5 2.4 0 4.3-.7 6l-3 9-1.2 4.3c-.7-2.4.3-4.4.8-6.5zm-16 32.3c-.7-.7-.5-1.5-.3-2.3 1.8-9.3 4.3-18.5 7-27.6 1 .2 1.2.8 1.2 1.3 0 .8-.3 1.7-.6 2.6-2.4 8-5 16-6.4 24-.2.7-.2 1.4-1 2zm14.6-24.2c-1 4.3-2 8-4 11.5-.6 4.2-1 5.6-2.6 7.2l1-4.3c.3-1 .6-2.2 1.5-3 .7-3.5 2.7-9.4 4-11.4zM104 61.8c1.3-3.6 1-7.5 2.6-11.6.8 6.7-3 19-8 21.6 2.2-3.5 4.3-6.4 5.5-10zm-7.4 12.4c-.4 1.2-1.2 2-3 3 1-1.7 2-2.4 3-3zM90 226.4c.3-2.5 1-4.8 1.7-7.3 0-.4.4-1 1.4-.7-1 6.2-3 12.2-3.5 18.6 0 .4-.4 1-.6 1.4-.7-4.2.2-8 1-12zM88.4 243l.3 1.8c.4 3.3 0 5.5-.8 7-.2-1.4-.3-3-.3-4.4 0-1.5.2-3 .8-4.5zm-10.2 8.5c0 .3-.2.7-.7.6-.2-.4-.3-1-.4-1.8-.4-3.2 0-8 1.2-12l.2 4.7c0 2.8 0 5.6-.3 8.5zm4 207.7c-1.5.5-1.4-1.2-1.7-2-1-3-1.4-6.4-3-9.3v-1c0-.3.2-.5.4-.5s.5 0 .6.2c.3.3.4.8.7 1.2 1.6 2.7 2 5.8 2.8 9 .3.6 1.2 2 .2 2.2zm1-207.3l-.7-.7v-8.5-12s.3 0 .6-.3c.5.5.4 1.2.4 2V247c0 1.6 0 3.2-.2 4.7zM89 399c0 .4-.3.7-.7.7-.3 0-.5-.4-.5-.7 0-2-.4-4-.8-6-.5-2.5-1-5-.6-7.8v-3c0-.4.4-.8.6-.8.5 0 .8.3 1 .8v1c0 5 .6 9.7 1.2 14.6v1.3zm.4-138c-1.6-1.6-1-3.2-.6-4.7.3 1.5 1.4 3 .6 4.8zm4.8-8.3c-1-1.7-1-3.5 0-5.2v5.2zm-.4-8.5c0-1.5-.3-2.3 1-3.3-.2.5 0 1 0 1.7-.2.4-.4 1-1 1.5zm6 17.2c-.4-2.6-.4-2.6.2-4.2 0 1.2.4 2.5-.2 4.2zm1.4-22c0 3.3 0 3.3-1 4.6.3-.4.2-1 .3-1.4 0-1 .7-2.2.7-3h.2c0-1.2 0-2.4.6-3.4v2.4c-.2.3.2.6-.8 1zM51.4 741.7c0 .5-.2 1-.6 1-.7.4-1 0-1.5-.4-.8-1-1.3-2.2-2.2-3-1.7-1.8-2.4-4-3-6-.6-2.8-.6-5.5-.3-9.5l.4-6.2c.2-1.2.8-2.2 1.8-2.8.7-.4 1.4-.2 1.6.6.2.8.2 1.6.2 2.4 0 2-.2 4 .2 5.8 1.2 4.7 1.4 9.7 3 14.4.6 1 .7 2.4.6 3.6zm9.5-22c.2-.4.6-.6 1-.3.6.3.4.8 0 1.2-.5.8-.8 2-2.3 2 0-1.4.6-2 1.2-3zm2 2c.3 0 .7 0 1 .2.2.3.2.6 0 1-1 .7-1.5 1.7-3 2.4.3-1.7.8-2.8 2-3.5zm-2 8.5c.5-2.2 1.7-3.4 3.4-5-.3 2.5-1.2 4-3.3 5zm42.4-124.5c2.3-4 4-8.4 5.5-12.8 0-.3.3-.5.8-.2 0 2-1 3.6-1.5 5.4-1 3-2.6 6.2-5 8.8-.5 1-.3 2.4-2 2.7.3-1.3 1-2.2 1.8-3 .3-.3.3-.7.4-1zm-3.7-3.8c1-1.6 1.2-3.7 3-5.2-.3 3.6-2 7-5.2 10.3 0-2 1.2-3.5 2.2-5zm-3.3 7c-.4 2.3-1.3 3.4-3 4.8.6-2 1.5-3.2 3-4.7zm-4.3 6.7c.2-.2.6 0 .5.3 0 .6-.2 1-1.3 1.2.3-.7.5-1.2 1-1.6zm-4 5.6h.2c.4-.8.5-1.8 2-2.2-.3 1.3-.7 2-2 2.2 0 2.8-2.2 3.8-3.7 5.3-.5.6-1.4 1.2-2.8.5C84 625 86 622.6 88 621zm-2-5.2c-1.2 3-4 7-6 8.4.6-2.6 2.7-5.7 6-8.4zm-17.8 18.5c-.3 0-.7 0-.7-.5 0-.4.2-.7.5-.8 3-1 5.6-2.8 8.2-4.6l.4.2c.2.7-.2 1-.4 1.4-2 2.6-5 3.4-8 4.3zm13.6 1.7c2.6 0 4.8-.4 7.8-1.4-1.7 2.4-2.8 3-5 3-1 0-2.2 0-2.8-1.6zm7.6 18.3h-.6l-.2-.3c.7-2.5 2-4.7 3.2-7 .2-.4.6-.4 1-.2.2.2.3.6 0 1-1 2.2-1.7 4.6-3.4 6.5zm2.7 81c-.2.6-.5 1.5-1.5 1.3-.7-1 0-1.5.4-2.2 0-.5.5-1 1-.7.7.4.4 1 0 1.6zm-5-90.6c-.5 0-1 0-1-.7 0-.3.2-.7.4-.8l3.3-1.4.5.5c-.6 1.3-1.6 2.2-3.2 2.4zm0 90.7c0 .3-.4.5-.7.3-.3-.2-.4-.5-.3-.8.2-1 .5-1.6 1.5-1.6 0 0 .2 0 .3.2.2.8-.2 1.3-.7 1.8zm-4.8 1c.3-1 .3-2 1.6-2 .7 1 .2 1.7-.2 2.5-.2.3-.6.7-1 .5-.5-.2-.5-.7-.4-1.2zM106 744c-.5.8-1.2 1.5-2 2-5 3-10 6-15.8 7.8l-2.2.6c-2-.5-3.7-.8-5.4-1.4-.7-.2-1-1-.6-1.6.8-1 1.6-2 3.2-2.3l4.8-.3c5.5 0 10.6-1.6 15-5 .7-.5 1.3-1 2-1 .4 0 .8 0 1 .3v1zm18-162c-1 2.7-1.7 5.5-2.5 8.3-.8 2.6-1.5 5.3-3 7.7-1 1.8-1.8 3.6-2.5 5.6-1.2 3.2-3.2 5.7-5.3 8.3-5 6-11.4 10.3-17.4 15-2.3 2-5.2 3-7.5 5-.4.2-1.2.5-1.6.3-1.6-.7-2.8.4-4.2.8-1 .4-2.2 1-3.3 1-.6.3-1-.2-1-1 2.2-1 4.4-2 6.8-2.7 4.2-1 7.7-3.3 11-6 1.7-1.2 3-3 5.3-3.6 1-.3 1.8-1.3 2.5-2.3-1.3 0-2.2 1.7-3.7 1 .2-.8.8-1 1.2-1.3 1.8-1 3.7-2.3 5-4 4-6.2 7.8-12.6 10.4-19.6.5-1.4 1.2-2.6 2-4 .8 1.4 0 2.4-.3 3.4-2 5-4.5 10-7.4 14.7l-4 6.3 1.5-.8c1.7-1.6 3.3-3.3 4.7-5 1-1.2 2-2.5 2.7-4 3-6.4 6.2-12.7 7.8-19.7.4-1.8 1-3.7 2.4-5 .5.7.6 1.3.4 1.8zm3.6 90c0-1 .6-1.8 1.7-2.3-.3 2-.3 2-1.7 2.3zm5.7 1c0-1.7 1-2.8 1.7-4.7.8 3 .6 3.5-1.7 4.7zm18-105.5c0-.3.2-.6.6-.6l.4.3c-1 6.4-3 12.5-5.2 18.8l2.2-11c.4-2.7 1-5 1.8-7.5zm-3.4 2.5c0-.6.2-1.4 1.3-1.5.5.5.4 1 .3 1.4l-4.4 14.3c0 .4-.4.5-1 0 .8-4.8 2.2-9.6 3.7-14.3zm-8.6 10.7c-.2 3-.4 5.8-1.3 8.6 0 .3-.4.4-1 0 .6-3 .5-6 2.4-8.6zm-1 16.3c0 2-.4 3.5-1.8 4.7.4-1.6.4-3.3 1.4-4.6h.2c1-8.4 2.5-16.8 4.3-25 0-.3.5-.5.8-.7 1 .7.4 1.5.3 2.2-1 4.6-2 9-2.7 13.7-.7 3.3-1.2 6.7-2.6 9.8zm3.4 75.4c-2-2-2-4-2.5-6 1.8 1.4 2.3 3.3 2.5 6zM144 747c-2 .4 0 2-1 2.7-1.7-2-3.4-6.5-3.4-10.3 0-2-.6-4.2 1.3-6.4.5 4.3-.7 8.4 1.5 12 .2-3.4-.6-7 0-11 1 1.2 1 2 1 3s0 2.2.2 3.3l.2 3.4c0 1 .5 2.2 0 3.4zm3.6-75.2c-1.2-1.6-2.8-3-3.2-5.5 2.3 1.5 3 3.3 3.2 5.5zm-1 76.8v1.4c-.6 2.5-2 1-2-.4 0-1 .4-2.3.5-3.4.5-3.7.8-7.5 1.6-11.2.3-1.4.5-3 2-3.8-1 2.3 0 4.4 0 6.6 0 .6 0 1-.3 1.7-.5 3-1 6-1.7 9zm1 .5c-.4-1.7 0-3.4.7-5 1-3 2.2-6 3.3-8.8.2-.5.2-1.3 1-1.4.3 0 .6-.2 1-.4-1.3 2.3-4.8 9.7-6 15.7zm1.7-15c0-1.6.5-2.5 2-3.6-.5 1.6-.7 2.6-2 3.6zm2.6-65.7c1.6 1.5 2.7 3.3 3 5.6-1.8-1.6-2.3-3.7-3-5.7zm3.4-96l-4.3 16.4c-.4 1.8-1 3.6-1.7 5.4-.6-1.7.4-3.2.7-5l3.8-17.2c.3-1.4 1-2.2 1.5-1.8.7.6.3 1.4 0 2.2zm5 45.3c-.3.4-.6.7-1 .7-.3-2-.4-2 .2-4 1.2-3.2 1.6-6.8 3.6-9.7 0-.2.6-.2 1-.3-.2 1.2-3.3 12-4 13.3zm6.4 84.7c0-1.2.2-2 1.4-2.5 0 1.3-.4 2-1.4 2.5zm2-4.4c0-2 0-2 1.6-3.3-.5 2-.5 2-1.7 3.2zm-.6-106c-.3-2.3.2-3.6 2.3-7 .6 3.3-.6 5-2.3 7zm5 115.8c0-1 0-2.3 1.7-3.6-.8 1.8-.8 3-2 3.6zm3-19.5c0 1-.3 2-1.4 3 0-1.4.2-2.2 1.2-3 .2-2 1-3.4 2.6-5.3-.3 2.5-1.3 4-2.5 5.2zm6.5-4.4c-1.2 5.4-3.4 10.5-5.4 15.7 0 .4-.4.8-1 .8v-.2l5.3-17c0-.2.4-.5.8-.4.6 0 .4.5.3 1z"/>
  <path class="st1" d="M102 749.4c-6.3 3-14 9.4-21.3 5.7-1.7-.8-.2-3.4 1.5-2.5 3 1.5 7.6 0 10.4-1.3 2.7-1.2 5-3 7.7-4.4 1.8-.8 3.4 1.8 1.6 2.6zM48 744.2c-.5-2-2.6-3.2-3.6-5-.8-1.6-1.2-3.3-1.5-5-1-5-1-10.5.2-15.5.4-2 3.3-1 3 .8-1 4.6-1 9.8-.2 14.5.7 4 4 6 5 9.5.6 1.7-2.3 2.5-3 .7zM42.5 780.8c1.3 0 2.7 0 4-.2l-4 5c0-.3 0-.2.3.4 0 0 0-.3-.2-.4l.2.3c0-.2-.2-.3-.2-.3l.4.3-.4-.2c.6.2.7.3.3 0h-.5c-2-.4-3.4-3-2.8-5 .7-2 2.7-3 5-2.7 2.7.7 5 3 5.7 5.6.8 2.6-1.3 5-4 5-1.2.2-2.6.2-4 .3-2 0-4-2-4-4 .2-2.4 2-4 4-4.2z"/>
  <path class="st2" d="M96.5 764.3c.2-.4.7-.6 1-1 1 1-.4 1.6 0 2.4 2.6 0 2.8-4 5.8-3.5.5 1-1.2 1.2-1 2.2.4.7.8.2 1.2 0l2.3-2c1-1.2 2.2-1.7 3.6-1.8 1 0 2-.2 3-.4 2.6-.6 5 0 7 1 1 1.3-1 2-.4 3.2 1 0 1.5-1 2-1.6.6-.7 1.2-.7 1.8-.3.2 0 .4.2.6.4l-5.7 3.7c-.3-.4-.6-.7-1-.5-.7.3-1.2.8-1.2 1.5l.8.4c0 .3-.3.4-.4.6-1 1.3-2.3 0-3.2.8-.7.7-.7 2-1.6 2.5-5 3-9.3 6.5-14.7 8.7-1.5.6-3 .8-4.7.8-.8 0-1.2-.4-1.6-1-1.6-2.3-1-4.5.4-6.4 2.3-3 4.4-6.3 6-9.7zm16-2.2c-1-.7-1.5 0-2 .2-2 1.2-4 2.6-6 5 2.2-.6 3.2-1.8 4.4-2.7 1-.8 2.6-1 3.4-2.4zm-.2 4s0-.2 0 0c2.3-.8 3.6-2.4 5.2-4.3-2.2.6-3.2 1.4-5.2 4.2 0-.2 0-.2 0 0-1 0-1.8.3-2.3 1.7 1.3-.2 2-1 2.3-1.8zM3 787c-.7 8.3-2 16.6-1.2 25 .5 6 1.8 11.5 3.8 17 .8 2.2 2.3 4 4 5.6 1.7 2 4.4 1.2 5.4-1.3l.7-2.7c1-4.8 2-9.6 2.5-14.5 1-8.4 2.2-17 4-25.3 1.5-7.2 3.6-14 6.3-21 2-5 4.2-9.8 6.3-14.7.3-.7.5-1.3 0-2.5l-4.8 9.7c.5-3 1.4-5.7 3-8.3 2.2-4.2 3-8.4 2.2-13l-.4-.4c-.4 0-.7.5-1.5 0 2-3.7 1.5-7.6-.3-12.2-1 2.2-1.6 3.8-2 5.4-.6 1.6-1 3.2-2.5 4.4v1c-.2.3-.3.7-.7.5-.4-.2-.2-.5 0-.8l.7-.7c-.2-1.3.4-2.3.8-3.3l2-5.5c1.2-4 .6-5.3-3-7.5-1 .3-1.2 1-1.5 1.8-.6 1.5-1 3-1.7 4.5 0 .5-.2 1.2-1 .8-.3-.4 0-.8 0-1.2.8-2 1.4-4 2-5.8.4-1 .5-1.8-.4-2.5-1-.8-2-1.7-2.8-2.6l-1.2.5c.3.4.2 1 0 1.5l-1 2c-1 1.7-1.7 3.4-2 5.2-1.5 8-4.7 15.2-6.8 23-1.3 5-2.8 10-3.8 15-1 4.6-2.4 9-3.2 14-.5 3-1.7 5.8-2 8.7zM97 600c1.3-1 3.2-.7 4.5.3 3.6-4 7.8-8.2 13-4 7.2 6-2.8 12-7 15-1.5 1.2-3 2.5-4.8 3.7 1.4 2 1 5.4-2 6.2-7 1.7-11.5 8.2-19 9.3-4.2.6-6.5-4-3.4-7-3.2 0-5.4-4.3-2.7-6.7 6.6-6.2 13.8-11.8 21.3-17zM156 725c-1 4.4 5 7.4 7.2 3.2 1-2 1.8-4 2.4-5.8 2.8-4.7 7.3-8.6 9.7-13.4 3.2-6.4 5.2-13.4 9-19.4 1.7-2.5 0-5-2-5.7l.8-2.3c2.2-5 4-10.2 2-15.7-1.7-4.8-9.4-2.7-7.7 2.2 1.7 5-1.4 10.4-3.4 15l-1.7 3.7c-.7-2.3-1.5-4.6-2.4-6.8-1.7-4-7.7-3.8-8 1-.6 12.7.4 26-4 38-.7 1.8-1.6 3.7-2 6zm13.4-22v-1h.4l-.4 1zM110.8 545.5c-1.6 1-4 .5-5-1-.7 0-1.4-.4-2-1-6.8-6.4-6-16.5-7.8-25-1-5.4-2.8-10.5-4.5-15.6-2-5.7-3.6-11.7-7-16.5-1.7-2.5 0-5 2.2-5.6-1.4-4.3-2.7-8.6-3.8-13-1.4-5 6.3-7 7.6-2 4 15.4 10 30.2 15.8 45 2.5 6.2 6.3 14.5 6.4 22.2 1.5.6 2.7 2 2.5 3.7-.2 1.7-.4 3.4-1 5-.8 1.5-2 2.6-3.5 3.5zM84.7 646.8c0-3.8 1.4-7.2 3.8-10 1.4-1.6 4.2-1.5 5.7 0 1.6 1.6 1.4 4 0 5.7-.6.7-1 1.5-1.2 2.3h.3c2.2 0 3.7 1.8 3.7 4v2c0 2-1.8 4-4 4s-4-1.8-4-4h-.6c-2 0-3.7-1.8-3.7-4zM127 662.8c2.2 0 4 1.8 4 4v.4c1 0 .4-.2.5-.2 3.8-3.5 8.7-5.4 14-5.3 5 .2 5 8.2 0 8-3 0-5.8.8-8 3-2 1.7-4.6 1-6-.6-.2 2-2.2 3.8-4.2 3.7-2.2 0-4.2-1.8-4.2-4v-5c0-2 1.8-4 4-4zM66 716.8c6 0 6 8 0 8-5 0-5-8 0-8zM84 730.8c6 0 6 8 0 8-5 0-5-8 0-8zM40 664.8c2.2 0 4 1.8 4 4v1c0 2-1.8 4-4 4s-4-1.8-4-4v-1c0-2 1.8-4 4-4zM47 670.8c6 0 6 8 0 8-5 0-5-8 0-8zM144 720.8c6 0 6 8 0 8-5 0-5-8 0-8zM175 583.8c-5 0-5-8 0-8 6 0 6 8 0 8zM174.5 591.8c.5 6.7-1.2 13.2-4.7 19-2.7 4.3-9.6.3-7-4 3-4.7 4-9.6 3.7-15-.3-5 7.7-5 8 0zM87 399.8v-23c0-5 8-5 8 0v23c0 5-8 5-8 0zM93 416.8c-5 0-5-8 0-8 6 0 6 8 0 8zM101.2 250.3c-.5 2-3 1.7-4 .5-1 0-2.2-.6-2.2-2v17c0 3-4 3-4 0v-21c0 .6-1 .8-2 .6 0 5.2.4 10.3 1 15.5.2 2.5-3.8 2.4-4 0-.7-7-1-13.6-.5-20.4-.5.3-1 .3-1.6.2 0 1.8-3.2 2.4-4 .3-1-2.4 1-4.6 3.3-4.7 1-2.3 2.5-4 4.7-5.5.6-.4 1.2-.3 1.7 0l1-7.8c.3-2.5 4.3-2.7 4 0-.5 4-1.3 8-2 12 1.2-.2 2.3.4 2.3 2v-11c0-3 4-3 4 0v10.4c1-5.7 1.7-11.3 2.8-17 .5-2.5 4.5-1.5 4 1 0 .6 0 1-.2 1.5 1.6-4.5 3.3-8.8 5.2-13 1-2.5 4.5-.4 3.5 2-5.5 12.6-9.8 25.8-13 39.3z"/>
  <path class="st0" d="M21.8 767c-3.3-4.3-5-8.3-5.2-13.7 0-5 1-9.6.7-14.6-.2-2-3.2-2-3 0v3.2c-.6-.2-1.3.2-1.5 1 0 .3 0 .6-.2 1-.2 0-.3.4-.3.7v1.2c-.4 1.6-.6 3.4-.8 5-.8 1.3-1.6 2.4-2 3.6-1 2.6-1.2 5.4-1.5 8-.7 5.5-2 10.6-3.4 16 0 .2 0 .5-.2.7v.4l-1 4.2c-1 2.2-1.3 4.6-1.2 7-.6 5.7-.3 11.4-1 17-.2.8 0 1.4.6 1.7-.3 5.5.7 11.2 2.7 16.7 1.2 3.4 2.8 10 7.6 9.6 4.7-.5 5-7 5-10.8.6-3.7 1-7.7 1-11.5l.5-1c1.4-8 4-16.3 3.7-24.4 2-5.3 3.5-14.2 1-19.5-.3-.6-.8-1.2-1.4-1.8zM98 780.8c-4.3.5-3 1-7 1.8 0 0-3.2-7.6-2.2-7.7 4.5-.5 8.8-1.5 13.3-2 4-.4 7-2.3 11-2.4 1.3 0-12 9.8-15 10.2zM85 751c-.3 1 .3 1 1 1 1.3.2 5.7-1 7.8-2.2-1.7-.2-7.4 1-8.8 1.2zM45.8 726c-1.2 4-.2 8.2 2.2 10.4 0-3-1-7.7-2.2-10.3z"/>
  <g>
    <path d="M123.7 762.6zm.4.5c-2 2.4-6 5.6-8.4 7.3-3.4 2.4-7 4.6-10.5 7-2.4 2-5 3.4-8 4.7-1.3.7-3 1-4.5 1.2-2 .2-3.3-.7-4-2.4-1-1.7-1.2-3.4-.5-5.3.5-1.3 1-2.5 2-3.6 1.4-2.2 3-4.2 4.2-6.8H93c-4.6 2.6-9.7 4-14 7-6 3.7-12 7-17 11.5l-5 4c-1.7 1.4-3.7 2.4-6 2.4-1 0-2 .2-2.7.7-1.8 1.2-3.7 1-5.5 0-3.5-2-6-5-7-9-.5-2.6-1-5.3-.8-8 0-4 .3-8 .4-12 0-.5.4-1.2-.4-1.8-.7.6-1 1.4-1.3 2.2L32 766c-2.8 5.8-5 12-6.6 18.3-1.4 5.4-2.5 11-3.4 16.4-.6 4.3-1.7 8.5-2 12.8-.4 6-2 12-2.7 18-.2 1-.5 2-1 3-1.5 3.2-4.6 4-7.4 1.8-2-1.3-3.4-3-4.3-5.3L3 826.2c-1-2.4-1.8-4.8-2-7.2-.6-5.3-1.3-10.6-1-16 .4-6.5.7-13 2-19.4L7.6 760c1.8-7.3 3.6-14.5 6-21.5C15 734.7 16 731 17 727c.6-3 1.7-5.7 2.6-8.5.2-.6 1-1.3 1.6-1l.4.2c.3.4.2 1 0 1.5l-1 2c-1 1.7-1.7 3.4-2 5.2-1.5 8-4.7 15.2-6.8 23-1.3 5-2.8 10-3.8 15-1 4.6-2.4 9-3.2 14-.5 2.8-1.6 5.7-2 8.6-.5 8.4-1.7 16.7-1 25.2.5 6 1.8 11.4 3.8 17 .8 2 2.3 3.8 4 5.5 1.7 2 4.4 1.2 5.4-1.3l.7-2.7c1-4.8 2-9.6 2.5-14.5 1-8.5 2.2-17 4-25.4 1.5-7.2 3.6-14 6.3-21 2-5 4.2-9.8 6.3-14.7.3-.6.5-1.2 0-2.4l-4.8 9.7c.5-3 1.4-5.7 3-8.3 2.2-4 3-8.3 2.2-13l-.4-.3c-.4 0-.7.5-1.5 0 2-3.7 1.5-7.6-.3-12.2-1 2.2-1.6 3.8-2 5.4-.6 1.5-1 3-2.5 4.3-.2-1.2.4-2.2.8-3.2l2-5.4c1.2-4 .6-5.3-3-7.5-1 .4-1.2 1.2-1.5 2-.6 1.4-1 3-1.7 4.4 0 .5-.2 1.2-1 .8-.3-.5 0-1 0-1.3.8-2 1.4-4 2-6 .4-.8.5-1.7-.4-2.4-1-.8-2-1.7-2.8-2.6l-2.6-2.7c-1.8-1.7-3.6-3.5-6-4.7-1.3-.7-2.7-1.8-3.5-4 1.8.6 2.7 1.8 3.8 2.6l.8.5c3 1.6 5.5 4 7.8 6.7 1 1 2 2 3.4 3 2 1.3 3.8 2.8 5.4 4.7 3.3 4 4.5 9 5 13.7.3 5.3 1 10.7.3 16l.3 3.2c0 1 .2 2.2 0 3.3-.5 4.7-.3 9.4-.5 14 0 3 .6 5.8 1 8.7l.6-.3c.5-.4.3-1.6 1.3-1.2.8.3.5 1 .3 1.8 0 .3-.3.6 0 1l.6-.8c.4-1 1-2 2-.4h.4c.4-.4.5-1.2 1.3-.7.4 1.8-1.8 3-1 5 1.2-1 1.4-3 3-4 .4 2.7-2 4.3-2 6.6 1.2-.2 1.4-1 2-1.7l2.2-3c1.5 1 2.2-1 3.7-1 0 2-1.5 3-2 5 2 .2 3.3-.7 4.6-1.6L61 782c2.5-2 5-4 7.5-5.6 6-3.8 12-7.7 18.8-10.6 4.8-2 9.5-4.4 14.7-5.4 4-.8 7.8-1.6 11.7-2.2 1.2-.2 2.2 0 3.4.3 3.4 1 6.6 2.3 9.4 4.2.3.2.6.2 1-.2.2-1-1.5-1.3-1-2.3 2.2.5 2.5.8 2.2 3.4 0 .3 0 .7-.2 1.2-1.4.4-2.6 0-3.8-1 0-.3-.2-.5-.5-.7l-.3-.5-.2.2.6.4zm-1-.6c-.8-.4-1.3-.4-2 .3-.4.6-.8 1.6-2 1.6-.6-1.2 1.4-2 .6-3.3-2.2-1-4.6-1.5-7-1-1 .3-2 .5-3 .5-1.6 0-2.7.6-3.7 1.7-.8.8-1.6 1.4-2.4 2-.4.3-.8.8-1.3 0-.2-1 1.5-1 1-2-3-.7-3 3.3-5.6 3.4-.6-.8.7-1.5 0-2.3-.4.3-1 .6-1 1-1.6 3.4-3.7 6.5-6 9.6-1.2 1.8-2 4-.3 6.3.4.6.8 1 1.6 1 1.6 0 3.2-.2 4.7-.8 5.3-2.2 9.8-5.8 14.7-8.8 1-.6 1-1.8 1.6-2.5 1-1 2.3.5 3-.8l.5-.5 1.4-1.4c1-.7 4.6-3 5.6-3.8l-.7-.4zM14.6 703.4c-.7-.3-1.4-.5-2.4-.5.7 1 1.5 1 2.2 1h1.2l-1-.6zM14.5 698.6v1c.6 1.2 2 2.6 3.5 3.6 1 .6 2 1 3 1.2-1.3-1.3-3-2.3-4-4-.5-.4-1-1-.6-1.7.3-.4.2-.8 0-1H16c-.6-.2-1.2 0-1.5 1zM18.5 697.6s0 .2.2.2c.4.3 1 .2 1.4 0 1.8-.3 3.6-.7 4.8-2 2-1.8 4-1.8 6.5-.8 5.8 2.2 12 2 18 .8 3.6-.7 7.3-1.5 11-2.7 5-1.7 10-4 14.2-7.7 1.7-1.6 3.7-3 5.5-4.6l2.2-2c.7-.8 2-2 1.3-2.6-1.3-1-1.8.8-2.5 1.5-2 2-4.4 3.6-6.5 5.6-6.5 6.5-14.7 9-23.3 10.7-3.5.7-7 1-10.6 1-1.2.2-2.5 0-3.7 0-5-1-9.7-3-14.3-5.2-.7-.3-1.3-1-2-1.5-.4-.5 0-1 .5-1.5l.7-.5c.5-2 2.2-3.3 3.4-5 1.7-2 3.6-4 4.3-6.8.2-.7.8-1.4 1.2-2l9.7-16.2c5.5-9.2 12.5-17 21.6-22.5 2.7-1.7 5.5-3.3 8.6-4.2 2-.5 4-1.2 5.3-3 .4-.3 1-.7.5-1.7-2 .3-3.5 2.5-5.6 2.6-.7-.5-.2-1 0-1.5 1.8-4.6 3.8-9 6.8-13 .8-1 1.3-2.4 2-3.6 4.3-7.6 8.6-15.2 12.7-23 2.4-4.6 5.5-9 8-13.5 4-6.6 8.2-12.7 12.8-18.7l.6-.8c.3-.4.4-.8 0-1v-.2h-1l-2.3 2.6c-5 6.6-9.2 14-13.7 21-5.3 8-9.4 17-14.3 25.3-2.5 4.3-4.8 8.8-7.6 13-2.5 3.8-4 8-5.8 12.3-.5 1.2-1 2-2.3 2.8-5 2.5-9.5 5.7-13.6 9.2-1.8 1.6-3.6 3.2-5.2 5-5.6 6.3-9.8 13.4-14 20.7-3.8 6.6-7.7 13.2-13.7 18.3-3.5 3-3 6.4 1 9 1 .7 2.6 1 3.6 2.4-.6 1.4-2 1.8-3.2 2.4-1.2.5-2.5.8-3.3 1.8z"/>
    <path d="M22 686l-.8.5c.7 2 2.8 1.8 4.2 2.3 1.6.6 3 1.2 4.5 2.3 1.6 1.5 3.8 2 6 2 3.5 0 6.8-.8 10-2.4.4-.3 1-.5 1-1.2-.5-.8-1.3-.5-2-.2-2 1-4.4 1.5-6.8 2-1.5.4-3 .5-4.4.4-1.4-.2-2.6-.7-3.4-2.2 3-1.7 6.6-1.2 8.8-4-4.6 1.4-9.2 3-14.7 1.8 2-1.4 3.7-2 5.4-3 1.5-1 3.5-1.3 5.2-3.4-4 .4-6 3.5-9.4 3.6 1.3-2 3.2-3.2 4.2-5-3.3 1.5-5.2 4.7-8 6.6zM28 739c-.3.3-.5.7 0 1 .3 0 .4-.3.5-.6v-1l-.6.7zM28.5 738.4zM28.5 738.4zM44 717.6c.2-1.2.8-2.2 1.8-2.8.7-.4 1.4-.2 1.6.6.2.8.2 1.6.2 2.4 0 2-.2 4 .2 5.8 1.2 4.7 1.3 9.7 3 14.4.4 1.2.5 2.4.4 3.7 0 .5-.2 1-.6 1-.7.4-1 0-1.5-.4-.7-1-1.2-2.2-2-3-2-1.8-2.6-4-3-6-.8-2.8-.8-5.5-.5-9.5l.6-6.2zM46 726c-1.2 4-.2 8.2 2.2 10.4 0-3-1-7.7-2.2-10.3zM61 719.6c-.7.8-1.4 1.5-1.3 3 1.5-.2 1.8-1.3 2.4-2 .3-.5.6-1 0-1.3-.4-.3-.8 0-1 .3zM60.8 384.7c-.2 4-.4 8.2-.3 12.3.2 9.8 1.8 19.5 1.8 29.4 0 1.6.3 3.2.5 4.8 0 .5.3 1 1.3 1.3 0-3 .2-5.6 0-8.3 0-1.7-.3-3.4-.3-5 0-4.8-.5-9.4-1.2-14-.6-4.2-.3-8.3-.3-12.4 0-6.6.6-13.2 1.7-19.7.5-3 .7-6.5 1.2-9.7.8-5 2.3-9.5 4.2-14l5.2-13.5c.5-1.3 1-2.7.4-4-.7 0-1 .3-1 .8-1.6 5.3-4 10.2-6 15.3-3.2 7.4-4.8 15-5.7 23-.5 4.5-1.2 9-1.5 13.7zM60.6 189.2c-.3 8 1 15.8 2.4 23.5 1 6 2.3 12 3.2 18.2.8 5 2 10.3 2.6 15.5l.5 4.5c.8 9.4 2.8 18.5 4.3 27.8l.3 3.3c0 5.7 1.4 11 2.3 16.6 1 6 2.4 11.6 2.8 17.6 0 .3.4.6.5.8 1 0 1-.6 1-1 .5-3-.3-5.8-.8-8.6-1.2-7-2.6-13.7-3.5-20.6-1-8.2-2.4-16.3-3.6-24.4L71 251c-.4-2.3-.6-4.6-.7-7-.2-3.3-1-6.7-1.7-10-.4-2.2-1-4.5-1.2-6.7-.6-6.4-2.6-12.5-3.4-18.8-1-8-2.7-15.7-1.4-23.8v-.8c0-7.4 1.3-14.7 2-22 .5-6.3 2-12.5 2-19 0-1.5.4-3 .6-4.4C69 129 72.2 120 75 111c2.6-8.5 6.8-16.2 10.5-24 2.2-4.7 4.5-9.2 7-13.7 3.8-7.3 6.6-15 9.5-22.6 2-5 3-10.6 4-16 .4-2 .6-4.2.8-6.4 0-1 .2-2.2 1-3.5 1 3.3-.4 6.4.4 10 1-1.8.8-3.3 1-4.6.2-1.4-.3-4.8-.3-6 0-1-1-8.4-1-9.8 0-1.7-.8-3.4-.4-5.6 1.8 2.6 1.8 5.4 3 7.7 1 1.3 5.7 11.3 7.4 15 .7 1.4 1.5 3 2.5 4.3 1.2 1.8 2.8 5 3.6 7 2.4 6 5 11.6 7 17.6 2.4 7.6 4.2 15.3 5.8 23.2l3 12.7c2 11.2 2.6 22.5 1 33.8-1.5 9.3-3 18.6-5.8 27.6-2.4 7.4-4.4 15-7 22.2-3.2 9-6.2 18-10.5 26.4-2.3 4.7-4 9.7-5 15-.6 3-1.6 6-3 8.7-1.2 2.7-1.8 5.5-2 8.5v.6c-.6 5.7-1 11.3-1 17 0 2.3.6 4.6 1 7 .2.7.5 1.6 1.3 2 .8-.2.5-1 .4-1.3-1.8-7-1.2-14.3-.5-21.5v-2c.2-4.7 2-9 3.7-13.5.6-1.6 1.3-3.2 1.6-5 1.3-7 4.4-13.6 7.6-20 1.2-2.6 2.2-5 3-7.7 2.7-7.4 5.6-14.8 8-22.2 2.6-7.5 4.4-15.2 6.7-22.7.7-2 1-4.3 1.2-6.6 0-2 .5-4 1-6 2-10.3 2-20.7 1-31.2-.5-6.7-2-13.3-3.6-19.8-1-4-1.8-7.8-2.6-11.7-.7-3-1-6.4-2.3-9.3-1-3-2-6.3-3.2-9.3-2.2-5.4-4.4-11-7-16.3-1.6-3.6-4-7-5.7-10.5-2.3-5-4.5-10.2-6.7-15.4l-1.7-4c-1-2.4-2-4.7-2.3-7.2 0-.7-.2-1.5-1-1.4-1 0-1 1-1 1.7v2c0 2 0 4 .4 5.7.8 4 .5 8 .7 12 0 1-.3 2.4-.6 3.6-.6 3-.6 6-1 8.8-1.5 8.3-4 16-7 23.7C94.8 65.5 91 73 87 80.5l-10 20.3c-.5 1-1 2-1.2 3-3.6 11.2-8 22-10 33.6-.4 2.5-1 5-1 7.5 0 4.4-1.3 8.7-1.6 13-.3 4.2-.4 8.3-1.5 12.2l-.2 1.5-1 17.5zM64.4 725c-1.7 1.6-3 2.8-3.3 5 2.2-1 3-2.5 3.4-5zM61 725.2c1.5-.8 2.2-1.7 3-2.5v-1c-.4-.2-.7-.2-1 0-1.2.7-1.7 1.8-2 3.5zM64.8 442c-1 .5-.8 1.4-.6 2 1.8 7 3 14.2 5.3 21 1 2.6 1.7 5.2 2.4 8 1.3 5 3.7 9.7 6 14.4 1 2.3 2 4.6 2.7 7 .7 2.3 1.7 4.5 2.8 6.6 4.3 8.5 7.7 17.3 11 26.2l3.3 9c2 5 5.6 8.2 10.4 10.2 2.4 1 4 .5 5.8-1.5.3-.5.5-1 1.4-1.3l.3 6.6h.2c1 0 .8-.8 1-1.4.6-4.4-.2-8.5-1.2-12.6-.8-3.6-1.7-7.2-3-10.5-3-8.2-5.2-16.6-8.7-24.6-3.2-7.5-6.7-15-10-22.4-.7-1.6-.6-3.7-2.3-5l-.2.3c1 4.5 3 8.6 5 12.7.5 1 1 2 1.3 3l1.2 3.3c3.3 8 6.7 16 9.2 24.3 1.7 5.8 3.5 11.6 5.4 17.3 1 2.8.5 5.2-.6 7.7-.8 2-2.3 2.6-4.2 2-4-1.7-7.3-4.3-8.8-8.5 0-.3 0-.7-.3-1-2.3-3-2.7-6.8-4-10.2-1-2.7-2-5.3-3.2-8-1.4-2.8-2.5-5.8-3.7-8.7-1.8-4-4-8-5.5-12-2-5.7-4.8-11-7-16.4-4.5-11-7.3-22.4-10-34 0-1-.4-2-.8-2.8 0-.4-.4-.7-.7-1.3zM68 633c-.3 0-.6.4-.5.8 0 .4.4.6.7.5 3-1 6-1.7 8-4.2.2-.2.5-.6.3-1.3l-.4-.2c-2.4 1.8-5 3.4-8 4.5zM75.6 633c0 .8.5 1.2 1 1 1.2-.2 2.3-.7 3.4-1 1.4-.4 2.6-1.5 4.2-.8.4.2 1.2 0 1.6-.4 2.2-2 5-3 7.5-4.8 6-4.8 12.6-9 17.4-15.2 2-2.6 4-5.2 5.3-8.3.7-2 1.6-3.8 2.6-5.6 1.4-2.5 2-5.2 3-7.8.7-2.7 1.4-5.5 2.4-8.2.2-.5.2-1-.4-1.8-1.5 1.4-2 3.3-2.4 5-1.6 7-5 13.4-7.8 19.8-.6 1.4-1.7 2.7-2.7 4-1.5 1.8-3 3.4-4.6 5-.3.4-1 .6-1.4.8l-3.4 3.5c-.7 1-1.4 2-2.5 2.3-2.2.7-3.6 2.4-5.3 3.7-3.3 2.6-6.8 4.8-11 6-2.3.6-4.5 1.8-6.8 2.7z"/>
    <path d="M78.5 238.3c-1.2 3.8-1.6 8.7-1.2 12 0 .6.2 1.3.4 1.8.4 0 .6-.2.7-.5.2-2.8.4-5.7.4-8.6 0-1.6 0-3.2-.3-4.7zM77.6 447c0 .2 0 .6.2 1 1.5 2.8 2 6 3 9.3 0 .8 0 2.5 1.5 2 1-.4 0-1.6 0-2.4-.8-3.2-1.3-6.3-3-9 0-.5-.3-1-.6-1.3l-.6-.2-.4.4zM83.2 749l4.8-.3c5.5 0 10.6-1.6 15-5 .6-.5 1.3-1 2-1 .4 0 .8 0 1 .3.2.2.2.7 0 1-.4.7-1 1.4-1.8 2-5 3-10.2 6-16 7.7l-2 .6c-2-.5-3.8-.8-5.5-1.4-.7-.3-1-1-.6-1.7.8-1 1.6-2 3.2-2.2zm10.5.8c-1.6-.2-7.3 1-8.7 1.2-.3 1 .3 1 1 1 1.3.2 5.6-1 7.7-2.2zM86 615.8c-3.3 2.7-5.4 5.8-6 8.4 2-1.3 4.8-5.3 6-8.4zM89.5 634.6c-3 1-5.2 1.6-7.8 1.4.6 1.7 1.8 1.7 3 1.6 2 0 3-.6 4.8-3zM82.2 736.3c-.2.4 0 1 .3 1.2.4.2.8 0 1-.6.5-1 1-1.7.3-2.6-1.2 0-1.2 1.2-1.6 2zM82.6 231v20.4l.8.6v-4.7c.2-5 0-10 0-14.8 0-.6.2-1.3-.3-2 0 .2-.4.4-.4.5zM81.8 627c1.4.5 2 0 2.7-.6 1.5-1.6 3.8-2.6 3.8-5.2-2.5 1.4-4 3.8-6.5 5.7zM83 461.2c-.4.8.4 1.2 1 1.5.7.5 1.5 1 2.3 1.2 2 0 2.6 1.4 3 3l1.5 5.7c0 .5.5 1 .7 1.5l.2-.2c0-2.3-.7-4.5-1.2-6.7-.4-1.5-.5-3 .8-4 1.4-1.5 1.7-3.4 1.7-5.2 0-4.8.8-9.7 0-14.6 0-1.7-.4-3.4-.6-5l-1.5-12c-.2-.5 0-1-1-1.7v6.5l1 10.2c.8 5.4.6 10.7.2 16-.3 4.5-1.8 5.2-5.8 3.7l-.6-.3c-.6 0-1.5-1-2 .2zM86 735c0 .2 0 .6.3.7.4.2.6 0 .8-.3.5-.5 1-1 .7-1.8 0 0-.2 0-.3-.2-1 0-1.2.8-1.4 1.5zM86 385.3c0 2.8.3 5.3.7 7.7.4 2 .7 4 .8 6 0 .4.2.7.6.8.5 0 .7-.3.8-.6V398c-.5-5-1.2-9.8-1-14.7 0-.3 0-.7-.2-1 0-.5-.3-1-1-.8l-.4.7v3zM86.5 643.2c-.2 0-.4.5-.4.8 0 .6.6.7 1 .7 1.7-.2 2.6-1 3.4-2.3l-.5-.5c-1.3.3-2.4.7-3.5 1.2zM87.6 247.3c0 1.5 0 3 .3 4.5 1-1.6 1-3.8.7-7 0-.7-.2-1.3-.3-2-.5 1.6-.7 3-.8 4.5zM88.2 621zM88.2 621zM88.5 654s0 .2.2.3h.6c1.7-2 2.5-4.3 3.6-6.5 0-.3 0-.7-.3-1-.3 0-.7 0-1 .2-1 2.3-2.4 4.5-3.2 7zM88.6 256.3c-.3 1.6-1 3.2.6 5 .8-2-.3-3.5-.6-5zM90 618.8c-1.2.4-1.3 1.4-1.7 2.2 1.2 0 1.6-1 1.8-2.2zM90 226.4c-.8 4-1.7 7.8-1.2 12 .2-.5.6-1 .6-1.5.4-6.4 2.5-12.5 3.6-18.7-1-.3-1.3.3-1.4.8-.6 2.6-1.3 5-1.7 7.4zM91 734.5c-.4.7-1 1.3-.5 2.2 1 .2 1.2-.7 1.6-1.4.4-.5.7-1.2 0-1.5-.5-.4-.8.2-1 .7zM92 615.4c-.2.4-.4 1-.8 1.4 1 0 1.2-.6 1.3-1.2 0-.2-.3-.4-.4-.2zM93.7 247.5c-1 1.7-.3 3.5 0 5.2v-5.2zM94.5 241c-1.2 1-1 1.7-1 3.2.7-.6 1-1 1-1.5V241zM96.4 608.8c-1.5 1.5-2.4 2.6-3 4.7 1.7-1.4 2.6-2.5 3-4.7zM94.5 234.2c-.2.8-.3 1.6.2 2.3.6-.5.6-1.2.8-1.8 1.5-8.2 4-16 6.5-24l.6-2.8c0-.7 0-1.2-1-1.4-2.8 9-5.3 18.3-7 27.6zM96.6 74.2c-1 .6-2 1.3-3 3 1.8-1 2.5-1.8 3-3zM99.7 601.7c-1 1.6-2 3.2-2.3 5 3.2-3.2 5-6.7 5.3-10.2-1.8 1.5-2 3.6-3 5.2zM97.6 619.5c1.5.7 2.4-1 3.7-1l3.4-3.6 4-6.5c3-4.7 5.3-9.6 7.3-14.7.4-1 1-2 .3-3.6-1 1.5-1.6 2.7-2 4-2.5 7-6.3 13.5-10.5 19.6-1.2 1.8-3 3-5 4.2-.5.5-1 .7-1.2 1.5zM99.8 257.2c-.5 1.6-.5 1.6-.2 4.2.6-1.7.2-3 .2-4.2zM100.5 242.6c0 .5 0 1-.3 1.4 1-1.3 1-1.3 1-4.5-.6 1-.6 2-.7 3zM104 61.8c-1 3.5-3.2 6.5-5.3 10 5-2.6 8.8-15 8-21.5-1.6 4-1.4 8-2.6 11.5zM102 236.2c-.8 1-.7 2.2-.7 3.3.3-.3.5-.6.6-1v-2.3zM101.3 239.5zM101.3 239.5zM101.5 609.5c1.6-.3 1.4-1.8 2-2.7l-.3-.3c-.8.8-1.5 1.7-1.7 3z"/>
    <path d="M103.2 606.5l.3.3c2.3-2.6 3.8-5.7 5-9 .5-1.7 1.5-3.4 1.4-5.3-.6-.3-1-.2-1 .2-1.4 4.5-3.2 8.7-5.5 12.8-.2.3-.2.7-.3 1zM103.8 226.7l-1 4.3c1.5-1.6 2-3 2.7-7.2l-.2-.2c-1 1-1.2 2-1.5 3zM105.3 223.6l.2.2c2-3.4 3-7.2 4-11.5-1.5 2-3.5 8-4.2 11.3zM104.4 767.2c2.3-.6 3.3-1.8 4.5-2.7 1-1 2.6-1 3.3-2.4-.8-.7-1.4 0-2 .2-2 1.2-3.8 2.6-6 5zM109 269.6v1c0 .3 0 .7.5.6l.2-.6c-.2-.4-.2-1-.8-1zM110.8 204.2c-.5 2-1.5 4.2-.8 6.5.4-1.5 1-3 1.3-4.4l3-8.8c.5-1.8 1-3.7.5-6-1.6 2-1.6 4.4-2.4 6.4s-1 4-1.6 6.2zM110 17v8.8c.7 5.4.6 12.4 1.3 17.6 0-1 .2-1.8.3-2.8 0-1 0-1.8.2-2.8.6 2.3 1.2 4.6 2 7 .6 2.3.5 4.8 1.8 7 .4-2.5-.4-4.8-1-7-1.3-4.7-3.6-16-3.6-21.2 1.3 2.5 3 9.3 4.7 11.2.8-1 .4-1.5 0-2-1.6-2.8-2-6-3-8.8l-2.6-7zM112.3 766c-1 0-1.8.3-2.3 1.7 1.3-.2 2-1 2.3-1.8zM111 47.7c-.3 3.7-.5 6.8-1 9.8 1.6-2.4 2-5.8 1-9.8zM111.6 274.7c-.3-.7-.5-1.5-1.6-1.8 1.3 4.6 2.3 9.4 5.2 13.5 1 1.6 2 3.3 2.8 5 3 7.2 7.3 13.3 12.6 18.8 7 7.4 13.2 15.5 19 23.8 2.4 3.6 5 7 7.2 10.5 3.3 5 6.8 9.7 9.8 15 3 5.2 6.4 10.2 9.6 15.3.6 1 1.2 1.7 1.6 2.6l12.4 28c1 2.2 1.6 4.7 2.3 7 2.7 8.8 5.5 17.5 6.4 26.7v1.8c.7 8.4 1.5 16.8 2 25.3.4 5.8.4 11.5 0 17.2l-.3 2.7c-.2 7.3-.8 14.7-1.4 22v1.5c0 8-1 16.2-1.5 24.3L197 546v1.4l1 .5c.2 0 .4-.3.5-.4.6-1 .7-2 .7-3 0-1.8.3-3.7.2-5.5-.2-7.3 1.2-14.7 1.4-22 0-5.2.5-10.4.5-15.5 0-3.2.4-6.4.8-9.6.8-6.7.7-13.3.8-20 0-5.7 0-11.6-.8-17.4-1.4-10.7-1.6-21.7-4.8-32-2.7-9-5-18-9.2-26.2-3-6.2-6-12.6-8.7-19-1.4-3.3-3.5-6-5.3-9.2l-11.5-18.7c-1-1.8-2.4-3.6-3.7-5.4-6-8-11.6-16.6-18-24.6-3.3-4.3-7-8.3-10.8-12.3-3.7-4-6.8-8.5-9.2-13.4-1.7-3.5-3.5-7-5.6-10.2l-3.6-8.7zM112.3 765.8zM112.3 765.8zM117.4 761.6c-2 .6-3 1.5-5 4.2 2-.6 3.4-2.2 5-4.2zM117 685.5c-1 .2-1 1-1 1.6.4 7.5 0 15 1.2 22.3.4 2.2 1.2 4.4 2.2 6.5.6 1.3 1.2 2.8 2 4 4 7 6.7 14.8 11.6 21.3 2.5 3.4 5 6.6 7 10.2 1 1.7 2.5 3 4.2 4 .6.5 1.4.7 1.5 1.4l1.6 7.5c-2.6 0-3.6-2.4-5.6-2.8-.6.6-.3 1 0 1.3h.2c2.4 2.4 5 4.3 8.4 5.4.7-.7.3-1.4 0-2-1.8-2.8-2-6-2.4-9 0-.7 0-1.2.2-1.8 2-4.3 3-9 4.6-13.6 1-2.7 2.3-5 4.6-6.5 1.7-1 3-2.4 4.2-4 6.5-8.4 12.5-17.4 17.7-26.8 3-5.7 6-11.5 8.2-17.7 3-8.8 5.5-17.7 8.2-26.5 1.5-5 2.5-10 3.2-15 .4-3.5 1-7 1.8-10.2 1.5-6.4 2-13 2.4-19.4.3-6 .4-12 .4-17.8 0-3-.3-6-.5-9-.3-5-1-10-1.3-15.2-.3-3.5-1-7-2.2-10.4-.5-1.3-.5-2.7-.5-4 0-2.3-.3-4.5-1-6.7-1.3.4-1.3 1.4-1.2 2.2.6 4.2.2 8.5 2 12.4.8 1.4.8 3 1 4.6 1 8.7 2.6 17.5 2.2 26.3-.4 9 0 18-1 27-.7 4.7-1.6 9.4-2.6 14-1 5.3-1.8 10.7-3 16l-3 10.4c-3 8.8-5 18-9 26.3-3.2 7.3-7 14.4-11.5 21-.4.5-.8 1.4-1.4.2-1.3.7 0 2.4-1 3.3-1 .7-1.5 1.6-2 2.6-2.6 4-5.4 8-8.5 12-.4.7-1 1.6-2.2 1.7 0-1.2.6-2 1-3 2.8-6 4.5-12.4 6-18.8l.6-2c.6-2 .5-2 .2-4.6-.5-5.4-1-10.7 2.5-15.5 1-1.2.8-1.3.5-3-1.8 1.5-1.4 4.2-3.4 5.8-.5-1.4-.3-2.7-.3-4 0-2.6-.3-5-1.5-7.5-.3-.6-.5-1.3-.5-2-.2-4-1.3-7.6-1.8-11.5-1-5.4-1.4-11-2-16.3-.6-7.3-.7-14.6 0-22 0-.4 0-.8-.8-1-1 .7-.8 2-1 3-1 7-.5 13.8 0 20.7.5 5 1 9.8 1.8 14.6.4 3.4 1 6.7 1.7 10 1.8 10.3 2.6 20.5 2.6 30.8 0 3.8-1 7.4-2.2 11-1.5 5-3 9.7-5.5 14.3-.2.3-5.5 11-6.6 18 0 .2-.4 1.2-.4 2 0 0-1.2 2.3-3.5 1v-.2l-.7-.5c-2.2-2.4-3.7-5.2-4.4-8.4-.4-1.4-.2-3-1.6-4-.8.6-.3 1.6-.7 2.4l-1-.4c-2.2-2.4-4-5.3-5.4-8.3-3-6-6.5-12-9.2-18.4-1-2.5-2-5-2.2-8-.7-6.4-1-13-1.4-19.4 0-.8.2-1.7-.4-2.5zM115.6 767.5l.8.4 1.4-1.4c-.3-.4-.6-.7-1-.5-.7.3-1 .8-1.2 1.5zM116.5 56v1c0 .3 0 .8.4.8.3 0 .2-.5 0-.8v-1h-.5zM117.2 37c0 1.6.4 2.6 1.4 3.3.2-1.3 0-2.4-1.4-3.3zM122 47.6c-.7 1.3 0 2.2 1 3l-1-3zM123.4 52.7c-.4.8-.4 1.4.2 2 .5-.7.5-1.3-.2-2zM123.7 762.6l-.2.2c.2 0 .4.3.6.4l-.3-.6zM124 57s-.3 0-.3.4c0 .3.2.6.3.8.3 0 .5 0 .4-.4 0-.3 0-.6-.3-.8z"/>
    <path d="M127.6 672c1.5-.2 1.5-.2 1.7-2.3-1 .5-1.6 1.2-1.7 2.3zM135 668.3c-1 2-2 3-1.8 4.7 2.4-1.2 2.6-1.7 1.7-4.7zM132.3 763.3c.7 1.8 2 2 3 2.3 2.6.4 4.8 2 7.2 2.8.5.2.5 1 1.5 1 0-1.4-.5-2.2-1.4-2.7-2-1-3.2-2.4-4.3-4-.7-1-1.2-2-1.8-3.2 0-.2-.3-.3-.5-.4-.4 1.8-.3 1.8 1.8 5.5-1.8.2-3.4-.5-5.5-1.2zM138.4 597c-1.2 1.4-1.2 3-1.6 4.7 1.3-1.2 1.7-3 1.6-4.6zM139.4 580.7c-2 2.7-1.8 5.7-2.3 8.5.6.5 1 .4 1 0 1-2.7 1.2-5.6 1.4-8.5zM138.4 597zM138.4 597zM141 733c-2 2.2-1.4 4.4-1.4 6.4 0 4 1.7 8.4 3.5 10.3 1-.7-1-2.4 1-2.7.5-1 0-2.2 0-3.4 0-1 0-2.3-.2-3.4 0-1 0-2.3-.2-3.4 0-.8 0-1.8-1-3-.6 4 .2 7.7 0 11.2-2.3-3.6-1-7.7-1.7-12zM138.4 597c1.4-3 2-6.5 2.6-9.8.8-4.6 1.8-9 2.7-13.7.2-.7.7-1.5-.2-2.2-.3.2-.7.3-.8.6-2 8.2-3.3 16.5-4.3 25zM139.4 666.5c.4 2 .4 4 2.5 6-.4-2.8-1-4.7-2.6-6zM144.2 584.3c.5.4 1 .3 1 0l4.4-14.4c0-.5.2-1-.3-1.5-1 0-1 1-1.3 1.5-1.6 4.7-3 9.5-3.8 14.3zM145 746.2c0 1-.4 2.2-.4 3.4 0 1.5 1.4 3 2 .4v-1.4c.5-3 1-6 1.7-9 0-.7.4-1.2.4-1.8 0-2.2-1-4.4 0-6.6-1.6 1-1.8 2.4-2 3.8-1 3.7-1.2 7.5-1.6 11.2zM144.3 666.3c.5 2.6 2 4 3.2 5.5 0-2.2-.8-4-3.2-5.5zM148.3 743.8c-.6 1.7-1 3.4-.6 5.2 1-6 4.6-13.3 5.8-15.6-.2.2-.6.3-1 .4-.6 0-.7.8-1 1.4-1 3-2 5.8-3.2 8.6zM149.3 574.7L147 586c2.3-6.3 4.2-12.5 5.3-19 0 0-.3 0-.5-.3-.4 0-.6.3-.7.6l-1.7 7.4zM150 589c-.4 1.7-1.3 3.2-.8 5 .6-1.7 1.3-3.4 1.8-5.3 1.5-5.5 3-11 4.3-16.5.2-.8.6-1.5 0-2.2-.6-.4-1.3.4-1.6 1.8L150 589zM151.3 730.4c-1.5 1-2 2-2 3.6 1.3-1 1.5-2 2-3.6zM152 668.3c.7 2 1.2 4.2 3 5.6-.3-2.5-1.5-4.2-3-5.7zM159.6 614.4c-.6 1.8-.6 2-.3 4 .5 0 .8-.4 1-.8.6-1.3 3.7-12 3.8-13.3-.2 0-.7 0-.8.3-2 3-2.5 6.5-3.6 9.8zM168.3 699.8c-1.2.5-1.4 1.3-1.4 2.5.8-.5 1-1.2 1.3-2.5zM170.5 585c-2.2 3.4-2.6 4.7-2.3 7 1.7-2 3-3.7 2.3-7zM170.4 694.7c-1.5 1.4-1.5 1.4-1.7 3.2 1.2-1.2 1.2-1.2 1.7-3.3zM170.7 713zM170.6 713zM171.8 710.7c-1 .6-1 1.5-1 2.3.3-.7 1-1.2 1-2.3zM175 704.3c-1.7 1.2-1.8 2.4-2 3.6 1.2-1 1.2-2 2-3.7zM176 688.4c-.7.7-1 1.5-1 3 1-1 1-2 1-3zM176 688.2zM176 688.3zM176.2 700.2s0 .2.2.2c.6 0 .8-.4 1-.8 1.8-5.2 4-10.3 5.3-15.8 0-.5.2-1-.3-1-.4-.2-.7 0-.8.4l-5.4 17zM176 688.2c1.3-1.3 2.3-2.7 2.6-5.2-1.5 2-2.3 3.4-2.5 5.2z"/>
  </g>
</svg>
