<svg xmlns="http://www.w3.org/2000/svg" xmlns:xlink="http://www.w3.org/1999/xlink" viewBox="0 0 464.401 444.832">
  <style>
    .st0{fill:#EC008C;} .st1{fill:#FFF200;} .st2{clip-path:url(#SVGID_2_);} .st3{fill:#6FCCDD;} .st4{clip-path:url(#SVGID_2_);fill:#6FCCDD;}
  </style>
  <g id="bg">
    <path id="triangle" class="st0" d="M0 402.2L232.2 0l232.2 402.2z"/>
    <path id="top_eye" class="st1" d="M258.7 173v4l-.8 8c-.8 5.3-2 10.6-3.5 15.8-1.6 5-3.6 10-6.2 14.8l-2 3.4-2.3 3.3-1.2 1.7-1.2 1.6c-.7 1-1.6 2-2.3 3.3l-.6 1.2-.6 1-1.5 1.7c-1.2 1-2.7 1.5-4.3 1.5s-3-.5-4.3-1.6l-1.7-1.8-.6-1-.5-1v-.3l-2.4-3.4-1.2-1.6-1.2-1.7c-.8-1-1.5-2.2-2.2-3.3l-2-3.4c-2.7-4.7-4.7-9.7-6.3-14.8-1.7-5.2-2.8-10.5-3.5-15.8-.3-2.7-.6-5.4-.7-8v-4-3.5c1.5-1.7 8.2-8.3 22-9.5l4.4-.2c1.6 0 3 0 4.5.2 13.7 1.2 20.4 7.8 22 9.5v3.4z"/>
  </g>
  <g id="sphinx">
    <defs>
      <path id="SVGID_1_" d="M440.8 175.6c0-.6 0-1 .2-1.7.6-4.8 1.8-10.4 4-17 7.5-20.5 16-59-2.5-129.7-5.5-21-37.2-53-86.3 8.4C335.6 61.4 304.8 120 298 154v.3s-.4 0-.8.3c-1.8 1-6.6 4-5.8 12.3v1h-.7c-1.6.3-5.2 1.4-5.3 7v2.7s-.3-.7-1-1.5c-1.6-1.6-4.4-4-6.3-2.3-.2 0-.5.5-.8 1l-.5-.6c-1.3-1.2-4.6-4-8-1.8-.5.2-1 .5-1.3 1 0 0-.6-1-1.5-1.8-1.7-1.6-4.2-3.6-6.3-2.3-.2 0-.5.3-.7.5 0 0 0-.2-.3-.5v7.4l-.8 8c-.8 5.3-2 10.6-3.5 15.8-1.6 5-3.6 10-6.2 14.8l-2 3.4-2.3 3.3-1.2 1.7-1.2 1.6c-.7 1-1.6 2-2.3 3.3l-.6 1.2-.6 1-1.5 1.7c-1.2 1-2.7 1.5-4.3 1.5s-3-.5-4.3-1.6l-1.7-1.8-.6-1-.5-1v-.3l-2.4-3.4-1.2-1.6-1.2-1.7c-.8-1-1.5-2.2-2.2-3.3l-2-3.4c-2.7-4.7-4.7-9.7-6.3-14.8-1.7-5.2-2.8-10.5-3.5-15.8-.3-2.7-.6-5.4-.7-8v-4-3.5l-.4.5-.7-.5c-2-1.3-4.6.7-6.2 2.3l-1.5 1.7-1.2-1c-3.5-2-6.8.7-8 2-.4.2-.6.5-.6.5-.3-.5-.6-1-1-1-1.8-1.7-4.5.6-6 2.2l-1.3 1.5V175c0-5.6-3.7-6.7-5.3-7h-.8v-1c.8-8.3-4-11.5-5.8-12.4l-.7-.3v-.2c-7-34-37.7-92.6-58.3-118.3-49-61.4-80.8-29.4-86.3-8.4C3.2 98 12 136.5 19.2 157c2.3 6.6 3.5 12.2 4 17 .2.5.2 1 .3 1.6.8 9-1 14.2-1 14.2C16 211 22 220.6 29.5 226c14.8 10.8 14 22.8 14 22.8-1.8 23 17.2 32.5 24.7 35.3l3 1.2.5 2.5c1 3.8 4 6 6.3 7.3l2 1c-2 11.7 8.7 15 8.7 15s2.3 1 3.7 2.8c.6.8 1 1.7 1 2.7v1c-.7 5.6 3.6 15.6 8 19 3 2.3 10 14.3 11.8 18.7 3.7 9 19.3 28.4 27.5 36.3l13 11.8 7.4 6.6c5.2 4.7 9.4 8.7 9.7 9.5.6 1.5 3.4 6.8 7.7 8 2.8.8 7.5 3 9.6 4.7 18 13.3 44.2 12.6 44.2 12.6s26 .7 44.2-12.6c2-1.6 6.8-4 9.6-4.7 4.3-1.2 7-6.5 7.7-8 .3-.8 4.5-4.8 9.8-9.6l7.3-6.7c5.2-4.6 10.2-9 13-11.8 8.3-8 24-27.3 27.6-36.3 1.7-4.4 8.7-16.4 12-18.8 4.2-3.3 8.5-13.3 7.8-19v-1c0-1 .5-1.8 1-2.6 1.4-2 3.7-2.8 3.7-2.8s10.6-3.3 8.5-15c.3 0 1-.4 2-1 2.3-1.2 5.4-3.5 6.4-7.3 0-.8.3-1.6.3-2.5l3-1c7.5-3 26.5-12.5 24.7-35.4 0 0-.8-12 14-22.8 7.5-5.4 13.6-15 6.7-36.2 0 0-1.7-5-1-14.2z"/>
    </defs>
    <clipPath id="SVGID_2_">
      <use xlink:href="#SVGID_1_" overflow="visible"/>
    </clipPath>
    <path d="M440.8 175.6c0-.6 0-1 .2-1.7.6-4.8 1.8-10.4 4-17 7.5-20.5 16-59-2.5-129.7-5.5-21-37.2-53-86.3 8.4C335.6 61.4 304.8 120 298 154v.3s-.4 0-.8.3c-1.8 1-6.6 4-5.8 12.3v1h-.7c-1.6.3-5.2 1.4-5.3 7v2.7s-.3-.7-1-1.5c-1.6-1.6-4.4-4-6.3-2.3-.2 0-.5.5-.8 1l-.5-.6c-1.3-1.2-4.6-4-8-1.8-.5.2-1 .5-1.3 1 0 0-.6-1-1.5-1.8-1.7-1.6-4.2-3.6-6.3-2.3-.2 0-.5.3-.7.5 0 0 0-.2-.3-.5v7.4l-.8 8c-.8 5.3-2 10.6-3.5 15.8-1.6 5-3.6 10-6.2 14.8l-2 3.4-2.3 3.3-1.2 1.7-1.2 1.6c-.7 1-1.6 2-2.3 3.3l-.6 1.2-.6 1-1.5 1.7c-1.2 1-2.7 1.5-4.3 1.5s-3-.5-4.3-1.6l-1.7-1.8-.6-1-.5-1v-.3l-2.4-3.4-1.2-1.6-1.2-1.7c-.8-1-1.5-2.2-2.2-3.3l-2-3.4c-2.7-4.7-4.7-9.7-6.3-14.8-1.7-5.2-2.8-10.5-3.5-15.8-.3-2.7-.6-5.4-.7-8v-4-3.5l-.4.5-.7-.5c-2-1.3-4.6.7-6.2 2.3l-1.5 1.7-1.2-1c-3.5-2-6.8.7-8 2-.4.2-.6.5-.6.5-.3-.5-.6-1-1-1-1.8-1.7-4.5.6-6 2.2l-1.3 1.5V175c0-5.6-3.7-6.7-5.3-7h-.8v-1c.8-8.3-4-11.5-5.8-12.4l-.7-.3v-.2c-7-34-37.7-92.6-58.3-118.3-49-61.4-80.8-29.4-86.3-8.4C3.2 98 12 136.5 19.2 157c2.3 6.6 3.5 12.2 4 17 .2.5.2 1 .3 1.6.8 9-1 14.2-1 14.2C16 211 22 220.6 29.5 226c14.8 10.8 14 22.8 14 22.8-1.8 23 17.2 32.5 24.7 35.3l3 1.2.5 2.5c1 3.8 4 6 6.3 7.3l2 1c-2 11.7 8.7 15 8.7 15s2.3 1 3.7 2.8c.6.8 1 1.7 1 2.7v1c-.7 5.6 3.6 15.6 8 19 3 2.3 10 14.3 11.8 18.7 3.7 9 19.3 28.4 27.5 36.3l13 11.8 7.4 6.6c5.2 4.7 9.4 8.7 9.7 9.5.6 1.5 3.4 6.8 7.7 8 2.8.8 7.5 3 9.6 4.7 18 13.3 44.2 12.6 44.2 12.6s26 .7 44.2-12.6c2-1.6 6.8-4 9.6-4.7 4.3-1.2 7-6.5 7.7-8 .3-.8 4.5-4.8 9.8-9.6l7.3-6.7c5.2-4.6 10.2-9 13-11.8 8.3-8 24-27.3 27.6-36.3 1.7-4.4 8.7-16.4 12-18.8 4.2-3.3 8.5-13.3 7.8-19v-1c0-1 .5-1.8 1-2.6 1.4-2 3.7-2.8 3.7-2.8s10.6-3.3 8.5-15c.3 0 1-.4 2-1 2.3-1.2 5.4-3.5 6.4-7.3 0-.8.3-1.6.3-2.5l3-1c7.5-3 26.5-12.5 24.7-35.4 0 0-.8-12 14-22.8 7.5-5.4 13.6-15 6.7-36.2 0 0-1.7-5-1-14.2z" id="fur" class="st2"/>
    <g id="sclera" class="st2">
      <path class="st0" d="M191.5 291.8c-1.5.2-3 .7-4.3 1.3l-4.8 2.8c-1.3 1-2.6 1.7-4 2.6 1.4-1.8 2.6-4 3.5-6.7.8-2.7 1.3-5.7 1.4-8.8 0-1.6 0-3-.3-4.6v-1c0-.5 0-.8-.2-1.2 0-.7-.2-1.4-.4-2l-1.3-4v-.3l2 2.6c.4 1 1 1.8 1.5 2.7l3 5.6c1 1.8 1.7 3.8 2.5 5.8l1.5 5zM128.5 285.7c0 1 .3 1.8.5 2.7l-2.3-3.8-2-4 1-2.3 1.6-2.8 1.6-2.7v-.2.6l-.6 3v1.6c-.2.5-.2 1-.2 1.6v3.2l.3 3zM339.7 280.6l-2 4-2.3 3.8.5-2.7.2-3v-3.3-1.6l-.2-1.6c0-1-.3-2-.5-3v-.6.2l1.6 2.7c.6 1 1 2 1.6 2.8l1 2.3zM286 298.4l-4-2.6c-1.5-1-3-2-4.8-2.7-1.3-.5-2.8-1-4.3-1.2.3-1.7 1-3.4 1.5-5l2.4-6c.8-1.8 1.8-3.7 3-5.5.4-1 1-1.8 1.5-2.7.6-1 1.3-1.7 2-2.5v.2c-.6 1.2-1 2.5-1.5 4 0 .6-.3 1.3-.4 2 0 .4 0 .7-.2 1v1.2c-.3 1.5-.4 3-.4 4.5 0 3 .6 6 1.5 8.7 1 2.6 2 5 3.4 6.7z"/>
    </g>
    <path class="st2 st1" d="M181 278.7v-1c0-.4 0-.8-.2-1l-.5-2c-.7-2.6-1.6-5-2.5-7l-1.4-2.8-1.8-1.7-2.4-2c-3.3-2.3-7-4.2-11-5.2s-8-1-11.8-.2c-2 .4-3.8 1-5.5 2-2 1-3.6 2-5.2 3.3l-1.2 1-1 1c-1 .7-1.5 1.5-2.2 2.3l-2 2.3-.4 1-.7 2.2-.7 2.7-.5 3v1.5l-.2 1.5v6l.5 2.8.3 1.2.3 1.2v.8c1.6 2 3.2 4 5 5.6 1.2 1.4 2.4 2.5 3.8 3.5s2.8 2 4.3 2.7 3 1.4 4.7 2c.8 0 1.6.3 2.4.5h1.3l1.4.3h5c1.7 0 3.4-.3 5-.7 3.4-.8 6.6-2 9.7-3.8l1.6-1c.7-.7 1.4-1.6 2-2.7 1.3-1.8 2.4-4 3.2-6.6s1-5.4 1.2-8.3c0-1.5 0-3-.3-4.3z" id="left_eye"/>
    <path class="st2 st1" d="M334.7 279.5c0-.5 0-1-.2-1.5s0-1 0-1.6l-.7-3-.7-2.6c0-.8-.3-1.6-.6-2.3 0-.3-.2-.5-.3-.8-.6-1-1.3-1.7-2-2.4l-2-2.2-1.2-1-1.2-1c-1.6-1.2-3.2-2.3-5-3.2-1.8-1-3.7-1.6-5.6-2-4-.8-8-.7-11.8.3-4 1-7.6 3-11 5.4l-2.4 2-1.8 1.5c-.4.8-1 1.7-1.4 2.8-.8 2-1.8 4.3-2.5 6.8 0 .7-.2 1.3-.4 2 0 .3 0 .7-.2 1v1c-.3 1.5-.4 3-.3 4.3 0 2.8.5 5.6 1.2 8.2s2 4.8 3 6.6l2.2 2.8 1.7 1c3 1.6 6.3 3 9.6 3.7 1.7.4 3.4.6 5 .8h5.1l1.4-.2h1.3l2.4-.7c1.6-.4 3-1 4.6-1.8s3-1.7 4.3-2.7c1.4-1 2.6-2 4-3.4 1.6-1.6 3.2-3.5 4.7-5.5 0-.3 0-.5.2-.8l.3-1.2.3-1.2.5-2.8.2-3v-3z" id="right_eye"/>
    <g id="lines" class="st2">
      <path class="st3" d="M194 292.5c-.5-2.3-1-4.4-1.7-6.5l-2-6.3-1.4-3-1.6-3c-.5-1-1-2-1.7-3-.5-1-1.2-1.8-1.8-2.7l-2-2.7-1.2-1.3-.6-.7-.6-.6-2.4-2.3-2.6-2.2c-3.7-2.7-7.8-5-12.2-6.2-2.2-.6-4.6-1-7-1.2-2.3 0-4.6 0-7 .6-2.2.5-4.5 1.4-6.6 2.4-2 1-4 2.4-5.8 3.8l-1.3 1.2-1.2 1.2-2.3 2.5c-.8.8-1.4 1.8-2 2.7l-2 2.7c-1.2 2-2.3 3.8-3.3 5.8l-1.4 3-1.3 3-.2.8.3.6c.7 1.8 1.4 3.4 2.3 5 .8 1.7 1.7 3.4 2.7 5 2 3 4.2 6 7 8.7 1.2 1.2 2.6 2.5 4.2 3.6 1.5 1 3 2.2 4.8 3 1.7 1 3.5 1.6 5.4 2l2.8.7 1.5.2h1.3c1 .2 2 .2 3 .2h2.7l5.6-1c3.7-1 7-2.6 10.3-4.5 3-2 6-4 8.8-6.2l4.4-2.8c1.6-.8 3-1.4 4.7-1.5l1-.2v-1zm-65.8-10c0 1.2.2 2.2.3 3.2 0 1 .3 1.8.5 2.7l-2.3-3.8-2-4 1-2.3 1.6-2.8 1.6-2.7v-.2.6l-.6 3v1.6c-.2.5-.2 1-.2 1.6v3.2zm46.8 18l-1.6 1c-3 1.7-6.3 3-9.6 3.8-1.7.4-3.4.6-5 .8h-5.1l-1.4-.2H151l-2.3-.7c-1.6-.4-3-1-4.6-1.8s-2.8-1.7-4.2-2.7c-1.4-1-2.6-2-3.8-3.4-1.8-1.6-3.4-3.5-5-5.5v-.8l-.4-1.2-.3-1.2c0-1-.3-1.8-.4-2.8l-.3-3v-3c0-.5 0-1 .2-1.5s0-1 0-1.6l.6-3 .7-2.6.7-2.3c0-.3.2-.5.3-.8l2-2.4 2.2-2.2 1-1 1.3-1c1.6-1.2 3.3-2.3 5-3.2 1.8-1 3.7-1.6 5.6-2 4-.8 8-.7 11.8.3 4 1 7.7 3 11 5.4l2.4 2 1.8 1.5c.4.8 1 1.7 1.4 2.8 1 2 1.8 4.3 2.5 6.8l.5 2c0 .3 0 .7.2 1v1c.3 1.5.4 3 .4 4.3 0 2.8-.5 5.6-1.2 8.2s-2 4.8-3 6.6l-2.2 2.8zm12.2-7.4l-4.8 2.8c-1.3 1-2.6 1.7-4 2.6 1.4-1.8 2.6-4 3.5-6.7.8-2.7 1.3-5.7 1.4-8.8 0-1.6 0-3-.3-4.6v-1c0-.5 0-.8-.2-1.2 0-.7-.2-1.4-.4-2l-1.3-4v-.3l2 2.6c.4 1 1 1.8 1.5 2.7l3 5.6c1 1.8 1.7 3.8 2.5 5.8l1.5 5c-1.5.2-3 .7-4.3 1.3z"/>
      <path class="st3" d="M177.3 235.5l-1-.5-2-1c-.8-.4-1.5-.5-2.2-.8l-2-.7-2.2-.6-1-.3-1.2-.2c-.8 0-1.5-.2-2.2-.3l-2.2-.2c-1.4-.2-3 0-4.3 0h-2.2l-2 .3-4 .7c-2.4.6-4.7 1.4-6.7 2.4s-3.7 2-5.2 3-2.7 2-3.7 3c-1 .7-1.6 1.5-2 2l-.8.8s1-1 3.2-2.6c2-1.5 5-3.5 9-5.2 2-.8 4.4-1.6 6.8-2.2 1.2-.3 2.5-.4 3.8-.6.6 0 1.3 0 2-.2h6l2.2.4c.7 0 1.4.2 2 .4l1 .2 1 .3 2.2.6 2 .8 2 1 1.8 1 1 .4 1 .6c1 .8 2.3 1.5 3.3 2.5.5.4 1 1 1.6 1.3l1.6 1.5 1.4 1.4c.5.6 1 1 1.3 1.6l1.2 1.6c.4.4.7 1 1 1.5.5.6.8 1 1 1.6l1 1.7 1.7 3.2c.3.4.5 1 .7 1.5 0 .5.3 1 .5 1.5.4 1 1 2 1.2 3l.8 2.6.8 2.4c0 .8.3 1.4.4 2l1 4c0 .3.4.4.6.4.3 0 .4-.3.4-.6l-.6-4c0-.7 0-1.4-.2-2.2 0-.7-.3-1.6-.5-2.4l-.7-3-1-3c-.4-1-.7-2-1.3-3.2l-1.6-3.4c-.2-.6-.6-1.2-1-1.7l-1-2c-.4-.4-.7-1-1-1.6-.6-.5-1-1-1.5-1.7L187 243l-1.6-1.4c-.5-1-1.3-2-2.2-3.2-1-1.6-2.6-3.3-4.3-5l-1.4-1.5-1.4-1.4c-.8-.8-1.6-1.7-2-2.7-.5-1-.6-2-.2-3 .3-1.2 1-2 1.8-3 .7-1 1.6-1.8 2.3-2.7.8-1 1.3-1.8 1.8-2.7l2.3-4 1-1.7c0-.4 0-.7-.3-.8-.3 0-.5 0-.7.2l-1 1.5-2.4 4c-.5.6-1 1.5-1.8 2.3l-2.3 2.6c-1 .8-1.7 1.8-2.3 3.2-.2.7-.4 1.5-.4 2.2 0 .4 0 .8.2 1.2 0 .4.2.7.3 1 .6 1.4 1.6 2.5 2.5 3.5l1.4 1.4 1.2 1.3 1.6 1.8-.7-.4-1-.5zM162 362s-1.7 2.8-3.6 7.2c-2 4.4-4.2 10.4-5.3 16.8l-.5 4.8v2.4c0 .8-.2 1.6 0 2.3 0 3 .5 6 1.3 8.4.2.5.4 1 .5 1.7l.7 1.5c.4 1 1 1.7 1.2 2.4l1.2 2c.6.8 1.8 1 2.7.5 1-.4 1.3-1.6.7-2.5l-.2-.2-1.2-1.7-1-2-.8-1.3-.6-1.4c-1-2.2-1.5-4.8-1.8-7.7 0-.7 0-1.4-.2-2v-2.4c0-1.6 0-3 .3-4.7.6-6.2 2.4-12.3 4-16.7 1.7-4.4 3-7.2 3-7.2.2-.2.2-.3 0-.4h-.3z"/>
      <path class="st3" d="M288.5 205.4c0 .2 0 .3-.2.4-.2 0-.3 0-.4-.2 0 0-.2-.6-1-1.4-.8-1-2-2-3.8-3l-5.8-3.6-3.2-2.2-3-3c-1.6-2.3-2.8-4.8-3.6-7.3v.2l-.3.5-.2.6v.7l-.2.7v1.8c0 .2 0 .5.2.8V191l.2.4.6 2 .8 2 1 1.7c.2.7.6 1.2 1 1.7l.8 1.5 2 3c.2 0 0 .3 0 .4h-.5l-2.4-2.8-1-1.5c-.4-.5-.8-1-1-1.6-.5-.6-1-1.2-1.3-1.8l-.8-1.6c0 .3 0 .6-.2 1-.2 1-.5 2-1 3-.3 1-.7 2.2-1.3 3.4l-1.8 3.7-2.3 3.8-1.4 1.8-.6 1-.7 1c-1 1-1.8 2.3-3 3.4-1 1-1.8 2.3-2.8 3.2l-3 3c-1 .7-1.8 1.5-2.7 2.3l-1.2 1-1.2.8c-.6.5-1 1-1.5 1.3l-2 1.6c0 .4-.2.7-.4 1l-.7 1.2-2 2c-.5.5-1.3 1-2.2 1.3-.8.4-1.7.5-2.6.5-1 0-1.8 0-2.6-.4-1-.3-1.6-.7-2.3-1.3-.7-.6-1.3-1.2-1.8-2l-.7-1-.5-1-1.8-1.6-1.5-1.2-1.2-.8-1.2-1c-.8-1-1.8-1.7-2.7-2.5l-3-3c-1-.8-2-2-3-3l-3-3.6-.6-1-.6-1c-.5-.5-1-1-1.3-1.7l-2.3-3.8-1.8-3.7-1.4-3.4-1-3v-1l-1 1.5-1 1.7-1.2 1.6-1 1.5-2.3 2.7c0 .2-.3.2-.5 0 0 0-.2-.2 0-.4l2-2.8 1-1.5 1-1.6.8-1.7.8-2 .6-2v-.4-.2c0-.2.2-.4.3-.5v-.8-1c.2-.2 0-.5 0-.8v-.7l-.2-.7c0-.2 0-.4-.2-.6v-.5h-.2c-.8 2.4-2 5-3.7 7-.7 1.2-1.7 2.3-2.7 3.2-1 .8-2.2 1.6-3.3 2.2l-5.8 3.6c-1.7 1-3 2-3.8 3-.7.8-1 1.4-1 1.4s0 .2-.3.2v-.4s.2-.7 1-1.7 2-2 3.7-3.2l5.6-4c1-.6 2-1.4 3-2.2 1-1 1.7-2 2.5-3 1.4-2 2.4-4.5 3-6.8.7-2.3 1-4.6 1-6.5.2-2 .2-3.6 0-4.7v-.7-.6-.4c-.2-1 .4-1.6 1.2-1.6.7 0 1.4.5 1.4 1.2v2c.2 1.2 0 3 0 5-.2 1.2-.4 2.6-.8 4l.6.7c.3.2.5.6.8 1 0 .3.2.5.3.8l.2 1c0 .2 0 .5.2.8v2c0 .5 0 .8-.2 1.2 0 .3 0 .6-.2.8v.7c0 .3 0 .8.2 1.4 0 .6.2 1.4.4 2.2 0 .8.4 1.8.7 2.8l1.3 3.3c.4 1.3 1 2.5 1.6 3.7l2 3.8c.5.6 1 1.2 1.3 1.8l.6 1 .6.8 2.7 3.6c1 1 1.8 2.3 2.8 3.2l2.8 3 2.5 2.3-.3-.4c-.8-1-1.5-2.3-2.3-3.5l-2-3.4c-2.7-5-4.8-10-6.3-15.3-1.5-5.3-2.5-10.7-3-16-.4-2.8-.5-5.6-.5-8.3 0-2.5 0-5 .2-7.5v-.7c0-.3.4-.5.6-.5.3 0 .5.3.5.6v7.9c0 2.6.4 5.3.7 8 .7 5.3 1.8 10.6 3.4 15.8 1.5 5 3.5 10 6 14.8l2.2 3.4c.7 1 1.4 2.3 2.2 3.3l1.2 1.7 1.2 1.6c.7 1 1.6 2 2.3 3.3h.2c0 .4.3.8.5 1.2l.6 1 1.6 1.7c1 1 2.6 1.5 4.2 1.5s3-.5 4.3-1.6l1.6-1.8.7-1 .5-1v-.3l2.4-3.4 1.2-1.6 1.2-1.7c.8-1 1.5-2.2 2.2-3.3.7-1 1.5-2.2 2-3.4 2.7-4.7 4.7-9.7 6.3-14.8 1.6-5.2 2.7-10.5 3.4-15.8l.6-8v-4-3.5-.6c0-.4.2-.7.5-.7.4 0 .6.2.6.5v.7c.3 2.5.4 5 .3 7.5 0 2.7-.2 5.5-.5 8.2-.6 5.4-1.6 10.8-3.2 16-1.5 5.4-3.6 10.5-6.2 15.4l-2 3.5-2.3 3.6-.4.5c.8-.7 1.7-1.4 2.5-2.3l2.8-3c1-.8 2-2 3-3 1-1.2 1.7-2.4 2.6-3.6l.7-.8.5-1 1.2-1.7 2-3.8c.7-1.2 1.3-2.4 1.7-3.6.6-1 1-2.2 1.3-3.2l.8-3 .4-2v-1.5-.5-.2-.8l-.3-1v-1-1.2c0-.3 0-.6.2-1v-.8l.4-.8c.3-.4.5-.8.8-1l.6-.8c-.4-1.4-.6-2.8-.7-4 0-2-.2-3.8 0-5v-1.4-.6c0-.7.7-1.3 1.5-1.2.7 0 1.3.7 1.2 1.5v1.1l-.2.7v4.7c0 2 .4 4.2 1 6.5.7 2.3 1.7 4.7 3 6.8 1 1 1.7 2 2.6 3l3 2.3 5.8 4c1.6 1 3 2.2 3.6 3 .8 1 1 1.8 1 1.8zM131.7 118.2l5.2 9.5c2 4 4.6 8.5 7.3 13.4 1.3 2.6 2.8 5 4.2 7.7l4.4 7.8 2 4c.5 1.2 1 2.6 1 4v.3l.2.6c0 .4 0 1 .2 1.3 0 .8.4 1.5.8 2.2.8 1.3 2 2.4 3 3.4.5.5 1.2 1 1.3 1.3.3.4.5 1 .6 1.5.4 1.2.3 2.3 0 3.4-.5 1-1.2 2-2 2.7-.8.8-1.8 1.6-2.5 2.5-1.6 1.6-3 3.4-3.7 5l-1 2.6c0 .3-.2.6-.4 1 0 .2-.3.5-.5.7-.8 1.2-1.6 1.8-2 2.3l-1 .6v.2h.2s.4 0 1-.5c.6-.4 1.5-1 2.4-2l.6-1c.3-.2.5-.6.6-1l1-2.2c1-1.5 2.2-3 3.8-4.6.8-1 1.6-1.5 2.6-2.4 1-1 1.8-2 2.4-3.3.5-1.4.7-3 .3-4.5-.2-.7-.5-1.5-1-2.2l-.4-.5h-.2v-.2h-.2l-.8-.8c-1-1-2-2-2.6-3-.3-.5-.5-1-.7-1.8v-2c-.3-1.7-1-3-1.5-4.5-.7-1.4-1.4-2.8-2.2-4l-4.4-7.8-4.5-7.5-7.8-13.2-5.6-9.4-2-3.6h-.2v.2l2 3.6zM116.7 276.3c.4-1.4 1-2.5 1.2-3.3l.4-1.2v-.2h-.2l-.8 1.2c-.4.7-1 1.8-1.4 3.2-.3.7-.5 1.5-.6 2.3-.2 1-.2 1.8 0 2.8 0 .5 0 1 .2 1.4 0 .5.2 1 .3 1.4l.8 2.8 1.2 2.7 1.3 2.5 1.3 2.2 1.4 2c1.6 2.3 3 3.7 3 3.7l-2.6-4-1.2-2-1.2-2.3c-.5-.8-.8-1.6-1.2-2.5-.4-1-.8-1.8-1-2.7l-1-2.7c0-.5 0-1-.2-1.3l-.2-1.4c-.2-1-.2-1.7 0-2.5 0-.8.2-1.6.3-2.2zM132.8 322l-2-1c-.7-.4-1.5-1-2.4-1.4l-2.8-2c-1-.7-2-1.6-3-2.6l-1-.7c0-.3-.4-.5-.7-.8l-.8-.8-.8-1-.8-.8c-.2-.4-.4-.8-.7-1l-1.5-2c-1-1.5-1.6-3-2.3-4.5-.7-1.5-1.3-3-1.8-4.6-.4-1.7-.8-3.3-1-4.8-.6-3-.8-6-.8-8.5 0-2.6.2-4.7.4-6l.4-2.4s0-.2-.2-.2l-.2.2-.5 2.3c-.2 1.5-.5 3.6-.6 6v4.3c0 1.4.2 3 .5 4.5.2 1.6.6 3.2 1 4.8.5 1.7 1.2 3.3 2 5 .6 1.4 1.4 3 2.3 4.4l1.5 2 .7 1 .8 1 1.6 1.6.8.8.8.8c1 1 2.3 1.7 3.3 2.5s2 1.5 3 2l2.3 1.3 2 1h.2v-.3zM75.5 244s0-.2-.2 0v2c0 1-.4 3-1 5l-4 15-.8 4-.5 2c0 .8-.2 1.4-.3 2-.4 2.8-.5 5.3-.6 7.5 0 2 0 4 .2 5.2v2c.2 1 1 1.6 2 1.5s1.5-1 1.4-1.8c0 0 0-.8-.3-2l-.4-5c-.2-2-.2-4.5 0-7l.2-2 .3-2 .7-4 3-15.4c.3-2 .5-3.8.5-5 0-1.3-.2-2-.2-2zM113.7 220.6c.8 0 1.6 0 2.3.3h1l1.3.4c1.5.2 3 0 4-.4 2.4-.7 4-2 5-2.8l1-1 .4-.4v-.3h-.4s-.2 0-.4.3l-1 1c-1 1-2.6 2-4.8 2.5-1 .3-2.4.4-3.8 0h-1l-1-.5-2.5-.5c-1-.2-2-.2-3 0-.8 0-2 .2-2.8.8-1 .7-1.7 1.5-2.3 2.5-.7 1-1 2-1.5 3l-1 2.7c-.4.7-1 1.4-1.7 2-.6.3-1.3.5-2 .4-1 0-1.8-.4-2.7-1-1.6-1-3.3-2.8-4.7-4.6-1.5-1.8-3-4-4.2-6-2.5-4.3-4.8-9-6.7-14-1-2.5-1.8-5-2.6-7.7l-2-8c-1.2-5.2-2.5-10.5-4.2-15.7l-2.7-7.5c-1-2.4-2-4.8-3.3-7-1.2-2.3-2.5-4.5-3.8-6.6l-4.2-6c-2.7-3.7-4.5-7.7-6.2-11.4-1.6-3.7-3-7.3-4-10.4-1.2-3-2-5.8-2.8-8l-2.2-7.3H43l2 7.3c1.3 4.6 3.2 11.2 6.3 18.8 1.6 3.8 3.4 8 6 11.8 1.5 2 3 4 4.2 6 1.3 2 2.5 4.2 3.7 6.4 2.3 4.5 4.3 9.4 6 14.4 2 5 3.4 10.3 4.6 15.6 1 5.3 2.4 10.7 4 16 1.7 5 3.7 10 6.2 14.6 1.2 2.3 2.5 4.5 4 6.5 1 1.3 2 2.5 3.3 3.6-2.4-.6-5.2-1.7-8.3-3.4-4-2.3-8.5-5.7-12.6-10l-6.4-6.6-7-6.5c-4.8-4.3-10-8.3-15-11.3-2.8-1.6-5.5-2.5-7.8-4-2.3-1.4-4.2-3-6-4.8l-4-5-2.5-4.4c-1.2-2.4-1.7-4-1.7-4s-.2-.2-.4 0c0 0-.2 0-.2.2 0 0 .5 1.6 1.8 4 .6 1.3 1.5 2.8 2.5 4.5 1 1.6 2.4 3.4 4 5.2 1.7 1.7 3.7 3.5 6 5 2.4 1.6 5.2 2.5 7.7 4 5 3 10 7 14.7 11.4 2.5 2 4.8 4.2 7 6.5l6.2 6.7c4.2 4.3 8.7 8 13 10.3 4.2 2.5 8 3.8 11 4.3l2.4.4 1.8.4c1.4.2 3-.3 4-1.2 1.3-1 2-1.8 2.6-3 .4-1.2.6-2.3 1-3.2.4-2 1-3.6 2.2-4.6 1.2-1 3-1 4.5-1zM219.6 366.5c.3 0 .5.3.8.5l.7.6 3 2.4 5 5.6h.3v-.2l-2-3.2c-1-1-1.7-2-2.5-3l-1.4-1.4-1.4-1.3-.8-.6-.8-.7-1.5-1c-1.2-.8-2.3-1.5-3.5-2l-1-.5h-1l-.3.3c-.3.3-.4.7-.4.8v.5c0 .5.3.8.4 1l.6 1 2.2 2.5-3-2c-2-1.5-4.2-3-6.2-4.7-.4-.4-1-.8-1.3-1.3l-1-1.4v-.2l-.2-.5v-1l.5-1.8 1.3-3.7 1.5-3.6v-.2h-.2l-2 3.5c-.6 1.2-1 2.5-1.5 3.7l-.5 2V358.7c.4.8 1 1.3 1.3 2 .5.4 1 1 1.5 1.3 2 1.7 4.2 3.2 6.4 4.7s4.5 3 6.8 4.2l3 1.8-2.4-2.7-2.4-2.8-2.3-3c-.2 0-.3-.3-.4-.5 1 .4 2 1 3 1.7l1.6 1zM232.2 354h1l2-.4c1-.2 2-.4 3-.8l1.6-.6 1.6-.8.7-.3c.4 0 .7 0 1-.2l1.5-.3c1-.2 2-.2 3 0 .7 0 1.4.2 2 .4.4 0 .6.2.6.2h.4v-.3s-1.2-.7-3-1c-.8-.3-2-.4-3-.3l-1.7.3-1 .2-.7.4-1.6.6c-.6 0-1 .3-1.6.5l-2.8.6-2 .2h-.8-.7c-.5 0-1.2 0-2-.2l-3-.6-1.5-.5-1.6-.6-.8-.4c-.3 0-.6 0-1-.2l-1.6-.3c-1 0-2.2 0-3 .2-1.8.3-3 1-3 1 0 .2.2.2.3.2l.7-.3c.5-.3 1.2-.4 2-.5 1-.2 2-.2 3 0l1.5.3c.3 0 .5.2.8.3l.7.4 1.6.8 1.6.6c1 .4 2 .6 3 .8l2 .4h1zM159.3 280.5c0 10-4.3 20.2-4.3 20.2s-4.2-12.2-4.2-20.2c0-6.8 4.2-18 4.2-18s4.3 11 4.3 18zM186.8 311.6l-3 3-1 1.3-1.5 1c-.5.5-1 1-1.5 1.3l-1.6 1-1.6 1-1.7 1-2 .8-1.6.8-2 .7-1.7.5-2 .5c-.5.2-1 .4-1.7.5l-3.8.7-4 .5v.2c1.4 0 2.7-.2 4-.3 1.3 0 2.6-.3 4-.5.5 0 1-.2 1.8-.4l2-.3 1.8-.6 1.8-.4 2-.7 1.7-1 1.8-.7 1.8-1 1.6-1 1.6-1.2s.3 0 .4-.2L171 342.3v.4c.2 0 .4 0 .5-.2l13.5-27.3 1.8-3.6zM101 290h-.2l-.6 1.4c-.4.8-1 2-1.6 3.6l-1 2.4-1 2.7c-.5 1-1 2-1.2 3-.4 1-.8 2-1 3l-1 3.2-.8 3-.7 3-.5 2.5-.3 4v1.6c0 .5.5.8 1 .8s1-.5.8-1v-1.5-3.8c0-1 .3-1.7.4-2.6 0-1 .3-2 .5-3 0-1 .3-2 .6-3l.8-3c.2-1 .6-2 1-3 .2-1 .5-2 1-3l.8-2.8 1-2.4 1.4-3.6.6-1.4v-.3zM88 266H88l-.7 1.5c-.2 1-.8 2-1.4 3.6l-2.2 5.3-1 3c-.4 1-.8 2-1 3-1.6 4.2-2.7 8.4-3.4 11.6l-.7 4c0 .4 0 .7-.2 1v.4c0 .7.5 1.3 1.2 1.3.6 0 1.2-.4 1.3-1v-.5-1c0-1 .3-2.3.6-4 .6-3 1.5-7.3 2.7-11.5l1-3 .8-3 2-5.3c.4-1.5 1-2.8 1.3-3.6l.5-1.4c0-.2 0-.4-.2-.4z"/>
      <path class="st3" d="M182.7 192.5c0 .2-.2.3-.2.3v.3c.2.2.3.2.4 0v-.2c.2 0 .3-.3.5-.6.4-.5 1-1.3 1.3-2.4.4-1 .8-2.3 1-3.7 0-.6 0-1.3.2-2v-2.2c.4-3 1-5.7 1.8-7.7l1-2.4.3-.8c.3-.5 0-1-.3-1.2-.4-.2-1 0-1 .4h-.2s0 .4-.3 1l-.8 2.6c-.6 2.2-1.2 5-1.4 8v4.4l-.8 3.6c-.4 1-.8 1.8-1.2 2.3 0 .2-.3.4-.3.5zM177.5 184.8l.3 2.2c.2 1.4.2 2.7 0 3.8 0 1.2-.2 2-.4 2.7 0 .3-.2.5-.3.7v.5h.4v-.3l.4-.8c.3-.6.6-1.5.8-2.7 0-1.3.2-2.6 0-4v-2.3c-.2-.4-.2-.7-.2-1v-1.2-1c0-.5.2-.8.3-1.2 0-.7.3-1.4.5-2l.8-2 .8-1.4c.6-1 1-1.8 1.5-2.3l.5-.6h.2c.3-.5.2-1 0-1.4-.5-.3-1-.2-1.4 0v.2l-.2.2-.4.7c-.4.5-1 1.4-1.5 2.4-.3.7-.6 1.2-.8 2-.3.5-.5 1.2-.7 2l-.5 2c0 .5 0 1-.2 1.3v1.2c0 .8 0 1.6.2 2.3zM171 170c0 .4-.3 1-.4 1.4 0 .6-.3 1-.3 1.7l-.2 1.6v1.5l.2 1.4c0 .8.2 1.5.3 2v.6h.2v-.7-2-1.2-1.3l.3-1.5c0-.5.3-1 .5-1.5 0-.5.4-1 .6-1.4.3-.4.5-1 .8-1.2.2 0 .3-.3.5-.5 0-.2.3-.3.4-.5l1-.8c.5-.5 1-.8 1.4-1 .3 0 .4 0 .5-.2h.2c.4-.2.6-.7.5-1-.2-.5-.7-.7-1-.5h-.3l-.7.4c-.4.2-1 .6-1.6 1.2l-1 1c0 .2-.2.4-.4.6 0 .2-.3.4-.4.6l-1 1.5zM163.4 159h.2v-.5l.3-.5v-.6l.5-.7c0-.3.3-.5.5-.7l.3-.4.4-.2c.2-.3.5-.4.8-.5.3-.2.6-.4 1-.4l.8-.2h2.9l.3.2c.3.2.6 0 .7-.2 0-.3 0-.6-.2-.7h-.2-.5c-.3-.2-.7-.3-1.3-.3-.5 0-1 0-1.8.2-.3 0-.6 0-1 .2-.3 0-.7.3-1 .4l-1 .6-.3.4c-.2 0-.3.3-.4.4-.3.2-.4.5-.6.8 0 .3-.2.5-.3.8l-.2.7v.4l-.2.5zM343 280l-1.2-3-1.3-3.2c-1-2-2-4-3.3-6l-2-2.6c-.6-1-1.2-2-2-2.7-.7-1-1.4-1.7-2.3-2.5l-1.3-1.2-1.3-1.2c-1.8-1.4-3.7-2.8-5.8-3.8-2-1-4.3-2-6.7-2.4-2.4-.5-4.7-.7-7-.6-2.4 0-4.7.6-7 1.2-4.4 1.3-8.5 3.5-12.2 6.2-1 .7-1.7 1.4-2.6 2.2l-2.4 2.3-.6.6-.6.7-1 1.3c-.8.8-1.4 1.8-2 2.7l-2 2.8-1.6 3-1.4 3-1.4 3c-.8 2-1.5 4-2 6.2-.7 2-1.3 4.2-1.6 6.5l-.2 1 1 .2c1.7 0 3.3.7 4.8 1.5s3 1.8 4.4 2.8c2.8 2 5.8 4.3 9 6.2 3 2 6.5 3.5 10.2 4.4 1.8.5 3.7.8 5.6 1h7c.6 0 1-.2 1.5-.3 1 0 1.8-.4 2.7-.6 2-.5 3.7-1.2 5.4-2l5-3c1.5-1.2 3-2.5 4.2-3.8 2.7-2.8 5-5.8 7-9 1-1.4 1.8-3 2.6-4.7 1-1.7 1.6-3.3 2.3-5l.3-.7-.2-.7zm-61 15.8c-1.5-1-3-2-4.8-2.7-1.3-.5-2.8-1-4.3-1.2.3-1.7 1-3.4 1.5-5l2.4-6c.8-1.8 1.8-3.7 3-5.5.4-1 1-1.8 1.5-2.7.6-1 1.3-1.7 2-2.5v.2c-.6 1.2-1 2.5-1.5 4 0 .6-.3 1.3-.4 2 0 .4 0 .7-.2 1v1.2c-.3 1.5-.4 3-.4 4.5 0 3 .6 6 1.5 8.7 1 2.6 2 5 3.4 6.7l-4-2.6zm52.7-13.2c0 1 0 2-.2 3 0 1-.3 1.8-.4 2.7 0 .4 0 .8-.2 1.2l-.3 1.2c0 .3 0 .5-.2.8-1.5 2-3 4-4.8 5.6-1.3 1.4-2.5 2.5-4 3.5-1.2 1-2.7 2-4.2 2.7s-3 1.4-4.6 2c-.8 0-1.6.3-2.4.5H312l-1.3.3h-5c-1.7 0-3.4-.3-5-.7-3.4-.8-6.6-2-9.6-3.8l-1.6-1c-.7-.7-1.4-1.6-2-2.7-1.3-1.8-2.4-4-3.2-6.6s-1-5.4-1-8.3c-.2-1.5 0-3 0-4.3l.2-1 .2-1 .5-2c.8-2.6 1.8-5 2.6-7l1.4-2.8 1.8-1.7 2.4-2c3.4-2.3 7-4.2 11-5.2s8-1 11.8-.2c2 .4 3.8 1 5.6 2 1.8 1 3.4 2 5 3.3l1.2 1 1 1c1 .7 1.5 1.5 2.2 2.3l2 2.3.4 1c.3.6.5 1.4.7 2.2l.8 2.7.6 3v1.5l.3 1.5v3zm3 2l-2.3 3.8.5-2.7.2-3v-3.3-1.6l-.2-1.6c0-1-.3-2-.5-3v-.6.2l1.6 2.7c.6 1 1 2 1.6 2.8l1 2.3c-.5 1.3-1.2 2.7-2 4z"/>
      <path class="st3" d="M266 273.4c.3 0 .6 0 .7-.4l1-4c0-.6.3-1.2.4-2l1-2.4.7-2.7 1.2-3c0-.5.3-1 .5-1.5l.7-1.6 1.6-3.3 1-1.6 1-1.5 1-1.6c.5-.6 1-1 1.3-1.7l1.4-1.6 1.4-1.4 1.5-1.5c.5-.4 1-1 1.6-1.3 1-1 2-1.7 3.3-2.5l1-.6 1-.5 1.8-1 2-1 2-.7 2-.6 1-.3 1-.2 2.2-.4 2-.3c1.5-.2 3 0 4.2-.2h2l2 .3c1.3.2 2.6.3 3.8.6 2.4.6 4.7 1.4 6.7 2.2 4 1.7 7 3.7 9 5.2l3.2 2.6-.7-.8c-.5-.5-1.2-1.3-2.2-2-1-1-2.2-2-3.7-3s-3.3-2-5.3-3-4.3-1.8-6.8-2.4l-4-.7-2-.2h-2c-1.4 0-3-.2-4.3 0-.7 0-1.5 0-2.2.2l-2.2.3-1 .2-1.2.2c-.7 0-1.4.3-2 .5l-2.3.7c-.7.3-1.4.4-2 .8l-2.2 1-1 .5-1 .6c0 .2-.4.4-.6.5l1.6-1.8 1.2-1.3 1.4-1.3c1-1 2-2 2.5-3.3.2-.4.4-.7.4-1 .2-.5.2-1 .2-1.3 0-.7 0-1.5-.4-2.2-.5-1.4-1.4-2.4-2.3-3.3l-2.4-2.7-1.8-2.4c-1-1.7-2-3-2.5-4l-1-1.6c0-.2-.3-.3-.6-.2-.2 0-.3.4-.2.7l.8 1.5 2.3 4c.5 1 1 2 1.8 2.8l2.2 2.7c.8 1 1.5 1.8 2 3 .2 1 0 2-.3 3-.5 1-1.3 1.8-2 2.6-.5.4-1 1-1.5 1.3-.5.3-1 .8-1.3 1.3-1.7 1.8-3.2 3.5-4.3 5-1 1.3-1.6 2.4-2.2 3.3l-1.5 1.5-1.3 1.7-1.4 1.7-1 1.7-1.2 2-1 1.6-1.5 3.4c-.5 1-.8 2.2-1.2 3.3l-1 3-.7 3c0 .8-.3 1.6-.4 2.3 0 .8-.2 1.5-.3 2.2l-.6 4c0 .3 0 .5.4.6zM311.3 386c-1-6.4-3.3-12.4-5.3-16.8s-3.6-7-3.6-7c0-.2-.2-.3-.3-.2v.4s1.4 2.8 3 7.2c1.7 4.4 3.5 10.5 4 16.7.3 1.6.4 3 .4 4.6v2.2c0 .7 0 1.4-.2 2-.3 3-1 5.6-1.7 7.7l-.6 1.3-.8 1.3-1 2c-1 1-1.3 1.7-1.3 1.7h-.2v.2c-.7 1-.4 2 .5 2.6 1 .7 2 .4 2.7-.5l1.2-2 1.2-2.3.7-1.5.6-1.8c.8-2.5 1.3-5.4 1.4-8.5v-2.3-2.4l-.7-4.8zM265.4 220.2c.6-2 1-3.7 1-5 .3-1 .3-1.8.3-1.8v-.3c-.2 0-.4.2-.4.3 0 0 0 .7-.4 2l-1.4 4.7-1.2 3c-.5 1-1 2.2-1.7 3.3l-2.5 3-2.7 3.2c-2 2-3.8 4-5.4 6.2-.7 1-1.4 2.2-1.8 3.4-.5 1.2-.8 2.3-1 3.3-.7 2-1 3.8-1 5l-.2 2s0 .2.2.2c0 0 .2 0 .3-.2 0 0 0-.7.3-2 .2-1 .6-2.8 1.2-4.7l1.2-3c.4-1.2 1-2.2 1.8-3.2 1.6-2 3.5-4 5.4-6 1-1 2-2.2 2.7-3.2 1-1 2-2.2 2.6-3.3 1.4-2.4 2.2-4.8 2.8-6.8zM201.6 227l2.5 3.2 2.8 3c2 2.2 4 4.2 5.4 6.2.8 1 1.4 2 2 3l1 3.2 1.2 4.8.4 2h.2c.2 0 .3 0 .3-.2l-.2-2c0-1-.3-2.8-1-5 0-1-.5-2-1-3-.4-1.3-1-2.5-2-3.5-1.5-2-3.4-4.2-5.2-6.2l-2.8-3c-1-1-1.7-2-2.4-3.2-.7-1-1.3-2.2-1.7-3.2-.6-1-1-2-1.3-3-.7-2-1-3.7-1.4-4.8l-.4-2h-.3s-.2 0-.2.2l.2 2 1 4.8c.7 2 1.5 4.4 3 6.7zM300.8 179.3c.6 1.3 1.5 2.4 2.4 3.3l2.6 2.3c1.6 1.4 3 3 3.7 4.5l1 2.3.7 1 .6 1c1 1 1.8 1.5 2.4 2l1 .5h.3v-.4l-1-.7c-.5-.5-1.2-1-2-2.2-.2 0-.4-.4-.5-.7l-.5-1c-.2-.7-.5-1.5-1-2.4-.7-1.8-2-3.6-3.6-5.2-.8-1-1.8-1.7-2.6-2.5-.8-.7-1.5-1.7-2-2.7-.3-1-.4-2.2 0-3.4 0-.5.2-1 .5-1.5 0-.3.7-.8 1.2-1.3 1-1 2.2-2 3-3.5l1-2.3v-2.3c.2-1.3.7-2.7 1.3-4l2-4c1.5-2.5 3-5 4.4-7.7 1.3-2.6 2.8-5 4-7.6l7.5-13.3 5.2-9.5 2-3.6v-.2h-.3l-2 3.5c-1.5 2.2-3.4 5.4-5.7 9.2l-7.8 13.3-4.5 7.4-4.4 7.6-2 4c-.7 1.5-1.3 3-1.5 4.6v1.1c0 .3 0 .6-.2 1 0 .6-.4 1.2-.7 1.7-.7 1-1.6 2-2.6 3l-.8.7h-.2v.2h-.2l-.4.6c-.5.7-.8 1.5-1 2.2-.3 1.5 0 3 .4 4.5zM347.8 282.3l-.3 1.3-.8 2.7-1 2.6-1.3 2.4-1.2 2.3-1.2 2-2.7 4s1.5-1.4 3-3.8c.6-.6 1-1.3 1.5-2 .4-.7 1-1.4 1.3-2.2.6-.8 1-1.7 1.4-2.5l1.2-2.7 1-2.8c0-.4 0-1 .2-1.4l.2-1.3c.2-1 .2-1.8 0-2.7 0-.8-.3-1.6-.6-2.3-.4-1.4-1-2.5-1.4-3.2l-.8-1v-.2c-.2 0-.2 0-.2.2l.5 1.2 1.2 3.3c0 .6.3 1.4.4 2.2.2.8.2 1.6 0 2.4 0 .4 0 .8-.2 1.3zM354 279.5l-.6-2.3h-.2-.2l.4 2.4c.2 1.4.4 3.5.4 6 0 2.6-.2 5.5-.7 8.6-.2 1.5-.5 3-1 4.7-.5 1.4-1 3-1.8 4.5-.7 1.5-1.4 3-2.3 4.4-.6.6-1 1.3-1.5 2-.3.2-.5.6-.7 1l-.8.8-.8 1c-.2 0-.5.4-.7.7l-.8.8-.8.7c-1 1-2.2 2-3.2 2.6l-2.8 2-2.3 1.3-2 1v.2l2.2-1 2.2-1.2c1-.5 2-1.2 3-2l3.2-2.4.8-.8.8-.8 1.6-1.7.8-1 .7-1c.7-.5 1-1.2 1.6-2 1-1.3 1.7-3 2.4-4.4.7-1.7 1.4-3.2 1.8-5 .5-1.5 1-3 1-4.7.4-1.5.6-3 .7-4.5v-4.2c0-2.5-.4-4.6-.6-6zM395.7 274l-.3-2-.4-2-1-4-4-15c-.5-2-.8-4-.8-5v-2c-.2-.2-.2 0-.3 0 0 0-.3.7-.3 2 0 1.2.2 3 .6 5 .7 4.2 2 9.8 3 15.3l.6 4c0 .8 0 1.5.2 2 0 .8 0 1.5.2 2 .2 2.6.2 5 0 7 0 2.2-.2 4-.3 5 0 1.3-.2 2-.2 2 0 1 .6 1.8 1.5 2 1 0 1.7-.7 1.8-1.6l.2-2v-5.2c0-2.2 0-4.7-.5-7.4zM442.8 170.5h-.4s-.5 1.6-1.7 4c-.7 1.3-1.5 2.8-2.6 4.4-1 1.5-2.3 3.2-4 5-1.6 1.6-3.5 3.3-5.8 4.7-2.3 1.5-5 2.4-7.7 4-5.2 3-10.3 7-15 11.2-2.5 2-4.8 4.2-7 6.4-2.3 2.2-4.4 4.5-6.5 6.7-4 4.3-8.5 7.7-12.6 10-3 1.6-6 2.7-8.3 3.3 1.3-1 2.4-2.3 3.3-3.6 1.6-2 3-4.2 4-6.5 2.6-4.6 4.6-9.6 6.2-14.7 1.7-5.2 3-10.6 4-16 1.3-5.2 2.8-10.4 4.6-15.5 2-5 4-10 6.2-14.4l3.7-6.5c1.2-2 2.6-3.8 4-5.8 2.7-4 4.5-8 6-11.8 3.2-7.6 5-14.2 6.4-18.8l2-7.3h-.2l-2.3 7.2-2.8 8c-1 3.2-2.5 6.7-4 10.5-1.8 3.7-3.6 7.7-6.3 11.5-1.4 1.8-3 3.8-4.3 6-1.3 2-2.6 4.2-3.8 6.5-1.3 2.2-2.3 4.6-3.4 7-1 2.5-2 5-2.7 7.6-1.8 5.2-3 10.5-4.4 15.8-.6 2.7-1.2 5.3-2 8-.7 2.5-1.5 5-2.5 7.5-1.8 5-4 9.7-6.7 14-1.3 2-2.7 4.2-4.2 6-1.3 1.8-3 3.5-4.7 4.6-1 .6-1.8 1-2.6 1s-1.5 0-2-.5c-.7-.4-1.4-1-1.7-1.8-.4-.8-.7-1.8-1-2.8l-1.5-3c-.6-1-1.3-1.7-2.3-2.3-1-.5-2-.7-3-.8h-2.7l-2.4.6c-.3 0-.6.2-1 .4l-1 .2c-1.4.3-2.6.2-3.8 0-2.2-.6-3.8-1.7-4.7-2.6l-1-1-.3-.3c-.2 0-.3-.2-.4 0 0 0-.2.2 0 .3 0 0 0 .2.3.4l1.2 1c1 1 2.5 2 5 2.8 1 .4 2.4.6 4 .4l1-.3h1.2c.7-.3 1.5-.4 2.3-.4 1.5 0 3.3 0 4.5 1 1.2 1 1.8 2.6 2.3 4.6.3 1 .5 2 1 3 .5 1.4 1.3 2.3 2.4 3.2 1 1 2.6 1.4 4 1.2.7 0 1.3-.2 1.8-.4.7 0 1.5-.2 2.4-.4 3-.5 6.8-1.8 11-4.3 4.3-2.4 8.8-6 13-10.3 2-2.2 4-4.5 6.3-6.8 2.2-2.2 4.4-4.4 6.8-6.5 4.7-4.4 9.6-8.4 14.7-11.4 2.5-1.6 5.3-2.5 7.7-4 2.3-1.6 4.3-3.4 6-5 1.6-2 3-3.7 4-5.3 1-1.7 2-3.2 2.5-4.4 1.3-2.6 1.8-4.2 1.8-4.2s0-.3-.2-.3zM280.3 423.6h-.5l-1.6-.5c-1.3-.2-3.3-1-5.5-2-1-.5-2.3-1-3.5-1.8l-3.8-2.3-4-3-2-1.2c-.6-.4-1.3-1-2-1.3l-2.2-1.2c-.7-.4-1.5-.8-2.2-1-1.5-.8-3-1.5-4.4-2l-2-1c-.8 0-1.5-.3-2.2-.5-1.4-.4-2.7-.8-4-1-1-.3-2.3-.5-3.3-.6l-2.5-.3c-.7-.2-1.3-.2-1.7-.2h-.7-2.1c-.8 0-1.7.2-2.7.4-1 0-2.2.3-3.4.6-1.3.2-2.6.6-4 1l-2 .6-2.2.8-4.4 2-2.2 1-2 1.3c-1 .4-1.6 1-2.3 1.3l-2 1.3-4 3-3.8 2.2-3.5 1.8c-2.2 1-4 1.8-5.5 2l-1.6.5h-.5c-.4 0-.6.5-.6 1s.5.7 1 .6h.6l1.6-.7 2.4-1 3-1.6 3.5-2 3.8-2.4 4-2.7 2-1.3 2-1.2 2.2-1c.8-.5 1.5-1 2.2-1.2l2.2-1 2-.8 2.2-.7 2-.6 4-1 3.2-.3 2.6-.2h4.4c.7 0 1.6 0 2.6.2 1 0 2 .2 3.3.4 1.2.2 2.5.5 3.8 1 .8 0 1.5.3 2.2.5l2 .7c1 .3 1.6.6 2.3 1 .7 0 1.5.5 2.2.8l2.2 1c.6.5 1.3 1 2 1.3l2 1.3 2.2 1.3c1.3 1 2.6 2 4 2.7 1.2 1 2.5 1.7 3.7 2.4 1 .8 2.3 1.4 3.4 2l3 1.6 2.4 1 1.6.6h.7c.5.2 1 0 1-.5s-.2-1-.7-1zM261 358.2v-.7-1l-.7-2c-.4-1.3-1-2.6-1.5-3.8l-2-3.4h-.2l1.5 3.7c.6 1.3 1 2.5 1.4 3.7l.4 2V358l-1 1.4-1.4 1.4c-2 1.8-4 3.3-6.3 4.8-.8.7-1.8 1.3-2.8 2l2.2-2.6.6-.8c0-.3.3-.6.5-1v-.6c0-.2 0-.5-.4-.7l-.2-.2h-.8c-.4 0-.7.2-1 .4-1.3.6-2.4 1.3-3.5 2l-1.5 1-.8.7-.8.5-1.4 1.3-1.4 1.4-2.4 3c-.8 1-1.5 2-2.2 3.2v.3h.4c1.6-2 3.3-4 5-5.7 1-1 2-1.7 3-2.4l.6-.6.8-.5 1.6-1c1-.7 2-1.4 3-1.8 0 .2 0 .4-.3.6-.6 1-1.4 2-2.2 3l-2.5 2.8-2.4 2.7 3-1.8 6.7-4.3c2.2-1.5 4.4-3 6.4-4.8l1.6-1.5c.4-.6 1-1 1.2-2v-.2zM308 326.4h.2v-.2c-1.4 0-2.7-.3-4-.5l-3.8-.7c-.6 0-1.2-.3-1.8-.5-.7 0-1.3-.3-2-.5l-1.7-.5-2-.7-1.7-.7c-.6 0-1.2-.5-1.8-.7l-1.7-1-1.6-1-1.6-1-1.5-1.2-1.3-1-1.2-1.5-3-3 2 3.7 13.4 27.3c0 .2.2.2.3.2.2 0 .2-.3.2-.4L282 317.8l.4.3c.5.5 1 1 1.6 1.2l1.6 1 1.7 1 1.8 1 2 .7 1.8.6 1.8.5c.7.4 1.3.5 2 .7.5 0 1.2.3 1.8.4.7.3 1.3.4 2 .5l3.8.6c1.3.2 2.6.4 4 .4zM372.5 315l-.7-2.8-.8-3c-.2-1-.6-2-1-3-.2-1-.6-2.2-1-3.2l-1-3-1.2-2.6c-.3-1-.7-1.7-1-2.4l-1.6-3.6-.6-1.4h-.3v.2s0 .5.5 1.4c.3.8 1 2 1.5 3.6l1 2.4c.2 1 .5 1.8 1 2.8l.8 3c.4 1 .8 2 1 3l.8 3 .7 3 .5 3c0 1 .3 1.7.3 2.5.2 1.5.2 2.8.2 3.7V323.3c-.2.5.2 1 .7 1 .5 0 1-.3 1-.8v-.5-1.2c0-1 0-2.4-.3-4l-.5-2.7zM387 298c0-1-.3-2.5-.6-4-.7-3.3-1.8-7.6-3.3-11.7-.2-1-.6-2-1-3l-1-3-2.2-5.2-1.5-3.5-.6-1.4h-.4c-.2 0-.3.2-.2.4l.6 1.4c.4.8 1 2 1.4 3.6l2 5.3.8 3 1 3c1 4.2 2 8.4 2.5 11.6.3 1.6.5 3 .5 3.8v1.6c.2.7.8 1.2 1.4 1 .7 0 1.2-.5 1-1.2v-.4-1zM275.7 171.6l1 2.5c.6 2 1.3 5 1.6 7.8v2l.3 2.3c.2 1.5.6 2.8 1 3.8s1 2 1.3 2.4c0 .3.2.5.3.6 0 .2.2.3.2.3 0 .2.2.2.3 0 .2 0 .2 0 0-.2v-.3l-.4-.6c-.4-.6-.8-1.4-1-2.4-.5-1-.8-2.3-1-3.6v-2-2.3c0-3-.8-6-1.4-8l-.8-2.7-.3-1c-.4-.4-1-.6-1.3-.4-.4.2-.6.7-.4 1 0 0 0 .5.4 1zM281.4 172h.2c0 .2.3.4.5.7.5.5 1 1.2 1.6 2.2l.8 1.4.8 2 .5 2 .2 1v3.2l-.3 2.3v4c.3 1 .6 2 1 2.6 0 .4 0 .6.2.8v.2s.2.2.3 0v-.2-.2l-.3-.7c-.2-.6-.4-1.5-.5-2.7V187c0-.7.2-1.4.4-2.2v-2.3-1.2-1.2l-.6-2c-.2-.8-.4-1.5-.7-2-.2-.8-.5-1.4-.8-2l-1.6-2.3-.4-.7-.2-.2c-.4-.4-1-.5-1.3-.2s-.4 1 0 1.3zM287.7 166h.2l.3.2c.4.2 1 .5 1.5 1l1 .8c0 .2.2.3.3.5l.6.6.7 1.3.6 1.4c0 .5.3 1 .4 1.5l.2 1.5c0 .5 0 1 .2 1.4v3.4l-.2.6h.2v-.7c.2-.4.4-1 .4-2v-1.2-1.4-1.5c0-.5-.3-1-.4-1.6 0-.5-.4-1-.5-1.5l-.8-1.6c0-.2-.3-.4-.4-.6 0-.2-.2-.4-.4-.6-.2-.4-.6-.7-1-1-.5-.6-1-1-1.5-1.3l-.5-.4h-.2c-.4-.3-1 0-1 .3-.2.3 0 .8.4 1zM292.8 154.6h.4c.3-.2.7-.2 1.2-.3h1.7c.4 0 .7.2 1 .3l1 .3c.2 0 .5 0 .7.4l.4.2.4.4.5.7.3.7.2.6c0 .2 0 .3.2.5v.4h.3s.2 0 0 0v-.6-.5c0-.3-.2-.6-.3-.8 0-.3-.2-.5-.3-.8-.2-.3-.3-.6-.6-.8l-.3-.4-.4-.3c-.2-.4-.5-.6-.8-.8-.3 0-.7-.3-1-.4l-1-.2-1.8-.2c-.6 0-1 0-1.3.2h-.4-.2c-.2.2-.3.5-.2.8 0 .2.4.4.6.2z"/>
    </g>
    <path id="right_pupil" class="st4" d="M313 280.5c0 10-4 20.2-4 20.2s-4.4-12.2-4.4-20.2c0-6.8 4.3-18 4.3-18s4 11 4 18z"/>
  </g>
</svg>
