<svg id="layer_1" xmlns="http://www.w3.org/2000/svg" viewBox="-276 278.5 345.5 345.5"><style>.st0{fill:#FFFFFF;}</style><g id="sigil"><path class="st0" d="M18.9 329.1c-32.6-32.6-76-50.6-122.2-50.6-46.1 0-89.5 18-122.2 50.6s-50.6 76-50.6 122.2c0 46.1 18 89.5 50.6 122.2s76 50.6 122.2 50.6c46.1 0 89.5-18 122.2-50.6s50.6-76 50.6-122.2-18-89.6-50.6-122.2zM-103.2 622c-94.3 0-170.8-76.4-170.8-170.8s76.4-170.8 170.8-170.8S67.5 356.9 67.5 451.2-8.9 622-103.2 622z"/><path class="st0" d="M33.8 434.4v-4h-27v20H-20c.5-8.8 8-15.8 16.7-15.8v-4c-10.7 0-20.2 8.8-20.8 19.8h-3.2v-9h-4v9h-3.1c-.7-10.9-9.4-19.6-20.9-19.6v4c8.5 0 16.2 6.9 16.9 15.6h-36c-.2-7-2.9-13.3-7.2-18.2l39.9-39.9c5 6.7 4.5 16.1-1.6 22.2l2.8 2.8c7.6-7.6 8.1-19.6 1.6-27.9l1.4-1.4 5.4 5.4 2.8-2.8-5.4-5.4 1.1-1.1c3 2.2 6.5 3.2 10.1 3.2 4.4 0 8.9-1.7 12.2-5.1l-2.8-2.8c-4.5 4.5-11.5 5.1-16.6 1.8l12.2-12.2 13.3 13.3 11.6-11.6-2.8-2.8-8.8 8.8-10.4-10.4 8.6-8.6-2.8-2.8-8.6 8.6-10.4-10.5 8.8-8.8-2.8-2.8-11.6 11.6 13.3 13.3-12.4 12.4c-2-2.4-3.1-5.4-3.1-8.5 0-3.6 1.4-6.9 3.9-9.4l-2.8-2.8c-3.3 3.3-5.1 7.6-5.1 12.2 0 4.2 1.5 8.2 4.3 11.3l-1 1-5.9-5.9-2.8 2.8 5.9 5.9-1.4 1.4c-8.2-7.1-20.7-6.8-28.5 1.1l2.8 2.8c6.3-6.3 16.2-6.6 22.9-1.1l-39.9 39.9c-4.9-4.2-11.1-6.8-18-7.1v-53.9h9v-4h-9v-4h9v-4h-9v-4h9v-4h-9v-7h20v-28h-4v24h-16v-23h-4v23h-14v-24h-4v28h18v7h-7v4h7v4h-7v4h7v4h-7v4h7v54c-6.5.7-12.4 3.5-16.9 7.8l-43.2-43.2c3-2.5 6.8-3.8 10.8-3.8 4.5 0 8.8 1.8 12 5l2.8-2.8c-4-4-9.2-6.1-14.8-6.1-5 0-9.8 1.8-13.6 5l-4.5-4.5 13.3-13.3-28.3-28.3-2.8 2.8 25.5 25.5-10.5 10.5-6-6 5.9-5.9-2.8-2.8-5.9 5.9-4.3-4.3c1-1.5 1.5-3.3 1.5-5.3 0-5.5-4.5-9.9-9.9-9.9s-9.9 4.5-9.9 9.9c0 5.5 4.5 9.9 9.9 9.9 2.1 0 4-.7 5.6-1.8l4.3 4.3-5.5 5.5 2.8 2.8 5.5-5.5 6 6-10.4 10.4-25.5-25.5-2.8 2.8 28.3 28.3 13.2-13.2 4.5 4.5c-6.6 8.2-6.1 20.3 1.5 28l2.8-2.8c-6.1-6.1-6.6-15.6-1.5-22.3l43.2 43.2c-3.8 4.8-6.1 10.7-6.3 17.2h-81v-36h-27v4h23v13h-23v4h23v15h-23v4h23v15h-23v4h23v11h-23v4h27v-34h81.2c.7 6 3.2 11.5 6.9 15.8l-43.8 43.8c-2.4-3-3.8-6.7-3.8-10.7 0-4.5 1.8-8.8 5-12l-2.8-2.8c-4 4-6.2 9.2-6.2 14.8 0 5 1.7 9.7 4.9 13.5l-1.8 1.8-13.3-13.3-28.3 28.3 2.8 2.8 25.5-25.5 10.5 10.5-8.3 8.3-5.7-5.7-2.8 2.8 5.7 5.7-2.9 2.9-5.7-5.7-2.8 2.8 5.7 5.7-8.6 8.6 2.8 2.8 8.6-8.6 5.7 5.7 2.8-2.8-5.7-5.7 2.9-2.9 5.7 5.7 2.8-2.8-5.7-5.7 8.3-8.3 10.4 10.4-25.5 25.5 2.8 2.8 28.3-28.3-13.2-13.2 1.9-1.9c3.7 3 8.3 4.7 13.2 4.7 5.6 0 10.9-2.2 14.8-6.2l-2.8-2.8c-3.2 3.2-7.5 5-12 5-3.8 0-7.4-1.3-10.4-3.5l43.7-43.7c4.4 3.8 10 6.4 16.1 7v81.3h-30v16h-4v4h4v7h-4v4h11v-4h-3v-7h3v-4h-3v-12h4v2h4v-2h18v6h-15v13h4v-9h11v13h-1v4h8v-4h-3v-13h13v9h4v-13h-17v-6h18v2h4v-2h7v12h-4v4h4v7h-4v4h11v-4h-3v-7h3v-4h-3v-16h-33v-81.2c6.4-.2 12.4-2.6 17.1-6.3l38 38-5.7 5.7 2.8 2.8 5.7-5.7 2.9 2.9-5.7 5.7 2.8 2.8 5.7-5.7 2.5 2.5-5.7 5.7 2.8 2.8 5.7-5.7 5 5-13.2 13.2 19.4 19.4 2.8-2.8-16.6-16.6 10.4-10.4 6.4 6.4c-1 .5-2.1.8-3.3.8v4c6 0 11.4-5.5 11.4-11.5h-4c0 1.4-.5 2.8-1.2 4l-6.5-6.5 10.5-10.5L4.6 537l2.8-2.8-19.4-19.5-13.3 13.3-5-5 5.7-5.7-2.8-2.8-5.7 5.7-2.5-2.5 5.7-5.7-2.8-2.8-5.7 5.7-2.9-2.9 5.7-5.7-2.8-2.8-5.7 5.7-37.9-37.9c4.2-4.5 7.1-10.3 7.8-16.8h36c-1.3 8.1-8.6 14.4-16.8 14.4v4c11.1 0 19.6-8 20.8-18.4h3.2v7h4v-7h3.5c1.6 10 10.5 17.7 20.5 17.7v-4c-8 0-15-5.9-16.5-13.7H6.8v18h27v-4h-23v-14h23v-4h-23v-16l23-.1zm-225.9-75.9c0 .8-.2 1.6-.5 2.4l-7.8-7.8c.7-.3 1.5-.5 2.4-.5 3.3 0 5.9 2.6 5.9 5.9zm-5.9 5.9c-3.3 0-5.9-2.7-5.9-5.9 0-1 .2-1.9.7-2.7l8 8c-.9.4-1.8.6-2.8.6zm94.8 111.8c-13.8 0-25-11.2-25-25s11.2-25 25-25 25 11.2 25 25c-.1 13.8-11.3 25-25 25z"/><circle class="st0" cx="-61.1" cy="394.9" r="1.6"/><circle class="st0" cx="-48.1" cy="409" r="1.6"/></g></svg>