<?xml version="1.0" encoding="utf-8"?>
<!-- Generator: Adobe Illustrator 19.1.0, SVG Export Plug-In . SVG Version: 6.00 Build 0)  -->
<svg version="1.1" xmlns="http://www.w3.org/2000/svg" xmlns:xlink="http://www.w3.org/1999/xlink" x="0px" y="0px"
	 viewBox="0 0 349.511 349.511" style="enable-background:new 0 0 349.511 349.511;" xml:space="preserve">
<style type="text/css">
	.st0{display:none;}
	.st1{display:inline;opacity:0.28;fill:#3A0C01;}
	.st2{fill:#FFFFFF;}
	.st3{fill:none;stroke:#FFFFFF;stroke-width:4;stroke-miterlimit:10;}
</style>
<g id="photo">
	<defs>
		<rect id="SVGID_1_" x="656.755" y="-69.082" width="900" height="900"/>
	</defs>
	<clipPath id="SVGID_2_">
		<use xlink:href="#SVGID_1_"  style="overflow:visible;"/>
	</clipPath>
</g>
<g id="overlay" class="st0">
</g>
<g id="sigil">
	<g>
		<path class="st2" d="M335.776,106.732c-8.802-20.81-21.402-39.499-37.45-55.547c-16.048-16.048-34.737-28.648-55.547-37.45
			C221.232,4.621,198.345,0,174.755,0c-23.59,0-46.477,4.621-68.024,13.735c-20.81,8.802-39.499,21.402-55.547,37.45
			c-16.048,16.048-28.648,34.737-37.45,55.547C4.621,128.279,0,151.165,0,174.755c0,23.59,4.621,46.477,13.735,68.024
			c8.802,20.81,21.402,39.499,37.45,55.547c16.048,16.048,34.737,28.648,55.547,37.45c21.547,9.114,44.434,13.735,68.024,13.735
			c23.59,0,46.477-4.621,68.024-13.735c20.81-8.802,39.499-21.402,55.547-37.45c16.048-16.048,28.648-34.737,37.45-55.547
			c9.114-21.547,13.735-44.434,13.735-68.024C349.511,151.165,344.89,128.279,335.776,106.732z M174.755,345.511
			C80.45,345.511,4,269.061,4,174.755S80.45,4,174.755,4s170.755,76.45,170.755,170.755S269.061,345.511,174.755,345.511z"/>
		<path class="st2" d="M311.755,158.918v-4h-27v19h-26.652c0.996-8.34,8.291-14.838,16.652-14.838v-4
			c-10.372,0-19.653,8.288-20.679,18.838h-3.321v-8h-4v8h-3.143c-1.147-10.451-9.7-18.599-20.857-18.599v4
			c8.216,0,15.577,6.361,16.801,14.599h-35.829c-0.199-6.971-2.868-13.33-7.164-18.236l39.856-39.856
			c4.975,6.653,4.46,16.141-1.582,22.183l2.828,2.828c7.605-7.605,8.135-19.634,1.612-27.869l1.415-1.415l5.443,5.443l2.828-2.828
			l-5.443-5.443l1.09-1.09c2.919,2.102,6.403,3.253,10.071,3.253c4.62,0,8.964-1.799,12.23-5.066l-2.828-2.828
			c-2.512,2.511-5.851,3.895-9.402,3.895c-2.595,0-5.073-0.746-7.201-2.123l12.182-12.182l13.268,13.268l11.646-11.647l-2.828-2.828
			l-8.818,8.818l-10.44-10.44l8.628-8.628l-2.828-2.828l-8.628,8.628l-10.439-10.44l8.817-8.818l-2.828-2.828l-11.646,11.646
			l13.268,13.268l-12.356,12.356c-2-2.387-3.094-5.368-3.094-8.52c0-3.552,1.383-6.891,3.895-9.403l-2.828-2.828
			c-3.267,3.267-5.066,7.611-5.066,12.231c0,4.22,1.516,8.2,4.266,11.348l-0.958,0.958l-5.931-5.931l-2.828,2.828l5.931,5.931
			l-1.363,1.363c-8.241-7.099-20.72-6.761-28.532,1.052l2.828,2.828c6.254-6.253,16.204-6.6,22.876-1.052l-39.944,39.944
			c-4.854-4.212-11.113-6.838-17.972-7.072V91.918h8v-4h-8v-4h8v-4h-8v-4h8v-4h-8v-7h19v-28h-4v24h-15v-23h-4v23h-15v-24h-4v28h19v7
			h-8v4h8v4h-8v4h8v4h-8v4h8v54c-6.526,0.674-12.411,3.526-16.928,7.809l-43.164-43.164c6.67-5.452,16.549-5.071,22.769,1.149
			l2.828-2.828c-7.779-7.779-20.183-8.152-28.425-1.149l-4.457-4.457l13.296-13.296L89.371,61.679l-2.828,2.828l25.474,25.474
			l-10.467,10.468l-6.002-6.002l5.852-5.852l-2.828-2.828l-5.852,5.852l-4.321-4.321c0.972-1.535,1.543-3.348,1.543-5.296
			c0-5.48-4.458-9.939-9.938-9.939c-5.48,0-9.939,4.458-9.939,9.939c0,5.48,4.458,9.938,9.939,9.938
			c2.088,0,4.025-0.651,5.627-1.755l4.261,4.261l-5.522,5.522l2.828,2.828l5.522-5.522l6.002,6.002L88.31,113.689L62.835,88.215
			l-2.828,2.828l28.302,28.303l13.24-13.24l4.488,4.488c-6.619,8.238-6.115,20.346,1.526,27.986l2.828-2.828
			c-6.078-6.078-6.565-15.643-1.496-22.301l43.221,43.221c-3.808,4.758-6.147,10.735-6.333,17.245H64.755v-35h-27v4h23v12h-23v4h23
			v15h-23v4h23v15h-23v4h23v12h-23v4h27v-35h81.183c0.655,6.011,3.157,11.471,6.922,15.81l-43.762,43.762
			c-2.441-3.014-3.771-6.739-3.771-10.672c0-4.541,1.768-8.809,4.979-12.02l-2.828-2.828c-3.966,3.966-6.151,9.239-6.151,14.848
			c0,5.002,1.747,9.729,4.935,13.508l-1.849,1.849l-13.299-13.299l-28.302,28.302l2.828,2.828l25.474-25.473l10.471,10.471
			l-8.271,8.271l-5.66-5.66l-2.828,2.828l5.66,5.66l-2.929,2.929l-5.66-5.66l-2.828,2.828l5.66,5.66l-8.617,8.617l2.828,2.828
			l8.617-8.617l5.714,5.714l2.828-2.828l-5.714-5.714l2.929-2.929l5.714,5.714l2.828-2.828l-5.714-5.714l8.271-8.271l10.409,10.408
			l-25.474,25.474l2.828,2.828l28.303-28.302l-13.237-13.237l1.868-1.868c3.838,3.114,8.526,4.673,13.216,4.673
			c5.377,0,10.755-2.047,14.849-6.141l-2.828-2.828c-6.102,6.101-15.719,6.571-22.379,1.438l43.714-43.714
			c4.394,3.848,9.952,6.398,16.074,7.03v81.324h-31v16h-4v4h4v7h-4v4h11v-4h-3v-7h3v-4h-3v-12h5v2h4v-2h18v6h-16v13h4v-9h12v13h-2v4
			h8v-4h-2v-13h12v9h4v-13h-16v-6h18v2h4v-2h5v12h-3v4h3v7h-3v4h11v-4h-4v-7h4v-4h-4v-16h-31v-81.195
			c6.447-0.22,12.364-2.552,17.083-6.329l38.023,38.023l-5.687,5.687l2.828,2.828l5.687-5.687l2.93,2.93l-5.687,5.687l2.828,2.828
			l5.687-5.687l2.545,2.545l-5.687,5.687l2.828,2.828l5.687-5.687l5.008,5.008l-13.189,13.189L256.066,287l2.828-2.828
			l-16.597-16.597l10.361-10.361l6.357,6.357c-0.994,0.509-2.102,0.807-3.26,0.807v4c6,0,11.438-5.46,11.438-11.46h-4
			c0,1.439-0.45,2.805-1.206,3.968l-6.501-6.501l10.519-10.519l16.597,16.597l2.828-2.828l-19.425-19.426l-13.347,13.347
			l-5.008-5.008l5.687-5.687l-2.828-2.828l-5.687,5.687l-2.545-2.545l5.687-5.687l-2.828-2.828l-5.687,5.687l-2.93-2.93l5.687-5.687
			l-2.828-2.828l-5.687,5.687l-37.906-37.906c4.247-4.479,7.084-10.305,7.788-16.766h36.097
			c-0.847,8.625-8.433,15.399-16.914,15.399v4c11.44,0,20.134-8.567,20.921-19.399h3.079v8h4v-8h3.33
			c1.085,10.493,10.337,18.717,20.67,18.717v-4c-8.32,0-15.581-6.437-16.633-14.717h26.633v19h27v-4h-23v-15h23v-4h-23v-15H311.755z
			 M85.941,82.002c0,0.835-0.175,1.63-0.488,2.351l-7.802-7.802c0.722-0.313,1.516-0.488,2.352-0.488
			C83.277,76.063,85.941,78.727,85.941,82.002z M80.003,87.94c-3.275,0-5.939-2.664-5.939-5.938c0-0.98,0.243-1.902,0.664-2.718
			l7.992,7.992C81.905,87.698,80.982,87.94,80.003,87.94z M199.727,173.918h-21.4l15.402-15.402
			C197.307,162.689,199.532,168.049,199.727,173.918z M190.894,155.694l-15.139,15.139v-21.045
			C181.513,150.016,186.774,152.2,190.894,155.694z M171.755,149.949v20.706l-14.101-14.101
			C161.441,152.994,166.333,150.601,171.755,149.949z M154.964,159.519l14.398,14.398h-19.578
			C149.963,168.51,151.866,163.534,154.964,159.519z M149.97,177.918h18.701l-12.977,12.977
			C152.643,187.296,150.593,182.828,149.97,177.918z M158.515,193.729l13.24-13.24v19.073
			C166.735,198.958,162.17,196.862,158.515,193.729z M175.755,199.723v-19.412l14.236,14.236
			C186.017,197.613,181.101,199.511,175.755,199.723z M192.957,191.856l-13.939-13.939h20.523
			C198.861,183.275,196.481,188.107,192.957,191.856z"/>
		<circle class="st2" cx="216.915" cy="119.141" r="2.378"/>
		<circle class="st2" cx="230.94" cy="132.751" r="2.378"/>
	</g>
</g>
<g id="reference">
</g>
</svg>
