<?xml version="1.0" encoding="utf-8"?>
<!-- Generator: Adobe Illustrator 19.1.0, SVG Export Plug-In . SVG Version: 6.00 Build 0)  -->
<svg version="1.1" id="Grid" xmlns="http://www.w3.org/2000/svg" xmlns:xlink="http://www.w3.org/1999/xlink" x="0px" y="0px"
	 viewBox="-415.6 441 20 20" style="enable-background:new -415.6 441 20 20;" xml:space="preserve">
<path d="M-411.4,441h-3.2c-0.6,0-1.1,0.5-1.1,1.1v3.2c0,0.6,0.5,1.1,1.1,1.1h3.2c0.6,0,1.1-0.5,1.1-1.1v-3.2
	C-410.3,441.5-410.8,441-411.4,441z"/>
<path d="M-404,441h-3.2c-0.6,0-1.1,0.5-1.1,1.1v3.2c0,0.6,0.5,1.1,1.1,1.1h3.2c0.6,0,1.1-0.5,1.1-1.1v-3.2
	C-403,441.5-403.4,441-404,441z"/>
<path d="M-396.6,441h-3.2c-0.6,0-1.1,0.5-1.1,1.1v3.2c0,0.6,0.5,1.1,1.1,1.1h3.2c0.6,0,1.1-0.5,1.1-1.1v-3.2
	C-395.6,441.5-396.1,441-396.6,441z"/>
<path d="M-411.4,448.4h-3.2c-0.6,0-1.1,0.5-1.1,1.1v3.2c0,0.6,0.5,1.1,1.1,1.1h3.2c0.6,0,1.1-0.5,1.1-1.1v-3.2
	C-410.3,448.8-410.8,448.4-411.4,448.4z"/>
<path d="M-411.4,455.7h-3.2c-0.6,0-1.1,0.5-1.1,1.1v3.2c0,0.6,0.5,1.1,1.1,1.1h3.2c0.6,0,1.1-0.5,1.1-1.1v-3.2
	C-410.3,456.2-410.8,455.7-411.4,455.7z"/>
<path d="M-404,448.4h-3.2c-0.6,0-1.1,0.5-1.1,1.1v3.2c0,0.6,0.5,1.1,1.1,1.1h3.2c0.6,0,1.1-0.5,1.1-1.1v-3.2
	C-403,448.8-403.4,448.4-404,448.4z"/>
<path d="M-404,455.7h-3.2c-0.6,0-1.1,0.5-1.1,1.1v3.2c0,0.6,0.5,1.1,1.1,1.1h3.2c0.6,0,1.1-0.5,1.1-1.1v-3.2
	C-403,456.2-403.4,455.7-404,455.7z"/>
<path d="M-396.6,448.4h-3.2c-0.6,0-1.1,0.5-1.1,1.1v3.2c0,0.6,0.5,1.1,1.1,1.1h3.2c0.6,0,1.1-0.5,1.1-1.1v-3.2
	C-395.6,448.8-396.1,448.4-396.6,448.4z"/>
<path d="M-396.6,455.7h-3.2c-0.6,0-1.1,0.5-1.1,1.1v3.2c0,0.6,0.5,1.1,1.1,1.1h3.2c0.6,0,1.1-0.5,1.1-1.1v-3.2
	C-395.6,456.2-396.1,455.7-396.6,455.7z"/>
</svg>
