<?xml version="1.0" encoding="utf-8"?>
<!-- Generator: Adobe Illustrator 19.1.0, SVG Export Plug-In . SVG Version: 6.00 Build 0)  -->
<svg version="1.1" id="Grid" xmlns="http://www.w3.org/2000/svg" xmlns:xlink="http://www.w3.org/1999/xlink" x="0px" y="0px"
	 viewBox="-439 441 20 20" style="enable-background:new -439 441 20 20;" xml:space="preserve">
<path d="M-432.3,441h-5c-0.9,0-1.7,0.7-1.7,1.7v5c0,0.9,0.7,1.7,1.7,1.7h5c0.9,0,1.7-0.7,1.7-1.7v-5
	C-430.7,441.7-431.4,441-432.3,441z M-420.7,441h-5c-0.9,0-1.7,0.7-1.7,1.7v5c0,0.9,0.7,1.7,1.7,1.7h5c0.9,0,1.7-0.7,1.7-1.7v-5
	C-419,441.7-419.7,441-420.7,441z M-432.3,452.7h-5c-0.9,0-1.7,0.7-1.7,1.7v5c0,0.9,0.7,1.7,1.7,1.7h5c0.9,0,1.7-0.7,1.7-1.7v-5
	C-430.7,453.4-431.4,452.7-432.3,452.7z M-420.7,452.7h-5c-0.9,0-1.7,0.7-1.7,1.7v5c0,0.9,0.7,1.7,1.7,1.7h5c0.9,0,1.7-0.7,1.7-1.7
	v-5C-419,453.4-419.7,452.7-420.7,452.7z"/>
</svg>
