<?xml version="1.0" encoding="utf-8"?>
<!-- Generator: Adobe Illustrator 19.1.0, SVG Export Plug-In . SVG Version: 6.00 Build 0)  -->
<svg version="1.1" id="Layer_1" xmlns="http://www.w3.org/2000/svg" xmlns:xlink="http://www.w3.org/1999/xlink" x="0px" y="0px"
	 viewBox="-424 226.6 109.4 109.4" style="enable-background:new -424 226.6 109.4 109.4;" xml:space="preserve">
<style type="text/css">
	.st0{fill:#333333;}
</style>
<g>
	<path class="st0" d="M-421.5,246h3l4.9,4.2v3c0,1,1,1.9,2,1.9c1,0,2-0.8,2-1.9v-3l3.9-4.1h3c1,0,1.9-1,1.9-2c0-1-0.8-2-1.9-2h-3
		l-3.9-4.7v-3c0-1-1-1.9-2-1.9c-1,0-2,0.8-2,1.9v3l-4.9,4.7h-3c-1,0-1.9,1-1.9,2C-423.4,245-422.5,246-421.5,246z M-412.1,240.7l3,3
		l-3,3l-3-3L-412.1,240.7z"/>
	<circle class="st0" cx="-331.1" cy="330.3" r="1.9"/>
	<circle class="st0" cx="-321.7" cy="292.7" r="1.9"/>
	<circle class="st0" cx="-415.8" cy="272" r="1.9"/>
	<circle class="st0" cx="-380.1" cy="273.8" r="1.9"/>
	<circle class="st0" cx="-366.9" cy="332.2" r="1.9"/>
	<path class="st0" d="M-318.4,231.2c-3.7-4-12.7-8.8-31.8,4c-1.5,1-3.9,2.7-6.4,4.6c-1.5,1.1-2.6,1.9-3.3,2.5
		c-3-0.7-6.2-1.1-9.4-1.1c-10.6,0-20.6,4.1-28.1,11.6c-10.2,10.2-13.7,24.5-10.5,37.5c-2.7,3.5-5.1,6.7-7.1,9.7
		c-7.1,10.5-14.1,23.6-5.5,32.1c2.8,2.8,6.1,3.9,9.6,3.9c7.2,0,15.5-4.7,22.5-9.5c3.1-2.1,6.3-4.5,9.7-7.1c3.1,0.7,6.2,1.1,9.3,1.1
		c10.4,0,20.6-4.1,28.1-11.6c9.8-9.8,13.7-24.1,10.5-37.5c2.6-3.4,5-6.6,7.1-9.7C-316.8,251.7-310.2,240.1-318.4,231.2z
		 M-336.4,258.6c-1.4-2.1-3-4-4.8-5.8c-1.8-1.8-3.7-3.4-5.8-4.8c14-10.1,19.3-10.4,20.1-9.6C-325.4,239.9-328.2,247.1-336.4,258.6z
		 M-394.7,255.4c6.8-6.8,15.8-10.5,25.4-10.5c3.1,0,6.2,0.4,9.2,1.2l1.8,0.7l0.1-0.1c0.6,0.2,1.2,0.4,1.8,0.6c0,0,0,0,0,0
		c0.6,0.2,1.1,0.5,1.7,0.7c0,0,0.1,0,0.1,0c0.5,0.2,1,0.5,1.6,0.7c0.1,0,0.1,0.1,0.2,0.1c0.5,0.2,1,0.5,1.4,0.8
		c2.8,1.6,5.4,3.5,7.7,5.9c1.9,1.9,3.6,4,5,6.4c-5.6,7.4-13.3,16.3-23.3,26.2c-10,10-18.8,17.6-26.2,23.3c-2.3-1.5-4.5-3.1-6.4-5
		c-2.2-2.2-4-4.6-5.6-7.2l0,0l-0.1-0.2c-1.6-2.7-2.8-5.6-3.6-8.7l-0.3-1C-407,277.4-403.9,264.6-394.7,255.4z M-397.4,309
		c1.8,1.8,3.7,3.3,5.8,4.8c-11.4,8.2-18.7,11.1-20.2,9.6c-0.8-0.8-0.5-6.1,9.6-20.1C-400.8,305.2-399.2,307.2-397.4,309z
		 M-343.9,306.3c-8.1,8.1-19.7,11.8-31,10.1c6.9-5.7,14.3-12.3,21.5-19.6c7.2-7.2,13.9-14.5,19.6-21.5
		C-332,286.6-335.7,298.1-343.9,306.3z M-326.7,259.7c-2.1,3.2-4.6,6.5-7.4,10c-0.1,0.1-0.2,0.2-0.2,0.3c-6.1,7.7-13.5,16-21.7,24.1
		c-8.2,8.2-16.4,15.6-24.1,21.7c-0.1,0.1-0.2,0.2-0.3,0.3c-3.5,2.8-6.8,5.2-10,7.4c-9.3,6.3-20.8,12.6-27.4,6
		c-6.6-6.6-0.3-18.1,6-27.4c1.5-2.3,3.3-4.8,5.3-7.4c0.6,1.7,1.4,3.4,2.3,5c-10.3,13.9-13.7,22.7-10.2,26.3c3.1,3.1,10.1,1,21.2-6.6
		c10-6.7,22-16.9,33.7-28.7c11.8-11.8,22-23.8,28.7-33.7c7.5-11.2,9.7-18.1,6.6-21.2c-3.5-3.5-12.4-0.1-26.3,10.1
		c-1.6-0.9-3.3-1.6-5-2.3c2.3-1.7,5.5-4,7.4-5.3c5.8-3.9,20-12.1,26.9-4.6C-315.4,240-319,248.3-326.7,259.7z"/>
</g>
</svg>
