<?xml version="1.0" encoding="utf-8"?>
<!-- Generator: Adobe Illustrator 19.1.0, SVG Export Plug-In . SVG Version: 6.00 Build 0)  -->
<svg version="1.1" id="Layer_1" xmlns="http://www.w3.org/2000/svg" xmlns:xlink="http://www.w3.org/1999/xlink" x="0px" y="0px"
	 viewBox="0 0 109.407 109.409" style="enable-background:new 0 0 109.407 109.409;" xml:space="preserve">
<style type="text/css">
	.st0{fill:none;stroke:#000000;stroke-width:2;stroke-linecap:round;stroke-miterlimit:10;}
	.st1{fill:none;stroke:#000000;stroke-width:2;stroke-miterlimit:10;}
	.st2{fill:none;stroke:#2F292B;stroke-width:2;stroke-linecap:round;stroke-linejoin:round;stroke-miterlimit:10;}
	.st3{fill:none;stroke:#000000;stroke-width:2;stroke-linejoin:round;stroke-miterlimit:10;}
	.st4{fill:none;stroke:#000000;stroke-width:2;stroke-linecap:round;stroke-linejoin:round;stroke-miterlimit:10;}
</style>
<g>
	<path d="M2.514,19.409h2.985l4.908,4.15v2.985c0,1.04,0.96,1.883,2,1.883s2-0.843,2-1.883v-2.986l3.948-4.15h2.986
		c1.04,0,1.883-0.96,1.883-2s-0.843-2-1.883-2h-2.986l-3.948-4.707V7.717c0-1.04-0.96-1.883-2-1.883s-2,0.843-2,1.883v2.985
		l-4.908,4.707H2.514c-1.04,0-1.883,0.96-1.883,2S1.474,19.409,2.514,19.409z M11.928,14.146l2.985,2.985l-2.985,2.985l-2.985-2.985
		L11.928,14.146z"/>
	<circle cx="92.886" cy="103.738" r="1.883"/>
	<circle cx="102.3" cy="66.083" r="1.883"/>
	<circle cx="8.162" cy="45.372" r="1.883"/>
	<circle cx="43.934" cy="47.255" r="1.883"/>
	<circle cx="57.114" cy="105.62" r="1.883"/>
	<path d="M105.567,4.559c-3.693-4.01-12.73-8.818-31.773,4.026c-1.451,0.979-3.851,2.699-6.42,4.603
		c-1.522,1.128-2.562,1.898-3.27,2.464c-3.04-0.734-6.187-1.117-9.393-1.117c-10.613,0-20.591,4.133-28.095,11.638
		c-10.157,10.157-13.654,24.49-10.492,37.523c-2.726,3.475-5.121,6.727-7.095,9.655C1.969,83.819-5.04,96.932,3.503,105.475
		c2.806,2.806,6.104,3.935,9.64,3.935c7.23-0.001,15.454-4.72,22.484-9.462c3.074-2.073,6.327-4.462,9.694-7.101
		c3.09,0.748,6.223,1.135,9.339,1.135c10.42,0,20.617-4.091,28.146-11.62c9.781-9.779,13.738-24.058,10.486-37.484
		c2.64-3.366,5.028-6.619,7.101-9.693C107.219,25.062,113.812,13.513,105.567,4.559z M87.571,31.972
		c-1.417-2.098-3.01-4.044-4.766-5.8c-1.785-1.785-3.714-3.373-5.754-4.767c13.989-10.134,19.343-10.382,20.123-9.603
		C98.649,13.278,95.821,20.557,87.571,31.972z M29.278,28.834C36.072,22.041,45.104,18.3,54.711,18.3
		c3.143,0,6.222,0.408,9.184,1.185l1.764,0.664l0.057-0.132c0.602,0.193,1.198,0.401,1.788,0.625c0.001,0,0.002,0.001,0.004,0.001
		c0.575,0.219,1.144,0.453,1.707,0.701c0.03,0.013,0.06,0.026,0.089,0.04c0.527,0.234,1.049,0.482,1.564,0.741
		c0.061,0.031,0.122,0.061,0.182,0.092c0.479,0.244,0.952,0.501,1.419,0.767c2.773,1.58,5.357,3.533,7.674,5.851
		c1.893,1.894,3.57,4.042,5.025,6.374c-5.629,7.397-13.293,16.264-23.272,26.242c-9.98,9.98-18.847,17.644-26.244,23.272
		c-2.332-1.454-4.48-3.13-6.373-5.024c-2.195-2.196-4.047-4.607-5.555-7.166l-0.005-0.017l-0.121-0.21
		c-1.571-2.728-2.775-5.65-3.58-8.687l-0.284-1.034C16.963,50.844,20.141,37.972,29.278,28.834z M26.616,82.36
		c1.756,1.756,3.701,3.349,5.799,4.766C21,95.374,13.724,98.2,12.247,96.729c-0.78-0.78-0.534-6.133,9.609-20.132
		C23.237,78.628,24.818,80.562,26.616,82.36z M80.143,79.698c-8.14,8.14-19.726,11.821-30.992,10.074
		c6.941-5.693,14.262-12.349,21.489-19.577c7.227-7.227,13.884-14.549,19.577-21.49C91.965,59.97,88.284,71.557,80.143,79.698z
		 M97.271,33.077c-2.137,3.169-4.612,6.531-7.365,10.018c-0.092,0.094-0.174,0.196-0.244,0.307
		c-6.087,7.682-13.515,15.962-21.684,24.13c-8.164,8.164-16.438,15.587-24.116,21.672c-0.117,0.073-0.224,0.16-0.323,0.256
		c-3.487,2.753-6.849,5.228-10.017,7.364c-9.271,6.252-20.758,12.583-27.356,5.986c-6.598-6.598-0.267-18.086,5.985-27.357
		c1.535-2.277,3.326-4.753,5.325-7.366c0.633,1.714,1.386,3.393,2.263,5.022C9.455,87.005,6.039,95.845,9.585,99.392
		c3.111,3.112,10.059,0.961,21.232-6.576c9.977-6.729,21.96-16.922,33.74-28.703c11.78-11.78,21.974-23.763,28.703-33.739
		c7.536-11.176,9.688-18.121,6.576-21.232c-3.547-3.547-12.379-0.133-26.263,10.14c-1.621-0.877-3.3-1.633-5.025-2.272
		c2.28-1.706,5.47-4.034,7.35-5.303c5.775-3.894,19.953-12.137,26.898-4.597C108.559,13.367,104.954,21.685,97.271,33.077z"/>
</g>
</svg>
