<?xml version="1.0" encoding="utf-8"?>
<!-- Generator: Adobe Illustrator 19.1.0, SVG Export Plug-In . SVG Version: 6.00 Build 0)  -->
<svg version="1.1" id="Layer_1" xmlns="http://www.w3.org/2000/svg" xmlns:xlink="http://www.w3.org/1999/xlink" x="0px" y="0px"
	 viewBox="0 0 900 900" style="enable-background:new 0 0 900 900;" xml:space="preserve">
<style type="text/css">
	.st0{fill:none;}
	.st1{fill:#FFFFFF;}
	.st2{font-family:'DTLNobelT-Bold';}
	.st3{font-size:138px;}
	.st4{letter-spacing:-5;}
	.st5{letter-spacing:-2;}
	.st6{letter-spacing:13;}
	.st7{letter-spacing:3;}
	.st8{letter-spacing:7;}
	.st9{fill:#EC008C;}
	.st10{font-family:'TiemposHeadline-Medium';}
	.st11{font-size:32px;}
</style>
<rect y="0.25" class="st0" width="899.75" height="918.75"/>
<text transform="matrix(1 0 0 1 0 108.7173)"><tspan x="0" y="0" class="st1 st2 st3">A</tspan><tspan x="106.673" y="0" class="st1 st2 st3 st4"> </tspan><tspan x="129.206" y="0" class="st1 st2 st3">T</tspan><tspan x="206.762" y="0" class="st1 st2 st3 st4"> </tspan><tspan x="229.294" y="0" class="st1 st2 st3">T</tspan><tspan x="306.85" y="0" class="st1 st2 st3 st4"> </tspan><tspan x="329.382" y="0" class="st1 st2 st3">E</tspan><tspan x="422.394" y="0" class="st1 st2 st3 st4"> </tspan><tspan x="444.926" y="0" class="st1 st2 st3">N</tspan><tspan x="571.747" y="0" class="st1 st2 st3 st4"> </tspan><tspan x="594.279" y="0" class="st1 st2 st3">T</tspan><tspan x="671.835" y="0" class="st1 st2 st3 st4"> </tspan><tspan x="694.367" y="0" class="st1 st2 st3">I</tspan><tspan x="752.603" y="0" class="st1 st2 st3 st4"> </tspan><tspan x="775.136" y="0" class="st1 st2 st3">O </tspan><tspan x="0" y="197.34" class="st1 st2 st3">N</tspan><tspan x="126.821" y="197.34" class="st1 st2 st3 st5"> </tspan><tspan x="152.331" y="197.34" class="st1 st2 st3">D</tspan><tspan x="265.628" y="197.34" class="st1 st2 st3 st5"> </tspan><tspan x="291.138" y="197.34" class="st1 st2 st3">E</tspan><tspan x="384.149" y="197.34" class="st1 st2 st3 st5"> </tspan><tspan x="409.659" y="197.34" class="st1 st2 st3">F</tspan><tspan x="493.01" y="197.34" class="st1 st2 st3 st5"> </tspan><tspan x="518.52" y="197.34" class="st1 st2 st3">I</tspan><tspan x="576.755" y="197.34" class="st1 st2 st3 st5"> </tspan><tspan x="602.265" y="197.34" class="st1 st2 st3">C</tspan><tspan x="712.938" y="197.34" class="st1 st2 st3 st5"> </tspan><tspan x="738.448" y="197.34" class="st1 st2 st3">I</tspan><tspan x="796.684" y="197.34" class="st1 st2 st3 st5"> </tspan><tspan x="822.193" y="197.34" class="st1 st2 st3">T </tspan><tspan x="0" y="394.68" class="st1 st2 st3">H</tspan><tspan x="120.887" y="394.68" class="st1 st2 st3 st6"> </tspan><tspan x="161.987" y="394.68" class="st1 st2 st3">Y</tspan><tspan x="251.411" y="394.68" class="st1 st2 st3 st6"> </tspan><tspan x="292.511" y="394.68" class="st1 st2 st3">P</tspan><tspan x="386.35" y="394.68" class="st1 st2 st3 st6"> </tspan><tspan x="427.45" y="394.68" class="st1 st2 st3">E</tspan><tspan x="520.461" y="394.68" class="st1 st2 st3 st6"> </tspan><tspan x="561.562" y="394.68" class="st1 st2 st3">R</tspan><tspan x="667.684" y="394.68" class="st1 st2 st3 st6"> </tspan><tspan x="708.784" y="394.68" class="st1 st2 st3">-</tspan><tspan x="751.977" y="394.68" class="st1 st2 st3 st6"> </tspan><tspan x="793.077" y="394.68" class="st1 st2 st3">A </tspan><tspan x="0" y="592.02" class="st1 st2 st3">C</tspan><tspan x="110.674" y="592.02" class="st1 st2 st3 st7"> </tspan><tspan x="142.157" y="592.02" class="st1 st2 st3">T</tspan><tspan x="219.713" y="592.02" class="st1 st2 st3 st7"> </tspan><tspan x="251.196" y="592.02" class="st1 st2 st3">I</tspan><tspan x="309.432" y="592.02" class="st1 st2 st3 st7"> </tspan><tspan x="340.915" y="592.02" class="st1 st2 st3">V</tspan><tspan x="435.306" y="592.02" class="st1 st2 st3 st7"> </tspan><tspan x="466.789" y="592.02" class="st1 st2 st3">I</tspan><tspan x="525.024" y="592.02" class="st1 st2 st3 st7"> </tspan><tspan x="556.508" y="592.02" class="st1 st2 st3">T</tspan><tspan x="634.063" y="592.02" class="st1 st2 st3 st7"> </tspan><tspan x="665.547" y="592.02" class="st1 st2 st3">Y</tspan><tspan x="754.969" y="592.02" class="st1 st2 st3 st7"> </tspan><tspan x="786.452" y="592.02" class="st1 st2 st3">D </tspan><tspan x="0" y="789.36" class="st1 st2 st3">I</tspan><tspan x="58.235" y="789.36" class="st1 st2 st3 st8"> </tspan><tspan x="93.631" y="789.36" class="st1 st2 st3">S</tspan><tspan x="179.604" y="789.36" class="st1 st2 st3 st8"> </tspan><tspan x="215" y="789.36" class="st1 st2 st3">O</tspan><tspan x="339.613" y="789.36" class="st1 st2 st3 st8"> </tspan><tspan x="375.009" y="789.36" class="st1 st2 st3">R</tspan><tspan x="481.131" y="789.36" class="st1 st2 st3 st8"> </tspan><tspan x="516.527" y="789.36" class="st1 st2 st3">D</tspan><tspan x="629.825" y="789.36" class="st1 st2 st3 st8"> </tspan><tspan x="665.221" y="789.36" class="st1 st2 st3">E</tspan><tspan x="758.232" y="789.36" class="st1 st2 st3 st8"> </tspan><tspan x="793.629" y="789.36" class="st1 st2 st3">R</tspan></text>
<rect x="258" y="135" class="st0" width="384" height="901"/>
<text transform="matrix(1 0 0 1 369.9219 160.0557)"><tspan x="0" y="0" class="st9 st10 st11">inattentive</tspan><tspan x="17.68" y="198.4" class="st9 st10 st11">subtype:</tspan><tspan x="45.679" y="396.8" class="st9 st10 st11">slow</tspan><tspan x="10.864" y="595.2" class="st9 st10 st11">cognition</tspan></text>
</svg>
