<svg id="Layer_1" xmlns="http://www.w3.org/2000/svg" viewBox="0 0 900 900">
  <style>
    .st0{fill:none;} .st1{fill:#FFFFFF;} .st2{font-family:&apos;DTLNobelT-Bold&apos;;} .st3{font-size:138px;} .st4{letter-spacing:-5;} .st5{letter-spacing:-2;} .st6{letter-spacing:13;} .st7{letter-spacing:3;} .st8{letter-spacing:7;} .st9{fill:#EC008C;} .st10{font-family:&apos;TiemposHeadline-Medium&apos;;} .st11{font-size:32px;}
  </style>
  <path class="st0" d="M0 .3h899.8V919H0z"/>
  <text transform="translate(0 108.717)">
    <tspan x="0" y="0" class="st1 st2 st3">A</tspan><tspan x="106.7" y="0" class="st1 st2 st3 st4"> </tspan><tspan x="129.2" y="0" class="st1 st2 st3">T</tspan><tspan x="206.8" y="0" class="st1 st2 st3 st4"> </tspan><tspan x="229.3" y="0" class="st1 st2 st3">T</tspan><tspan x="306.9" y="0" class="st1 st2 st3 st4"> </tspan><tspan x="329.4" y="0" class="st1 st2 st3">E</tspan><tspan x="422.4" y="0" class="st1 st2 st3 st4"> </tspan><tspan x="444.9" y="0" class="st1 st2 st3">N</tspan><tspan x="571.7" y="0" class="st1 st2 st3 st4"> </tspan><tspan x="594.3" y="0" class="st1 st2 st3">T</tspan><tspan x="671.8" y="0" class="st1 st2 st3 st4"> </tspan><tspan x="694.4" y="0" class="st1 st2 st3">I</tspan><tspan x="752.6" y="0" class="st1 st2 st3 st4"> </tspan><tspan x="775.1" y="0" class="st1 st2 st3">O </tspan><tspan x="0" y="197.3" class="st1 st2 st3">N</tspan><tspan x="126.8" y="197.3" class="st1 st2 st3 st5"> </tspan><tspan x="152.3" y="197.3" class="st1 st2 st3">D</tspan><tspan x="265.6" y="197.3" class="st1 st2 st3 st5"> </tspan><tspan x="291.1" y="197.3" class="st1 st2 st3">E</tspan><tspan x="384.1" y="197.3" class="st1 st2 st3 st5"> </tspan><tspan x="409.7" y="197.3" class="st1 st2 st3">F</tspan><tspan x="493" y="197.3" class="st1 st2 st3 st5"> </tspan><tspan x="518.5" y="197.3" class="st1 st2 st3">I</tspan><tspan x="576.8" y="197.3" class="st1 st2 st3 st5"> </tspan><tspan x="602.3" y="197.3" class="st1 st2 st3">C</tspan><tspan x="712.9" y="197.3" class="st1 st2 st3 st5"> </tspan><tspan x="738.4" y="197.3" class="st1 st2 st3">I</tspan><tspan x="796.7" y="197.3" class="st1 st2 st3 st5"> </tspan><tspan x="822.2" y="197.3" class="st1 st2 st3">T </tspan><tspan x="0" y="394.7" class="st1 st2 st3">H</tspan><tspan x="120.9" y="394.7" class="st1 st2 st3 st6"> </tspan><tspan x="162" y="394.7" class="st1 st2 st3">Y</tspan><tspan x="251.4" y="394.7" class="st1 st2 st3 st6"> </tspan><tspan x="292.5" y="394.7" class="st1 st2 st3">P</tspan><tspan x="386.4" y="394.7" class="st1 st2 st3 st6"> </tspan><tspan x="427.4" y="394.7" class="st1 st2 st3">E</tspan><tspan x="520.5" y="394.7" class="st1 st2 st3 st6"> </tspan><tspan x="561.6" y="394.7" class="st1 st2 st3">R</tspan><tspan x="667.7" y="394.7" class="st1 st2 st3 st6"> </tspan><tspan x="708.8" y="394.7" class="st1 st2 st3">-</tspan><tspan x="752" y="394.7" class="st1 st2 st3 st6"> </tspan><tspan x="793.1" y="394.7" class="st1 st2 st3">A </tspan><tspan x="0" y="592" class="st1 st2 st3">C</tspan><tspan x="110.7" y="592" class="st1 st2 st3 st7"> </tspan><tspan x="142.2" y="592" class="st1 st2 st3">T</tspan><tspan x="219.7" y="592" class="st1 st2 st3 st7"> </tspan><tspan x="251.2" y="592" class="st1 st2 st3">I</tspan><tspan x="309.4" y="592" class="st1 st2 st3 st7"> </tspan><tspan x="340.9" y="592" class="st1 st2 st3">V</tspan><tspan x="435.3" y="592" class="st1 st2 st3 st7"> </tspan><tspan x="466.8" y="592" class="st1 st2 st3">I</tspan><tspan x="525" y="592" class="st1 st2 st3 st7"> </tspan><tspan x="556.5" y="592" class="st1 st2 st3">T</tspan><tspan x="634.1" y="592" class="st1 st2 st3 st7"> </tspan><tspan x="665.5" y="592" class="st1 st2 st3">Y</tspan><tspan x="755" y="592" class="st1 st2 st3 st7"> </tspan><tspan x="786.5" y="592" class="st1 st2 st3">D </tspan><tspan x="0" y="789.4" class="st1 st2 st3">I</tspan><tspan x="58.2" y="789.4" class="st1 st2 st3 st8"> </tspan><tspan x="93.6" y="789.4" class="st1 st2 st3">S</tspan><tspan x="179.6" y="789.4" class="st1 st2 st3 st8"> </tspan><tspan x="215" y="789.4" class="st1 st2 st3">O</tspan><tspan x="339.6" y="789.4" class="st1 st2 st3 st8"> </tspan><tspan x="375" y="789.4" class="st1 st2 st3">R</tspan><tspan x="481.1" y="789.4" class="st1 st2 st3 st8"> </tspan><tspan x="516.5" y="789.4" class="st1 st2 st3">D</tspan><tspan x="629.8" y="789.4" class="st1 st2 st3 st8"> </tspan><tspan x="665.2" y="789.4" class="st1 st2 st3">E</tspan><tspan x="758.2" y="789.4" class="st1 st2 st3 st8"> </tspan><tspan x="793.6" y="789.4" class="st1 st2 st3">R</tspan>
  </text>
  <path class="st0" d="M258 135h384v901H258z"/>
  <text transform="translate(369.922 160.056)">
    <tspan x="0" y="0" class="st9 st10 st11">inattentive</tspan><tspan x="17.7" y="198.4" class="st9 st10 st11">subtype:</tspan><tspan x="45.7" y="396.8" class="st9 st10 st11">slow</tspan><tspan x="10.9" y="595.2" class="st9 st10 st11">cognition</tspan>
  </text>
</svg>
