<svg xmlns="http://www.w3.org/2000/svg" viewBox="0 0 900 900"><defs><style>.a{fill:#fbcbc5;}.b{fill:#fff;}.c{fill:#59bdbe;}.d,.h,.j{fill:#f4ca60;}.d,.e,.f,.h,.i{stroke:#231f20;}.d,.e,.f,.i{stroke-linecap:round;stroke-width:6px;}.d,.e,.f{stroke-linejoin:round;}.e{fill:#ed7d5a;}.f,.i{fill:none;}.g{fill:#231f20;}.h,.i{stroke-miterlimit:10;}.h{stroke-width:0.75px;}</style></defs><title>bart</title><rect class="a" width="900" height="900"/><circle class="b" cx="450" cy="450" r="407.29"/><circle class="c" cx="450" cy="450" r="285.37"/><path class="d" d="M465.8,573.28s-2.63,22.77,18.93,13.34S513,604.81,513,604.81l101.72-72.76c-57.93-45.81-79.35-208-90.94-315.27-3.44-31.82.67-106.44-29.3-53.56,0,0-9.77,15.83-14.48-.34s-15.57-34.15-24.93-3.37c-7.58,24.93-12.66-3.06-13.47-6.74-1.15-5.19-14.09-26.36-20.88,4-6.06,27.11-14,5-16.17-.67-3-8-14.23-15.38-14.82,8.08-0.6,23.7-15.42,2.26-19.55-4.26-5.62-8.87-19.39-19.2-18.85,13,0.51,30.05-16.85,1.86-19.54-3.71-2.23-4.62-12.46-10.78-13.14,9.6-0.8,24.28-7.07,15.66-15.16,5.56S286,170.3,286.67,193.88s-7,19.71-14.82,8.08c-9.77-14.48-19.87-16-15.49,8.08,3.86,21.21-8.42,7.75-14.48,4.21-7.1-4.14-25.26-10.27-12.46,10.61s41.77,91.62,43.79,151.57c0,0-11.45,6.74-3.37,25.6s47.16,130,51.87,164.37,12.8,38.4,39.75,34.36,112.5-19.54,152.25-55.91"/><path class="e" d="M634.28,537.21c-19.54-20-24.25-27.85-52.55,0s-55.91,58.84-60.63,79.05S546.7,718,546.7,718s-15.49,36.38-10.78,73.43c1.62,12.76,12.82,25.48,38.74,40.3A408.27,408.27,0,0,0,780.1,677.9C736.23,626.38,634.28,537.21,634.28,537.21Z"/><path class="d" d="M470.58,662.18L447,687.72s-71.41-38.34-111.15,9.49c0,0-25.6,7.41-19.54,31.66,0,0,10.78,15.49,24.93,0,0,0,24.93,6.06,43.79,3.37,0,0,65.35,55.91,97.68,33.68,0,0,31.66-18.35,55.24-49.26S470.58,662.18,470.58,662.18Z"/><polyline class="f" points="470.58 662.18 438.24 697.21 470.58 662.18"/><path class="e" d="M447,642.64s55-83,117.89-48.5c62.65,34.36-8.08,138.1-8.08,138.1S477.75,700.34,447,642.64Z"/><path class="g" d="M516.35,346.66s60,37.36,95.36,76.69c9.74,10.83,25.77,37,13.64,56.67-2.66,4.33-13.64,4.61-18.19-9.06-2.18-6.56,1-14.69-7.13-29.81,0,0-70.17-63.19-90.88-74.81C509.14,366.34,495.43,350.52,516.35,346.66Z"/><path class="h" d="M550.07,439.09c14.82-22.9,52.55-24.33,52.55,19.54,0,33.68-39.75,27.62-41.77,20.21"/><path class="f" d="M550.07,439.09c14.82-22.9,52.55-24.33,52.55,19.54,0,33.68-39.75,27.62-41.77,20.21"/><path class="f" d="M354,697.21s-4.72-2.69-18.19,0"/><path class="i" d="M496.55,540.47s20.39-3.81,29,15.73"/><path class="f" d="M589.48,446.16s-15.72-17.52-23.58,5.39"/><path class="f" d="M580.38,441.15S584.64,454.49,579,465"/><path class="g" d="M512.18,328.95s-122.27,23.75-146.52,35.87c0,0-7.58,3-9.6,13.64S341.83,395,332.81,383c-13.64-18.19-102.56,28.29-122.27,38.4,0,0,7.58,29.81,28.8,19.2,0,0,19.2,83.87,83.37,59.11L349,463.24l39.92-2.93s19.7,26.78,60.63,16.67,59.62-21.22,59.62-110.65C509.14,366.34,525.31,334.51,512.18,328.95Z"/><path class="j" d="M350.25,460.06c-11.42.62-19.38,7.11-24.22,13.94-13.44,19,.79,50.46,55.29,30.29l-41.18-18.86Z"/><path class="f" d="M381.32,504.29C326.82,524.46,312.58,493,326,474c4.84-6.84,12.8-13.32,24.22-13.94"/><path class="b" d="M535,724.65l-17,85.61,32.24,34.59C661.53,816.68,754.55,742.73,808.1,644.21L709,570.08C674.82,640.32,610.63,701.1,535,724.65Z"/><path class="g" d="M663.86,153.92l-28.29,40.59L625,187.16l28.29-40.59Z"/><path class="g" d="M643.28,199.16l33.17-36.7,9.54,8.62-2.75,38.37L703.56,187l9.54,8.62-33.17,36.7-9.54-8.62,2.71-38.32-20.28,22.44Z"/><path class="g" d="M720.06,256.65L706.61,266l-7.36-10.55,40.57-28.33L751.54,244a21.12,21.12,0,0,1,3.46,7,14.84,14.84,0,0,1,0,6.74,16.54,16.54,0,0,1-7.11,9.77c-8.82,6.16-17,4.61-23.19-4.22Zm8.5-5.94,2.44,3.5c2.82,4,5.62,4.72,9.06,2.32s3.76-5.51,1.09-9.33l-2.48-3.55Z"/><path class="g" d="M764.24,276.48c7.21,2.28,12.63,7.17,16.21,14.62s4.06,14.79,1.35,21.85a26.42,26.42,0,0,1-32.57,15.68q-10.82-3.42-16.33-14.86a26.66,26.66,0,0,1-1.57-20.8,25.77,25.77,0,0,1,13.9-15.28A24.64,24.64,0,0,1,764.24,276.48Zm-20.63,21.43a13.56,13.56,0,0,0,.63,10.69,13.89,13.89,0,0,0,18.56,6.5,13.28,13.28,0,0,0,7-7.91,13.56,13.56,0,0,0-.63-10.69,13.38,13.38,0,0,0-7.91-7,13,13,0,0,0-10.48.46A13.61,13.61,0,0,0,743.61,297.92Z"/><path class="g" d="M781.12,359.78l6.73,24.62a41.65,41.65,0,0,1-13.32,1.8,23.52,23.52,0,0,1-13.62-5.53,25.92,25.92,0,0,1-7.86-13.09c-2.06-7.53-1.39-14.31,1.93-20.32s8.82-10,16.36-12.08c7-1.9,13.36-1.4,19.24,1.48,6.66,3.21,11.18,9.05,13.48,17.47q4.07,14.91-7.56,25.12l-8.09-10.44c4.43-3.45,6-7.56,4.73-12.31a11.4,11.4,0,0,0-6.66-7.7A18.54,18.54,0,0,0,765,354.72,11.9,11.9,0,0,0,763.38,365c1.57,5.76,5.18,8.24,10.91,7.56l-2.78-10.19Z"/><path class="g" d="M804.57,445.74l-0.85-15.46-8.25.45,0.77,14.08-10.87.6-0.77-14.08L765.2,432.4l-0.71-12.84,49.39-2.71,1.56,28.3Z"/><path class="g" d="M808.68,462.65c5,5.66,7.15,12.64,6.4,20.87S811,498.29,805,503a26.42,26.42,0,0,1-36-3.27q-7.53-8.49-6.38-21.13A26.66,26.66,0,0,1,772,459.9a25.76,25.76,0,0,1,19.78-6A24.63,24.63,0,0,1,808.68,462.65ZM780,470.45a13.56,13.56,0,0,0-4.95,9.5,13.89,13.89,0,0,0,12.59,15.11,13.27,13.27,0,0,0,10.1-3.17,13.57,13.57,0,0,0,4.95-9.5,13.38,13.38,0,0,0-3.17-10.1,13,13,0,0,0-9.23-5A13.61,13.61,0,0,0,780,470.45Z"/><path class="g" d="M749.7,552.13l4-15.49,21.51-7.08-18.41-4.8,3.24-12.44,47.87,12.47-5,19.37c-1.47,5.65-4.28,9.39-8.4,11.17a15.58,15.58,0,0,1-10.51.79c-7.17-1.87-10.95-6.65-10.75-13.92Zm33.61-20.47L782.69,534c-1.27,4.89.11,8.17,3.92,9.16s6.62-1.19,7.89-6.08l0.61-2.35Z"/><path class="g" d="M749.93,553.55l41.44,28.29-5.32,11.57-28.16-1.9,19.53,20.67-5.32,11.57L724,609.89l5.37-11.68,27.41,8.56L735.92,584l2.14-4.65,30.61,1.58-24.09-15.77Z"/><path class="g" d="M728.21,622.82a7.43,7.43,0,0,1-1.08,5.79,7.65,7.65,0,0,1-10.61,2.28,7.33,7.33,0,0,1-3.36-4.83,7.71,7.71,0,0,1,11.8-8A7.24,7.24,0,0,1,728.21,622.82Zm4.64,2.13,27.45,17.73L753.6,653l-27.45-17.73Z"/><path class="g" d="M200.74,690.24l-12.53-13.71-14.09,12.88-8.68-9.49L202,646.55l8.68,9.49-15.06,13.77,12.53,13.71,15.06-13.77,8.68,9.49-36.52,33.38-8.68-9.49Z"/><path class="g" d="M149.24,637.89l8.66,12.6,6.81-4.68-8.17-11.9,9-6.17,8.17,11.9,7-4.83-8.66-12.6,9-6.17L197,639.24l-40.77,28-15.94-23.2Z"/><path class="g" d="M131.58,628.87l-5.45-9.81L151,619l3.7,6.65Z"/><path class="g" d="M121.44,577.84a13.48,13.48,0,0,0,.22,9,6,6,0,0,0,2.69,3.13,3.6,3.6,0,0,0,3.39.26q1.81-.77,2.15-3.49a58.41,58.41,0,0,0-.52-6.91c-1-8.91,1.33-13.76,7.85-16.54q7.69-3.28,14-.39c4.15,1.87,7.45,5.6,9.85,11.21a29.4,29.4,0,0,1,1.64,18.06l-11.7-1c1.58-4.81,1.66-9,.19-12.42s-4.23-4.9-6.89-3.77c-2.41,1-3,3.05-2.24,9.3q0.88,7.33.09,10.24c-1,3.2-3.49,5.7-7.53,7.42-4.53,1.93-8.86,2.14-12.91.51s-7-4.78-9-9.42a33,33,0,0,1-2.47-16Z"/><path class="g" d="M144,530.06l-48.49,9.77L91.76,521c-1.77-8.81,1.69-14.53,9.92-16.19,4.57-.92,8.21.22,11,3.33,0-3.68.73-6.37,2.24-8.15a13.59,13.59,0,0,1,7.86-4.19c8.55-1.72,15.06,3.66,17.13,13.95Zm-32-6.67-0.47-2.32c-0.79-3.92-2.74-5.61-5.89-5s-4.29,2.94-3.5,6.86l0.47,2.32Zm19.68-4-0.56-2.77c-1.26-6.24-3.33-8.56-6.93-7.84a4.46,4.46,0,0,0-3.52,2.78c-0.62,1.26-.54,3.65.2,7.32l0.52,2.57Z"/><path class="g" d="M125.69,457.8l0.9,17.69,8.76,3L136,492.1,85.67,475.6l-0.71-14,48.46-21.12,0.7,13.76Zm-9.59,4-15.52,6.11,16.06,4.57Z"/><path class="g" d="M104.79,399.76a13.85,13.85,0,0,0-6.41,10.56,12.85,12.85,0,0,0,3,9.89,13.47,13.47,0,0,0,9.4,4.6,12.86,12.86,0,0,0,9.82-2.94,12.61,12.61,0,0,0,4.63-9.07c0.37-4.12-1.07-7.94-4.23-11.58l15.16,1.36,0.34,1.35a33.13,33.13,0,0,1,1.05,10.31,26.83,26.83,0,0,1-8.18,17.12,23.84,23.84,0,0,1-19.72,6.87c-8.3-.74-14.69-4.41-19.17-11.07a26.06,26.06,0,0,1-4.57-17.4A30.56,30.56,0,0,1,89.5,398.4Z"/><path class="g" d="M113.4,374.78l-16-20.11,3.81-15.41,18,24.66,30.43-14.58-4,16.18-24.84,11.1,20.83,5.14-3.08,12.48-48-11.86,3.08-12.48Z"/></svg>