<?xml version="1.0" encoding="utf-8"?>
<!-- Generator: Adobe Illustrator 19.2.1, SVG Export Plug-In . SVG Version: 6.00 Build 0)  -->
<svg version="1.1" id="Layer_1" xmlns="http://www.w3.org/2000/svg" xmlns:xlink="http://www.w3.org/1999/xlink" x="0px" y="0px"
	 viewBox="0 0 900 900" style="enable-background:new 0 0 900 900;" xml:space="preserve">
<style type="text/css">
	.st0{fill:none;stroke:#FFFFFF;stroke-width:3;stroke-linecap:round;stroke-linejoin:round;}
</style>
<title>catcloud</title>
<polygon class="st0" points="273.4,707 217.4,764.8 228.4,834.1 265.4,842.3 290.6,720.1 "/>
<polygon class="st0" points="289.9,723.8 302.8,734.1 311.6,842.3 295.8,842.3 273.4,803.5 "/>
<polygon class="st0" points="221.8,792.4 166.7,814 227.9,831 "/>
<polygon class="st0" points="166.7,814 134.7,795.8 215.3,795 "/>
<polygon class="st0" points="290.6,720.1 322,713.8 290.3,684.9 273.4,707 273.4,707 "/>
<polygon class="st0" points="322,713.8 323.5,829 310.7,831 302.8,734.1 307.8,716.6 "/>
<polygon class="st0" points="273.4,707 236.9,709.2 207.7,654.5 297.7,675.2 "/>
<polygon class="st0" points="226.5,658.8 262.4,640.2 306.1,666 297.7,675.2 "/>
<polygon class="st0" points="262.4,640.2 232.6,633.5 242.7,650.4 "/>
<polygon class="st0" points="242.7,708.9 257.2,723.8 273.4,707 "/>
<polygon class="st0" points="270.3,818.9 279.7,822.6 282.3,818.9 273.4,803.5 "/>
<polygon class="st0" points="306.1,666 294.3,688.6 290.3,684.9 297.7,675.2 "/>
<polygon class="st0" points="-616,560.6 -606.6,564.2 -604,560.6 -612.8,545.2 "/>
<polygon class="st0" points="402.8,162.1 342.3,196.2 324.2,277.1 373.2,316.4 437.5,219.3 "/>
<polygon class="st0" points="342.3,196.2 289.8,189.8 289.8,287 342.3,338.1 324.2,277.1 "/>
<polygon class="st0" points="402.8,162.1 449.1,177.9 437.5,219.3 "/>
<polygon class="st0" points="373.2,316.4 356.5,357.8 342.3,338.1 324.2,277.1 "/>
<polygon class="st0" points="402.8,162.1 437.5,109.9 490.2,146.8 449.1,177.9 "/>
<polygon class="st0" points="437.5,219.3 568.7,306.6 605.3,247.1 449.1,177.9 "/>
<polygon class="st0" points="289.8,189.8 245.6,219.3 289.8,239.3 "/>
<polygon class="st0" points="245.6,219.3 227.6,190.7 301.2,165.8 289.8,189.8 "/>
<polygon class="st0" points="301.2,165.8 322.5,121.4 389.9,109.9 380.8,143.9 "/>
<polygon class="st0" points="437.5,109.9 380.8,143.9 402.8,162.1 "/>
<polygon class="st0" points="301.2,165.8 342.3,196.2 289.8,189.8 "/>
<polygon class="st0" points="245.6,219.3 229.1,239.3 276.4,316.4 289.8,287 289.8,239.3 "/>
<polygon class="st0" points="247,268.4 229.1,239.3 173.1,256.3 217.5,368.7 "/>
<polygon class="st0" points="217.5,368.7 299.1,377.7 276.4,316.4 247,268.4 "/>
<polygon class="st0" points="276.4,375.2 289.8,419.8 345.5,388.5 356.5,357.8 299.1,377.7 "/>
<polygon class="st0" points="276.4,375.2 264.4,423.8 289.8,462.2 360.1,415 345.5,388.5 289.8,419.8 "/>
<polygon class="st0" points="289.8,419.8 360.1,415 345.5,388.5 "/>
<polygon class="st0" points="360.1,415 389.9,439 432.1,415 437.5,399.2 "/>
<polygon class="st0" points="432.1,415 469,445.2 524.7,404.1 466.4,384.5 437.5,399.2 "/>
<polygon class="st0" points="345.5,388.5 415,344.9 524.7,339.2 466.4,384.5 437.5,399.2 360.1,415 "/>
<polygon class="st0" points="524.7,404.1 553.9,388.5 574.5,339.2 524.7,339.2 466.4,384.5 "/>
<polygon class="st0" points="553.9,388.5 577,414.8 630.2,419.8 641.1,402.9 "/>
<polygon class="st0" points="687.7,410.6 716,352.6 694.1,331.1 553.9,388.5 "/>
<polygon class="st0" points="687.7,410.6 716,419.8 751.2,368.7 731.4,331.1 716,352.6 "/>
<polygon class="st0" points="694.1,331.1 705.7,307.9 682.5,268.4 649.1,277.1 639.1,353.6 "/>
<polygon class="st0" points="649.1,277.1 652.5,256.3 634.9,242.2 605.3,247.1 613.1,284 "/>
<polygon class="st0" points="568.7,306.6 574.5,339.2 639.1,353.6 649.1,277.1 613.1,284 605.3,247.1 "/>
<polygon class="st0" points="373.2,316.4 461.3,268.4 415,344.9 345.5,388.5 "/>
<polygon class="st0" points="461.3,268.4 568.7,306.6 574.5,339.2 524.7,339.2 415,344.9 "/>
<polygon class="st0" points="389.9,109.9 474.1,46.4 634.9,122.8 586.5,143.9 490.2,146.8 437.5,109.9 380.8,143.9 "/>
<polygon class="st0" points="586.5,143.9 643.1,192.5 634.9,242.2 605.3,247.1 449.1,177.9 490.2,146.8 "/>
<polygon class="st0" points="634.9,122.8 643.1,137.9 664.5,136 679.1,151.9 611.9,165.8 586.5,143.9 "/>
<polyline class="st0" points="679.1,151.9 643.1,192.5 611.9,165.8 643.1,137.9 "/>
<line class="st0" x1="613.1" y1="284" x2="574.5" y2="339.2"/>
<polygon class="st0" points="731.4,331.1 694.1,331.1 716,352.6 "/>
<polygon class="st0" points="687.7,410.6 630.2,419.8 641.1,402.9 "/>
<polygon class="st0" points="679.1,181.4 672.4,203.5 687.7,224.5 "/>
<polygon class="st0" points="687.7,224.5 712.8,207 705.7,188.5 679.1,181.4 "/>
<polygon class="st0" points="687.7,224.5 708.3,219.3 712.8,207 "/>
<polygon class="st0" points="155.4,396.2 145,430.7 203.8,396.2 "/>
<polygon class="st0" points="203.8,396.2 216.5,447.2 225.9,425 "/>
<polygon class="st0" points="145,430.7 196.9,458.1 216.5,447.2 203.8,396.2 "/>
</svg>
