<svg xmlns="http://www.w3.org/2000/svg" viewBox="0 0 900 900"><defs><style>.a{fill:none;stroke:#fff;stroke-linecap:round;stroke-linejoin:round;stroke-width:3px;}</style></defs><title>catcloud</title><polygon class="a" points="273.44 707.04 217.41 764.82 228.35 834.11 265.43 842.32 290.65 720.14 273.44 707.04"/><polygon class="a" points="289.89 723.82 302.81 734.12 311.62 842.32 295.82 842.32 273.44 803.49 289.89 723.82"/><polygon class="a" points="221.77 792.41 166.66 814.05 227.85 830.96 221.77 792.41"/><polygon class="a" points="166.66 814.05 134.74 795.82 215.3 794.95 166.66 814.05"/><polygon class="a" points="290.65 720.14 321.96 713.76 290.28 684.92 273.44 707.04 273.44 707.04 290.65 720.14"/><polygon class="a" points="321.96 713.76 323.48 828.95 310.7 830.96 302.81 734.12 307.83 716.64 321.96 713.76"/><polygon class="a" points="273.44 707.04 236.86 709.2 207.68 654.5 297.7 675.16 273.44 707.04"/><polygon class="a" points="226.48 658.81 262.39 640.21 306.15 666.04 297.7 675.16 226.48 658.81"/><polygon class="a" points="262.39 640.21 232.6 633.53 242.66 650.43 262.39 640.21"/><polygon class="a" points="242.66 708.91 257.17 723.82 273.44 707.04 242.66 708.91"/><polygon class="a" points="270.26 818.91 279.71 822.56 282.33 818.91 273.44 803.49 270.26 818.91"/><polygon class="a" points="306.15 666.04 294.3 688.58 290.28 684.92 297.7 675.16 306.15 666.04"/><polygon class="a" points="402.76 162.13 342.31 196.16 324.17 277.13 373.18 316.39 437.47 219.28 402.76 162.13"/><polygon class="a" points="342.31 196.16 289.82 189.8 289.82 286.98 342.31 338.13 324.17 277.13 342.31 196.16"/><polygon class="a" points="402.76 162.13 449.07 177.91 437.47 219.28 402.76 162.13"/><polygon class="a" points="373.18 316.39 356.46 357.81 342.31 338.13 324.17 277.13 373.18 316.39"/><polygon class="a" points="402.76 162.13 437.47 109.94 490.24 146.81 449.07 177.91 402.76 162.13"/><polygon class="a" points="437.47 219.28 568.71 306.58 605.34 247.15 449.07 177.91 437.47 219.28"/><polygon class="a" points="289.82 189.8 245.62 219.28 289.82 239.26 289.82 189.8"/><polygon class="a" points="245.62 219.28 227.58 190.71 301.2 165.78 289.82 189.8 245.62 219.28"/><polygon class="a" points="301.2 165.78 322.47 121.42 389.9 109.94 380.82 143.92 301.2 165.78"/><polygon class="a" points="437.47 109.94 380.82 143.92 402.76 162.13 437.47 109.94"/><polygon class="a" points="301.2 165.78 342.31 196.16 289.82 189.8 301.2 165.78"/><polygon class="a" points="245.62 219.28 229.11 239.26 276.37 316.39 289.82 286.98 289.82 239.26 245.62 219.28"/><polygon class="a" points="246.96 268.38 229.11 239.26 173.12 256.28 217.47 368.68 246.96 268.38"/><polygon class="a" points="217.47 368.68 299.1 377.72 276.37 316.39 246.96 268.38 217.47 368.68"/><polygon class="a" points="276.37 375.2 289.82 419.81 345.55 388.48 356.46 357.81 299.1 377.72 276.37 375.2"/><polygon class="a" points="276.37 375.2 264.39 423.77 289.82 462.21 360.07 415.01 345.55 388.48 289.82 419.81 276.37 375.2"/><polygon class="a" points="289.82 419.81 360.07 415.01 345.55 388.48 289.82 419.81"/><polygon class="a" points="360.07 415.01 389.9 439.05 432.12 415.01 437.47 399.23 360.07 415.01"/><polygon class="a" points="432.12 415.01 468.99 445.21 524.74 404.14 466.42 384.45 437.47 399.23 432.12 415.01"/><polygon class="a" points="345.55 388.48 414.96 344.87 524.74 339.19 466.42 384.45 437.47 399.23 360.07 415.01 345.55 388.48"/><polygon class="a" points="524.74 404.14 553.9 388.48 574.48 339.19 524.74 339.19 466.42 384.45 524.74 404.14"/><polygon class="a" points="553.9 388.48 577.05 414.83 630.22 419.81 641.1 402.88 553.9 388.48"/><polygon class="a" points="687.68 410.57 715.99 352.59 694.12 331.15 553.9 388.48 687.68 410.57"/><polygon class="a" points="687.68 410.57 715.99 419.81 751.15 368.68 731.42 331.15 715.99 352.59 687.68 410.57"/><polygon class="a" points="694.12 331.15 705.69 307.94 682.54 268.38 649.09 277.13 639.12 353.63 694.12 331.15"/><polygon class="a" points="649.09 277.13 652.52 256.28 634.94 242.24 605.34 247.15 613.07 283.98 649.09 277.13"/><polygon class="a" points="568.71 306.58 574.48 339.19 639.12 353.63 649.09 277.13 613.07 283.98 605.34 247.15 568.71 306.58"/><polygon class="a" points="373.18 316.39 461.27 268.38 414.96 344.87 345.55 388.48 373.18 316.39"/><polygon class="a" points="461.27 268.38 568.71 306.58 574.48 339.19 524.74 339.19 414.96 344.87 461.27 268.38"/><polygon class="a" points="389.9 109.94 474.14 46.42 634.94 122.75 586.49 143.92 490.24 146.81 437.47 109.94 380.82 143.92 389.9 109.94"/><polygon class="a" points="586.49 143.92 643.09 192.53 634.94 242.24 605.34 247.15 449.07 177.91 490.24 146.81 586.49 143.92"/><polygon class="a" points="634.94 122.75 643.09 137.86 664.53 136.04 679.11 151.91 611.93 165.78 586.49 143.92 634.94 122.75"/><polyline class="a" points="679.11 151.91 643.09 192.53 611.93 165.78 643.09 137.86"/><line class="a" x1="613.07" y1="283.98" x2="574.48" y2="339.19"/><polygon class="a" points="731.42 331.15 694.12 331.15 715.99 352.59 731.42 331.15"/><polygon class="a" points="687.68 410.57 630.22 419.81 641.1 402.88 687.68 410.57"/><polygon class="a" points="679.11 181.37 672.41 203.53 687.68 224.46 679.11 181.37"/><polygon class="a" points="687.68 224.46 712.77 207.01 705.69 188.47 679.11 181.37 687.68 224.46"/><polygon class="a" points="687.68 224.46 708.35 219.28 712.77 207.01 687.68 224.46"/><polygon class="a" points="155.44 396.16 145 430.66 203.82 396.16 155.44 396.16"/><polygon class="a" points="203.82 396.16 216.5 447.22 225.88 424.95 203.82 396.16"/><polygon class="a" points="145 430.66 196.87 458.08 216.5 447.22 203.82 396.16 145 430.66"/></svg>