<?xml version="1.0" encoding="utf-8"?>
<!-- Generator: Adobe Illustrator 19.1.0, SVG Export Plug-In . SVG Version: 6.00 Build 0)  -->
<svg version="1.1" xmlns="http://www.w3.org/2000/svg" xmlns:xlink="http://www.w3.org/1999/xlink" x="0px" y="0px"
	 viewBox="0 0 900 900" style="enable-background:new 0 0 900 900;" xml:space="preserve">
<style type="text/css">
	.st0{display:none;opacity:0.45;}
	.st1{opacity:0.45;}
	.st2{display:inline;}
	.st3{display:inline;clip-path:url(#SVGID_2_);fill:none;stroke:#13E4EA;stroke-miterlimit:10;}
	.st4{clip-path:url(#SVGID_4_);}
	.st5{fill:#777B9E;}
	.st6{clip-path:url(#SVGID_4_);fill:#A099B5;}
	.st7{clip-path:url(#SVGID_4_);fill:#44676D;}
	.st8{clip-path:url(#SVGID_4_);fill:#777B9E;}
	.st9{clip-path:url(#SVGID_4_);fill:#E18256;}
	.st10{clip-path:url(#SVGID_4_);fill:#F0BA7D;}
	.st11{clip-path:url(#SVGID_4_);fill:#64897A;}
	.st12{clip-path:url(#SVGID_4_);fill:#CAE2AA;}
	.st13{clip-path:url(#SVGID_4_);fill:#A9C3A4;}
	.st14{clip-path:url(#SVGID_4_);fill:#F4D9A4;}
	.st15{clip-path:url(#SVGID_4_);fill:#547B80;}
	.st16{clip-path:url(#SVGID_4_);fill:#67ADA9;}
	.st17{clip-path:url(#SVGID_4_);fill:#81C1B5;}
	.st18{clip-path:url(#SVGID_4_);fill:#58596B;}
</style>
<g id="grid" class="st0">
	<defs>
		<rect id="SVGID_1_" x="-0.423" y="-0.423" class="st1" width="900.846" height="900.846"/>
	</defs>
	<clipPath id="SVGID_2_" class="st2">
		<use xlink:href="#SVGID_1_"  style="overflow:visible;"/>
	</clipPath>
	<line class="st3" x1="-0.5" y1="-546" x2="-0.5" y2="900"/>
	<line class="st3" x1="29.5" y1="-546" x2="29.5" y2="900"/>
	<line class="st3" x1="59.5" y1="-546" x2="59.5" y2="900"/>
	<line class="st3" x1="89.5" y1="-546" x2="89.5" y2="900"/>
	<line class="st3" x1="119.5" y1="-546" x2="119.5" y2="900"/>
	<line class="st3" x1="149.5" y1="-546" x2="149.5" y2="900"/>
	<line class="st3" x1="179.5" y1="-546" x2="179.5" y2="900"/>
	<line class="st3" x1="209.5" y1="-546" x2="209.5" y2="900"/>
	<line class="st3" x1="239.5" y1="-546" x2="239.5" y2="900"/>
	<line class="st3" x1="269.5" y1="-546" x2="269.5" y2="900"/>
	<line class="st3" x1="299.5" y1="-546" x2="299.5" y2="900"/>
	<line class="st3" x1="329.5" y1="-546" x2="329.5" y2="900"/>
	<line class="st3" x1="359.5" y1="-546" x2="359.5" y2="900"/>
	<line class="st3" x1="389.5" y1="-546" x2="389.5" y2="900"/>
	<line class="st3" x1="419.5" y1="-546" x2="419.5" y2="900"/>
	<line class="st3" x1="449.5" y1="-546" x2="449.5" y2="900"/>
	<line class="st3" x1="479.5" y1="-546" x2="479.5" y2="900"/>
	<line class="st3" x1="509.5" y1="-546" x2="509.5" y2="900"/>
	<line class="st3" x1="539.5" y1="-546" x2="539.5" y2="900"/>
	<line class="st3" x1="569.5" y1="-546" x2="569.5" y2="900"/>
	<line class="st3" x1="599.5" y1="-546" x2="599.5" y2="900"/>
	<line class="st3" x1="629.5" y1="-546" x2="629.5" y2="900"/>
	<line class="st3" x1="659.5" y1="-546" x2="659.5" y2="900"/>
	<line class="st3" x1="689.5" y1="-546" x2="689.5" y2="900"/>
	<line class="st3" x1="719.5" y1="-546" x2="719.5" y2="900"/>
	<line class="st3" x1="749.5" y1="-546" x2="749.5" y2="900"/>
	<line class="st3" x1="779.5" y1="-546" x2="779.5" y2="900"/>
	<line class="st3" x1="809.5" y1="-546" x2="809.5" y2="900"/>
	<line class="st3" x1="839.5" y1="-546" x2="839.5" y2="900"/>
	<line class="st3" x1="869.5" y1="-546" x2="869.5" y2="900"/>
	<line class="st3" x1="899.5" y1="-546" x2="899.5" y2="900"/>
	<line class="st3" x1="929.5" y1="-546" x2="929.5" y2="900"/>
	<line class="st3" x1="959.5" y1="-546" x2="959.5" y2="900"/>
	<line class="st3" x1="989.5" y1="-546" x2="989.5" y2="900"/>
	<line class="st3" x1="1019.5" y1="-546" x2="1019.5" y2="900"/>
	<line class="st3" x1="1049.5" y1="-546" x2="1049.5" y2="900"/>
	<line class="st3" x1="1079.5" y1="-546" x2="1079.5" y2="900"/>
	<line class="st3" x1="1109.5" y1="-546" x2="1109.5" y2="900"/>
	<line class="st3" x1="1139.5" y1="-546" x2="1139.5" y2="900"/>
	<line class="st3" x1="1169.5" y1="-546" x2="1169.5" y2="900"/>
	<line class="st3" x1="1199.5" y1="-546" x2="1199.5" y2="900"/>
	<line class="st3" x1="1229.5" y1="-546" x2="1229.5" y2="900"/>
	<line class="st3" x1="1259.5" y1="-546" x2="1259.5" y2="900"/>
	<line class="st3" x1="1289.5" y1="-546" x2="1289.5" y2="900"/>
	<line class="st3" x1="1319.5" y1="-546" x2="1319.5" y2="900"/>
	<line class="st3" x1="1349.5" y1="-546" x2="1349.5" y2="900"/>
	<line class="st3" x1="1379.5" y1="-546" x2="1379.5" y2="900"/>
	<line class="st3" x1="-406.136" y1="701.058" x2="846.136" y2="1424.057"/>
	<line class="st3" x1="-391.136" y1="675.077" x2="861.136" y2="1398.077"/>
	<line class="st3" x1="-376.136" y1="649.096" x2="876.136" y2="1372.096"/>
	<line class="st3" x1="-361.136" y1="623.115" x2="891.136" y2="1346.115"/>
	<line class="st3" x1="-346.136" y1="597.134" x2="906.136" y2="1320.135"/>
	<line class="st3" x1="-331.136" y1="571.154" x2="921.136" y2="1294.154"/>
	<line class="st3" x1="-316.136" y1="545.173" x2="936.136" y2="1268.173"/>
	<line class="st3" x1="-301.136" y1="519.192" x2="951.136" y2="1242.192"/>
	<line class="st3" x1="-286.136" y1="493.211" x2="966.136" y2="1216.211"/>
	<line class="st3" x1="-271.136" y1="467.231" x2="981.136" y2="1190.231"/>
	<line class="st3" x1="-256.136" y1="441.25" x2="996.136" y2="1164.25"/>
	<line class="st3" x1="-241.136" y1="415.269" x2="1011.136" y2="1138.269"/>
	<line class="st3" x1="-226.136" y1="389.288" x2="1026.136" y2="1112.288"/>
	<line class="st3" x1="-211.136" y1="363.308" x2="1041.136" y2="1086.308"/>
	<line class="st3" x1="-196.136" y1="337.327" x2="1056.136" y2="1060.327"/>
	<line class="st3" x1="-181.136" y1="311.346" x2="1071.136" y2="1034.346"/>
	<line class="st3" x1="-166.136" y1="285.365" x2="1086.136" y2="1008.365"/>
	<line class="st3" x1="-151.136" y1="259.385" x2="1101.136" y2="982.385"/>
	<line class="st3" x1="-136.136" y1="233.404" x2="1116.136" y2="956.404"/>
	<line class="st3" x1="-121.136" y1="207.423" x2="1131.136" y2="930.423"/>
	<line class="st3" x1="-106.136" y1="181.442" x2="1146.136" y2="904.442"/>
	<line class="st3" x1="-91.136" y1="155.462" x2="1161.136" y2="878.462"/>
	<line class="st3" x1="-76.136" y1="129.481" x2="1176.136" y2="852.481"/>
	<line class="st3" x1="-61.136" y1="103.5" x2="1191.136" y2="826.5"/>
	<line class="st3" x1="-46.136" y1="77.519" x2="1206.136" y2="800.519"/>
	<line class="st3" x1="-31.136" y1="51.538" x2="1221.136" y2="774.538"/>
	<line class="st3" x1="-16.136" y1="25.558" x2="1236.136" y2="748.558"/>
	<line class="st3" x1="-1.136" y1="-0.423" x2="1251.136" y2="722.577"/>
	<line class="st3" x1="13.864" y1="-26.404" x2="1266.136" y2="696.596"/>
	<line class="st3" x1="28.864" y1="-52.385" x2="1281.136" y2="670.615"/>
	<line class="st3" x1="43.864" y1="-78.365" x2="1296.136" y2="644.635"/>
	<line class="st3" x1="58.864" y1="-104.346" x2="1311.136" y2="618.654"/>
	<line class="st3" x1="73.864" y1="-130.327" x2="1326.136" y2="592.673"/>
	<line class="st3" x1="88.864" y1="-156.308" x2="1341.136" y2="566.692"/>
	<line class="st3" x1="103.864" y1="-182.288" x2="1356.136" y2="540.712"/>
	<line class="st3" x1="118.864" y1="-208.269" x2="1371.136" y2="514.731"/>
	<line class="st3" x1="133.864" y1="-234.25" x2="1386.136" y2="488.75"/>
	<line class="st3" x1="148.864" y1="-260.231" x2="1401.136" y2="462.769"/>
	<line class="st3" x1="163.864" y1="-286.211" x2="1416.136" y2="436.789"/>
	<line class="st3" x1="178.864" y1="-312.192" x2="1431.136" y2="410.808"/>
	<line class="st3" x1="193.864" y1="-338.173" x2="1446.136" y2="384.827"/>
	<line class="st3" x1="208.864" y1="-364.154" x2="1461.136" y2="358.846"/>
	<line class="st3" x1="223.864" y1="-390.134" x2="1476.136" y2="332.866"/>
	<line class="st3" x1="238.864" y1="-416.115" x2="1491.136" y2="306.885"/>
	<line class="st3" x1="253.864" y1="-442.096" x2="1506.136" y2="280.904"/>
	<line class="st3" x1="268.864" y1="-468.077" x2="1521.136" y2="254.923"/>
	<line class="st3" x1="283.864" y1="-494.058" x2="1536.136" y2="228.942"/>
	<line class="st3" x1="1536.136" y1="671.058" x2="283.864" y2="1394.057"/>
	<line class="st3" x1="1521.136" y1="645.077" x2="268.864" y2="1368.077"/>
	<line class="st3" x1="1506.136" y1="619.096" x2="253.864" y2="1342.096"/>
	<line class="st3" x1="1491.136" y1="593.115" x2="238.864" y2="1316.115"/>
	<line class="st3" x1="1476.136" y1="567.134" x2="223.864" y2="1290.135"/>
	<line class="st3" x1="1461.136" y1="541.154" x2="208.864" y2="1264.154"/>
	<line class="st3" x1="1446.136" y1="515.173" x2="193.864" y2="1238.173"/>
	<line class="st3" x1="1431.136" y1="489.192" x2="178.864" y2="1212.192"/>
	<line class="st3" x1="1416.136" y1="463.211" x2="163.864" y2="1186.211"/>
	<line class="st3" x1="1401.136" y1="437.231" x2="148.864" y2="1160.231"/>
	<line class="st3" x1="1386.136" y1="411.25" x2="133.864" y2="1134.25"/>
	<line class="st3" x1="1371.136" y1="385.269" x2="118.864" y2="1108.269"/>
	<line class="st3" x1="1356.136" y1="359.288" x2="103.864" y2="1082.288"/>
	<line class="st3" x1="1341.136" y1="333.308" x2="88.864" y2="1056.308"/>
	<line class="st3" x1="1326.136" y1="307.327" x2="73.864" y2="1030.327"/>
	<line class="st3" x1="1311.136" y1="281.346" x2="58.864" y2="1004.346"/>
	<line class="st3" x1="1296.136" y1="255.365" x2="43.864" y2="978.365"/>
	<line class="st3" x1="1281.136" y1="229.385" x2="28.864" y2="952.385"/>
	<line class="st3" x1="1266.136" y1="203.404" x2="13.864" y2="926.404"/>
	<line class="st3" x1="1251.136" y1="177.423" x2="-1.136" y2="900.423"/>
	<line class="st3" x1="1236.136" y1="151.442" x2="-16.136" y2="874.442"/>
	<line class="st3" x1="1221.136" y1="125.462" x2="-31.136" y2="848.462"/>
	<line class="st3" x1="1206.136" y1="99.481" x2="-46.136" y2="822.481"/>
	<line class="st3" x1="1191.136" y1="73.5" x2="-61.136" y2="796.5"/>
	<line class="st3" x1="1176.136" y1="47.519" x2="-76.136" y2="770.519"/>
	<line class="st3" x1="1161.136" y1="21.538" x2="-91.136" y2="744.538"/>
	<line class="st3" x1="1146.136" y1="-4.442" x2="-106.136" y2="718.558"/>
	<line class="st3" x1="1131.136" y1="-30.423" x2="-121.136" y2="692.577"/>
	<line class="st3" x1="1116.136" y1="-56.404" x2="-136.136" y2="666.596"/>
	<line class="st3" x1="1101.136" y1="-82.385" x2="-151.136" y2="640.615"/>
	<line class="st3" x1="1086.136" y1="-108.365" x2="-166.136" y2="614.635"/>
	<line class="st3" x1="1071.136" y1="-134.346" x2="-181.136" y2="588.654"/>
	<line class="st3" x1="1056.136" y1="-160.327" x2="-196.136" y2="562.673"/>
	<line class="st3" x1="1041.136" y1="-186.308" x2="-211.136" y2="536.692"/>
	<line class="st3" x1="1026.136" y1="-212.288" x2="-226.136" y2="510.712"/>
	<line class="st3" x1="1011.136" y1="-238.269" x2="-241.136" y2="484.731"/>
	<line class="st3" x1="996.136" y1="-264.25" x2="-256.136" y2="458.75"/>
	<line class="st3" x1="981.136" y1="-290.231" x2="-271.136" y2="432.769"/>
	<line class="st3" x1="966.136" y1="-316.211" x2="-286.136" y2="406.789"/>
	<line class="st3" x1="951.136" y1="-342.192" x2="-301.136" y2="380.808"/>
	<line class="st3" x1="936.136" y1="-368.173" x2="-316.136" y2="354.827"/>
	<line class="st3" x1="921.136" y1="-394.154" x2="-331.136" y2="328.846"/>
	<line class="st3" x1="906.136" y1="-420.134" x2="-346.136" y2="302.866"/>
	<line class="st3" x1="891.136" y1="-446.115" x2="-361.136" y2="276.885"/>
	<line class="st3" x1="876.136" y1="-472.096" x2="-376.136" y2="250.904"/>
	<line class="st3" x1="861.136" y1="-498.077" x2="-391.136" y2="224.923"/>
	<line class="st3" x1="846.136" y1="-524.058" x2="-406.136" y2="198.942"/>
</g>
<g id="Layer_3">
</g>
<g id="Layer_2">
	<defs>
		<rect id="SVGID_3_" width="900" height="900"/>
	</defs>
	<clipPath id="SVGID_4_">
		<use xlink:href="#SVGID_3_"  style="overflow:visible;"/>
	</clipPath>
	<g class="st4">
		<polygon class="st5" points="88,765 88,951 19.333,938.333 		"/>
		<path d="M91,954.003L16.389,940.24L91,751.901V954.003z M23.278,936.426L86,947.997V778.099L23.278,936.426z"/>
	</g>
	<polygon class="st6" points="91.5,534 -121.136,411.25 -61.136,670.615 	"/>
	<path class="st4" d="M94,532.557l-218.869-126.348l62.25,269.089L94,535.117V532.557z M-117.404,416.291L87.261,534.439
		L-59.653,665.933L-117.404,416.291z"/>
	<path class="st7" d="M658.5,993.327l-89-39.827l16.033-164.876c0,0,88.592-29.128,90.029-22.376
		C677,773,658.5,993.327,658.5,993.327z"/>
	<path class="st4" d="M660.696,997.049l-93.858-42.001l16.365-168.289l1.549-0.51c0.207-0.067,20.883-6.856,42.169-13.053
		c44.001-12.81,47.656-10.712,49.408-9.704c0.884,0.508,1.479,1.302,1.679,2.235c1.472,6.914-15.12,205.22-17.017,227.809
		L660.696,997.049z M572.162,951.952l84.142,37.653c7.098-84.688,16.995-208.301,16.852-221.901
		c-7.491-0.765-48.093,10.609-85.292,22.786L572.162,951.952z"/>
	<polygon class="st8" points="91,775 91,534 -83,637.889 -83,882 	"/>
	<path class="st4" d="M-81.19,884.13L-85,882V637.889l1.218-2.146l174-103.889L94,534v241l-1.19,2.13L-81.19,884.13z M-80,639.308
		v238.22L89,773.603V538.404L-80,639.308z"/>
	<polygon class="st9" points="732.045,38.819 286,-218.654 417.562,-195 784.136,23.423 	"/>
	<path class="st4" d="M731.725,41.521L272.346-223.649l146.106,26.269l0.39,0.233L790.326,24.201L731.725,41.521z M299.654-213.659
		L732.365,36.117l45.582-13.472L416.673-192.62L299.654-213.659z"/>
	<polygon class="st10" points="700.25,159.799 882,54.25 882,21.423 607.625,134 	"/>
	<path class="st4" d="M699.828,162.208l-92.5-25.799l-0.276-4.721l274.5-112.577L885,21.423V55.5l-1.246,0.913l-182,105.549
		L699.828,162.208z M615.688,133.549l84.469,23.56L880,52.81V25.15L615.688,133.549z"/>
	<polygon class="st11" points="748.5,685.577 -91.136,250.904 -24.333,-13.667 748.5,430 	"/>
	<path class="st4" d="M751,689.687l-3.649-1.89L-94.045,252.213l68.096-269.69l2.861,1.643L751,428.553V689.687z M-88.227,249.595
		L746,681.468V431.447L-22.717-9.856L-88.227,249.595z"/>
	<polygon class="st12" points="958.5,308.799 284.864,-78.885 -24.333,-13.667 750.5,430 	"/>
	<path class="st4" d="M750.511,432.887l-1.253-0.718L-31.271-14.758l316.554-66.77l0.828,0.477l677.377,389.837L750.511,432.887z
		 M-17.396-12.575l767.885,439.688l203.022-118.3L284.445-76.241L-17.396-12.575z"/>
	<polygon class="st13" points="748,604 748,430 958,308.799 958,517 	"/>
	<path class="st4" d="M746,607.742V428.556L961,304.47v214.2l-1.543,0.64L746,607.742z M751,431.444v168.814l205-84.928V313.129
		L751,431.444z"/>
	<rect x="611" y="326.308" class="st7" width="64.562" height="389.488"/>
	<path class="st4" d="M678.062,718.295H608.5V323.808h69.562V718.295z M613.5,713.295h59.562V328.808H613.5V713.295z"/>
	<polygon class="st14" points="660.5,655.21 630.5,637.889 596,653.167 635,685.577 	"/>
	<path class="st4" d="M635.315,689.09l-44.014-36.576l39.348-17.426l33.682,19.447L635.315,689.09z M600.698,653.82l33.986,28.244
		l21.984-26.18l-26.318-15.195L600.698,653.82z"/>
	<polygon class="st7" points="270.5,924.202 360.5,863 359.864,655.586 254.864,577.635 	"/>
	<path class="st4" d="M268.204,928.786l-16.075-356.295l110.231,81.834l0.644,209.995L268.204,928.786z M257.599,582.778
		l15.197,336.84l85.2-57.938l-0.628-204.833L257.599,582.778z"/>
	<polygon class="st15" points="208.614,188.055 208.625,917.798 268,924.202 268,604 448.614,707.538 448.625,967.346 508,997.346 
		508,361 	"/>
	<path class="st4" d="M511,1001.406l-64.499-32.521l-0.136-259.899L271,608.317v318.668l-64.5-6.942L206.363,187L511,359.557
		V1001.406z M451.317,965.806L506,993.285V362.443L211.365,192.385l0.135,723.167l54.5,5.866V599.683L451,706.09v1.447
		L451.317,965.806z"/>
	<polygon class="st16" points="689.01,257.329 688.745,967.453 658,993.327 658,344 628,361.038 628,1010.202 508,1083.346 508,361 
			"/>
	<path class="st4" d="M506,1087.797V359.552l185.761-104.6l-0.141,713.662L656,998.713V348.295l-25,14.199v649.113L506,1087.797z
		 M511,362.448v716.446l115-70.097V359.583l35-19.878v648.236l25.62-21.649l0.139-704.646L511,362.448z"/>
	<path class="st10" d="M149.875,999.072L201.11,1261H1139l0.25-835.692L149.875,999.072z M779,1123l-120-49V874l59.545-34.611
		L779,804.248V1123z M1019,986l-110-49V727.128l49.295-24.74L1019,667.248V986z"/>
	<path class="st4" d="M1141.499,1263H199.052l-51.973-265.446l1.542-0.894l993.13-576.068l-0.001,4.341L1141.499,1263z
		 M203.168,1258h933.333l0.248-828.726l-984.078,570.817L203.168,1258z M782,1126.722l-125-51.042V872.562l125-72.658V1126.722z
		 M662,1072.32l115,46.958V808.593l-115,66.846V1072.32z M1022,989.851l-115-51.228V725.586l50.607-25.398L1022,662.912V989.851z
		 M912,935.377l105,46.772V671.584l-57.084,33.039L912,728.671V935.377z"/>
	<polygon class="st14" points="1123.066,456.4 265,953.5 163.864,943 1081,412.434 	"/>
	<path class="st4" d="M265.55,956.07l-109.603-11.379l925.501-535.405l45.622,47.683l-2.752,1.594L265.55,956.07z M171.78,941.309
		l92.669,9.621l854.611-495.1l-38.509-40.249L171.78,941.309z"/>
	<polygon class="st9" points="959.25,953.202 958.67,702.288 1019,667.248 1019,953 	"/>
	<path class="st4" d="M957.005,955.711l-0.463-254.862L1022,662.909v292.582L957.005,955.711z M961.548,703.728l0.447,246.966
		l55.005-0.185V671.587L961.548,703.728z"/>
	<polygon class="st9" points="719.25,1090.202 718.67,839.288 779,804.248 779,1090 	"/>
	<path class="st4" d="M717.005,1092.711l-0.463-254.862L782,799.909v292.582L717.005,1092.711z M721.548,840.728l0.447,246.966
		l55.005-0.185V808.587L721.548,840.728z"/>
	<polygon class="st17" points="690.019,257.115 390.5,83.633 209.864,187.744 510.5,360.761 	"/>
	<path class="st4" d="M509.253,362.928L208.617,189.911L206.363,187L389.251,81.467l2.501,0.003l300.008,173.482l-0.491,4.328
		L511,363.417L509.253,362.928z M214.873,187.742l295.625,170.133l174.527-100.763L390.497,86.52L214.873,187.742z"/>
	<polygon class="st7" points="568,395.402 538.769,413 538.625,447.363 568,430.043 	"/>
	<path class="st4" d="M536.497,451.731l0.023-40.151L571,390.998v40.476L536.497,451.731z M541.519,414.42l-0.016,28.575
		L566,428.612v-28.806L541.519,414.42z"/>
	<polygon class="st7" points="599.01,447.242 568,464.962 568,534 598.685,516.611 	"/>
	<path class="st4" d="M566,538.299v-74.782l35.772-20.607l-0.216,75.157L566,538.299z M571,466.407v63.294l25.564-14.547
		l0.183-63.58L571,466.407z"/>
	<polygon class="st15" points="598.56,516.611 568,499.325 568,534 	"/>
	<path class="st4" d="M569.736,536.173L566,534v-34.675l3.73-2.176l30.561,17.285l0.006,4.349L569.736,536.173z M571,503.611v26.09
		l22.994-13.084L571,503.611z"/>
	<polygon class="st15" points="568.5,430.043 539.019,413 539,447.363 	"/>
	<path class="st4" d="M540.266,449.519l-3.766-2.157l0.02-34.363l3.751-2.163l29.48,17.043l0.015,4.32L540.266,449.519z
		 M541.517,417.332l-0.014,25.664l22.031-12.936L541.517,417.332z"/>
	<polygon class="st11" points="779,586 779,517 810,499.325 810,569 	"/>
	<path class="st4" d="M777,590.223v-74.675l36-20.525v75.311L777,590.223z M782,518.452v63.325l26-14.258v-63.892L782,518.452z"/>
	<polygon class="st14" points="810,568.25 779,551.264 779,586 	"/>
	<path class="st4" d="M777,590.312v-43.269l38.615,21.158L777,590.312z M782,555.485v26.202l23.385-13.39L782,555.485z"/>
	<polygon class="st14" points="328.5,640 -97.884,881.808 -32.125,918.275 389.864,675.226 	"/>
	<path class="st4" d="M-32.102,921.147l-70.893-39.315l431.502-244.71l66.372,38.1L-32.102,921.147z M-92.773,881.783l60.625,33.62
		l416.997-240.174l-56.356-32.352L-92.773,881.783z"/>
	<polygon class="st10" points="-32.125,918.275 -32,953.5 419.864,691.586 389.864,675.226 	"/>
	<path class="st4" d="M-34.485,957.83l-0.145-40.997l1.257-0.724l423.203-243.75l35.133,19.16L-34.485,957.83z M-29.62,919.718
		l0.105,29.452l444.279-257.518l-24.867-13.561L-29.62,919.718z"/>
	<polygon class="st9" points="-31.866,953.596 -98,918.275 -98,882 -32.5,918.275 	"/>
	<path class="st4" d="M-29.055,957.806L-100,919.771v-42.018l70.354,39.038L-29.055,957.806z M-95,916.779l60.823,32.606
		l-0.427-29.627L-95,886.246V916.779z"/>
	<polygon class="st14" points="611.531,108.416 762.5,21.79 372.5,-204 511,-192.673 882.5,21.423 672.626,142.846 	"/>
	<polygon class="st18" points="59.5,792.553 59.019,727.128 28.864,744.538 29.5,809.567 	"/>
	<path class="st4" d="M27.042,813.835l-0.692-70.732l35.138-20.286l0.523,71.188L27.042,813.835z M31.378,745.974l0.581,59.324
		l25.031-14.194l-0.438-59.664L31.378,745.974z"/>
	<polygon class="st14" points="59.5,792.553 28.864,775.248 29.5,809.567 	"/>
	<path class="st4" d="M27.917,812l-1.062-40.758l37.721,21.308L27.917,812z M31.444,779.577l0.478,25.742l22.502-12.762
		L31.444,779.577z"/>
	<path class="st4" d="M885,19.978L512.248-194.839l-0.485-0.28l-150.119-12.277l395.85,229.177l-151.021,86.655l66.169,37.29
		L885,22.864V19.978z M672.609,139.967l-56.021-31.571L767.507,21.8L383.356-200.604l126.881,10.377L877.501,21.427L672.609,139.967
		z"/>
	<polygon class="st14" points="653.969,654.344 630.958,669.896 630.958,681.468 664.767,660.578 	"/>
	<polygon class="st14" points="801.157,565.981 782,581.688 782,593.938 812.43,572.208 	"/>
	<polygon class="st14" points="52.26,791.333 31.914,804.895 32.094,818.457 63.059,797.568 	"/>
</g>
</svg>
