<?xml version="1.0" encoding="utf-8"?>
<!-- Generator: Adobe Illustrator 19.1.0, SVG Export Plug-In . SVG Version: 6.00 Build 0)  -->
<svg version="1.1" xmlns="http://www.w3.org/2000/svg" xmlns:xlink="http://www.w3.org/1999/xlink" x="0px" y="0px"
	 viewBox="0 0 1000 1000" style="enable-background:new 0 0 1000 1000;" xml:space="preserve">
<style type="text/css">
	.st0{fill:#E8C152;stroke:#000000;stroke-width:4;stroke-linejoin:round;stroke-miterlimit:10;}
	.st1{fill:#C69128;stroke:#000000;stroke-width:4;stroke-linejoin:round;stroke-miterlimit:10;}
	.st2{fill:#D6AC36;stroke:#000000;stroke-width:4;stroke-linejoin:round;stroke-miterlimit:10;}
	.st3{fill:#A6C0C9;stroke:#000000;stroke-width:4;stroke-linejoin:round;stroke-miterlimit:10;}
	.st4{fill:#A6C0C9;fill-opacity:0.51;stroke:#000000;stroke-width:4;stroke-linejoin:round;stroke-miterlimit:10;}
	.st5{fill:#7E82AD;stroke:#000000;stroke-width:4;stroke-linejoin:round;stroke-miterlimit:10;}
	.st6{fill:#5F6593;stroke:#000000;stroke-width:4;stroke-linejoin:round;stroke-miterlimit:10;}
	.st7{fill:#873651;stroke:#000000;stroke-width:4;stroke-linejoin:round;stroke-miterlimit:10;}
	.st8{fill:#A35563;stroke:#000000;stroke-width:4;stroke-linejoin:round;stroke-miterlimit:10;}
	.st9{fill:#50558C;stroke:#000000;stroke-width:4;stroke-linejoin:round;stroke-miterlimit:10;}
	.st10{fill:#67ADA9;stroke:#000000;stroke-width:4;stroke-linejoin:round;stroke-miterlimit:10;}
	.st11{fill:#65898C;stroke:#000000;stroke-width:4;stroke-linejoin:round;stroke-miterlimit:10;}
	.st12{fill:#547B80;stroke:#000000;stroke-width:4;stroke-linejoin:round;stroke-miterlimit:10;}
	.st13{fill:#478EB0;stroke:#000000;stroke-width:4;stroke-linejoin:round;stroke-miterlimit:10;}
	.st14{fill:#3B789E;stroke:#000000;stroke-width:4;stroke-linejoin:round;stroke-miterlimit:10;}
	.st15{fill:#4A6792;stroke:#000000;stroke-width:4;stroke-linejoin:round;stroke-miterlimit:10;}
	.st16{fill:#8AB26B;stroke:#000000;stroke-width:4;stroke-linejoin:round;stroke-miterlimit:10;}
	.st17{fill:#CAE2AA;stroke:#000000;stroke-width:4;stroke-linejoin:round;stroke-miterlimit:10;}
	.st18{fill:#ACC683;stroke:#000000;stroke-width:4;stroke-linejoin:round;stroke-miterlimit:10;}
	.st19{fill:none;stroke:#000000;stroke-width:4;stroke-linejoin:round;stroke-miterlimit:10;}
	.st20{fill:#D8A9A9;stroke:#000000;stroke-width:4;stroke-linejoin:round;stroke-miterlimit:10;}
	.st21{fill:#C69D9D;stroke:#000000;stroke-width:4;stroke-linejoin:round;stroke-miterlimit:10;}
	.st22{fill:#CC8B8B;stroke:#000000;stroke-width:4;stroke-linejoin:round;stroke-miterlimit:10;}
</style>
<g id="Layer_1">
</g>
<g id="background">
	<polygon class="st0" points="94.221,501.111 94.467,1023.557 119.526,1038.267 136.837,496.848 	"/>
	<polygon class="st1" points="-31.624,1037.699 -7.131,1023.557 -6.17,501.689 -45.284,522.885 	"/>
	<polygon class="st0" points="-55.461,414.45 -55.853,1023.181 -30.657,1037.906 -29.952,515.42 19.691,544.28 19.722,1066.566 
		44.722,1081 44.462,472.243 	"/>
	<polygon class="st2" points="44.005,356.649 -55.461,414.45 44.462,472.243 144.744,414.666 	"/>
	<polygon class="st1" points="144.744,414.666 145.004,1023.557 119.526,1038.267 119.485,515.745 69.599,544.191 69.722,1066.566 
		44.722,1081 44.462,472.243 	"/>
	<path class="st3" d="M-47.965,371.363"/>
	<polygon class="st4" points="802.019,256.275 777.265,270.549 802.265,284.983 	"/>
	<polygon class="st4" points="777.235,242 802.265,227.549 802.019,256.275 777.265,270.549 	"/>
	<polygon class="st5" points="802.265,1006.972 802.265,112.23 1027.265,241.983 1027.747,1068.998 952.265,1026.564 
		952.265,689.429 852.265,631.694 852.263,1035.805 	"/>
	<polygon class="st6" points="802.265,112.23 1018.371,-12.539 1152.724,82.947 1000,226.242 	"/>
	<polygon class="st7" points="-47.735,862.333 -47.551,891.608 777.265,415.188 1052.613,574.16 1039.765,537.875 777.265,386.019 	
		"/>
	<polygon class="st8" points="-22.735,733.228 777.265,270.549 1075.872,442.95 1039.765,537.875 777.265,386.019 -22.735,848.201 	
		"/>
	<polygon class="st6" points="852.263,1035.805 902.265,1006.972 903.113,661.53 852.265,631.694 	"/>
	<polygon class="st4" points="952.265,689.429 927.265,703.863 827.265,646.128 852.265,631.694 	"/>
	<polygon class="st4" points="927.265,674.996 952.613,660.361 952.265,689.429 927.265,703.863 	"/>
	<polygon class="st4" points="827.265,646.128 852.265,631.694 852.263,602.826 827.265,617.261 	"/>
	<polygon class="st4" points="827.265,646.128 827.265,617.261 927.265,674.996 927.265,703.863 	"/>
	<polygon class="st9" points="902.27,660.559 902.265,602.827 927.265,617.261 927.265,674.996 	"/>
	<polygon class="st6" points="902.27,660.559 927.315,646.123 927.265,674.996 	"/>
	<polygon class="st9" points="877.313,328.613 877,242 952.265,285.5 952.265,371.167 	"/>
	<polygon class="st8" points="877.313,328.613 952.265,285.5 952.265,371.167 	"/>
	<polygon class="st4" points="777.265,270.549 777.235,242 802.019,256.275 802.265,284.983 	"/>
	<polygon class="st8" points="-22.395,299.779 -97.213,256.373 52.265,169.47 -47.115,112.093 -22.735,39.91 202.265,169.47 	"/>
	<polygon class="st7" points="202.265,169.47 202.265,198.682 -22.299,328.334 -22.395,299.779 	"/>
	<polygon class="st7" points="26.815,184.266 -22.776,155.357 -47.115,112.093 52.265,169.47 	"/>
	<line class="st3" x1="-30.933" y1="486.589" x2="-6.17" y2="471.986"/>
	<polygon class="st4" points="-30.474,457.986 -30.933,486.589 19.178,515.52 19.178,486.589 	"/>
</g>
<g id="apartment">
	<polygon class="st4" points="552.265,862.333 552.081,891.608 577.265,877.068 	"/>
	<polygon class="st10" points="252.265,140.947 252.265,1006.972 402.265,1006.972 402.265,227.549 	"/>
	<polygon class="st11" points="252.265,140.947 377.265,68.778 527.265,155.38 402.265,227.549 	"/>
	<polygon class="st12" points="527.265,155.38 527.265,1006.972 402.265,1006.972 402.265,227.549 	"/>
	<polygon class="st13" points="202.265,284.48 327.265,356.649 327.265,472.119 202.265,399.95 	"/>
	<polygon class="st14" points="202.265,284.48 252.265,256.417 377.265,328.585 327.265,356.649 	"/>
	<polygon class="st15" points="377.265,328.585 377.265,444.056 327.265,472.119 327.265,356.649 	"/>
	<path class="st16" d="M502.265,515.42v115.47l125-71.767v-115.47L502.265,515.42z M626.917,530.457l-49.652-28.666l49.652-28.666
		V530.457z"/>
	<polygon class="st4" points="626.917,530.457 577.265,501.791 626.917,473.124 	"/>
	<polygon class="st17" points="502.265,630.89 452.265,602.827 452.265,487.357 502.265,515.42 	"/>
	<polygon class="st4" points="177.265,415.188 202.265,399.95 327.265,472.119 302.265,487.357 	"/>
	<polygon class="st18" points="452.265,487.357 527.265,443.653 527,385.5 627.265,443.653 502.265,515.42 	"/>
	<polygon class="st4" points="502.265,630.89 452.265,602.827 426.568,616.858 477.265,646.128 	"/>
	<polygon class="st4" points="502.265,602.827 477.265,617.261 477.265,646.128 502.265,630.89 	"/>
	<polygon class="st4" points="426.568,587.991 451.917,574.16 452.265,602.827 426.568,616.858 	"/>
	<polygon class="st4" points="477.265,617.261 426.568,587.991 426.568,616.858 477.265,646.128 	"/>
	<polygon class="st10" points="577.265,530.658 601.568,545.092 577.265,559.123 	"/>
	<polygon class="st4" points="577.265,501.791 577.265,559.123 626.917,530.457 626.917,473.124 	"/>
	<polygon class="st2" points="227.265,762.525 277.265,732.731 402.371,804.84 502.265,747.164 552.081,775.63 402.449,862.333 	"/>
	<polyline class="st1" points="402.265,978.105 552.081,891.608 552.081,775.63 402.449,862.333 	"/>
	<polygon class="st0" points="402.449,862.333 227.265,762.525 227.265,877.068 402.265,978.105 	"/>
	<line class="st0" x1="402.081" y1="891.608" x2="402.265" y2="920.37"/>
	<line class="st10" x1="277.265" y1="848.201" x2="277.265" y2="819.333"/>
	<polygon class="st10" points="253.648,862.333 277.265,848.201 326.761,876.918 327.265,905.936 	"/>
	<polygon class="st4" points="253.648,805.698 253.648,862.333 327.265,905.936 327.265,848.201 	"/>
	<polygon class="st4" points="577.787,848.201 552.265,834.068 552.265,862.333 577.787,877.068 	"/>
	<polygon class="st4" points="552.265,862.333 577.265,848.201 577.265,877.068 552.081,891.608 	"/>
	<polygon class="st4" points="377.265,877.068 377.265,905.936 402.265,920.37 501.743,862.333 501.743,833.466 402.081,891.608 	
		"/>
	<polygon class="st4" points="202.265,371.887 177.265,386.32 177.265,415.188 202.265,399.95 	"/>
	<polygon class="st4" points="302.265,458.489 177.265,386.32 177.265,415.188 302.265,487.357 	"/>
	<polygon class="st4" points="327.265,472.119 302.265,487.357 302.265,457.677 327.265,443.243 	"/>
	<polygon class="st15" points="227.265,414.384 227.265,357.453 252.265,371.887 252.265,428.817 	"/>
	<line class="st19" x1="389.765" y1="220.332" x2="364.765" y2="234.766"/>
	<polygon class="st19" points="239.765,277.766 226.743,270.549 252.265,256.417 264.765,263.332 	"/>
	<polygon class="st20" points="252.265,227.549 227.265,241.983 226.743,270.549 252.265,256.417 	"/>
	<polygon class="st21" points="352.265,198.682 377.265,213.115 377.265,241.983 352.265,227.549 	"/>
	<polygon class="st20" points="527.224,126.537 377.265,39.645 377.265,68.778 527.306,155.357 	"/>
	<polygon class="st20" points="377.265,213.115 527.224,126.537 527.306,155.357 377.265,241.983 	"/>
	<polygon class="st20" points="377.494,39.778 252.265,112.079 252.265,140.947 377.265,68.778 	"/>
	<polygon class="st6" points="302.265,54.2 377.265,97.501 452.265,54.2 377.265,10.898 	"/>
	<polygon class="st5" points="302.265,82.947 302.265,140.947 377.265,184.248 377.265,126.248 	"/>
	<polygon class="st9" points="452.265,82.947 452.265,140.947 377.265,184.248 377.265,126.248 	"/>
	<polygon class="st5" points="402.183,169.862 402.265,140.947 427.265,126.513 427.265,155.38 	"/>
	<polygon class="st20" points="252.265,112.079 252.265,140.947 327.224,184.177 327.306,155.357 	"/>
	<polygon class="st4" points="302.265,54.2 302.265,82.947 377.265,126.248 452.265,82.947 452.265,54.2 377.265,97.501 	"/>
	<polygon class="st10" points="227.265,414.384 252,401 252.265,428.817 	"/>
	<polygon class="st20" points="226.743,270.549 252.265,256.417 377.265,328.585 351.912,342.815 	"/>
	<polygon class="st20" points="227.265,241.983 252.265,256.417 252.265,285.284 226.743,270.549 	"/>
	<polygon class="st20" points="252.265,256.417 352.265,198.682 352.265,227.549 252.265,285.284 	"/>
	<polygon class="st20" points="427.333,502 451.917,516.425 577.333,444 526.995,415.293 527.265,443.653 	"/>
	<polygon class="st20" points="377.265,328.585 452.265,487.357 427.333,502 351.912,342.815 	"/>
	<line class="st21" x1="452.265" y1="487.357" x2="477.265" y2="501.388"/>
	<polygon class="st20" points="252.265,631.694 327.265,761.55 301.667,776.333 227.265,646.128 	"/>
	<polygon class="st20" points="252.265,602.827 202.265,631.694 227.265,646.128 252.265,631.694 	"/>
	<line class="st10" x1="252.265" y1="631.694" x2="226.568" y2="616.858"/>
	<polygon class="st20" points="301.667,776.333 401.743,833.466 577.081,732.731 552.081,718.445 402.371,804.84 327.265,761.55 	
		"/>
	<polygon class="st20" points="552.081,718.445 527.326,732.731 527.265,703.863 	"/>
	<polygon class="st12" points="427.265,155.38 402.265,140.947 402.183,169.862 	"/>
	<line class="st20" x1="527.326" y1="732.731" x2="552.265" y2="746.988"/>
	<polygon class="st20" points="952,804.5 777.265,905.936 652.265,834.068 801.96,746.988 802.133,775.956 702.265,834.068 
		777.096,876.971 952,775.63 	"/>
	<polygon class="st22" points="652.265,834.068 651.743,862.333 777.265,934.803 951.743,834.068 952,804.5 777.265,905.936 	"/>
	<polygon class="st22" points="726.915,848.201 802.133,804.976 802.133,775.956 702.265,834.068 	"/>
</g>
</svg>
