<svg id="layer1" xmlns="http://www.w3.org/2000/svg" viewBox="0 0 900 900">
  <style>
    .st0{fill:#3143A5;} .st1{fill:#B42E00;} .st2{fill:#3F7EA0;} .st3{fill:#D7B07C;} .st4{fill:#A8928A;} .st5{fill:#DAAF98;} .st6{fill:#D4BB8F;} .st7{fill:#E7D7C9;} .st8{fill:#E6A343;} .st9{fill:#D6DFD7;} .st10{fill:#D9A35F;} .st11{fill:#DBB882;} .st12{fill:#E0A720;} .st13{fill:#DF6C26;} .st14{fill:#D8C8E4;} .st15{fill:#684D9B;} .st16{fill:#46489C;} .st17{fill:#B4D0E7;} .st18{fill:#306E5E;} .st19{fill:#0B1C04;} .st20{fill:#ECE3CD;} .st21{fill:#A13C3A;} .st22{fill:#E89B20;} .st23{fill:#CCDCDC;} .st24{fill:#E6E1C3;} .st25{fill:#900400;} .st26{fill:#13274E;} .st27{fill:#B4B3E2;} .st28{fill:#DFE6E8;} .st29{fill:#1D3A64;} .st30{fill:#8B8FA8;} .st31{fill:#E7D7C3;} .st32{fill:#761C17;} .st33{fill:#EFAF80;} .st34{fill:#D4938E;} .st35{fill:#E2E7E1;} .st36{fill:#B31F07;} .st37{fill:#9A0A01;} .st38{fill:#7EB7A7;} .st39{fill:#314323;} .st40{fill:#3F747D;} .st41{fill:#465265;} .st42{fill:#C6D8C5;} .st43{fill:#EDEBF4;} .st44{fill:#D3921D;} .st45{fill:#D3CB92;} .st46{fill:#D18A45;} .st47{fill:#E29671;} .st48{fill:#E6C6AF;} .st49{fill:#EFE6CF;} .st50{fill:#E8B734;} .st51{fill:#CA8300;} .st52{fill:#E4E0F1;} .st53{fill:#D8BC93;} .st54{fill:#E0D6E4;} .st55{fill:#E3995F;} .st56{fill:#E69C3C;} .st57{fill:#DDB6C5;} .st58{fill:#231B14;} .st59{fill:#BA9247;} .st60{fill:#B06B00;} .st61{fill:#D8A96F;} .st62{fill:#9D4000;} .st63{fill:#DBAC79;} .st64{fill:#C36E00;} .st65{fill:#714FAA;} .st66{fill:#F8E6D3;} .st67{fill:#844D2E;} .st68{fill:#E9E0CE;} .st69{fill:#AD310C;} .st70{fill:#ABCA9F;} .st71{fill:#A40E02;}
  </style>
  <path class="st1" d="M0 0h900v900H0z"/>
  <path class="st2" d="M0 0h900v886.5H0z"/>
  <path class="st3" d="M0 0h900v873H0z"/>
  <path class="st4" d="M0 0h900v861H0z"/>
  <path class="st5" d="M0 0h900v852H0z"/>
  <path class="st6" d="M0 0h900v837H0z"/>
  <path class="st7" d="M0 0h900v825H0z"/>
  <path class="st8" d="M0 0h900v814.5H0z"/>
  <path class="st9" d="M0 0h900v802.5H0z"/>
  <path class="st10" d="M0 0h900v789H0z"/>
  <path class="st11" d="M0 0h900v771H0z"/>
  <path class="st12" d="M0 0h900v759H0z"/>
  <path class="st13" d="M0 0h900v747H0z"/>
  <path class="st14" d="M0 0h900v732H0z"/>
  <path class="st15" d="M0 0h900v721.5H0z"/>
  <path class="st15" d="M0 0h900v706.5H0z"/>
  <path class="st16" d="M0 0h900v697.5H0z"/>
  <path class="st17" d="M0 0h900v685.5H0z"/>
  <path class="st18" d="M0 0h900v672H0z"/>
  <path class="st19" d="M0 0h900v657H0z"/>
  <path class="st20" d="M0 0h900v648H0z"/>
  <path class="st21" d="M0 0h900v637.5H0z"/>
  <path class="st22" d="M0 0h900v625.5H0z"/>
  <path class="st23" d="M0 0h900v615H0z"/>
  <path class="st24" d="M0 0h900v598.5H0z"/>
  <path class="st25" d="M0 0h900v586.5H0z"/>
  <path class="st26" d="M0 0h900v577.5H0z"/>
  <path class="st27" d="M0 0h900v565.5H0z"/>
  <path class="st28" d="M0 0h900v550.5H0z"/>
  <path class="st29" d="M0 0h900v538.5H0z"/>
  <path class="st30" d="M0 0h900v528H0z"/>
  <path class="st31" d="M0 0h900v514.5H0z"/>
  <path class="st32" d="M0 0h900v502.5H0z"/>
  <path class="st33" d="M0 0h900v492H0z"/>
  <path class="st34" d="M0 0h900v481.5H0z"/>
  <path class="st35" d="M0 0h900v468H0z"/>
  <path class="st36" d="M0 0h900v450H0z"/>
  <path class="st37" d="M0 0h900v441H0z"/>
  <path class="st38" d="M0 0h900v427.5H0z"/>
  <path class="st39" d="M0 0h900v417H0z"/>
  <path class="st40" d="M0 0h900v403.5H0z"/>
  <path class="st0" d="M0 0h900v392.2H0z"/>
  <path class="st41" d="M0 0h900v382.5H0z"/>
  <path class="st42" d="M0 0h900v370.5H0z"/>
  <path class="st43" d="M0 0h900v358.5H0z"/>
  <path class="st44" d="M0 0h900v343.5H0z"/>
  <path class="st45" d="M0 0h900v333H0z"/>
  <path class="st46" d="M0 0h900v321H0z"/>
  <path class="st47" d="M0 0h900v309H0z"/>
  <path class="st48" d="M0 0h900v295.5H0z"/>
  <path class="st49" d="M0 0h900v282H0z"/>
  <path class="st50" d="M0 0h900v273H0z"/>
  <path class="st51" d="M0 0h900v261H0z"/>
  <path class="st52" d="M0 0h900v249H0z"/>
  <path class="st53" d="M0 0h900v235.5H0z"/>
  <path class="st54" d="M0 0h900v225H0z"/>
  <path class="st55" d="M0 0h900v211.5H0z"/>
  <path class="st56" d="M0 0h900v201H0z"/>
  <path class="st57" d="M0 0h900v189H0z"/>
  <path class="st58" d="M0 0h900v174H0z"/>
  <path class="st59" d="M0 0h900v165H0z"/>
  <path class="st60" d="M0 0h900v151.5H0z"/>
  <path class="st61" d="M0 0h900v141H0z"/>
  <path class="st62" d="M0 0h900v129H0z"/>
  <path class="st63" d="M0 0h900v117H0z"/>
  <path class="st64" d="M0 0h900v105H0z"/>
  <path class="st65" d="M0 0h900v90H0z"/>
  <path class="st66" d="M0 0h900v81H0z"/>
  <path class="st67" d="M0 0h900v66H0z"/>
  <path class="st68" d="M0 0h900v55.5H0z"/>
  <path class="st69" d="M0 0h900v43.5H0z"/>
  <path class="st70" d="M0 0h900v30H0z"/>
  <path class="st71" d="M0 0h900v16.5H0z"/>
</svg>
