<?xml version="1.0" encoding="utf-8"?>
<!-- Generator: Adobe Illustrator 19.1.0, SVG Export Plug-In . SVG Version: 6.00 Build 0)  -->
<svg version="1.1" id="layer1" xmlns="http://www.w3.org/2000/svg" xmlns:xlink="http://www.w3.org/1999/xlink" x="0px" y="0px"
	 viewBox="0 0 900 900" style="enable-background:new 0 0 900 900;" xml:space="preserve">
<style type="text/css">
	.st0{fill:#3143A5;}
	.st1{fill:#B42E00;}
	.st2{fill:#3F7EA0;}
	.st3{fill:#D7B07C;}
	.st4{fill:#A8928A;}
	.st5{fill:#DAAF98;}
	.st6{fill:#D4BB8F;}
	.st7{fill:#E7D7C9;}
	.st8{fill:#E6A343;}
	.st9{fill:#D6DFD7;}
	.st10{fill:#D9A35F;}
	.st11{fill:#DBB882;}
	.st12{fill:#E0A720;}
	.st13{fill:#DF6C26;}
	.st14{fill:#D8C8E4;}
	.st15{fill:#684D9B;}
	.st16{fill:#46489C;}
	.st17{fill:#B4D0E7;}
	.st18{fill:#306E5E;}
	.st19{fill:#0B1C04;}
	.st20{fill:#ECE3CD;}
	.st21{fill:#A13C3A;}
	.st22{fill:#E89B20;}
	.st23{fill:#CCDCDC;}
	.st24{fill:#E6E1C3;}
	.st25{fill:#900400;}
	.st26{fill:#13274E;}
	.st27{fill:#B4B3E2;}
	.st28{fill:#DFE6E8;}
	.st29{fill:#1D3A64;}
	.st30{fill:#8B8FA8;}
	.st31{fill:#E7D7C3;}
	.st32{fill:#761C17;}
	.st33{fill:#EFAF80;}
	.st34{fill:#D4938E;}
	.st35{fill:#E2E7E1;}
	.st36{fill:#B31F07;}
	.st37{fill:#9A0A01;}
	.st38{fill:#7EB7A7;}
	.st39{fill:#314323;}
	.st40{fill:#3F747D;}
	.st41{fill:#465265;}
	.st42{fill:#C6D8C5;}
	.st43{fill:#EDEBF4;}
	.st44{fill:#D3921D;}
	.st45{fill:#D3CB92;}
	.st46{fill:#D18A45;}
	.st47{fill:#E29671;}
	.st48{fill:#E6C6AF;}
	.st49{fill:#EFE6CF;}
	.st50{fill:#E8B734;}
	.st51{fill:#CA8300;}
	.st52{fill:#E4E0F1;}
	.st53{fill:#D8BC93;}
	.st54{fill:#E0D6E4;}
	.st55{fill:#E3995F;}
	.st56{fill:#E69C3C;}
	.st57{fill:#DDB6C5;}
	.st58{fill:#231B14;}
	.st59{fill:#BA9247;}
	.st60{fill:#B06B00;}
	.st61{fill:#D8A96F;}
	.st62{fill:#9D4000;}
	.st63{fill:#DBAC79;}
	.st64{fill:#C36E00;}
	.st65{fill:#714FAA;}
	.st66{fill:#F8E6D3;}
	.st67{fill:#844D2E;}
	.st68{fill:#E9E0CE;}
	.st69{fill:#AD310C;}
	.st70{fill:#ABCA9F;}
	.st71{fill:#A40E02;}
</style>
<rect x="-165.514" y="467.971" class="st0" width="0" height="0"/>
<g>
	<rect class="st1" width="900" height="900"/>
	<rect class="st2" width="900" height="886.45"/>
	<rect class="st3" width="900" height="872.951"/>
	<rect class="st4" width="900" height="860.951"/>
	<rect class="st5" width="900" height="851.952"/>
	<rect class="st6" width="900" height="836.952"/>
	<rect class="st7" width="900" height="824.953"/>
	<rect class="st8" width="900" height="814.453"/>
	<rect class="st9" width="900" height="802.454"/>
	<rect class="st10" width="900" height="788.955"/>
	<rect class="st11" width="900" height="770.956"/>
	<rect class="st12" width="900" height="758.956"/>
	<rect class="st13" width="900" height="746.957"/>
	<rect class="st14" width="900" height="731.958"/>
	<rect class="st15" width="900" height="721.458"/>
	<rect class="st15" width="900" height="706.459"/>
	<rect class="st16" width="900" height="697.459"/>
	<rect class="st17" width="900" height="685.46"/>
	<rect class="st18" width="900" height="671.961"/>
	<rect class="st19" width="900" height="656.961"/>
	<rect class="st20" width="900" height="647.962"/>
	<rect class="st21" width="900" height="637.462"/>
	<rect class="st22" width="900" height="625.463"/>
	<rect class="st23" width="900" height="614.963"/>
	<rect class="st24" width="900" height="598.464"/>
	<rect class="st25" width="900" height="586.465"/>
	<rect class="st26" width="900" height="577.465"/>
	<rect class="st27" width="900" height="565.466"/>
	<rect class="st28" width="900" height="550.467"/>
	<rect class="st29" width="900" height="538.467"/>
	<rect class="st30" width="900" height="527.968"/>
	<rect class="st31" width="900" height="514.468"/>
	<rect class="st32" width="900" height="502.469"/>
	<rect class="st33" width="900" height="491.97"/>
	<rect class="st34" width="900" height="481.47"/>
	<rect class="st35" width="900" height="467.971"/>
	<rect class="st36" width="900" height="450"/>
	<rect class="st37" width="900" height="440.972"/>
	<rect class="st38" width="900" height="427.473"/>
	<rect class="st39" width="900" height="416.973"/>
	<rect class="st40" width="900" height="403.474"/>
	<rect class="st0" width="900" height="392.225"/>
	<rect class="st41" width="900" height="382.475"/>
	<rect class="st42" width="900" height="370.476"/>
	<rect class="st43" width="900" height="358.476"/>
	<rect class="st44" width="900" height="343.477"/>
	<rect class="st45" width="900" height="332.978"/>
	<rect class="st46" width="900" height="320.978"/>
	<rect class="st47" width="900" height="308.979"/>
	<rect class="st48" width="900" height="295.479"/>
	<rect class="st49" width="900" height="281.98"/>
	<rect class="st50" width="900" height="272.98"/>
	<rect class="st51" width="900" height="260.981"/>
	<rect class="st52" width="900" height="248.982"/>
	<rect class="st53" width="900" height="235.482"/>
	<rect class="st54" width="900" height="224.983"/>
	<rect class="st55" width="900" height="211.484"/>
	<rect class="st56" width="900" height="200.984"/>
	<rect class="st57" width="900" height="188.985"/>
	<rect class="st58" width="900" height="173.985"/>
	<rect class="st59" width="900" height="164.986"/>
	<rect class="st60" width="900" height="151.487"/>
	<rect class="st61" width="900" height="140.987"/>
	<rect class="st62" width="900" height="128.988"/>
	<rect class="st63" width="900" height="116.988"/>
	<rect class="st64" width="900" height="104.989"/>
	<rect class="st65" width="900" height="89.99"/>
	<rect class="st66" width="900" height="80.99"/>
	<rect class="st67" width="900" height="65.991"/>
	<rect class="st68" width="900" height="55.491"/>
	<rect class="st69" width="900" height="43.492"/>
	<rect class="st70" width="900" height="29.993"/>
	<rect class="st71" width="900" height="16.493"/>
</g>
</svg>
