<?xml version="1.0" encoding="utf-8"?>
<!-- Generator: Adobe Illustrator 19.1.0, SVG Export Plug-In . SVG Version: 6.00 Build 0)  -->
<svg version="1.1" xmlns="http://www.w3.org/2000/svg" xmlns:xlink="http://www.w3.org/1999/xlink" x="0px" y="0px"
	 viewBox="0 0 682.172 829.527" style="enable-background:new 0 0 682.172 829.527;" xml:space="preserve">
<style type="text/css">
	.st0{fill:#52627F;}
	.st1{fill:#95A082;}
	.st2{fill:url(#SVGID_1_);}
	.st3{fill:#0F0E0F;}
	.st4{fill:#A0AD89;}
	.st5{fill:#B6C4A0;}
	.st6{fill:#C3FFE7;}
	.st7{fill:#FCFCFC;}
	.st8{fill:#C3FFE7;stroke:#FCFCFC;stroke-width:5;stroke-miterlimit:10;}
	.st9{fill:#9FA88F;}
	.st10{fill:url(#SVGID_2_);}
	.st11{fill:#ACB2A1;}
	.st12{fill:#CAD1BD;}
	.st13{fill:#FFFFFF;}
</style>
<g id="reference">
</g>
<g id="Layer_4">
</g>
<g id="Layer_2">
	<path class="st9" d="M179.302,32.668c0,0,63.448,58.843,87.148,94.633c34.234,51.699-30.74,52.069-30.74,52.069L179.302,32.668z"/>
	<path class="st9" d="M565.367,29.786c0,0-63.448,58.843-87.148,94.633c-34.234,51.699,30.74,52.069,30.74,52.069L565.367,29.786z"
		/>
	<linearGradient id="SVGID_1_" gradientUnits="userSpaceOnUse" x1="589.9133" y1="975.2457" x2="293.6531" y2="573.4169">
		<stop  offset="0.0332" style="stop-color:#A6E2C8"/>
		<stop  offset="0.0371" style="stop-color:#A4DFC6"/>
		<stop  offset="0.1136" style="stop-color:#81AF9B"/>
		<stop  offset="0.1939" style="stop-color:#638476"/>
		<stop  offset="0.2773" style="stop-color:#495F56"/>
		<stop  offset="0.3643" style="stop-color:#34423C"/>
		<stop  offset="0.456" style="stop-color:#242B28"/>
		<stop  offset="0.5547" style="stop-color:#181B1A"/>
		<stop  offset="0.6651" style="stop-color:#111112"/>
		<stop  offset="0.8116" style="stop-color:#0F0E0F"/>
	</linearGradient>
	<path class="st2" d="M237.659,403.243c0,0-169.011,24.587-96.438,188.88s61.361,253.646,61.361,253.646l399.106,10.985
		C601.688,856.753,720.123,403.243,237.659,403.243z"/>
	<path class="st3" d="M551.939,287.944c0,182.557-39.243,190.244-161.644,190.244c-99.594,0-199.018-88.877-199.018-190.244
		c0-102.415,29.996-185.44,180.331-185.44C519.786,102.504,551.939,185.528,551.939,287.944z"/>
	<path class="st11" d="M324.861,414.773c-6.069-5.365,36.236-71.561,46.744-71.561c9.784,0,53.176,65.876,46.744,71.561
		c-4.039,3.57-26.117,11.85-46.744,18.896C353.097,426.623,328.181,417.708,324.861,414.773z"/>
	<path class="st12" d="M371.609,361.927c-23.982,0,0.023,96.723,0.023,96.723S398.705,361.927,371.609,361.927z"/>
	<path class="st12" d="M545.341,210.789c14.066,14.465,24.898,75.339-10.787,130.802c-26.927,41.851-99.76,30.477-123.913,5.64
		c-34.979-35.97-35.362-93.895-0.856-129.379S510.362,174.819,545.341,210.789z"/>
	<path class="st12" d="M394.039,239.914c0,0,24.957-48.053,88.758-80.477C509.425,92.56,570.973,0,570.973,0
		c77.281,65.134,10.001,169.861,10.001,169.861c53.256-10.424,0,93.676-23.117,80.931l-5.625,38.297L394.039,239.914z"/>
	<g>
		<path class="st6" d="M468.03,342.01c-13.459,0-26.064-5.339-35.492-15.035c-21.152-21.751-21.375-56.915-0.496-78.386
			c11.25-11.568,28.204-18.475,45.351-18.475c14.652,0,27.689,5.109,36.711,14.387c9.988,10.271,14.597,24.582,12.977,40.295
			c-1.5,14.547-8.272,28.97-18.582,39.572C497.596,335.58,482.846,342.01,468.03,342.01z"/>
		<path class="st7" d="M477.394,232.614c13.081,0,25.817,4.27,34.918,13.629c20.25,20.824,14.371,55.839-5.606,76.382
			c-10.648,10.95-24.757,16.884-38.677,16.884c-12.195,0-24.243-4.553-33.7-14.277c-20.25-20.824-20.472-54.358-0.495-74.901
			C444.833,239.022,461.371,232.614,477.394,232.614 M477.075,227.614v5v-5.087h0.318c-17.81,0-35.433,7.233-47.143,19.275
			c-21.814,22.432-21.592,59.181,0.495,81.894c9.903,10.183,23.144,15.802,37.284,15.802c15.487,0,30.891-6.701,42.261-18.393
			c10.694-10.997,17.721-25.96,19.277-41.056c1.697-16.463-3.318-31.482-13.831-42.294
			C506.24,232.991,493.075,227.614,477.075,227.614L477.075,227.614z"/>
	</g>
	<path class="st12" d="M199.327,213.672c-14.066,14.465-24.898,75.339,10.787,130.802c26.927,41.851,99.76,30.477,123.913,5.64
		c34.979-35.97,35.362-93.895,0.856-129.379S234.307,177.702,199.327,213.672z"/>
	<path class="st12" d="M350.63,242.797c0,0-24.958-48.053-88.758-80.477C235.244,95.442,173.696,2.882,173.696,2.882
		c-77.281,65.134-10.001,169.861-10.001,169.861c-53.256-10.424,0,93.676,23.117,80.931l5.625,38.296L350.63,242.797z"/>
	<g>
		<path class="st6" d="M276.639,344.527c-14.817,0-29.567-6.248-40.469-17.459c-10.31-10.602-17.083-24.934-18.582-39.481
			c-1.62-15.714,2.988-29.979,12.977-40.25c9.021-9.277,22.059-14.364,36.71-14.364c17.148,0,34.102,6.918,45.352,18.487
			c20.879,21.471,20.657,56.458-0.496,78.21c-9.427,9.695-22.032,14.858-35.489,14.858
			C276.64,344.527,276.64,344.527,276.639,344.527z"/>
		<path class="st7" d="M267.275,235.496c16.022,0,32.561,6.408,43.559,17.718c19.977,20.543,19.755,54.077-0.495,74.901
			c-9.456,9.724-21.505,14.277-33.7,14.277c-13.919,0-28.029-5.935-38.677-16.884c-19.977-20.543-25.856-55.558-5.606-76.382
			C241.459,239.766,254.195,235.496,267.275,235.496 M267.275,230.496c-15.333,0-29.007,5.378-38.503,15.143
			c-10.513,10.811-15.369,25.832-13.671,42.295c1.556,15.096,8.583,30.061,19.277,41.059c11.37,11.693,26.774,18.399,42.261,18.399
			c14.141,0,27.382-5.608,37.284-15.791c22.087-22.713,22.309-59.441,0.496-81.873C302.708,237.686,285.084,230.496,267.275,230.496
			L267.275,230.496z"/>
	</g>
	<path class="st3" d="M737.705,557.26c29.063,91.477,174.308,419.333,68.379,427.283S581.839,880.774,515.365,680.14
		c-29.486-88.996-158.916-283.69-37.001-302.597C610.203,357.097,709.175,467.462,737.705,557.26z"/>
	<path class="st3" d="M50.635,581.838c0,0,11.942-12.25,7.307-35.546c-7.151-35.936-7.604-57.629-7.604-57.629
		s-10.636-5.065-11.987,17.989c-0.309,5.269,6.729,42.118-7.99,16.706C15.644,497.948,27.875,572.737,50.635,581.838z"/>
	<path class="st3" d="M94.105,845.224c0,0-103.344-328.037-93.436-351.849c0,0,15.884-21.913,52.476,92.546
		c15.164,47.434,280.953,270.833,280.953,270.833L94.105,845.224z"/>
	<path class="st3" d="M0.321,496.825c0,0,3.958-37.835,6.035-50.376c2.603-15.72,12.893-47.37,12.893,57.866L0.321,496.825z"/>
	<path class="st3" d="M196.058,330.193c0,0,22.778,74.491-24.411,98.977l94.379,1.936L196.058,330.193z"/>
	<path class="st12" d="M33.071,411.208c31.135,48.723,100.277,37.426,118.03,0C130.545,362.395,54.862,356.813,33.071,411.208z"/>
	<ellipse class="st6" cx="91.302" cy="408.047" rx="28.511" ry="29.319"/>
	<ellipse class="st3" cx="91.302" cy="408.047" rx="20.935" ry="21.528"/>
</g>
<g id="Layer_3">
</g>
</svg>
