<?xml version="1.0" encoding="utf-8"?>
<!-- Generator: Adobe Illustrator 19.1.0, SVG Export Plug-In . SVG Version: 6.00 Build 0)  -->
<svg version="1.1" id="Layer_1" xmlns="http://www.w3.org/2000/svg" xmlns:xlink="http://www.w3.org/1999/xlink" x="0px" y="0px"
	 viewBox="-108 36.473 682.172 829.527" style="enable-background:new -108 36.473 682.172 829.527;" xml:space="preserve">
<style type="text/css">
	.st0{fill:#9FA88F;}
	.st1{fill:url(#torso_1_);}
	.st2{fill:#0F0E0F;}
	.st3{fill:#ACB2A1;}
	.st4{fill:#CAD1BD;}
	.st5{fill:#C3FFE7;}
	.st6{fill:#FCFCFC;}
</style>
<path id="eye_feathers_shadow_2" class="st0" d="M71.302,69.141c0,0,63.448,58.843,87.148,94.633
	c34.234,51.699-30.74,52.069-30.74,52.069L71.302,69.141z"/>
<path id="eye_feathers_shadow" class="st0" d="M457.367,66.259c0,0-63.448,58.843-87.148,94.633
	c-34.234,51.699,30.74,52.069,30.74,52.069L457.367,66.259z"/>
<linearGradient id="torso_1_" gradientUnits="userSpaceOnUse" x1="481.9133" y1="-106.7727" x2="185.6531" y2="295.0562" gradientTransform="matrix(1 0 0 -1 0 904.946)">
	<stop  offset="0" style="stop-color:#7DBAA0"/>
	<stop  offset="0.0221" style="stop-color:#76AE96"/>
	<stop  offset="0.1121" style="stop-color:#5A8472"/>
	<stop  offset="0.207" style="stop-color:#436054"/>
	<stop  offset="0.3059" style="stop-color:#30423B"/>
	<stop  offset="0.41" style="stop-color:#222B27"/>
	<stop  offset="0.5218" style="stop-color:#171B1A"/>
	<stop  offset="0.6468" style="stop-color:#111112"/>
	<stop  offset="0.8116" style="stop-color:#0F0E0F"/>
</linearGradient>
<path id="torso" class="st1" d="M129.659,439.716c0,0-169.011,24.587-96.438,188.88s61.361,253.646,61.361,253.646l399.106,10.985
	C493.688,893.226,612.123,439.716,129.659,439.716z"/>
<path id="head" class="st2" d="M443.939,324.417c0,182.557-39.243,190.244-161.644,190.244
	c-99.594,0-199.018-88.877-199.018-190.244c0-102.415,29.996-185.44,180.331-185.44
	C411.786,138.977,443.939,222.001,443.939,324.417z"/>
<path id="beak_base" class="st3" d="M216.861,451.246c-6.069-5.365,36.236-71.561,46.744-71.561
	c9.784,0,53.176,65.876,46.744,71.561c-4.039,3.57-26.117,11.85-46.744,18.896C245.097,463.096,220.181,454.181,216.861,451.246z"/>
<path id="beak_point" class="st4" d="M263.609,398.4c-23.982,0,0.023,96.723,0.023,96.723S290.705,398.4,263.609,398.4z"/>
<g id="eye_feathers">
	<path class="st4" d="M472.974,206.334c0,0,67.28-104.727-10.001-169.861c0,0-61.548,92.56-88.176,159.437
		c-38.485,19.558-62.832,44.8-76.097,61.755c-5.014,5.706-9.186,11.918-12.526,18.471c-0.031,0.058-0.057,0.106-0.077,0.143
		c-0.016,0.031-0.033,0.061-0.049,0.092c-0.003,0.005-0.009,0.017-0.009,0.017l0.001,0c-17.397,34.396-11.811,78.099,16.601,107.317
		c24.153,24.837,96.986,36.211,123.913-5.64c20.369-31.658,25.578-65.075,23.685-90.622
		C473.551,298.87,525.942,195.966,472.974,206.334z"/>
	<path class="st4" d="M242.63,279.27c0,0-0.075-0.143-0.217-0.403c-3.326-6.494-7.468-12.655-12.441-18.315
		c-13.265-16.955-37.612-42.199-76.101-61.759C127.244,131.915,65.696,39.355,65.696,39.355
		c-77.281,65.134-10.001,169.861-10.001,169.861c-52.968-10.368-0.578,92.533,22.734,81.109
		c-1.893,25.547,3.316,58.964,23.685,90.622c26.927,41.851,99.76,30.477,123.913,5.64c28.413-29.218,33.998-72.921,16.601-107.317
		L242.63,279.27z"/>
</g>
<path id="shoulder" class="st2" d="M629.705,593.733c29.063,91.477,174.308,419.333,68.379,427.283S473.839,917.247,407.365,716.613
	c-29.486-88.996-158.916-283.69-37.001-302.597C502.203,393.57,601.175,503.935,629.705,593.733z"/>
<path id="arm" class="st2" d="M-54.855,622.394c-0.554-1.732-1.102-3.43-1.647-5.101c2.653-3.368,10.308-15.105,6.444-34.529
	c-7.151-35.936-7.604-57.629-7.604-57.629s-10.636-5.065-11.987,17.989c-0.309,5.269,6.729,42.118-7.99,16.706
	c-0.991-1.711-1.856-2.954-2.608-3.807c-3.178-6.426-6.059-11.427-8.651-15.294l0.147,0.058c0-105.236-10.29-73.586-12.893-57.866
	c-1.694,10.226-4.637,37.264-5.667,46.899c-0.012,0.016-0.021,0.027-0.021,0.027c-9.908,23.812,93.436,351.849,93.436,351.849
	l239.993,11.53C226.098,893.227-39.691,669.828-54.855,622.394z"/>
<path id="neck_fold" class="st2" d="M88.058,366.666c0,0,22.778,74.491-24.411,98.977l94.379,1.936L88.058,366.666z"/>
<path id="sclera" class="st5" d="M-74.929,447.681c31.135,48.723,100.277,37.426,118.03,0
	C22.545,398.868-53.138,393.286-74.929,447.681z"/>
<ellipse id="iris" class="st4" cx="-16.698" cy="444.52" rx="28.511" ry="29.319"/>
<ellipse id="pupil" class="st2" cx="-16.698" cy="444.52" rx="20.935" ry="21.528"/>
<g id="Layer_3">
</g>
<path id="eye_right" class="st5" d="M360.03,378.483c-13.459,0-26.064-5.339-35.492-15.035
	c-21.152-21.751-21.375-56.915-0.496-78.386c11.25-11.568,28.204-18.475,45.351-18.475c14.652,0,27.689,5.109,36.711,14.387
	c9.988,10.271,14.597,24.582,12.977,40.295c-1.5,14.547-8.272,28.97-18.582,39.572C389.596,372.053,374.846,378.483,360.03,378.483z
	"/>
<path id="eye_ring_right" class="st6" d="M369.394,269.087c13.081,0,25.817,4.27,34.918,13.629
	c20.25,20.824,14.371,55.839-5.606,76.382c-10.648,10.95-24.757,16.884-38.677,16.884c-12.195,0-24.243-4.553-33.7-14.277
	c-20.25-20.824-20.472-54.358-0.495-74.901C336.833,275.495,353.371,269.087,369.394,269.087 M369.075,264.087v5V264h0.318
	c-17.81,0-35.433,7.233-47.143,19.275c-21.814,22.432-21.592,59.181,0.495,81.894c9.903,10.183,23.144,15.802,37.284,15.802
	c15.487,0,30.891-6.701,42.261-18.393c10.694-10.997,17.721-25.96,19.277-41.056c1.697-16.463-3.318-31.482-13.831-42.294
	C398.24,269.464,385.075,264.087,369.075,264.087L369.075,264.087z"/>
<path id="eye_ring_left_1_" class="st5" d="M168.639,381c-14.817,0-29.567-6.248-40.469-17.459
	c-10.31-10.602-17.083-24.934-18.582-39.481c-1.62-15.714,2.988-29.979,12.977-40.25c9.021-9.277,22.059-14.364,36.71-14.364
	c17.148,0,34.102,6.918,45.352,18.487c20.879,21.471,20.657,56.458-0.496,78.21c-9.427,9.695-22.032,14.858-35.489,14.858
	C168.64,381,168.64,381,168.639,381z"/>
<path id="eye_ring_left" class="st6" d="M159.275,271.969c16.022,0,32.561,6.408,43.559,17.718
	c19.977,20.543,19.755,54.077-0.495,74.901c-9.456,9.724-21.505,14.277-33.7,14.277c-13.919,0-28.029-5.935-38.677-16.884
	c-19.977-20.543-25.856-55.558-5.606-76.382C133.459,276.239,146.195,271.969,159.275,271.969 M159.275,266.969
	c-15.333,0-29.007,5.378-38.503,15.143c-10.513,10.811-15.369,25.832-13.671,42.295c1.556,15.096,8.583,30.061,19.277,41.059
	c11.37,11.693,26.774,18.399,42.261,18.399c14.141,0,27.382-5.608,37.284-15.791c22.087-22.713,22.309-59.441,0.496-81.873
	C194.708,274.159,177.084,266.969,159.275,266.969L159.275,266.969z"/>
</svg>
