<svg id="Layer_1" xmlns="http://www.w3.org/2000/svg" viewBox="-108 36.473 682.172 829.527">
  <style>
    .st0{fill:#9FA88F;} .st1{fill:url(#torso_1_);} .st2{fill:#0F0E0F;} .st3{fill:#ACB2A1;} .st4{fill:#CAD1BD;} .st5{fill:#C3FFE7;} .st6{fill:#FCFCFC;}
  </style>
  <path id="eye_feathers_shadow_2" class="st0" d="M71.3 69s63.5 59 87.2 94.8c34.2 51.7-30.8 52-30.8 52L71.3 69z"/>
  <path id="eye_feathers_shadow" class="st0" d="M457.4 66.3S394 125 370.2 161C336 212.5 401 213 401 213l56.4-146.7z"/>
  <linearGradient id="torso_1_" gradientUnits="userSpaceOnUse" x1="481.9" y1="-106.8" x2="185.7" y2="295.1" gradientTransform="matrix(1 0 0 -1 0 904.946)">
    <stop offset="0" stop-color="#7DBAA0"/>
    <stop offset="0" stop-color="#76AE96"/>
    <stop offset=".1" stop-color="#5A8472"/>
    <stop offset=".2" stop-color="#436054"/>
    <stop offset=".3" stop-color="#30423B"/>
    <stop offset=".4" stop-color="#222B27"/>
    <stop offset=".5" stop-color="#171B1A"/>
    <stop offset=".6" stop-color="#111112"/>
    <stop offset=".8" stop-color="#0F0E0F"/>
  </linearGradient>
  <path id="torso" class="st1" d="M129.7 439.7s-169 24.6-96.5 189S94.6 882 94.6 882l399 11s118.5-453.5-364-453.5z"/>
  <path id="head" class="st2" d="M444 324.4c0 182.6-39.3 190.3-161.7 190.3-99.6 0-199-89-199-190.3 0-102.4 30-185.4 180.3-185.4C411.8 139 444 222 444 324.4z"/>
  <path id="beak_base" class="st3" d="M217 451.2c-6.2-5.3 36-71.5 46.6-71.5 9.8 0 53.2 66 46.7 71.5-4 3.6-26 12-46.7 19-18.5-7-43.4-16-46.7-19z"/>
  <path id="beak_point" class="st4" d="M263.6 398.4c-24 0 0 96.7 0 96.7s27-96.6 0-96.6z"/>
  <g id="eye_feathers">
    <path class="st4" d="M473 206.3s67.3-104.7-10-169.8c0 0-61.6 92.5-88.2 159.4-38.5 19.5-62.8 44.7-76 61.7-5 5.7-9.3 12-12.6 18.4v.3h-.2c-17.4 34.5-11.8 78.2 16.6 107.4 24.2 24.8 97 36.2 124-5.6 20.3-31.6 25.5-65 23.6-90.6 23.4 11.5 75.7-91.4 22.8-81zM242.6 279.3l-.2-.4c-3.3-6.6-7.5-12.8-12.4-18.4-13.3-17-37.6-42.2-76-61.8-26.8-67-88.3-159.4-88.3-159.4-77.3 65-10 169.8-10 169.8-53-10.4-.6 92.5 22.7 81-2 25.7 3.3 59 23.7 90.7 27 41.8 100 30.4 124 5.6 28.4-29.2 34-73 16.6-107.3z"/>
  </g>
  <path id="shoulder" class="st2" d="M629.7 593.7C658.7 685.2 804 1013 698 1021S474 917.2 407.5 716.6c-29.5-89-159-283.7-37-302.6 131.8-20.4 230.8 90 259.3 179.7z"/>
  <path id="arm" class="st2" d="M-55 622.4c-.4-1.7-1-3.4-1.5-5 2.7-3.5 10.3-15.2 6.4-34.6-7.2-36-7.7-57.7-7.7-57.7s-10.6-5-12 18c-.3 5.4 6.8 42.2-8 16.8-1-1.7-1.8-3-2.5-3.8-3.2-6.4-6-11.4-8.7-15.3h.2c0-105-10.2-73.5-12.8-57.8-1.7 10-4.7 37.2-5.7 46.8-10 24 93.4 352 93.4 352L226 893S-39.6 669.8-55 622.4z"/>
  <path id="neck_fold" class="st2" d="M88 366.7s22.8 74.5-24.4 99l94.4 2-70-101z"/>
  <path id="sclera" class="st5" d="M-75 447.7c31.2 48.7 100.3 37.4 118 0-20.5-48.8-96-54.4-118 0z"/>
  <ellipse id="iris" class="st4" cx="-16.7" cy="444.5" rx="28.5" ry="29.3"/>
  <ellipse id="pupil" class="st2" cx="-16.7" cy="444.5" rx="20.9" ry="21.5"/>
  <path id="eye_right" class="st5" d="M360 378.5c-13.4 0-26-5.4-35.5-15-21-21.8-21.3-57-.5-78.4 11.3-11.5 28.2-18.4 45.4-18.4 14.6 0 27.7 5 36.7 14.4 10 10.2 14.7 24.6 13 40.3-1.4 14.5-8.2 29-18.5 39.5-11 11.3-25.7 17.7-40.5 17.7z"/>
  <path id="eye_ring_right" class="st6" d="M369.4 269c13 0 25.8 4.4 35 13.7 20.2 20.8 14.3 56-5.7 76.4-10.6 11-24.8 17-38.7 17-12.2 0-24.2-4.6-33.7-14.3-20.2-20.8-20.4-54.4-.5-75 11-11.2 27.6-17.6 43.6-17.6m-.3-5v5-5h.4c-17.8 0-35.4 7.2-47.2 19.3-21.8 22.4-21.5 59.2.5 82 10 10 23.2 15.7 37.3 15.7 15.5 0 31-6.7 42.3-18.4 10.7-11 17.7-26 19.3-41 1.7-16.5-3.4-31.6-14-42.4-9.4-9.7-22.5-15-38.5-15z"/>
  <path id="eye_ring_left_1_" class="st5" d="M168.6 381c-14.8 0-29.5-6.2-40.4-17.5-10.3-10.6-17-25-18.6-39.4-1.6-15.7 3-30 13-40.2 9-9.3 22-14.4 36.7-14.4 17 0 34 7 45.3 18.5 21 21.4 20.7 56.4-.5 78-9.3 9.8-22 15-35.4 15z"/>
  <path id="eye_ring_left" class="st6" d="M159.3 272c16 0 32.5 6.4 43.5 17.7 20 20.5 19.8 54-.5 75-9.4 9.6-21.5 14.2-33.7 14.2-14 0-28-6-38.6-17-20-20.6-26-55.6-5.6-76.4 9-9.4 21.8-13.6 35-13.6m0-5c-15.5 0-29 5.3-38.6 15-10.5 11-15.4 26-13.7 42.4 1.7 15 8.7 30 19.4 41 11.3 11.8 26.8 18.5 42.2 18.5 14.2 0 27.4-5.7 37.3-16 22-22.6 22.2-59.4.4-81.8-11.7-12-29.3-19.2-47-19.2z"/>
</svg>
