<svg xmlns="http://www.w3.org/2000/svg" viewBox="0 0 307.4 226.8">
  <style>
    .st0{fill:#4C4C4C;} .st1{fill:#B7B7B7;} .st2{fill:#666666;stroke:#000000;stroke-width:8;stroke-miterlimit:10;} .st3{fill:#C9CDD3;stroke:#000000;stroke-width:8;stroke-linecap:round;stroke-linejoin:round;stroke-miterlimit:10;} .st4{stroke:#000000;stroke-width:8;stroke-linecap:round;stroke-linejoin:round;stroke-miterlimit:10;} .st5{fill:#4CB9D3;stroke:#000000;stroke-width:8;stroke-miterlimit:10;} .st6{fill:#C9CDD3;stroke:#000000;stroke-width:8;stroke-linecap:round;stroke-miterlimit:10;} .st7{fill:#1E1E1E;} .st8{fill:#3A3A3A;} .st9{fill:#4CB9D3;} .st10{fill:#12DEEF;}
  </style>
  <path class="st8" d="M111.7 28l6 12c1.3.4 2 0 2.3-1.5L113.5 26h12v25h.2c0 1 1 1.3 2.3 1l15.2-24c1-.6 1.6-1.3 2-2.3h.2v-3h-17V16c1-.2.7-.4 1-.7.7-.8 1.2-1.8 1.2-3 0-1-.3-2-1-2.8-.7-.8-1.6-1-2.6-1s-1.8.2-2.5 1c-.8.7-1.2 1.6-1.2 3 0 1 .2 2 1 3 .3.4 1.3.7 1.3 1v6.3h-15v3h-.3c0 1 .6 1.6 1.4 2.2zm29.2-2l-12.5 19.8V26H141zm34.5 12v7.8c-1 .5-1.5 1.2-1.8 2-.3 1 0 2 .3 2.7.4.8 1 1.4 1.6 1.8s1.5.5 2.5.4 2-.6 2.6-1.6 1-1.7.8-2.6-.3-1.5-.8-2-1-.7-1-.8v-8c4-.5 7.7-2 11-4 4-2.7 7.2-6.2 9.7-11 0-1.6-1.2-1-3.5 1.7-2.3 2.8-4.8 5-7.6 7-2.3 1.4-5.6 2.3-9.6 2.5V13c0-2.4.3-4 .7-5 .4-.8 1-1.6 1.8-2.3s2-1.3 3-1.6 2.5-.5 3.6-.6c1 0 3-.2 7-.2V0h-6.5l-4 .6c-1.6.3-3 .8-4.2 1.6s-2.8 2-3.8 3.5-1.5 4-1.5 7.3v21c-3 0-5.7-.6-8.2-2-2.7-1.2-4.5-2.4-5.5-3.3L159 26l-2-3c-.8-1.2-1.3-1-1.7.7 0 1.6 1.4 3.7 3.8 6.3 2.5 2.6 5.3 4.6 8.8 6 3 1.2 5.7 1.8 7.7 2zm44.2 3.8c2.8 1 5.8 1.8 7.8 2V52s.2 1 .4 1.4c0 .4.5.5 1 .5s1-.3 1.3-.6c.2-.3.4-1 .5-1.7v-8.3c4.2-.5 8-2 11.3-4 4-2.7 7.2-6.3 9.7-11 0-1.6-1.2-1-3.5 1.7s-5 5-8 7c-2.3 1.5-5.8 2.4-9.8 2.6v-24c1-.2.8-.4 1-.7.7-1 1.2-1.8 1.2-3s-.3-2.2-1-3c-.8-.7-1.7-1-2.7-1-1 0-2 .4-2.6 1-.8 1-1.2 2-1.2 3 0 1.3.4 2.2 1 3 .4.3 0 .5 1 .7v24c-3 0-5.8-.6-8.3-1.8-2.8-1.4-5.4-3.6-8-6.6-2.4-3-3.8-3.6-4.2-2 .2 1.6 1.5 3.7 4 6.3 2.4 2.6 5.4 4.6 9 6zm63-8.5l12.2 8.2c0 2.2 1.3 3.6 3.6 4 2.2 0 3.7-1 4.5-3 .3-1.5 0-2.8-.6-3.7-.7-1-2-1.4-3.8-1.5-1 0-1.6.4-2.2 1l-12-8V17.8c1-.6 1.6-1.3 2-2.4.2-1.5 0-2.8-.7-3.7-.7-1-2-1.5-3.8-1.6-2.4.4-3.6 1.6-3.8 4 0 1.7.3 3 2.3 3.7v12.2l-12 7.7c-.5-.3-1.3-.5-2.2-.5-2.3.4-3.5 1.7-3.8 4 0 2.3 1.3 3.7 3.8 4 2.2 0 3.7-.8 4.5-2.8v-2.2l11.8-7.2zm-244.2 62c-2.3.5-3.6 1.7-3.8 4 0 .6 0 1 .2 1.5l-4.5 4c-2.6-2.3-5.7-3.5-9.3-3.5-3.7 0-6.8 1-9.4 3.3l-4-3.7.2-.4c.2-1.5 0-2.8-.7-3.7s-2-1.5-3.8-1.6c-2 .4-3.3 1.6-3.5 4 0 2.3 1.3 3.7 3.8 4.2.7 0 1.4 0 2-.3l4 3.7C8 109.3 7 112 7 115s.7 5.3 2 7.4l-4.3 4h-1C1.6 126.6.3 128 0 130c0 2.4 1.3 3.8 3.8 4.2 2.2 0 3.7-1 4.5-3 .2-1.3 0-2.5-.6-3.4l3.3-3c2.8 2.7 6 4 10 4s7.2-1.3 10-4l4 3.3c-.4.5-.6 1-.7 2 0 2.3 1.3 3.7 3.8 4 2.3 0 3.7-.8 4.5-2.8.2-1.5 0-2.8-.7-3.7-.7-1-2-1.4-3.7-1.5h-.5l-4.4-4c1.4-2.2 2-4.6 2-7.3 0-3-.8-5.5-2.3-7.7l4.4-4 1.5.3c2.2 0 3.7-1 4.5-3 .2-1.4 0-2.7-.7-3.6s-2-1.6-3.8-1.6zm-10.7 27.3c-1.8 1.5-4.2 2.2-7 2.2-2.6 0-4.7-.6-6.3-2-2-1.7-3.2-4.3-3.2-7.6 0-3.2 1-5.6 3-7.3 1.7-1.5 4-2 6.6-2 2.8 0 5 .6 6.7 2 2 1.6 3 4.2 3 7.6 0 3.2-1 5.6-3 7zm62-27c-1.3-1-2.6-1.8-4-2.4-1.3-.6-3.7-1.2-7-1.7-3-.2-5.5-.2-7.2 0L66.8 93c-1.5.5-3 1.3-4.8 2.6s-3.4 3-5 5.2-2.8 4.5-3.6 6.7L53 110c-.8.8-1.3 1.8-1.3 3s.4 2.2 1 3c.8.7 1.7 1 2.7 1s2-.4 2.7-1.2 1.2-1.8 1.2-3c0-1-.3-1.7-.8-2.4.5-2 1.3-4 2.4-6 1.5-2.5 3.3-4.5 5.4-6s4.5-2 7-2.4c2.5-.3 5 0 7.7.6 2.5.7 5.3 2.3 8.2 4.8 3.2 3 4.8 7 4.8 12 0 2-.2 4-.6 5.7-.4 1.8-1 3.5-1.8 5-.8 1.6-1.8 3-3 4.2-1.7 2-3.7 3.4-6 4.4-2.2 1-4.7 1.4-7.4 1.4-6 0-10.4-2-13-6l8-12.3 7 6 6.2-7.6 2.7 4.2 3.4-3-6.2-8.8-6.7 9-7.2-7-12.7 20c3.5 6 9.5 9.5 18.2 10 7 0 12.6-2.4 17.2-7 4.5-4.7 6.8-10.5 6.8-17.4.4-5-1-9.6-4-14-1.8-2-3.5-3.6-5-4.5zm49 29.3l3.8 3.3c-.3.5-.5 1-.6 2 0 2.3 1.3 3.7 3.8 4 2.2 0 3.6-.8 4.4-2.8.2-1.5 0-2.8-.7-3.7-.7-1-2-1.4-3.7-1.5h-.6l-4.4-4c1.3-2.2 2-4.6 2-7.3 0-3-1-5.5-2.4-7.7l4.4-4 1.4.3c2.2 0 3.7-1 4.5-3 .2-1.4 0-2.7-.7-3.6s-2-1.4-3.8-1.5c-2.3.4-3.6 1.6-3.8 4 0 .5 0 1 .2 1.4l-4.4 4c-2.6-2.4-5.7-3.6-9.3-3.6-3.8 0-7 1-9.5 3.3l-4-3.7.2-.3c.2-1.5 0-2.8-.7-3.7s-2-1.4-3.8-1.5c-2.3.4-3.6 1.6-3.8 4 0 2.3 1.3 3.7 3.8 4.2.7 0 1.4 0 2-.3l4 3.7c-1.8 2.4-2.7 5-2.7 8.2 0 2.8.6 5.2 2 7.3l-4.4 4h-.8c-2.3.3-3.6 1.6-3.8 3.8 0 2.4 1.3 3.8 3.8 4.2 2.2 0 3.7-1 4.5-3 .2-1.3 0-2.5-.6-3.4l3.4-3v.2c2.8 2.6 6 4 10 4 4.2-.3 7.5-1.6 10.3-4.3zm-3.3-2.4c-1.8 1.5-4.2 2.2-7 2.2-2.6 0-4.7-.6-6.3-2-2-1.7-3.2-4.3-3.2-7.6 0-3.2 1-5.6 3-7.3 1.7-1.5 4-2 6.6-2 3 0 5 .6 6.8 2 2 1.6 3 4.2 3 7.6 0 3.2-1 5.6-3 7zM199.5 129.7v3.8l22 4.4v-4.4l-15.3-2.7 15-5h.3v-3.2l-17.7-7.7 17.7-6.5V105v.2l-14.7-5.3 14.6-2V94l-22 3v4l17.2 5.7-17.2 6.2V117l17.4 7.3-17.3 5.4M254.5 88.5c-5.2-.4-9.6 1-13.2 4-2.8 2.5-4.3 5.8-4.5 9.8.2 4.3 1.7 8 4.7 11s7 5.3 12 7.3c-1.7-.2-3.7-.5-6-1-6.2-1.3-10.6-2-13.3-2-2.6 0-2 1 1.7 3h.3-.5c4.6 3 8.6 5.8 12 8.5s5.5 5 6.8 7.2 2 1.7 2-1-2.2-5.5-6.8-8.8c-2.6-1.8-4.8-3.2-6.7-4l4.6.8c1.3.2 4.2.5 8.8.7 2.4 0 4-.2 5-1h.3c2-1.6 1.7-2.8-1-3.4s-6.5-2-11-4.2c-3.8-2.2-6.2-4.3-7.4-6.2s-1.8-4.5-1.8-8c.5-3 1.5-5 3-6.4 1.3-1.2 3-2 5.2-2.6 3-.6 5.7-.5 8 .3 3 .7 5.2 2.6 6.6 5.7.8 2.8.8 5 0 6.7-1 1.6-2.2 3-4 3.7-1.6 1-3.6 1-6 .2-2.6-1-4-2.5-4.7-5-.2-3.4 1-5.4 4-5.8 2.6.3 3.7 1.7 3.2 4 .8 1.2 1.6 1.2 2.6 0 .8-1.8.5-3.4-.7-5s-2.8-2-4.6-1.8c-2-.2-3.7.4-5.2 1.8s-2.4 3.3-2.4 5.8c0 2.6 1 4.6 2.6 6.2 1.6 1.6 3.4 2.6 5.3 3 4 .6 7.3 0 9.3-1.8 3.6-2.6 5-6.2 4.6-11-1-6-5-9.8-12.7-11zm7 37c-1 0-1.8.3-2.5 1-.8.6-1.2 1.5-1.2 2.6 0 1.2.3 2 1 2.8.7.7 1.5 1 2.6 1s2-.3 2.6-1c.7-.7 1-1.6 1-2.7 0-1-.3-1.8-1-2.5-.8-.6-1.6-1-2.5-1zM290 138c3.3-.2 5.8-.8 7.5-1.8 1.7-1 3-2.4 4.2-4.4 1-2 1-4.4.2-7-.4-1-1-2-2-3 2-1.6 3.2-3.5 3.6-5.7.7-3.2.2-5.7-1.5-7.5-1.5-1.8-3.2-3.2-4.8-4-1-.6-2-1-3.5-1.4-.3-2-2-5-4.8-8l-.4-.3c0-1-.4-1.6-1-2.3-.7-.8-1.6-1.2-2.6-1.2s-1.8.3-2.5 1c-.8.8-1.2 1.8-1.2 3s.4 2.2 1 3c.8.8 1.7 1 2.7 1s2-.3 2.7-1v-.3c1.6 1.7 2.6 3 3 4.2l-1.6-.3c-3.7-.7-7.2-.4-10.2 1-3 1.2-3.4 3-1.2 5 2.2 2.3 5.2 3 9 2.2 3.4-.7 5.7-2 6.7-4.2 1.4.5 2.6 1 3.8 2 2.4 1.4 3.6 3.5 3.8 6 0 2-.8 4-2.8 6l-1-.7-1.2-1c-1.5-.8-3-1.4-4.8-1.6-1.7-.2-3.2 0-4.4.7-1.2.6-2 1.6-2.8 2.8-.7 1.3-.5 2.6.5 4 1 1.6 2.8 2.4 5.3 2.4s5-.8 7.6-2.6l.4.5c1 1.2 1.3 2.6 1.2 4-.2 1.6-1 3-2.8 4-1.7 1-3.8 1.5-6.3 1.7-2 0-4.5-.4-7.2-1.5 0-1-.4-2-1-2.6-.8-.7-1.7-1-2.6-1s-2 .3-2.7 1c-.8.8-1.2 1.8-1.2 3s.5 2.2 1.2 3c.7.8 1.6 1 2.6 1 .8 0 1.5 0 2-.5 3.3 1 6.4 1.7 9.3 1.5zm-2.5-31c-2.5 1-4.6 1-6.3 0s-1.6-1.8.2-2c1.8-.5 4.3-.4 7.5 0 .3 0 .7 0 1 .2-.4.6-1.3 1.2-2.5 1.7zm1.3 16.7c-1.4 0-2.2-.8-2.2-2s.5-2 1.8-2.3c1.3-.3 2.3-.4 2.8 0 .6 0 1 .4 1.7.8l.7.6c.6.5 1 1 1.6 1.3-1 .8-2 1.3-3 1.5-1 .3-2 .4-3.5.2zm-149 74.3c-.8.8-1.2 1.7-1.2 3 0 1.2.4 2.2 1 3s1.7 1 2.7 1 2-.3 2.7-1 1-2 1-3-.3-2-1-2.8-1.6-1-2.6-1-2 0-2.6.8zm15-15.8l-5-4.8c-2.6 1.8-5 4-7 6.8-1.6-2.6-4-4.8-7.8-6.7l-4.4 4.4c3.7.7 6.7 2 9 4.3-5 3.6-7.5 8.4-7.5 14.6.5 5.5 2.7 10 6.6 13.4-2.2 1.7-4.7 3-7.4 4.3l4.3 4c2.4-1.6 4.6-3.6 6.7-6 2.2 2.7 4.7 4.6 7.3 6l3.8-4c-3-.6-5.4-2-7.6-4 4.4-3.3 6.7-8 7-14-.3-6-2.6-10.8-6.8-14 1.7-2 4.6-3.6 8.7-4.5zm-8.6 11c1 1.8 1.8 3.7 2.3 5.8s.2 4.4-.7 7-2.7 4.7-5.5 6.7c-3-2-4.8-4.4-5.7-7.3s-1-5.4-.5-7.4 1.5-3.7 2.5-5 2.3-2.6 4-3.6c1.4 1 2.6 2.2 3.7 4zm58.2 10c-2.3 2.6-5 5-8 6.8-2.3 1.5-5 2.4-10 2.6v-24.1c1-.2 1-.4 1.2-.7.7-.8 1.2-1.7 1.2-3 0-1-.3-2-1-2.8-.7-.8-1.6-1-2.6-1s-1.8.3-2.5 1c-.8.8-1.2 1.8-1.2 3s.4 2 1 3c.4.2 1 .4 1 .6v24c-3 0-5.8-.6-8.3-1.8-2.7-1.3-5.3-3.5-7.8-6.5s-4-3.6-4.3-2c.3 1.6 1.5 3.7 4 6.3s5.3 4.6 8.8 6c2.8 1.2 5.7 2 7.7 2v8.3s.3 1 .5 1.3.6.5 1.2.5 1-.2 1.2-.5.4-1 .5-1.7v-8.3c4-.5 7.8-2 11.2-4 4-2.7 7-6.3 9.6-11 0-1.5-1-1-3.4 1.8zM241.6 212.4v-3.2l-17.3-7.7 18.2-6.6v-3.5h-1l-14.4-5.2 15-2-.3-3.7-22.2 3h.2l.2 4 17.2 5.7-17.5 6.3h-.2V203.4l17.8 7.3-16.8 5.4v4l22 4.3V220l-15.5-2.7"/>
  <path class="st10" d="M304 179.4c-2.2-2.2-5-3.2-8.4-3.2-3.4 0-6 1-8.3 3.2-2.2 2.2-3.3 5-3.3 8l.4 2.6s7-2.5 7-2.7v-.4c0-1.3.4-2.3 1-3 1-1 2-1.3 3.4-1.3s2.5.4 3.3 1.3c1 .8 1.4 2 1.4 3.4s-.4 2.4-1.2 3c-.8.8-2.7 1.7-5.8 2.8-3 1.2-5.3 2.4-6.6 4-1.2 1.3-2 3.2-2 5.7 0 3 1 5.4 3 7.5 2 2 4.6 3 7.6 3V207c-2 0-3.6-1.8-3.6-3.7 0-1.7 1.4-3 4-4 4-1 6.8-2.3 8-3.6 2.4-2 3.5-4.8 3.5-8 0-3.4-1-6-3.3-8.3zm-8.3 37.6c-2.4 0-4.2 2-4.2 4.2 0 2.5 1.8 4.3 4.3 4.3 2.4 0 4.2-2.2 4.2-4.3 0-2.3-2-4.2-4.3-4.2z"/>
</svg>
