<svg xmlns="http://www.w3.org/2000/svg" version="1.1" x="0" y="0" viewBox="0 0 307.4 226.8" xml:space="preserve"><style type="text/css">
	.st0{fill:#4C4C4C;}
	.st1{fill:#B7B7B7;}
	.st2{fill:#666666;stroke:#000000;stroke-width:8;stroke-miterlimit:10;}
	.st3{fill:#C9CDD3;stroke:#000000;stroke-width:8;stroke-linecap:round;stroke-linejoin:round;stroke-miterlimit:10;}
	.st4{stroke:#000000;stroke-width:8;stroke-linecap:round;stroke-linejoin:round;stroke-miterlimit:10;}
	.st5{fill:#4CB9D3;stroke:#000000;stroke-width:8;stroke-miterlimit:10;}
	.st6{fill:#C9CDD3;stroke:#000000;stroke-width:8;stroke-linecap:round;stroke-miterlimit:10;}
	.st7{fill:#1E1E1E;}
	.st8{fill:#3A3A3A;}
	.st9{fill:#4CB9D3;}
	.st10{fill:#12DEEF;}
</style><path class="st8" d="M111.7 28l5.9 12c1.4 0.4 2.2-0.1 2.4-1.5L113.5 26l12 0v24.9c0 0 0.2 0 0.2 0 0 1.1 0.9 1.4 2.3 1l15.2-23.8c0.9-0.7 1.6-1.4 1.9-2.4h0.3v-3h-17V16c1-0.2 0.7-0.4 1-0.7 0.7-0.8 1.2-1.8 1.2-3 0-1.1-0.3-2.1-1-2.8 -0.7-0.8-1.6-1.1-2.6-1.1 -1 0-1.8 0.3-2.5 1 -0.8 0.8-1.2 1.7-1.2 3 0 1.2 0.2 2.2 0.9 3 0.4 0.5 1.4 0.8 1.4 1v6.4h-15v3h-0.3C110.4 26.7 110.9 27.4 111.7 28zM140.9 26l-12.4 19.8V26L140.9 26zM175.5 37.9v7.9c-1 0.5-1.5 1.2-1.8 2.1 -0.3 0.9-0.1 1.8 0.3 2.6 0.4 0.8 1 1.4 1.6 1.8s1.5 0.5 2.5 0.4 1.8-0.6 2.5-1.6 1-1.8 0.8-2.7 -0.3-1.5-0.8-2 -1.1-0.7-1.1-0.8v-8c4-0.5 7.8-1.9 11.2-4.1 3.9-2.6 7.1-6.1 9.6-10.8 0-1.7-1.2-1.2-3.5 1.6 -2.3 2.8-4.8 5.1-7.6 6.9 -2.3 1.5-5.6 2.4-9.6 2.6v-4.7V12.9c0-2.3 0.3-3.9 0.7-4.8 0.4-0.9 1-1.7 1.8-2.4s1.8-1.3 3-1.6 2.4-0.6 3.5-0.7c1.1-0.1 3.1-0.2 7.1-0.2V0c-3 0-5.4 0-6.6 0.1 -1.2 0.1-2.6 0.2-4.1 0.5 -1.6 0.3-3 0.8-4.2 1.6S178 4.1 177 5.7c-1 1.5-1.5 4-1.5 7.3v14.9V34c-3 0-5.7-0.6-8.2-1.9 -2.7-1.3-4.5-2.5-5.5-3.4s-1.9-1.8-2.7-2.7 -1.5-1.9-2.2-3c-0.7-1.2-1.2-1-1.6 0.7 0.1 1.6 1.4 3.7 3.8 6.3 2.4 2.6 5.2 4.6 8.7 6.1C170.7 37.2 173.5 37.8 175.5 37.9zM219.7 41.8c2.8 1.1 5.8 1.8 7.8 1.9V49c0 1.5-0.1 2.6 0 3.1s0.2 1 0.4 1.3c0.2 0.4 0.6 0.5 1.2 0.5s1-0.2 1.2-0.5c0.2-0.3 0.4-0.9 0.5-1.7 0.1-0.7 0.1-3.5 0-8.3 4.2-0.5 7.9-1.9 11.3-4.1 3.9-2.6 7.1-6.2 9.6-10.8 0-1.7-1.2-1.2-3.5 1.6s-5 5-7.9 6.9c-2.4 1.5-5.9 2.4-9.9 2.6v-6.4V15.6c1-0.2 0.8-0.4 1-0.7 0.7-0.8 1.2-1.7 1.2-2.9 0-1.2-0.3-2.2-1.1-2.9 -0.7-0.8-1.6-1.1-2.6-1.1 -1 0-1.8 0.4-2.5 1.1 -0.8 0.8-1.2 1.8-1.2 3 0 1.2 0.4 2.1 1.1 2.9 0.3 0.3 0 0.5 1 0.7v16.1 8c-3 0-5.9-0.7-8.4-1.9 -2.7-1.3-5.3-3.5-7.8-6.5 -2.5-3-3.9-3.6-4.3-2 0.2 1.6 1.5 3.7 3.9 6.3C213.2 38.3 216.2 40.3 219.7 41.8zM282.6 33.3l12.3 8.2c0.1 2.2 1.4 3.6 3.7 3.9 2.2 0 3.7-0.9 4.5-2.9 0.2-1.5 0-2.8-0.7-3.7 -0.7-0.9-1.9-1.4-3.8-1.5 -0.9 0.1-1.6 0.4-2.2 0.9l-11.9-8V17.9c1-0.5 1.5-1.2 1.9-2.3 0.2-1.5 0-2.8-0.7-3.7 -0.7-0.9-1.9-1.4-3.8-1.5 -2.3 0.4-3.5 1.6-3.7 3.9 0.1 1.8 0.3 3.1 2.3 3.8v12.1l-11.9 7.7c-0.6-0.2-1.4-0.4-2.3-0.4 -2.3 0.4-3.5 1.7-3.8 3.9 0 2.4 1.3 3.8 3.8 4.2 2.2 0 3.7-0.9 4.5-2.9 0.1-0.8 0.1-1.6-0.1-2.2L282.6 33.3zM38.5 95.4c-2.3 0.4-3.6 1.6-3.8 3.9 0 0.6 0.1 1.1 0.2 1.5l-4.4 4.1c-2.6-2.4-5.7-3.6-9.3-3.6 -3.7 0-6.8 1.1-9.4 3.3l-3.9-3.7c0-0.1 0.1-0.2 0.1-0.3 0.2-1.5 0-2.8-0.7-3.7s-2-1.4-3.8-1.5C1.5 95.8 0.2 97 0 99.3c0.1 2.4 1.3 3.8 3.8 4.3 0.7 0 1.4-0.1 2-0.3l3.9 3.7c-1.7 2.3-2.6 5-2.6 8.1 0 2.8 0.6 5.2 1.9 7.3l-4.3 4c-0.3 0-0.6-0.1-0.9-0.1 -2.3 0.4-3.6 1.7-3.8 3.9 0.1 2.4 1.3 3.8 3.8 4.2 2.2 0 3.7-0.9 4.5-2.9 0.2-1.4 0-2.6-0.6-3.5l3.3-3c0 0 0.1 0.1 0.1 0.1 2.7 2.6 6 3.9 9.9 3.9 3.9 0 7.2-1.3 9.9-4 0 0 0 0 0.1-0.1l3.9 3.4c-0.3 0.5-0.5 1.1-0.6 1.9 0.1 2.4 1.3 3.8 3.8 4.2 2.2 0 3.6-0.9 4.4-2.9 0.2-1.5 0-2.8-0.7-3.7 -0.7-0.9-1.9-1.4-3.7-1.5 -0.2 0-0.4 0.1-0.6 0.1l-4.4-4.2c1.3-2.1 1.9-4.5 1.9-7.2 0-2.9-0.8-5.5-2.3-7.7l4.4-4.1c0.4 0.2 0.9 0.3 1.4 0.4 2.2 0 3.7-0.9 4.5-2.9 0.2-1.5 0-2.8-0.7-3.7S40.3 95.4 38.5 95.4zM27.8 122.6c-1.8 1.5-4.2 2.2-6.9 2.2 -2.7 0-4.8-0.6-6.4-1.9 -2.1-1.8-3.2-4.4-3.2-7.7 0-3.2 1-5.6 3.1-7.3 1.6-1.4 3.8-2 6.5-2 2.9 0 5.1 0.7 6.8 2 2 1.7 3 4.3 3 7.7C30.6 118.8 29.6 121.2 27.8 122.6zM89.9 95.5c-1.4-0.9-2.7-1.7-4.1-2.3 -1.3-0.6-3.7-1.2-7-1.7 -3.1-0.2-5.5-0.2-7.2 0.1 -1.7 0.3-3.3 0.8-4.8 1.3 -1.5 0.6-3.1 1.4-4.8 2.7s-3.4 3-5 5.2 -2.8 4.5-3.6 6.7c-0.2 0.9-0.3 1.7-0.4 2.5 0 0 0 0 0 0 -0.8 0.8-1.3 1.8-1.3 3 0 1.2 0.4 2.2 1.1 2.9 0.7 0.8 1.6 1.1 2.6 1.1s1.9-0.4 2.7-1.2 1.1-1.8 1.1-3c0-0.9-0.3-1.7-0.8-2.4 0.5-2 1.3-3.9 2.4-5.9 1.5-2.6 3.3-4.6 5.4-6s4.5-2.2 7-2.5c2.5-0.3 5.1 0 7.7 0.6 2.6 0.7 5.4 2.3 8.3 4.8 3.2 3.1 4.8 7.1 4.8 12.1 0 2-0.2 3.8-0.6 5.6 -0.4 1.7-1 3.4-1.8 4.9 -0.8 1.6-1.8 2.9-2.9 4.2 -1.8 2-3.8 3.4-6.1 4.4 -2.2 1-4.7 1.4-7.4 1.4 -6 0-10.4-2-13-5.9l7.9-12.4 7.1 5.9 6.2-7.5 2.7 4.1 3.3-3 -6.2-8.8 -6.7 9 -7.2-7.1 -12.7 20c3.5 6.2 9.5 9.6 18.2 10 6.9 0 12.6-2.3 17.2-7 4.5-4.6 6.8-10.4 6.8-17.3 0.4-5-1-9.6-3.9-13.9C93 98 91.3 96.4 89.9 95.5zM138.7 124.9l3.9 3.4c-0.3 0.5-0.5 1.1-0.6 1.9 0.1 2.4 1.3 3.8 3.8 4.2 2.2 0 3.6-0.9 4.4-2.9 0.2-1.5 0-2.8-0.7-3.7 -0.7-0.9-1.9-1.4-3.7-1.5 -0.2 0-0.4 0.1-0.6 0.1l-4.4-4.2c1.3-2.1 1.9-4.5 1.9-7.2 0-2.9-0.8-5.5-2.3-7.7l4.4-4.1c0.4 0.2 0.9 0.3 1.4 0.4 2.2 0 3.7-0.9 4.5-2.9 0.2-1.5 0-2.8-0.7-3.7s-2-1.4-3.8-1.5c-2.3 0.4-3.6 1.6-3.8 3.9 0 0.6 0.1 1.1 0.2 1.5l-4.4 4.1c-2.6-2.4-5.7-3.6-9.3-3.6 -3.7 0-6.8 1.1-9.4 3.3l-3.9-3.7c0-0.1 0.1-0.2 0.1-0.3 0.2-1.5 0-2.8-0.7-3.7s-2-1.4-3.8-1.5c-2.3 0.4-3.6 1.6-3.8 3.9 0.1 2.4 1.3 3.8 3.8 4.3 0.7 0 1.4-0.1 2-0.3l3.9 3.7c-1.7 2.3-2.6 5-2.6 8.1 0 2.8 0.6 5.2 1.9 7.3l-4.3 4c-0.3 0-0.6-0.1-0.9-0.1 -2.3 0.4-3.6 1.7-3.8 3.9 0.1 2.4 1.3 3.8 3.8 4.2 2.2 0 3.7-0.9 4.5-2.9 0.2-1.4 0-2.6-0.6-3.5l3.3-3c0 0 0.1 0.1 0.1 0.1 2.7 2.6 6 3.9 9.9 3.9C132.6 128.9 135.9 127.6 138.7 124.9 138.7 124.9 138.7 124.9 138.7 124.9zM135.5 122.6c-1.8 1.5-4.2 2.2-6.9 2.2 -2.7 0-4.8-0.6-6.4-1.9 -2.1-1.8-3.2-4.4-3.2-7.7 0-3.2 1-5.6 3.1-7.3 1.6-1.4 3.8-2 6.5-2 2.9 0 5.1 0.7 6.8 2 2 1.7 3 4.3 3 7.7C138.3 118.8 137.3 121.2 135.5 122.6z"/><polygon class="st8" points="199.5 129.7 199.5 129.7 199.5 133.5 221.5 137.9 221.5 133.6 206.2 130.9 221.2 126 221.5 126.1 221.5 126 221.6 122.8 221.5 122.9 221.5 122.8 203.8 115.1 221.5 108.5 221.5 105.1 221.5 105.2 221.5 105.1 206.8 99.9 221.4 97.9 221.5 94.2 199.5 97.2 199.5 97.2 199.3 97.2 199.4 101.3 216.6 106.9 199.4 113.2 199.5 113.2 199.5 113.2 199.4 116.8 199.5 116.7 199.5 117 216.8 124.3 199.5 129.7 "/><path class="st8" d="M254.5 88.5c-5.2-0.4-9.6 0.9-13.2 3.9 -2.8 2.6-4.3 5.9-4.5 9.9 0.2 4.3 1.7 8 4.7 11.1 2.9 2.8 6.9 5.2 12.1 7.2 -1.8-0.2-3.8-0.5-6-1 -6.3-1.3-10.7-2-13.4-2 -2.6 0-2.1 1 1.7 3 0.1 0 0.3 0.1 0.4 0.1l-0.5 0c4.6 2.9 8.6 5.7 11.9 8.4s5.6 5 6.9 7.1 2 1.7 2-0.9 -2.2-5.6-6.8-8.9c-2.6-1.8-4.8-3.2-6.7-4.1 2.3 0.5 3.8 0.8 4.5 0.9 1.3 0.2 4.2 0.5 8.8 0.7 2.4 0.1 4.1-0.1 5.1-0.8 0.1 0 0.1 0 0.2 0 2.1-1.7 1.7-2.9-1.1-3.5s-6.4-2.1-10.9-4.2c-3.8-2.2-6.2-4.3-7.4-6.2s-1.8-4.5-1.8-7.9c0.5-3.1 1.5-5.2 2.9-6.5 1.4-1.2 3.2-2.1 5.3-2.6 3-0.6 5.7-0.5 8.1 0.3 2.9 0.7 5.1 2.6 6.5 5.7 0.8 2.8 0.8 5-0.1 6.7 -0.8 1.7-2.1 3-3.8 3.8 -1.7 0.9-3.7 1-6.2 0.2 -2.5-0.8-4-2.4-4.6-4.9 -0.2-3.4 1.1-5.4 3.9-5.8 2.7 0.3 3.8 1.7 3.3 4 0.8 1.2 1.6 1.2 2.6 0 0.8-1.8 0.5-3.4-0.7-4.9s-2.8-2.1-4.6-1.9c-2-0.2-3.8 0.4-5.3 1.8s-2.4 3.3-2.4 5.8c0.1 2.6 0.9 4.6 2.6 6.2 1.6 1.6 3.4 2.6 5.3 3 4.1 0.6 7.3 0 9.3-1.8 3.6-2.6 5.1-6.2 4.6-10.9C266.3 93.4 262.1 89.6 254.5 88.5zM261.5 125.5c-1 0-1.8 0.3-2.5 0.9 -0.8 0.7-1.2 1.6-1.2 2.7 0 1.1 0.3 2 1 2.7 0.7 0.7 1.5 1 2.6 1s1.9-0.3 2.6-1c0.7-0.7 1-1.6 1-2.7 0-1-0.3-1.9-1-2.6C263.2 125.9 262.4 125.5 261.5 125.5zM290.1 138c3.2-0.2 5.7-0.8 7.4-1.8 1.7-1 3.1-2.4 4.2-4.4 1.1-2 1.1-4.4 0.2-7.1 -0.3-1-0.9-1.9-1.8-2.8 1.9-1.7 3.1-3.6 3.5-5.8 0.7-3.3 0.2-5.8-1.5-7.6 -1.6-1.8-3.3-3.2-4.9-4.1 -0.9-0.5-2-0.9-3.5-1.3 -0.3-2.2-1.9-5-4.8-8.2 -0.1-0.1-0.2-0.1-0.3-0.2 -0.1-0.9-0.4-1.6-1-2.3 -0.7-0.8-1.6-1.2-2.6-1.2s-1.8 0.3-2.5 1c-0.8 0.8-1.2 1.8-1.2 3 0 1.2 0.4 2.2 1.1 3 0.7 0.8 1.6 1.1 2.6 1.1s1.9-0.4 2.7-1.2c0 0 0.1-0.1 0.1-0.2 1.5 1.8 2.5 3.2 2.9 4.3 -0.5-0.1-1-0.2-1.6-0.3 -3.8-0.6-7.3-0.3-10.3 1 -3 1.3-3.4 3-1.2 5.2 2.2 2.2 5.2 2.9 9 2.1 3.4-0.7 5.7-2.1 6.7-4.2 1.4 0.5 2.6 1.1 3.8 1.9 2.3 1.5 3.5 3.6 3.7 6.2 0.1 1.9-0.8 3.9-2.8 5.9 -0.3-0.2-0.7-0.4-1-0.7 -0.4-0.3-0.8-0.6-1.2-0.9 -1.5-0.9-3.1-1.5-4.8-1.7 -1.7-0.2-3.2 0.1-4.4 0.7 -1.2 0.6-2.1 1.6-2.8 2.8 -0.7 1.3-0.5 2.6 0.5 4.1 1 1.5 2.8 2.3 5.3 2.3 2.5 0 5-0.8 7.6-2.6 0.2 0.2 0.3 0.3 0.4 0.5 0.9 1.2 1.3 2.6 1.2 4.1 -0.2 1.5-1.1 2.8-2.8 3.8 -1.7 1-3.8 1.6-6.3 1.8 -2.1 0.1-4.5-0.4-7.2-1.5 -0.1-1-0.4-1.9-1.1-2.6 -0.7-0.8-1.6-1.1-2.5-1.1s-1.8 0.3-2.6 1c-0.8 0.8-1.2 1.8-1.2 3 0 1.2 0.4 2.2 1.1 3 0.7 0.8 1.6 1.1 2.6 1.1 0.8 0 1.5-0.2 2.1-0.6C284.1 137.6 287.2 138.2 290.1 138zM287.5 106.9c-2.5 1.1-4.6 1.1-6.3 0.1s-1.6-1.8 0.2-2.1c1.8-0.4 4.3-0.3 7.5 0.1 0.4 0.1 0.8 0.1 1.2 0.2C289.6 105.8 288.7 106.4 287.5 106.9zM288.8 123.7c-1.4-0.1-2.2-0.8-2.2-2 -0.1-1.2 0.5-1.9 1.8-2.3 1.3-0.3 2.3-0.4 2.8-0.1 0.6 0.2 1.1 0.5 1.7 0.9 0.3 0.2 0.6 0.4 0.8 0.6 0.6 0.5 1.1 0.9 1.6 1.3 -1.1 0.7-2.1 1.2-3 1.4C291.3 123.8 290.2 123.9 288.8 123.7zM139.8 198c-0.8 0.8-1.2 1.7-1.2 3 0 1.2 0.4 2.2 1.1 3s1.6 1.1 2.6 1.1 1.9-0.4 2.7-1.2 1.1-1.8 1.1-2.9c0-1.1-0.4-2.1-1.1-2.8s-1.6-1.1-2.6-1.1S140.5 197.3 139.8 198zM154.7 182.2l-4.8-4.8c-2.7 1.8-5.1 4.1-7.2 6.8 -1.5-2.6-4-4.8-7.7-6.7l-4.4 4.4c3.7 0.8 6.7 2.2 8.9 4.4 -4.9 3.6-7.4 8.4-7.4 14.6 0.4 5.6 2.6 10.1 6.5 13.5 -2.2 1.7-4.7 3.1-7.4 4.3l4.3 3.9c2.4-1.5 4.6-3.5 6.7-5.8 2.2 2.6 4.7 4.5 7.3 5.8l3.8-3.8c-2.9-0.7-5.4-2-7.6-4 4.4-3.4 6.7-8.1 7.1-14.2 -0.4-6-2.7-10.7-6.9-14C147.7 184.6 150.6 183.1 154.7 182.2zM146.2 193.3c1.1 1.7 1.8 3.6 2.3 5.7s0.2 4.4-0.7 6.9 -2.7 4.8-5.5 6.8c-2.9-1.9-4.8-4.4-5.7-7.3s-1.1-5.4-0.5-7.4 1.4-3.7 2.4-5.1 2.3-2.5 3.9-3.5C143.9 190.3 145.1 191.6 146.2 193.3zM204.4 203.1c-2.3 2.7-5.1 5-7.9 6.9 -2.4 1.5-5 2.4-10 2.6v-6.4 -17.7c1-0.2 0.8-0.4 1.1-0.7 0.7-0.8 1.2-1.7 1.2-2.9 0-1.2-0.3-2.2-1-2.9 -0.7-0.8-1.6-1.1-2.6-1.1 -1 0-1.8 0.4-2.5 1.1 -0.8 0.8-1.2 1.8-1.2 3 0 1.2 0.4 2.1 1.1 2.9 0.3 0.3 1 0.5 1 0.7v16.1 8c-3 0-5.9-0.7-8.4-1.9 -2.7-1.3-5.3-3.5-7.8-6.5s-3.9-3.6-4.3-2c0.2 1.6 1.4 3.7 3.8 6.3s5.4 4.6 8.9 6.1c2.8 1.1 5.7 1.8 7.7 1.9v5.3c0 1.5 0 2.6 0.1 3.1s0.2 1 0.4 1.3 0.6 0.5 1.2 0.5 1-0.2 1.2-0.5 0.4-0.9 0.5-1.7c0.1-0.7 0.1-3.5 0-8.3 4.2-0.5 7.9-1.9 11.3-4.1 3.9-2.6 7.1-6.2 9.6-10.8C207.9 199.8 206.7 200.3 204.4 203.1z"/><polygon class="st8" points="241.6 212.4 241.5 212.5 241.5 212.4 241.6 209.2 241.5 209.3 241.5 209.2 224.3 201.5 242.5 194.9 242.5 191.5 241.5 191.6 241.5 191.5 227.1 186.3 241.9 184.3 241.7 180.6 219.5 183.6 219.5 183.6 219.7 183.6 219.9 187.7 237.2 193.3 219.7 199.6 219.5 199.6 219.5 199.6 219.4 203.2 219.5 203.1 219.5 203.4 237.3 210.7 220.5 216.1 220.5 216.1 220.5 216.1 220.5 219.9 242.5 224.3 242.5 220.1 227 217.3 "/><path class="st10" d="M304 179.4c-2.2-2.2-5-3.2-8.4-3.2 -3.4 0-6.1 1.1-8.3 3.2 -2.2 2.2-3.3 4.9-3.3 8.1 0 0.2 0.3 1.9 0.4 2.5 0 0 7.1-2.5 7.1-2.7v-0.4c0-1.2 0.3-2.2 1-3 0.9-0.8 1.9-1.2 3.3-1.2 1.4 0 2.5 0.4 3.3 1.3 0.9 0.8 1.3 1.9 1.3 3.4 0 1.4-0.4 2.4-1.2 3.1 -0.8 0.7-2.7 1.6-5.8 2.7 -3.1 1.2-5.3 2.4-6.6 3.9 -1.2 1.4-1.9 3.3-1.9 5.8 0 3 0.9 5.5 2.9 7.6 2 2 4.6 3 7.6 3.1V207c-2-0.1-3.6-1.8-3.6-3.7 0-1.7 1.4-3 4.1-3.9 3.9-1.2 6.7-2.4 8-3.7 2.3-2.1 3.4-4.8 3.4-8.1C307.4 184.3 306.3 181.6 304 179.4zM295.7 217c-2.4 0-4.2 2-4.2 4.2 0 2.5 1.8 4.3 4.3 4.3 2.4 0 4.2-2.2 4.2-4.3C300 218.9 298.1 217 295.7 217z"/></svg>