<svg xmlns="http://www.w3.org/2000/svg" viewBox="0 0 402.72 568.815">
  <style>
    .st0{fill:#D6DB91;} .st1{fill:#A3B95A;} .st2{fill:#858842;} .st3{fill:#CE8243;} .st4{fill:#F9E48A;} .st5{fill:#4D5B27;} .st6{opacity:0.9984;}
  </style>
  <path class="st0" d="M201.4 563c-52.4 0-101.6-20.4-138.6-57.5-37-37-57.5-86.3-57.8-138.8C4.4 272 70.6 135 95.5 83.4l6-12.4c6-12.5 15.7-30.7 33-44.3 17.5-14 40-21 67-21 25.8 0 46.5 5.8 63 17.5 14.3 10 25.5 24.6 35.3 45.5l10 20.3c25 49.8 77 153.5 86 249.6 1.2 9.3 2 18.7 2 28 0 .7-.5 16-1 19.8-5 48-27.3 92.7-63.2 125.4-36.3 33-83.2 51.2-132.2 51.2z"/>
  <path class="st1" d="M201.4 48.8c16.7 0 29.2 3 38.2 9.5C247.6 64 254.4 73 261 87c2.6 5.7 6.2 13 10.3 21.2 23.8 47.5 73.4 146.4 81.6 234.6v1.8c1.2 7.3 1.7 14.6 1.7 22l-.5 13.5v.4l-.2 1.6c-3.8 37.6-21.3 72.4-49.4 98-28.3 25.8-65 40-103.2 40-41 0-79.3-16-108.2-45-29-28.8-45-67.5-45.2-108.6-.2-35.5 10.8-83.3 32.8-142.2 18.7-50.3 40.5-95.2 53.4-122l6.2-12.8c6.4-13.7 13-23 20.8-29 9.8-7.8 23-11.6 40.2-11.6m0-38c-57.3 0-81 32-95.4 62.3-19 40.5-96.6 191.4-96 293.6C10.7 472.3 95.7 558 201.4 558c99.2 0 180.8-75.6 190.4-172.3.5-2.7 1-17.5 1-19 0-9.4-.8-18.5-2-27.5-10.4-110.6-77.6-230.2-95.5-268.4-17-36-41.6-60-94-60z"/>
  <path class="st2" d="M201.4 26.8c21.4 0 38 4.5 51 13.6 11 8 20.2 19.7 28.4 37.3 2.6 5.4 6 12.5 10.2 20.7 24.4 48.7 75.2 150 83.8 242.3v.9c1.3 8.3 2 16.8 2 25 0 2.3-.5 14-.8 16.5v1.1c-4.4 43.2-24.4 83-56.6 112.3-32.3 29.5-74.2 45.7-118 45.7-46.8 0-90.7-18.2-123.8-51.3-33-33-51.3-77.2-51.6-124.2-.6-89.8 64-223.6 88.4-274l6-12.5c8-16.8 16.6-28.5 27-37 14-10.8 31.6-16.2 54-16.2m0-16c-57.3 0-81 32-95.4 62.3-19 40.5-96.6 191.4-96 293.6C10.7 472.3 95.7 558 201.4 558c99.2 0 180.8-75.6 190.4-172.3.5-2.7 1-17.5 1-19 0-9.4-.8-18.5-2-27.5-10.4-110.6-77.6-230.2-95.5-268.4-17-36-41.6-60-94-60z"/>
  <path class="st3" d="M201.4 462.3c-54.4 0-98.5-44.2-98.5-98.5 0-54 43.8-119.5 98.4-119.5S300 309.7 300 363.8c0 54.3-44.3 98.5-98.6 98.5z"/>
  <path class="st4" d="M201.4 248.8c52 0 94 63 94 115s-42 94-94 94-94-42-94-94 42-115 94-115m0-9c-14 0-28 4-41.2 12-12 7-23 17-32.5 29.6-18.4 24-29.3 55-29.3 82.4 0 56.8 46.2 103 103 103s103-46.2 103-103c0-27.5-11-58.3-29.4-82.4-9.6-12.5-20.5-22.5-32.4-29.6-13.3-8-27-12-41.2-12z"/>
  <path class="st5" d="M201.4 10.8c52.3 0 77 24 94 60 17.8 38.2 85 157.8 95.4 268.4 1.2 9 2 18 2 27.4 0 1.6-.5 16.4-1 19-9.6 96.8-91.2 172.4-190.4 172.4C95.7 558 10.7 472.3 10 366.6c-.6-102.2 77-253 96-293.5C120.4 43 144 11 201.4 11m0-10c-28 0-51.6 7.4-70 22-18 14.3-28.3 33-34.4 46l-6 12.5C78.6 107 55.3 155 35.8 207.3 11.8 272-.2 325.4 0 366.8.2 394 5.6 420.2 16 445c10.3 24 24.8 45.5 43.2 64 38 38 88.4 59 142.2 59 50.2 0 98.4-18.6 135.5-52.5 36.8-33.5 59.8-79.2 64.7-128.5.7-5 1-20.2 1-20.4 0-9.5-.7-19-2-28.6-4-42-16.5-90-37-143-17.4-44.3-36.7-82.8-49.4-108.3l-10-20c-10.2-21.8-22-37-37-47.5C250 6.8 228.4.8 201.4.8z"/>
</svg>
