<svg xmlns="http://www.w3.org/2000/svg" version="1.1" x="0px" y="0px" viewBox="0 0 402.72 568.815" xml:space="preserve"><style type="text/css">
	.st0{fill:#D6DB91;}
	.st1{fill:#A3B95A;}
	.st2{fill:#858842;}
	.st3{fill:#CE8243;}
	.st4{fill:#F9E48A;}
	.st5{fill:#4D5B27;}
	.st6{opacity:0.9984;}
</style><path class="st0" d="M201.362 563c-52.377 0-101.6-20.427-138.601-57.518 -36.915-37.004-57.426-86.301-57.757-138.81C4.407 271.911 70.603 134.987 95.522 83.441c2.354-4.868 4.375-9.048 5.981-12.446 5.903-12.481 15.744-30.653 32.983-44.31 17.482-13.849 39.982-20.871 66.875-20.871 25.943 0 46.597 5.7 63.143 17.424 14.262 10.106 25.485 24.558 35.32 45.479 2.462 5.237 5.941 12.187 9.972 20.234 24.96 49.847 76.888 153.548 85.925 249.673 1.326 9.281 1.999 18.707 1.999 28.017 0 0.672-0.371 15.812-0.984 19.719 -4.805 48.167-27.234 92.719-63.167 125.462C297.35 544.825 250.399 563 201.362 563z"/><path class="st1" d="M201.362 48.815c16.73 0 29.252 3.11 38.281 9.508 7.961 5.641 14.719 14.757 21.268 28.689 2.689 5.72 6.28 12.891 10.438 21.195 23.798 47.526 73.319 146.422 81.572 234.549l0.087 0.931 0.133 0.926c1.04 7.244 1.571 14.598 1.579 21.859 -0.037 2.376-0.325 10.493-0.552 13.637l-0.049 0.267 -0.157 1.586c-3.722 37.636-21.25 72.467-49.354 98.077C276.327 505.808 239.66 520 201.362 520c-40.872 0-79.283-15.941-108.159-44.886 -28.889-28.959-44.941-67.566-45.2-108.711 -0.223-35.465 10.805-83.309 32.779-142.205 18.755-50.267 40.476-95.197 53.453-122.041 2.393-4.949 4.459-9.223 6.14-12.778 6.45-13.639 13.063-22.85 20.812-28.988C171.021 52.601 184.162 48.815 201.362 48.815M201.362 10.815c-57.274 0-81 32-95.339 62.318C86.91 113.547 9.361 264.422 10.004 366.642 10.669 472.324 95.678 558 201.362 558c99.251 0 180.849-75.563 190.415-172.298 0.502-2.72 0.943-17.519 0.943-19.06 0-9.315-0.679-18.47-1.965-27.429C380.401 228.645 313.232 108.99 295.3 70.845 278.362 34.815 253.721 10.815 201.362 10.815L201.362 10.815z"/><path class="st2" d="M201.362 26.815c21.444 0 38.126 4.435 51.001 13.558 11.184 7.926 20.227 19.772 28.457 37.279 2.573 5.473 6.107 12.531 10.2 20.704 24.398 48.724 75.167 150.112 83.805 242.348l0.037 0.392 0.056 0.39c1.196 8.333 1.803 16.796 1.803 25.125 -0.015 2.237-0.417 13.75-0.724 16.437l-0.076 0.411 -0.066 0.668c-4.258 43.057-24.299 82.894-56.43 112.173 -32.342 29.47-74.27 45.7-118.063 45.7 -46.758 0-90.701-18.236-123.734-51.348 -32.995-33.075-51.329-77.151-51.625-124.11 -0.566-89.883 64.086-223.615 88.425-273.96 2.371-4.903 4.418-9.138 6.059-12.608 7.95-16.809 16.542-28.511 27.039-36.827C161.399 32.157 179.009 26.815 201.362 26.815M201.362 10.815c-57.275 0-81 32-95.339 62.318C86.91 113.547 9.361 264.422 10.004 366.642 10.669 472.324 95.678 558 201.362 558c99.251 0 180.849-75.563 190.415-172.298 0.502-2.72 0.943-17.519 0.943-19.06 0-9.315-0.679-18.47-1.965-27.429C380.401 228.645 313.232 108.99 295.3 70.845 278.362 34.815 253.721 10.815 201.362 10.815L201.362 10.815z"/><path class="st3" d="M201.362 462.315c-54.313 0-98.5-44.187-98.5-98.5 0-54.126 43.938-119.5 98.5-119.5s98.5 65.374 98.5 119.5C299.862 418.128 255.675 462.315 201.362 462.315z"/><path class="st4" d="M201.362 248.815c51.915 0 94 63.085 94 115s-42.085 94-94 94 -94-42.085-94-94S149.447 248.815 201.362 248.815M201.362 239.815c-14.091 0-27.956 4.019-41.208 11.944 -11.944 7.143-22.848 17.109-32.411 29.623 -18.397 24.075-29.381 54.891-29.381 82.433 0 56.794 46.206 103 103 103s103-46.206 103-103c0-27.541-10.984-58.357-29.381-82.433 -9.563-12.514-20.467-22.481-32.411-29.623C229.317 243.833 215.453 239.815 201.362 239.815L201.362 239.815z"/><path class="st5" d="M201.362 10.815c52.359 0 77 24 93.938 60.03 17.932 38.145 85.101 157.799 95.455 268.368 1.286 8.959 1.965 18.114 1.965 27.429 0 1.541-0.441 16.34-0.943 19.06C382.211 482.437 300.613 558 201.362 558 95.678 558 10.669 472.324 10.004 366.642 9.361 264.422 86.91 113.547 106.023 73.133 120.362 42.815 144.087 10.815 201.362 10.815M201.362 0.815c-28.048 0-51.592 7.385-69.98 21.951 -18.06 14.307-28.282 33.157-34.399 46.092 -1.593 3.369-3.618 7.558-5.963 12.408 -12.467 25.788-35.673 73.79-55.21 126.154C11.791 271.798-0.256 325.389 0.004 366.705c0.171 27.181 5.592 53.534 16.113 78.328 10.179 23.987 24.681 45.514 43.104 63.982C97.167 547.052 147.647 568 201.362 568c50.286 0 98.434-18.638 135.575-52.482 36.822-33.553 59.816-79.204 64.765-128.564 0.701-4.895 1.018-20.169 1.018-20.312 0-9.509-0.684-19.131-2.032-28.605 -3.958-41.936-16.45-90.086-37.13-143.115 -17.229-44.179-36.523-82.71-49.29-108.207 -4.015-8.018-7.482-14.943-9.918-20.124 -10.217-21.734-21.96-36.805-36.954-47.431C249.976 6.816 228.376 0.815 201.362 0.815L201.362 0.815z"/></svg>