<svg xmlns="http://www.w3.org/2000/svg" viewBox="-248 167.8 402.7 567.2">
  <style>
    .st0{fill:#D6DB91;} .st1{fill:#A3B95A;} .st2{fill:#858842;} .st3{fill:#F9E48A;} .st4{fill:#4D5B27;} .st5{fill:#ABAC6E;}
  </style>
  <path class="st0" d="M92 230.3c-37-37-86.2-57.5-138.6-57.5-49 0-96 18.2-132.2 51.2-36 32.7-58.4 77.3-63.2 125.5-.6 4-1 19-1 19.7 0 9.3.7 18.7 2 28 9 96 61 199.8 86 249.7l10 20c9.7 21 21 35.5 35.2 45.6 16.5 11.7 37.2 17.4 63 17.4 27 0 49.5-7 67-21 17.2-13.6 27-31.7 33-44.2l6-12.5c25-51.5 91-188.5 90.5-283.2-.3-52.4-20.8-101.7-57.7-138.7zM-46.6 278c52 0 94 42 94 94s-42 115-94 115-94-63-94-115 42-94 94-94z"/>
  <path class="st1" d="M-46.6 177.8c-99.2 0-180.8 75.6-190.4 172.3-.5 2.8-1 17.6-1 19.2 0 9.3.8 18.5 2 27.4 10.5 110.6 77.6 230.2 95.6 268.4 17 36 41.6 60 94 60 57.2 0 81-32 95.2-62.3 19-40.4 96.7-191.3 96-293.5C144 263.5 59 177.8-46.6 177.8zm61 468.6c-6.5 13.6-13.2 22.8-21 29-9.7 7.8-23 11.6-40 11.6-16.8 0-29.3-3-38.4-9.5-8-5.6-14.7-14.8-21.3-28.7l-10.4-21.2C-140.5 580-190 481.2-198.3 393v-.8l-.2-1c-1-7-1.6-14.5-1.6-21.8 0-2.4.2-10.5.4-13.6v-.3l.2-1.6c3.7-37.7 21.2-72.6 49.3-98.2 28.2-25.8 65-40 103-40 41 0 79.4 16 108.3 45 29 29 45 67.5 45.2 108.6.2 35.5-10.8 83.3-32.8 142.2-18.8 50.3-40.5 95.2-53.5 122-2 5-4.2 9.3-6 12.8z"/>
  <path class="st2" d="M-46.6 177.8c-99.2 0-180.8 75.6-190.4 172.3-.5 2.8-1 17.6-1 19.2 0 9.3.8 18.5 2 27.4 10.5 110.6 77.6 230.2 95.6 268.4 17 36 41.6 60 94 60 57.2 0 81-32 95.2-62.3 19-40.4 96.7-191.3 96-293.5C144 263.5 59 177.8-46.6 177.8zm87 465.4L34 655.8c-8 16.8-16.5 28.5-27 36.8-14 11-31.5 16.3-53.8 16.3-21.5 0-38-4.5-51-13.6-11.2-8-20.2-19.8-28.5-37.3l-10.3-20.6c-24.4-48.7-75.2-150-83.8-242.3v-.3l-.2-.4c-1.2-8.3-1.8-16.8-1.8-25 0-2.3.4-14 .7-16.5v-.4l.2-.7c4-43 24.2-83 56.3-112.2 32.3-29.5 74.3-45.7 118-45.7 47 0 90.8 18.2 123.8 51.3 33 33.2 51.4 77.3 51.7 124.2.6 90-64 223.7-88.4 274z"/>
  <path class="st3" d="M-46.6 269c-56.8 0-103 46.2-103 103 0 27.5 11 58.3 29.4 82.4 9.6 12.5 20.5 22.5 32.4 29.6 13.2 8 27 12 41.2 12 14 0 28-4 41.2-12 12-7 22.8-17 32.4-29.5 18.4-24 29.4-55 29.4-82.4 0-56.8-46.2-103-103-103zm0 218c-52 0-94-63-94-115s42-94 94-94 94 42 94 94-42 115-94 115z"/>
  <path class="st4" d="M138.6 290.8c-10.2-24-24.7-45.5-43-64-38-38-88.5-59-142.2-59-50.3 0-98.4 18.6-135.6 52.5C-219 254-242 299.5-247 349c-.7 4.8-1 20-1 20.2 0 9.5.7 19 2 28.6 4 42 16.4 90 37 143 17.3 44.3 36.6 82.8 49.4 108.3l10 20.2c10 21.7 22 36.8 37 47.4 17.3 12.3 39 18.3 66 18.3 28 0 51.5-7.5 70-22 18-14.4 28.2-33.2 34.3-46.2l6-12.4c12.5-25.8 35.7-73.8 55.2-126 24-64.5 36-118 35.7-159.4-.2-27-5.6-53.4-16-78.2zM-238 369.2c0-1.5.4-16.3 1-19 9.5-96.8 91-172.4 190.3-172.4 105.7 0 190.7 85.7 191.4 191.4.6 102.2-77 253-96 293.5C34.4 693 10.7 725-46.6 725c-52.4 0-77-24-94-60-17.8-38-85-157.8-95.4-268.4-1.3-9-2-18-2-27.4z"/>
  <path class="st5" d="M47.4 372c0 52-42 115-94 115s-94-63-94-115 42-94 94-94 94 42 94 94z"/>
</svg>
