<svg xmlns="http://www.w3.org/2000/svg" version="1.1" x="0px" y="0px" viewBox="-248 167.8 402.7 567.2" xml:space="preserve"><style type="text/css">
	.st0{fill:#D6DB91;}
	.st1{fill:#A3B95A;}
	.st2{fill:#858842;}
	.st3{fill:#F9E48A;}
	.st4{fill:#4D5B27;}
	.st5{fill:#ABAC6E;}
</style><path class="st0" d="M92 230.3c-37-37.1-86.2-57.5-138.6-57.5 -49 0-96 18.2-132.2 51.2 -35.9 32.7-58.4 77.3-63.2 125.5 -0.6 3.9-1 19-1 19.7 0 9.3 0.7 18.7 2 28 9 96.1 61 199.8 85.9 249.7 4 8 7.5 15 10 20.2 9.8 20.9 21 35.4 35.3 45.5 16.5 11.7 37.2 17.4 63.1 17.4 26.9 0 49.4-7 66.9-20.9 17.2-13.7 27.1-31.8 33-44.3 1.6-3.4 3.6-7.6 6-12.5 24.9-51.5 91.1-188.5 90.5-283.2C149.4 316.6 128.9 267.3 92 230.3zM-46.6 278c51.9 0 94 42.1 94 94 0 51.9-42.1 115-94 115 -51.9 0-94-63.1-94-115C-140.6 320.1-98.6 278-46.6 278z"/><path class="st1" d="M-46.6 177.8c-99.2 0-180.8 75.6-190.4 172.3 -0.5 2.7-0.9 17.5-0.9 19.1 0 9.3 0.7 18.5 2 27.4 10.4 110.6 77.5 230.2 95.5 268.4 16.9 36 41.6 60 93.9 60 57.3 0 81-32 95.3-62.3 19.1-40.4 96.7-191.3 96-293.5C144 263.5 59 177.8-46.6 177.8zM14.3 646.4c-6.4 13.6-13.1 22.8-20.8 29 -9.8 7.8-23 11.6-40.2 11.6 -16.7 0-29.2-3.1-38.3-9.5 -8-5.6-14.7-14.8-21.3-28.7 -2.7-5.7-6.3-12.9-10.4-21.2 -23.8-47.5-73.3-146.4-81.6-234.5l-0.1-0.9 -0.1-0.9c-1-7.2-1.6-14.6-1.6-21.9 0-2.4 0.3-10.5 0.5-13.6l0-0.3 0.2-1.6c3.7-37.6 21.2-72.5 49.3-98.1 28.3-25.8 65-40 103.2-40 40.9 0 79.3 15.9 108.2 44.9 28.9 29 44.9 67.6 45.2 108.7 0.2 35.5-10.8 83.3-32.8 142.2 -18.8 50.3-40.5 95.2-53.5 122C18.1 638.6 16 642.9 14.3 646.4z"/><path class="st2" d="M-46.6 177.8c-99.2 0-180.8 75.6-190.4 172.3 -0.5 2.7-0.9 17.5-0.9 19.1 0 9.3 0.7 18.5 2 27.4 10.4 110.6 77.5 230.2 95.5 268.4 16.9 36 41.6 60 93.9 60 57.3 0 81-32 95.3-62.3 19.1-40.4 96.7-191.3 96-293.5C144 263.5 59 177.8-46.6 177.8zM40.3 643.2c-2.4 4.9-4.4 9.1-6.1 12.6 -7.9 16.8-16.5 28.5-27 36.8 -13.9 11-31.5 16.3-53.8 16.3 -21.5 0-38.1-4.4-51-13.5 -11.2-7.9-20.2-19.8-28.5-37.3 -2.6-5.5-6.1-12.5-10.2-20.7 -24.4-48.7-75.2-150.1-83.8-242.3l0-0.4 -0.1-0.4c-1.2-8.3-1.8-16.8-1.8-25.1 0-2.2 0.4-13.8 0.7-16.4l0.1-0.4 0.1-0.7c4.2-43 24.3-82.9 56.4-112.2 32.3-29.5 74.3-45.7 118.1-45.7 46.8 0 90.7 18.2 123.7 51.3 33 33.1 51.3 77.2 51.6 124.1C129.3 459.2 64.6 592.9 40.3 643.2z"/><path class="st3" d="M-46.6 269c-56.8 0-103 46.2-103 103 0 27.5 11 58.3 29.4 82.4 9.6 12.5 20.5 22.5 32.4 29.6C-74.6 492-60.7 496-46.6 496c14.1 0 28-4 41.2-11.9 11.9-7.1 22.8-17.1 32.4-29.6 18.4-24.1 29.4-54.9 29.4-82.4C56.4 315.2 10.2 269-46.6 269zM-46.6 487c-51.9 0-94-63.1-94-115 0-51.9 42.1-94 94-94 51.9 0 94 42.1 94 94C47.4 423.9 5.3 487-46.6 487z"/><path class="st4" d="M138.6 290.8c-10.2-24-24.7-45.5-43.1-64 -38-38-88.4-59-142.1-59 -50.3 0-98.4 18.6-135.6 52.5C-219 253.9-242 299.5-247 348.9c-0.7 4.9-1 20.2-1 20.3 0 9.5 0.7 19.1 2 28.6 4 41.9 16.4 90.1 37.1 143.1 17.2 44.2 36.5 82.7 49.3 108.2 4 8 7.5 14.9 9.9 20.1 10.2 21.7 22 36.8 37 47.4 17.4 12.3 39 18.3 66 18.3 28 0 51.6-7.4 70-22 18.1-14.3 28.3-33.1 34.4-46.1 1.6-3.4 3.6-7.6 6-12.4 12.5-25.8 35.7-73.8 55.2-126.1 24-64.4 36.1-118 35.8-159.3C154.5 341.9 149.1 315.6 138.6 290.8zM-238 369.2c0-1.5 0.4-16.3 0.9-19.1 9.6-96.7 91.2-172.3 190.4-172.3 105.7 0 190.7 85.7 191.4 191.4 0.6 102.2-76.9 253.1-96 293.5C34.4 693 10.6 725-46.6 725c-52.4 0-77-24-93.9-60 -17.9-38.1-85.1-157.8-95.5-268.4C-237.3 387.6-238 378.5-238 369.2z"/><path class="st5" d="M47.4 372c0 51.9-42.1 115-94 115 -51.9 0-94-63.1-94-115 0-51.9 42.1-94 94-94C5.3 278 47.4 320.1 47.4 372z"/></svg>