<svg id="Layer_2" xmlns="http://www.w3.org/2000/svg" viewBox="0 0 658 823">
  <style>
    .st0{opacity:0.51;fill:#31283A;} .st1{fill:none;stroke:#000000;stroke-width:7;stroke-miterlimit:10;} .st2{fill:#423677;} .st3{fill:none;stroke:#000000;stroke-width:16;stroke-miterlimit:10;} .st4{fill:#5B4599;} .st5{fill:#D1305A;} .st6{fill:#E3DBEB;} .st7{fill:#8E1C46;} .st8{fill:#EDBE5F;} .st9{fill:#C1872B;} .st10{fill:none;stroke:#000000;stroke-width:3;stroke-miterlimit:10;}
  </style>
  <path class="st0" d="M508 768c0 20-97.5 202-215 202S82 788 82 768s95.4-54 213-54 213 34 213 54z"/>
  <path class="st1" d="M267 647s16 51 42 71c0 0 14 13 11-1s35-52 35-52l-8-41-80 23z"/>
  <path class="st2" d="M267 647s16 51 42 71c0 0 14 13 11-1s35-52 35-52l-8-41-80 23z"/>
  <path class="st3" d="M20 669s-16.8 31.6-9 51c13.5 33.5 21-45 21-45l-12-6z"/>
  <path class="st2" d="M20 669s-16.8 31.6-9 51c13.5 33.5 21-45 21-45l-12-6z"/>
  <path class="st3" d="M46 696s-7.5 19.5-3 32 16.5 10.5 16 1-4-30-4-30l-9-3z"/>
  <path class="st2" d="M46 696s-7.5 19.5-3 32 16.5 10.5 16 1-4-30-4-30l-9-3z"/>
  <path class="st3" d="M70 704s-3 18 8 28 11.5-15.5 3-28-11 0-11 0z"/>
  <path class="st2" d="M70 704s-3 18 8 28 11.5-15.5 3-28-11 0-11 0z"/>
  <path class="st3" d="M566 696s13 35.5-11 51c0 0-20.5 6-11-9s10-39 10-39l12-3z"/>
  <path class="st2" d="M566 696s13 35.5-11 51c0 0-20.5 6-11-9s10-39 10-39l12-3z"/>
  <path class="st3" d="M530 706s3.5 30-13 33-8.5-16.5 3-31 10-2 10-2z"/>
  <path class="st2" d="M530 706s3.5 30-13 33-8.5-16.5 3-31 10-2 10-2z"/>
  <path class="st3" d="M501 699s4 25.5-10 29 1-30 1-30l9 1z"/>
  <path class="st2" d="M501 699s4 25.5-10 29 1-30 1-30l9 1z"/>
  <path class="st3" d="M545 365s74 209 47 300-138 21-138 21l91-321z"/>
  <path class="st4" d="M545 365s74 209 47 300-138 21-138 21l91-321z"/>
  <path class="st3" d="M110 281S-24 554 17 660s114 16 114 16l-21-395z"/>
  <path class="st4" d="M110 281S-24 554 17 660s114 16 114 16l-21-395z"/>
  <path class="st3" d="M125 239S59.6 387 72 547c5.2 67.6 34.6 119.2 72 192 0 0-23 32 7 15 0 0-9 29 20 2 0 0-2 18 13-2s40-76 37-89c0 0 59-1 109-12 0 0 31 101.5 56 105 0 0 46.5 26 25 2 0 0 53 12 14-6 0 0 48 7 1-8 0 0 153-171 118-375-1.7-9.7 11.3-23.3 6-42 0 0 37.4-37.7 63-83 35-62 50-115 16-112-72.8 6.4-196 45-218 103 0 0-3-14-17-29-19.2-21-51-46.8-51-66 0 0-14 23 6 50s17 34 17 34-25-13-38-41c0 0-14 17-5 40 0 0-27-15-28-44 0 0-22 7-26 29-1.6 8.7-3.5-27.4-15-72-17.5-67.8-48.7-153.8-68-120-32 56-76 173-61 221z"/>
  <path class="st4" d="M125 239S59.6 387 72 547c5.2 67.6 34.6 119.2 72 192 0 0-23 32 7 15 0 0-9 29 20 2 0 0-2 18 13-2s40-76 37-89c0 0 59-1 109-12 0 0 31 101.5 56 105 0 0 46.5 26 25 2 0 0 53 12 14-6 0 0 48 7 1-8 0 0 153-171 118-375-1.7-9.7 11.3-23.3 6-42 0 0 37.4-37.7 63-83 35-62 50-115 16-112-72.8 6.4-196 45-218 103 0 0-3-14-17-29-19.2-21-51-46.8-51-66 0 0-14 23 6 50s17 34 17 34-25-13-38-41c0 0-14 17-5 40 0 0-27-15-28-44 0 0-22 7-26 29-1.6 8.7-3.5-27.4-15-72-17.5-67.8-48.7-153.8-68-120-32 56-76 173-61 221z"/>
  <path class="st2" d="M21 669.5l-1-.5s-16.8 31.6-9 51c10 25 16.8-12.6 19.6-33-3.3-5-6.5-10.8-9.6-17.5zM56.6 709.2c-4.2-1.6-8.4-4-12.5-7.2-1.8 6.7-4 17.8-1 26 4.5 12.5 16.5 10.5 16 1-.3-5-1.4-13.3-2.4-19.8zM69.7 711.6c.3 6 2 14.6 8.3 20.4 9.5 8.7 11.2-9.3 6-22.4-4.7 1.4-9.5 2-14.3 2zM553.2 709c-1 8.2-3.6 20.2-9.2 29-9.5 15 11 9 11 9 18-11.6 15.2-34.4 12.7-45-4.6 3-9.4 5.3-14.5 7z"/>
  <g>
    <path class="st2" d="M518 710.5c-10.3 14.2-16.6 31.3-1 28.5 12-2.2 13.4-18.5 13.3-27.3-4-.2-8.2-.6-12.2-1.2z"/>
  </g>
  <g>
    <path class="st2" d="M490 703c-3.7 9.4-9.5 27.6 1 25 9-2.2 10.5-13.3 10.5-21-4-1.3-8-2.5-11.6-4z"/>
  </g>
  <g>
    <path class="st3" d="M468 426c-5.6 6.8-12 12.3-19.2 16-26 13.3-61.8 13-61.8 13-49.2 2.8-57.3-33.5-56.7-65.2.5-25 7.7-47.8 7.7-47.8 40 12 130 84 130 84z"/>
    <path class="st5" d="M468 426c-5.6 6.8-12 12.3-19.2 16-26 13.3-61.8 13-61.8 13-49.2 2.8-57.3-33.5-56.7-65.2.5-25 7.7-47.8 7.7-47.8 40 12 130 84 130 84z"/>
  </g>
  <g>
    <path class="st3" d="M208 339s-1.3 19.3-7 41.8c-5.8 22-15.7 47-33 60.2-22.2 17-44.3 3.7-55-12.2-6.3-9.2-8.7-19.3-5-24.8 10-15 100-65 100-65z"/>
    <path class="st5" d="M208 339s-1.3 19.3-7 41.8c-5.8 22-15.7 47-33 60.2-22.2 17-44.3 3.7-55-12.2-6.3-9.2-8.7-19.3-5-24.8 10-15 100-65 100-65z"/>
  </g>
  <g>
    <path class="st3" d="M377 542s-56 1.7-121 0c-39-1-103-7-103-7 36-77 200-40 224 7z"/>
    <path class="st6" d="M377 542s-56 1.7-121 0c-39-1-103-7-103-7 36-77 200-40 224 7z"/>
  </g>
  <path class="st7" d="M208 339s-1.3 19.3-7 41.8c-9.5-18-74.5 29.2-82 36.2-4.2 4-5.6 8.4-6 11.8-6.3-9.2-8.7-19.3-5-24.8 10-15 100-65 100-65zM468 426c-5.6 6.8-12.2 12-19.2 16 8-19.3-55.5-39-85.8-51-21-8.3-29.3-5-32.7-1.2.5-25 7.7-47.8 7.7-47.8 40 12 130 84 130 84z"/>
  <path d="M360 349c-2.8 24.8-8.5 73 4 75 13.7 2.2 11-50.5 11-66l-15-9zM134 382c-1.7 13.2-9.5 39 3 39 11.5 0 11.5-31.7 11-48l-14 9z"/>
  <g>
    <path class="st10" d="M186.8 538c0-11.7 1.8-26.2 3.4-37.4M231 541c-1.2-11-3-33-.8-49.8M280 542.5c-.8-10.4-1.7-29 0-49M334.3 542.7c-.7-6.3-1.4-18-.2-33.7"/>
  </g>
</svg>
