<?xml version="1.0" encoding="utf-8"?>
<!-- Generator: Adobe Illustrator 19.1.0, SVG Export Plug-In . SVG Version: 6.00 Build 0)  -->
<svg version="1.1" id="imtired" xmlns="http://www.w3.org/2000/svg" xmlns:xlink="http://www.w3.org/1999/xlink" x="0px" y="0px"
	 viewBox="0 0 900 900" style="enable-background:new 0 0 900 900;" xml:space="preserve">
<style type="text/css">
	.st0{filter:url(#Adobe_OpacityMaskFilter);}
	.st1{fill:#FFFFFF;}
	.st2{mask:url(#SVGID_1_);}
	.st3{fill:#DF708A;}
	.st4{fill:#FCB5B2;}
	.st5{fill:#312D65;}
	.st6{fill:#4D4B84;}
</style>
<defs>
	<filter id="Adobe_OpacityMaskFilter" filterUnits="userSpaceOnUse" x="-198.9" y="-30" width="1292.9" height="991.5">
		<feColorMatrix  type="matrix" values="1 0 0 0 0  0 1 0 0 0  0 0 1 0 0  0 0 0 1 0"/>
	</filter>
</defs>
<mask maskUnits="userSpaceOnUse" x="-198.9" y="-30" width="1292.9" height="991.5" id="SVGID_1_">
	<g class="st0">
		<g>
			<g>
				<path class="st1" d="M548.9,234.7c0,2.7-6.4,9.1-19.3,19.2C516.7,263.9,505,269,494.6,269c-7.2,0-12.4-1.8-15.6-5.5
					c-3.2-3.7-4.9-7.8-4.9-12.4c0-2.9,0.4-5.6,1.3-8.1c0.9-2.5,1.8-5,2.8-7.5l24.3-50.4c1.4-2.9,2.3-5.2,2.9-7
					c0.6-1.8,0.9-3.4,0.9-4.7c0-1.4-0.3-2.3-0.8-2.9c-0.5-0.6-1.2-0.9-2-0.9c-2.2,0-6.5,3.4-12.9,10.1c-6.4,6.7-10.2,10.1-11.4,10.1
					c-1.4,0-2.7-0.9-4.1-2.8c-1.4-1.9-2-3.1-2-3.6c0-1.7,1.6-4.5,4.9-8.3c3.2-3.8,7.3-7.9,12.3-12.2c4.4-3.9,9.8-7.6,16-11
					c6.2-3.4,11.7-5.1,16.5-5.1c7.7,0,13.4,2.2,17.3,6.5c3.8,4.3,5.8,9.6,5.8,15.7c0,2.6-0.3,5.3-0.8,8.2c-0.5,2.9-1.6,5.9-3.3,9
					l-19.4,42.7c-1.5,3.6-2.6,6.5-3.3,8.7c-0.7,2.2-1,3.8-1,4.6c0,1,0.3,1.7,0.8,1.9c0.5,0.3,1,0.4,1.5,0.4c3.8,0,8.1-2.7,13.2-8.1
					c5-5.4,8.2-8.1,9.6-8.1c1.2,0,2.5,0.9,3.8,2.7C548.2,232.7,548.9,234,548.9,234.7z M568.6,102.6c0,6.3-2.3,11.8-6.8,16.4
					c-4.5,4.6-10,6.9-16.5,6.9c-6.3,0-11.8-2.3-16.4-6.9c-4.6-4.6-6.9-10.1-6.9-16.4c0-6.3,2.3-11.8,6.9-16.4
					c4.6-4.6,10.1-6.9,16.4-6.9c6.5,0,12,2.3,16.5,6.9C566.3,90.9,568.6,96.3,568.6,102.6z"/>
				<path class="st1" d="M643.3,106.2c0,9.7-2.6,18.5-7.7,26.5c-5.1,7.9-10.7,14.3-16.6,19.1c-6.3,5.1-12.5,9.2-18.4,12.2
					c-6,3-9.7,4.6-11.3,4.7c-0.9,0-1.9-1.1-3.2-3.3c-1.3-2.2-1.9-3.9-1.9-5.1c0-0.5,1.8-1.8,5.5-3.8c3.7-2,7.1-4.3,10.4-6.7
					c4.3-3.2,7.9-6.4,11-9.5c3.1-3.1,4.6-7.1,4.6-12c0-0.5-0.2-0.9-0.6-1.3c-0.4-0.3-0.9-0.5-1.4-0.5s-1,0-1.5,0.1
					c-0.5,0.1-1,0.1-1.5,0.1c-3.8,0-7-1.6-9.7-4.9c-2.7-3.2-4.1-7.2-4.1-11.8c0-7.8,2.4-14.3,7.3-19.4c4.9-5.1,10.5-7.7,17-7.7
					c6.3,0,11.6,2.1,15.9,6.4C641.1,93.6,643.3,99.2,643.3,106.2z"/>
				<path class="st1" d="M851.8,234.7c0,2.7-6.5,9.1-19.5,19.2c-13,10.1-24.7,15.1-35.1,15.1c-7.2,0-12.3-1.8-15.5-5.4
					c-3.2-3.6-4.7-7.8-4.7-12.5c0-2.7,0.3-5.2,0.9-7.3c0.6-2.1,1.7-4.9,3.2-8.3l23.3-48.1c1-2.4,1.9-4.6,2.7-6.7
					c0.8-2,1.2-3.8,1.2-5.1c0-1.4-0.3-2.3-0.9-2.9c-0.6-0.6-1.3-0.9-2.2-0.9c-5.4,0-12.4,5.5-20.9,16.5c-8.5,11-19.2,27.8-32.1,50.5
					l-10.3,21.7c-0.9,1.5-3.6,2.8-8.3,3.8c-4.7,1-9,1.5-12.9,1.5c-5.3,0-10.1-0.6-14.4-1.7c-4.3-1.1-6.2-2.3-5.6-3.7l35.1-73.2
					c1.4-2.9,2.3-5.2,2.9-7c0.6-1.8,0.9-3.4,0.9-4.7c0-1.4-0.3-2.3-0.8-2.9c-0.5-0.6-1.2-0.9-2-0.9c-5.6,0-13.1,5.7-22.5,17.1
					c-9.4,11.4-20.3,28.1-32.8,49.9l-10,21.7c-0.9,1.5-3.6,2.8-8.3,3.8c-4.7,1-9.1,1.5-13.1,1.5c-4.9,0-9.5-0.6-13.8-1.8
					c-4.3-1.2-6.1-2.4-5.6-3.6l34.8-75.5c1-2.4,1.9-4.6,2.7-6.7c0.8-2,1.2-3.8,1.2-5.1c0-1.4-0.3-2.3-0.9-2.9
					c-0.6-0.6-1.3-0.9-2.2-0.9c-2,0-6.3,3.4-12.8,10.1c-6.5,6.7-10.2,10.1-11.3,10.1c-1.4,0-2.8-0.9-4.2-2.8
					c-1.5-1.9-2.2-3.1-2.2-3.6c0-1.7,1.6-4.5,4.8-8.3c3.2-3.8,7.3-7.9,12.2-12.2c4.4-3.9,9.7-7.6,15.9-11c6.2-3.4,11.7-5.1,16.5-5.1
					c7.5,0,13,2,16.6,6.1s5.4,9.1,5.4,15.1c0,2.4-0.3,4.9-0.8,7.7c-0.5,2.7-1.6,5.6-3.3,8.7l-1.3,2.8c8.6-12.8,17.8-22.7,27.7-29.8
					c9.9-7.1,19.4-10.6,28.7-10.6c7.6,0,12.8,2.3,15.7,7c2.9,4.7,4.4,9.4,4.4,14.2c0,2.6-0.3,5.4-1,8.4c-0.7,3.1-1.8,5.9-3.3,8.4
					l-1.3,3.1c8-12.6,16.8-22.6,26.3-30.1c9.5-7.4,18.5-11.1,27-11.1c7.6,0,13.4,2.2,17.2,6.5c3.8,4.3,5.7,9.6,5.7,15.7
					c0,2.7-0.3,5.5-0.9,8.2c-0.6,2.7-1.7,5.7-3.2,9l-19.4,42.7c-1.9,4.1-3.1,7.1-3.6,9.1c-0.5,2-0.8,3.4-0.8,4.2
					c0,1,0.2,1.7,0.6,1.9c0.4,0.3,1,0.4,1.7,0.4c3.4,0,7.8-2.7,13-8.1c5.3-5.4,8.5-8.1,9.7-8.1c1.2,0,2.5,0.9,3.8,2.7
					C851.1,232.7,851.8,234,851.8,234.7z"/>
			</g>
			<g>
				<path class="st1" d="M368.2,433.7c0,1.7-0.6,3.7-1.9,5.9c-1.3,2.2-2.4,3.3-3.4,3.3l-25.4-0.8l-20.8,61.7c-0.7,2-1.3,4.1-1.8,6.3
					c-0.5,2.1-0.8,3.9-0.8,5.2c0,1.4,0.2,2.4,0.5,3.1c0.3,0.7,1.1,1,2.3,1c4.2,0,9.2-2.8,14.8-8.3c5.6-5.5,9-8.3,10.2-8.3
					c1.4,0,3,0.9,5,2.8c2,1.9,2.9,3.2,2.9,3.8c0,1-1.9,3.5-5.8,7.4c-3.8,3.9-8.3,7.7-13.4,11.3c-6.3,4.6-12.2,8.4-17.8,11.4
					c-5.5,3-11.5,4.5-17.8,4.5c-7.3,0-13.2-1.9-17.5-5.8c-4.3-3.8-6.5-9.3-6.5-16.2c0-2.6,0.2-4.7,0.6-6.4c0.4-1.7,1.1-4,1.9-6.9
					l22.5-66.3l-19.4,0.5c-1,0-1.7-0.8-2.2-2.3s-0.6-2.8-0.6-3.8c0-1.9,0.6-3.9,1.9-6c1.3-2.1,2.3-3.2,3.2-3.2h22.3l9.4-27.6
					c0.3-1.4,3.7-2.4,10.1-3.2c6.4-0.8,10.4-1.2,11.9-1.2c2.4,0,6.3,0.4,11.7,1.3c5.4,0.9,7.8,1.9,7.3,3.1l-9.4,27.6h23.1
					c1,0,1.7,0.8,2.2,2.3C368,431.4,368.2,432.7,368.2,433.7z"/>
				<path class="st1" d="M444.5,509.7c0,2.7-6.4,9.1-19.3,19.2C412.3,539,400.6,544,390.2,544c-7.2,0-12.4-1.8-15.6-5.5
					c-3.2-3.7-4.9-7.8-4.9-12.4c0-2.9,0.4-5.6,1.3-8.1c0.9-2.5,1.8-5,2.8-7.5l24.3-50.4c1.4-2.9,2.3-5.2,2.9-7
					c0.6-1.8,0.9-3.4,0.9-4.7c0-1.4-0.3-2.3-0.8-2.9c-0.5-0.6-1.2-0.9-2-0.9c-2.2,0-6.5,3.4-12.9,10.1c-6.4,6.7-10.2,10.1-11.4,10.1
					c-1.4,0-2.7-0.9-4.1-2.8c-1.4-1.9-2-3.1-2-3.6c0-1.7,1.6-4.5,4.9-8.3c3.2-3.8,7.3-7.9,12.3-12.2c4.4-3.9,9.8-7.6,16-11
					c6.2-3.4,11.7-5.1,16.5-5.1c7.7,0,13.4,2.2,17.3,6.5c3.8,4.3,5.8,9.6,5.8,15.7c0,2.6-0.3,5.3-0.8,8.2c-0.5,2.9-1.6,5.9-3.3,9
					l-19.4,42.7c-1.5,3.6-2.6,6.5-3.3,8.7c-0.7,2.2-1,3.8-1,4.6c0,1,0.3,1.7,0.8,1.9c0.5,0.3,1,0.4,1.5,0.4c3.8,0,8.1-2.7,13.2-8.1
					c5-5.4,8.2-8.1,9.6-8.1c1.2,0,2.5,0.9,3.8,2.7C443.8,507.8,444.5,509,444.5,509.7z M464.2,377.7c0,6.3-2.3,11.8-6.8,16.4
					c-4.5,4.6-10,6.9-16.5,6.9c-6.3,0-11.8-2.3-16.4-6.9c-4.6-4.6-6.9-10.1-6.9-16.4c0-6.3,2.3-11.8,6.9-16.4
					c4.6-4.6,10.1-6.9,16.4-6.9c6.5,0,12,2.3,16.5,6.9C461.9,365.9,464.2,371.4,464.2,377.7z"/>
				<path class="st1" d="M582.6,443.4c0,6.1-1.8,11.3-5.3,15.4c-3.5,4.1-8.2,6.1-14.2,6.1c-3.2,0-5.7-0.6-7.3-1.8
					c-1.6-1.2-3-2.6-4.2-4.3c-1-1.5-2.2-3-3.6-4.3c-1.4-1.4-3.2-2-5.4-2c-5.5,0-12.8,8.7-21.9,26c-9.1,17.3-17.4,36.7-24.7,58.2
					c-0.5,1.4-3.5,2.4-8.9,3.2c-5.4,0.8-9.1,1.2-11,1.2c-2,0-6.1-0.4-12.3-1.2c-6.1-0.8-9-1.8-8.7-3.2l25.3-76.5
					c1.2-3.8,2-6.5,2.6-8.2c0.5-1.7,0.8-3.2,0.8-4.6c0-0.9-0.2-1.5-0.6-2c-0.4-0.5-1-0.8-1.7-0.8c-2.6,0-5.9,2.3-10,7
					c-4.1,4.7-6.8,7-8.2,7c-1.4,0-2.7-0.9-4.1-2.8c-1.4-1.9-2-3.1-2-3.6c0-3.1,4.7-8.9,14.2-17.5c9.5-8.6,19.2-12.9,29.3-12.9
					c7.3,0,13.1,2,17.4,6c4.3,4,6.4,9.3,6.4,16c0,1.5-0.1,2.9-0.3,4.1c-0.2,1.2-0.5,2.4-1,3.6l-7.3,20c8.3-16.5,16-29,23-37.2
					c7-8.3,14.2-12.4,21.7-12.4c6.5,0,11.8,2,15.8,6C580.6,431.7,582.6,437,582.6,443.4z"/>
				<path class="st1" d="M681.4,449.6c0,9.7-5.8,19.2-17.3,28.5c-11.5,9.3-27.6,13.9-48.2,13.9c-0.5,2.2-0.9,4.4-1,6.5
					c-0.2,2.1-0.3,4.1-0.3,6c0,6,1.2,10.9,3.6,14.8c2.4,3.9,6.4,5.9,12,5.9c6.7,0,12.9-2.1,18.7-6.4c5.8-4.3,10.4-8.8,13.8-13.6
					c0.9,0,1.4,0.1,1.8,0.3c0.3,0.2,0.7,0.5,1.2,0.9c0.4,0.4,0.8,0.8,1.2,1.2c0.7,0.7,1.4,1.6,2,2.7c0.7,1.1,0.9,1.9,0.5,2.4
					c-4.1,8.4-11.4,15.7-22,21.9c-10.6,6.2-21,9.3-31.2,9.3c-12.1,0-22.1-3.5-30.1-10.5s-11.9-15.7-11.9-26.1
					c0-21.8,8.7-41.6,26.2-59.2c17.5-17.7,34.2-26.5,50.3-26.5c11.3,0,19.2,2.9,23.8,8.6C679.1,436,681.4,442.4,681.4,449.6z
					 M649.9,447.3c0-2.9-0.4-5.1-1.2-6.5c-0.8-1.4-2.5-2.2-5.2-2.2c-5.3,0-10.5,4.2-15.6,12.7c-5.1,8.4-8.4,18-10,28.5
					c9.2,0,16.8-3.6,22.9-10.9C646.9,461.7,649.9,454.4,649.9,447.3z"/>
				<path class="st1" d="M851.8,355.8c0,0.9-0.1,1.9-0.4,3.1c-0.3,1.2-0.6,2.4-1.2,3.6l-48.6,136c-0.9,2.2-1.9,5.1-3.1,8.6
					c-1.2,3.5-1.8,5.9-1.8,7.3c0,1.2,0.2,2.2,0.5,2.9c0.3,0.8,1.1,1.1,2.3,1.1c3.1,0,6.3-2.6,9.6-7.7s5.5-7.7,6.5-7.7
					c1.2,0,2.5,0.9,3.8,2.7c1.4,1.8,2,3,2,3.7c0,3.1-4.3,9.6-12.9,19.6c-8.6,10-17.7,15-27.2,15c-6.3,0-11-1.5-14.2-4.6
					c-3.2-3.1-4.7-7.5-4.7-13.3c0-3.2,0.5-6.6,1.4-10.1c0.9-3.5,2.3-7.5,4.2-11.9c-7,11.8-14.4,21.4-22.3,28.8
					c-7.8,7.4-17.3,11.1-28.4,11.1c-9.7,0-17.5-3.2-23.3-9.7c-5.8-6.5-8.7-15.2-8.7-26.1c0-21.3,8.8-41.1,26.5-59.2
					c17.6-18.2,36-27.2,55.1-27.2c5.1,0,9.1,0.8,12,2.4c2.9,1.6,4.9,3.2,5.9,4.7l11.6-32.4c0.9-2.4,1.5-4.5,2-6.5
					c0.5-2,0.8-3.6,0.8-5c0-1.9-1-3.2-2.9-4c-2-0.8-5.6-1.5-10.9-2.2c-0.5-0.2-1-0.9-1.4-2.2c-0.4-1.3-0.6-2.3-0.6-3.2
					c0-0.9,0.2-1.9,0.5-3.2c0.3-1.3,0.9-1.9,1.5-1.9c8.5-1.4,19.1-3.5,31.6-6.4c12.5-2.9,21.1-5.3,25.7-7.2c0.5-0.3,1.5-0.7,2.9-1.2
					c1.5-0.4,2.6-0.6,3.5-0.6c0.7,0,1.3,0.3,1.8,0.9C851.5,354.5,851.8,355.1,851.8,355.8z M779.9,442.9c0-2.6-0.5-4.4-1.5-5.5
					c-1-1.1-2.6-1.7-4.9-1.7c-10.7,0-21.2,8.1-31.3,24.4c-10.2,16.3-15.2,33.1-15.2,50.5c0,4.1,0.7,7.1,2.2,9.1
					c1.4,2,3.4,2.9,5.8,2.9c3.8,0,8.2-3.1,13.4-9.3c5.2-6.2,10.3-14.2,15.2-23.9c5.1-10.2,9.1-19.3,12-27.1
					C778.4,454.5,779.9,448.1,779.9,442.9z"/>
			</g>
		</g>
	</g>
</mask>
<g class="st2">
	<rect x="-60.5" y="-30" class="st3" width="976.2" height="991.5"/>
	<path class="st4" d="M968.4,60.6c0,0-197.3,17.2-324.7,0.1S357.6,74.9,357.6,74.9s-79.1,2.9-183.6-27.2S-61,71-61,71v849
		l1062.3-13.9L968.4,60.6z"/>
	<path class="st5" d="M995.9,132.4c0,0-457.1-53.7-544.3-17.4S-35,102.5-35,102.5V912h960.8L995.9,132.4z"/>
	<path class="st6" d="M1034.4,164.1c0,0-218.9,41.5-331.9,28.6s-224.6-28-303.3,2.5s-247.5-9.6-247.5-9.6s-148.8-21.5-253.2,63
		l20,705.4l1044.5-15.7L1034.4,164.1z"/>
	<path class="st3" d="M922.8,239.9c0,0-200.3-35.8-319.1,0s-336.2,4.3-356.3,0S17.2,227-74.4,275.6s-34.3,659.6-34.3,659.6l1053-7.2
		L922.8,239.9z"/>
	<path class="st4" d="M977.2,294.4c0,0-133.1,37.6-241.8,23.3c-67.8-8.9-272.2-37.1-349.1-12.9c-150.2,47.2-228,0-303.3-8.6
		c-48.6-5.6-85.8-2.9-176,67.2c-109.6,85.3-17,549.3-17,549.3l1054.3-15.6L977.2,294.4z"/>
	<path class="st5" d="M-135.4,345.9c0,0,173.6,49,316.6,21.4c143-27.6,200.3,11.4,311.9,20c94.2,7.2,146.1-15.2,289-38.5
		c97.3-15.9,311.9,38,311.9,38L922.4,899.6l-1075.9,23.7L-135.4,345.9z"/>
	<path class="st6" d="M-163.1,443.3c0,0,139.3-50.3,273.3,2.9C246.8,500.3,437.7,436,437.7,436s120.5-5,262.5,15
		c118.7,16.7,274-40,274-40l-38.5,493.8l-1134.6,27.8L-163.1,443.3z"/>
	<path class="st3" d="M984.4,513.2c0,0-243.2-27.2-321.9,0c-78.7,27.2-163-1.6-216-12.1c-46.3-9.2-97.3-11-187.4,21.3
		S-8,499.4-8,499.4l-15.4,364.3L941.4,848L984.4,513.2z"/>
	<path class="st4" d="M995.9,575c0,0-110.2,31.2-296.2,0s-226.7-7.6-300.5,6.9c-63,12.4-124.5,8.3-256.1-19.2
		s-287.6,62.6-287.6,62.6l42.9,280.4l1025.2-16.6L995.9,575z"/>
	<path class="st5" d="M934.3,642.8c0,0-149.4-44.2-280.5,0c-130.2,44-242-6.4-311.9-10.3c-72.6-4-208,13.2-270.4,21.4
		c-73,9.6-183.1-66-183.1-66l1.4,301.1H923L934.3,642.8z"/>
	<path class="st6" d="M958.6,686.9c0,0-141.6,22.9-188.9,8.6c-47.2-14.3-162.3,12.4-183.1,15.7c-63,10-137.2-24.1-177.7-30.2
		c-68.4-10.3-171.7,32.6-212.9,44.5C121.6,746.9-5.1,680.9-5.1,680.9l-29.7,230.7l970.5,1.1L958.6,686.9z"/>
</g>
</svg>
