<svg id="imtired" xmlns="http://www.w3.org/2000/svg" viewBox="0 0 900 900" enable-background="new 0 0 900 900">
  <style>
    .st0{filter:url(#Adobe_OpacityMaskFilter);} .st1{fill:#FFFFFF;} .st2{mask:url(#SVGID_1_);} .st3{fill:#DF708A;} .st4{fill:#FCB5B2;} .st5{fill:#312D65;} .st6{fill:#4D4B84;}
  </style>
  <defs>
    <filter id="Adobe_OpacityMaskFilter" filterUnits="userSpaceOnUse" x="-198.9" y="-30" width="1292.9" height="991.5">
      <feColorMatrix values="1 0 0 0 0 0 1 0 0 0 0 0 1 0 0 0 0 0 1 0"/>
    </filter>
  </defs>
  <mask maskUnits="userSpaceOnUse" x="-198.9" y="-30" width="1292.9" height="991.5" id="SVGID_1_">
    <g class="st0">
      <path class="st1" d="M548.9 234.7c0 2.7-6.4 9.1-19.3 19.2-12.9 10-24.6 15.1-35 15.1-7.2 0-12.4-1.8-15.6-5.5-3.2-3.7-4.9-7.8-4.9-12.4 0-2.9.4-5.6 1.3-8.1s1.8-5 2.8-7.5l24.3-50.4c1.4-2.9 2.3-5.2 2.9-7 .6-1.8.9-3.4.9-4.7 0-1.4-.3-2.3-.8-2.9-.5-.6-1.2-.9-2-.9-2.2 0-6.5 3.4-12.9 10.1-6.4 6.7-10.2 10.1-11.4 10.1-1.4 0-2.7-.9-4.1-2.8-1.4-1.9-2-3.1-2-3.6 0-1.7 1.6-4.5 4.9-8.3 3.2-3.8 7.3-7.9 12.3-12.2 4.4-3.9 9.8-7.6 16-11 6.2-3.4 11.7-5.1 16.5-5.1 7.7 0 13.4 2.2 17.3 6.5 3.8 4.3 5.8 9.6 5.8 15.7 0 2.6-.3 5.3-.8 8.2-.5 2.9-1.6 5.9-3.3 9l-19.4 42.7c-1.5 3.6-2.6 6.5-3.3 8.7-.7 2.2-1 3.8-1 4.6 0 1 .3 1.7.8 1.9.5.3 1 .4 1.5.4 3.8 0 8.1-2.7 13.2-8.1 5-5.4 8.2-8.1 9.6-8.1 1.2 0 2.5.9 3.8 2.7 1.2 1.7 1.9 3 1.9 3.7zm19.7-132.1c0 6.3-2.3 11.8-6.8 16.4-4.5 4.6-10 6.9-16.5 6.9-6.3 0-11.8-2.3-16.4-6.9-4.6-4.6-6.9-10.1-6.9-16.4 0-6.3 2.3-11.8 6.9-16.4 4.6-4.6 10.1-6.9 16.4-6.9 6.5 0 12 2.3 16.5 6.9 4.5 4.7 6.8 10.1 6.8 16.4zM643.3 106.2c0 9.7-2.6 18.5-7.7 26.5-5.1 7.9-10.7 14.3-16.6 19.1-6.3 5.1-12.5 9.2-18.4 12.2-6 3-9.7 4.6-11.3 4.7-.9 0-1.9-1.1-3.2-3.3-1.3-2.2-1.9-3.9-1.9-5.1 0-.5 1.8-1.8 5.5-3.8 3.7-2 7.1-4.3 10.4-6.7 4.3-3.2 7.9-6.4 11-9.5 3.1-3.1 4.6-7.1 4.6-12 0-.5-.2-.9-.6-1.3-.4-.3-.9-.5-1.4-.5s-1 0-1.5.1-1 .1-1.5.1c-3.8 0-7-1.6-9.7-4.9-2.7-3.2-4.1-7.2-4.1-11.8 0-7.8 2.4-14.3 7.3-19.4 4.9-5.1 10.5-7.7 17-7.7 6.3 0 11.6 2.1 15.9 6.4 4 4.3 6.2 9.9 6.2 16.9zM851.8 234.7c0 2.7-6.5 9.1-19.5 19.2S807.6 269 797.2 269c-7.2 0-12.3-1.8-15.5-5.4-3.2-3.6-4.7-7.8-4.7-12.5 0-2.7.3-5.2.9-7.3.6-2.1 1.7-4.9 3.2-8.3l23.3-48.1c1-2.4 1.9-4.6 2.7-6.7.8-2 1.2-3.8 1.2-5.1 0-1.4-.3-2.3-.9-2.9-.6-.6-1.3-.9-2.2-.9-5.4 0-12.4 5.5-20.9 16.5-8.5 11-19.2 27.8-32.1 50.5l-10.3 21.7c-.9 1.5-3.6 2.8-8.3 3.8-4.7 1-9 1.5-12.9 1.5-5.3 0-10.1-.6-14.4-1.7-4.3-1.1-6.2-2.3-5.6-3.7l35.1-73.2c1.4-2.9 2.3-5.2 2.9-7 .6-1.8.9-3.4.9-4.7 0-1.4-.3-2.3-.8-2.9-.5-.6-1.2-.9-2-.9-5.6 0-13.1 5.7-22.5 17.1-9.4 11.4-20.3 28.1-32.8 49.9l-10 21.7c-.9 1.5-3.6 2.8-8.3 3.8-4.7 1-9.1 1.5-13.1 1.5-4.9 0-9.5-.6-13.8-1.8-4.3-1.2-6.1-2.4-5.6-3.6l34.8-75.5c1-2.4 1.9-4.6 2.7-6.7.8-2 1.2-3.8 1.2-5.1 0-1.4-.3-2.3-.9-2.9-.6-.6-1.3-.9-2.2-.9-2 0-6.3 3.4-12.8 10.1-6.5 6.7-10.2 10.1-11.3 10.1-1.4 0-2.8-.9-4.2-2.8-1.5-1.9-2.2-3.1-2.2-3.6 0-1.7 1.6-4.5 4.8-8.3 3.2-3.8 7.3-7.9 12.2-12.2 4.4-3.9 9.7-7.6 15.9-11 6.2-3.4 11.7-5.1 16.5-5.1 7.5 0 13 2 16.6 6.1s5.4 9.1 5.4 15.1c0 2.4-.3 4.9-.8 7.7-.5 2.7-1.6 5.6-3.3 8.7l-1.3 2.8c8.6-12.8 17.8-22.7 27.7-29.8 9.9-7.1 19.4-10.6 28.7-10.6 7.6 0 12.8 2.3 15.7 7 2.9 4.7 4.4 9.4 4.4 14.2 0 2.6-.3 5.4-1 8.4-.7 3.1-1.8 5.9-3.3 8.4l-1.3 3.1c8-12.6 16.8-22.6 26.3-30.1 9.5-7.4 18.5-11.1 27-11.1 7.6 0 13.4 2.2 17.2 6.5 3.8 4.3 5.7 9.6 5.7 15.7 0 2.7-.3 5.5-.9 8.2-.6 2.7-1.7 5.7-3.2 9l-19.4 42.7c-1.9 4.1-3.1 7.1-3.6 9.1s-.8 3.4-.8 4.2c0 1 .2 1.7.6 1.9.4.3 1 .4 1.7.4 3.4 0 7.8-2.7 13-8.1 5.3-5.4 8.5-8.1 9.7-8.1 1.2 0 2.5.9 3.8 2.7 1.3 2.2 2 3.5 2 4.2z"/>
      <g>
        <path class="st1" d="M368.2 433.7c0 1.7-.6 3.7-1.9 5.9-1.3 2.2-2.4 3.3-3.4 3.3l-25.4-.8-20.8 61.7c-.7 2-1.3 4.1-1.8 6.3-.5 2.1-.8 3.9-.8 5.2 0 1.4.2 2.4.5 3.1.3.7 1.1 1 2.3 1 4.2 0 9.2-2.8 14.8-8.3 5.6-5.5 9-8.3 10.2-8.3 1.4 0 3 .9 5 2.8s2.9 3.2 2.9 3.8c0 1-1.9 3.5-5.8 7.4-3.8 3.9-8.3 7.7-13.4 11.3-6.3 4.6-12.2 8.4-17.8 11.4-5.5 3-11.5 4.5-17.8 4.5-7.3 0-13.2-1.9-17.5-5.8-4.3-3.8-6.5-9.3-6.5-16.2 0-2.6.2-4.7.6-6.4.4-1.7 1.1-4 1.9-6.9l22.5-66.3-19.4.5c-1 0-1.7-.8-2.2-2.3s-.6-2.8-.6-3.8c0-1.9.6-3.9 1.9-6 1.3-2.1 2.3-3.2 3.2-3.2h22.3l9.4-27.6c.3-1.4 3.7-2.4 10.1-3.2 6.4-.8 10.4-1.2 11.9-1.2 2.4 0 6.3.4 11.7 1.3 5.4.9 7.8 1.9 7.3 3.1l-9.4 27.6h23.1c1 0 1.7.8 2.2 2.3.5 1.5.7 2.8.7 3.8zM444.5 509.7c0 2.7-6.4 9.1-19.3 19.2s-24.6 15.1-35 15.1c-7.2 0-12.4-1.8-15.6-5.5-3.2-3.7-4.9-7.8-4.9-12.4 0-2.9.4-5.6 1.3-8.1s1.8-5 2.8-7.5l24.3-50.4c1.4-2.9 2.3-5.2 2.9-7 .6-1.8.9-3.4.9-4.7 0-1.4-.3-2.3-.8-2.9-.5-.6-1.2-.9-2-.9-2.2 0-6.5 3.4-12.9 10.1-6.4 6.7-10.2 10.1-11.4 10.1-1.4 0-2.7-.9-4.1-2.8-1.4-1.9-2-3.1-2-3.6 0-1.7 1.6-4.5 4.9-8.3 3.2-3.8 7.3-7.9 12.3-12.2 4.4-3.9 9.8-7.6 16-11 6.2-3.4 11.7-5.1 16.5-5.1 7.7 0 13.4 2.2 17.3 6.5 3.8 4.3 5.8 9.6 5.8 15.7 0 2.6-.3 5.3-.8 8.2-.5 2.9-1.6 5.9-3.3 9L418 503.9c-1.5 3.6-2.6 6.5-3.3 8.7-.7 2.2-1 3.8-1 4.6 0 1 .3 1.7.8 1.9.5.3 1 .4 1.5.4 3.8 0 8.1-2.7 13.2-8.1 5-5.4 8.2-8.1 9.6-8.1 1.2 0 2.5.9 3.8 2.7 1.2 1.8 1.9 3 1.9 3.7zm19.7-132c0 6.3-2.3 11.8-6.8 16.4-4.5 4.6-10 6.9-16.5 6.9-6.3 0-11.8-2.3-16.4-6.9-4.6-4.6-6.9-10.1-6.9-16.4 0-6.3 2.3-11.8 6.9-16.4 4.6-4.6 10.1-6.9 16.4-6.9 6.5 0 12 2.3 16.5 6.9 4.5 4.6 6.8 10.1 6.8 16.4zM582.6 443.4c0 6.1-1.8 11.3-5.3 15.4s-8.2 6.1-14.2 6.1c-3.2 0-5.7-.6-7.3-1.8-1.6-1.2-3-2.6-4.2-4.3-1-1.5-2.2-3-3.6-4.3-1.4-1.4-3.2-2-5.4-2-5.5 0-12.8 8.7-21.9 26-9.1 17.3-17.4 36.7-24.7 58.2-.5 1.4-3.5 2.4-8.9 3.2-5.4.8-9.1 1.2-11 1.2-2 0-6.1-.4-12.3-1.2-6.1-.8-9-1.8-8.7-3.2l25.3-76.5c1.2-3.8 2-6.5 2.6-8.2.5-1.7.8-3.2.8-4.6 0-.9-.2-1.5-.6-2-.4-.5-1-.8-1.7-.8-2.6 0-5.9 2.3-10 7s-6.8 7-8.2 7c-1.4 0-2.7-.9-4.1-2.8-1.4-1.9-2-3.1-2-3.6 0-3.1 4.7-8.9 14.2-17.5s19.2-12.9 29.3-12.9c7.3 0 13.1 2 17.4 6 4.3 4 6.4 9.3 6.4 16 0 1.5-.1 2.9-.3 4.1-.2 1.2-.5 2.4-1 3.6l-7.3 20c8.3-16.5 16-29 23-37.2 7-8.3 14.2-12.4 21.7-12.4 6.5 0 11.8 2 15.8 6 4.2 3.8 6.2 9.1 6.2 15.5zM681.4 449.6c0 9.7-5.8 19.2-17.3 28.5S636.5 492 615.9 492c-.5 2.2-.9 4.4-1 6.5-.2 2.1-.3 4.1-.3 6 0 6 1.2 10.9 3.6 14.8 2.4 3.9 6.4 5.9 12 5.9 6.7 0 12.9-2.1 18.7-6.4 5.8-4.3 10.4-8.8 13.8-13.6.9 0 1.4.1 1.8.3.3.2.7.5 1.2.9l1.2 1.2c.7.7 1.4 1.6 2 2.7.7 1.1.9 1.9.5 2.4-4.1 8.4-11.4 15.7-22 21.9-10.6 6.2-21 9.3-31.2 9.3-12.1 0-22.1-3.5-30.1-10.5s-11.9-15.7-11.9-26.1c0-21.8 8.7-41.6 26.2-59.2 17.5-17.7 34.2-26.5 50.3-26.5 11.3 0 19.2 2.9 23.8 8.6 4.6 5.8 6.9 12.2 6.9 19.4zm-31.5-2.3c0-2.9-.4-5.1-1.2-6.5-.8-1.4-2.5-2.2-5.2-2.2-5.3 0-10.5 4.2-15.6 12.7-5.1 8.4-8.4 18-10 28.5 9.2 0 16.8-3.6 22.9-10.9 6.1-7.2 9.1-14.5 9.1-21.6zM851.8 355.8c0 .9-.1 1.9-.4 3.1-.3 1.2-.6 2.4-1.2 3.6l-48.6 136c-.9 2.2-1.9 5.1-3.1 8.6-1.2 3.5-1.8 5.9-1.8 7.3 0 1.2.2 2.2.5 2.9.3.8 1.1 1.1 2.3 1.1 3.1 0 6.3-2.6 9.6-7.7s5.5-7.7 6.5-7.7c1.2 0 2.5.9 3.8 2.7 1.4 1.8 2 3 2 3.7 0 3.1-4.3 9.6-12.9 19.6-8.6 10-17.7 15-27.2 15-6.3 0-11-1.5-14.2-4.6-3.2-3.1-4.7-7.5-4.7-13.3 0-3.2.5-6.6 1.4-10.1.9-3.5 2.3-7.5 4.2-11.9-7 11.8-14.4 21.4-22.3 28.8-7.8 7.4-17.3 11.1-28.4 11.1-9.7 0-17.5-3.2-23.3-9.7-5.8-6.5-8.7-15.2-8.7-26.1 0-21.3 8.8-41.1 26.5-59.2 17.6-18.2 36-27.2 55.1-27.2 5.1 0 9.1.8 12 2.4 2.9 1.6 4.9 3.2 5.9 4.7l11.6-32.4c.9-2.4 1.5-4.5 2-6.5s.8-3.6.8-5c0-1.9-1-3.2-2.9-4-2-.8-5.6-1.5-10.9-2.2-.5-.2-1-.9-1.4-2.2-.4-1.3-.6-2.3-.6-3.2 0-.9.2-1.9.5-3.2.3-1.3.9-1.9 1.5-1.9 8.5-1.4 19.1-3.5 31.6-6.4 12.5-2.9 21.1-5.3 25.7-7.2.5-.3 1.5-.7 2.9-1.2 1.5-.4 2.6-.6 3.5-.6.7 0 1.3.3 1.8.9.6.7.9 1.3.9 2zm-71.9 87.1c0-2.6-.5-4.4-1.5-5.5-1-1.1-2.6-1.7-4.9-1.7-10.7 0-21.2 8.1-31.3 24.4-10.2 16.3-15.2 33.1-15.2 50.5 0 4.1.7 7.1 2.2 9.1 1.4 2 3.4 2.9 5.8 2.9 3.8 0 8.2-3.1 13.4-9.3 5.2-6.2 10.3-14.2 15.2-23.9 5.1-10.2 9.1-19.3 12-27.1 2.8-7.8 4.3-14.2 4.3-19.4z"/>
      </g>
    </g>
  </mask>
  <g class="st2">
    <path class="st3" d="M-60.5-30h976.2v991.5H-60.5z"/>
    <path class="st4" d="M968.4 60.6s-197.3 17.2-324.7.1-286.1 14.2-286.1 14.2-79.1 2.9-183.6-27.2S-61 71-61 71v849l1062.3-13.9-32.9-845.5z"/>
    <path class="st5" d="M995.9 132.4S538.8 78.7 451.6 115-35 102.5-35 102.5V912h960.8l70.1-779.6z"/>
    <path class="st6" d="M1034.4 164.1s-218.9 41.5-331.9 28.6-224.6-28-303.3 2.5-247.5-9.6-247.5-9.6-148.8-21.5-253.2 63l20 705.4L963 938.3l71.4-774.2z"/>
    <path class="st3" d="M922.8 239.9s-200.3-35.8-319.1 0-336.2 4.3-356.3 0S17.2 227-74.4 275.6s-34.3 659.6-34.3 659.6l1053-7.2-21.5-688.1z"/>
    <path class="st4" d="M977.2 294.4S844.1 332 735.4 317.7c-67.8-8.9-272.2-37.1-349.1-12.9-150.2 47.2-228 0-303.3-8.6-48.6-5.6-85.8-2.9-176 67.2-109.6 85.3-17 549.3-17 549.3l1054.3-15.6 32.9-602.7z"/>
    <path class="st5" d="M-135.4 345.9s173.6 49 316.6 21.4c143-27.6 200.3 11.4 311.9 20 94.2 7.2 146.1-15.2 289-38.5 97.3-15.9 311.9 38 311.9 38L922.4 899.6l-1075.9 23.7 18.1-577.4z"/>
    <path class="st6" d="M-163.1 443.3s139.3-50.3 273.3 2.9C246.8 500.3 437.7 436 437.7 436s120.5-5 262.5 15c118.7 16.7 274-40 274-40l-38.5 493.8-1134.6 27.8 35.8-489.3z"/>
    <path class="st3" d="M984.4 513.2s-243.2-27.2-321.9 0c-78.7 27.2-163-1.6-216-12.1-46.3-9.2-97.3-11-187.4 21.3S-8 499.4-8 499.4l-15.4 364.3L941.4 848l43-334.8z"/>
    <path class="st4" d="M995.9 575s-110.2 31.2-296.2 0-226.7-7.6-300.5 6.9c-63 12.4-124.5 8.3-256.1-19.2s-287.6 62.6-287.6 62.6l42.9 280.4 1025.2-16.6L995.9 575z"/>
    <path class="st5" d="M934.3 642.8s-149.4-44.2-280.5 0c-130.2 44-242-6.4-311.9-10.3-72.6-4-208 13.2-270.4 21.4-73 9.6-183.1-66-183.1-66l1.4 301.1H923l11.3-246.2z"/>
    <path class="st6" d="M958.6 686.9s-141.6 22.9-188.9 8.6c-47.2-14.3-162.3 12.4-183.1 15.7-63 10-137.2-24.1-177.7-30.2-68.4-10.3-171.7 32.6-212.9 44.5-74.4 21.4-201.1-44.6-201.1-44.6l-29.7 230.7 970.5 1.1 22.9-225.8z"/>
  </g>
</svg>
