<?xml version="1.0" encoding="utf-8"?>
<!-- Generator: Adobe Illustrator 19.1.0, SVG Export Plug-In . SVG Version: 6.00 Build 0)  -->
<svg version="1.1" id="imtired" xmlns="http://www.w3.org/2000/svg" xmlns:xlink="http://www.w3.org/1999/xlink" x="0px" y="0px"
	 viewBox="0 0 900 900" style="enable-background:new 0 0 900 900;" xml:space="preserve">
<style type="text/css">
	.st0{filter:url(#Adobe_OpacityMaskFilter);}
	.st1{fill:#FFFFFF;}
	.st2{mask:url(#SVGID_1_);}
	.st3{fill:#DF708A;}
	.st4{fill:#FCB5B2;}
	.st5{fill:#312D65;}
	.st6{fill:#4D4B84;}
</style>
<defs>
	<filter id="Adobe_OpacityMaskFilter" filterUnits="userSpaceOnUse" x="-224.9" y="-30" width="1292.9" height="991.5">
		<feColorMatrix  type="matrix" values="1 0 0 0 0  0 1 0 0 0  0 0 1 0 0  0 0 0 1 0"/>
	</filter>
</defs>
<mask maskUnits="userSpaceOnUse" x="-224.9" y="-30" width="1292.9" height="991.5" id="SVGID_1_">
	<g class="st0">
		<g>
			<path class="st1" d="M157.2,230.3c0,2.7-6.4,9.1-19.3,19.2c-12.9,10.1-24.5,15.1-34.9,15.1c-7.2,0-12.4-1.8-15.6-5.5
				c-3.2-3.7-4.9-7.8-4.9-12.4c0-2.9,0.4-5.6,1.3-8.1c0.9-2.5,1.8-5,2.8-7.5l24.3-50.4c1.4-2.9,2.3-5.2,2.9-7
				c0.6-1.8,0.9-3.4,0.9-4.7c0-1.4-0.3-2.3-0.8-2.9c-0.5-0.6-1.2-0.9-2-0.9c-2.2,0-6.5,3.4-12.9,10.1c-6.4,6.7-10.2,10.1-11.4,10.1
				c-1.4,0-2.7-0.9-4.1-2.8c-1.4-1.9-2-3.1-2-3.6c0-1.7,1.6-4.5,4.9-8.3c3.2-3.8,7.3-7.9,12.3-12.2c4.4-3.9,9.8-7.6,16-11
				c6.2-3.4,11.7-5.1,16.5-5.1c7.7,0,13.4,2.2,17.3,6.5c3.8,4.3,5.8,9.6,5.8,15.7c0,2.6-0.3,5.3-0.8,8.2c-0.5,2.9-1.6,5.9-3.3,9
				l-19.4,42.7c-1.5,3.6-2.6,6.5-3.3,8.7c-0.7,2.2-1,3.8-1,4.6c0,1,0.3,1.7,0.8,1.9c0.5,0.3,1,0.4,1.5,0.4c3.8,0,8.1-2.7,13.2-8.1
				c5-5.4,8.2-8.1,9.6-8.1c1.2,0,2.5,0.9,3.8,2.7C156.5,228.4,157.2,229.6,157.2,230.3z M176.9,98.3c0,6.3-2.3,11.8-6.8,16.4
				c-4.5,4.6-10,6.9-16.5,6.9c-6.3,0-11.8-2.3-16.4-6.9c-4.6-4.6-6.9-10.1-6.9-16.4c0-6.3,2.3-11.8,6.9-16.4
				c4.6-4.6,10.1-6.9,16.4-6.9c6.5,0,12,2.3,16.5,6.9C174.6,86.5,176.9,92,176.9,98.3z"/>
			<path class="st1" d="M251.6,101.9c0,9.7-2.6,18.5-7.7,26.5c-5.1,7.9-10.7,14.3-16.6,19.1c-6.3,5.1-12.5,9.2-18.4,12.2
				c-6,3-9.7,4.6-11.3,4.7c-0.9,0-1.9-1.1-3.2-3.3c-1.3-2.2-1.9-3.9-1.9-5.1c0-0.5,1.8-1.8,5.5-3.8c3.7-2,7.1-4.3,10.4-6.7
				c4.3-3.2,7.9-6.4,11-9.5c3.1-3.1,4.6-7.1,4.6-12c0-0.5-0.2-0.9-0.6-1.3c-0.4-0.3-0.9-0.5-1.4-0.5s-1,0-1.5,0.1
				c-0.5,0.1-1,0.1-1.5,0.1c-3.8,0-7-1.6-9.7-4.9c-2.7-3.2-4.1-7.2-4.1-11.8c0-7.8,2.4-14.3,7.3-19.4c4.9-5.1,10.5-7.7,17-7.7
				c6.3,0,11.6,2.1,15.9,6.4C249.5,89.2,251.6,94.9,251.6,101.9z"/>
			<path class="st1" d="M460.1,230.3c0,2.7-6.5,9.1-19.5,19.2c-13,10.1-24.7,15.1-35.1,15.1c-7.2,0-12.3-1.8-15.5-5.4
				c-3.2-3.6-4.7-7.8-4.7-12.5c0-2.7,0.3-5.2,0.9-7.3c0.6-2.1,1.7-4.9,3.2-8.3l23.3-48.1c1-2.4,1.9-4.6,2.7-6.7
				c0.8-2,1.2-3.8,1.2-5.1c0-1.4-0.3-2.3-0.9-2.9c-0.6-0.6-1.3-0.9-2.2-0.9c-5.4,0-12.4,5.5-20.9,16.5c-8.5,11-19.2,27.8-32.1,50.5
				l-10.3,21.7c-0.9,1.5-3.6,2.8-8.3,3.8c-4.7,1-9,1.5-12.9,1.5c-5.3,0-10.1-0.6-14.4-1.7c-4.3-1.1-6.2-2.3-5.6-3.7L344,183
				c1.4-2.9,2.3-5.2,2.9-7c0.6-1.8,0.9-3.4,0.9-4.7c0-1.4-0.3-2.3-0.8-2.9c-0.5-0.6-1.2-0.9-2-0.9c-5.6,0-13.1,5.7-22.5,17.1
				c-9.4,11.4-20.3,28.1-32.8,49.9l-10,21.7c-0.9,1.5-3.6,2.8-8.3,3.8c-4.7,1-9.1,1.5-13.1,1.5c-4.9,0-9.5-0.6-13.8-1.8
				c-4.3-1.2-6.1-2.4-5.6-3.6l34.8-75.5c1-2.4,1.9-4.6,2.7-6.7c0.8-2,1.2-3.8,1.2-5.1c0-1.4-0.3-2.3-0.9-2.9
				c-0.6-0.6-1.3-0.9-2.2-0.9c-2,0-6.3,3.4-12.8,10.1c-6.5,6.7-10.2,10.1-11.3,10.1c-1.4,0-2.8-0.9-4.2-2.8
				c-1.5-1.9-2.2-3.1-2.2-3.6c0-1.7,1.6-4.5,4.8-8.3c3.2-3.8,7.3-7.9,12.2-12.2c4.4-3.9,9.7-7.6,15.9-11c6.2-3.4,11.7-5.1,16.5-5.1
				c7.5,0,13,2,16.6,6.1c3.6,4.1,5.4,9.1,5.4,15.1c0,2.4-0.3,4.9-0.8,7.7c-0.5,2.7-1.6,5.6-3.3,8.7l-1.3,2.8
				c8.6-12.8,17.8-22.7,27.7-29.8c9.9-7.1,19.4-10.6,28.7-10.6c7.6,0,12.8,2.3,15.7,7c2.9,4.7,4.4,9.4,4.4,14.2c0,2.6-0.3,5.4-1,8.4
				c-0.7,3.1-1.8,5.9-3.3,8.4l-1.3,3.1c8-12.6,16.8-22.6,26.3-30.1c9.5-7.4,18.5-11.1,27-11.1c7.6,0,13.4,2.2,17.2,6.5
				c3.8,4.3,5.7,9.6,5.7,15.7c0,2.7-0.3,5.5-0.9,8.2c-0.6,2.7-1.7,5.7-3.2,9l-19.4,42.7c-1.9,4.1-3.1,7.1-3.6,9.1
				c-0.5,2-0.8,3.4-0.8,4.2c0,1,0.2,1.7,0.6,1.9c0.4,0.3,1,0.4,1.7,0.4c3.4,0,7.8-2.7,13-8.1c5.3-5.4,8.5-8.1,9.7-8.1
				c1.2,0,2.5,0.9,3.8,2.7C459.4,228.4,460.1,229.6,460.1,230.3z"/>
			<path class="st1" d="M178.4,429.4c0,1.7-0.6,3.7-1.9,5.9c-1.3,2.2-2.4,3.3-3.4,3.3l-25.4-0.8l-20.8,61.7c-0.7,2-1.3,4.1-1.8,6.3
				c-0.5,2.1-0.8,3.9-0.8,5.2c0,1.4,0.2,2.4,0.5,3.1c0.3,0.7,1.1,1,2.3,1c4.2,0,9.2-2.8,14.8-8.3c5.6-5.5,9-8.3,10.2-8.3
				c1.4,0,3,0.9,5,2.8c2,1.9,2.9,3.2,2.9,3.8c0,1-1.9,3.5-5.8,7.4c-3.8,3.9-8.3,7.7-13.4,11.3c-6.3,4.6-12.2,8.4-17.8,11.4
				c-5.5,3-11.5,4.5-17.8,4.5c-7.3,0-13.2-1.9-17.5-5.8c-4.3-3.8-6.5-9.3-6.5-16.2c0-2.6,0.2-4.7,0.6-6.4c0.4-1.7,1.1-4,1.9-6.9
				l22.5-66.3l-19.4,0.5c-1,0-1.7-0.8-2.2-2.3c-0.4-1.5-0.6-2.8-0.6-3.8c0-1.9,0.6-3.9,1.9-6c1.3-2.1,2.3-3.2,3.2-3.2h22.3l9.4-27.6
				c0.3-1.4,3.7-2.4,10.1-3.2c6.4-0.8,10.4-1.2,11.9-1.2c2.4,0,6.3,0.4,11.7,1.3c5.4,0.9,7.8,1.9,7.3,3.1l-9.4,27.6h23.1
				c1,0,1.7,0.8,2.2,2.3C178.2,427.1,178.4,428.3,178.4,429.4z"/>
			<path class="st1" d="M254.7,505.4c0,2.7-6.4,9.1-19.3,19.2c-12.9,10.1-24.5,15.1-34.9,15.1c-7.2,0-12.4-1.8-15.6-5.5
				c-3.2-3.7-4.9-7.8-4.9-12.4c0-2.9,0.4-5.6,1.3-8.1c0.9-2.5,1.8-5,2.8-7.5l24.3-50.4c1.4-2.9,2.3-5.2,2.9-7
				c0.6-1.8,0.9-3.4,0.9-4.7c0-1.4-0.3-2.3-0.8-2.9c-0.5-0.6-1.2-0.9-2-0.9c-2.2,0-6.5,3.4-12.9,10.1c-6.4,6.7-10.2,10.1-11.4,10.1
				c-1.4,0-2.7-0.9-4.1-2.8c-1.4-1.9-2-3.1-2-3.6c0-1.7,1.6-4.5,4.9-8.3c3.2-3.8,7.3-7.9,12.3-12.2c4.4-3.9,9.8-7.6,16-11
				c6.2-3.4,11.7-5.1,16.5-5.1c7.7,0,13.4,2.2,17.3,6.5c3.8,4.3,5.8,9.6,5.8,15.7c0,2.6-0.3,5.3-0.8,8.2c-0.5,2.9-1.6,5.9-3.3,9
				l-19.4,42.7c-1.5,3.6-2.6,6.5-3.3,8.7c-0.7,2.2-1,3.8-1,4.6c0,1,0.3,1.7,0.8,1.9c0.5,0.3,1,0.4,1.5,0.4c3.8,0,8.1-2.7,13.2-8.1
				c5-5.4,8.2-8.1,9.6-8.1c1.2,0,2.5,0.9,3.8,2.7C254,503.4,254.7,504.7,254.7,505.4z M274.4,373.3c0,6.3-2.3,11.8-6.8,16.4
				c-4.5,4.6-10,6.9-16.5,6.9c-6.3,0-11.8-2.3-16.4-6.9c-4.6-4.6-6.9-10.1-6.9-16.4c0-6.3,2.3-11.8,6.9-16.4
				c4.6-4.6,10.1-6.9,16.4-6.9c6.5,0,12,2.3,16.5,6.9C272.1,361.6,274.4,367,274.4,373.3z"/>
			<path class="st1" d="M392.8,439.1c0,6.1-1.8,11.3-5.3,15.4c-3.5,4.1-8.2,6.1-14.2,6.1c-3.2,0-5.7-0.6-7.3-1.8
				c-1.6-1.2-3-2.6-4.2-4.3c-1-1.5-2.2-3-3.6-4.3c-1.4-1.4-3.2-2-5.4-2c-5.5,0-12.8,8.7-21.9,26c-9.1,17.3-17.4,36.7-24.7,58.2
				c-0.5,1.4-3.5,2.4-8.9,3.2c-5.4,0.8-9.1,1.2-11,1.2c-2,0-6.1-0.4-12.3-1.2c-6.1-0.8-9-1.8-8.7-3.2l25.3-76.5
				c1.2-3.8,2-6.5,2.6-8.2c0.5-1.7,0.8-3.2,0.8-4.6c0-0.9-0.2-1.5-0.6-2c-0.4-0.5-1-0.8-1.7-0.8c-2.6,0-5.9,2.3-10,7
				c-4.1,4.7-6.8,7-8.2,7c-1.4,0-2.7-0.9-4.1-2.8c-1.4-1.9-2-3.1-2-3.6c0-3.1,4.7-8.9,14.2-17.5c9.5-8.6,19.2-12.9,29.3-12.9
				c7.3,0,13.1,2,17.4,6c4.3,4,6.4,9.3,6.4,16c0,1.5-0.1,2.9-0.3,4.1c-0.2,1.2-0.5,2.4-1,3.6l-7.3,20c8.3-16.5,16-29,23-37.2
				c7-8.3,14.2-12.4,21.7-12.4c6.5,0,11.8,2,15.8,6C390.8,427.4,392.8,432.6,392.8,439.1z"/>
			<path class="st1" d="M491.6,445.2c0,9.7-5.8,19.2-17.3,28.5c-11.5,9.3-27.6,13.9-48.2,13.9c-0.5,2.2-0.9,4.4-1,6.5
				c-0.2,2.1-0.3,4.1-0.3,6c0,6,1.2,10.9,3.6,14.8c2.4,3.9,6.4,5.9,12,5.9c6.7,0,12.9-2.1,18.7-6.4c5.8-4.3,10.4-8.8,13.8-13.6
				c0.9,0,1.4,0.1,1.8,0.3c0.3,0.2,0.7,0.5,1.2,0.9c0.4,0.4,0.8,0.8,1.2,1.2c0.7,0.7,1.4,1.6,2,2.7c0.7,1.1,0.9,1.9,0.5,2.4
				c-4.1,8.4-11.4,15.7-22,21.9c-10.6,6.2-21,9.3-31.2,9.3c-12.1,0-22.1-3.5-30.1-10.5c-7.9-7-11.9-15.7-11.9-26.1
				c0-21.8,8.7-41.6,26.2-59.2c17.5-17.7,34.2-26.5,50.3-26.5c11.3,0,19.2,2.9,23.8,8.6C489.3,431.6,491.6,438.1,491.6,445.2z
				 M460.1,442.9c0-2.9-0.4-5.1-1.2-6.5c-0.8-1.4-2.5-2.2-5.2-2.2c-5.3,0-10.5,4.2-15.6,12.7c-5.1,8.4-8.4,18-10,28.5
				c9.2,0,16.8-3.6,22.9-10.9C457.1,457.3,460.1,450.1,460.1,442.9z"/>
			<path class="st1" d="M662,351.5c0,0.9-0.1,1.9-0.4,3.1c-0.3,1.2-0.6,2.4-1.2,3.6l-48.6,136c-0.9,2.2-1.9,5.1-3.1,8.6
				c-1.2,3.5-1.8,5.9-1.8,7.3c0,1.2,0.2,2.2,0.5,2.9c0.3,0.8,1.1,1.1,2.3,1.1c3.1,0,6.3-2.6,9.6-7.7c3.3-5.1,5.5-7.7,6.5-7.7
				c1.2,0,2.5,0.9,3.8,2.7c1.4,1.8,2,3,2,3.7c0,3.1-4.3,9.6-12.9,19.6c-8.6,10-17.7,15-27.2,15c-6.3,0-11-1.5-14.2-4.6
				c-3.2-3.1-4.7-7.5-4.7-13.3c0-3.2,0.5-6.6,1.4-10.1c0.9-3.5,2.3-7.5,4.2-11.9c-7,11.8-14.4,21.4-22.3,28.8
				c-7.8,7.4-17.3,11.1-28.4,11.1c-9.7,0-17.5-3.2-23.3-9.7c-5.8-6.5-8.7-15.2-8.7-26.1c0-21.3,8.8-41.1,26.5-59.2
				c17.6-18.2,36-27.2,55.1-27.2c5.1,0,9.1,0.8,12,2.4c2.9,1.6,4.9,3.2,5.9,4.7l11.6-32.4c0.9-2.4,1.5-4.5,2-6.5
				c0.5-2,0.8-3.6,0.8-5c0-1.9-1-3.2-2.9-4c-2-0.8-5.6-1.5-10.9-2.2c-0.5-0.2-1-0.9-1.4-2.2c-0.4-1.3-0.6-2.3-0.6-3.2
				c0-0.9,0.2-1.9,0.5-3.2c0.3-1.3,0.9-1.9,1.5-1.9c8.5-1.4,19.1-3.5,31.6-6.4c12.5-2.9,21.1-5.3,25.7-7.2c0.5-0.3,1.5-0.7,2.9-1.2
				c1.5-0.4,2.6-0.6,3.5-0.6c0.7,0,1.3,0.3,1.8,0.9C661.7,350.1,662,350.8,662,351.5z M590.1,438.6c0-2.6-0.5-4.4-1.5-5.5
				c-1-1.1-2.6-1.7-4.9-1.7c-10.7,0-21.2,8.1-31.3,24.4c-10.2,16.3-15.2,33.1-15.2,50.5c0,4.1,0.7,7.1,2.2,9.1
				c1.4,2,3.4,2.9,5.8,2.9c3.8,0,8.2-3.1,13.4-9.3c5.2-6.2,10.3-14.2,15.2-23.9c5.1-10.2,9.1-19.3,12-27.1
				C588.7,450.2,590.1,443.7,590.1,438.6z"/>
		</g>
	</g>
</mask>
<g class="st2">
	<rect x="-46.5" y="-30" class="st3" width="976.2" height="991.5"/>
	<path class="st4" d="M-99.2,60.6c0,0,197.3,17.2,324.7,0.1s286.1,14.3,286.1,14.3s79,2.9,183.5-27.2S930,71,930,71v849
		l-1062.2-13.9L-99.2,60.6z"/>
	<path class="st5" d="M-126.7,132.4c0,0,457-53.7,544.2-17.4S904,102.5,904,102.5V912H-56.6L-126.7,132.4z"/>
	<path class="st6" d="M-165.3,166.1c0,0,218.9,41.5,331.9,28.6s224.6-28,303.3,2.5s247.5-9.6,247.5-9.6s148.8-21.5,253.2,63
		l-20,705.4L-93.7,940.1L-165.3,166.1z"/>
	<path class="st3" d="M-53.7,231.9c0,0,200.3-35.8,319.1,0s336.2,4.3,356.3,0S852,219,943.6,267.6s34.3,659.6,34.3,659.6l-1053-7.2
		L-53.7,231.9z"/>
	<path class="st4" d="M-108,294.4c0,0,133.1,37.6,241.8,23.3c67.8-8.9,272.2-37.1,349.1-12.9c150.2,47.2,228,0,303.3-8.6
		c48.6-5.6,85.8-2.9,176,67.2c109.6,85.3,17,549.3,17,549.3L-75.1,897.2L-108,294.4z"/>
	<path class="st5" d="M1004.6,345.9c0,0-173.6,49-316.6,21.4c-143-27.6-200.3,11.4-311.9,20c-94.2,7.2-146.1-15.2-289-38.5
		c-97.3-15.9-311.9,38-311.9,38l171.7,512.7l1075.9,23.7L1004.6,345.9z"/>
	<path class="st6" d="M1032.3,451.3c0,0-139.3-50.3-273.3,2.9C622.3,508.3,431.5,444,431.5,444S311,439,169,459
		c-118.7,16.7-274-40-274-40l38.5,493.8l1134.6,27.8L1032.3,451.3z"/>
	<path class="st3" d="M-115.2,503.2c0,0,243.2-27.2,321.9,0c78.7,27.2,163-1.6,216-12.1c46.3-9.2,97.3-11,187.4,21.3
		s266.9-23.1,266.9-23.1l15.4,364.3L-72.3,838L-115.2,503.2z"/>
	<path class="st4" d="M-126.7,575c0,0,110.2,31.2,296.2,0s226.7-7.6,300.5,6.9c63,12.4,124.5,8.3,256.1-19.2s287.6,62.6,287.6,62.6
		l-42.9,280.4L-54.5,889.1L-126.7,575z"/>
	<path class="st5" d="M-65.2,642.8c0,0,149.4-44.2,280.5,0c130.2,44,242-6.4,311.9-10.3c72.6-4,208,13.2,270.4,21.4
		c73,9.6,183.1-66,183.1-66L979.3,889H-53.8L-65.2,642.8z"/>
	<path class="st6" d="M-89.4,686.9c0,0,141.6,22.9,188.9,8.6c47.2-14.3,162.3,12.4,183.1,15.7c63,10,137.2-24.1,177.7-30.2
		c68.4-10.3,171.7,32.6,212.9,44.5c74.4,21.5,201.1-44.5,201.1-44.5l29.7,230.7l-970.5,1.1L-89.4,686.9z"/>
</g>
</svg>
