<svg xmlns="http://www.w3.org/2000/svg" xmlns:xlink="http://www.w3.org/1999/xlink" version="1.1" x="0px" y="0px" viewBox="0 0 900 900" xml:space="preserve"><style type="text/css">
	.st0{fill:#AEE5CA;}
	.st1{fill:#326565;}
	.st2{fill:#F7F7F7;}
	.st3{fill:#4C8675;}
	.st4{fill:#7E9650;}
	.st5{fill:#9CEBEE;}
	.st6{fill:#A3A3A3;}
	.st7{fill:#BCBCBC;}
	.st8{opacity:0.41;}
	.st9{opacity:0.19;}
	.st10{fill:#494949;}
	.st11{fill:#AAAAAA;}
	.st12{fill:#B2AAA3;}
	.st13{fill:#703D32;}
	.st14{fill:#C19A6F;}
	.st15{fill:#031C40;}
	.st16{fill:url(#SVGID_1_);}
	.st17{fill:#CCC5BE;}
	.st18{fill:#934B35;}
	.st19{fill:#7F7F7F;}
	.st20{fill:url(#SVGID_2_);}
	.st21{fill:url(#SVGID_3_);}
	.st22{fill:#2E3192;}
	.st23{fill:#777777;}
</style><g id="bg"><rect x="-26.1" y="-33" class="st0" width="1014.3" height="430.7"/><path class="st1" d="M494 275.1C410.8 290.4 77.9-47.4-26.1 199.7c-92.9 220.7 79.5 237.6 79.5 237.6L499 415.1C499 415.1 527.5 269 494 275.1z"/><path class="st2" d="M432 160.3c0 0-188.4-44.6-154 14.8 0 0-142.6-20.9-99.1 37.9 0 0-50.5-49-54.9-15.5 0 0-83.2-21.5-53.6 41.9 0 0-150.4 25.1-3.9 37.3 0 0-16.6 49.5 121.2-5.2 0 0-49.8 34.1 51.8 15.7 0 0 21.9 23.5 102-18.7S440.3 201.1 432 160.3z"/><path class="st3" d="M963.9 235.1c-60-55.6-240.7-292.8-418.1-159 -40.4 30.5-73.5-64.3-135 61.8S143 410.8 143 410.8l964.9 40.1C1107.9 451 1008.7 276.6 963.9 235.1z"/><path class="st4" d="M963.9 284.9c0 0-432.6-43.6-612.2 91 0 0-239.8-70.4-385.8 41.3v278.5l1074 36.8L963.9 284.9z"/><rect x="-53.5" y="631.8" class="st5" width="1121.5" height="211.2"/><rect x="-26.1" y="718.7" class="st6" width="990" height="98.1"/><rect x="-26.1" y="779.9" class="st7" width="1094" height="231.1"/><path class="st2" d="M921.9 118.9c0 0-218.7-57.3-162.6 20.7 0 0-142.1-90-110.5-25.5 0 0-44.4-24.9-34.9 4.8 0 0-62.6-9.3-48.3 20.7 0 0-190.1 15-29.4 28.5 160.7 13.5 208.1 0 208.1 0s-8.4 33 92.1-6c0 0 27 18 79.5 7.5C968.4 159.1 921.9 118.9 921.9 118.9z"/></g><g id="Layer_5" class="st8"/><g id="hanging_bike"><ellipse class="st9" cx="247.5" cy="825" rx="119.6" ry="8.2"/><ellipse class="st9" cx="755.5" cy="825" rx="119.6" ry="8.2"/><path class="st10" d="M857.8 695.3l-110.6-31.3 104.9-47.2 -24.4-44.9 -86.8 55.6 44.3-93.1L738.6 516l-30.5 98.9 -24.1-100.8 -52 17.4 38.9 90.9 -78.5-59.8 -32.6 55.4 84.9 37.8 -92.7 5.1 7.2 53 97.8-21.5 -73.6 67.9 38.3 35.6 55.5-69.8 -20 87.1 58 7.6 2.6-91.2 37.3 83.6 47.1-25.6 -55-83.9 90.1 44.4L857.8 695.3zM827.3 573.2l23.4 43 -105 47.3 -19.4-5.5 13.8-28.9L827.3 573.2zM695.8 658l5 3.5 3.9 5 -0.6 0.3 -12.3-4.4 -0.9 4.1 -1.2-2.8L695.8 658zM717.9 660.3l-9.4 4.4 0 0 4.5-9.4 4 1.1L717.9 660.3zM708 667.2l0.1 0.7 -0.4-0.6L708 667.2zM709.1 667.6l3.1 2.2 -2.8-1L709.1 667.6zM707.8 661.6l-1.9-9 -2.6 0.1 3.1-2 4.9 3.7L707.8 661.6zM705.1 653.6l2 9.5 -0.7 1.4 -2.2-1.5 -5.7-7.2 3-1.9L705.1 653.6zM697.2 655.4l-0.8 0.7 0.7-2.1 2.5-0.1L697.2 655.4zM697.1 656.9l1.5 2 -2.1-1.5L697.1 656.9zM692.5 663.7l10.3 3.7 -9.6 4.6 -1.7-3.9L692.5 663.7zM692.7 673.3l1.6 3.5 -4.3-1.9 1.2-5.2L692.7 673.3zM694 673.8l10.3-4.9 -4.9 10.2 -3.8-1.7L694 673.8zM699.9 680.4l2.3 1.1 -4.3 0.9 -1.7-3.7L699.9 680.4zM701.2 680l5.3-11 2.6 3.4 1.6 7.4 -7 1.5L701.2 680zM711.9 680.4l-1.4-6.3 3.4 4.3 -4.5 5.6 -4.3-2.1L711.9 680.4zM715.2 671.9l3.3 2.3 0 1.6 -2.9 1.3 -5.6-7.2L715.2 671.9zM715.6 671l-6.3-4.5 9.3-4.4 2.6 4 -2.8 5.9L715.6 671zM719.1 660.9l-1-4.1 6.8 1.9 -3.1 6.5L719.1 660.9zM717.8 655.6l-2.5-10.6 23.2-14.9 -13.2 27.6L717.8 655.6zM716.7 655.3l-4.2-1.2 -5.2-4 7.1-4.6L716.7 655.3zM706.4 649.5l-6.5-4.9 8-25.9 6.2 25.9L706.4 649.5zM705.5 650l-4.2 2.7 -3.9 0.2 2.3-7.4L705.5 650zM696.3 653l-11 0.6 -12.1-28.2 25.5 19.4L696.3 653zM696 654l-1 3.4 -5.7 5.3 -3.5-8.1L696 654zM688.5 663.4l-7.9 7.3 -31.7-14.1 35.9-2L688.5 663.4zM688.9 664.4l1.6 3.7 -1.5 6.3 -7.5-3.3L688.9 664.4zM688.8 675.5l-2.2 9.5 -26.3 5.8 20.4-18.8L688.8 675.5zM689.7 675.9l5.1 2.3 2 4.5 -9.2 2L689.7 675.9zM697.3 683.6l4.5 10 -22.6 28.5 8.3-36.3L697.3 683.6zM698.3 683.4l5.3-1.2 5.2 2.6 -6.3 8L698.3 683.4zM709.7 685.2l8.3 4.1 -1 36 -14.1-31.5L709.7 685.2zM710.3 684.4l4.8-6.1 3.2-1.4 -0.3 11.3L710.3 684.4zM719.4 676.5l6.8-3 18.2 27.8L719 688.7 719.4 676.5zM719.4 675.4l0.1-3 0 0 2.5-5.3 3.6 5.5L719.4 675.4zM722.5 666.1l3.4-7.1 18.4 5.2 -17.8 8L722.5 666.1zM739.2 517.3l44.7 17.6 -44.5 93.5L715 644l-6.5-27.2L739.2 517.3zM633.3 532.2l49.9-16.7 24.3 101.3 -8.4 27.1 -26.6-20.3L633.3 532.2zM561.1 617.7l31.5-53.5 79 60.2 12.6 29.4 -37.4 2L561.1 617.7zM560 712.7l-6.9-50.9 93.6-5.1 33.1 14.7 -21.3 19.7L560 712.7zM621.6 794.5l-36.7-34.2 74.1-68.3 27.5-6 -8.7 37.9L621.6 794.5zM714.2 819.7l-55.8-7.4 20.2-88.1 23.6-29.7 14.7 32.9L714.2 819.7zM800.8 787.2l-45.2 24.6 -37.7-84.5 1.1-37.6 26.4 13L800.8 787.2zM746.1 702.1L727 673l18.8-8.4 110.7 31.4 -19.7 50.8L746.1 702.1z"/><path class="st10" d="M353.5 667.8L344 612l-113.2 32.1 67.9-96.6 -44-26 -47.8 94.2 -7.9-104.5 -49.4 8.2 22.6 102.5 -70.4-76 -35.7 41.6 78.3 59.9 -96.3-12.9 0.5 64.3 90.5-9.5 -75.2 50.2 33.4 41.8 71-66.8 -26.4 94.2 51.1 10.9 10.1-86.9 29.3 83.4 53.7-23.2 -46.4-78 76.8 50.9 27.2-46.1 -92.2-41.8L353.5 667.8zM343.2 613.2l9.2 53.7 -102.7 10.1 -31.9-14.5 12.1-17.3L343.2 613.2zM208.2 681.2l-4.8 0.5 4.9-4.6 -4.4-4.7 5.1 2L208.2 681.2zM196.4 654.9l4.1-1.2 2.7 2.9 -5.8 8.7 0 0L196.4 654.9zM206.7 667l-7.7-0.6 5.8-8.6 4.5 2 0.5 6.6L206.7 667zM185.8 665.3l-2.5-0.2 0.2-0.7L185.8 665.3zM198 667.9l0.2-0.3 0.5 0.5L198 667.9zM199.3 667.4l3.8 0.3 -2.9 0.6L199.3 667.4zM188.7 657.5l6.6 7.1 0.1 1.6 -2.7-0.2 -8.6-3.3 1.7-3.3L188.7 657.5zM186.8 657.6l1.7-3.3 5.9 0.8 0.7 7.9 -6.3-6.8L186.8 657.6zM182.8 663.1l-0.3 0.9 -0.5-2.2 2.1-1.4L182.8 663.1zM189 666.6l5.9 2.3 -0.3 0.5 -12.8 2.5 1.3 3.8 -2.3-1.8 2.2-7.8L189 666.6zM183.1 672.7l10.7-2.1 -5.9 8.8 -3.4-2.6L183.1 672.7zM188.2 680.8l3.1 2.1 -4.4 0.5 -1.7-4.8L188.2 680.8zM189.6 680.5l6.3-9.4 1 11.2 -4.1 0.4L189.6 680.5zM198 683.2l2.6-0.3 -3.1 2.9 -3.3-2.2L198 683.2zM198.9 682.1l-1.1-12.2 4 1.5 5.1 5.5 -5.2 4.8L198.9 682.1zM201.1 669.1l5.6-1.1 4.1 0.3 0.8 1.3 -1.9 2.7L201.1 669.1zM210.7 666.3l-0.5-6 6 2.7 -4.1 5.8L210.7 666.3zM210.2 659.2l-0.6-8.1 18.8-5.3 -11.5 16.4L210.2 659.2zM209.2 658.7l-4.8-2.2 -2.9-3.2 7.1-2L209.2 658.7zM200.7 652.6l-7.4-8 12.9-25.3 2.3 31.1L200.7 652.6zM199.7 652.9l-4.4 1.2 -6.4-0.9 3.9-7.7L199.7 652.9zM187.9 653.2l-8-1.1 -5.9-26.9 18.2 19.6L187.9 653.2zM187.4 654.1l-2.3 4.6 -3.3 2.2 -1.7-7.7L187.4 654.1zM181 661.4l-8.8 5.9L148 648.8l31.1 4.2L181 661.4zM181.2 662.5l0.8 3.6 0 0 -2 7.3 -7-5.3L181.2 662.5zM179.7 674.3l-2.8 10.1L143 688l29.1-19.4L179.7 674.3zM180.5 675l3.2 2.5 2.1 6 -8 0.8L180.5 675zM186.2 684.4l3.2 9 -19.1 17.9 7.3-26.1L186.2 684.4zM187.2 684.3l5.4-0.6 4.2 2.8 -6.6 6.2L187.2 684.3zM197.6 687.1l9.2 6.1 -4.1 35.3 -12.2-34.7L197.6 687.1zM198.3 686.4l3.8-3.6 5.9-0.6 -1.1 9.9L198.3 686.4zM209.1 682.1l9.4-0.9 18.2 30.6 -28.8-19.1L209.1 682.1zM209.2 681.1l0.9-7.5 2.1-3 5.7 9.6L209.2 681.1zM212.8 669.7l4.4-6.3 30.5 13.8 -28.7 2.8L212.8 669.7zM255.2 522.9l42.1 24.9 -68 96.7 -19.8 5.6 -2.4-32.5L255.2 522.9zM150.8 520.2l47.3-7.9 7.9 105.1 -13.4 26.5 -19.1-20.6L150.8 520.2zM67.6 587.3l34.3-40 70.8 76.4 6.2 28.2 -32.5-4.3L67.6 587.3zM49.6 697.7l-0.4-62.1 96.9 12.9 25.3 19.3 -30.4 20.3L49.6 697.7zM97.4 779.9l-32.1-40.1 75.9-50.6 35.3-3.7 -7.7 27.3L97.4 779.9zM192.2 818.5L143.2 808l26.6-94.7 19.9-18.8 12.7 36.2L192.2 818.5zM284.7 792.5L233 814.9l-29.6-84.3 4.3-36.8 30.1 20L284.7 792.5zM342.3 720.2l-26.1 44.3L238.5 713l-19-32 30-3L342.3 720.2z"/><circle class="st11" cx="705.9" cy="667.1" r="14.6"/><path class="st12" d="M621.5 408.1c-1.1 0-2.1-0.2-3.1-0.8 -3.4-1.7-4.8-5.9-3-9.3l0 0c4-7.9 7.4-17 8.1-21.4 -2.6-0.3-6.5-0.5-8.4-0.5 -1.6 0-2.9-0.2-4-0.2l-25.6 0c-3.8 0-6.9-3-6.9-6.8s3.1-6.9 6.9-6.9l26.5 0c0.6 0.1 2 0.1 3.4 0.1 10.3 0.2 17.2 0.7 20.3 5.5 3 4.7 2.4 11.6-2.1 23.2 -2.6 6.9-5.7 13-5.9 13.2C626.4 406.8 624 408.1 621.5 408.1z"/><ellipse class="st12" cx="538.9" cy="368.2" rx="6.6" ry="8.5"/><ellipse class="st12" cx="585.4" cy="369.1" rx="6.6" ry="8.5"/><path class="st13" d="M585.4 360.4l-46.5-0.7c0 0-2.6 2.4-2.6 7.7 0 6.6 2.6 9.2 2.6 9.2l46.5 1c0 0-1.6-3.4-1.6-8.4C583.8 363.8 585.4 360.4 585.4 360.4z"/><path d="M200.8 828.2c-88.9 0-161.2-72.3-161.2-161.1 0-88.9 72.3-161.2 161.1-161.2S361.9 578.1 362 667C362 755.8 289.7 828.2 200.8 828.2zM200.7 519.6c-81.3 0-147.4 66.2-147.3 147.4s66.2 147.4 147.4 147.3S348.2 748.2 348.2 667C348.1 585.7 282 519.6 200.7 519.6z"/><path class="st14" d="M200.7 526.5c37.5 0 72.8 14.6 99.3 41.1 26.5 26.5 41.2 61.8 41.2 99.3 0 37.5-14.6 72.8-41.1 99.3s-61.8 41.2-99.3 41.2 -72.8-14.6-99.3-41.1c-26.5-26.5-41.2-61.8-41.2-99.3 0-37.5 14.6-72.8 41.1-99.3C127.9 541.2 163.2 526.6 200.7 526.5M200.7 512.7c-85.2 0-154.3 69.1-154.2 154.3 0 85.2 69.1 154.3 154.3 154.2S355.1 752.2 355.1 667 285.9 512.7 200.7 512.7L200.7 512.7z"/><path class="st15" d="M363.6 651.6c-2.7 0-5-2-5.4-4.8 -10.1-79-77.8-138.5-157.5-138.5 -71.1 0-134 47.9-153 116.5 -0.8 2.9-3.8 4.6-6.7 3.8 -2.9-0.8-4.6-3.8-3.8-6.7 20.3-73.3 87.5-124.4 163.5-124.5 85.2 0 157.5 63.6 168.3 148 0.4 3-1.7 5.7-4.7 6.1C364.1 651.5 363.8 651.6 363.6 651.6z"/><path d="M706.2 828c-88.9 0-161.2-72.3-161.2-161.1s72.3-161.2 161.1-161.2 161.2 72.3 161.2 161.1S795.1 828 706.2 828zM706.1 519.5c-81.3 0-147.4 66.2-147.3 147.4 0 81.3 66.2 147.4 147.4 147.3 81.3 0 147.4-66.2 147.3-147.4C853.5 585.5 787.4 519.5 706.1 519.5z"/><path class="st14" d="M706.1 526.4c37.5 0 72.8 14.6 99.3 41.1 26.5 26.5 41.2 61.8 41.2 99.3 0 37.5-14.6 72.8-41.1 99.3s-61.8 41.2-99.3 41.2c-37.5 0-72.8-14.6-99.3-41.1s-41.2-61.8-41.2-99.3c0-37.5 14.6-72.8 41.1-99.3S668.6 526.4 706.1 526.4M706.1 512.6c-85.2 0-154.3 69.1-154.2 154.3S621 821.2 706.2 821.1 860.4 752 860.4 666.8 791.3 512.6 706.1 512.6L706.1 512.6z"/><path class="st15" d="M546.5 714c-2.4 0-4.6-1.6-5.3-4.1 -18.5-70.3 9.7-144.6 70.3-184.7 27-17.9 58.3-27.6 90.5-28.2 3 0 5.5 2.3 5.5 5.3 0.1 3-2.3 5.5-5.3 5.5 -30.2 0.5-59.5 9.6-84.7 26.4 -56.7 37.6-83.1 107.1-65.8 172.9 0.8 2.9-1 5.9-3.9 6.6C547.4 714 546.9 714 546.5 714z"/><path class="st15" d="M702.5 670c-1.6-2.1-41.5-50.3-51.1-69.7 -10.4-20.9-62.3-147.3-64.5-152.7 -1.2-3 0.2-6.5 3.2-7.7 3-1.2 6.5 0.2 7.7 3.2 0.5 1.3 53.9 131.4 64.2 151.9 9.1 18.3 46.9 69.1 47.3 69.6 2 2.6 2.6 5.3 0.6 6.9C707.3 673.6 704.1 672.1 702.5 670z"/><polygon class="st15" points="412.2 696.8 208.2 674.9 209 662.1 413.9 681.1 "/><linearGradient id="SVGID_1_" gradientUnits="userSpaceOnUse" x1="460.4515" y1="594.8642" x2="667.1179" y2="594.8642" gradientTransform="matrix(1 -3.193761e-04 3.193761e-04 1 -53.3213 -8.2614)"><stop offset="0.1735" stop-color="#174068"/><stop offset="0.4657" stop-color="#163E65"/><stop offset="0.6588" stop-color="#11365C"/><stop offset="0.8227" stop-color="#0A284E"/><stop offset="0.9235" stop-color="#031C40"/></linearGradient><polygon class="st16" points="418.8 694.4 407.4 683.5 602.5 478.4 614 489.3 "/><path class="st15" d="M409.5 689.4c-2.9 0-5.6-1.9-6.6-4.8l-64-198.5c-1.2-3.6 0.8-7.5 4.5-8.7 3.6-1.2 7.5 0.8 8.7 4.5l64 198.5c1.2 3.6-0.8 7.5-4.5 8.7C410.9 689.3 410.2 689.4 409.5 689.4z"/><rect x="300.1" y="444" transform="matrix(0.3093 0.951 -0.951 0.3093 659.8552 -6.5924)" class="st17" width="68.8" height="13.8"/><path class="st12" d="M292.8 438.5c3.1 0.2 5.7 1.5 5.9 2 0 0-0.5 1.1-6.3 1.9 -0.5 0.1-0.9 0.6-0.8 1.1 0.1 0.5 0.5 0.9 1 0.9 0 0 0.1 0 0.1 0 5.6-0.8 8.1-2 8-3.9 -0.1-2.6-5.4-3.8-7.7-4 -2-0.1-4.8-0.6-6.9-1 1.2-0.1 2.9-0.1 5.3-0.1 9.6 0 10.1-0.6 10.2-1.7 0.1-1.3-1.2-1.9-8.9-3.4l-0.9-0.2c-2.8-0.6-4.9-1.1-6.3-1.5 1-0.1 2.4-0.1 4.5-0.1 9.7 0 11-1.5 11.1-2.8 0.2-2.4-5.1-3.4-7.3-3.8 -2.8-0.4-5.3-0.9-7.1-1.4 1.3 0 3.1 0 5.6 0 5.4 0.2 7.6-0.4 7.9-1.9 0.1-0.7 0.5-2.7-10.2-6.6 -0.5-0.2-1.1 0.1-1.3 0.6 -0.2 0.5 0.1 1.1 0.6 1.3 4.1 1.5 7.9 3.3 8.7 4.3 -0.5 0.2-1.9 0.5-5.7 0.4 -9.5-0.3-10 0.4-10.1 1.5 -0.1 0.7-0.2 2.1 11.3 3.8 3.2 0.5 4.9 1.2 5.5 1.6 -0.6 0.3-2.7 1-9 1 -6.8 0-7.9 0.5-8.1 1.7 -0.1 0.9-0.2 1.9 9.5 3.9l0.9 0.2c1.2 0.2 3.2 0.6 4.9 1 -1.3 0.1-3.1 0.1-5.7 0.1 -9.2 0-9.6 0.7-9.7 1.8 0 0.9 0.7 1.6 4.7 2.4C288.4 438.1 291.1 438.4 292.8 438.5z"/><path class="st12" d="M390.7 427c-24.7-6.4-31.2 2.7-35.9 9.3 -1.4 1.9-2.5 3.5-3.9 4.5 -5.2 3.6-22.1 1.7-28.2 0.7l-0.2 0c-1.6-0.1-16.2-1.1-21.6 4.2 -1.3 1.2-7.9 1.2-13.3 0.3 -1.1-0.2-2.1 0.6-2.3 1.6 -0.2 1.1 0.6 2.1 1.6 2.3 1.5 0.2 4.9 0.7 8.3 0.7 3.4 0 6.8-0.5 8.4-2.1 3.5-3.4 14.5-3.4 18.5-3.1 2.8 0.5 23.7 3.7 31-1.3 2-1.3 3.4-3.3 4.9-5.4 4.5-6.3 9.7-13.5 31.7-7.8 1.1 0.3 2.1-0.4 2.4-1.4C392.4 428.4 391.8 427.3 390.7 427z"/><path class="st18" d="M278.8 407.2c0 0 48.8 42.8 72.5 31.6 23.7-11.2 37.9-15.7 37.9-15.7s12.9-3.5 18.1-8.1c0 0-0.3-7.3-18.5-7.6 -18.1-0.3-66.6 6.3-97.1-5.2C291.8 402.3 284.8 399 278.8 407.2z"/><path class="st12" d="M293 453l-2.8 0c-1.1 0-2-0.9-2-2l0-8c0-1.1 0.9-2 2-2l2.8 0c1.1 0 2 0.9 2 2l0 8C295 452.1 294.1 453 293 453z"/><path class="st19" d="M412.2 733.1c-3.8 0-6.3-0.4-6.5-0.5L194 686.6c-6-1.1-17.1-7.2-16.2-21.9 0.9-13.6 13.2-18.2 19.7-18.5l0.1-0.3h0.1l221.8 2.6c0.7 0 18.1 0.5 28.7 12.7 6.4 7.4 8.9 17.5 7.5 29.9 -1.8 15.2-7.4 26.5-16.8 33.6C429.5 731.8 418.9 733.1 412.2 733.1zM197.7 650.5c-1.1 0.1-15 1.3-15.9 14.5 -1 14.9 12.4 17.5 12.9 17.7l0.1 0 211.6 46c0.1 0 16.9 2.8 30-7.1 8.5-6.4 13.6-16.8 15.2-30.8 1.3-11.3-0.9-20.2-6.5-26.7 -9.5-10.9-25.6-11.2-25.8-11.2L197.7 650.5z"/><linearGradient id="SVGID_2_" gradientUnits="userSpaceOnUse" x1="249.9267" y1="589.1167" x2="407.1728" y2="589.1167" gradientTransform="matrix(1 -3.193761e-04 3.193761e-04 1 -53.3213 -8.2614)"><stop offset="0.3214" stop-color="#174068"/><stop offset="0.548" stop-color="#163D65"/><stop offset="0.7097" stop-color="#11355C"/><stop offset="0.8508" stop-color="#09274C"/><stop offset="0.9286" stop-color="#031C40"/></linearGradient><path class="st20" d="M200.8 666.3c-1 0-1.9-0.3-2.7-1 -1.6-1.5-1.7-4-0.2-5.6l149.3-163.1c1.5-1.6 4-1.7 5.6-0.2 1.6 1.5 1.7 4 0.2 5.6L203.7 665C202.9 665.8 201.8 666.3 200.8 666.3z"/><linearGradient id="SVGID_3_" gradientUnits="userSpaceOnUse" x1="258.167" y1="565.369" x2="652.5634" y2="565.369" gradientTransform="matrix(1 -3.193761e-04 3.193761e-04 1 -53.3213 -8.2614)"><stop offset="0" stop-color="#174068"/><stop offset="0.2536" stop-color="#174068"/><stop offset="0.2955" stop-color="#174068"/><stop offset="0.4892" stop-color="#143A62"/><stop offset="0.7593" stop-color="#0B2A4F"/><stop offset="0.9337" stop-color="#031C40"/></linearGradient><path class="st21" d="M209 665c-1.4 0-2.8-0.8-3.5-2.1 -1-1.9-0.3-4.3 1.6-5.4l386.4-208.1c1.9-1 4.3-0.3 5.4 1.6 1 1.9 0.3 4.3-1.6 5.4L210.9 664.5C210.3 664.8 209.7 665 209 665z"/><path class="st11" d="M413.1 658.7c17.5 0 31.7 14.2 31.7 31.6 0 17.5-14.2 31.7-31.6 31.7 -17.5 0-31.7-14.2-31.7-31.6C381.4 672.9 395.6 658.7 413.1 658.7M413.1 650.8c-21.8 0-39.6 17.7-39.5 39.6 0 21.8 17.7 39.6 39.6 39.5 21.8 0 39.6-17.7 39.5-39.6C452.6 668.5 434.9 650.8 413.1 650.8L413.1 650.8z"/><polygon class="st11" points="411.4 699 397.5 657.3 405 654.8 414.7 683.9 436.2 660.8 442 666.2 "/><polygon class="st11" points="408.9 725.1 401.1 723.6 406.5 696.1 380.7 698.6 379.9 690.7 416.3 687.2 "/><rect x="410" y="697.1" transform="matrix(0.8192 0.5735 -0.5735 0.8192 479.2296 -118.0496)" class="st11" width="33.6" height="7.9"/><path class="st15" d="M439.5 713.3c4-8 12.9-41.7-14.9-50.7 -25.3-8.2-37.6 14.1-37.6 14.1s-0.5 1.3-3.1 0.6c-2.6-0.7-12-3.4-12-3.4 0 0 0 0 0 0 -62.8-13-136-15.8-136-15.8 -5.6-3.9 18-15.4 19.5-15.5 16.3-0.9 127.8 2.3 156.4 3.1 0.7 0 1.1 0 1.8 0 1.5 0 2.2 0.3 4.2 0.3 0 0 0-0.1 0-0.1 22 2.2 39.6 20.2 39.6 41.9 0 10.5-3.7 23.7-3.7 23.7S437.9 716.6 439.5 713.3z"/><circle class="st11" cx="197.6" cy="666.3" r="17.8"/><path class="st11" d="M411.4 698c-3.5 0-6.4-2.8-6.4-6.3 -0.1-3.5 2.8-6.4 6.3-6.5l81.1-1.3c0 0 0.1 0 0.1 0 3.5 0 6.4 2.8 6.4 6.3 0.1 3.5-2.8 6.4-6.3 6.5l-81.1 1.3C411.5 698 411.5 698 411.4 698z"/><path class="st23" d="M508.3 704l-28.5 0c-3.3 0-6-2.7-6-6l0-3.3c0-3.3 2.7-6 6-6l28.5 0c3.3 0 6 2.7 6 6l0 3.3C514.3 701.3 511.6 704 508.3 704z"/><path class="st17" d="M645.6 360.2c-1.6-5.1-5.8-7-30.4-9.7 -11.9-1.3-23.9-2.2-24-2.2 -3.8-0.3-7.1 2.6-7.4 6.4s2.6 7.1 6.4 7.4c15.7 1.1 34 3.1 41.7 4.7 -1.6 5.6-7.2 16.7-14 27.5l-49.1-3.6 13.9 44c-2 1.2-3 3.7-2.2 5.9l1.1 3.1c0.9 2.6 3.8 3.9 6.3 3l10.1-3.6c2.6-0.9 3.9-3.8 3-6.3l-1.1-3.1c-0.6-1.8-2.3-3-4.1-3.2l-7.7-24.5 36.9 2.7 2.2-3.4c0.2-0.3 5.3-8 10.1-16.9C647 370.8 646.9 364.2 645.6 360.2z"/><path class="st15" d="M353.4 488.7l-11.2 4c-1.6 0.6-3.3-0.3-3.8-1.8l-1.8-5.1c-0.6-1.6 0.3-3.3 1.8-3.8l11.2-4c1.6-0.6 3.3 0.3 3.8 1.8l1.8 5.1C355.8 486.4 354.9 488.2 353.4 488.7z"/><path class="st18" d="M589.7 345.5c-0.2 0 0.2 0-0.8 0v0l-37.4-0.9 0.1 19.7 37.3 0.9v0c1 0 0.5 0 0.7 0 4.1 0 5.6-4.4 5.6-9.9C595.3 349.9 593.8 345.5 589.7 345.5z"/><ellipse class="st17" cx="550.4" cy="354.5" rx="4.6" ry="9.9"/></g></svg>