<?xml version="1.0" encoding="utf-8"?>
<!-- Generator: Adobe Illustrator 19.1.0, SVG Export Plug-In . SVG Version: 6.00 Build 0)  -->
<svg version="1.1" xmlns="http://www.w3.org/2000/svg" xmlns:xlink="http://www.w3.org/1999/xlink" x="0px" y="0px"
	 viewBox="0 0 900 900" style="enable-background:new 0 0 900 900;" xml:space="preserve">
<style type="text/css">
	.st0{fill:#AEE5CA;}
	.st1{fill:#326565;}
	.st2{fill:#F7F7F7;}
	.st3{fill:#4C8675;}
	.st4{fill:#7E9650;}
	.st5{fill:#9CEBEE;}
	.st6{fill:#A3A3A3;}
	.st7{fill:#BCBCBC;}
	.st8{opacity:0.41;}
	.st9{opacity:0.19;}
	.st10{fill:#494949;}
	.st11{fill:#AAAAAA;}
	.st12{fill:#B2AAA3;}
	.st13{fill:#703D32;}
	.st14{fill:#C19A6F;}
	.st15{fill:#031C40;}
	.st16{fill:url(#SVGID_1_);}
	.st17{fill:#CCC5BE;}
	.st18{fill:#934B35;}
	.st19{fill:#7F7F7F;}
	.st20{fill:url(#SVGID_2_);}
	.st21{fill:url(#SVGID_3_);}
	.st22{fill:#2E3192;}
	.st23{fill:#777777;}
</style>
<g id="bg">
	<rect x="-26.1" y="-33" class="st0" width="1014.3" height="430.7"/>
	<path class="st1" d="M494,275.1C410.8,290.4,77.9-47.4-26.1,199.7c-92.9,220.7,79.5,237.6,79.5,237.6L499,415.1
		C499,415.1,527.5,269,494,275.1z"/>
	<path class="st2" d="M432,160.3c0,0-188.4-44.6-154,14.8c0,0-142.6-20.9-99.1,37.9c0,0-50.5-49-54.9-15.5c0,0-83.2-21.5-53.6,41.9
		c0,0-150.4,25.1-3.9,37.3c0,0-16.6,49.5,121.2-5.2c0,0-49.8,34.1,51.8,15.7c0,0,21.9,23.5,102-18.7S440.3,201.1,432,160.3z"/>
	<path class="st3" d="M963.9,235.1c-60-55.6-240.7-292.8-418.1-159c-40.4,30.5-73.5-64.3-135,61.8S143,410.8,143,410.8l964.9,40.1
		C1107.9,451,1008.7,276.6,963.9,235.1z"/>
	<path class="st4" d="M963.9,284.9c0,0-432.6-43.6-612.2,91c0,0-239.8-70.4-385.8,41.3v278.5l1074,36.8L963.9,284.9z"/>
	<rect x="-53.5" y="631.8" class="st5" width="1121.5" height="211.2"/>
	<rect x="-26.1" y="718.7" class="st6" width="990" height="98.1"/>
	<rect x="-26.1" y="779.9" class="st7" width="1094" height="231.1"/>
	<path class="st2" d="M921.9,118.9c0,0-218.7-57.3-162.6,20.7c0,0-142.1-90-110.5-25.5c0,0-44.4-24.9-34.9,4.8
		c0,0-62.6-9.3-48.3,20.7c0,0-190.1,15-29.4,28.5c160.7,13.5,208.1,0,208.1,0s-8.4,33,92.1-6c0,0,27,18,79.5,7.5
		C968.4,159.1,921.9,118.9,921.9,118.9z"/>
</g>
<g id="Layer_5" class="st8">
</g>
<g id="hanging_bike">
	<ellipse class="st9" cx="247.5" cy="825" rx="119.6" ry="8.2"/>
	<ellipse class="st9" cx="755.5" cy="825" rx="119.6" ry="8.2"/>
	<path class="st10" d="M857.8,695.3l-110.6-31.3l104.9-47.2l-24.4-44.9l-86.8,55.6l44.3-93.1L738.6,516l-30.5,98.9l-24.1-100.8
		l-52,17.4l38.9,90.9l-78.5-59.8l-32.6,55.4l84.9,37.8l-92.7,5.1l7.2,53l97.8-21.5l-73.6,67.9l38.3,35.6l55.5-69.8l-20,87.1l58,7.6
		l2.6-91.2l37.3,83.6l47.1-25.6l-55-83.9l90.1,44.4L857.8,695.3z M827.3,573.2l23.4,43l-105,47.3l-19.4-5.5l13.8-28.9L827.3,573.2z
		 M695.8,658l5,3.5l3.9,5l-0.6,0.3l-12.3-4.4l-0.9,4.1l-1.2-2.8L695.8,658z M717.9,660.3l-9.4,4.4l0,0l4.5-9.4l4,1.1L717.9,660.3z
		 M708,667.2l0.1,0.7l-0.4-0.6L708,667.2z M709.1,667.6l3.1,2.2l-2.8-1L709.1,667.6z M707.8,661.6l-1.9-9l-2.6,0.1l3.1-2l4.9,3.7
		L707.8,661.6z M705.1,653.6l2,9.5l-0.7,1.4l-2.2-1.5l-5.7-7.2l3-1.9L705.1,653.6z M697.2,655.4l-0.8,0.7l0.7-2.1l2.5-0.1
		L697.2,655.4z M697.1,656.9l1.5,2l-2.1-1.5L697.1,656.9z M692.5,663.7l10.3,3.7l-9.6,4.6l-1.7-3.9L692.5,663.7z M692.7,673.3
		l1.6,3.5l-4.3-1.9l1.2-5.2L692.7,673.3z M694,673.8l10.3-4.9l-4.9,10.2l-3.8-1.7L694,673.8z M699.9,680.4l2.3,1.1l-4.3,0.9
		l-1.7-3.7L699.9,680.4z M701.2,680l5.3-11l2.6,3.4l1.6,7.4l-7,1.5L701.2,680z M711.9,680.4l-1.4-6.3l3.4,4.3l-4.5,5.6l-4.3-2.1
		L711.9,680.4z M715.2,671.9l3.3,2.3l0,1.6l-2.9,1.3l-5.6-7.2L715.2,671.9z M715.6,671l-6.3-4.5l9.3-4.4l2.6,4l-2.8,5.9L715.6,671z
		 M719.1,660.9l-1-4.1l6.8,1.9l-3.1,6.5L719.1,660.9z M717.8,655.6l-2.5-10.6l23.2-14.9l-13.2,27.6L717.8,655.6z M716.7,655.3
		l-4.2-1.2l-5.2-4l7.1-4.6L716.7,655.3z M706.4,649.5l-6.5-4.9l8-25.9l6.2,25.9L706.4,649.5z M705.5,650l-4.2,2.7l-3.9,0.2l2.3-7.4
		L705.5,650z M696.3,653l-11,0.6l-12.1-28.2l25.5,19.4L696.3,653z M696,654l-1,3.4l-5.7,5.3l-3.5-8.1L696,654z M688.5,663.4
		l-7.9,7.3l-31.7-14.1l35.9-2L688.5,663.4z M688.9,664.4l1.6,3.7l-1.5,6.3l-7.5-3.3L688.9,664.4z M688.8,675.5l-2.2,9.5l-26.3,5.8
		l20.4-18.8L688.8,675.5z M689.7,675.9l5.1,2.3l2,4.5l-9.2,2L689.7,675.9z M697.3,683.6l4.5,10l-22.6,28.5l8.3-36.3L697.3,683.6z
		 M698.3,683.4l5.3-1.2l5.2,2.6l-6.3,8L698.3,683.4z M709.7,685.2l8.3,4.1l-1,36l-14.1-31.5L709.7,685.2z M710.3,684.4l4.8-6.1
		l3.2-1.4l-0.3,11.3L710.3,684.4z M719.4,676.5l6.8-3l18.2,27.8L719,688.7L719.4,676.5z M719.4,675.4l0.1-3l0,0l2.5-5.3l3.6,5.5
		L719.4,675.4z M722.5,666.1l3.4-7.1l18.4,5.2l-17.8,8L722.5,666.1z M739.2,517.3l44.7,17.6l-44.5,93.5L715,644l-6.5-27.2
		L739.2,517.3z M633.3,532.2l49.9-16.7l24.3,101.3l-8.4,27.1l-26.6-20.3L633.3,532.2z M561.1,617.7l31.5-53.5l79,60.2l12.6,29.4
		l-37.4,2L561.1,617.7z M560,712.7l-6.9-50.9l93.6-5.1l33.1,14.7l-21.3,19.7L560,712.7z M621.6,794.5l-36.7-34.2l74.1-68.3l27.5-6
		l-8.7,37.9L621.6,794.5z M714.2,819.7l-55.8-7.4l20.2-88.1l23.6-29.7l14.7,32.9L714.2,819.7z M800.8,787.2l-45.2,24.6l-37.7-84.5
		l1.1-37.6l26.4,13L800.8,787.2z M746.1,702.1L727,673l18.8-8.4l110.7,31.4l-19.7,50.8L746.1,702.1z"/>
	<path class="st10" d="M353.5,667.8L344,612l-113.2,32.1l67.9-96.6l-44-26l-47.8,94.2l-7.9-104.5l-49.4,8.2l22.6,102.5l-70.4-76
		l-35.7,41.6l78.3,59.9l-96.3-12.9l0.5,64.3l90.5-9.5l-75.2,50.2l33.4,41.8l71-66.8l-26.4,94.2l51.1,10.9l10.1-86.9l29.3,83.4
		l53.7-23.2l-46.4-78l76.8,50.9l27.2-46.1l-92.2-41.8L353.5,667.8z M343.2,613.2l9.2,53.7l-102.7,10.1l-31.9-14.5l12.1-17.3
		L343.2,613.2z M208.2,681.2l-4.8,0.5l4.9-4.6l-4.4-4.7l5.1,2L208.2,681.2z M196.4,654.9l4.1-1.2l2.7,2.9l-5.8,8.7l0,0L196.4,654.9z
		 M206.7,667l-7.7-0.6l5.8-8.6l4.5,2l0.5,6.6L206.7,667z M185.8,665.3l-2.5-0.2l0.2-0.7L185.8,665.3z M198,667.9l0.2-0.3l0.5,0.5
		L198,667.9z M199.3,667.4l3.8,0.3l-2.9,0.6L199.3,667.4z M188.7,657.5l6.6,7.1l0.1,1.6l-2.7-0.2l-8.6-3.3l1.7-3.3L188.7,657.5z
		 M186.8,657.6l1.7-3.3l5.9,0.8l0.7,7.9l-6.3-6.8L186.8,657.6z M182.8,663.1l-0.3,0.9l-0.5-2.2l2.1-1.4L182.8,663.1z M189,666.6
		l5.9,2.3l-0.3,0.5l-12.8,2.5l1.3,3.8l-2.3-1.8l2.2-7.8L189,666.6z M183.1,672.7l10.7-2.1l-5.9,8.8l-3.4-2.6L183.1,672.7z
		 M188.2,680.8l3.1,2.1l-4.4,0.5l-1.7-4.8L188.2,680.8z M189.6,680.5l6.3-9.4l1,11.2l-4.1,0.4L189.6,680.5z M198,683.2l2.6-0.3
		l-3.1,2.9l-3.3-2.2L198,683.2z M198.9,682.1l-1.1-12.2l4,1.5l5.1,5.5l-5.2,4.8L198.9,682.1z M201.1,669.1l5.6-1.1l4.1,0.3l0.8,1.3
		l-1.9,2.7L201.1,669.1z M210.7,666.3l-0.5-6l6,2.7l-4.1,5.8L210.7,666.3z M210.2,659.2l-0.6-8.1l18.8-5.3l-11.5,16.4L210.2,659.2z
		 M209.2,658.7l-4.8-2.2l-2.9-3.2l7.1-2L209.2,658.7z M200.7,652.6l-7.4-8l12.9-25.3l2.3,31.1L200.7,652.6z M199.7,652.9l-4.4,1.2
		l-6.4-0.9l3.9-7.7L199.7,652.9z M187.9,653.2l-8-1.1l-5.9-26.9l18.2,19.6L187.9,653.2z M187.4,654.1l-2.3,4.6l-3.3,2.2l-1.7-7.7
		L187.4,654.1z M181,661.4l-8.8,5.9L148,648.8l31.1,4.2L181,661.4z M181.2,662.5l0.8,3.6l0,0l-2,7.3l-7-5.3L181.2,662.5z
		 M179.7,674.3l-2.8,10.1L143,688l29.1-19.4L179.7,674.3z M180.5,675l3.2,2.5l2.1,6l-8,0.8L180.5,675z M186.2,684.4l3.2,9
		l-19.1,17.9l7.3-26.1L186.2,684.4z M187.2,684.3l5.4-0.6l4.2,2.8l-6.6,6.2L187.2,684.3z M197.6,687.1l9.2,6.1l-4.1,35.3l-12.2-34.7
		L197.6,687.1z M198.3,686.4l3.8-3.6l5.9-0.6l-1.1,9.9L198.3,686.4z M209.1,682.1l9.4-0.9l18.2,30.6l-28.8-19.1L209.1,682.1z
		 M209.2,681.1l0.9-7.5l2.1-3l5.7,9.6L209.2,681.1z M212.8,669.7l4.4-6.3l30.5,13.8l-28.7,2.8L212.8,669.7z M255.2,522.9l42.1,24.9
		l-68,96.7l-19.8,5.6l-2.4-32.5L255.2,522.9z M150.8,520.2l47.3-7.9l7.9,105.1l-13.4,26.5l-19.1-20.6L150.8,520.2z M67.6,587.3
		l34.3-40l70.8,76.4l6.2,28.2l-32.5-4.3L67.6,587.3z M49.6,697.7l-0.4-62.1l96.9,12.9l25.3,19.3l-30.4,20.3L49.6,697.7z M97.4,779.9
		l-32.1-40.1l75.9-50.6l35.3-3.7l-7.7,27.3L97.4,779.9z M192.2,818.5L143.2,808l26.6-94.7l19.9-18.8l12.7,36.2L192.2,818.5z
		 M284.7,792.5L233,814.9l-29.6-84.3l4.3-36.8l30.1,20L284.7,792.5z M342.3,720.2l-26.1,44.3L238.5,713l-19-32l30-3L342.3,720.2z"/>
	<circle class="st11" cx="705.9" cy="667.1" r="14.6"/>
	<g>
		<path class="st12" d="M621.5,408.1c-1.1,0-2.1-0.2-3.1-0.8c-3.4-1.7-4.8-5.9-3-9.3l0,0c4-7.9,7.4-17,8.1-21.4
			c-2.6-0.3-6.5-0.5-8.4-0.5c-1.6,0-2.9-0.2-4-0.2l-25.6,0c-3.8,0-6.9-3-6.9-6.8s3.1-6.9,6.9-6.9l26.5,0c0.6,0.1,2,0.1,3.4,0.1
			c10.3,0.2,17.2,0.7,20.3,5.5c3,4.7,2.4,11.6-2.1,23.2c-2.6,6.9-5.7,13-5.9,13.2C626.4,406.8,624,408.1,621.5,408.1z"/>
	</g>
	<ellipse class="st12" cx="538.9" cy="368.2" rx="6.6" ry="8.5"/>
	<ellipse class="st12" cx="585.4" cy="369.1" rx="6.6" ry="8.5"/>
	<path class="st13" d="M585.4,360.4l-46.5-0.7c0,0-2.6,2.4-2.6,7.7c0,6.6,2.6,9.2,2.6,9.2l46.5,1c0,0-1.6-3.4-1.6-8.4
		C583.8,363.8,585.4,360.4,585.4,360.4z"/>
	<g>
		<g>
			<path d="M200.8,828.2c-88.9,0-161.2-72.3-161.2-161.1c0-88.9,72.3-161.2,161.1-161.2S361.9,578.1,362,667
				C362,755.8,289.7,828.2,200.8,828.2z M200.7,519.6c-81.3,0-147.4,66.2-147.3,147.4s66.2,147.4,147.4,147.3S348.2,748.2,348.2,667
				C348.1,585.7,282,519.6,200.7,519.6z"/>
		</g>
		<g>
			<path class="st14" d="M200.7,526.5c37.5,0,72.8,14.6,99.3,41.1c26.5,26.5,41.2,61.8,41.2,99.3c0,37.5-14.6,72.8-41.1,99.3
				s-61.8,41.2-99.3,41.2s-72.8-14.6-99.3-41.1c-26.5-26.5-41.2-61.8-41.2-99.3c0-37.5,14.6-72.8,41.1-99.3
				C127.9,541.2,163.2,526.6,200.7,526.5 M200.7,512.7c-85.2,0-154.3,69.1-154.2,154.3c0,85.2,69.1,154.3,154.3,154.2
				S355.1,752.2,355.1,667S285.9,512.7,200.7,512.7L200.7,512.7z"/>
		</g>
	</g>
	<g>
		<path class="st15" d="M363.6,651.6c-2.7,0-5-2-5.4-4.8c-10.1-79-77.8-138.5-157.5-138.5c-71.1,0-134,47.9-153,116.5
			c-0.8,2.9-3.8,4.6-6.7,3.8c-2.9-0.8-4.6-3.8-3.8-6.7c20.3-73.3,87.5-124.4,163.5-124.5c85.2,0,157.5,63.6,168.3,148
			c0.4,3-1.7,5.7-4.7,6.1C364.1,651.5,363.8,651.6,363.6,651.6z"/>
	</g>
	<g>
		<g>
			<path d="M706.2,828c-88.9,0-161.2-72.3-161.2-161.1s72.3-161.2,161.1-161.2s161.2,72.3,161.2,161.1S795.1,828,706.2,828z
				 M706.1,519.5c-81.3,0-147.4,66.2-147.3,147.4c0,81.3,66.2,147.4,147.4,147.3c81.3,0,147.4-66.2,147.3-147.4
				C853.5,585.5,787.4,519.5,706.1,519.5z"/>
		</g>
		<path class="st14" d="M706.1,526.4c37.5,0,72.8,14.6,99.3,41.1c26.5,26.5,41.2,61.8,41.2,99.3c0,37.5-14.6,72.8-41.1,99.3
			s-61.8,41.2-99.3,41.2c-37.5,0-72.8-14.6-99.3-41.1s-41.2-61.8-41.2-99.3c0-37.5,14.6-72.8,41.1-99.3S668.6,526.4,706.1,526.4
			 M706.1,512.6c-85.2,0-154.3,69.1-154.2,154.3S621,821.2,706.2,821.1S860.4,752,860.4,666.8S791.3,512.6,706.1,512.6L706.1,512.6z
			"/>
	</g>
	<g>
		<path class="st15" d="M546.5,714c-2.4,0-4.6-1.6-5.3-4.1c-18.5-70.3,9.7-144.6,70.3-184.7c27-17.9,58.3-27.6,90.5-28.2
			c3,0,5.5,2.3,5.5,5.3c0.1,3-2.3,5.5-5.3,5.5c-30.2,0.5-59.5,9.6-84.7,26.4c-56.7,37.6-83.1,107.1-65.8,172.9
			c0.8,2.9-1,5.9-3.9,6.6C547.4,714,546.9,714,546.5,714z"/>
	</g>
	<g>
		<path class="st15" d="M702.5,670c-1.6-2.1-41.5-50.3-51.1-69.7c-10.4-20.9-62.3-147.3-64.5-152.7c-1.2-3,0.2-6.5,3.2-7.7
			c3-1.2,6.5,0.2,7.7,3.2c0.5,1.3,53.9,131.4,64.2,151.9c9.1,18.3,46.9,69.1,47.3,69.6c2,2.6,2.6,5.3,0.6,6.9
			C707.3,673.6,704.1,672.1,702.5,670z"/>
	</g>
	<g>
		<polygon class="st15" points="412.2,696.8 208.2,674.9 209,662.1 413.9,681.1 		"/>
	</g>
	<g>
		
			<linearGradient id="SVGID_1_" gradientUnits="userSpaceOnUse" x1="460.4515" y1="594.8642" x2="667.1179" y2="594.8642" gradientTransform="matrix(1 -3.193761e-04 3.193761e-04 1 -53.3213 -8.2614)">
			<stop  offset="0.1735" style="stop-color:#174068"/>
			<stop  offset="0.4657" style="stop-color:#163E65"/>
			<stop  offset="0.6588" style="stop-color:#11365C"/>
			<stop  offset="0.8227" style="stop-color:#0A284E"/>
			<stop  offset="0.9235" style="stop-color:#031C40"/>
		</linearGradient>
		<polygon class="st16" points="418.8,694.4 407.4,683.5 602.5,478.4 614,489.3 		"/>
	</g>
	<g>
		<path class="st15" d="M409.5,689.4c-2.9,0-5.6-1.9-6.6-4.8l-64-198.5c-1.2-3.6,0.8-7.5,4.5-8.7c3.6-1.2,7.5,0.8,8.7,4.5l64,198.5
			c1.2,3.6-0.8,7.5-4.5,8.7C410.9,689.3,410.2,689.4,409.5,689.4z"/>
	</g>
	<g>
		
			<rect x="300.1" y="444" transform="matrix(0.3093 0.951 -0.951 0.3093 659.8552 -6.5924)" class="st17" width="68.8" height="13.8"/>
	</g>
	<g>
		<path class="st12" d="M292.8,438.5c3.1,0.2,5.7,1.5,5.9,2c0,0-0.5,1.1-6.3,1.9c-0.5,0.1-0.9,0.6-0.8,1.1c0.1,0.5,0.5,0.9,1,0.9
			c0,0,0.1,0,0.1,0c5.6-0.8,8.1-2,8-3.9c-0.1-2.6-5.4-3.8-7.7-4c-2-0.1-4.8-0.6-6.9-1c1.2-0.1,2.9-0.1,5.3-0.1
			c9.6,0,10.1-0.6,10.2-1.7c0.1-1.3-1.2-1.9-8.9-3.4l-0.9-0.2c-2.8-0.6-4.9-1.1-6.3-1.5c1-0.1,2.4-0.1,4.5-0.1
			c9.7,0,11-1.5,11.1-2.8c0.2-2.4-5.1-3.4-7.3-3.8c-2.8-0.4-5.3-0.9-7.1-1.4c1.3,0,3.1,0,5.6,0c5.4,0.2,7.6-0.4,7.9-1.9
			c0.1-0.7,0.5-2.7-10.2-6.6c-0.5-0.2-1.1,0.1-1.3,0.6c-0.2,0.5,0.1,1.1,0.6,1.3c4.1,1.5,7.9,3.3,8.7,4.3c-0.5,0.2-1.9,0.5-5.7,0.4
			c-9.5-0.3-10,0.4-10.1,1.5c-0.1,0.7-0.2,2.1,11.3,3.8c3.2,0.5,4.9,1.2,5.5,1.6c-0.6,0.3-2.7,1-9,1c-6.8,0-7.9,0.5-8.1,1.7
			c-0.1,0.9-0.2,1.9,9.5,3.9l0.9,0.2c1.2,0.2,3.2,0.6,4.9,1c-1.3,0.1-3.1,0.1-5.7,0.1c-9.2,0-9.6,0.7-9.7,1.8c0,0.9,0.7,1.6,4.7,2.4
			C288.4,438.1,291.1,438.4,292.8,438.5z"/>
		<path class="st12" d="M390.7,427c-24.7-6.4-31.2,2.7-35.9,9.3c-1.4,1.9-2.5,3.5-3.9,4.5c-5.2,3.6-22.1,1.7-28.2,0.7l-0.2,0
			c-1.6-0.1-16.2-1.1-21.6,4.2c-1.3,1.2-7.9,1.2-13.3,0.3c-1.1-0.2-2.1,0.6-2.3,1.6c-0.2,1.1,0.6,2.1,1.6,2.3
			c1.5,0.2,4.9,0.7,8.3,0.7c3.4,0,6.8-0.5,8.4-2.1c3.5-3.4,14.5-3.4,18.5-3.1c2.8,0.5,23.7,3.7,31-1.3c2-1.3,3.4-3.3,4.9-5.4
			c4.5-6.3,9.7-13.5,31.7-7.8c1.1,0.3,2.1-0.4,2.4-1.4C392.4,428.4,391.8,427.3,390.7,427z"/>
	</g>
	<path class="st18" d="M278.8,407.2c0,0,48.8,42.8,72.5,31.6c23.7-11.2,37.9-15.7,37.9-15.7s12.9-3.5,18.1-8.1c0,0-0.3-7.3-18.5-7.6
		c-18.1-0.3-66.6,6.3-97.1-5.2C291.8,402.3,284.8,399,278.8,407.2z"/>
	<path class="st12" d="M293,453l-2.8,0c-1.1,0-2-0.9-2-2l0-8c0-1.1,0.9-2,2-2l2.8,0c1.1,0,2,0.9,2,2l0,8
		C295,452.1,294.1,453,293,453z"/>
	<g>
		<path class="st19" d="M412.2,733.1c-3.8,0-6.3-0.4-6.5-0.5L194,686.6c-6-1.1-17.1-7.2-16.2-21.9c0.9-13.6,13.2-18.2,19.7-18.5
			l0.1-0.3h0.1l221.8,2.6c0.7,0,18.1,0.5,28.7,12.7c6.4,7.4,8.9,17.5,7.5,29.9c-1.8,15.2-7.4,26.5-16.8,33.6
			C429.5,731.8,418.9,733.1,412.2,733.1z M197.7,650.5c-1.1,0.1-15,1.3-15.9,14.5c-1,14.9,12.4,17.5,12.9,17.7l0.1,0l211.6,46
			c0.1,0,16.9,2.8,30-7.1c8.5-6.4,13.6-16.8,15.2-30.8c1.3-11.3-0.9-20.2-6.5-26.7c-9.5-10.9-25.6-11.2-25.8-11.2L197.7,650.5z"/>
	</g>
	<g>
		
			<linearGradient id="SVGID_2_" gradientUnits="userSpaceOnUse" x1="249.9267" y1="589.1167" x2="407.1728" y2="589.1167" gradientTransform="matrix(1 -3.193761e-04 3.193761e-04 1 -53.3213 -8.2614)">
			<stop  offset="0.3214" style="stop-color:#174068"/>
			<stop  offset="0.548" style="stop-color:#163D65"/>
			<stop  offset="0.7097" style="stop-color:#11355C"/>
			<stop  offset="0.8508" style="stop-color:#09274C"/>
			<stop  offset="0.9286" style="stop-color:#031C40"/>
		</linearGradient>
		<path class="st20" d="M200.8,666.3c-1,0-1.9-0.3-2.7-1c-1.6-1.5-1.7-4-0.2-5.6l149.3-163.1c1.5-1.6,4-1.7,5.6-0.2
			c1.6,1.5,1.7,4,0.2,5.6L203.7,665C202.9,665.8,201.8,666.3,200.8,666.3z"/>
	</g>
	<g>
		
			<linearGradient id="SVGID_3_" gradientUnits="userSpaceOnUse" x1="258.167" y1="565.369" x2="652.5634" y2="565.369" gradientTransform="matrix(1 -3.193761e-04 3.193761e-04 1 -53.3213 -8.2614)">
			<stop  offset="0" style="stop-color:#174068"/>
			<stop  offset="0.2536" style="stop-color:#174068"/>
			<stop  offset="0.2955" style="stop-color:#174068"/>
			<stop  offset="0.4892" style="stop-color:#143A62"/>
			<stop  offset="0.7593" style="stop-color:#0B2A4F"/>
			<stop  offset="0.9337" style="stop-color:#031C40"/>
		</linearGradient>
		<path class="st21" d="M209,665c-1.4,0-2.8-0.8-3.5-2.1c-1-1.9-0.3-4.3,1.6-5.4l386.4-208.1c1.9-1,4.3-0.3,5.4,1.6
			c1,1.9,0.3,4.3-1.6,5.4L210.9,664.5C210.3,664.8,209.7,665,209,665z"/>
	</g>
	<path class="st11" d="M413.1,658.7c17.5,0,31.7,14.2,31.7,31.6c0,17.5-14.2,31.7-31.6,31.7c-17.5,0-31.7-14.2-31.7-31.6
		C381.4,672.9,395.6,658.7,413.1,658.7 M413.1,650.8c-21.8,0-39.6,17.7-39.5,39.6c0,21.8,17.7,39.6,39.6,39.5
		c21.8,0,39.6-17.7,39.5-39.6C452.6,668.5,434.9,650.8,413.1,650.8L413.1,650.8z"/>
	<g>
		<polygon class="st11" points="411.4,699 397.5,657.3 405,654.8 414.7,683.9 436.2,660.8 442,666.2 		"/>
	</g>
	<g>
		<polygon class="st11" points="408.9,725.1 401.1,723.6 406.5,696.1 380.7,698.6 379.9,690.7 416.3,687.2 		"/>
	</g>
	<g>
		
			<rect x="410" y="697.1" transform="matrix(0.8192 0.5735 -0.5735 0.8192 479.2296 -118.0496)" class="st11" width="33.6" height="7.9"/>
	</g>
	<path class="st15" d="M439.5,713.3c4-8,12.9-41.7-14.9-50.7c-25.3-8.2-37.6,14.1-37.6,14.1s-0.5,1.3-3.1,0.6
		c-2.6-0.7-12-3.4-12-3.4c0,0,0,0,0,0c-62.8-13-136-15.8-136-15.8c-5.6-3.9,18-15.4,19.5-15.5c16.3-0.9,127.8,2.3,156.4,3.1
		c0.7,0,1.1,0,1.8,0c1.5,0,2.2,0.3,4.2,0.3c0,0,0-0.1,0-0.1c22,2.2,39.6,20.2,39.6,41.9c0,10.5-3.7,23.7-3.7,23.7
		S437.9,716.6,439.5,713.3z"/>
	<circle class="st11" cx="197.6" cy="666.3" r="17.8"/>
	<g>
		<path class="st11" d="M411.4,698c-3.5,0-6.4-2.8-6.4-6.3c-0.1-3.5,2.8-6.4,6.3-6.5l81.1-1.3c0,0,0.1,0,0.1,0
			c3.5,0,6.4,2.8,6.4,6.3c0.1,3.5-2.8,6.4-6.3,6.5l-81.1,1.3C411.5,698,411.5,698,411.4,698z"/>
	</g>
	<path class="st23" d="M508.3,704l-28.5,0c-3.3,0-6-2.7-6-6l0-3.3c0-3.3,2.7-6,6-6l28.5,0c3.3,0,6,2.7,6,6l0,3.3
		C514.3,701.3,511.6,704,508.3,704z"/>
	<path class="st17" d="M645.6,360.2c-1.6-5.1-5.8-7-30.4-9.7c-11.9-1.3-23.9-2.2-24-2.2c-3.8-0.3-7.1,2.6-7.4,6.4s2.6,7.1,6.4,7.4
		c15.7,1.1,34,3.1,41.7,4.7c-1.6,5.6-7.2,16.7-14,27.5l-49.1-3.6l13.9,44c-2,1.2-3,3.7-2.2,5.9l1.1,3.1c0.9,2.6,3.8,3.9,6.3,3
		l10.1-3.6c2.6-0.9,3.9-3.8,3-6.3l-1.1-3.1c-0.6-1.8-2.3-3-4.1-3.2l-7.7-24.5l36.9,2.7l2.2-3.4c0.2-0.3,5.3-8,10.1-16.9
		C647,370.8,646.9,364.2,645.6,360.2z"/>
	<path class="st15" d="M353.4,488.7l-11.2,4c-1.6,0.6-3.3-0.3-3.8-1.8l-1.8-5.1c-0.6-1.6,0.3-3.3,1.8-3.8l11.2-4
		c1.6-0.6,3.3,0.3,3.8,1.8l1.8,5.1C355.8,486.4,354.9,488.2,353.4,488.7z"/>
	<path class="st18" d="M589.7,345.5c-0.2,0,0.2,0-0.8,0v0l-37.4-0.9l0.1,19.7l37.3,0.9v0c1,0,0.5,0,0.7,0c4.1,0,5.6-4.4,5.6-9.9
		C595.3,349.9,593.8,345.5,589.7,345.5z"/>
	<ellipse class="st17" cx="550.4" cy="354.5" rx="4.6" ry="9.9"/>
</g>
</svg>
