<svg xmlns="http://www.w3.org/2000/svg" viewBox="0 0 900 900">
  <style>
    .st0{fill:#AEE5CA;} .st1{fill:#326565;} .st2{fill:#F7F7F7;} .st3{fill:#4C8675;} .st4{fill:#7E9650;} .st5{fill:#9CEBEE;} .st6{fill:#A3A3A3;} .st7{fill:#BCBCBC;} .st8{opacity:0.41;} .st9{opacity:0.19;} .st10{fill:#494949;} .st11{fill:#AAAAAA;} .st12{fill:#B2AAA3;} .st13{fill:#703D32;} .st14{fill:#C19A6F;} .st15{fill:#031C40;} .st16{fill:url(#SVGID_1_);} .st17{fill:#CCC5BE;} .st18{fill:#934B35;} .st19{fill:#7F7F7F;} .st20{fill:url(#SVGID_2_);} .st21{fill:url(#SVGID_3_);} .st22{fill:#2E3192;} .st23{fill:#777777;}
  </style>
  <g id="bg">
    <path class="st0" d="M-26-33H988v430.7H-26z"/>
    <path class="st1" d="M494 275C410.8 290.5 78-47.3-26 199.8c-93 220.7 79.4 237.6 79.4 237.6L499 415s28.5-146-5-140z"/>
    <path class="st2" d="M432 160.3S243.6 115.7 278 175c0 0-142.6-20.8-99 38 0 0-50.6-49-55-15.5 0 0-83.2-21.5-53.6 42 0 0-150.4 25-4 37.2 0 0-16.5 49.5 121.3-5.2 0 0-49.8 34 51.8 15.7 0 0 22 23.5 102-18.7S440.3 201 432 160.3z"/>
    <path class="st3" d="M964 235C904 179.6 723-57.6 545.7 76c-40.4 30.6-73.5-64.2-135 62S143 410.7 143 410.7l965 40c0 .2-99.3-174.2-144-215.7z"/>
    <path class="st4" d="M964 285s-432.7-43.7-612.3 91c0 0-239.8-70.5-385.8 41.2v278.5l1074 36.8L964 285z"/>
    <path class="st5" d="M-53.5 631.8H1068V843H-53.5z"/>
    <path class="st6" d="M-26 718.7h990v98H-26z"/>
    <path class="st7" d="M-26 780h1094v231H-26z"/>
    <path class="st2" d="M922 119S703 61.5 759.2 139.5c0 0-142-90-110.5-25.5 0 0-44.4-24.8-35 5 0 0-62.5-9.4-48.2 20.6 0 0-190 15-29.4 28.5 160.7 13.6 208 0 208 0s-8.3 33 92.2-6c0 0 27 18 79.5 7.6 52.4-10.5 6-50.7 6-50.7z"/>
  </g>
  <g id="hanging_bike">
    <ellipse class="st9" cx="247.5" cy="825" rx="119.6" ry="8.2"/>
    <ellipse class="st9" cx="755.5" cy="825" rx="119.6" ry="8.2"/>
    <path class="st10" d="M857.8 695.3L747.2 664l105-47.2-24.5-45-86.8 55.7 44.2-93-46.6-18.5-30.5 99-24-101-52 17.5 39 91-78.6-60-32.6 55.5 85 37.8-92.8 5 7.2 53 97.8-21.4-73.6 68 38.3 35.5 55.5-70-20 87.2 58 7.6 2.6-91.2 37.3 83.6 47.2-25.6-55-84 90 44.5 20.6-52.7zm-30.5-122l23.4 43-105 47.2-19.4-5.5 13.8-29 87.3-55.8zM695.8 658l5 3.5 4 5-.7.3-12.2-4.4-1 4-1-2.7 6-5.7zm22 2.3l-9.3 4.4 4.5-9.4 4 1 1 4zm-9.8 7v.6l-.3-.7h.3zm1 .3l3.2 2.2-2.8-1-.3-1.2zm-1.2-6l-2-9h-2.5l3-2 5 3.8-3.5 7.2zm-2.7-8l2 9.5-.6 1.5-2.2-1.5-5.7-7.2 3-2 3.6-.2zm-7.8 1.8l-.8.7.7-2h2.6l-2.4 1.4zm0 1.5l1.4 2-2-1.6.5-.5zm-4.7 6.7l10.3 3.7-9.6 4.6-1.7-4 1-4.3zm.2 9.6l1.6 3.5-4.3-2 1.2-5 1.5 3.5zm1.3.5l10.3-5-5 10.3-3.7-1.6-1.6-3.6zm6 6.6l2.2 1-4.3 1-1.8-3.7 3.7 1.7zm1.2-.4l5.3-11 2.6 3.4 1.7 7.4-7 1.5-2.5-1.3zm10.7.4l-1.5-6.3 3.4 4.4-4.6 5.6-4.3-2 7-1.6zm3.2-8.5l3.3 2.2v1.6l-3 1.3-5.5-7 5.2 2zm.4-1l-6.3-4.5 9.3-4.4 2.6 4-2.8 6-2.8-1zm3.5-10l-1-4.2 7 2-3.2 6.4-2.7-4.3zm-1.2-5.4l-2.5-10.6 23.2-15-13.2 27.7-7.5-2zm-1-.3l-4.3-1.2-5.2-4 7-4.5 2.4 9.8zm-10.4-5.8l-6.5-5 8-25.8 6 26-7.6 4.8zm-1 .5l-4 2.7-4 .2 2.3-7.5 5.8 4.5zm-9 3l-11 .6-12.2-28.2 25.5 19.4-2.4 8.2zm-.4 1l-1 3.4-5.7 5.3-3.5-8 10.2-.7zm-7.5 9.4l-8 7.3-31.6-14 35.8-2 3.7 8.7zm.4 1l1.5 3.7-1.5 6.4-7.5-3.3 7.4-6.6zm-.2 11l-2.2 9.6-26.3 5.8 20.4-18.8 8 3.5zm1 .5l5 2.2 2 4.5-9.2 2 2-8.8zm7.5 7.6l4.5 10-22.6 28.5 8.3-36.2 9.8-2.2zm1-.2l5.3-1.2 5.2 2.6-6.3 8-4.2-9.4zm11.4 1.8l8.3 4-1 36-14-31.4 6.7-8.6zm.6-.8l4.8-6 3.3-1.5-.3 11.2-7.7-3.8zm9-8l7-3 18 28-25.3-12.7.4-12.2zm0-1l.2-3 2.5-5.3 3.6 5.6-6.2 2.8zm3.2-9.3l3.4-7 18.3 5.2-17.8 8-4-6zm16.7-148.7L784 535l-44.6 93.4L715 644l-6.5-27.2 30.7-99.5zm-106 15l50-16.8 24.3 101.3-8.4 27-26.5-20.2-39.2-91.4zm-72 85.4l31.4-53.5 79 60.2 12.6 29.4-37.4 2-85.7-38zm-1.2 95l-7-51 93.7-5 33 14.7-21.2 19.7-98.5 21.7zm61.6 81.8L585 760.3l74-68.3 27.5-6-8.7 38-56.2 70.5zm92.6 25.2l-55.8-7.4 20.2-88 23.6-29.8 14.7 33-2.8 92.2zm86.6-32.5l-45.2 24.6-37.7-84.5 1-37.6 26.4 13 55.4 84.5zm-54.7-85L727 673l18.8-8.4L856.5 696l-19.7 50.8L746 702zM353.5 667.8L344 612l-113.2 32 68-96.5-44-26-48 94.2-7.8-104.5-49.4 8.2L172.2 622l-70.4-76L66 587.4l78.4 60-96.3-13 .6 64.3 90.5-9.5-75 50.2 33.3 41.8 71-66.8-26.4 94.2 51 11 10-87 29.4 83.4 53.7-23-46.3-78 76.8 50.8 27.2-46-92.2-42 102-10zm-10.3-54.6l9.2 53.7-102.7 10-32-14.5 12.2-17.3 113.2-32zm-135 68l-4.8.5 5-4.6-4.5-4.6 5 2-.8 6.8zM196.4 655l4-1.3 2.8 3-5.8 8.6-1-10.4zm10.3 12l-7.7-.6 5.8-8.6 4.5 2 .5 6.6-3 .6zm-21-1.7l-2.4-.2.2-.6 2.3 1zM198 668l.2-.4.5.5h-.7zm1.3-.6l3.8.3-2.8.6-1-1zm-10.6-10l6.6 7.2v1.6l-2.6-.2-8.6-3.3 1.8-3.3 3-2zm-2 .2l1.8-3.3 6 .8.6 8-6.2-6.8-2 1.4zm-4 5.5l-.2 1-.5-2.2 2-1.4-1.2 2.7zm6.3 3.6l6 2.3-.4.4-12.8 2.5 1.3 3.7-2.2-1.8 2.2-8 6 .6zm-6 6l10.8-2-6 8.8-3.3-2.6-1.4-4zm5.2 8.2l3 2-4.3.6-1.8-4.8 3 2.2zm1.4-.3l6.3-9.4 1 11.3-4.2.4-3.2-2.2zm8.4 2.7l2.6-.3-3 2.8-3.4-2.2 3.8-.4zm1-1l-1.2-12.3 4 1.4 5 5.5-5 4.7-3 .4zm2-13l5.7-1.2 4 .3 1 1.3-2 2.7-8.6-3.2zm9.7-3l-.5-6 6 2.8-4 5.8-1.5-2.5zm-.5-7l-.6-8 18.8-5.4-11.5 16.4-6.8-3zm-1-.5l-4.8-2.2-3-3.2 7.2-2 .6 7.4zm-8.5-6l-7.4-8 13-25.4 2.2 31-7.8 2.3zm-1 .2l-4.4 1-6.4-.8 3.8-7.7 7 7.4zm-11.8.2l-8-1-6-27 18.2 19.6-4.3 8.4zm-.6 1l-2.3 4.5-3.2 2.2-1.7-7.8 7.4 1zm-6.4 7.2l-8.8 6-24.2-18.6 31 4.2 2 8.4zm.2 1l.8 3.7-2 7.4-7-5.3 8.2-5.5zm-1.5 12l-2.8 10-34 3.6 29-19.4 7.7 5.7zm.8.6l3.2 2.5 2 6-8 .8 2.8-9.3zm5.7 9.4l3.2 9-19 18 7.2-26.2 8.6-.8zm1 0l5.4-.7 4.2 2.8-6.6 6.2-3-8.4zm10.4 2.7l9.2 6.2-4 35.3-12.3-34.7 7-6.7zm.7-.6l3.8-3.6 6-.6-1 10-8.7-5.8zM209 682l9.5-.8 18.2 30.6-28.8-19 1-10.7zm.2-1l1-7.4 2-3 5.7 9.6-8.8 1zm3.6-11.3l4.4-6.3 30.5 13.8L219 680l-6.2-10.3zM255.2 523l42 24.8-68 96.7-19.7 5.6-2.4-32.4 48.2-94.7zM150.8 520l47.3-8 8 105.2-13.4 26.5-19-20.7-22.8-103zm-83.2 67l34.3-40 70.7 76.5L179 652l-32.6-4.4-78.8-60.3zm-18 110.5l-.4-62 97 12.8 25.2 19.3L141 688l-91.4 9.7zM97.4 780l-32-40.2 75.8-50.6 35.3-3.7-7.7 27.3-71.4 67zm94.8 38.5l-49-10.5 26.6-94.7 20-18.8 12.6 36.2-10.2 87.8zm92.5-26L233 815l-29.6-84.4 4.3-36.8 30 20 47 78.7zm57.6-72.3l-26 44.3-77.8-51.5-19-32 30-3 92.8 42.2z"/>
    <circle class="st11" cx="705.9" cy="667.1" r="14.6"/>
    <path class="st12" d="M621.5 408c-1 0-2 0-3-.7-3.5-1.7-5-6-3-9.3 4-8 7.3-17 8-21.4-2.6-.3-6.5-.5-8.4-.5h-29.5c-3.8 0-7-3-7-7s3.2-6.8 7-6.8h29.9c10.3.3 17.2.8 20.3 5.6 3 4.7 2.4 11.6-2 23.2-2.7 7-5.8 13-6 13.2-1.3 2.6-3.7 4-6.2 4z"/>
    <ellipse class="st12" cx="538.9" cy="368.2" rx="6.6" ry="8.5"/>
    <ellipse class="st12" cx="585.4" cy="369.1" rx="6.6" ry="8.5"/>
    <path class="st13" d="M585.4 360.4l-46.5-.7s-2.7 2.4-2.7 7.7c0 6.6 2.6 9.2 2.6 9.2l46.4 1s-1.6-3.4-1.6-8.4c0-5.4 1.6-8.8 1.6-8.8z"/>
    <path d="M200.8 828.2c-89 0-161.2-72.3-161.2-161 0-89 72.3-161.3 161-161.3S362 578 362 667c0 88.8-72.3 161.2-161.2 161.2zm0-308.6c-81.4 0-147.5 66.2-147.4 147.4s66.2 147.4 147.4 147.3 147.4-66 147.4-147.3c0-81.3-66.2-147.4-147.5-147.4z"/>
    <path class="st14" d="M200.7 526.5c37.5 0 72.8 14.6 99.3 41 26.5 26.6 41.2 62 41.2 99.4 0 37.4-14.6 72.7-41 99.2s-62 41.2-99.4 41.2-72.8-14.6-99.3-41c-26.5-26.6-41.2-62-41.2-99.4 0-37.5 14.6-72.8 41-99.3 26.6-26.5 62-41 99.4-41.2m0-13.8c-85.2 0-154.3 69-154.2 154.3 0 85.2 69 154.3 154.3 154.2S355 752.2 355 667s-69-154.3-154.3-154.3z"/>
    <path class="st15" d="M363.6 651.6c-2.7 0-5-2-5.4-4.8-10-79-77.8-138.5-157.5-138.5-71 0-134 48-153 116.5-.8 3-3.8 4.6-6.7 3.8-3-.8-4.6-3.8-3.8-6.7 20.3-73.4 87.5-124.5 163.5-124.6 85.2 0 157.5 63.6 168.3 148 .4 3-1.7 5.7-4.7 6l-.7.2z"/>
    <path d="M706.2 828c-89 0-161.2-72.3-161.2-161s72.3-161.3 161-161.3 161.3 72.3 161.3 161S795 828 706.3 828zm0-308.5c-81.4 0-147.5 66.2-147.4 147.4 0 81.2 66.2 147.3 147.4 147.2 81.3 0 147.4-66.2 147.3-147.4 0-81.3-66-147.3-147.4-147.3z"/>
    <path class="st14" d="M706 526.4c37.6 0 73 14.6 99.4 41 26.5 26.6 41.2 62 41.2 99.4 0 37.5-14.6 72.8-41 99.3s-62 41.3-99.4 41.3c-37.5 0-72.8-14.6-99.3-41s-41.3-62-41.3-99.4c0-37.6 14.6-73 41-99.4s62-41.2 99.4-41.2m0-13.8c-85 0-154.2 69-154 154.3S621 821 706 821 860.4 752 860.4 667s-69-154.2-154.3-154.2z"/>
    <path class="st15" d="M546.5 714c-2.4 0-4.6-1.6-5.3-4-18.5-70.4 9.7-144.7 70.3-184.8 27-18 58.3-27.6 90.5-28.2 3 0 5.5 2.3 5.5 5.3s-2.3 5.5-5.3 5.5c-30.2.5-59.5 9.6-84.7 26.4-56.7 37.6-83 107-65.8 173 .8 2.8-1 5.8-4 6.5-.3.3-.8.3-1.2.3z"/>
    <path class="st15" d="M702.5 670c-1.6-2-41.5-50.3-51-69.7-10.5-21-62.4-147.3-64.6-152.7-1.3-3 0-6.5 3-7.7 3-1.3 6.6 0 7.8 3 .5 1.4 54 131.5 64.2 152 9 18.3 47 69 47.3 69.6 2 2.6 2.6 5.3.6 7-2.7 2-6 .5-7.5-1.6zM412.2 696.8l-204-22 .8-12.7 205 19z"/>
    <linearGradient id="SVGID_1_" gradientUnits="userSpaceOnUse" x1="460.5" y1="594.9" x2="667.1" y2="594.9" gradientTransform="translate(-53.32 -8.26)">
      <stop offset=".2" stop-color="#174068"/>
      <stop offset=".5" stop-color="#163E65"/>
      <stop offset=".7" stop-color="#11365C"/>
      <stop offset=".8" stop-color="#0A284E"/>
      <stop offset=".9" stop-color="#031C40"/>
    </linearGradient>
    <path class="st16" d="M418.8 694.4l-11.4-11 195-205 11.6 11z"/>
    <path class="st15" d="M409.5 689.4c-3 0-5.6-2-6.6-4.8L339 486c-1.3-3.5.7-7.4 4.4-8.6 3.6-1.2 7.5.8 8.7 4.5l64 198.4c1.3 3.6-.7 7.5-4.4 8.7-.7.3-1.4.4-2 .4z"/>
    <path class="st17" d="M330.4 416l21.3 65.6-13 4.2-21.4-65.4z"/>
    <path class="st12" d="M292.8 438.5c3 .2 5.7 1.5 6 2 0 0-.6 1-6.4 2-.5 0-1 .5-.8 1 0 .5.5 1 1 1 5.7-1 8.2-2 8-4 0-2.6-5.3-3.8-7.6-4-2 0-4.8-.6-7-1h5.4c9.6 0 10-.7 10.2-1.8 0-1.3-1.2-2-9-3.4l-.8-.2c-2.8-.5-5-1-6.3-1.4h4.5c9.7 0 11-1.6 11-3 .3-2.3-5-3.3-7.2-3.7-2.8-.5-5.3-1-7-1.5h5.5c5.4.2 7.6-.4 8-2 0-.6.4-2.6-10.3-6.5-.5-.2-1 0-1.3.6-.2.5 0 1 .6 1.3 4 1.4 8 3.2 8.7 4.2-.5.2-2 .5-5.7.4-9.5-.3-10 .4-10 1.5-.2.8-.3 2.2 11.2 4 3.2.4 5 1 5.5 1.5-.6.3-2.7 1-9 1-6.8 0-8 .5-8 1.7-.2 1-.3 2 9.4 4h1l4.8 1c-1.3.2-3 .2-5.7.2-9.2 0-9.6.7-9.7 1.8 0 1 .7 1.6 4.7 2.4 2 .5 4.6.8 6.3 1z"/>
    <path class="st12" d="M390.7 427c-24.7-6.4-31.2 2.7-36 9.3-1.3 2-2.4 3.5-3.8 4.5-5.3 3.6-22.2 1.7-28.3.7h-.2c-1.6 0-16.2-1-21.6 4.2-1.4 1.2-8 1.2-13.4.3-1-.2-2 .6-2.3 1.6-.2 1 .6 2 1.6 2.3 1.4 0 4.8.6 8.2.6 3.4 0 6.8-.5 8.4-2 3.5-3.5 14.5-3.5 18.5-3.2 3 .5 23.8 3.7 31-1.3 2-1.2 3.5-3.2 5-5.3 4.5-6.3 9.7-13.5 31.7-7.8 1 .2 2-.5 2.4-1.5.4-1-.2-2.2-1.3-2.5z"/>
    <path class="st18" d="M278.8 407.2s48.8 42.8 72.5 31.6c23.7-11.2 38-15.7 38-15.7s12.8-3.4 18-8c0 0-.3-7.3-18.5-7.6-18-.3-66.6 6.3-97-5.2 0 0-7-3.2-13 5z"/>
    <path class="st12" d="M293 453h-2.8c-1 0-2-1-2-2v-8c0-1 1-2 2-2h2.8c1 0 2 1 2 2v8c0 1-1 2-2 2z"/>
    <path class="st19" d="M412.2 733c-3.8 0-6.3-.3-6.5-.4l-211.7-46c-6-1-17-7.2-16.2-22 1-13.5 13.2-18 19.7-18.4v-.3h.2l221.8 2.5c.7 0 18 .5 28.7 12.7 6.4 7.4 9 17.5 7.5 30-1.8 15-7.4 26.4-16.8 33.5-9.5 7-20 8.4-26.8 8.4zm-214.5-82.5c-1 0-15 1.3-16 14.5-1 15 12.5 17.5 13 17.7l211.7 46s17 2.8 30-7c8.5-6.5 13.6-17 15.2-31 1.3-11.2-1-20-6.5-26.6-9.4-10.8-25.5-11-25.7-11l-221.6-2.5z"/>
    <linearGradient id="SVGID_2_" gradientUnits="userSpaceOnUse" x1="249.9" y1="589.1" x2="407.2" y2="589.1" gradientTransform="translate(-53.32 -8.26)">
      <stop offset=".3" stop-color="#174068"/>
      <stop offset=".5" stop-color="#163D65"/>
      <stop offset=".7" stop-color="#11355C"/>
      <stop offset=".9" stop-color="#09274C"/>
      <stop offset=".9" stop-color="#031C40"/>
    </linearGradient>
    <path class="st20" d="M200.8 666.3c-1 0-2-.3-2.7-1-1.5-1.5-1.6-4 0-5.6l149.2-163c1.5-1.7 4-1.8 5.6-.3 1.6 1.5 1.7 4 .2 5.6L203.7 665c-.8.8-2 1.3-3 1.3z"/>
    <linearGradient id="SVGID_3_" gradientUnits="userSpaceOnUse" x1="258.2" y1="565.4" x2="652.6" y2="565.4" gradientTransform="translate(-53.32 -8.26)">
      <stop offset="0" stop-color="#174068"/>
      <stop offset=".3" stop-color="#174068"/>
      <stop offset=".3" stop-color="#174068"/>
      <stop offset=".5" stop-color="#143A62"/>
      <stop offset=".8" stop-color="#0B2A4F"/>
      <stop offset=".9" stop-color="#031C40"/>
    </linearGradient>
    <path class="st21" d="M209 665c-1.4 0-2.8-.8-3.5-2-1-2-.3-4.4 1.6-5.5l386.5-208c2-1 4.3-.4 5.4 1.5 1 2 .2 4.3-1.7 5.4L211 664.4c-.7.4-1.3.6-2 .6z"/>
    <path class="st11" d="M413 658.7c17.6 0 31.8 14.2 31.8 31.6 0 17.5-14.2 31.7-31.6 31.7-17.5 0-31.7-14.2-31.7-31.6 0-17.5 14-31.7 31.6-31.7m0-8c-21.7 0-39.5 17.8-39.4 39.7 0 21.8 17.7 39.6 39.6 39.5 21.8 0 39.6-17.8 39.5-39.7 0-21.8-17.8-39.5-39.6-39.5z"/>
    <path class="st11" d="M411.4 699l-14-41.7 7.6-2.5 9.7 29 21.5-23 5.8 5.4z"/>
    <path class="st11" d="M409 725l-8-1.4 5.5-27.5-25.8 2.6-.8-8 36.3-3.4z"/>
    <path class="st11" d="M415.3 688l27.5 19.4-4.5 6.5-27.5-19.4z"/>
    <path class="st15" d="M439.5 713.3c4-8 13-41.7-15-50.7-25.2-8.2-37.5 14-37.5 14s-.5 1.4-3 .7l-12-3.4c-63-13-136-16-136-16-5.7-3.8 18-15.3 19.4-15.4 16.3-1 127.8 2.3 156.4 3h1.8c1.5 0 2.2.4 4.2.4 22 2 39.6 20 39.6 41.8 0 10.5-3.7 23.7-3.7 23.7s-15.8 5-14.2 1.8z"/>
    <circle class="st11" cx="197.6" cy="666.3" r="17.8"/>
    <path class="st11" d="M411.4 698c-3.5 0-6.4-2.8-6.4-6.3s2.8-6.4 6.3-6.5l81-1.3h.2c3.5 0 6.4 2.7 6.4 6.2s-3 6.4-6.4 6.5l-81 1.3h-.2z"/>
    <path class="st23" d="M508.3 704h-28.5c-3.3 0-6-2.7-6-6v-3.3c0-3.3 2.7-6 6-6h28.5c3.3 0 6 2.7 6 6v3.3c0 3.3-2.7 6-6 6z"/>
    <path class="st17" d="M645.6 360.2c-1.6-5-5.8-7-30.4-9.7-12-1.3-24-2.2-24-2.2-3.8-.3-7 2.6-7.4 6.4s2.6 7 6.4 7.4c15.7 1.2 34 3.2 41.7 4.8-1.7 5.6-7.3 16.7-14 27.5l-49.2-3.6 14 44c-2 1.2-3 3.7-2.3 6l1 3c1 2.6 4 4 6.4 3l10-3.6c2.6-.8 4-3.7 3-6.2l-1-3c-.7-2-2.4-3-4.2-3.3L588 406l37 2.7 2.2-3.4c.2-.3 5.3-8 10-17 9.8-17.5 9.7-24 8.4-28z"/>
    <path class="st15" d="M353.4 488.7l-11.2 4c-1.6.6-3.3-.3-3.8-1.8l-1.8-5.2c-.6-1.6.3-3.3 1.8-3.8l11.2-4c1.6-.6 3.3.3 3.8 1.8l1.8 5c.6 1.6-.3 3.4-1.8 4z"/>
    <path class="st18" d="M589.7 345.5h-.8l-37.5-1v19.8l37.4 1h.6c4 0 5.6-4.5 5.6-10 0-5.4-1.4-9.8-5.5-9.8z"/>
    <ellipse class="st17" cx="550.4" cy="354.5" rx="4.6" ry="9.9"/>
  </g>
</svg>
