<svg xmlns="http://www.w3.org/2000/svg" version="1.1" x="0px" y="0px" viewBox="-7 117.276 464.659 567.724" xml:space="preserve"><style type="text/css">
	.st0{fill:#FFFFFF;}
</style><path class="st0" d="M456.568 258.858c-1.333-7.513-6.987-22.772-12.455-37.529 -5.301-14.306-10.782-29.099-12.129-36.35 -0.983-5.294-2.025-7.776-2.715-9.417 -0.334-0.797-0.576-1.372-0.656-1.937 -0.063-0.44-0.053-1.31-0.039-2.411 0.028-2.416 0.069-5.813-0.576-8.81 0.037-0.204 0.059-0.317 0.06-0.324 2.761-9.829-1.243-14.563-4.495-17.27 -0.49-0.408-0.963-0.864-1.421-1.306 -1.506-1.453-3.062-2.952-4.688-1.802 -3.075 2.179-4.274 1.099-5.436 0.054 -0.221-0.198-0.432-0.387-0.642-0.546 -5.225-3.927-9.282-3.342-12.546-2.87 -1.032 0.149-2.015 0.299-2.91 0.27 -1.755-0.038-4.159-0.09-7.628-2.691 -1.397-1.048-2.125-4.677-2.829-8.187 -0.989-4.932-2.013-10.031-5.154-10.45 -1.476-0.189-4.447 3.154-10.023 9.592 -4.474 5.163-9.543 11.014-13.858 14.516 -3.129 2.539-12.983 12.054-24.381 23.259 1.027-1.85 1.484-3.494 0.917-4.624 -0.808-1.611-3.31-1.959-7.654-1.069 -0.053 0.011-0.105 0.031-0.152 0.059 -0.141 0.081-3.455 1.954-7.289-0.808 -4.241-3.055-15.788-3.413-16.261-3.426 -0.078-0.005-7.935-0.564-17.51-7.032 -0.391-0.524-2.607-3.165-8.198-4.117 -0.534-0.27-4.431-2.313-6.051-5.26 -1.843-3.348-9.535-5.787-10.395-6.05 -0.972-0.612-11.249-6.903-18.165-3.427 -3.488 1.754-5.466 5.686-5.878 11.685 -0.002 0.034-0.001 0.068 0.004 0.102 0.01 0.07 0.787 7.134-13.947 16.849 -7.74 5.103-15.994 14.887-19.248 21.717 -4.712-8.139-11.693-13.862-11.772-13.926 -0.249-0.218-6.217-5.361-16.357-7.364 -9.772-1.93-14.371-9.561-14.432-9.664 -0.033-0.048-3.23-4.861-1.933-9.459 0.298-1.058 0.146-1.872-0.454-2.419 -1.959-1.791-8.247 0.544-8.866 0.791 -18.841 3.393-28.479-1.667-29.339-2.149 -0.29-0.33-1.589-1.751-3.315-2.788 -1.595-0.957-2.938-2.823-3.178-3.168 -1.229-3.75-7.104-6.725-7.355-6.85 -0.159-0.079-0.346-0.069-0.494 0.027 -5.301 3.408-9.138 10.755-9.324 11.123 -0.027 0.068-0.748 1.787-8.178 11.494 -8.007 10.461-16.786 28.106-20.31 35.975 -0.876 1.958-1.77 3.691-2.621 5.195 -0.335 0.146-0.685 0.285-1.048 0.413 -0.26 0.092-0.397 0.377-0.305 0.638 0.082 0.23 0.317 0.362 0.547 0.328 -2.339 3.875-4.184 5.865-4.179 5.865 -6.849 5.479-6.949 7.363-7.055 9.357 -0.021 0.398-0.041 0.774-0.123 1.185 -0.471 2.354-3.498 6.251-3.57 6.352 -1.573 2.775-3.763 6.601-6.232 10.861 -1.683-0.068-3.236 0.357-4.128 1.739 -0.974 1.51-1.563 4.329-1.756 8.316 -6.883 11.639-13.941 23.097-15.594 24.159 -1.719 1.105-4.896 4.063-5.503 6.016 -0.958 0.72-8.262 5.992-15.55 5.241 -2.761-0.284-4.717 0.255-5.823 1.603 -1.607 1.958-0.744 4.837-0.707 4.958 0.056 0.183 1.44 4.467 8.19 3.852 6.279-0.569 17.263 1.227 17.415 1.25 0.86 0.068 21.131 1.639 27.729-1.619 0.05-0.021 5.044-2.049 9.07-2.129 3.505-0.07 11.312-5.235 13.924-9.21 0.901-1.371 1.163-2.541 0.779-3.479 -1.359-3.322-0.99-9.489 5.523-12.834 0.025-0.008 2.526-0.849 1.665-4.104 -0.494-1.868 6.572-11.216 11.213-16.762 1.125-0.313 7.264-2.386 9.783-10.885 2.523-8.518 9.81-8.579 10.098-8.559 1.088 0.013 2.804 0.345 3.032 1.017 0.09 0.266 0.067 1.066-2.085 2.757 -5.97 4.69-5.704 10.51-5.684 10.808 0.004 0.025 0.329 2.563-4.155 6.196 -3.135 2.541-6.265 6.957-6.187 11.094 0.043 2.286 1.036 4.174 2.952 5.611 1.039 0.779 2.349 1.633 3.736 2.537 6.156 4.012 14.587 9.507 11.929 16.638 -0.067 0.178-0.026 0.379 0.104 0.517 0.13 0.139 0.327 0.191 0.51 0.136 1.68-0.511 16.419-5.104 16.585-9.142 0.044-1.072-0.812-1.964-2.547-2.651 -0.085-0.034-0.179-0.045-0.269-0.028 -2.263 0.392-4.536 0.491-5.072 0.234 0.085-0.137 0.365-0.467 1.264-1.058 1.27-0.833 2.668-1.641 3.902-2.354 3.206-1.854 4.208-2.479 3.936-3.261 -0.204-0.584-0.881-0.78-4.184-0.297 -4.146 0.605-5.766 0.666-6.343 0.568 0.199-0.21 0.669-0.604 1.772-1.321 0.718-0.468 1.629-0.999 2.594-1.562 3.805-2.219 5.322-3.219 5-4.19 -0.239-0.718-1.28-0.875-3.84-0.581l-2.007 0.234c-2.109 0.248-4.128 0.485-5.152 0.5 0.496-0.314 1.449-0.836 3.264-1.703 1.374-0.656 2.71-1.253 3.92-1.793 4.323-1.932 5.808-2.652 5.624-3.669 -0.143-0.789-1.271-1.135-4.312-1.321 -1.813-0.111-6.472-0.396-7.383-0.89 0.162-0.15 0.604-0.458 1.803-0.987l0.889-0.389c6.114-2.667 8.98-4.171 8.736-5.51 -0.163-0.893-1.465-1.079-2.718-1.142 -2.656-0.136-5.271 0.276-6.981 0.57 0.511-0.288 1.048-0.581 1.445-0.798 5.581-3.05 7.162-4.094 6.888-5.135 -0.199-0.755-1.261-1.012-4.051-0.97 -0.358 0.005-0.633 0-0.848-0.012 1.034-0.474 3.126-1.161 4.977-1.67 1.401-0.355 2.952-0.707 4.146-0.937 -0.479 0.209-1.087 0.464-1.861 0.774 -0.253 0.153-1.505 0.969-1.302 1.98 0.157 0.779 1.053 1.264 2.821 1.526 3.602 0.534 3.858 1.136 3.873 1.251 0.011 0.084-0.015 0.871-4.248 2.674 -0.52 0.354-1.694 1.275-1.394 2.161 0.228 0.673 1.114 0.933 2.87 0.834l0.44-0.024c1.413-0.079 3.146-0.175 3.647 0.007 -0.152 0.261-0.809 0.979-3.554 2.766 -2.755 1.792-3.839 3.207-3.314 4.322 0.577 1.227 2.822 1.25 3.652 0.991 1.402-0.438 5.811-1.121 6.308-0.641 -0.005 0.069-0.143 0.736-3.465 2.736 -5.388 3.242-5.658 3.986-5.45 4.623 0.256 0.786 1.463 0.676 3.29 0.513 0.596-0.054 1.212-0.11 1.763-0.124l0.34-0.009c1.008-0.027 3.102-0.084 3.31 0.266 0.005 0.025 0.104 0.628-2.877 2.842 -0.946 0.703-1.761 1.292-2.441 1.784 -2.377 1.718-2.942 2.126-2.717 2.747 0.22 0.605 0.887 0.559 3.369 0.384l1.199-0.088c0.921-0.069 1.94-0.148 2.477-0.116 -0.591 0.557-2.299 1.679-5.094 3.344 -3.919 2.336-4.521 3.197-4.237 3.895 0.261 0.641 1.363 0.731 3.322 0.258 0.209-0.072 0.427-0.138 0.632-0.192 -0.644 0.497-1.891 1.348-4.301 2.79 -1.315 0.787-3.019 1.99-2.627 3.341 0.824 2.848 11.822 2.724 14.032 2.671 0.025 0.003 2.313-0.092 3.043 1.188 0.55 0.964 0.109 2.591-1.276 4.706 -0.791 1.208-1.742 2.927-0.881 3.915 0.975 1.119 3.784 0.319 5.804-0.465 0.064 0.596 0.282 1.018 0.652 1.282 1.191 0.851 3.243-0.593 3.667-0.91 1.467-1.246 1.909-1.954 1.575-2.525 -0.143-0.246-0.582-0.992-4.446 0.441 -0.109 0.052-0.22 0.103-0.331 0.154 0.084-0.421 0.215-0.929 0.408-1.539 0.669-0.801 4.222-5.227 3.011-7.464 -0.438-0.808-1.383-1.202-2.827-1.192 0.622-0.968 1.368-2.554 0.797-3.982 -0.498-1.247-1.869-2.066-4.081-2.443 1.59-1.181 4.119-3.346 3.722-4.93 -0.315-1.261-2.102-1.427-2.689-1.482 -1.721-0.161-1.856-0.587-1.866-0.636 -0.14-0.686 2.028-2.368 4.141-3.51 0.193-0.104 0.296-0.323 0.252-0.539 -0.044-0.215-0.223-0.377-0.442-0.398 -0.016-0.001-1.584-0.182-2.076-1.255 -0.423-0.923 0.016-2.349 1.319-4.212 0.197-0.447 1.134-2.733 0.258-3.817 -0.262-0.324-0.79-0.667-1.816-0.457 -0.154 0.032-0.267 0.044-0.347 0.048 0.364-0.772 2.599-2.83 4.991-3.938 1.888-0.875 2.919-2.913 2.398-4.739 -0.39-1.364-1.756-2.708-4.419-2.377 -1.819 0.224-2.115-0.109-2.119-0.11 -0.049-0.298 1.037-1.422 2.681-2.005 1.367-0.485 2.074-1.223 1.892-1.974 -0.223-0.915-1.642-1.286-3.793-0.993 -0.26 0.036-0.479 0.058-0.662 0.072 0.925-0.416 2.79-1.051 6.156-1.754 5.646-1.178 10.399-0.429 10.665 0.236 -0.001 0.005-0.125 0.546-2.665 1.383 -1.722 0.568-5.755 2.043-6.029 3.485 -0.056 0.297 0.043 0.578 0.273 0.769 0.795 0.662 2.906-0.016 4.094-0.479 2.096-0.818 3.534-0.527 3.989-0.135 0.181 0.156 0.176 0.296 0.152 0.4 -0.146 0.633-1.465 1.677-4.701 2.535 -2.54 0.674-3.548 1.279-3.479 2.087 0.105 1.218 3.265 1.748 5.906 1.979 0.828 0.057 2.604 0.423 2.81 1.189 0.091 0.341-0.023 1.353-3.055 3.397 -2.536 1.709-3.607 3.122-3.275 4.317 0.492 1.77 3.893 1.994 4.273 2.013 0.763 0.048 1.67 0.327 1.741 0.628 0.018 0.074 0.087 0.772-2.794 2.44 -1.943 1.125-2.601 1.831-2.346 2.519 0.319 0.858 2.362 0.938 6.098 0.232 0.866-0.216 2.299-0.312 2.635 0.17 0.125 0.18 0.289 0.782-0.881 2.478 -0.111 0.161-0.118 0.373-0.017 0.541s0.288 0.266 0.485 0.239l9.407-1.075c-2.874 1.879-2.623 2.49-2.504 2.777 0.244 0.593 0.954 0.76 4.022-0.054 1.655-0.517 6.104-1.415 6.795 0.601 0.423 1.232 1.305 1.249 1.667 1.199 1.745-0.244 4.229-3.724 4.306-5.167 0.048-0.921-1.216-1.413-2.816-2.035 -0.769-0.299-2.2-0.855-2.31-1.146 0.007-0.02 0.196-0.483 2.761-1.197 2.609-0.726 3.761-1.491 3.734-2.479 -0.042-1.588-3.59-2.5-4.652-2.735 -1.233-0.342-2.441-0.849-2.806-1.164 0.207-0.105 0.752-0.294 2.142-0.441 1.854-0.195 4.841-0.764 8.004-1.367 3.625-0.691 8.422-1.61 10.043-1.569 -0.377 0.269-1.151 0.732-2.732 1.488 -4.286 2.049-5.002 2.992-4.76 3.778 0.395 1.28 4.188 0.979 7.298 0.501 3.655-0.535 7.176-0.447 7.388 0.186 0.012 0.037 0.244 0.937-4.952 3.798 -4.187 2.306-5.875 3.946-5.47 5.319 0.629 2.141 6.47 1.907 8.293 1.779 3.104-0.518 8.366-0.716 9.28 0.954 0.454 0.828-0.175 2.229-1.84 4.078 -0.169 0.218-1.631 2.166-0.748 3.529 0.811 1.251 3.213 1.364 7.345 0.347 6.91-1.699 10.67-1.033 10.929-0.521 -0.002 0.008-0.241 0.766-3.843 1.719 -2.228 0.59-7.366 2.127-6.963 3.661 0.101 0.387 0.411 1.564 7.8-0.36 6.588-1.717 12.535-0.287 13.752 2.07 0.637 1.235-0.301 2.393-1.199 3.146 -0.043 0.037-0.08 0.08-0.109 0.129 -0.056 0.094-1.351 2.329-0.358 4.436 0.748 1.587 2.558 2.617 5.378 3.062 2.361 0.373 5.93 0.937 6.022 1.47 0.077 0.441-1.779 1.708-5.519 3.765 -2.896 1.592-3.303 2.179-3.062 2.761 0.158 0.381 0.485 1.174 7.659-0.918 1.14-0.249 2.479-0.448 3.198-0.454 -0.562 0.423-2.026 1.297-5.844 3.01 -4.97 2.23-5.825 3.258-5.581 4.116 0.369 1.298 4.07 1.135 7.298 0.73 -0.01 0.038-0.024 0.081-0.046 0.126 -0.309 0.678-2.012 2.45-11.146 4.243 -6.502 1.277-6.984 1.947-6.928 2.631 0.027 0.332 0.101 1.214 5.283 1.359 0.437-0.017 1.756 0.123 2.104 0.798 0.267 0.518-0.027 1.378-0.849 2.488 -0.342 0.463-1.385 1.871-0.715 2.825 0.848 1.208 3.73 0.459 4.61 0.196 0.527-0.179 2.176-0.551 2.807 0.066 0.462 0.452 0.285 1.415 0.057 2.143 -0.322 1.023-0.006 1.544 0.316 1.8 1.786 1.425 9.011-2.609 11.276-3.937 3.605-1.038 7.054-1.404 7.394-0.779 0.014 0.025 0.299 0.627-2.256 2.856 -0.196 0.172-0.228 0.467-0.071 0.676 0.157 0.21 0.45 0.262 0.669 0.123 1.031-0.656 10.055-6.512 9.209-10.051 -0.308-1.288-1.702-2.035-4.262-2.285 -1.821-0.178-2.793-0.352-3.309-0.481 1.194-0.36 3.96-0.78 6.382-1.022 3.797-0.294 3.807-0.928 3.812-1.269 0.01-0.554 0.019-1.127-7.629-1.977 -4.641-0.516-5.05-1.163-5.079-1.201 0.154-0.601 3.484-1.799 7.207-2.587 1.132-0.447 3-1.354 2.806-2.404 -0.167-0.899-1.587-1.279-4.901-1.311 -2.808-0.027-3-0.553-3.001-0.559 -0.116-0.533 2.128-2.116 4.675-3.308 0.857-0.329 2.834-1.217 2.682-2.368 -0.12-0.899-1.334-1.401-4.06-1.68 -2.97-0.304-3.352-0.915-3.398-1.094 -0.177-0.687 1.822-2.075 2.783-2.743 0.218-0.151 0.424-0.294 0.606-0.426 0.218-0.157 0.452-0.317 0.692-0.481 1.433-0.981 3.056-2.093 3.069-3.614 0.009-0.939-0.596-1.829-1.847-2.719 -0.848-0.602-1.273-1.26-1.265-1.955 0.018-1.556 2.066-2.958 2.121-2.998 0.226-0.182 5.521-4.496 4.524-8.672 -0.149-0.627-0.081-0.862-0.098-0.892 0.135 0.008 0.618 0.247 1.147 1.007 0.378 0.543 1.529 2.487 0.454 4.699 -0.075 0.155-0.065 0.337 0.026 0.483s0.252 0.235 0.424 0.235c1.188 0 2.922 0.316 3.092 0.911 0.068 0.24 0.014 1.194-3.563 3.415 -0.199 0.124-0.286 0.37-0.208 0.591s0.303 0.36 0.533 0.33c1.446-0.18 3.915-0.107 4.387 0.851 0.211 0.429 0.203 1.514-2.186 3.936 -1.535 1.279-2.14 2.242-1.797 2.859 0.345 0.621 1.286 0.597 3.356-0.083 0.62-0.204 0.988-0.278 1.2-0.303 -0.48 0.754-2.4 2.487-4.174 3.857 -0.387 0.318-1.616 1.428-1.172 2.369 0.428 0.906 2.047 1.008 5.42 0.342 3.106-0.615 4.072-0.466 4.341-0.378 -0.268 0.423-1.676 1.494-4.467 2.677 -1.701 0.721-3.642 1.81-3.226 2.904 0.564 1.491 4.675 0.285 6.415-0.303 5.173-1.747 11.861-3.039 12.878-2.505 -0.107 0.215-0.665 0.934-3.539 2.599 -7.217 4.182-7.387 6.698-6.846 7.826 0.588 1.227 2.287 1.467 3.527 0.99 0.827-0.321 1.463-0.368 1.738-0.324 -0.197 0.292-1.013 1.155-4.303 2.741 -4.319 2.081-4.618 3.092-4.396 3.741 0.366 1.067 2.765 1.134 7.134 0.198 1.387-0.296 1.647-0.08 1.652-0.08 0.23 0.685-2.839 3.894-6.568 6.867 -0.182 0.145-0.239 0.394-0.141 0.604 0.098 0.209 0.321 0.325 0.554 0.277l8.134-1.694c-1.483 1.403-2.065 2.407-1.731 2.99 0.365 0.642 1.37 0.577 3.584-0.232 6.177-2.26 7.636-1.282 7.642-1.283 0.15 0.15 0.379 0.187 0.572 0.093 0.191-0.094 0.303-0.302 0.276-0.514 -0.009-0.072-0.184-1.783 2.754-2.273 2.188-0.365 3.258-0.921 3.183-1.655 -0.063-0.624-0.735-1.175-5.201-1.004 -4.122 0.156-4.831-0.4-4.894-0.4h-0.001c0.032-0.067 0.361-0.611 2.827-1.461 4.525-1.561 5.37-2.371 5.523-2.646 0.093-0.166 0.083-0.369-0.023-0.525 -0.107-0.156-0.289-0.242-0.481-0.213 -1.882 0.258-3.749 0.107-3.914-0.319 -0.012-0.028-0.233-0.713 2.851-2.859 0.165-0.115 0.245-0.316 0.204-0.512 -0.04-0.196-0.194-0.349-0.391-0.389 -0.446-0.09-0.937-0.264-1.161-0.402 0.185-0.13 0.677-0.388 1.936-0.708 1.744-0.443 2.647-1.089 2.764-1.97 0.176-1.336-1.681-2.42-1.893-2.539 -0.053-0.03-0.11-0.056-0.17-0.066 -2.181-0.325-4.243-0.869-4.859-1.244 0.202-0.103 0.637-0.296 1.552-0.481 3.208-0.65 4.087-2.644 3.841-4.24 -0.323-2.087-2.604-4.222-5.494-3.918 -0.259 0.028-0.452-0.191-0.595-0.191 -0.001 0-0.001 0-0.002 0 0.731 0 2.911-1.716 4.852-2.687 0.04-0.018 0.364 0.067 0.812-0.183 0.721 0.412 1.76 0.688 3.063 0.944 1.204 0.236 2.627 0.297 3.883 0.35 1.208 0.052 2.862 0.122 3.09 0.309 -0.015 0.087-0.21 0.595-2.644 2.091 -2.153 1.323-2.948 2.242-2.655 3.073 0.468 1.329 3.872 1.102 5.846 0.851 0.722-0.067 2.393-0.001 2.647 0.651 0.139 0.355 0.155 1.847-5.463 6.12 -0.188 0.143-0.25 0.397-0.149 0.611 0.099 0.213 0.33 0.328 0.565 0.274 3.912-0.912 8.479-1.272 9.03-0.265 0.088 0.161 0.234 0.822-1.576 2.587 -2.647 2.582-3.612 4.34-3.038 5.531 0.659 1.364 3.014 1.106 3.229 1.077 1.375-0.018 3.17 0.121 4.475 0.469 -1.021 1.656-1.64 3.284-1.484 4.073 0.067 0.34 0.274 0.587 0.568 0.678 0.565 0.177 1.298-0.233 2.449-1.363 1.062-1.041 1.428-1.982 1.087-2.798 -0.188-0.449-0.582-0.801-1.096-1.076 0.606-0.845 1.33-1.674 2.145-2.348 3.431-2.834 6.775 0.337 6.916 0.473 0.038 0.037 0.082 0.068 0.13 0.092 0.152 0.074 3.779 1.814 6.37 0.722 1.039-0.437 1.764-1.254 2.156-2.43 0.062-0.188 0.008-0.394-0.138-0.527 -0.37-0.339-0.861-1.013-0.739-1.381 0.104-0.318 0.742-0.568 1.704-0.669 0.693-0.072 1.631-0.256 1.761-1.015 0.204-1.198-2.375-2.614-3.915-3.343 -0.014-0.007-1.357-0.721-1.616-2.118 -0.201-1.092 0.307-2.333 1.51-3.69 1.435-1.618 1.912-2.818 1.46-3.668 -0.63-1.185-2.744-0.941-2.917-0.913 -0.672 0-1.438-0.166-1.539-0.309 0.001-0.032 0.082-0.799 4.337-2.823 0.22-0.104 0.332-0.352 0.267-0.586 -0.065-0.234-0.295-0.386-0.531-0.363 -1.61 0.162-3.497 0.21-4.277 0.067 0.438-0.299 1.622-0.917 4.822-2.013 3.497-1.198 5.173-2.512 5.125-4.016 -0.091-2.808-6.582-4.655-7.342-4.861 -0.604-0.138-1.22-0.335-1.603-0.503 0.497-0.133 1.597-0.316 4.014-0.427 3.913-0.18 4.685-0.58 4.74-1.255 0.026-0.32 0.087-1.07-3.782-1.889 -0.628-0.193-1.362-0.628-1.369-0.899 0-0.022 0.012-0.551 2.142-1.319 1.65-0.595 2.764-1.555 3.309-2.853 0.9-2.144-0.109-4.398-0.139-4.458 -0.177-0.477-0.361-1.483-0.011-1.761 0.211-0.165 1.188-0.509 4.977 2.018 3.145 2.096 3 2.754 2.997 2.76 -0.117 0.302-1.732 0.442-3.56 0.163 -0.048-0.007-0.097-0.007-0.145-0.001 -0.88 0.121-1.938 0.418-1.979 1.148 -0.041 0.723 0.842 1.22 3.257 1.833 2.664 0.676 3.01 1.429 3.035 1.721 0.051 0.586-0.852 1.64-3.533 2.838 -0.737 0.33-1.704 0.865-1.589 1.703 0.167 1.22 2.832 1.746 3.972 1.916 1.224 0.176 4.475 1.008 4.825 2.708 0.221 1.064-0.587 2.991-5.682 6.12 -0.194 0.119-0.283 0.354-0.217 0.572 0.066 0.217 0.278 0.37 0.499 0.354 2.464-0.1 5.264 0.256 5.488 0.946 0.02 0.059 0.131 0.61-1.786 1.888 -1.108 0.739-2.538 1.846-2.157 2.917 0.561 1.573 4.84 1.337 6.672 1.16 0.699-0.1 1.457-0.004 1.563 0.197 0.002 0.003 0.173 0.367-0.919 1.552 -0.041 0.045-0.073 0.097-0.096 0.153 -0.138 0.344-0.248 1.113 0.216 1.81 0.619 0.932 2.018 1.423 4.155 1.459 2.299 0.039 2.462 0.482 2.463 0.486 0.04 0.129-0.04 0.698-2.742 2.605 -0.663 0.468-1.209 0.951-1.736 1.419 -1.732 1.537-3.223 2.86-8.129 2.739 -3.619-0.09-10.212 0.64-10.384 2.424 -0.082 0.853 0.951 1.397 3.454 1.819 1.196 0.202 1.913 0.361 2.344 0.479 -0.255 0.08-0.544 0.16-0.791 0.229 -1.137 0.318-2.426 0.679-3 1.289 -0.322 0.343-0.997 0.701-1.54 0.988 -0.872 0.463-1.448 0.768-1.296 1.337 0.146 0.542 0.453 0.797 5.719 0.601 3.423-0.125 6.11-0.208 6.698-0.029 -0.002 0.021-0.005 0.042-0.007 0.064 -0.021 0.201-0.05 0.504 0.062 0.864 0.356 1.142 4.36 1.343 11.899 0.599 0.165-0.016 0.312-0.113 0.391-0.258 0.035-0.064 3.532-6.402 9.032-9.508 0.744 0.344 2.926 1.14 4.724-0.346 1.406-1.163 4.787-0.624 5.973-0.318 0.176 0.045 0.362-0.01 0.487-0.141 0.125-0.132 0.169-0.321 0.114-0.495 -0.008-0.024-0.771-2.496 0.42-4.163 0.726-1.017 2.055-1.556 3.949-1.602 1.175-0.029 2.766-0.19 3.031-1.26 0.426-1.714-3.63-4.14-4.909-4.856 -1.143-0.554-2.26-1.298-2.527-1.667 0.136-0.049 0.438-0.121 1.069-0.133 1.043-0.021 2.438-0.157 2.507-1.099 0.094-1.284-2.889-2.387-4.935-2.728 -3.093-0.516-11.17-7.053-11.415-13.575 0.001-0.053 0.165-5.14 1.033-7.057 2.134-0.033 5.117-0.875 8.416-3.129 1.493-1.021 2.093-1.981 1.832-2.936 -0.561-2.053-5.429-2.933-8.428-3.284 2.191-0.831 5.748-2.019 7.859-1.862 0.521 0.04 1.012 0.075 1.107-0.415 0.098-0.496-0.219-0.598-1.395-0.979 -2.216-0.719-3.398-1.253-3.521-1.527 0.007-0.013 0.184-0.32 1.709-0.673 4.736-1.098 7.115-3.172 8.181-4.443 0.88 0.556 1.713 0.997 2.354 1.253 1.912 0.765 2.93 1.591 3.025 2.456 0.109 0.996-0.94 2.258-3.122 3.751 -3.049 2.086-3.971 2.87-3.797 3.711 0.166 0.804 1.279 1.06 3.233 1.442 2.135 0.417 5.356 2.292 5.853 4.725 0.365 1.791-0.829 3.677-3.453 5.454 -0.178 0.121-0.259 0.341-0.201 0.548s0.24 0.354 0.455 0.365c2.474 0.133 8.948 1.177 9.198 4.412 0.052 0.325 0.555 1.984 5.425 2.667 0.392 0.055 0.867 0.184 0.91 0.484 0.22 1.548-5.517 6.089-7.878 7.148 -0.24 0.107-0.356 0.383-0.265 0.63s0.355 0.378 0.611 0.306c0.672-0.2 1.602-0.254 1.749-0.023 0.017 0.026 0.376 0.667-2.126 3.496 -0.032 0.043-0.783 1.075-0.372 2.126 0.309 0.79 1.153 1.321 2.513 1.58 0.407 0.077 0.546 0.163 0.555 0.166 -0.089 0.488-2.1 1.791-4.334 2.805 -0.219 0.099-0.336 0.338-0.28 0.571 0.055 0.233 0.26 0.389 0.507 0.384 1.458-0.058 5.507 0.077 6.738 1.415 0.274 0.298 0.379 0.623 0.329 1.023 -0.136 1.084 0.28 1.642 0.653 1.918 1.391 1.029 4.427-0.213 4.989-0.458 0.352-0.059 2.54-0.345 3.229 1.22 1.077 2.444 6.365 0.572 7.015 0.329 0.523-0.262 2.076-0.838 2.969-0.36 0.407 0.218 0.646 0.646 0.729 1.308 0.008 0.063 0.027 0.124 0.059 0.18 0.039 0.071 0.977 1.737 2.976 2.67 0.677 0.315 2.028 2.154 2.807 4.785 0.66 2.228 1.361 6.614-1.352 10.956 -0.269 0.429-0.524 0.848-0.775 1.257 -2.847 4.656-4.904 8.02-16.319 12.543 -13.383 5.303-34.09 8.53-56.013 11.946 -9.347 1.457-19.011 2.963-28.558 4.693 -9.705 1.759-18.209 2.482-25.711 3.119 -4.752 0.404-9.24 0.785-13.191 1.377 -2.626 0.394-5.491 0.831-8.445 1.282 -12.617 1.927-26.917 4.109-31.242 4.209 -2.358 0.054-4.492-0.069-6.754-0.195 -7.148-0.399-15.25-0.861-33.457 4.193 -0.156 0.031-15.601 3.086-20.96 2.354 -2.953-0.399-17.343 1.532-32.579 3.613 -12.964 1.771-26.366 3.539-30.546 3.539 -0.04 0-0.078 0-0.12 0 -5.05 0-59.867 3.084-74.005 8.597 -7.62 2.971-16.218 7.357-15.062 14.483 0.604 3.727 6.948 8.234 16.16 11.482 11.261 3.971 25.773 5.817 40.854 5.188 16.439-0.681 35.13 2.12 47.501 3.973 6.397 0.958 11.019 1.648 13.01 1.526 6.543-0.412 44.293 2.965 44.643 2.995 0.18 0.027 18.171 2.769 32.022 4.253 16.64 1.783 33.947 9.214 47.485 20.389 2.234 1.844 3.107 3.71 2.669 5.704 -2.034 9.259-31.012 17.938-37.638 19.807 -1.856-0.15-3.744-0.31-5.661-0.477 -5.025-0.908-10.607-1.994-16.825-3.284 -15.276-3.171-36.051-4.803-54.693-4.338 -9.14-0.664-39.841-2.19-45.346 6.755 -1.229 1.996-1.151 4.364 0.226 7.052 -0.102 2.41 1.229 5.046 3.979 7.869 8.104 8.322 20.842 9.591 33.886 8.208 19.216 3.129 45.4 3.243 63.503 2.817 3.249-0.203 6.162-0.42 8.734-0.65 0.038 0.039 0.083 0.072 0.135 0.098 13.552 6.818 12.18 28.727 9.688 68.497 -1.125 17.966-2.526 40.325-2.838 66.551 -0.359 30.277 0.628 66.488 7.375 67.054 0.054 0.005 0.107 0.007 0.16 0.007 2.683 0 4.789-5.638 5.626-10.978 2.924-18.672 2.885-47.531 2.847-75.44 -0.035-25.284-0.07-51.429 2.155-69.074 4.62-36.634 3.132-37.751-2.403-41.909l-0.292-0.22c-1.573-1.186-3.267-2.331-5.053-3.43 2.416-1.216 3.494-2.428 3.29-3.692 -0.734-4.553-20.415-6.592-22.657-6.81 -0.035-0.003-0.073-0.003-0.109 0.002 -0.044 0.006-1.377 0.168-3.704 0.384 -10.242-3.013-20.309-4.225-27.214-2.752 -1.602 0.342-3.386 0.772-5.288 1.253 -2.978-0.378-5.917-0.766-8.769-1.161 -26.556-3.69-28.648-5.846-28.657-6.418 -0.001-0.047 0.079-1.166 8.51-2.314 16.253-2.213 68.969 4.422 76.36 5.5 9.458 1.377 83.167-2.814 100.191-7.01 1.028-0.253 2.085-0.507 3.161-0.767 16.684-4.014 39.531-9.511 35.211-32.312 -0.523-2.765-0.938-5.289-1.34-7.73 -3.008-18.304-4.381-26.658-36.275-34.911 -0.194-0.05-19.705-4.995-51.91-2.765 -16.531 1.147-17.991-1.241-18.048-2 -0.163-2.238 7.709-6.067 13.37-6.502 2.966-0.228 6.685-0.955 10.622-1.725 8.948-1.75 19.091-3.732 23.277-0.383 6.255 5.004 29.244-2.047 31.124-2.636 2.335 0.144 33.659 2.045 40.285 0.736 1.687-0.333 14.179-5.797 13.712-9.65 -0.269-2.208-4.262-3.059-12.582-2.673 -4.041 0.188-7.499 1.237-10.844 2.252 -4.222 1.281-8.582 2.604-14.359 2.332 -5.693-0.276-116.718 2.555-119.863 16.637 -0.638 2.853 2.683 5.739 10.134 8.818 0.284 0.128 28.614 12.793 50.967 12.294 0.218-0.005 0.437-0.007 0.657-0.007 9.878 0 24.137 4.766 35.517 11.385 -11.853-3.438-28.479-4.975-42.151-5.877 -26.08-1.722-40.794-8.756-40.94-8.827 -14.95-7.226-49.583-9.716-77.411-11.715 -14.451-1.038-26.932-1.938-34.258-3.29 -3.104-0.573-3.432-1.06-3.45-1.018 1.034-2.273 30.586-5.525 52.165-7.889 13.308-1.458 25.878-2.863 33.44-4.07 11.872-1.896 23.852-3.989 34.422-5.789 18.076-3.078 33.688-5.843 42.718-6.783 6.021-0.627 11.587-1.618 16.187-3.618 0.143 0 0.283 0 0.426 0 14.036 0 29.363 0.88 43.101 2.782 7.126 0.986 15.551-1.263 21.701-3.061 3.002-0.878 5.599-1.638 6.535-1.478 1.486 0.25 2.874-0.5 3.297-1.779 0.287-0.868 0.669-3.985-6.486-7.659 -9.304-4.777-54.422 5.277-56.338 5.707 -0.044 0.01-0.085 0.025-0.125 0.046 -0.077 0.041-4.895 2.562-12.267 4.871 -19.228 0.026-35.97 1.29-42.824 2.327 -5.171 0.782-52.016 6.314-86.22 10.353 -20.5 2.421-36.693 4.333-39.769 4.729 -5.544 0.713-44.589 2.468-58.264 2.329 -14.115-0.15-33.282 0.323-36.833 6.089 -0.785 1.274-0.768 2.723 0.051 4.308 5.048 9.77 63.92 11.359 80.124 10.937 20.242-0.535 97.022 6.031 108.098 9.23 11.158 3.224 28.897 5.493 29.098 5.518 33.556 2.731 45.475 9.675 47.087 12.961 0.021 0.045 0.049 0.087 0.082 0.124 5.185 5.773 6.908 11.16 5.122 16.013 -0.174 0.473-0.379 0.937-0.614 1.393 -2.346 0.232-4.891 0.408-7.654 0.511 -10.219 0.382-20.275 5.11-36.936 12.946 -1.606 0.756-3.274 1.54-5.008 2.351 -6.167 2.886-13.088 4.765-20.123 5.941 -3.978-0.205-8.403-0.502-13.104-0.866 9.68-2.865 33.797-10.854 35.767-19.818 0.52-2.362-0.493-4.614-3.009-6.691 -13.686-11.296-31.187-18.809-48.015-20.612 -13.829-1.481-31.798-4.221-32.009-4.252 -1.557-0.14-38.201-3.409-44.826-3.003 -1.885 0.116-6.702-0.607-12.799-1.521 -12.409-1.859-31.16-4.682-47.69-3.991 -34.339 1.423-54.994-9.726-55.986-15.846 -0.812-5.008 3.641-9.15 14.438-13.36 13.722-5.35 68.815-8.528 73.643-8.528 0.042 0 0.079 0 0.119 0 4.248 0 17.089-1.691 30.681-3.548 14.498-1.98 29.486-3.965 32.309-3.581 5.519 0.752 20.649-2.251 21.326-2.389 18.086-5.019 26.104-4.571 33.17-4.175 2.281 0.127 4.435 0.245 6.833 0.193 4.389-0.102 18.723-2.292 31.369-4.223 2.954-0.451 5.817-0.889 8.443-1.282 3.919-0.588 8.393-0.968 13.128-1.371 7.524-0.64 16.053-1.365 25.804-3.132 9.535-1.729 19.193-3.233 28.533-4.689 21.98-3.425 42.741-6.661 56.229-12.005 11.725-4.646 13.966-8.311 16.804-12.951 0.249-0.407 0.503-0.823 0.77-1.249 2.921-4.674 2.17-9.38 1.463-11.77 -0.754-2.545-2.19-4.87-3.342-5.407 -1.475-0.688-2.289-1.871-2.48-2.175 -0.141-0.936-0.556-1.594-1.234-1.958 -1.526-0.816-3.792 0.299-3.837 0.325 -1.623 0.6-5.151 1.435-5.702 0.184 -1.068-2.424-4.256-1.817-4.389-1.789 -0.037 0.007-0.072 0.019-0.106 0.034 -0.987 0.439-3.273 1.163-4.043 0.593 -0.086-0.064-0.349-0.258-0.257-0.991 0.087-0.695-0.11-1.309-0.585-1.825 -1.119-1.215-3.599-1.597-5.416-1.708 1.596-0.869 3.156-1.969 3.044-2.908 -0.062-0.522-0.521-0.868-1.362-1.029 -0.982-0.187-1.593-0.518-1.768-0.957 -0.207-0.522 0.22-1.138 0.216-1.138 2.077-2.345 2.753-3.783 2.193-4.662 -0.17-0.265-0.425-0.426-0.716-0.516 2.722-1.779 6.926-5.166 6.645-7.147 -0.072-0.506-0.436-1.148-1.762-1.334 -4.075-0.572-4.558-1.795-4.57-1.795h-0.001c-0.285-3.702-6.124-4.84-8.814-5.169 2.781-2.25 3.086-4.306 2.803-5.692 -0.615-3.023-4.254-5.04-6.641-5.507 -0.737-0.144-2.271-0.444-2.443-0.632 0.079-0.456 2.309-1.982 3.38-2.715 2.545-1.741 3.707-3.274 3.552-4.686 -0.142-1.277-1.334-2.349-3.648-3.274 -0.666-0.266-1.402-0.66-2.141-1.125 0.019-0.029 0.034-0.056 0.049-0.082 1.594-0.535 5.821-2.136 5.662-3.997 -0.103-1.2-1.752-1.969-5.35-2.494 -3.753-0.547-5.749-0.154-6.113 1.203 -0.439 1.632 1.938 3.948 4.321 5.607 -0.993 1.14-3.212 3.023-7.561 4.031 -1.703 0.395-2.443 0.864-2.474 1.57 -0.038 0.881 1.157 1.497 2.89 2.114 -3.491 0.526-8.023 2.495-8.253 2.596 -0.211 0.092-0.332 0.317-0.292 0.544 0.039 0.227 0.229 0.397 0.459 0.413 3.743 0.25 9.196 1.265 9.6 2.741 0.129 0.472-0.38 1.128-1.432 1.847 -2.994 2.046-5.639 2.826-7.498 2.946 0.084-0.593-0.042-1.199-0.376-1.726 -0.404-0.638-1.051-1.005-1.682-0.99 -0.359 0.016-1.035 0.181-1.522 1.119 -0.347 0.667-0.224 1.359 0.331 1.85 0.384 0.341 1.015 0.593 1.843 0.7 -0.826 2.291-0.974 6.874-0.98 7.115 0.254 6.765 8.372 13.912 12.251 14.558 2.127 0.354 3.744 1.209 4.057 1.626 -0.146 0.07-0.537 0.195-1.484 0.214 -0.884 0.018-1.919 0.133-2.083 0.883 -0.213 0.973 1.581 2.069 3.099 2.803 2.49 1.397 4.547 3.14 4.4 3.729 -0.039 0.157-0.524 0.463-2.084 0.501 -2.23 0.055-3.826 0.736-4.744 2.026 -1.016 1.428-0.915 3.217-0.741 4.236 -1.439-0.268-4.479-0.631-6.071 0.686 -1.621 1.34-3.764 0.167-3.854 0.117 -0.151-0.085-0.334-0.085-0.483-0.004 -5.346 2.902-8.816 8.563-9.529 9.801 -4.693 0.45-10.02 0.582-10.588 0.073 -0.053-0.166-0.039-0.306-0.022-0.469 0.021-0.223 0.055-0.559-0.205-0.834 -0.457-0.487-1.37-0.524-7.519-0.297 -2.165 0.078-3.4 0.075-4.092 0.038 0.061-0.032 0.119-0.063 0.175-0.093 0.639-0.339 1.363-0.723 1.8-1.186 0.383-0.407 1.631-0.756 2.541-1.012 1.345-0.376 2.085-0.583 2.051-1.233 -0.031-0.596-0.597-0.9-3.707-1.425 -1.875-0.316-2.431-0.638-2.585-0.764 0.575-0.616 4.614-1.62 9.323-1.493 5.303 0.125 7.005-1.384 8.817-2.991 0.508-0.45 1.032-0.915 1.649-1.351 2.164-1.527 3.44-2.682 3.122-3.717 -0.243-0.789-1.292-1.156-3.401-1.192 -1.728-0.029-2.911-0.385-3.332-1.001 -0.229-0.335-0.183-0.683-0.148-0.827 0.665-0.735 1.436-1.77 0.99-2.613 -0.513-0.971-2.248-0.771-2.566-0.723 -2.752 0.262-5.424 0.022-5.61-0.503 -0.002-0.004-0.111-0.496 1.77-1.75 1.117-0.745 2.56-1.87 2.183-3.029 -0.408-1.256-2.886-1.581-4.751-1.643 3.527-2.391 5.063-4.441 4.69-6.244 -0.566-2.733-5.455-3.465-5.66-3.495 -1.492-0.223-3.012-0.742-3.126-1.043 0-0.002 0.075-0.256 1.007-0.672 1.955-0.874 4.258-2.249 4.121-3.836 -0.097-1.131-1.335-1.983-3.785-2.605 -1.42-0.36-2.052-0.632-2.328-0.79 0.219-0.084 0.552-0.17 0.871-0.22 1.271 0.191 4.082 0.455 4.569-0.8 0.368-0.949-0.641-2.131-3.375-3.954 -3.199-2.132-5.152-2.759-6.15-1.97 -1.037 0.819-0.386 2.683-0.294 2.926 0.009 0.02 0.87 1.962 0.138 3.697 -0.434 1.025-1.35 1.797-2.724 2.292 -1.932 0.696-2.821 1.422-2.801 2.283 0.026 1.144 1.732 1.726 2.117 1.843 1.081 0.229 2.165 0.558 2.723 0.81 -0.459 0.118-1.431 0.274-3.475 0.368 -4.794 0.22-5.228 0.727-5.28 1.316 -0.023 0.261-0.086 0.955 2.672 1.583 2.519 0.686 6.534 2.357 6.584 3.924 0.019 0.559-0.536 1.696-4.449 3.037 -5.514 1.89-5.846 2.575-5.706 3.217 0.06 0.27 0.194 0.896 3.149 0.835 -2.571 1.447-2.846 2.237-2.714 2.822 0.23 1.019 1.936 1.091 2.583 1.095 0.572-0.077 1.74-0.042 1.968 0.387 0.081 0.153 0.226 0.787-1.325 2.536 -1.419 1.599-2.006 3.125-1.745 4.535 0.347 1.872 2.065 2.786 2.155 2.832 1.704 0.808 3.312 1.905 3.393 2.231 -0.001 0.001-0.146 0.158-0.897 0.237 -1.469 0.153-2.303 0.595-2.552 1.352 -0.284 0.866 0.384 1.759 0.773 2.186 -0.311 0.746-0.8 1.252-1.487 1.542 -2.009 0.845-5.016-0.455-5.484-0.669 -0.553-0.495-4.347-3.636-8.183-0.465 -0.89 0.734-1.737 1.708-2.454 2.728 -1.876-0.6-4.408-0.605-5.124-0.588 -0.623 0.078-1.982 0.055-2.258-0.515 -0.124-0.258-0.287-1.335 2.837-4.381 1.07-1.044 2.417-2.572 1.754-3.783 -0.896-1.634-5.281-1.146-8.062-0.652 3.327-2.742 4.646-4.659 4.132-5.972 -0.598-1.529-3.358-1.31-3.689-1.28 -2.276 0.291-4.561 0.197-4.789-0.18 0-0.005 0.004-0.528 2.233-1.898 2.459-1.511 3.297-2.366 3.092-3.154 -0.243-0.936-1.745-1-4.019-1.096 -1.221-0.052-2.604-0.111-3.732-0.333 -0.798-0.157-1.617-0.343-2.249-0.591 0.829-0.582 1.699-1.377 2.037-2.312 0.236-0.651 0.198-1.295-0.11-1.913 -0.273-0.546-0.506-1.257-0.688-2.092 1.391-4.396 1.773-12.29 1.081-13.379 -0.146-0.228-0.379-0.339-0.619-0.302 -0.415 0.065-0.655 0.474-0.954 1.621 -1.128 4.321-1.147 8.875-0.531 12 -0.218 0.647-0.462 1.194-0.733 1.597 -1.225 1.818-1.947 3.255-1.49 4.362 0.051 0.124 0.115 0.239 0.191 0.348 -0.164 0.085-0.31 0.154-0.427 0.206 -5.99 2.995-5.728 3.892-5.629 4.23 0.189 0.64 1.026 0.642 1.906 0.547 2.312-0.251 4.146 1.332 4.398 2.963 0.228 1.476-0.913 2.617-3.052 3.05 -1.504 0.305-2.502 0.666-2.481 1.435 0.009 0.333 0.034 1.34 5.746 2.203 0.591 0.352 1.374 1.032 1.312 1.489 -0.02 0.149-0.224 0.673-2.018 1.129 -1.989 0.505-2.793 0.999-2.774 1.703 0.013 0.502 0.486 0.838 1.026 1.059 -1.979 1.493-2.716 2.569-2.376 3.44 0.33 0.845 1.642 1.072 2.875 1.087 -0.748 0.339-1.826 0.773-3.374 1.307 -3.338 1.151-3.589 2.006-3.487 2.549 0.077 0.404 0.276 1.48 5.92 1.257 2.258-0.09 3.339 0.031 3.839 0.14 -0.372 0.162-1.029 0.368-2.023 0.534 -2.569 0.428-3.312 1.733-3.516 2.596 -1.036-0.258-3.272-0.268-7.908 1.428 -1.396 0.511-2.021 0.604-2.286 0.608 0.277-0.545 1.507-1.81 2.858-2.918 0.179-0.146 0.234-0.395 0.135-0.603 -0.099-0.207-0.328-0.321-0.553-0.273l-8.012 1.668c2.545-2.16 5.933-5.389 5.274-6.78 -0.409-0.866-1.776-0.683-2.766-0.471 -4.348 0.931-5.823 0.608-5.973 0.498 0.001-0.007 0.151-0.763 3.877-2.559 4.913-2.368 5.128-3.456 4.862-4.068 -0.353-0.816-1.809-0.678-3.093-0.182 -0.896 0.346-1.976 0.114-2.265-0.49 -0.483-1.008 0.914-3.323 6.446-6.528 3.774-2.187 4.324-3.13 3.987-3.873 -1.019-2.253-14.018 1.923-14.148 1.967 -3.342 1.128-4.76 1.018-5.114 0.887 0.154-0.243 0.812-0.847 2.636-1.62 1.673-0.709 5.517-2.51 5.083-3.92 -0.206-0.673-1.021-1.175-5.541-0.281 -3.892 0.771-4.319 0.217-4.321 0.217 -0.035-0.165 0.374-0.739 0.89-1.164 5.21-4.027 4.731-4.929 4.574-5.225 -0.335-0.633-1.259-0.482-2.536-0.062 -1.228 0.403-1.807 0.479-2.066 0.481 0.21-0.354 0.827-1.012 1.495-1.572 2.212-2.239 2.999-3.912 2.407-5.114 -0.562-1.141-2.233-1.437-3.578-1.479 1.975-1.423 2.771-2.564 2.494-3.538 -0.343-1.201-2.212-1.523-3.323-1.607 0.817-2.471-0.387-4.785-1.497-5.813 -0.653-0.605-1.301-0.792-1.773-0.515 -0.503 0.294-0.633 0.967-0.387 1.999 0.851 3.562-4.128 7.62-4.145 7.635 -0.102 0.069-2.502 1.707-2.528 3.787 -0.014 1.043 0.553 1.981 1.685 2.786 0.952 0.677 1.432 1.314 1.427 1.894 -0.009 1-1.465 1.997-2.635 2.798 -0.247 0.169-0.487 0.333-0.711 0.495 -0.18 0.129-0.38 0.269-0.593 0.417 -1.574 1.093-3.532 2.453-3.181 3.814 0.257 0.997 1.572 1.564 4.265 1.839 2.912 0.298 3.166 0.811 3.169 0.811 -0.022 0.245-0.941 0.883-2.08 1.322 -1.699 0.794-5.614 2.816-5.262 4.44 0.197 0.907 1.421 1.322 3.969 1.347 3.438 0.033 3.907 0.501 3.928 0.448 -0.081 0.278-1.125 0.916-2.108 1.313 -2.991 0.627-7.998 1.926-7.918 3.575 0.037 0.783 0.786 1.586 5.965 2.162 3.638 0.404 5.346 0.73 6.147 0.945 -0.613 0.129-1.513 0.248-2.309 0.31 -7.771 0.777-7.771 1.633-7.77 2.044 0.001 0.673 0.702 1.062 4.688 1.451 1.412 0.138 3.146 0.514 3.387 1.522 0.379 1.588-2.599 4.462-5.658 6.795 0.149-0.424 0.133-0.79-0.042-1.11 -0.956-1.749-6.831-0.201-8.61 0.315 -0.04 0.011-0.078 0.028-0.113 0.049 -4.229 2.485-9.33 4.74-10.202 4.048 -0.105-0.084-0.1-0.352 0.015-0.717 0.456-1.448 0.352-2.511-0.311-3.159 -1.177-1.151-3.56-0.39-3.809-0.304 -1.416 0.422-3.196 0.601-3.489 0.183 -0.026-0.038-0.229-0.4 0.701-1.656 1.078-1.458 1.392-2.648 0.933-3.541 -0.69-1.342-2.759-1.342-2.988-1.34 -1.534-0.043-3.314-0.228-4.052-0.459 0.516-0.262 1.943-0.776 5.885-1.55 7.195-1.413 11.202-3.068 11.909-4.92 0.282-0.742-0.066-1.235-0.107-1.289 -0.108-0.144-0.286-0.218-0.465-0.194 -3.192 0.429-6.321 0.434-6.671 0.096 0.017-0.082 0.304-0.859 5.025-2.978 6.575-2.95 6.931-3.689 6.713-4.349 -0.112-0.339-0.342-1.047-4.724-0.087 -2.268 0.661-4.908 1.279-6.086 1.367 0.349-0.266 1.001-0.696 2.217-1.365 4.915-2.704 6.209-3.738 6.021-4.812 -0.208-1.188-2.251-1.56-6.852-2.286 -2.47-0.39-4.026-1.229-4.626-2.495 -0.687-1.449 0.091-3.089 0.275-3.44 2.166-1.859 1.792-3.495 1.372-4.309 -1.419-2.75-7.742-4.444-14.893-2.58 -3.942 1.027-5.763 1.108-6.404 1.018 0.562-0.464 2.407-1.414 6.075-2.384 3.341-0.884 4.831-1.836 4.557-2.911 -0.432-1.694-5.764-1.793-12.137-0.225 -4.918 1.209-6.021 0.458-6.267 0.081 -0.425-0.654 0.381-1.964 0.674-2.344 2.009-2.229 2.647-3.931 1.951-5.201 -1.551-2.833-9.428-1.608-10.274-1.466 -3.252 0.227-6.938-0.121-7.217-1.069 -0.084-0.285 0.028-1.427 4.993-4.161 5.276-2.905 5.699-4.154 5.417-4.993 -0.608-1.806-6.134-1.202-8.484-0.856 -2.859 0.438-5.591 0.517-6.158 0.189 0.132-0.219 0.804-0.955 4.199-2.578 3.298-1.577 3.799-2.179 3.597-2.796 -0.313-0.955-2.145-0.795-11.526 0.992 -3.142 0.599-6.109 1.165-7.921 1.355 -2.154 0.227-3.057 0.613-3.116 1.333 -0.066 0.796 1.151 1.546 3.643 2.236 2.025 0.45 3.882 1.304 3.895 1.791 0.001 0.026-0.017 0.658-3.003 1.489 -2.438 0.678-3.448 1.286-3.489 2.096 -0.048 0.979 1.338 1.518 2.944 2.142 0.768 0.299 2.054 0.798 2.18 1.05 -0.054 1.018-2.211 4.057-3.445 4.229 -0.133 0.02-0.382 0.054-0.582-0.532 -1.146-3.337-7.758-1.32-8.019-1.238 -1.448 0.384-2.196 0.493-2.578 0.514 0.609-0.607 2.282-1.732 3.789-2.597 0.206-0.118 0.3-0.364 0.226-0.59 -0.075-0.226-0.301-0.37-0.532-0.34l-10.638 1.216c0.656-1.189 0.759-2.083 0.318-2.718 -0.862-1.242-3.412-0.642-3.67-0.576 -2.126 0.401-4.208 0.559-4.849 0.381 0.158-0.188 0.598-0.586 1.812-1.29 2.462-1.425 3.5-2.549 3.267-3.536 -0.282-1.193-2.26-1.372-2.658-1.396 -0.997-0.052-3.131-0.434-3.367-1.283 -0.09-0.326 0.009-1.291 2.87-3.22 2.659-1.792 3.792-3.26 3.461-4.486 -0.447-1.66-3.375-1.905-3.697-1.926 -2.273-0.199-4.483-0.679-4.941-1.059 0.158-0.148 0.724-0.52 2.693-1.042 3.203-0.85 5.127-2.014 5.418-3.277 0.119-0.516-0.053-1.019-0.472-1.381 -0.95-0.821-2.961-0.837-5.006-0.041 -1.651 0.644-2.553 0.714-2.918 0.676 0.356-0.405 1.685-1.392 5.257-2.569 1.581-0.521 3.646-1.356 3.319-2.575 -0.484-1.804-6.871-2.009-11.836-0.973 -3.607 0.752-7.862 1.903-7.654 3.115 0.105 0.609 0.831 0.766 2.499 0.537 1.853-0.252 2.618 0.09 2.686 0.229 -0.006 0.073-0.247 0.447-1.253 0.804 -1.574 0.559-3.604 1.973-3.32 3.177 0.29 1.232 2.491 0.962 3.214 0.874 1.729-0.21 2.979 0.408 3.336 1.66 0.33 1.155-0.209 2.794-1.857 3.558 -2.23 1.033-6.033 3.904-5.581 5.276 0.115 0.351 0.479 0.721 1.558 0.5 0.293-0.061 0.677-0.091 0.837 0.106 0.359 0.444-0.007 1.879-0.376 2.742 -1.468 2.094-1.916 3.802-1.332 5.077 0.36 0.787 1.039 1.241 1.648 1.5 -1.57 0.957-3.874 2.618-3.595 3.985 0.244 1.198 2.133 1.374 2.753 1.432 1.06 0.099 1.721 0.365 1.812 0.729 0.251 1.004-2.461 3.342-4.374 4.605 -0.178 0.118-0.262 0.334-0.209 0.541 0.053 0.206 0.23 0.356 0.442 0.375 2.538 0.216 4.108 0.9 4.541 1.979 0.654 1.631-1.27 3.835-1.29 3.857 -0.138 0.156-0.165 0.381-0.067 0.565 0.097 0.184 0.294 0.285 0.504 0.263 1.116-0.141 2.527-0.152 2.932 0.595 0.706 1.303-1.44 4.628-2.959 6.418 -0.042 0.05-0.075 0.108-0.095 0.17 -0.302 0.94-0.495 1.738-0.577 2.405 -2.288 0.917-4.588 1.459-5.076 0.899 -0.224-0.257-0.088-1.104 0.964-2.71 1.628-2.487 2.067-4.422 1.306-5.752 -1.037-1.81-3.842-1.695-3.946-1.688 -5.14 0.131-12.586-0.396-13.036-1.949 -0.052-0.18-0.049-0.872 2.181-2.205 5.821-3.482 5.609-3.939 5.385-4.423 -0.119-0.257-0.34-0.736-2.509 0.008 -0.739 0.178-1.551 0.278-1.968 0.256 0.278-0.326 1.122-1.069 3.674-2.591 5.522-3.291 5.98-3.904 5.759-4.604 -0.236-0.744-1.256-0.667-3.729-0.48l-1.194 0.087c-0.734 0.052-1.442 0.102-1.929 0.112 0.438-0.354 1.15-0.87 1.933-1.435 0.683-0.494 1.501-1.085 2.452-1.792 2.599-1.931 3.533-3.081 3.226-3.97 -0.363-1.048-2.181-0.999-4.282-0.94l-0.338 0.009c-0.571 0.015-1.21 0.072-1.827 0.127 -0.681 0.062-1.645 0.149-2.115 0.099 0.326-0.385 1.409-1.293 4.88-3.382 3.16-1.901 4.281-3.049 3.871-3.961 -0.782-1.739-7.462 0.034-7.528 0.056 -0.676 0.213-2.213 0.041-2.45-0.462 -0.042-0.089-0.314-0.931 2.955-3.058 3.672-2.39 4.242-3.229 4.009-3.94 -0.298-0.913-1.862-0.827-4.703-0.669l-0.439 0.024c-0.23 0.012-0.433 0.018-0.611 0.018 -1.006 0-1.242-0.167-1.252-0.153 0.021-0.193 0.504-0.692 0.918-0.988 3.479-1.474 4.904-2.572 4.764-3.674 -0.131-1.025-1.498-1.637-4.718-2.114 -1.499-0.222-1.955-0.577-1.987-0.734 -0.042-0.208 0.417-0.669 0.765-0.891 4.128-1.644 4.229-1.968 4.06-2.491 -0.153-0.472-0.297-0.916-7.044 0.794 -6.44 1.771-6.335 2.512-6.279 2.91 0.092 0.648 0.921 0.762 2.418 0.739 2.146-0.033 2.82 0.141 3.029 0.242 -0.456 0.76-4.271 2.845-6.359 3.986 -3.368 1.841-3.59 2.008-3.398 2.559 0.181 0.521 0.612 0.446 2.219 0.168 1.643-0.284 4.392-0.761 7.143-0.622 1.482 0.075 1.77 0.313 1.782 0.303 -0.179 0.957-5.968 3.481-8.15 4.433l-0.892 0.39c-1.666 0.733-2.604 1.308-2.466 2.077 0.163 0.91 1.397 1.286 8.386 1.713 2.369 0.145 3.106 0.391 3.332 0.513 -0.45 0.536-2.854 1.611-4.991 2.565 -1.216 0.544-2.56 1.145-3.942 1.804 -4.098 1.956-4.449 2.424-4.275 3.028 0.231 0.803 1.369 0.698 6.71 0.07l2.004-0.234c1.748-0.2 2.436-0.127 2.694-0.062 -0.486 0.651-2.953 2.089-4.47 2.975 -0.976 0.569-1.898 1.106-2.637 1.588 -1.742 1.134-2.577 1.84-2.309 2.549 0.287 0.758 1.401 0.931 7.571 0.031 1.549-0.227 2.358-0.27 2.783-0.263 -0.623 0.487-2.014 1.292-3.179 1.966 -1.245 0.72-2.657 1.536-3.95 2.384 -1.015 0.666-2.01 1.455-1.693 2.258 0.438 1.112 3.515 0.846 6.078 0.411 0.861 0.357 1.817 0.915 1.788 1.629 -0.098 2.387-8.874 6.004-14.966 7.942 1.938-7.403-6.436-12.862-12.617-16.89 -1.373-0.895-2.669-1.741-3.682-2.5 -1.656-1.243-2.515-2.87-2.552-4.832 -0.071-3.8 2.87-7.916 5.817-10.304 5.005-4.057 4.533-7.031 4.517-7.095 -0.003-0.055-0.253-5.561 5.31-9.932 1.979-1.555 2.769-2.86 2.414-3.906 -0.546-1.609-3.618-1.779-3.967-1.779 -0.001 0-0.002 0-0.003 0 -0.206 0-8.343 0.175-11.064 9.358 -2.545 8.591-9.15 10.306-9.216 10.321 -0.105 0.025-0.201 0.083-0.271 0.166 -2.06 2.455-12.294 14.847-11.517 17.783 0.603 2.277-0.84 2.84-1.078 2.927 -7.137 3.657-7.51 10.61-6.068 14.134 0.313 0.765-0.202 1.81-0.689 2.551 -2.623 3.992-10.166 8.7-13.108 8.759 -4.211 0.084-9.219 2.117-9.461 2.218 -6.384 3.152-27.031 1.55-27.197 1.539 -0.455-0.076-11.218-1.836-17.627-1.255 -5.904 0.542-7.096-3-7.143-3.148 -0.008-0.025-0.741-2.495 0.527-4.034 0.88-1.069 2.542-1.487 4.944-1.238 6.958 0.717 13.656-3.576 15.723-5.048 0.562 0.876 2.105 0.466 3.245 0.064 6.124-2.169 12.035-14.362 12.235-14.799 0.51-0.688 2.255-2.599 3.438-2.549 0.822 0.058 1.574-0.221 2.168-0.81 0.782-0.774 1.199-2.025 1.117-3.345l-0.015-0.239c-0.251-3.908-0.279-6.976-0.174-9.383 1.918-3.247 3.781-6.439 5.443-9.308 2.477 0.259 5.361 1.518 6.758 2.275 0.029 0.016 0.06 0.029 0.092 0.039 0.498 0.151 12.236 3.672 15.783-0.662 3.127-3.822 7.149-2.864 10.302-1.602 1.301 0.521 2.609 0.126 3.676-1.111 1.339-1.553 1.979-4.095 1.316-5.23 -0.627-1.075-0.268-3.062-0.068-3.771 0.574-2.756-0.334-4.107-1.197-4.755 -1.796-1.348-4.778-0.76-5.901-0.164 -1.075 0.571-2.292 1.621-3.579 2.731 -2.125 1.833-4.532 3.912-6.754 4.214 -2.895 0.395-7.242 5.083-7.425 5.282 -0.187 0.203-0.174 0.52 0.029 0.707s0.52 0.175 0.707-0.029c1.184-1.285 4.717-4.681 6.825-4.968 2.516-0.343 5.043-2.524 7.272-4.448 1.244-1.074 2.418-2.087 3.395-2.606 0.966-0.513 3.478-0.937 4.833 0.081 0.918 0.689 1.193 1.951 0.827 3.716 -0.033 0.115-0.797 2.849 0.174 4.514 0.367 0.629-0.029 2.704-1.209 4.074 -0.542 0.629-1.422 1.285-2.548 0.835 -3.199-1.28-7.869-2.477-11.448 1.898 -3.023 3.693-13.871 0.587-14.671 0.352 -0.465-0.249-3.604-1.878-6.64-2.318 3.283-5.673 5.675-9.891 5.967-10.41 0.13-0.167 3.204-4.123 3.721-6.709 0.096-0.482 0.119-0.912 0.141-1.328 0.094-1.764 0.182-3.43 6.733-8.677 0.124-0.131 2.347-2.522 5.022-7.2 4.751-2.184 6.754-5.82 6.836-5.973 1.084-1.843 2.131-2.846 3.113-2.982 1.092-0.147 2.082 0.793 2.951 1.626 0.174 0.167 0.342 0.329 0.504 0.474 1.306 1.176 5.209-0.386 7.491-2.489 1.891-1.742 2.344-3.572 1.242-5.019 -0.415-0.544-0.64-0.878-0.76-1.083 0.152 0.011 0.333 0.03 0.494 0.047 1.016 0.107 2.552 0.27 4.227-0.336 3.512-1.272 5.497-1.794 5.84-1.571 -0.723 3.522-0.425 5.647 0.912 6.496 2.607 1.656 8.133-2.477 12.169-5.493 1.174-0.877 2.188-1.635 2.804-1.991 4.541-2.625 8.212-3.438 10.915-2.409 2.438 0.927 3.163 3.042 3.187 3.113 0.036 0.126 0.503 1.478 5.722 9.958 5.27 8.563 17.203 5.393 24.334 3.5l1.051-0.278c1.98-0.519 3.174-1.378 3.551-2.556 0.656-2.049-1.282-4.372-2.697-6.068 -0.379-0.455-0.707-0.847-0.896-1.134 -0.657-1-1.684-3.465-0.866-5.634 0.588-1.561 2.017-2.663 4.248-3.276 4.665-1.281 7.433 0.599 9.875 2.26 0.905 0.616 1.761 1.197 2.637 1.554 4.813 1.963 6.615 2.698 8.153 4.375 0.638 0.695 1.291 1.587 1.981 2.532 2.137 2.922 4.796 6.558 9.566 8.105 4.837 1.569 7.438 5.487 9.527 8.635 0.486 0.732 0.945 1.423 1.393 2.022 3.216 4.3 10.208 10.58 16.344 13.648 5.81 2.905 9.609 8.285 9.675 8.375 6.623 7.84 14.459 8.219 17.679 7.327 0.046-0.013 3.613-0.966 7.611-1.343 1.063 0.328 2.173 0.614 3.324 0.85 14.784 3.024 27.182-10.518 27.288-10.637 0.312-0.314 16.082-16.163 32.747-32.696 0.139 0.018 0.284-0.016 0.397-0.116 0.281-0.25 0.945-0.847 1.83-1.678 7.669-6.123 15.506-13.423 20.532-18.107 1.386-1.292 2.564-2.39 3.475-3.218 7.253-6.593 11.241-5.571 13.903-3.943 3.066 1.874 9.131 2.384 9.447 2.406 1.785-0.063 3.009 0.282 3.729 1.072 1.191 1.307 0.872 3.732 0.591 5.871 -0.142 1.08-0.276 2.1-0.212 2.929 0.293 3.817 6.056 11.31 12.069 12.652 2.887 0.645 7.036 0.165 10.405-5.777 8.41-14.829 15.875-14.498 23.107-14.173 1.026 0.046 2.088 0.093 3.124 0.093 1.367 0 2.464 0.437 3.352 1.335 1.021 1.034 1.655 2.597 2.047 4.338 -0.41 2.299-1.726 10.427-0.539 13.985 0.936 2.808 0.576 4.24 0.258 5.504 -0.122 0.489-0.238 0.951-0.281 1.462 -0.57 6.795 2.237 22.884 7.511 43.037 4.791 18.311 10.317 35.083 13.751 41.735 1.051 2.035 4.533 6.578 7.188 6.577 0.23 0 0.455-0.034 0.671-0.107C457.969 273.821 458.308 268.657 456.568 258.858zM354.165 347.919c1.96-0.436 46.768-10.316 55.599-5.779 5.124 2.631 6.456 5.06 5.993 6.456 -0.267 0.807-1.18 1.274-2.183 1.106 -1.172-0.195-3.606 0.518-6.979 1.504 -6.065 1.773-14.367 4.2-21.284 3.244 -12.946-1.793-27.294-2.491-40.661-2.569C350.096 349.983 353.658 348.181 354.165 347.919zM238.266 456.06c2.317 0.481 4.55 0.935 6.696 1.36 -20.51-1.96-41.759-4.436-52.156-5.681C208.934 451.894 225.693 453.451 238.266 456.06zM138.99 462.815c-0.644-1.822-0.548-3.428 0.292-4.792 3.432-5.577 18.056-6.784 30.074-6.784 1.261 0 2.495 0.013 3.683 0.036 -16.87 1.279-30.355 4.625-33.607 10.555C139.254 462.153 139.107 462.481 138.99 462.815zM140.309 462.31c3.743-6.824 22.488-10.035 43.996-10.519 1.153 0.085 1.827 0.146 1.876 0.15 1.029 0.128 8.524 1.059 19.161 2.286 -25.19-1.569-49.853-1.726-51.735 3.454 -0.437 1.205 0.189 2.538 1.91 4.043 -1.879 1.358-3.185 3.011-3.73 5.015 -0.034 0.075-0.811 1.86 0.763 4.237 1.048 1.583 2.775 2.977 5.049 4.201 -8.085-2.283-14.603-5.492-17.434-9.998 -0.176-0.281-0.338-0.558-0.485-0.83C139.743 463.641 139.952 462.961 140.309 462.31zM143.351 471.722c-1.754-1.801-2.884-3.498-3.387-5.08 4.071 5.359 13.091 8.891 24.157 11.186 2.58 0.81 5.474 1.514 8.601 2.123C161.264 480.695 150.428 478.989 143.351 471.722zM163.963 476.731c-6.381-2.09-9.277-4.384-10.541-6.249 -1.301-1.921-0.746-3.278-0.697-3.404 0.512-1.877 1.771-3.425 3.598-4.695 0.419 0.319 0.884 0.646 1.396 0.981 11.122 7.284 27.263 10.484 41.864 11.784 -6.097 1.54-12.823 3.092-19.562 4.04C174.597 478.607 169.102 477.813 163.963 476.731zM255.374 478.352c4.872 0.569 6.337 1.053 6.776 1.296 -0.376 0.23-1.243 0.472-2.479 0.714C258.267 479.663 256.832 478.992 255.374 478.352zM262.362 482.894c-1.453-0.287-3.391-0.653-5.58-1.023 1.026-0.156 1.933-0.318 2.717-0.484C260.47 481.875 261.425 482.377 262.362 482.894zM258.012 480.655c-1.374 0.22-3.012 0.438-4.817 0.646 -4.235-0.628-8.886-1.149-12.661-1.149 -0.633 0-1.24 0.015-1.818 0.046 -5.948 0.321-27.018 1.263-48.315-0.125 -2.088-0.136-4.235-0.299-6.411-0.494 6.535-1.123 12.939-2.703 18.66-4.183 3.594 0.261 7.061 0.412 10.3 0.488 6.397 0.149 12.405 0.025 17.532-0.202 5.687 0.634 11.847 1.296 18.501 1.992l2.956 0.31C254.003 478.811 256.036 479.704 258.012 480.655zM239.981 482.446c-27.241 0.638-46.043-0.36-59.01-2.119 23.661 2.404 49.746 1.304 57.799 0.868 2.879-0.156 6.542 0.109 10.209 0.546C246.093 482.014 243 482.257 239.981 482.446zM270.609 488.178l0.293 0.221c5.17 3.883 6.559 4.927 2.012 40.984 -2.233 17.709-2.198 43.886-2.163 69.201 0.038 27.87 0.077 56.689-2.835 75.284 -0.882 5.63-3.041 10.317-4.715 10.128 -1.697-0.142-7.18-5.325-6.458-66.045 0.312-26.2 1.711-48.545 2.836-66.5 2.448-39.072 3.828-61.085-9.086-68.82 1.003-0.098 1.947-0.199 2.833-0.302 6.208 0.934 11.465 2.084 11.56 2.104 0.054 0.013 0.109 0.015 0.164 0.009C267.023 485.633 268.888 486.882 270.609 488.178zM246.748 474.449c8.175 0.798 21.252 3.116 21.713 5.968 0.134 0.83-1.044 1.86-3.325 2.916 -1.343-0.797-2.73-1.565-4.158-2.306 1.52-0.43 2.288-0.886 2.299-1.37 0.017-0.779-0.677-1.554-9.231-2.458l-1.912-0.201c-2.204-0.877-4.446-1.683-6.688-2.403C246.152 474.519 246.598 474.466 246.748 474.449zM248.273 476.593c-3.517-0.368-7.502-0.785-11.768-1.245 2.563-0.17 4.739-0.351 6.42-0.506C244.708 475.372 246.497 475.957 248.273 476.593zM215.972 472.06c6.208-1.325 15.037-0.431 24.227 2.015 -2.636 0.213-5.964 0.439-9.785 0.608 -5.557-0.614-11.403-1.287-17.17-2.002C214.2 472.453 215.113 472.243 215.972 472.06zM210.571 473.342c3.986 0.5 8.316 1.018 13.013 1.559 -3.347 0.062-6.92 0.069-10.625-0.018 -2.305-0.055-4.728-0.146-7.228-0.29 0.006-0.002 0.012-0.003 0.018-0.005C207.409 474.156 209.029 473.733 210.571 473.342zM356.519 407.776c-11.207-5.633-23.41-9.02-31.787-8.83 -22.136 0.517-50.252-12.079-50.548-12.212 -6.751-2.79-10.055-5.446-9.556-7.683 2.864-12.82 109.213-16.305 118.841-15.856 5.944 0.29 10.395-1.067 14.697-2.374 3.437-1.043 6.683-2.028 10.6-2.21 10.159-0.472 11.458 1.098 11.542 1.794 0.32 2.639-10.511 8.075-12.912 8.549 -6.608 1.305-39.788-0.738-40.122-0.758 -0.063-0.005-0.123 0.003-0.182 0.022 -0.243 0.077-24.313 7.615-30.287 2.836 -4.549-3.639-14.934-1.608-24.095 0.183 -3.907 0.764-7.599 1.485-10.506 1.709 -5.553 0.427-14.533 4.253-14.291 7.572 0.205 2.805 6.639 3.788 19.113 2.925 32.028-2.218 51.398 2.686 51.591 2.735 31.265 8.09 32.604 16.242 35.54 34.105 0.401 2.447 0.817 4.978 1.344 7.754 4.143 21.866-17.263 27.016-34.462 31.154 -1.079 0.259-2.137 0.514-3.166 0.768 -16.967 4.181-90.392 8.371-99.809 6.99 -7.411-1.08-60.273-7.73-76.64-5.5 -8.29 1.129-9.391 2.312-9.375 3.32 0.039 2.49 10.323 4.955 35.83 8.229 -0.782 0.203-1.578 0.41-2.383 0.621 -0.957 0.249-1.937 0.505-2.94 0.765 -15.191-1.114-32.594-4.199-44.29-11.858 -0.375-0.246-0.724-0.487-1.045-0.723 14.617-8.662 57.943-2.934 58.417-2.87 0.125 0.026 12.777 2.68 29.091 3.503 7.49 0.378 16.534 0.397 25.735-0.611 17.955 2.479 25.782 1.733 31.151 0.354 8.916-2.293 29.054-5.537 38.675-6.486 1.067-0.105 2.124-0.184 3.186-0.263 8.454-0.627 17.195-1.274 32.851-15.363 3.959-3.564 5.02-7.761 3.15-12.474 -0.69-1.742-1.787-3.531-3.249-5.331 -0.08-0.621-0.247-1.227-0.501-1.817 -1.386-3.226-5.26-5.752-10.613-7.748C362.52 410.997 359.642 409.346 356.519 407.776zM374.613 420.424c-1.501-1.587-3.272-3.173-5.29-4.735C371.825 417.055 373.68 418.623 374.613 420.424zM348.181 437.138c1.919-5.214 0.146-10.926-5.273-16.979 -0.541-1.001-6.574-10.101-47.853-13.46 -0.177-0.022-17.839-2.282-28.924-5.484 -11.12-3.212-88.109-9.804-108.402-9.27 -20.738 0.543-74.749-1.763-79.209-10.396 -0.656-1.269-0.685-2.356-0.088-3.324 2.433-3.949 14.542-5.832 35.972-5.613 13.731 0.139 52.841-1.622 58.403-2.337 3.07-0.396 19.26-2.307 39.758-4.728 34.211-4.04 81.066-9.573 86.253-10.358 6.413-0.97 21.505-2.139 39.19-2.299 -3.801 1.026-8.094 1.917-12.65 2.392 -9.062 0.944-24.688 3.604-42.782 6.686 -10.567 1.8-22.545 3.839-34.412 5.734 -7.536 1.204-20.095 2.58-33.391 4.037 -35.985 3.943-52.95 6.097-53.049 8.799 -0.033 0.902 1.202 1.501 4.261 2.066 7.38 1.362 19.887 2.261 34.368 3.301 27.743 1.993 62.27 4.473 77.046 11.615 0.146 0.071 15.018 7.188 41.311 8.924 9.245 0.61 32.234 2.129 45.894 7.148 4.322 2.839 8.036 5.929 10.658 9.075 0.163 2.104-0.812 4.44-2.921 6.98 -0.053 0.07-4.897 6.25-24.541 8.414C347.939 437.758 348.066 437.45 348.181 437.138zM297.455 454.899c1.734-0.812 3.402-1.596 5.01-2.353 16.545-7.781 26.531-12.478 36.547-12.851 2.508-0.094 4.837-0.245 7.004-0.443 -9.152 14.428-48.19 20.073-52.839 20.698 -2.489 0.334-6.642 0.367-11.901 0.176C286.931 458.936 292.438 457.247 297.455 454.899zM276.904 460.947c7.35 0.37 13.19 0.427 16.405-0.006 7.765-1.043 45.496-6.838 53.944-21.809 20.697-2.126 25.667-8.582 25.874-8.867 1.856-2.234 2.896-4.357 3.114-6.349 0.992 1.349 1.773 2.702 2.307 4.046 1.699 4.284 0.727 8.106-2.891 11.361 -15.399 13.86-23.968 14.496-32.254 15.11 -1.07 0.079-2.136 0.158-3.21 0.264 -9.655 0.953-29.871 4.211-38.825 6.514 -4.89 1.256-11.868 1.974-26.984 0.123C275.225 461.214 276.065 461.085 276.904 460.947zM271.875 460.659c-0.469 0.058-0.938 0.111-1.406 0.163 -1.082-0.149-2.202-0.312-3.36-0.486C268.74 460.454 270.332 460.561 271.875 460.659zM266.271 461.217c-7.7 0.603-15.147 0.539-21.474 0.223 -16.238-0.818-28.826-3.457-28.987-3.489 -1.167-0.158-14.967-1.983-29.488-1.983 -11.508 0-23.471 1.147-29.944 5.181 -1.496-1.25-2.125-2.314-1.832-3.124 2.904-7.997 76.878-1.147 105.137 2.169 0.059 0.006 0.119 0.002 0.178-0.012C262.12 460.566 264.25 460.91 266.271 461.217zM402.083 225.164c0.055-0.2 0.381-0.707 2.285-0.707 0.684 0 1.569 0.065 2.719 0.233 4.204 0.614 4.484 1.432 4.498 1.59 0.066 0.778-2.617 2.191-5.165 3.024 -0.129 0.042-0.235 0.136-0.295 0.258 -0.002 0.004-0.03 0.059-0.089 0.155C403.812 228.154 401.829 226.115 402.083 225.164zM388.293 248.817c-0.211-0.187-0.243-0.378-0.107-0.641 0.134-0.257 0.36-0.567 0.679-0.581 0.007 0 0.015 0 0.021 0 0.268 0 0.568 0.204 0.772 0.527 0.229 0.36 0.298 0.784 0.204 1.188C389.112 249.251 388.571 249.063 388.293 248.817zM335.026 295.592c0.368 0.178 0.629 0.389 0.73 0.632 0.209 0.499-0.354 1.199-0.863 1.698 -0.748 0.733-1.158 0.984-1.352 1.07C333.555 298.465 334.096 297.075 335.026 295.592zM316.41 252.084c0.072 1.999-0.171 5.797-0.777 8.908C315.437 258.37 315.635 255.183 316.41 252.084zM315.075 265.725c0.109-0.163 0.216-0.347 0.317-0.549 0.123 0.371 0.258 0.703 0.403 0.994 0.185 0.368 0.205 0.736 0.065 1.125 -0.287 0.796-1.199 1.542-2.039 2.078 -0.062-0.071-0.11-0.146-0.144-0.226C313.439 268.567 313.87 267.512 315.075 265.725zM150.833 273.498c1.2-0.444 2.469-0.767 3.038-0.789 -0.147 0.204-0.47 0.568-1.177 1.169 -0.759 0.564-2.038 1.183-2.463 0.878 -0.063-0.045-0.248-0.232-0.25-0.873C150.327 273.734 150.619 273.6 150.833 273.498zM35.796 243.675c-0.388 0.384-0.856 0.559-1.393 0.522 -1.964-0.135-4.079 2.634-4.361 3.032 -0.059 0.123-5.98 12.338-11.716 14.37 -1.752 0.62-2.083 0.343-2.085 0.342 -0.006-0.01-0.025-0.077 0.006-0.226 0.259-1.26 2.95-4.191 5.142-5.6 1.782-1.146 8.551-12.076 14.989-22.925 -0.032 2.258 0.043 4.823 0.226 7.673l0.015 0.237C36.684 242.138 36.376 243.1 35.796 243.675zM37.578 229.189c0.325-3.455 0.968-5.085 1.46-5.847 0.559-0.867 1.541-1.228 2.703-1.274C40.408 224.364 39.003 226.768 37.578 229.189zM206.932 173.351c4.288-5.984 9.927-11.587 15.086-14.988 14.729-9.711 14.468-16.99 14.394-17.761 0.393-5.595 2.184-9.233 5.325-10.814 6.595-3.317 17.13 3.345 17.236 3.413 0.039 0.025 0.081 0.044 0.126 0.058 0.081 0.024 8.158 2.479 9.872 5.595 1.889 3.435 6.365 5.619 6.555 5.71 0.043 0.021 0.088 0.035 0.135 0.042 5.679 0.947 7.648 3.758 7.666 3.784 0.036 0.054 0.082 0.1 0.136 0.137 9.833 6.667 17.75 7.231 18.1 7.253 0.116 0.003 11.729 0.363 15.722 3.239 0.049 0.035 0.098 0.07 0.146 0.104 -3.703-0.483-8.858-0.719-10.571 1.337 -2.252 2.701-7.901 0.864-7.952 0.848 -0.199-0.069-4.904-1.672-7.102 0.094 -0.875 0.703-1.231 1.803-1.059 3.27 0.149 1.275-0.034 2.093-0.548 2.43 -1.669 1.093-7.112-2.061-10.038-3.754 -5.84-3.379-9.68 1.94-11.977 5.117 -0.366 0.507-0.697 0.965-0.996 1.333 -1.18 1.453-6.074 3.904-10.835 3.219 -4.121-0.594-7.199-3.262-9.149-7.93 -2.072-4.962-4.322-7.542-6.688-7.668 -2.633-0.142-4.309 2.827-4.339 2.892 -0.114 0.151-11.627 15.181-27.833 23.693 -1.251 0.657-2.351 1.125-3.278 1.407 -0.606-1.772-1.378-3.482-2.254-5.105C203.694 178.309 205.097 175.911 206.932 173.351zM202.319 181.521c0.677 1.327 1.279 2.707 1.772 4.129 -1.064 0.185-1.79 0.025-2.1-0.501C201.582 184.457 201.72 183.181 202.319 181.521zM247.943 221.63c-0.09 0.022-8.807 2.279-16.623-6.971 -0.159-0.229-3.977-5.639-10.02-8.661 -5.924-2.962-12.912-9.237-15.99-13.352 -0.431-0.577-0.883-1.257-1.361-1.977 -2.061-3.105-4.883-7.357-10.052-9.033 -4.463-1.448-7.016-4.939-9.068-7.745 -0.708-0.968-1.376-1.882-2.051-2.618 -1.69-1.843-3.548-2.6-8.513-4.625 -0.779-0.317-1.592-0.87-2.452-1.455 -1.92-1.306-4.202-2.857-7.486-2.857 -0.978 0-2.044 0.137-3.216 0.46 -2.556 0.703-4.211 2.01-4.918 3.887 -0.958 2.541 0.157 5.304 0.966 6.536 0.22 0.335 0.564 0.748 0.963 1.226 1.195 1.433 3.001 3.597 2.513 5.123 -0.266 0.83-1.225 1.467-2.852 1.893l-1.055 0.279c-6.861 1.823-18.345 4.874-23.226-3.058 -5.104-8.293-5.598-9.668-5.617-9.726 -0.035-0.107-0.884-2.641-3.767-3.748 -2.999-1.151-6.966-0.32-11.792 2.469 -0.667 0.386-1.654 1.123-2.903 2.056 -3.372 2.518-9.015 6.733-11.035 5.449 -0.919-0.583-1.081-2.468-0.469-5.451 0.107-0.522-0.128-0.818-0.277-0.947 -0.691-0.595-2.36-0.262-6.883 1.376 -1.457 0.528-2.855 0.38-3.781 0.282 -0.797-0.085-1.373-0.146-1.639 0.327 -0.276 0.491 0.07 1.083 1.004 2.31 1.029 1.35-0.262 2.883-1.124 3.677 -2.225 2.049-5.504 3.058-6.144 2.481 -0.154-0.139-0.315-0.293-0.481-0.453 -0.981-0.941-2.2-2.106-3.78-1.895 -1.318 0.183-2.573 1.316-3.847 3.481 -0.019 0.034-1.565 2.824-5.091 4.88 0.641-1.203 1.296-2.529 1.946-3.98 3.506-7.832 12.239-25.387 20.19-35.775 7.582-9.905 8.273-11.609 8.297-11.699 0.038-0.073 3.755-7.189 8.709-10.525 1.128 0.607 5.696 3.22 6.619 6.194 0.014 0.045 0.035 0.089 0.062 0.129 0.064 0.096 1.585 2.357 3.534 3.526 1.778 1.066 3.112 2.629 3.126 2.645 0.034 0.041 0.075 0.076 0.121 0.104 0.4 0.244 10.019 5.935 30.189 2.29 2.461-0.941 6.79-2.048 7.925-1.012 0.111 0.101 0.447 0.409 0.165 1.409 -1.421 5.041 1.924 10.079 2.05 10.264 0.193 0.329 4.856 8.092 15.084 10.112 9.862 1.948 15.833 7.084 15.907 7.148 0.091 0.074 7.303 5.986 11.908 14.293 -0.951 2.305-1.23 4.181-0.581 5.279 0.422 0.715 1.146 1.073 2.165 1.073 0.338 0 0.708-0.04 1.11-0.118 0.068 0.223 0.139 0.444 0.201 0.669 0.106 0.298 2.74 7.311 14.42 8.497 11.109 1.127 17.724 11.82 17.799 11.943 0.064 0.098 5.733 8.563 16.807 12.78C250.53 220.938 248.104 221.587 247.943 221.63zM285.705 210.777c-0.12 0.133-12.144 13.253-26.361 10.345 -0.029-0.006-0.059-0.012-0.087-0.018 0.102 0.002 0.203 0.004 0.304 0.008 5.497 0.157 13.806-3.391 16.745-7.194 1.343-1.737 3.558-3.633 5.698-5.466 2.38-2.037 4.627-3.96 5.82-5.727 9.166-13.567 14.949-14.777 14.983-14.784 2.877-0.372 6.831-2.468 11.202-5.45C299.086 197.327 285.996 210.484 285.705 210.777zM318.658 177.877c-6.252 4.828-12.16 8.581-15.999 9.076 -0.248 0.042-6.194 1.197-15.663 15.213 -1.118 1.654-3.315 3.535-5.642 5.526 -2.181 1.866-4.435 3.795-5.84 5.614 -2.73 3.533-10.769 6.977-15.923 6.806 -1.217-0.036-2.466 0.016-3.676 0.124 -12.025-3.78-18.188-12.962-18.245-13.049 -0.068-0.112-6.931-11.227-18.544-12.405 -11.014-1.118-13.556-7.772-13.568-7.803 -0.058-0.207-0.123-0.412-0.186-0.617 0.993-0.303 2.135-0.789 3.436-1.473 16.409-8.619 28.05-23.822 28.206-24.036 0.014-0.025 1.385-2.566 3.449-2.437 1.339 0.071 3.437 1.353 5.818 7.056 2.608 6.246 6.839 8.088 9.929 8.534 5.197 0.752 10.416-1.931 11.753-3.578 0.31-0.381 0.652-0.854 1.031-1.378 2.234-3.091 5.616-7.76 10.664-4.837 5.643 3.266 9.268 4.922 11.089 3.725 0.868-0.57 1.192-1.677 0.991-3.383 -0.131-1.116 0.096-1.893 0.692-2.373 1.465-1.179 4.936-0.349 6.153 0.072 0.258 0.085 6.354 2.07 9.042-1.154 1.892-2.27 10.394-1.009 13.51-0.332 0.149 0.032 0.292-0.004 0.404-0.087 2.109 0.19 3.677-0.562 4.045-0.761 4.656-0.943 6.096-0.222 6.483 0.553 0.362 0.721-0.067 3.237-3.899 7.994C325.035 171.559 321.831 174.729 318.658 177.877zM425.639 157.412c-1.07-1.083-2.438-1.633-4.063-1.633 -1.014 0-2.018-0.045-3.08-0.092 -7.177-0.318-15.309-0.684-24.021 14.679 -2.464 4.344-5.603 6.124-9.318 5.294 -5.783-1.291-11.047-8.578-11.29-11.753 -0.057-0.725 0.071-1.694 0.206-2.721 0.311-2.355 0.661-5.025-0.843-6.676 -0.86-0.943-2.185-1.406-3.993-1.406 -0.148 0-0.299 0.003-0.454 0.009 -0.061-0.005-6.081-0.51-8.946-2.261 -2.961-1.808-7.352-2.984-15.097 4.057 -0.914 0.831-2.096 1.932-3.484 3.227 -3.417 3.184-8.15 7.59-13.224 12.001 0.225-0.261 0.447-0.523 0.666-0.785 13.027-12.851 24.884-24.363 28.361-27.183 4.383-3.557 9.483-9.443 13.982-14.638 3.624-4.183 8.114-9.367 9.136-9.255 2.435 0.325 3.43 5.282 4.307 9.656 0.775 3.864 1.507 7.513 3.21 8.79 3.726 2.794 6.422 2.853 8.206 2.892 0.974 0.02 2-0.125 3.075-0.28 3.237-0.467 6.909-0.997 11.801 2.68 0.188 0.142 0.377 0.312 0.573 0.489 1.177 1.06 2.955 2.66 6.684 0.02 0.903-0.643 1.886 0.229 3.415 1.705 0.471 0.454 0.957 0.923 1.476 1.354 3.122 2.598 6.385 6.615 4.521 14.86C427.016 159.262 426.433 158.216 425.639 157.412zM455.211 273.698c-1.782 0.608-5.379-3.52-6.649-5.981 -7.04-13.639-22.396-69.443-21.154-84.229 0.036-0.43 0.143-0.853 0.256-1.302 0.333-1.328 0.748-2.98-0.279-6.064 -0.773-2.317-0.368-6.95 0.075-10.26 0.154 1.978 0.131 3.906 0.114 5.341 -0.014 1.144-0.024 2.047 0.049 2.564 0.099 0.692 0.361 1.317 0.725 2.183 0.673 1.603 1.69 4.024 2.654 9.213 1.361 7.334 6.858 22.169 12.174 36.515 5.452 14.715 11.09 29.932 12.408 37.356C457.782 271.412 456.055 273.413 455.211 273.698z"/><path class="st0" d="M292.925 550.912c0.237-0.093 0.367-0.351 0.3-0.597 -0.066-0.246-0.302-0.4-0.561-0.363 -0.068 0.011-0.639 0.105-1.403 0.361 -0.697 0.1-1.462 0.073-1.907-0.334 -0.53-0.484-0.508-1.453-0.323-2.371 0.105-0.373 0.175-0.684 0.201-0.809 0.056-0.263-0.106-0.522-0.367-0.589 -0.262-0.06-0.527 0.088-0.603 0.346 -0.079 0.273-0.146 0.535-0.198 0.787 -0.172 0.599-0.399 1.222-0.594 1.418 -0.568 0.576-1.246 0.852-1.78 0.982 -0.318 0.001-0.666 0.034-1.068 0.134 -0.241 0.061-0.401 0.288-0.376 0.535 0.024 0.248 0.228 0.438 0.476 0.45 0.037 0 0.47 0.017 1.064-0.112 0.556 0.046 0.773 0.319 0.863 0.432 0.449 0.563 0.497 1.582 0.414 2.462 -0.131 0.293-0.236 0.608-0.31 0.947 -0.152 0.712-0.244 1.143 0.149 1.353 0.071 0.038 0.152 0.057 0.232 0.057 0.141 0 0.282-0.056 0.38-0.157 0.167-0.173 0.415-0.963 0.524-1.916 0.741-1.474 2.375-2.264 3.526-2.654C292.304 551.15 292.874 550.931 292.925 550.912zM288.048 552.211c-0.062-0.496-0.191-0.967-0.415-1.354 -0.12-0.209-0.282-0.422-0.499-0.604 0.302-0.165 0.605-0.375 0.894-0.641 0.121 0.45 0.339 0.819 0.651 1.105 0.215 0.196 0.461 0.339 0.724 0.438C288.926 551.441 288.459 551.789 288.048 552.211z"/><path class="st0" d="M354.251 580.054c-0.517 0.173-0.965 0.396-1.355 0.659 -0.484 0.052-1.032 0.026-1.576-0.158 -0.408-0.138-0.73-0.462-0.984-0.856 -0.089-1.339-0.89-2.479-0.936-2.544 -0.139-0.193-0.395-0.262-0.613-0.164 -0.218 0.099-0.335 0.337-0.28 0.569l0.026 0.118c0.103 0.453 0.323 1.431 0.811 2.3 -0.006 0.285-0.061 0.571-0.19 0.843 -0.226 0.471-0.664 0.86-1.301 1.16 -1.749 0.034-3.438 0.707-3.548 0.752 -0.227 0.092-0.354 0.336-0.299 0.574 0.055 0.239 0.285 0.417 0.518 0.39 1.447-0.088 2.631-0.323 3.545-0.711 0.744 0.01 1.445 0.173 1.934 0.592 0.257 0.22 0.45 0.52 0.579 0.874 -0.378 1.822-0.085 3.504-0.079 3.536 0.043 0.231 0.243 0.457 0.479 0.457 0.005 0 0.009 0 0.013 0 0.231 0 0.433-0.207 0.486-0.433 0.35-1.469 0.389-2.729 0.122-3.673 0.249-0.979 0.743-1.971 1.68-2.673 1.001-0.155 1.803-0.558 2.022-0.856 0.129-0.176 0.144-0.477 0.016-0.652C355.049 579.788 354.55 579.956 354.251 580.054zM350.973 583.13c-0.098-0.115-0.205-0.224-0.32-0.322 -0.369-0.317-0.802-0.525-1.266-0.654 0.286-0.268 0.51-0.57 0.67-0.905 0.037-0.078 0.07-0.157 0.1-0.236 0.244 0.212 0.523 0.383 0.843 0.49 0.271 0.092 0.548 0.153 0.822 0.188C351.457 582.136 351.18 582.626 350.973 583.13z"/><path class="st0" d="M222.596 583.956c-0.534-0.112-1.022-0.147-1.463-0.107 -0.517-0.113-1.114-0.336-1.648-0.768 -0.451-0.365-0.805-0.839-1.058-1.418 -0.096-1.101-0.457-1.88-0.482-1.932 -0.104-0.221-0.351-0.335-0.585-0.268 -0.234 0.064-0.388 0.289-0.364 0.531 0.071 0.706 0.22 1.343 0.445 1.907 0.032 0.549-0.021 1.182-0.256 1.826 -0.452 1.234-1.48 2.234-3.056 2.971 -0.045 0.021-0.08 0.038-0.101 0.049 -0.248 0.118-0.354 0.417-0.238 0.666 0.115 0.247 0.408 0.364 0.66 0.252 0.035-0.016 0.07-0.017 0.104-0.032 0.733-0.327 2.519-0.884 3.396-0.264 0.168 0.119 0.3 0.348 0.395 0.559 -0.005 0.934 0.144 1.805 0.159 1.868 0.198 0.836 0.968 0.378 0.986-0.048 0.031-0.743 0.03-1.617-0.143-2.127 0.027-0.843 0.208-1.749 0.739-2.279 0.259-0.259 0.598-0.419 1.014-0.48 0.798 0.148 1.401 0.085 1.448 0.081 0.244-0.027 0.432-0.228 0.444-0.473S222.836 584.007 222.596 583.956zM219.38 584.737c-0.492 0.49-0.763 1.251-0.903 1.926 -0.467-0.311-1.026-0.217-1.589-0.217 -0.01 0-0.02 0-0.029 0 0.575-1 0.998-1.434 1.264-2.163 0.088-0.241 0.155-0.678 0.205-0.914 0.162 0.182 0.337 0.361 0.527 0.515 0.264 0.213 0.538 0.411 0.813 0.551C219.567 584.512 219.471 584.646 219.38 584.737z"/><path class="st0" d="M185.578 566.638c-0.375-0.645-0.658-1.383-0.692-2.171 -0.02-0.477 0.053-0.944 0.219-1.403 1.163-0.819 1.743-2.362 1.773-2.445 0.079-0.216 0.002-0.457-0.187-0.586 -0.188-0.129-0.442-0.114-0.614 0.039 -0.827 0.731-1.422 1.507-1.782 2.318 -0.156 0.08-0.322 0.137-0.497 0.162 -0.474 0.064-0.994-0.114-1.545-0.531 -0.605-1.018-1.513-1.623-1.57-1.66 -0.203-0.134-0.47-0.101-0.637 0.074 -0.167 0.175-0.184 0.444-0.04 0.64 0.492 0.67 0.982 1.206 1.47 1.606 0.186 0.352 0.314 0.753 0.313 1.19 -0.001 0.623-0.259 1.25-0.771 1.876 -1.273 0.58-1.993 1.702-2.032 1.765 -0.125 0.199-0.095 0.459 0.073 0.624 0.167 0.164 0.428 0.188 0.625 0.061 0.797-0.523 1.442-1.063 1.934-1.615 0.269-0.101 0.563-0.166 0.882-0.174 0.765-0.008 1.515 0.279 2.301 0.885 0.925 1.516 2.229 2.494 2.311 2.556 0.089 0.065 0.193 0.098 0.297 0.098 0.126 0 0.252-0.048 0.348-0.142 0.176-0.17 0.202-0.442 0.062-0.644C187.078 568.093 186.33 567.252 185.578 566.638zM182.561 565.407c-0.048 0.001-0.094-0.011-0.142-0.009 0.246-0.506 0.37-1.034 0.369-1.556 0-0.15-0.01-0.322-0.03-0.465 0.397 0.133 0.79 0.069 1.179 0.069 0.003 0 0.005 0 0.008 0 -0.054 0-0.074 0.692-0.059 1.021 0.019 0.42 0.092 0.872 0.205 1.258C183.582 565.513 183.071 565.407 182.561 565.407z"/><path class="st0" d="M234.005 555.838c-0.472 0.255-0.824 0.553-1.055 0.891 -0.044 0.011-0.088 0.016-0.133 0.017 -0.152-0.002-0.296-0.059-0.433-0.152 -0.296-0.486-0.696-0.782-0.724-0.802 -0.195-0.144-0.463-0.125-0.638 0.041 -0.175 0.166-0.207 0.434-0.076 0.636 0.209 0.321 0.429 0.583 0.659 0.784 0.061 0.132 0.1 0.274 0.097 0.42 -0.004 0.167-0.062 0.336-0.173 0.505 -0.454 0.322-0.78 0.709-0.843 0.785 -0.156 0.192-0.148 0.47 0.019 0.653 0.098 0.107 0.232 0.163 0.369 0.163 0.097 0 0.194-0.028 0.279-0.085 0.367-0.247 0.661-0.509 0.879-0.783 0.21-0.132 0.417-0.212 0.574-0.188 0.026 0.004 0.052 0.012 0.076 0.023 0.212 0.423 0.484 0.699 0.505 0.72 0.167 0.167 0.43 0.194 0.626 0.065 0.198-0.129 0.279-0.379 0.194-0.599 -0.146-0.378-0.326-0.641-0.514-0.822 -0.052-0.148-0.08-0.31-0.057-0.47 0.006-0.044 0.017-0.087 0.03-0.129 0.586-0.325 0.945-0.885 0.999-0.971 0.118-0.192 0.093-0.441-0.062-0.605C234.451 555.77 234.205 555.733 234.005 555.838z"/><path class="st0" d="M293.019 594.831c-0.14 0.07-0.269 0.149-0.385 0.238 -0.136 0.057-0.315 0.1-0.524 0.071 -0.452-0.062-0.924-0.455-1.364-1.135 -0.146-0.224-0.443-0.294-0.676-0.156 -0.231 0.138-0.312 0.435-0.182 0.67 0.043 0.079 1.038 1.938-0.156 3.392 -0.02 0.022-0.034 0.04-0.044 0.051 -0.173 0.212-0.144 0.524 0.066 0.7 0.094 0.078 0.208 0.116 0.321 0.116 0.141 0 0.281-0.06 0.38-0.175 0.016-0.018 0.03-0.036 0.046-0.054 0.331-0.385 0.953-0.882 1.307-0.827 0.126 0.021 0.231 0.126 0.315 0.259 0.086 0.205 0.164 0.344 0.188 0.383 0.13 0.226 0.416 0.313 0.648 0.198 0.234-0.112 0.344-0.387 0.25-0.63 -0.056-0.144-0.116-0.271-0.18-0.382 -0.122-0.307-0.26-0.787-0.138-1.198 0.05-0.166 0.14-0.307 0.273-0.427 0.238-0.121 0.386-0.252 0.417-0.28 0.183-0.17 0.213-0.447 0.071-0.651C293.51 594.788 293.238 594.72 293.019 594.831zM291.845 596.722c-0.189-0.012-0.381 0.016-0.564 0.071 0.043-0.302 0.046-0.596 0.024-0.872 0.199 0.1 0.403 0.167 0.613 0.201C291.865 596.324 291.843 596.526 291.845 596.722z"/><path class="st0" d="M133.752 585.92c-0.086 0.023-2.114 0.605-3.28-0.869 -0.019-0.024-0.033-0.043-0.042-0.054 -0.17-0.214-0.482-0.252-0.698-0.083 -0.216 0.168-0.257 0.479-0.091 0.696 0.017 0.022 0.033 0.044 0.05 0.065 0.304 0.402 0.659 1.099 0.525 1.442 -0.046 0.119-0.173 0.2-0.32 0.255 -0.218 0.041-0.37 0.088-0.413 0.102 -0.248 0.081-0.392 0.339-0.332 0.592 0.061 0.255 0.305 0.414 0.564 0.378 0.151-0.023 0.288-0.056 0.41-0.095 0.325-0.055 0.824-0.089 1.201 0.119 0.151 0.083 0.27 0.201 0.359 0.356 0.068 0.26 0.165 0.431 0.186 0.468 0.093 0.156 0.258 0.245 0.431 0.245 0.064 0 0.129-0.013 0.191-0.038 0.23-0.095 0.355-0.345 0.293-0.586 -0.039-0.15-0.089-0.292-0.15-0.424 -0.026-0.144-0.031-0.327 0.037-0.52 0.152-0.433 0.636-0.815 1.401-1.104 0.251-0.096 0.382-0.372 0.296-0.627S134.007 585.839 133.752 585.92zM131.757 587.565c-0.185-0.095-0.378-0.158-0.57-0.198 0.053-0.185 0.066-0.376 0.05-0.565 0.286 0.105 0.572 0.171 0.846 0.208C131.944 587.183 131.835 587.369 131.757 587.565z"/><path class="st0" d="M314.783 559.469c-4.793-0.66-9.024 0.879-11.036 4.023 -2.073 3.242-1.482 7.727 1.66 12.627 0.232 0.363 0.669 0.538 1.096 0.43 0.418-0.109 0.718-0.474 0.745-0.906 0.013-0.196 0.341-4.811 3.972-4.811 0.077 0 0.156 0.002 0.232 0.005 2.802 0.141 4.541 1.395 5.172 3.728 0.739 2.734-0.391 5.799-1.514 6.531 -4.254 2.772-6.968 0.331-7.083 0.224 -0.369-0.337-0.938-0.348-1.327-0.023 -0.384 0.33-0.463 0.895-0.184 1.313 0.156 0.234 3.875 5.753 9.057 6.184 0.436 0.036 0.865 0.055 1.291 0.055 4.05 0 7.564-1.59 9.898-4.477 2.686-3.323 3.395-7.969 1.945-12.746C326.318 563.749 319.948 560.181 314.783 559.469zM325.985 583.743c-2.369 2.93-6.098 4.406-10.329 4.055 -4.704-0.392-8.161-5.522-8.308-5.742 0.138 0.127 3.404 3.075 8.309-0.121 1.57-1.024 2.757-4.581 1.932-7.631 -0.52-1.924-1.997-4.26-6.089-4.464 -0.095-0.005-0.188-0.007-0.28-0.007 -4.56 0-4.955 5.514-4.97 5.749 -2.921-4.555-3.511-8.656-1.661-11.55 1.799-2.812 5.654-4.179 10.058-3.572 4.858 0.67 10.852 4.032 13.104 11.457C329.102 576.371 328.458 580.682 325.985 583.743z"/></svg>