<svg xmlns="http://www.w3.org/2000/svg" viewBox="-7 117.276 464.659 567.724">
  <style>
    .st0{fill:#FFFFFF;}
  </style>
  <path class="st0" d="M456.568 258.858c-1.333-7.513-6.987-22.772-12.455-37.529-5.301-14.306-10.782-29.099-12.129-36.35-.983-5.294-2.025-7.776-2.715-9.417-.334-.797-.576-1.372-.656-1.937-.063-.44-.053-1.31-.039-2.411.028-2.416.069-5.813-.576-8.81.037-.204.059-.317.06-.324 2.761-9.829-1.243-14.563-4.495-17.27-.49-.408-.963-.864-1.421-1.306-1.506-1.453-3.062-2.952-4.688-1.802-3.075 2.179-4.274 1.099-5.436.054-.221-.198-.432-.387-.642-.546-5.225-3.927-9.282-3.342-12.546-2.87-1.032.149-2.015.299-2.91.27-1.755-.038-4.159-.09-7.628-2.691-1.397-1.048-2.125-4.677-2.829-8.187-.989-4.932-2.013-10.031-5.154-10.45-1.476-.189-4.447 3.154-10.023 9.592-4.474 5.163-9.543 11.014-13.858 14.516-3.129 2.539-12.983 12.054-24.381 23.259 1.027-1.85 1.484-3.494.917-4.624-.808-1.611-3.31-1.959-7.654-1.069-.053.011-.105.031-.152.059-.141.081-3.455 1.954-7.289-.808-4.241-3.055-15.788-3.413-16.261-3.426-.078-.005-7.935-.564-17.51-7.032-.391-.524-2.607-3.165-8.198-4.117-.534-.27-4.431-2.313-6.051-5.26-1.843-3.348-9.535-5.787-10.395-6.05-.972-.612-11.249-6.903-18.165-3.427-3.488 1.754-5.466 5.686-5.878 11.685-.002.034-.001.068.004.102.01.07.787 7.134-13.947 16.849-7.74 5.103-15.994 14.887-19.248 21.717-4.712-8.139-11.693-13.862-11.772-13.926-.249-.218-6.217-5.361-16.357-7.364-9.772-1.93-14.371-9.561-14.432-9.664-.033-.048-3.23-4.861-1.933-9.459.298-1.058.146-1.872-.454-2.419-1.959-1.791-8.247.544-8.866.791-18.841 3.393-28.479-1.667-29.339-2.149-.29-.33-1.589-1.751-3.315-2.788-1.595-.957-2.938-2.823-3.178-3.168-1.229-3.75-7.104-6.725-7.355-6.85-.159-.079-.346-.069-.494.027-5.301 3.408-9.138 10.755-9.324 11.123-.027.068-.748 1.787-8.178 11.494-8.007 10.461-16.786 28.106-20.31 35.975-.876 1.958-1.77 3.691-2.621 5.195-.335.146-.685.285-1.048.413-.26.092-.397.377-.305.638.082.23.317.362.547.328-2.339 3.875-4.184 5.865-4.179 5.865-6.849 5.479-6.949 7.363-7.055 9.357-.021.398-.041.774-.123 1.185-.471 2.354-3.498 6.251-3.57 6.352-1.573 2.775-3.763 6.601-6.232 10.861-1.683-.068-3.236.357-4.128 1.739-.974 1.51-1.563 4.329-1.756 8.316-6.883 11.639-13.941 23.097-15.594 24.159-1.719 1.105-4.896 4.063-5.503 6.016-.958.72-8.262 5.992-15.55 5.241-2.761-.284-4.717.255-5.823 1.603-1.607 1.958-.744 4.837-.707 4.958.056.183 1.44 4.467 8.19 3.852 6.279-.569 17.263 1.227 17.415 1.25.86.068 21.131 1.639 27.729-1.619.05-.021 5.044-2.049 9.07-2.129 3.505-.07 11.312-5.235 13.924-9.21.901-1.371 1.163-2.541.779-3.479-1.359-3.322-.99-9.489 5.523-12.834.025-.008 2.526-.849 1.665-4.104-.494-1.868 6.572-11.216 11.213-16.762 1.125-.313 7.264-2.386 9.783-10.885 2.523-8.518 9.81-8.579 10.098-8.559 1.088.013 2.804.345 3.032 1.017.09.266.067 1.066-2.085 2.757-5.97 4.69-5.704 10.51-5.684 10.808.004.025.329 2.563-4.155 6.196-3.135 2.541-6.265 6.957-6.187 11.094.043 2.286 1.036 4.174 2.952 5.611 1.039.779 2.349 1.633 3.736 2.537 6.156 4.012 14.587 9.507 11.929 16.638-.067.178-.026.379.104.517.13.139.327.191.51.136 1.68-.511 16.419-5.104 16.585-9.142.044-1.072-.812-1.964-2.547-2.651-.085-.034-.179-.045-.269-.028-2.263.392-4.536.491-5.072.234.085-.137.365-.467 1.264-1.058 1.27-.833 2.668-1.641 3.902-2.354 3.206-1.854 4.208-2.479 3.936-3.261-.204-.584-.881-.78-4.184-.297-4.146.605-5.766.666-6.343.568.199-.21.669-.604 1.772-1.321.718-.468 1.629-.999 2.594-1.562 3.805-2.219 5.322-3.219 5-4.19-.239-.718-1.28-.875-3.84-.581l-2.007.234c-2.109.248-4.128.485-5.152.5.496-.314 1.449-.836 3.264-1.703 1.374-.656 2.71-1.253 3.92-1.793 4.323-1.932 5.808-2.652 5.624-3.669-.143-.789-1.271-1.135-4.312-1.321-1.813-.111-6.472-.396-7.383-.89.162-.15.604-.458 1.803-.987l.889-.389c6.114-2.667 8.98-4.171 8.736-5.51-.163-.893-1.465-1.079-2.718-1.142-2.656-.136-5.271.276-6.981.57.511-.288 1.048-.581 1.445-.798 5.581-3.05 7.162-4.094 6.888-5.135-.199-.755-1.261-1.012-4.051-.97-.358.005-.633 0-.848-.012 1.034-.474 3.126-1.161 4.977-1.67 1.401-.355 2.952-.707 4.146-.937-.479.209-1.087.464-1.861.774-.253.153-1.505.969-1.302 1.98.157.779 1.053 1.264 2.821 1.526 3.602.534 3.858 1.136 3.873 1.251.011.084-.015.871-4.248 2.674-.52.354-1.694 1.275-1.394 2.161.228.673 1.114.933 2.87.834l.44-.024c1.413-.079 3.146-.175 3.647.007-.152.261-.809.979-3.554 2.766-2.755 1.792-3.839 3.207-3.314 4.322.577 1.227 2.822 1.25 3.652.991 1.402-.438 5.811-1.121 6.308-.641-.005.069-.143.736-3.465 2.736-5.388 3.242-5.658 3.986-5.45 4.623.256.786 1.463.676 3.29.513.596-.054 1.212-.11 1.763-.124l.34-.009c1.008-.027 3.102-.084 3.31.266.005.025.104.628-2.877 2.842-.946.703-1.761 1.292-2.441 1.784-2.377 1.718-2.942 2.126-2.717 2.747.22.605.887.559 3.369.384l1.199-.088c.921-.069 1.94-.148 2.477-.116-.591.557-2.299 1.679-5.094 3.344-3.919 2.336-4.521 3.197-4.237 3.895.261.641 1.363.731 3.322.258.209-.072.427-.138.632-.192-.644.497-1.891 1.348-4.301 2.79-1.315.787-3.019 1.99-2.627 3.341.824 2.848 11.822 2.724 14.032 2.671.025.003 2.313-.092 3.043 1.188.55.964.109 2.591-1.276 4.706-.791 1.208-1.742 2.927-.881 3.915.975 1.119 3.784.319 5.804-.465.064.596.282 1.018.652 1.282 1.191.851 3.243-.593 3.667-.91 1.467-1.246 1.909-1.954 1.575-2.525-.143-.246-.582-.992-4.446.441-.109.052-.22.103-.331.154.084-.421.215-.929.408-1.539.669-.801 4.222-5.227 3.011-7.464-.438-.808-1.383-1.202-2.827-1.192.622-.968 1.368-2.554.797-3.982-.498-1.247-1.869-2.066-4.081-2.443 1.59-1.181 4.119-3.346 3.722-4.93-.315-1.261-2.102-1.427-2.689-1.482-1.721-.161-1.856-.587-1.866-.636-.14-.686 2.028-2.368 4.141-3.51.193-.104.296-.323.252-.539-.044-.215-.223-.377-.442-.398-.016-.001-1.584-.182-2.076-1.255-.423-.923.016-2.349 1.319-4.212.197-.447 1.134-2.733.258-3.817-.262-.324-.79-.667-1.816-.457-.154.032-.267.044-.347.048.364-.772 2.599-2.83 4.991-3.938 1.888-.875 2.919-2.913 2.398-4.739-.39-1.364-1.756-2.708-4.419-2.377-1.819.224-2.115-.109-2.119-.11-.049-.298 1.037-1.422 2.681-2.005 1.367-.485 2.074-1.223 1.892-1.974-.223-.915-1.642-1.286-3.793-.993-.26.036-.479.058-.662.072.925-.416 2.79-1.051 6.156-1.754 5.646-1.178 10.399-.429 10.665.236-.001.005-.125.546-2.665 1.383-1.722.568-5.755 2.043-6.029 3.485-.056.297.043.578.273.769.795.662 2.906-.016 4.094-.479 2.096-.818 3.534-.527 3.989-.135.181.156.176.296.152.4-.146.633-1.465 1.677-4.701 2.535-2.54.674-3.548 1.279-3.479 2.087.105 1.218 3.265 1.748 5.906 1.979.828.057 2.604.423 2.81 1.189.091.341-.023 1.353-3.055 3.397-2.536 1.709-3.607 3.122-3.275 4.317.492 1.77 3.893 1.994 4.273 2.013.763.048 1.67.327 1.741.628.018.074.087.772-2.794 2.44-1.943 1.125-2.601 1.831-2.346 2.519.319.858 2.362.938 6.098.232.866-.216 2.299-.312 2.635.17.125.18.289.782-.881 2.478-.111.161-.118.373-.017.541s.288.266.485.239l9.407-1.075c-2.874 1.879-2.623 2.49-2.504 2.777.244.593.954.76 4.022-.054 1.655-.517 6.104-1.415 6.795.601.423 1.232 1.305 1.249 1.667 1.199 1.745-.244 4.229-3.724 4.306-5.167.048-.921-1.216-1.413-2.816-2.035-.769-.299-2.2-.855-2.31-1.146.007-.02.196-.483 2.761-1.197 2.609-.726 3.761-1.491 3.734-2.479-.042-1.588-3.59-2.5-4.652-2.735-1.233-.342-2.441-.849-2.806-1.164.207-.105.752-.294 2.142-.441 1.854-.195 4.841-.764 8.004-1.367 3.625-.691 8.422-1.61 10.043-1.569-.377.269-1.151.732-2.732 1.488-4.286 2.049-5.002 2.992-4.76 3.778.395 1.28 4.188.979 7.298.501 3.655-.535 7.176-.447 7.388.186.012.037.244.937-4.952 3.798-4.187 2.306-5.875 3.946-5.47 5.319.629 2.141 6.47 1.907 8.293 1.779 3.104-.518 8.366-.716 9.28.954.454.828-.175 2.229-1.84 4.078-.169.218-1.631 2.166-.748 3.529.811 1.251 3.213 1.364 7.345.347 6.91-1.699 10.67-1.033 10.929-.521-.002.008-.241.766-3.843 1.719-2.228.59-7.366 2.127-6.963 3.661.101.387.411 1.564 7.8-.36 6.588-1.717 12.535-.287 13.752 2.07.637 1.235-.301 2.393-1.199 3.146-.043.037-.08.08-.109.129-.056.094-1.351 2.329-.358 4.436.748 1.587 2.558 2.617 5.378 3.062 2.361.373 5.93.937 6.022 1.47.077.441-1.779 1.708-5.519 3.765-2.896 1.592-3.303 2.179-3.062 2.761.158.381.485 1.174 7.659-.918 1.14-.249 2.479-.448 3.198-.454-.562.423-2.026 1.297-5.844 3.01-4.97 2.23-5.825 3.258-5.581 4.116.369 1.298 4.07 1.135 7.298.73-.01.038-.024.081-.046.126-.309.678-2.012 2.45-11.146 4.243-6.502 1.277-6.984 1.947-6.928 2.631.027.332.101 1.214 5.283 1.359.437-.017 1.756.123 2.104.798.267.518-.027 1.378-.849 2.488-.342.463-1.385 1.871-.715 2.825.848 1.208 3.73.459 4.61.196.527-.179 2.176-.551 2.807.066.462.452.285 1.415.057 2.143-.322 1.023-.006 1.544.316 1.8 1.786 1.425 9.011-2.609 11.276-3.937 3.605-1.038 7.054-1.404 7.394-.779.014.025.299.627-2.256 2.856-.196.172-.228.467-.071.676.157.21.45.262.669.123 1.031-.656 10.055-6.512 9.209-10.051-.308-1.288-1.702-2.035-4.262-2.285-1.821-.178-2.793-.352-3.309-.481 1.194-.36 3.96-.78 6.382-1.022 3.797-.294 3.807-.928 3.812-1.269.01-.554.019-1.127-7.629-1.977-4.641-.516-5.05-1.163-5.079-1.201.154-.601 3.484-1.799 7.207-2.587 1.132-.447 3-1.354 2.806-2.404-.167-.899-1.587-1.279-4.901-1.311-2.808-.027-3-.553-3.001-.559-.116-.533 2.128-2.116 4.675-3.308.857-.329 2.834-1.217 2.682-2.368-.12-.899-1.334-1.401-4.06-1.68-2.97-.304-3.352-.915-3.398-1.094-.177-.687 1.822-2.075 2.783-2.743.218-.151.424-.294.606-.426.218-.157.452-.317.692-.481 1.433-.981 3.056-2.093 3.069-3.614.009-.939-.596-1.829-1.847-2.719-.848-.602-1.273-1.26-1.265-1.955.018-1.556 2.066-2.958 2.121-2.998.226-.182 5.521-4.496 4.524-8.672-.149-.627-.081-.862-.098-.892.135.008.618.247 1.147 1.007.378.543 1.529 2.487.454 4.699-.075.155-.065.337.026.483s.252.235.424.235c1.188 0 2.922.316 3.092.911.068.24.014 1.194-3.563 3.415-.199.124-.286.37-.208.591s.303.36.533.33c1.446-.18 3.915-.107 4.387.851.211.429.203 1.514-2.186 3.936-1.535 1.279-2.14 2.242-1.797 2.859.345.621 1.286.597 3.356-.083.62-.204.988-.278 1.2-.303-.48.754-2.4 2.487-4.174 3.857-.387.318-1.616 1.428-1.172 2.369.428.906 2.047 1.008 5.42.342 3.106-.615 4.072-.466 4.341-.378-.268.423-1.676 1.494-4.467 2.677-1.701.721-3.642 1.81-3.226 2.904.564 1.491 4.675.285 6.415-.303 5.173-1.747 11.861-3.039 12.878-2.505-.107.215-.665.934-3.539 2.599-7.217 4.182-7.387 6.698-6.846 7.826.588 1.227 2.287 1.467 3.527.99.827-.321 1.463-.368 1.738-.324-.197.292-1.013 1.155-4.303 2.741-4.319 2.081-4.618 3.092-4.396 3.741.366 1.067 2.765 1.134 7.134.198 1.387-.296 1.647-.08 1.652-.08.23.685-2.839 3.894-6.568 6.867-.182.145-.239.394-.141.604.098.209.321.325.554.277l8.134-1.694c-1.483 1.403-2.065 2.407-1.731 2.99.365.642 1.37.577 3.584-.232 6.177-2.26 7.636-1.282 7.642-1.283.15.15.379.187.572.093.191-.094.303-.302.276-.514-.009-.072-.184-1.783 2.754-2.273 2.188-.365 3.258-.921 3.183-1.655-.063-.624-.735-1.175-5.201-1.004-4.122.156-4.831-.4-4.894-.4h-.001c.032-.067.361-.611 2.827-1.461 4.525-1.561 5.37-2.371 5.523-2.646.093-.166.083-.369-.023-.525-.107-.156-.289-.242-.481-.213-1.882.258-3.749.107-3.914-.319-.012-.028-.233-.713 2.851-2.859.165-.115.245-.316.204-.512-.04-.196-.194-.349-.391-.389-.446-.09-.937-.264-1.161-.402.185-.13.677-.388 1.936-.708 1.744-.443 2.647-1.089 2.764-1.97.176-1.336-1.681-2.42-1.893-2.539-.053-.03-.11-.056-.17-.066-2.181-.325-4.243-.869-4.859-1.244.202-.103.637-.296 1.552-.481 3.208-.65 4.087-2.644 3.841-4.24-.323-2.087-2.604-4.222-5.494-3.918-.259.028-.452-.191-.595-.191h-.002c.731 0 2.911-1.716 4.852-2.687.04-.018.364.067.812-.183.721.412 1.76.688 3.063.944 1.204.236 2.627.297 3.883.35 1.208.052 2.862.122 3.09.309-.015.087-.21.595-2.644 2.091-2.153 1.323-2.948 2.242-2.655 3.073.468 1.329 3.872 1.102 5.846.851.722-.067 2.393-.001 2.647.651.139.355.155 1.847-5.463 6.12-.188.143-.25.397-.149.611.099.213.33.328.565.274 3.912-.912 8.479-1.272 9.03-.265.088.161.234.822-1.576 2.587-2.647 2.582-3.612 4.34-3.038 5.531.659 1.364 3.014 1.106 3.229 1.077 1.375-.018 3.17.121 4.475.469-1.021 1.656-1.64 3.284-1.484 4.073.067.34.274.587.568.678.565.177 1.298-.233 2.449-1.363 1.062-1.041 1.428-1.982 1.087-2.798-.188-.449-.582-.801-1.096-1.076.606-.845 1.33-1.674 2.145-2.348 3.431-2.834 6.775.337 6.916.473.038.037.082.068.13.092.152.074 3.779 1.814 6.37.722 1.039-.437 1.764-1.254 2.156-2.43.062-.188.008-.394-.138-.527-.37-.339-.861-1.013-.739-1.381.104-.318.742-.568 1.704-.669.693-.072 1.631-.256 1.761-1.015.204-1.198-2.375-2.614-3.915-3.343-.014-.007-1.357-.721-1.616-2.118-.201-1.092.307-2.333 1.51-3.69 1.435-1.618 1.912-2.818 1.46-3.668-.63-1.185-2.744-.941-2.917-.913-.672 0-1.438-.166-1.539-.309.001-.032.082-.799 4.337-2.823.22-.104.332-.352.267-.586-.065-.234-.295-.386-.531-.363-1.61.162-3.497.21-4.277.067.438-.299 1.622-.917 4.822-2.013 3.497-1.198 5.173-2.512 5.125-4.016-.091-2.808-6.582-4.655-7.342-4.861-.604-.138-1.22-.335-1.603-.503.497-.133 1.597-.316 4.014-.427 3.913-.18 4.685-.58 4.74-1.255.026-.32.087-1.07-3.782-1.889-.628-.193-1.362-.628-1.369-.899 0-.022.012-.551 2.142-1.319 1.65-.595 2.764-1.555 3.309-2.853.9-2.144-.109-4.398-.139-4.458-.177-.477-.361-1.483-.011-1.761.211-.165 1.188-.509 4.977 2.018 3.145 2.096 3 2.754 2.997 2.76-.117.302-1.732.442-3.56.163-.048-.007-.097-.007-.145-.001-.88.121-1.938.418-1.979 1.148-.041.723.842 1.22 3.257 1.833 2.664.676 3.01 1.429 3.035 1.721.051.586-.852 1.64-3.533 2.838-.737.33-1.704.865-1.589 1.703.167 1.22 2.832 1.746 3.972 1.916 1.224.176 4.475 1.008 4.825 2.708.221 1.064-.587 2.991-5.682 6.12-.194.119-.283.354-.217.572.066.217.278.37.499.354 2.464-.1 5.264.256 5.488.946.02.059.131.61-1.786 1.888-1.108.739-2.538 1.846-2.157 2.917.561 1.573 4.84 1.337 6.672 1.16.699-.1 1.457-.004 1.563.197.002.003.173.367-.919 1.552-.041.045-.073.097-.096.153-.138.344-.248 1.113.216 1.81.619.932 2.018 1.423 4.155 1.459 2.299.039 2.462.482 2.463.486.04.129-.04.698-2.742 2.605-.663.468-1.209.951-1.736 1.419-1.732 1.537-3.223 2.86-8.129 2.739-3.619-.09-10.212.64-10.384 2.424-.082.853.951 1.397 3.454 1.819 1.196.202 1.913.361 2.344.479-.255.08-.544.16-.791.229-1.137.318-2.426.679-3 1.289-.322.343-.997.701-1.54.988-.872.463-1.448.768-1.296 1.337.146.542.453.797 5.719.601 3.423-.125 6.11-.208 6.698-.029-.002.021-.005.042-.007.064-.021.201-.05.504.062.864.356 1.142 4.36 1.343 11.899.599.165-.016.312-.113.391-.258.035-.064 3.532-6.402 9.032-9.508.744.344 2.926 1.14 4.724-.346 1.406-1.163 4.787-.624 5.973-.318.176.045.362-.01.487-.141.125-.132.169-.321.114-.495-.008-.024-.771-2.496.42-4.163.726-1.017 2.055-1.556 3.949-1.602 1.175-.029 2.766-.19 3.031-1.26.426-1.714-3.63-4.14-4.909-4.856-1.143-.554-2.26-1.298-2.527-1.667.136-.049.438-.121 1.069-.133 1.043-.021 2.438-.157 2.507-1.099.094-1.284-2.889-2.387-4.935-2.728-3.093-.516-11.17-7.053-11.415-13.575.001-.053.165-5.14 1.033-7.057 2.134-.033 5.117-.875 8.416-3.129 1.493-1.021 2.093-1.981 1.832-2.936-.561-2.053-5.429-2.933-8.428-3.284 2.191-.831 5.748-2.019 7.859-1.862.521.04 1.012.075 1.107-.415.098-.496-.219-.598-1.395-.979-2.216-.719-3.398-1.253-3.521-1.527.007-.013.184-.32 1.709-.673 4.736-1.098 7.115-3.172 8.181-4.443.88.556 1.713.997 2.354 1.253 1.912.765 2.93 1.591 3.025 2.456.109.996-.94 2.258-3.122 3.751-3.049 2.086-3.971 2.87-3.797 3.711.166.804 1.279 1.06 3.233 1.442 2.135.417 5.356 2.292 5.853 4.725.365 1.791-.829 3.677-3.453 5.454-.178.121-.259.341-.201.548s.24.354.455.365c2.474.133 8.948 1.177 9.198 4.412.052.325.555 1.984 5.425 2.667.392.055.867.184.91.484.22 1.548-5.517 6.089-7.878 7.148-.24.107-.356.383-.265.63s.355.378.611.306c.672-.2 1.602-.254 1.749-.023.017.026.376.667-2.126 3.496-.032.043-.783 1.075-.372 2.126.309.79 1.153 1.321 2.513 1.58.407.077.546.163.555.166-.089.488-2.1 1.791-4.334 2.805-.219.099-.336.338-.28.571.055.233.26.389.507.384 1.458-.058 5.507.077 6.738 1.415.274.298.379.623.329 1.023-.136 1.084.28 1.642.653 1.918 1.391 1.029 4.427-.213 4.989-.458.352-.059 2.54-.345 3.229 1.22 1.077 2.444 6.365.572 7.015.329.523-.262 2.076-.838 2.969-.36.407.218.646.646.729 1.308.008.063.027.124.059.18.039.071.977 1.737 2.976 2.67.677.315 2.028 2.154 2.807 4.785.66 2.228 1.361 6.614-1.352 10.956-.269.429-.524.848-.775 1.257-2.847 4.656-4.904 8.02-16.319 12.543-13.383 5.303-34.09 8.53-56.013 11.946-9.347 1.457-19.011 2.963-28.558 4.693-9.705 1.759-18.209 2.482-25.711 3.119-4.752.404-9.24.785-13.191 1.377-2.626.394-5.491.831-8.445 1.282-12.617 1.927-26.917 4.109-31.242 4.209-2.358.054-4.492-.069-6.754-.195-7.148-.399-15.25-.861-33.457 4.193-.156.031-15.601 3.086-20.96 2.354-2.953-.399-17.343 1.532-32.579 3.613-12.964 1.771-26.366 3.539-30.546 3.539h-.12c-5.05 0-59.867 3.084-74.005 8.597-7.62 2.971-16.218 7.357-15.062 14.483.604 3.727 6.948 8.234 16.16 11.482 11.261 3.971 25.773 5.817 40.854 5.188 16.439-.681 35.13 2.12 47.501 3.973 6.397.958 11.019 1.648 13.01 1.526 6.543-.412 44.293 2.965 44.643 2.995.18.027 18.171 2.769 32.022 4.253 16.64 1.783 33.947 9.214 47.485 20.389 2.234 1.844 3.107 3.71 2.669 5.704-2.034 9.259-31.012 17.938-37.638 19.807-1.856-.15-3.744-.31-5.661-.477-5.025-.908-10.607-1.994-16.825-3.284-15.276-3.171-36.051-4.803-54.693-4.338-9.14-.664-39.841-2.19-45.346 6.755-1.229 1.996-1.151 4.364.226 7.052-.102 2.41 1.229 5.046 3.979 7.869 8.104 8.322 20.842 9.591 33.886 8.208 19.216 3.129 45.4 3.243 63.503 2.817 3.249-.203 6.162-.42 8.734-.65.038.039.083.072.135.098 13.552 6.818 12.18 28.727 9.688 68.497-1.125 17.966-2.526 40.325-2.838 66.551-.359 30.277.628 66.488 7.375 67.054.054.005.107.007.16.007 2.683 0 4.789-5.638 5.626-10.978 2.924-18.672 2.885-47.531 2.847-75.44-.035-25.284-.07-51.429 2.155-69.074 4.62-36.634 3.132-37.751-2.403-41.909l-.292-.22c-1.573-1.186-3.267-2.331-5.053-3.43 2.416-1.216 3.494-2.428 3.29-3.692-.734-4.553-20.415-6.592-22.657-6.81-.035-.003-.073-.003-.109.002-.044.006-1.377.168-3.704.384-10.242-3.013-20.309-4.225-27.214-2.752-1.602.342-3.386.772-5.288 1.253-2.978-.378-5.917-.766-8.769-1.161-26.556-3.69-28.648-5.846-28.657-6.418-.001-.047.079-1.166 8.51-2.314 16.253-2.213 68.969 4.422 76.36 5.5 9.458 1.377 83.167-2.814 100.191-7.01 1.028-.253 2.085-.507 3.161-.767 16.684-4.014 39.531-9.511 35.211-32.312-.523-2.765-.938-5.289-1.34-7.73-3.008-18.304-4.381-26.658-36.275-34.911-.194-.05-19.705-4.995-51.91-2.765-16.531 1.147-17.991-1.241-18.048-2-.163-2.238 7.709-6.067 13.37-6.502 2.966-.228 6.685-.955 10.622-1.725 8.948-1.75 19.091-3.732 23.277-.383 6.255 5.004 29.244-2.047 31.124-2.636 2.335.144 33.659 2.045 40.285.736 1.687-.333 14.179-5.797 13.712-9.65-.269-2.208-4.262-3.059-12.582-2.673-4.041.188-7.499 1.237-10.844 2.252-4.222 1.281-8.582 2.604-14.359 2.332-5.693-.276-116.718 2.555-119.863 16.637-.638 2.853 2.683 5.739 10.134 8.818.284.128 28.614 12.793 50.967 12.294.218-.005.437-.007.657-.007 9.878 0 24.137 4.766 35.517 11.385-11.853-3.438-28.479-4.975-42.151-5.877-26.08-1.722-40.794-8.756-40.94-8.827-14.95-7.226-49.583-9.716-77.411-11.715-14.451-1.038-26.932-1.938-34.258-3.29-3.104-.573-3.432-1.06-3.45-1.018 1.034-2.273 30.586-5.525 52.165-7.889 13.308-1.458 25.878-2.863 33.44-4.07 11.872-1.896 23.852-3.989 34.422-5.789 18.076-3.078 33.688-5.843 42.718-6.783 6.021-.627 11.587-1.618 16.187-3.618h.426c14.036 0 29.363.88 43.101 2.782 7.126.986 15.551-1.263 21.701-3.061 3.002-.878 5.599-1.638 6.535-1.478 1.486.25 2.874-.5 3.297-1.779.287-.868.669-3.985-6.486-7.659-9.304-4.777-54.422 5.277-56.338 5.707-.044.01-.085.025-.125.046-.077.041-4.895 2.562-12.267 4.871-19.228.026-35.97 1.29-42.824 2.327-5.171.782-52.016 6.314-86.22 10.353-20.5 2.421-36.693 4.333-39.769 4.729-5.544.713-44.589 2.468-58.264 2.329-14.115-.15-33.282.323-36.833 6.089-.785 1.274-.768 2.723.051 4.308 5.048 9.77 63.92 11.359 80.124 10.937 20.242-.535 97.022 6.031 108.098 9.23 11.158 3.224 28.897 5.493 29.098 5.518 33.556 2.731 45.475 9.675 47.087 12.961.021.045.049.087.082.124 5.185 5.773 6.908 11.16 5.122 16.013-.174.473-.379.937-.614 1.393-2.346.232-4.891.408-7.654.511-10.219.382-20.275 5.11-36.936 12.946-1.606.756-3.274 1.54-5.008 2.351-6.167 2.886-13.088 4.765-20.123 5.941-3.978-.205-8.403-.502-13.104-.866 9.68-2.865 33.797-10.854 35.767-19.818.52-2.362-.493-4.614-3.009-6.691-13.686-11.296-31.187-18.809-48.015-20.612-13.829-1.481-31.798-4.221-32.009-4.252-1.557-.14-38.201-3.409-44.826-3.003-1.885.116-6.702-.607-12.799-1.521-12.409-1.859-31.16-4.682-47.69-3.991-34.339 1.423-54.994-9.726-55.986-15.846-.812-5.008 3.641-9.15 14.438-13.36 13.722-5.35 68.815-8.528 73.643-8.528h.119c4.248 0 17.089-1.691 30.681-3.548 14.498-1.98 29.486-3.965 32.309-3.581 5.519.752 20.649-2.251 21.326-2.389 18.086-5.019 26.104-4.571 33.17-4.175 2.281.127 4.435.245 6.833.193 4.389-.102 18.723-2.292 31.369-4.223 2.954-.451 5.817-.889 8.443-1.282 3.919-.588 8.393-.968 13.128-1.371 7.524-.64 16.053-1.365 25.804-3.132 9.535-1.729 19.193-3.233 28.533-4.689 21.98-3.425 42.741-6.661 56.229-12.005 11.725-4.646 13.966-8.311 16.804-12.951.249-.407.503-.823.77-1.249 2.921-4.674 2.17-9.38 1.463-11.77-.754-2.545-2.19-4.87-3.342-5.407-1.475-.688-2.289-1.871-2.48-2.175-.141-.936-.556-1.594-1.234-1.958-1.526-.816-3.792.299-3.837.325-1.623.6-5.151 1.435-5.702.184-1.068-2.424-4.256-1.817-4.389-1.789-.037.007-.072.019-.106.034-.987.439-3.273 1.163-4.043.593-.086-.064-.349-.258-.257-.991.087-.695-.11-1.309-.585-1.825-1.119-1.215-3.599-1.597-5.416-1.708 1.596-.869 3.156-1.969 3.044-2.908-.062-.522-.521-.868-1.362-1.029-.982-.187-1.593-.518-1.768-.957-.207-.522.22-1.138.216-1.138 2.077-2.345 2.753-3.783 2.193-4.662-.17-.265-.425-.426-.716-.516 2.722-1.779 6.926-5.166 6.645-7.147-.072-.506-.436-1.148-1.762-1.334-4.075-.572-4.558-1.795-4.57-1.795h-.001c-.285-3.702-6.124-4.84-8.814-5.169 2.781-2.25 3.086-4.306 2.803-5.692-.615-3.023-4.254-5.04-6.641-5.507-.737-.144-2.271-.444-2.443-.632.079-.456 2.309-1.982 3.38-2.715 2.545-1.741 3.707-3.274 3.552-4.686-.142-1.277-1.334-2.349-3.648-3.274-.666-.266-1.402-.66-2.141-1.125.019-.029.034-.056.049-.082 1.594-.535 5.821-2.136 5.662-3.997-.103-1.2-1.752-1.969-5.35-2.494-3.753-.547-5.749-.154-6.113 1.203-.439 1.632 1.938 3.948 4.321 5.607-.993 1.14-3.212 3.023-7.561 4.031-1.703.395-2.443.864-2.474 1.57-.038.881 1.157 1.497 2.89 2.114-3.491.526-8.023 2.495-8.253 2.596-.211.092-.332.317-.292.544.039.227.229.397.459.413 3.743.25 9.196 1.265 9.6 2.741.129.472-.38 1.128-1.432 1.847-2.994 2.046-5.639 2.826-7.498 2.946.084-.593-.042-1.199-.376-1.726-.404-.638-1.051-1.005-1.682-.99-.359.016-1.035.181-1.522 1.119-.347.667-.224 1.359.331 1.85.384.341 1.015.593 1.843.7-.826 2.291-.974 6.874-.98 7.115.254 6.765 8.372 13.912 12.251 14.558 2.127.354 3.744 1.209 4.057 1.626-.146.07-.537.195-1.484.214-.884.018-1.919.133-2.083.883-.213.973 1.581 2.069 3.099 2.803 2.49 1.397 4.547 3.14 4.4 3.729-.039.157-.524.463-2.084.501-2.23.055-3.826.736-4.744 2.026-1.016 1.428-.915 3.217-.741 4.236-1.439-.268-4.479-.631-6.071.686-1.621 1.34-3.764.167-3.854.117-.151-.085-.334-.085-.483-.004-5.346 2.902-8.816 8.563-9.529 9.801-4.693.45-10.02.582-10.588.073-.053-.166-.039-.306-.022-.469.021-.223.055-.559-.205-.834-.457-.487-1.37-.524-7.519-.297-2.165.078-3.4.075-4.092.038.061-.032.119-.063.175-.093.639-.339 1.363-.723 1.8-1.186.383-.407 1.631-.756 2.541-1.012 1.345-.376 2.085-.583 2.051-1.233-.031-.596-.597-.9-3.707-1.425-1.875-.316-2.431-.638-2.585-.764.575-.616 4.614-1.62 9.323-1.493 5.303.125 7.005-1.384 8.817-2.991.508-.45 1.032-.915 1.649-1.351 2.164-1.527 3.44-2.682 3.122-3.717-.243-.789-1.292-1.156-3.401-1.192-1.728-.029-2.911-.385-3.332-1.001-.229-.335-.183-.683-.148-.827.665-.735 1.436-1.77.99-2.613-.513-.971-2.248-.771-2.566-.723-2.752.262-5.424.022-5.61-.503-.002-.004-.111-.496 1.77-1.75 1.117-.745 2.56-1.87 2.183-3.029-.408-1.256-2.886-1.581-4.751-1.643 3.527-2.391 5.063-4.441 4.69-6.244-.566-2.733-5.455-3.465-5.66-3.495-1.492-.223-3.012-.742-3.126-1.043 0-.002.075-.256 1.007-.672 1.955-.874 4.258-2.249 4.121-3.836-.097-1.131-1.335-1.983-3.785-2.605-1.42-.36-2.052-.632-2.328-.79.219-.084.552-.17.871-.22 1.271.191 4.082.455 4.569-.8.368-.949-.641-2.131-3.375-3.954-3.199-2.132-5.152-2.759-6.15-1.97-1.037.819-.386 2.683-.294 2.926.009.02.87 1.962.138 3.697-.434 1.025-1.35 1.797-2.724 2.292-1.932.696-2.821 1.422-2.801 2.283.026 1.144 1.732 1.726 2.117 1.843 1.081.229 2.165.558 2.723.81-.459.118-1.431.274-3.475.368-4.794.22-5.228.727-5.28 1.316-.023.261-.086.955 2.672 1.583 2.519.686 6.534 2.357 6.584 3.924.019.559-.536 1.696-4.449 3.037-5.514 1.89-5.846 2.575-5.706 3.217.06.27.194.896 3.149.835-2.571 1.447-2.846 2.237-2.714 2.822.23 1.019 1.936 1.091 2.583 1.095.572-.077 1.74-.042 1.968.387.081.153.226.787-1.325 2.536-1.419 1.599-2.006 3.125-1.745 4.535.347 1.872 2.065 2.786 2.155 2.832 1.704.808 3.312 1.905 3.393 2.231-.001.001-.146.158-.897.237-1.469.153-2.303.595-2.552 1.352-.284.866.384 1.759.773 2.186-.311.746-.8 1.252-1.487 1.542-2.009.845-5.016-.455-5.484-.669-.553-.495-4.347-3.636-8.183-.465-.89.734-1.737 1.708-2.454 2.728-1.876-.6-4.408-.605-5.124-.588-.623.078-1.982.055-2.258-.515-.124-.258-.287-1.335 2.837-4.381 1.07-1.044 2.417-2.572 1.754-3.783-.896-1.634-5.281-1.146-8.062-.652 3.327-2.742 4.646-4.659 4.132-5.972-.598-1.529-3.358-1.31-3.689-1.28-2.276.291-4.561.197-4.789-.18 0-.005.004-.528 2.233-1.898 2.459-1.511 3.297-2.366 3.092-3.154-.243-.936-1.745-1-4.019-1.096-1.221-.052-2.604-.111-3.732-.333-.798-.157-1.617-.343-2.249-.591.829-.582 1.699-1.377 2.037-2.312.236-.651.198-1.295-.11-1.913-.273-.546-.506-1.257-.688-2.092 1.391-4.396 1.773-12.29 1.081-13.379-.146-.228-.379-.339-.619-.302-.415.065-.655.474-.954 1.621-1.128 4.321-1.147 8.875-.531 12-.218.647-.462 1.194-.733 1.597-1.225 1.818-1.947 3.255-1.49 4.362.051.124.115.239.191.348-.164.085-.31.154-.427.206-5.99 2.995-5.728 3.892-5.629 4.23.189.64 1.026.642 1.906.547 2.312-.251 4.146 1.332 4.398 2.963.228 1.476-.913 2.617-3.052 3.05-1.504.305-2.502.666-2.481 1.435.009.333.034 1.34 5.746 2.203.591.352 1.374 1.032 1.312 1.489-.02.149-.224.673-2.018 1.129-1.989.505-2.793.999-2.774 1.703.013.502.486.838 1.026 1.059-1.979 1.493-2.716 2.569-2.376 3.44.33.845 1.642 1.072 2.875 1.087-.748.339-1.826.773-3.374 1.307-3.338 1.151-3.589 2.006-3.487 2.549.077.404.276 1.48 5.92 1.257 2.258-.09 3.339.031 3.839.14-.372.162-1.029.368-2.023.534-2.569.428-3.312 1.733-3.516 2.596-1.036-.258-3.272-.268-7.908 1.428-1.396.511-2.021.604-2.286.608.277-.545 1.507-1.81 2.858-2.918.179-.146.234-.395.135-.603-.099-.207-.328-.321-.553-.273l-8.012 1.668c2.545-2.16 5.933-5.389 5.274-6.78-.409-.866-1.776-.683-2.766-.471-4.348.931-5.823.608-5.973.498.001-.007.151-.763 3.877-2.559 4.913-2.368 5.128-3.456 4.862-4.068-.353-.816-1.809-.678-3.093-.182-.896.346-1.976.114-2.265-.49-.483-1.008.914-3.323 6.446-6.528 3.774-2.187 4.324-3.13 3.987-3.873-1.019-2.253-14.018 1.923-14.148 1.967-3.342 1.128-4.76 1.018-5.114.887.154-.243.812-.847 2.636-1.62 1.673-.709 5.517-2.51 5.083-3.92-.206-.673-1.021-1.175-5.541-.281-3.892.771-4.319.217-4.321.217-.035-.165.374-.739.89-1.164 5.21-4.027 4.731-4.929 4.574-5.225-.335-.633-1.259-.482-2.536-.062-1.228.403-1.807.479-2.066.481.21-.354.827-1.012 1.495-1.572 2.212-2.239 2.999-3.912 2.407-5.114-.562-1.141-2.233-1.437-3.578-1.479 1.975-1.423 2.771-2.564 2.494-3.538-.343-1.201-2.212-1.523-3.323-1.607.817-2.471-.387-4.785-1.497-5.813-.653-.605-1.301-.792-1.773-.515-.503.294-.633.967-.387 1.999.851 3.562-4.128 7.62-4.145 7.635-.102.069-2.502 1.707-2.528 3.787-.014 1.043.553 1.981 1.685 2.786.952.677 1.432 1.314 1.427 1.894-.009 1-1.465 1.997-2.635 2.798-.247.169-.487.333-.711.495-.18.129-.38.269-.593.417-1.574 1.093-3.532 2.453-3.181 3.814.257.997 1.572 1.564 4.265 1.839 2.912.298 3.166.811 3.169.811-.022.245-.941.883-2.08 1.322-1.699.794-5.614 2.816-5.262 4.44.197.907 1.421 1.322 3.969 1.347 3.438.033 3.907.501 3.928.448-.081.278-1.125.916-2.108 1.313-2.991.627-7.998 1.926-7.918 3.575.037.783.786 1.586 5.965 2.162 3.638.404 5.346.73 6.147.945-.613.129-1.513.248-2.309.31-7.771.777-7.771 1.633-7.77 2.044.001.673.702 1.062 4.688 1.451 1.412.138 3.146.514 3.387 1.522.379 1.588-2.599 4.462-5.658 6.795.149-.424.133-.79-.042-1.11-.956-1.749-6.831-.201-8.61.315-.04.011-.078.028-.113.049-4.229 2.485-9.33 4.74-10.202 4.048-.105-.084-.1-.352.015-.717.456-1.448.352-2.511-.311-3.159-1.177-1.151-3.56-.39-3.809-.304-1.416.422-3.196.601-3.489.183-.026-.038-.229-.4.701-1.656 1.078-1.458 1.392-2.648.933-3.541-.69-1.342-2.759-1.342-2.988-1.34-1.534-.043-3.314-.228-4.052-.459.516-.262 1.943-.776 5.885-1.55 7.195-1.413 11.202-3.068 11.909-4.92.282-.742-.066-1.235-.107-1.289-.108-.144-.286-.218-.465-.194-3.192.429-6.321.434-6.671.096.017-.082.304-.859 5.025-2.978 6.575-2.95 6.931-3.689 6.713-4.349-.112-.339-.342-1.047-4.724-.087-2.268.661-4.908 1.279-6.086 1.367.349-.266 1.001-.696 2.217-1.365 4.915-2.704 6.209-3.738 6.021-4.812-.208-1.188-2.251-1.56-6.852-2.286-2.47-.39-4.026-1.229-4.626-2.495-.687-1.449.091-3.089.275-3.44 2.166-1.859 1.792-3.495 1.372-4.309-1.419-2.75-7.742-4.444-14.893-2.58-3.942 1.027-5.763 1.108-6.404 1.018.562-.464 2.407-1.414 6.075-2.384 3.341-.884 4.831-1.836 4.557-2.911-.432-1.694-5.764-1.793-12.137-.225-4.918 1.209-6.021.458-6.267.081-.425-.654.381-1.964.674-2.344 2.009-2.229 2.647-3.931 1.951-5.201-1.551-2.833-9.428-1.608-10.274-1.466-3.252.227-6.938-.121-7.217-1.069-.084-.285.028-1.427 4.993-4.161 5.276-2.905 5.699-4.154 5.417-4.993-.608-1.806-6.134-1.202-8.484-.856-2.859.438-5.591.517-6.158.189.132-.219.804-.955 4.199-2.578 3.298-1.577 3.799-2.179 3.597-2.796-.313-.955-2.145-.795-11.526.992-3.142.599-6.109 1.165-7.921 1.355-2.154.227-3.057.613-3.116 1.333-.066.796 1.151 1.546 3.643 2.236 2.025.45 3.882 1.304 3.895 1.791.001.026-.017.658-3.003 1.489-2.438.678-3.448 1.286-3.489 2.096-.048.979 1.338 1.518 2.944 2.142.768.299 2.054.798 2.18 1.05-.054 1.018-2.211 4.057-3.445 4.229-.133.02-.382.054-.582-.532-1.146-3.337-7.758-1.32-8.019-1.238-1.448.384-2.196.493-2.578.514.609-.607 2.282-1.732 3.789-2.597.206-.118.3-.364.226-.59-.075-.226-.301-.37-.532-.34l-10.638 1.216c.656-1.189.759-2.083.318-2.718-.862-1.242-3.412-.642-3.67-.576-2.126.401-4.208.559-4.849.381.158-.188.598-.586 1.812-1.29 2.462-1.425 3.5-2.549 3.267-3.536-.282-1.193-2.26-1.372-2.658-1.396-.997-.052-3.131-.434-3.367-1.283-.09-.326.009-1.291 2.87-3.22 2.659-1.792 3.792-3.26 3.461-4.486-.447-1.66-3.375-1.905-3.697-1.926-2.273-.199-4.483-.679-4.941-1.059.158-.148.724-.52 2.693-1.042 3.203-.85 5.127-2.014 5.418-3.277.119-.516-.053-1.019-.472-1.381-.95-.821-2.961-.837-5.006-.041-1.651.644-2.553.714-2.918.676.356-.405 1.685-1.392 5.257-2.569 1.581-.521 3.646-1.356 3.319-2.575-.484-1.804-6.871-2.009-11.836-.973-3.607.752-7.862 1.903-7.654 3.115.105.609.831.766 2.499.537 1.853-.252 2.618.09 2.686.229-.006.073-.247.447-1.253.804-1.574.559-3.604 1.973-3.32 3.177.29 1.232 2.491.962 3.214.874 1.729-.21 2.979.408 3.336 1.66.33 1.155-.209 2.794-1.857 3.558-2.23 1.033-6.033 3.904-5.581 5.276.115.351.479.721 1.558.5.293-.061.677-.091.837.106.359.444-.007 1.879-.376 2.742-1.468 2.094-1.916 3.802-1.332 5.077.36.787 1.039 1.241 1.648 1.5-1.57.957-3.874 2.618-3.595 3.985.244 1.198 2.133 1.374 2.753 1.432 1.06.099 1.721.365 1.812.729.251 1.004-2.461 3.342-4.374 4.605-.178.118-.262.334-.209.541.053.206.23.356.442.375 2.538.216 4.108.9 4.541 1.979.654 1.631-1.27 3.835-1.29 3.857-.138.156-.165.381-.067.565.097.184.294.285.504.263 1.116-.141 2.527-.152 2.932.595.706 1.303-1.44 4.628-2.959 6.418-.042.05-.075.108-.095.17-.302.94-.495 1.738-.577 2.405-2.288.917-4.588 1.459-5.076.899-.224-.257-.088-1.104.964-2.71 1.628-2.487 2.067-4.422 1.306-5.752-1.037-1.81-3.842-1.695-3.946-1.688-5.14.131-12.586-.396-13.036-1.949-.052-.18-.049-.872 2.181-2.205 5.821-3.482 5.609-3.939 5.385-4.423-.119-.257-.34-.736-2.509.008-.739.178-1.551.278-1.968.256.278-.326 1.122-1.069 3.674-2.591 5.522-3.291 5.98-3.904 5.759-4.604-.236-.744-1.256-.667-3.729-.48l-1.194.087c-.734.052-1.442.102-1.929.112.438-.354 1.15-.87 1.933-1.435.683-.494 1.501-1.085 2.452-1.792 2.599-1.931 3.533-3.081 3.226-3.97-.363-1.048-2.181-.999-4.282-.94l-.338.009c-.571.015-1.21.072-1.827.127-.681.062-1.645.149-2.115.099.326-.385 1.409-1.293 4.88-3.382 3.16-1.901 4.281-3.049 3.871-3.961-.782-1.739-7.462.034-7.528.056-.676.213-2.213.041-2.45-.462-.042-.089-.314-.931 2.955-3.058 3.672-2.39 4.242-3.229 4.009-3.94-.298-.913-1.862-.827-4.703-.669l-.439.024c-.23.012-.433.018-.611.018-1.006 0-1.242-.167-1.252-.153.021-.193.504-.692.918-.988 3.479-1.474 4.904-2.572 4.764-3.674-.131-1.025-1.498-1.637-4.718-2.114-1.499-.222-1.955-.577-1.987-.734-.042-.208.417-.669.765-.891 4.128-1.644 4.229-1.968 4.06-2.491-.153-.472-.297-.916-7.044.794-6.44 1.771-6.335 2.512-6.279 2.91.092.648.921.762 2.418.739 2.146-.033 2.82.141 3.029.242-.456.76-4.271 2.845-6.359 3.986-3.368 1.841-3.59 2.008-3.398 2.559.181.521.612.446 2.219.168 1.643-.284 4.392-.761 7.143-.622 1.482.075 1.77.313 1.782.303-.179.957-5.968 3.481-8.15 4.433l-.892.39c-1.666.733-2.604 1.308-2.466 2.077.163.91 1.397 1.286 8.386 1.713 2.369.145 3.106.391 3.332.513-.45.536-2.854 1.611-4.991 2.565-1.216.544-2.56 1.145-3.942 1.804-4.098 1.956-4.449 2.424-4.275 3.028.231.803 1.369.698 6.71.07l2.004-.234c1.748-.2 2.436-.127 2.694-.062-.486.651-2.953 2.089-4.47 2.975-.976.569-1.898 1.106-2.637 1.588-1.742 1.134-2.577 1.84-2.309 2.549.287.758 1.401.931 7.571.031 1.549-.227 2.358-.27 2.783-.263-.623.487-2.014 1.292-3.179 1.966-1.245.72-2.657 1.536-3.95 2.384-1.015.666-2.01 1.455-1.693 2.258.438 1.112 3.515.846 6.078.411.861.357 1.817.915 1.788 1.629-.098 2.387-8.874 6.004-14.966 7.942 1.938-7.403-6.436-12.862-12.617-16.89-1.373-.895-2.669-1.741-3.682-2.5-1.656-1.243-2.515-2.87-2.552-4.832-.071-3.8 2.87-7.916 5.817-10.304 5.005-4.057 4.533-7.031 4.517-7.095-.003-.055-.253-5.561 5.31-9.932 1.979-1.555 2.769-2.86 2.414-3.906-.546-1.609-3.618-1.779-3.967-1.779h-.003c-.206 0-8.343.175-11.064 9.358-2.545 8.591-9.15 10.306-9.216 10.321-.105.025-.201.083-.271.166-2.06 2.455-12.294 14.847-11.517 17.783.603 2.277-.84 2.84-1.078 2.927-7.137 3.657-7.51 10.61-6.068 14.134.313.765-.202 1.81-.689 2.551-2.623 3.992-10.166 8.7-13.108 8.759-4.211.084-9.219 2.117-9.461 2.218-6.384 3.152-27.031 1.55-27.197 1.539-.455-.076-11.218-1.836-17.627-1.255-5.904.542-7.096-3-7.143-3.148-.008-.025-.741-2.495.527-4.034.88-1.069 2.542-1.487 4.944-1.238 6.958.717 13.656-3.576 15.723-5.048.562.876 2.105.466 3.245.064 6.124-2.169 12.035-14.362 12.235-14.799.51-.688 2.255-2.599 3.438-2.549.822.058 1.574-.221 2.168-.81.782-.774 1.199-2.025 1.117-3.345l-.015-.239c-.251-3.908-.279-6.976-.174-9.383 1.918-3.247 3.781-6.439 5.443-9.308 2.477.259 5.361 1.518 6.758 2.275.029.016.06.029.092.039.498.151 12.236 3.672 15.783-.662 3.127-3.822 7.149-2.864 10.302-1.602 1.301.521 2.609.126 3.676-1.111 1.339-1.553 1.979-4.095 1.316-5.23-.627-1.075-.268-3.062-.068-3.771.574-2.756-.334-4.107-1.197-4.755-1.796-1.348-4.778-.76-5.901-.164-1.075.571-2.292 1.621-3.579 2.731-2.125 1.833-4.532 3.912-6.754 4.214-2.895.395-7.242 5.083-7.425 5.282-.187.203-.174.52.029.707s.52.175.707-.029c1.184-1.285 4.717-4.681 6.825-4.968 2.516-.343 5.043-2.524 7.272-4.448 1.244-1.074 2.418-2.087 3.395-2.606.966-.513 3.478-.937 4.833.081.918.689 1.193 1.951.827 3.716-.033.115-.797 2.849.174 4.514.367.629-.029 2.704-1.209 4.074-.542.629-1.422 1.285-2.548.835-3.199-1.28-7.869-2.477-11.448 1.898-3.023 3.693-13.871.587-14.671.352-.465-.249-3.604-1.878-6.64-2.318 3.283-5.673 5.675-9.891 5.967-10.41.13-.167 3.204-4.123 3.721-6.709.096-.482.119-.912.141-1.328.094-1.764.182-3.43 6.733-8.677.124-.131 2.347-2.522 5.022-7.2 4.751-2.184 6.754-5.82 6.836-5.973 1.084-1.843 2.131-2.846 3.113-2.982 1.092-.147 2.082.793 2.951 1.626.174.167.342.329.504.474 1.306 1.176 5.209-.386 7.491-2.489 1.891-1.742 2.344-3.572 1.242-5.019-.415-.544-.64-.878-.76-1.083.152.011.333.03.494.047 1.016.107 2.552.27 4.227-.336 3.512-1.272 5.497-1.794 5.84-1.571-.723 3.522-.425 5.647.912 6.496 2.607 1.656 8.133-2.477 12.169-5.493 1.174-.877 2.188-1.635 2.804-1.991 4.541-2.625 8.212-3.438 10.915-2.409 2.438.927 3.163 3.042 3.187 3.113.036.126.503 1.478 5.722 9.958 5.27 8.563 17.203 5.393 24.334 3.5l1.051-.278c1.98-.519 3.174-1.378 3.551-2.556.656-2.049-1.282-4.372-2.697-6.068-.379-.455-.707-.847-.896-1.134-.657-1-1.684-3.465-.866-5.634.588-1.561 2.017-2.663 4.248-3.276 4.665-1.281 7.433.599 9.875 2.26.905.616 1.761 1.197 2.637 1.554 4.813 1.963 6.615 2.698 8.153 4.375.638.695 1.291 1.587 1.981 2.532 2.137 2.922 4.796 6.558 9.566 8.105 4.837 1.569 7.438 5.487 9.527 8.635.486.732.945 1.423 1.393 2.022 3.216 4.3 10.208 10.58 16.344 13.648 5.81 2.905 9.609 8.285 9.675 8.375 6.623 7.84 14.459 8.219 17.679 7.327.046-.013 3.613-.966 7.611-1.343 1.063.328 2.173.614 3.324.85 14.784 3.024 27.182-10.518 27.288-10.637.312-.314 16.082-16.163 32.747-32.696.139.018.284-.016.397-.116.281-.25.945-.847 1.83-1.678 7.669-6.123 15.506-13.423 20.532-18.107 1.386-1.292 2.564-2.39 3.475-3.218 7.253-6.593 11.241-5.571 13.903-3.943 3.066 1.874 9.131 2.384 9.447 2.406 1.785-.063 3.009.282 3.729 1.072 1.191 1.307.872 3.732.591 5.871-.142 1.08-.276 2.1-.212 2.929.293 3.817 6.056 11.31 12.069 12.652 2.887.645 7.036.165 10.405-5.777 8.41-14.829 15.875-14.498 23.107-14.173 1.026.046 2.088.093 3.124.093 1.367 0 2.464.437 3.352 1.335 1.021 1.034 1.655 2.597 2.047 4.338-.41 2.299-1.726 10.427-.539 13.985.936 2.808.576 4.24.258 5.504-.122.489-.238.951-.281 1.462-.57 6.795 2.237 22.884 7.511 43.037 4.791 18.311 10.317 35.083 13.751 41.735 1.051 2.035 4.533 6.578 7.188 6.577.23 0 .455-.034.671-.107 2.434-.841 2.773-6.005 1.033-15.804zm-102.403 89.061c1.96-.436 46.768-10.316 55.599-5.779 5.124 2.631 6.456 5.06 5.993 6.456-.267.807-1.18 1.274-2.183 1.106-1.172-.195-3.606.518-6.979 1.504-6.065 1.773-14.367 4.2-21.284 3.244-12.946-1.793-27.294-2.491-40.661-2.569 5.446-1.898 9.008-3.7 9.515-3.962zM238.266 456.06c2.317.481 4.55.935 6.696 1.36-20.51-1.96-41.759-4.436-52.156-5.681 16.128.155 32.887 1.712 45.46 4.321zm-99.276 6.755c-.644-1.822-.548-3.428.292-4.792 3.432-5.577 18.056-6.784 30.074-6.784 1.261 0 2.495.013 3.683.036-16.87 1.279-30.355 4.625-33.607 10.555-.178.323-.325.651-.442.985zm1.319-.505c3.743-6.824 22.488-10.035 43.996-10.519 1.153.085 1.827.146 1.876.15 1.029.128 8.524 1.059 19.161 2.286-25.19-1.569-49.853-1.726-51.735 3.454-.437 1.205.189 2.538 1.91 4.043-1.879 1.358-3.185 3.011-3.73 5.015-.034.075-.811 1.86.763 4.237 1.048 1.583 2.775 2.977 5.049 4.201-8.085-2.283-14.603-5.492-17.434-9.998-.176-.281-.338-.558-.485-.83.063-.708.272-1.388.629-2.039zm3.042 9.412c-1.754-1.801-2.884-3.498-3.387-5.08 4.071 5.359 13.091 8.891 24.157 11.186 2.58.81 5.474 1.514 8.601 2.123-11.458.744-22.294-.962-29.371-8.229zm20.612 5.009c-6.381-2.09-9.277-4.384-10.541-6.249-1.301-1.921-.746-3.278-.697-3.404.512-1.877 1.771-3.425 3.598-4.695.419.319.884.646 1.396.981 11.122 7.284 27.263 10.484 41.864 11.784-6.097 1.54-12.823 3.092-19.562 4.04-5.424-.581-10.919-1.375-16.058-2.457zm91.411 1.621c4.872.569 6.337 1.053 6.776 1.296-.376.23-1.243.472-2.479.714-1.404-.699-2.839-1.37-4.297-2.01zm6.988 4.542c-1.453-.287-3.391-.653-5.58-1.023 1.026-.156 1.933-.318 2.717-.484.971.488 1.926.99 2.863 1.507zm-4.35-2.239c-1.374.22-3.012.438-4.817.646-4.235-.628-8.886-1.149-12.661-1.149-.633 0-1.24.015-1.818.046-5.948.321-27.018 1.263-48.315-.125-2.088-.136-4.235-.299-6.411-.494 6.535-1.123 12.939-2.703 18.66-4.183 3.594.261 7.061.412 10.3.488 6.397.149 12.405.025 17.532-.202 5.687.634 11.847 1.296 18.501 1.992l2.956.31c2.064.827 4.097 1.72 6.073 2.671zm-18.031 1.791c-27.241.638-46.043-.36-59.01-2.119 23.661 2.404 49.746 1.304 57.799.868 2.879-.156 6.542.109 10.209.546-2.886.273-5.979.516-8.998.705zm30.628 5.732l.293.221c5.17 3.883 6.559 4.927 2.012 40.984-2.233 17.709-2.198 43.886-2.163 69.201.038 27.87.077 56.689-2.835 75.284-.882 5.63-3.041 10.317-4.715 10.128-1.697-.142-7.18-5.325-6.458-66.045.312-26.2 1.711-48.545 2.836-66.5 2.448-39.072 3.828-61.085-9.086-68.82 1.003-.098 1.947-.199 2.833-.302 6.208.934 11.465 2.084 11.56 2.104.054.013.109.015.164.009 1.973 1.191 3.838 2.44 5.559 3.736zm-23.861-13.729c8.175.798 21.252 3.116 21.713 5.968.134.83-1.044 1.86-3.325 2.916-1.343-.797-2.73-1.565-4.158-2.306 1.52-.43 2.288-.886 2.299-1.37.017-.779-.677-1.554-9.231-2.458l-1.912-.201c-2.204-.877-4.446-1.683-6.688-2.403.706-.076 1.152-.129 1.302-.146zm1.525 2.144c-3.517-.368-7.502-.785-11.768-1.245 2.563-.17 4.739-.351 6.42-.506 1.783.53 3.572 1.115 5.348 1.751zm-32.301-4.533c6.208-1.325 15.037-.431 24.227 2.015-2.636.213-5.964.439-9.785.608-5.557-.614-11.403-1.287-17.17-2.002.956-.228 1.869-.438 2.728-.621zm-5.401 1.282c3.986.5 8.316 1.018 13.013 1.559-3.347.062-6.92.069-10.625-.018-2.305-.055-4.728-.146-7.228-.29.006-.002.012-.003.018-.005 1.66-.432 3.28-.855 4.822-1.246zm145.948-65.566c-11.207-5.633-23.41-9.02-31.787-8.83-22.136.517-50.252-12.079-50.548-12.212-6.751-2.79-10.055-5.446-9.556-7.683 2.864-12.82 109.213-16.305 118.841-15.856 5.944.29 10.395-1.067 14.697-2.374 3.437-1.043 6.683-2.028 10.6-2.21 10.159-.472 11.458 1.098 11.542 1.794.32 2.639-10.511 8.075-12.912 8.549-6.608 1.305-39.788-.738-40.122-.758-.063-.005-.123.003-.182.022-.243.077-24.313 7.615-30.287 2.836-4.549-3.639-14.934-1.608-24.095.183-3.907.764-7.599 1.485-10.506 1.709-5.553.427-14.533 4.253-14.291 7.572.205 2.805 6.639 3.788 19.113 2.925 32.028-2.218 51.398 2.686 51.591 2.735 31.265 8.09 32.604 16.242 35.54 34.105.401 2.447.817 4.978 1.344 7.754 4.143 21.866-17.263 27.016-34.462 31.154-1.079.259-2.137.514-3.166.768-16.967 4.181-90.392 8.371-99.809 6.99-7.411-1.08-60.273-7.73-76.64-5.5-8.29 1.129-9.391 2.312-9.375 3.32.039 2.49 10.323 4.955 35.83 8.229-.782.203-1.578.41-2.383.621-.957.249-1.937.505-2.94.765-15.191-1.114-32.594-4.199-44.29-11.858-.375-.246-.724-.487-1.045-.723 14.617-8.662 57.943-2.934 58.417-2.87.125.026 12.777 2.68 29.091 3.503 7.49.378 16.534.397 25.735-.611 17.955 2.479 25.782 1.733 31.151.354 8.916-2.293 29.054-5.537 38.675-6.486 1.067-.105 2.124-.184 3.186-.263 8.454-.627 17.195-1.274 32.851-15.363 3.959-3.564 5.02-7.761 3.15-12.474-.69-1.742-1.787-3.531-3.249-5.331-.08-.621-.247-1.227-.501-1.817-1.386-3.226-5.26-5.752-10.613-7.748-2.594-1.7-5.472-3.351-8.595-4.921zm18.094 12.648c-1.501-1.587-3.272-3.173-5.29-4.735 2.502 1.366 4.357 2.934 5.29 4.735zm-26.432 16.714c1.919-5.214.146-10.926-5.273-16.979-.541-1.001-6.574-10.101-47.853-13.46-.177-.022-17.839-2.282-28.924-5.484-11.12-3.212-88.109-9.804-108.402-9.27-20.738.543-74.749-1.763-79.209-10.396-.656-1.269-.685-2.356-.088-3.324 2.433-3.949 14.542-5.832 35.972-5.613 13.731.139 52.841-1.622 58.403-2.337 3.07-.396 19.26-2.307 39.758-4.728 34.211-4.04 81.066-9.573 86.253-10.358 6.413-.97 21.505-2.139 39.19-2.299-3.801 1.026-8.094 1.917-12.65 2.392-9.062.944-24.688 3.604-42.782 6.686-10.567 1.8-22.545 3.839-34.412 5.734-7.536 1.204-20.095 2.58-33.391 4.037-35.985 3.943-52.95 6.097-53.049 8.799-.033.902 1.202 1.501 4.261 2.066 7.38 1.362 19.887 2.261 34.368 3.301 27.743 1.993 62.27 4.473 77.046 11.615.146.071 15.018 7.188 41.311 8.924 9.245.61 32.234 2.129 45.894 7.148 4.322 2.839 8.036 5.929 10.658 9.075.163 2.104-.812 4.44-2.921 6.98-.053.07-4.897 6.25-24.541 8.414.139-.303.266-.611.381-.923zm-50.726 17.761c1.734-.812 3.402-1.596 5.01-2.353 16.545-7.781 26.531-12.478 36.547-12.851 2.508-.094 4.837-.245 7.004-.443-9.152 14.428-48.19 20.073-52.839 20.698-2.489.334-6.642.367-11.901.176 5.655-1.19 11.162-2.879 16.179-5.227zm-20.551 6.048c7.35.37 13.19.427 16.405-.006 7.765-1.043 45.496-6.838 53.944-21.809 20.697-2.126 25.667-8.582 25.874-8.867 1.856-2.234 2.896-4.357 3.114-6.349.992 1.349 1.773 2.702 2.307 4.046 1.699 4.284.727 8.106-2.891 11.361-15.399 13.86-23.968 14.496-32.254 15.11-1.07.079-2.136.158-3.21.264-9.655.953-29.871 4.211-38.825 6.514-4.89 1.256-11.868 1.974-26.984.123.841-.12 1.681-.249 2.52-.387zm-5.029-.288c-.469.058-.938.111-1.406.163-1.082-.149-2.202-.312-3.36-.486 1.631.118 3.223.225 4.766.323zm-5.604.558c-7.7.603-15.147.539-21.474.223-16.238-.818-28.826-3.457-28.987-3.489-1.167-.158-14.967-1.983-29.488-1.983-11.508 0-23.471 1.147-29.944 5.181-1.496-1.25-2.125-2.314-1.832-3.124 2.904-7.997 76.878-1.147 105.137 2.169.059.006.119.002.178-.012 2.259.384 4.389.728 6.41 1.035zm135.812-236.053c.055-.2.381-.707 2.285-.707.684 0 1.569.065 2.719.233 4.204.614 4.484 1.432 4.498 1.59.066.778-2.617 2.191-5.165 3.024-.129.042-.235.136-.295.258-.002.004-.03.059-.089.155-2.224-1.563-4.207-3.602-3.953-4.553zm-13.79 23.653c-.211-.187-.243-.378-.107-.641.134-.257.36-.567.679-.581h.021c.268 0 .568.204.772.527.229.36.298.784.204 1.188-.75-.059-1.291-.247-1.569-.493zm-53.267 46.775c.368.178.629.389.73.632.209.499-.354 1.199-.863 1.698-.748.733-1.158.984-1.352 1.07.014-.527.555-1.917 1.485-3.4zm-18.616-43.508c.072 1.999-.171 5.797-.777 8.908-.196-2.622.002-5.809.777-8.908zm-1.335 13.641c.109-.163.216-.347.317-.549.123.371.258.703.403.994.185.368.205.736.065 1.125-.287.796-1.199 1.542-2.039 2.078-.062-.071-.11-.146-.144-.226-.238-.58.193-1.635 1.398-3.422zm-164.242 7.773c1.2-.444 2.469-.767 3.038-.789-.147.204-.47.568-1.177 1.169-.759.564-2.038 1.183-2.463.878-.063-.045-.248-.232-.25-.873.346-.149.638-.283.852-.385zM35.796 243.675c-.388.384-.856.559-1.393.522-1.964-.135-4.079 2.634-4.361 3.032-.059.123-5.98 12.338-11.716 14.37-1.752.62-2.083.343-2.085.342-.006-.01-.025-.077.006-.226.259-1.26 2.95-4.191 5.142-5.6 1.782-1.146 8.551-12.076 14.989-22.925-.032 2.258.043 4.823.226 7.673l.015.237c.065 1.038-.243 2-.823 2.575zm1.782-14.486c.325-3.455.968-5.085 1.46-5.847.559-.867 1.541-1.228 2.703-1.274-1.333 2.296-2.738 4.7-4.163 7.121zm169.354-55.838c4.288-5.984 9.927-11.587 15.086-14.988 14.729-9.711 14.468-16.99 14.394-17.761.393-5.595 2.184-9.233 5.325-10.814 6.595-3.317 17.13 3.345 17.236 3.413.039.025.081.044.126.058.081.024 8.158 2.479 9.872 5.595 1.889 3.435 6.365 5.619 6.555 5.71.043.021.088.035.135.042 5.679.947 7.648 3.758 7.666 3.784.036.054.082.1.136.137 9.833 6.667 17.75 7.231 18.1 7.253.116.003 11.729.363 15.722 3.239.049.035.098.07.146.104-3.703-.483-8.858-.719-10.571 1.337-2.252 2.701-7.901.864-7.952.848-.199-.069-4.904-1.672-7.102.094-.875.703-1.231 1.803-1.059 3.27.149 1.275-.034 2.093-.548 2.43-1.669 1.093-7.112-2.061-10.038-3.754-5.84-3.379-9.68 1.94-11.977 5.117-.366.507-.697.965-.996 1.333-1.18 1.453-6.074 3.904-10.835 3.219-4.121-.594-7.199-3.262-9.149-7.93-2.072-4.962-4.322-7.542-6.688-7.668-2.633-.142-4.309 2.827-4.339 2.892-.114.151-11.627 15.181-27.833 23.693-1.251.657-2.351 1.125-3.278 1.407-.606-1.772-1.378-3.482-2.254-5.105.882-1.997 2.285-4.395 4.12-6.955zm-4.613 8.17c.677 1.327 1.279 2.707 1.772 4.129-1.064.185-1.79.025-2.1-.501-.409-.692-.271-1.968.328-3.628zm45.624 40.109c-.09.022-8.807 2.279-16.623-6.971-.159-.229-3.977-5.639-10.02-8.661-5.924-2.962-12.912-9.237-15.99-13.352-.431-.577-.883-1.257-1.361-1.977-2.061-3.105-4.883-7.357-10.052-9.033-4.463-1.448-7.016-4.939-9.068-7.745-.708-.968-1.376-1.882-2.051-2.618-1.69-1.843-3.548-2.6-8.513-4.625-.779-.317-1.592-.87-2.452-1.455-1.92-1.306-4.202-2.857-7.486-2.857-.978 0-2.044.137-3.216.46-2.556.703-4.211 2.01-4.918 3.887-.958 2.541.157 5.304.966 6.536.22.335.564.748.963 1.226 1.195 1.433 3.001 3.597 2.513 5.123-.266.83-1.225 1.467-2.852 1.893l-1.055.279c-6.861 1.823-18.345 4.874-23.226-3.058-5.104-8.293-5.598-9.668-5.617-9.726-.035-.107-.884-2.641-3.767-3.748-2.999-1.151-6.966-.32-11.792 2.469-.667.386-1.654 1.123-2.903 2.056-3.372 2.518-9.015 6.733-11.035 5.449-.919-.583-1.081-2.468-.469-5.451.107-.522-.128-.818-.277-.947-.691-.595-2.36-.262-6.883 1.376-1.457.528-2.855.38-3.781.282-.797-.085-1.373-.146-1.639.327-.276.491.07 1.083 1.004 2.31 1.029 1.35-.262 2.883-1.124 3.677-2.225 2.049-5.504 3.058-6.144 2.481-.154-.139-.315-.293-.481-.453-.981-.941-2.2-2.106-3.78-1.895-1.318.183-2.573 1.316-3.847 3.481-.019.034-1.565 2.824-5.091 4.88.641-1.203 1.296-2.529 1.946-3.98 3.506-7.832 12.239-25.387 20.19-35.775 7.582-9.905 8.273-11.609 8.297-11.699.038-.073 3.755-7.189 8.709-10.525 1.128.607 5.696 3.22 6.619 6.194.014.045.035.089.062.129.064.096 1.585 2.357 3.534 3.526 1.778 1.066 3.112 2.629 3.126 2.645.034.041.075.076.121.104.4.244 10.019 5.935 30.189 2.29 2.461-.941 6.79-2.048 7.925-1.012.111.101.447.409.165 1.409-1.421 5.041 1.924 10.079 2.05 10.264.193.329 4.856 8.092 15.084 10.112 9.862 1.948 15.833 7.084 15.907 7.148.091.074 7.303 5.986 11.908 14.293-.951 2.305-1.23 4.181-.581 5.279.422.715 1.146 1.073 2.165 1.073.338 0 .708-.04 1.11-.118.068.223.139.444.201.669.106.298 2.74 7.311 14.42 8.497 11.109 1.127 17.724 11.82 17.799 11.943.064.098 5.733 8.563 16.807 12.78-3.099.442-5.525 1.091-5.686 1.134zm37.762-10.853c-.12.133-12.144 13.253-26.361 10.345-.029-.006-.059-.012-.087-.018.102.002.203.004.304.008 5.497.157 13.806-3.391 16.745-7.194 1.343-1.737 3.558-3.633 5.698-5.466 2.38-2.037 4.627-3.96 5.82-5.727 9.166-13.567 14.949-14.777 14.983-14.784 2.877-.372 6.831-2.468 11.202-5.45-14.923 14.836-28.013 27.993-28.304 28.286zm32.953-32.9c-6.252 4.828-12.16 8.581-15.999 9.076-.248.042-6.194 1.197-15.663 15.213-1.118 1.654-3.315 3.535-5.642 5.526-2.181 1.866-4.435 3.795-5.84 5.614-2.73 3.533-10.769 6.977-15.923 6.806-1.217-.036-2.466.016-3.676.124-12.025-3.78-18.188-12.962-18.245-13.049-.068-.112-6.931-11.227-18.544-12.405-11.014-1.118-13.556-7.772-13.568-7.803-.058-.207-.123-.412-.186-.617.993-.303 2.135-.789 3.436-1.473 16.409-8.619 28.05-23.822 28.206-24.036.014-.025 1.385-2.566 3.449-2.437 1.339.071 3.437 1.353 5.818 7.056 2.608 6.246 6.839 8.088 9.929 8.534 5.197.752 10.416-1.931 11.753-3.578.31-.381.652-.854 1.031-1.378 2.234-3.091 5.616-7.76 10.664-4.837 5.643 3.266 9.268 4.922 11.089 3.725.868-.57 1.192-1.677.991-3.383-.131-1.116.096-1.893.692-2.373 1.465-1.179 4.936-.349 6.153.072.258.085 6.354 2.07 9.042-1.154 1.892-2.27 10.394-1.009 13.51-.332.149.032.292-.004.404-.087 2.109.19 3.677-.562 4.045-.761 4.656-.943 6.096-.222 6.483.553.362.721-.067 3.237-3.899 7.994-3.133 3.092-6.337 6.262-9.51 9.41zm106.981-20.465c-1.07-1.083-2.438-1.633-4.063-1.633-1.014 0-2.018-.045-3.08-.092-7.177-.318-15.309-.684-24.021 14.679-2.464 4.344-5.603 6.124-9.318 5.294-5.783-1.291-11.047-8.578-11.29-11.753-.057-.725.071-1.694.206-2.721.311-2.355.661-5.025-.843-6.676-.86-.943-2.185-1.406-3.993-1.406-.148 0-.299.003-.454.009-.061-.005-6.081-.51-8.946-2.261-2.961-1.808-7.352-2.984-15.097 4.057-.914.831-2.096 1.932-3.484 3.227-3.417 3.184-8.15 7.59-13.224 12.001.225-.261.447-.523.666-.785 13.027-12.851 24.884-24.363 28.361-27.183 4.383-3.557 9.483-9.443 13.982-14.638 3.624-4.183 8.114-9.367 9.136-9.255 2.435.325 3.43 5.282 4.307 9.656.775 3.864 1.507 7.513 3.21 8.79 3.726 2.794 6.422 2.853 8.206 2.892.974.02 2-.125 3.075-.28 3.237-.467 6.909-.997 11.801 2.68.188.142.377.312.573.489 1.177 1.06 2.955 2.66 6.684.02.903-.643 1.886.229 3.415 1.705.471.454.957.923 1.476 1.354 3.122 2.598 6.385 6.615 4.521 14.86-.429-1.18-1.012-2.226-1.806-3.03zm29.572 116.286c-1.782.608-5.379-3.52-6.649-5.981-7.04-13.639-22.396-69.443-21.154-84.229.036-.43.143-.853.256-1.302.333-1.328.748-2.98-.279-6.064-.773-2.317-.368-6.95.075-10.26.154 1.978.131 3.906.114 5.341-.014 1.144-.024 2.047.049 2.564.099.692.361 1.317.725 2.183.673 1.603 1.69 4.024 2.654 9.213 1.361 7.334 6.858 22.169 12.174 36.515 5.452 14.715 11.09 29.932 12.408 37.356 2.198 12.378.471 14.379-.373 14.664z"/>
  <path class="st0" d="M292.925 550.912c.237-.093.367-.351.3-.597-.066-.246-.302-.4-.561-.363-.068.011-.639.105-1.403.361-.697.1-1.462.073-1.907-.334-.53-.484-.508-1.453-.323-2.371.105-.373.175-.684.201-.809.056-.263-.106-.522-.367-.589-.262-.06-.527.088-.603.346-.079.273-.146.535-.198.787-.172.599-.399 1.222-.594 1.418-.568.576-1.246.852-1.78.982-.318.001-.666.034-1.068.134-.241.061-.401.288-.376.535.024.248.228.438.476.45.037 0 .47.017 1.064-.112.556.046.773.319.863.432.449.563.497 1.582.414 2.462-.131.293-.236.608-.31.947-.152.712-.244 1.143.149 1.353.071.038.152.057.232.057.141 0 .282-.056.38-.157.167-.173.415-.963.524-1.916.741-1.474 2.375-2.264 3.526-2.654.74-.124 1.31-.343 1.361-.362zm-4.877 1.299c-.062-.496-.191-.967-.415-1.354-.12-.209-.282-.422-.499-.604.302-.165.605-.375.894-.641.121.45.339.819.651 1.105.215.196.461.339.724.438-.477.286-.944.634-1.355 1.056zM354.251 580.054c-.517.173-.965.396-1.355.659-.484.052-1.032.026-1.576-.158-.408-.138-.73-.462-.984-.856-.089-1.339-.89-2.479-.936-2.544-.139-.193-.395-.262-.613-.164-.218.099-.335.337-.28.569l.026.118c.103.453.323 1.431.811 2.3-.006.285-.061.571-.19.843-.226.471-.664.86-1.301 1.16-1.749.034-3.438.707-3.548.752-.227.092-.354.336-.299.574.055.239.285.417.518.39 1.447-.088 2.631-.323 3.545-.711.744.01 1.445.173 1.934.592.257.22.45.52.579.874-.378 1.822-.085 3.504-.079 3.536.043.231.243.457.479.457h.013c.231 0 .433-.207.486-.433.35-1.469.389-2.729.122-3.673.249-.979.743-1.971 1.68-2.673 1.001-.155 1.803-.558 2.022-.856.129-.176.144-.477.016-.652-.272-.37-.771-.202-1.07-.104zm-3.278 3.076c-.098-.115-.205-.224-.32-.322-.369-.317-.802-.525-1.266-.654.286-.268.51-.57.67-.905.037-.078.07-.157.1-.236.244.212.523.383.843.49.271.092.548.153.822.188-.365.445-.642.935-.849 1.439zM222.596 583.956c-.534-.112-1.022-.147-1.463-.107-.517-.113-1.114-.336-1.648-.768-.451-.365-.805-.839-1.058-1.418-.096-1.101-.457-1.88-.482-1.932-.104-.221-.351-.335-.585-.268-.234.064-.388.289-.364.531.071.706.22 1.343.445 1.907.032.549-.021 1.182-.256 1.826-.452 1.234-1.48 2.234-3.056 2.971-.045.021-.08.038-.101.049-.248.118-.354.417-.238.666.115.247.408.364.66.252.035-.016.07-.017.104-.032.733-.327 2.519-.884 3.396-.264.168.119.3.348.395.559-.005.934.144 1.805.159 1.868.198.836.968.378.986-.048.031-.743.03-1.617-.143-2.127.027-.843.208-1.749.739-2.279.259-.259.598-.419 1.014-.48.798.148 1.401.085 1.448.081.244-.027.432-.228.444-.473s-.156-.463-.396-.514zm-3.216.781c-.492.49-.763 1.251-.903 1.926-.467-.311-1.026-.217-1.589-.217h-.029c.575-1 .998-1.434 1.264-2.163.088-.241.155-.678.205-.914.162.182.337.361.527.515.264.213.538.411.813.551-.101.077-.197.211-.288.302zM185.578 566.638c-.375-.645-.658-1.383-.692-2.171-.02-.477.053-.944.219-1.403 1.163-.819 1.743-2.362 1.773-2.445.079-.216.002-.457-.187-.586-.188-.129-.442-.114-.614.039-.827.731-1.422 1.507-1.782 2.318-.156.08-.322.137-.497.162-.474.064-.994-.114-1.545-.531-.605-1.018-1.513-1.623-1.57-1.66-.203-.134-.47-.101-.637.074-.167.175-.184.444-.04.64.492.67.982 1.206 1.47 1.606.186.352.314.753.313 1.19-.001.623-.259 1.25-.771 1.876-1.273.58-1.993 1.702-2.032 1.765-.125.199-.095.459.073.624.167.164.428.188.625.061.797-.523 1.442-1.063 1.934-1.615.269-.101.563-.166.882-.174.765-.008 1.515.279 2.301.885.925 1.516 2.229 2.494 2.311 2.556.089.065.193.098.297.098.126 0 .252-.048.348-.142.176-.17.202-.442.062-.644-.741-1.068-1.489-1.909-2.241-2.523zm-3.017-1.231c-.048.001-.094-.011-.142-.009.246-.506.37-1.034.369-1.556 0-.15-.01-.322-.03-.465.397.133.79.069 1.179.069h.008c-.054 0-.074.692-.059 1.021.019.42.092.872.205 1.258-.509-.212-1.02-.318-1.53-.318zM234.005 555.838c-.472.255-.824.553-1.055.891-.044.011-.088.016-.133.017-.152-.002-.296-.059-.433-.152-.296-.486-.696-.782-.724-.802-.195-.144-.463-.125-.638.041s-.207.434-.076.636c.209.321.429.583.659.784.061.132.1.274.097.42-.004.167-.062.336-.173.505-.454.322-.78.709-.843.785-.156.192-.148.47.019.653.098.107.232.163.369.163.097 0 .194-.028.279-.085.367-.247.661-.509.879-.783.21-.132.417-.212.574-.188.026.004.052.012.076.023.212.423.484.699.505.72.167.167.43.194.626.065.198-.129.279-.379.194-.599-.146-.378-.326-.641-.514-.822-.052-.148-.08-.31-.057-.47.006-.044.017-.087.03-.129.586-.325.945-.885.999-.971.118-.192.093-.441-.062-.605-.152-.165-.398-.202-.598-.097zM293.019 594.831c-.14.07-.269.149-.385.238-.136.057-.315.1-.524.071-.452-.062-.924-.455-1.364-1.135-.146-.224-.443-.294-.676-.156-.231.138-.312.435-.182.67.043.079 1.038 1.938-.156 3.392-.02.022-.034.04-.044.051-.173.212-.144.524.066.7.094.078.208.116.321.116.141 0 .281-.06.38-.175.016-.018.03-.036.046-.054.331-.385.953-.882 1.307-.827.126.021.231.126.315.259.086.205.164.344.188.383.13.226.416.313.648.198.234-.112.344-.387.25-.63-.056-.144-.116-.271-.18-.382-.122-.307-.26-.787-.138-1.198.05-.166.14-.307.273-.427.238-.121.386-.252.417-.28.183-.17.213-.447.071-.651-.142-.206-.414-.274-.633-.163zm-1.174 1.891c-.189-.012-.381.016-.564.071.043-.302.046-.596.024-.872.199.1.403.167.613.201-.053.202-.075.404-.073.6zM133.752 585.92c-.086.023-2.114.605-3.28-.869-.019-.024-.033-.043-.042-.054-.17-.214-.482-.252-.698-.083-.216.168-.257.479-.091.696.017.022.033.044.05.065.304.402.659 1.099.525 1.442-.046.119-.173.2-.32.255-.218.041-.37.088-.413.102-.248.081-.392.339-.332.592.061.255.305.414.564.378.151-.023.288-.056.41-.095.325-.055.824-.089 1.201.119.151.083.27.201.359.356.068.26.165.431.186.468.093.156.258.245.431.245.064 0 .129-.013.191-.038.23-.095.355-.345.293-.586-.039-.15-.089-.292-.15-.424-.026-.144-.031-.327.037-.52.152-.433.636-.815 1.401-1.104.251-.096.382-.372.296-.627s-.363-.399-.618-.318zm-1.995 1.645c-.185-.095-.378-.158-.57-.198.053-.185.066-.376.05-.565.286.105.572.171.846.208-.139.173-.248.359-.326.555zM314.783 559.469c-4.793-.66-9.024.879-11.036 4.023-2.073 3.242-1.482 7.727 1.66 12.627.232.363.669.538 1.096.43.418-.109.718-.474.745-.906.013-.196.341-4.811 3.972-4.811.077 0 .156.002.232.005 2.802.141 4.541 1.395 5.172 3.728.739 2.734-.391 5.799-1.514 6.531-4.254 2.772-6.968.331-7.083.224-.369-.337-.938-.348-1.327-.023-.384.33-.463.895-.184 1.313.156.234 3.875 5.753 9.057 6.184.436.036.865.055 1.291.055 4.05 0 7.564-1.59 9.898-4.477 2.686-3.323 3.395-7.969 1.945-12.746-2.389-7.877-8.759-11.445-13.924-12.157zm11.202 24.274c-2.369 2.93-6.098 4.406-10.329 4.055-4.704-.392-8.161-5.522-8.308-5.742.138.127 3.404 3.075 8.309-.121 1.57-1.024 2.757-4.581 1.932-7.631-.52-1.924-1.997-4.26-6.089-4.464-.095-.005-.188-.007-.28-.007-4.56 0-4.955 5.514-4.97 5.749-2.921-4.555-3.511-8.656-1.661-11.55 1.799-2.812 5.654-4.179 10.058-3.572 4.858.67 10.852 4.032 13.104 11.457 1.351 4.454.707 8.765-1.766 11.826z"/>
</svg>
