<?xml version="1.0" encoding="utf-8"?>
<!-- Generator: Adobe Illustrator 19.1.0, SVG Export Plug-In . SVG Version: 6.00 Build 0)  -->
<svg version="1.1" id="final_comp" xmlns="http://www.w3.org/2000/svg" xmlns:xlink="http://www.w3.org/1999/xlink" x="0px" y="0px"
	 viewBox="0 0 790.988 764.779" style="enable-background:new 0 0 790.988 764.779;" xml:space="preserve">
<style type="text/css">
	.st0{opacity:0.23;fill:#6D4529;}
	.st1{fill:#233E66;}
	.st2{fill:#F28B6D;}
	.st3{fill:#A45060;}
	.st4{fill:#FFDB82;}
	.st5{fill:#EDCCB4;}
	.st6{fill:#F4ECDC;}
	.st7{fill:#513D5F;}
</style>
<path class="st0" d="M790.836,671.555c-13.153-46.476-129.191-16.261-129.191-16.261s-92.444-20.405-161.419-20.996
	c-69.893-0.599-78.364,52.415-206.955,49.866c-125.143-2.48-172.374-11.547-227.638,2.028
	c-51.086,12.549-79.402,83.951,16.955,78.266c62.5-3.687,138.243-22.816,187.965-16.834c50.541,6.08,84.691,13.823,205.241,16.483
	c120.55,2.661,38.897-24.078,38.897-24.078c24.736-19.035,164.596-26.061,164.596-26.061
	C705.343,749.171,795.176,686.892,790.836,671.555z M755.984,675.424c-7.807,1.228-14.862-1.229-15.758-5.489
	c-0.896-4.26,4.706-8.71,12.513-9.938c7.807-1.228,14.862,1.229,15.758,5.489S763.791,674.195,755.984,675.424z"/>
<g>
	<path class="st1" d="M748.66,7.481c-1.415,97.578-13.736,171.896-36.61,220.9c-14.07,30.158-31.532,49.853-53.364,60.209
		c-17.427,8.277-35.779,14.655-54.254-0.014c-4.297-3.414-8.605-7.977-12.906-13.907c-2.674-3.696-5.404-7.585-8.042-11.34
		c-1.916-2.72-3.861-5.473-5.828-8.218c-2.216,0.96-4.655,1.962-7.393,3.041c-2.954,2.668-25.19,22.393-51.231,34.521
		c-0.469,0.219-0.91,0.367-1.309,0.509c-1.475,0.494-3.143,1.054-5.688,8.916c-0.955,2.952-6.078,15.113-13.66,31.751
		c23.527-19.578,55.968-27.758,80.959-19.497l0.252,0.096c1.844,0.855,5.005,3.321,5.135,7.091
		c0.173,4.578-3.921,9.127-12.506,13.919c-21.808,12.185-53.852,52.168-68.942,74.509c-1.266,1.891-2.691,4.038-4.262,6.413
		c-9.833,14.848-24.703,37.293-46.453,62.073c-26.194,29.84-55.177,54.596-86.167,73.576c-14.706,9.013-30.136,15.987-45.046,22.737
		c-12.58,5.686-25.584,11.563-38.015,18.62c-6.039,3.424-12.063,6.787-18.021,10.124c-52.06,29.112-101.241,56.613-119.282,100.278
		l-0.776,1.893l-1.07-0.295c-3.574,8.625-9.949,14.274-17.375,15.245c-4.311,0.573-8.457-0.573-11.565-3.044
		c-1.111-0.883-2.081-1.931-2.892-3.131c-3.675-5.456-3.389-13.156,0.689-21.36c-0.77-0.372-1.53-0.753-2.309-1.137
		c-6.054,11.597-14.999,13.089-18.712,13.162c-4.069,0.083-7.936-1.257-10.927-3.634c-1.793-1.424-3.261-3.206-4.296-5.283
		c-3.198-6.457-1.769-14.576,3.866-22.557c-0.431-0.31-0.862-0.631-1.292-0.951c-5.257,7.493-12.361,11.27-19.372,10.17
		c-2.615-0.413-4.983-1.471-6.921-3.023c-2.447-1.932-4.208-4.638-4.95-7.763c-1.554-6.633,1.696-13.638,8.934-19.481
		c-0.798-0.876-1.575-1.76-2.351-2.644c-8.947,4.875-17.992,5.627-24.502,1.972c-0.696-0.386-1.336-0.82-1.921-1.279
		c-2.933-2.331-4.58-5.611-4.576-9.254c-0.005-6.212,4.737-12.624,13.086-17.813c-0.39-0.766-0.77-1.541-1.139-2.305
		c-9.367,3.741-17.96,3.521-23.29-0.706c-0.019-0.023-0.048-0.046-0.077-0.07c-3.616-2.862-5.312-7.222-4.439-11.82
		c1.348-7.093,8.101-13.229,18.283-16.751c-0.238-1.295-0.477-2.59-0.663-3.891c-8.688,1.881-15.898,0.909-20.507-2.752
		c-0.848-0.671-1.613-1.45-2.278-2.303c-3.312-4.265-3.582-10.083-0.713-15.17c3.923-6.934,12.278-10.578,22.62-9.951
		c0.018-0.197,0.024-0.384,0.042-0.581c-7.645,0.388-15.168-0.821-19.407-4.188c-1.939-1.542-3.19-3.534-3.458-6.011
		c-0.806-7.401,8.632-16.115,28.191-18.96l0.357-1.304l1.629-0.125c0.157-0.007,2.323-0.177,6.003-0.577
		c4.311-0.343,18.72-2.221,24.85-3.518c41.531-7.102,112.133-25.307,128.685-68.323l0.053-0.121
		c2.888-6.338,70.846-155.475,86.434-173.951c12.877-15.264,25.614-43.475,34.92-64.07c2.66-5.899,5.176-11.467,7.357-15.99
		c0.349-0.752,0.679-1.515,1.02-2.289c2.156-5.047,4.851-11.34,17.073-16.411c16.484-6.848,60.127-26.872,60.573-27.072l0.642-0.287
		l0.7,0.115c0.361,0.053,9.066,1.577,10.802,9.093c2.471,10.714-11.567,27.043-41.717,48.53c-1.428,4.152-6.86,19.866-11.28,30.357
		c17.195-12.777,40.158-29.451,51.916-35.514c1.306-0.937,9.095-6.177,22.58-7.532c4.024-0.4,11.048-1.428,19.172-2.608
		c10.949-1.604,23.284-3.408,33.762-4.533c-12.175-9.029-14.32-20.236-14.417-20.777c-4.413-24.878,7.219-49.399,34.584-72.87
		c21.55-18.482,52.915-36.416,93.237-53.293c68.462-28.66,140.136-44.628,140.85-44.783c3.525-0.769,5.604,0.253,6.715,1.251
		C748.783,3.567,748.714,6.765,748.66,7.481z M656.713,284.414c69.334-32.903,85.755-168.834,87.325-277.077l0.014-0.155
		c0.035-0.508-0.086-1.709-0.658-2.199c-0.629-0.547-1.93-0.361-2.655-0.197c-0.713,0.155-72.025,16.041-140.109,44.558
		c-39.856,16.69-70.802,34.358-91.979,52.529c-26.019,22.329-37.134,45.393-33.024,68.532c0.1,0.51,2.524,12.682,17.31,20.881
		c0.073-0.004,0.137-0.009,0.21-0.012c0.588-0.041,1.178-0.092,1.755-0.124c0.421-0.035,0.819-0.052,1.218-0.078
		c0.178-0.005,0.346-0.021,0.514-0.027c0.441-0.023,0.881-0.046,1.311-0.07c0.021,0.002,0.052,0.005,0.084-0.003
		c1.436-0.059,2.743-0.087,3.911-0.076c0.063-0.005,0.125,0.001,0.178-0.005c0.354,0.011,0.709,0.012,1.031,0.03
		c0.104-0.001,0.208,0.008,0.313,0.007c0.301,0.017,0.603,0.023,0.884,0.038c0.166,0.015,0.321,0.029,0.487,0.044
		c0.301,0.017,0.602,0.044,0.88,0.079c0.248,0.033,0.486,0.054,0.712,0.095c0.031,0.003,0.073,0.007,0.114,0.01
		c2.616-0.767,5.556-1.651,8.584-2.579c-0.341-0.041-0.67-0.092-0.99-0.131c-8.296-1.205-15.388-3.952-21.085-8.16
		c-3.063-2.28-6.989-6.099-8.29-11.478l-0.065-0.319c-3.412-19.871,6.378-39.348,29.901-59.573
		c20.398-17.521,50.462-34.674,89.365-50.979c52.117-21.851,106.703-36.329,127.748-41.535l2.947-0.727l-0.073,3.021
		c-2.147,89.933-13.95,158.493-35.092,203.78c-18.803,40.297-39.828,50.277-46.741,53.549c-19.815,9.409-29.436,9.828-39.6,1.763
		c-3.449-2.743-6.939-6.543-10.385-11.29c-2.628-3.629-5.201-7.295-7.921-11.173c-1.657-2.352-3.324-4.715-5.001-7.079
		c-0.463,0.386-0.946,0.771-1.471,1.152c-0.011,0.009-0.023,0.019-0.034,0.028c-0.547,0.389-1.135,0.785-1.766,1.177
		c-0.022,0.008-0.033,0.018-0.044,0.027c-0.586,0.365-1.214,0.726-1.884,1.094c-0.077,0.045-0.153,0.08-0.231,0.125
		c-0.593,0.323-1.228,0.652-1.895,0.988c-0.175,0.089-0.35,0.177-0.535,0.265c-0.01-0.001-0.011,0.009-0.022,0.008
		c1.778,2.519,3.546,5.027,5.305,7.524c2.758,3.923,5.36,7.612,8.006,11.274C616.015,300.589,635.372,294.542,656.713,284.414z
		 M695.298,220.558c20.626-44.195,32.259-111.1,34.579-198.898c-22.761,5.72-74.587,19.799-124.133,40.576
		c-38.458,16.116-68.113,33.024-88.138,50.223c-22.164,19.043-31.44,37.104-28.38,55.2l0.032,0.107
		c0.964,4.022,4.096,7.039,6.544,8.836c5.07,3.755,11.458,6.208,18.991,7.303c0.865,0.13,7.344,1.109,9.499,1.053
		c0.795-0.022,4.275-0.524,5.157-0.81c20.824-6.698,41.317-14.126,51.837-19.778l0.899-0.483l0.961,0.337
		c0.415,0.142,10.009,3.625,10.837,12.991c0.849,9.712-8.329,21.456-27.341,35.051c0.468,0.481,0.946,0.972,1.433,1.476
		c11.702-4.168,24.275-8.507,37.543-12.795l0.485-0.165l0.516,0.067c0.33,0.04,8.088,1.072,10.119,7.748
		c2.512,8.285-5.164,20.279-23.421,36.625c1.78,2.499,3.549,4.996,5.299,7.482c2.711,3.866,5.275,7.511,7.885,11.107
		c3.194,4.421,6.398,7.914,9.516,10.387c8.662,6.886,16.455,6.365,34.743-2.315C657.304,268.787,677.195,259.342,695.298,220.558z
		 M589.294,242.616c22.516-19.94,24.135-29.003,23.024-32.673c-0.953-3.103-4.555-4.147-5.825-4.418
		c-13.785,4.46-26.823,8.978-38.904,13.299c-1.963,0.7-3.905,1.403-5.826,2.096c-0.68,0.252-1.36,0.494-2.04,0.746
		c-1.639,0.583-3.259,1.179-4.856,1.756c-7.438,2.724-14.436,5.321-20.906,7.724c-16.698,6.203-31.105,11.547-42.366,14.992
		c-23.754,7.239-33.918,22.861-34.026,23.018l-0.11,0.178l-0.138,0.144c-52.299,56.609-56.906,67.793-57.141,68.43
		c-0.345,1.17-1.567,1.874-2.772,1.567c-1.246-0.31-1.989-1.567-1.679-2.803c0.26-1.031,4.107-11.772,58.071-70.184
		c1.305-1.971,12.212-17.39,36.439-24.775c11.131-3.394,25.486-8.732,42.107-14.9c1.955-0.722,3.964-1.471,5.994-2.227
		c19.687-11.123,52.304-31.94,51.043-46.94c-0.425-5.028-4.952-7.743-6.903-8.68c-12.067,6.254-35.409,14.49-57.98,21.574
		c-0.032,0.008-0.055,0.026-0.087,0.044c-5.854,1.833-12.09,3.725-17.098,5.196l-0.009-0.011c-0.075,0.025-0.151,0.049-0.235,0.062
		c-17.372,5.109-32.12,8.908-37.756,9.706c-13.516,1.937-22.223,11.343-22.315,11.44l-0.127,0.135
		c-15.816,14.853-23.074,21.153-23.142,21.21l-0.124,0.104c-39.516,29.624-58.322,48.478-58.507,48.67
		c-0.838,0.843-2.169,0.901-3.086,0.182c-0.058-0.047-0.126-0.105-0.183-0.173c-0.911-0.896-0.915-2.358-0.019-3.269
		c0.183-0.182,19.174-19.228,58.949-49.058c0.725-0.634,7.954-6.958,22.891-20.971c0.961-1.051,10.298-10.735,25.009-12.836
		c3.501-0.51,10.594-2.179,19.655-4.611c-11.241,1.129-25.173,3.165-35.91,4.736c-8.188,1.195-15.255,2.23-19.384,2.642
		c-13.22,1.317-20.342,6.679-20.41,6.736l-0.355,0.229c-13.996,7.156-45.245,30.528-62.034,43.081
		c-5.373,4.027-8.932,6.682-10.096,7.444c-4.78,3.12-13.828,6.221-14.215,6.343c-0.775,0.264-1.585,0.098-2.18-0.374
		c-0.341-0.271-0.601-0.628-0.749-1.07c-0.413-1.206,0.237-2.516,1.443-2.929c0.087-0.034,8.886-3.043,13.178-5.841
		c1.042-0.679,4.926-3.587,9.852-7.278c0.828-0.615,1.701-1.267,2.596-1.938c2.852-3.972,10.574-25.065,15.156-38.517l0.241-0.709
		l0.602-0.426c37.894-26.909,41.642-39.215,40.5-44.161c-0.832-3.635-4.842-5.018-6.412-5.431
		c-5.728,2.627-44.618,20.416-60.017,26.809c-10.487,4.36-12.586,9.245-14.609,13.97c-0.358,0.845-0.714,1.669-1.099,2.469
		c-2.156,4.473-4.659,10.021-7.306,15.89c-9.412,20.847-22.305,49.399-35.601,65.147c-15.062,17.854-83.997,169.023-85.728,172.824
		c-5.278,13.65-15.708,25.731-31.179,36.168c-3.807,29.912,20.331,58.798,35.195,73.455c10.817,10.661,23.314,20.408,35.208,27.449
		c12.132,7.188,19.933,9.361,23.368,9.013c1.561-0.872,3.122-1.745,4.684-2.627c5.957-3.327,11.959-6.681,17.999-10.105
		c12.607-7.155,25.719-13.075,38.387-18.805c14.789-6.688,30.078-13.602,44.541-22.47c71.108-43.57,111.683-104.824,131.18-134.265
		c1.582-2.384,3.008-4.542,4.285-6.442c15.933-23.591,47.846-63.284,70.512-75.955c9.288-5.188,10.193-8.521,10.144-9.715
		c-0.059-1.665-1.952-2.785-2.38-3.022c-26.106-8.517-62.397,2.772-84.485,26.311l-0.011,0.009
		c-21.635,46.369-56.706,115.02-77.583,129.616c-0.858,0.601-1.98,0.542-2.759-0.081c-0.176-0.131-0.329-0.291-0.458-0.48
		c-0.731-1.047-0.475-2.496,0.562-3.228c20.007-13.986,54.815-81.689,76.279-127.771c0.068-0.411,0.239-0.803,0.531-1.142
		c9.502-20.453,16.296-36.451,17.844-41.24c3.011-9.334,5.57-10.857,8.606-11.879c0.28-0.1,0.56-0.19,0.833-0.322
		c27.153-12.644,50.133-33.805,50.371-34.014l0.32-0.305l0.4-0.152c3.366-1.326,6.346-2.54,8.946-3.705l0.087-0.034
		c0.761-0.339,1.481-0.681,2.179-1.015c0.185-0.088,0.371-0.175,0.546-0.264c0.589-0.281,1.147-0.565,1.674-0.852
		c0.098-0.043,0.197-0.097,0.295-0.151c0.581-0.313,1.132-0.629,1.661-0.936c0.133-0.082,0.254-0.155,0.387-0.237
		c0.508-0.309,0.985-0.621,1.431-0.936c0.078-0.056,0.156-0.111,0.234-0.167c0.457-0.324,0.895-0.661,1.28-1.002
		c0.667-0.566,1.302-1.125,1.937-1.684L589.294,242.616z M251.291,606.068c-0.132-0.158-0.254-0.305-0.388-0.442
		c-2.441-0.721-5.126-1.745-7.992-3.068c-0.802,0.095-1.591,0.275-2.358,0.56c-1.189,0.457-29.541,11.228-57.253,29.156
		c-0.023,0.019-0.055,0.037-0.087,0.044c-0.012,0.02-0.034,0.028-0.056,0.047c-3.848,2.504-7.286,4.867-10.483,7.211
		c-2.861,2.092-5.587,4.195-8.098,6.235c-3.132,2.558-4.322,6.731-3.167,10.489c4.433,1.432,8.535,2.146,12.147,2.032
		c14.659-13.6,32.446-25.645,51.736-37.232c-15.195,7.142-36.758,18.576-54.143,32.766c-0.214,0.179-0.517,0.173-0.721,0.008
		c-0.029-0.023-0.057-0.057-0.086-0.091c-0.207-0.248-0.164-0.61,0.083-0.807c21.633-17.671,49.732-31.085,64.074-37.323
		C240.006,612.444,245.617,609.253,251.291,606.068z M239.689,600.995c-6.679-3.388-14.168-8.112-21.742-13.742
		c0.256,4.815-2.37,9.527-6.99,11.669c-0.295,0.141-20.757,9.669-42.472,22.906c4.343,2.906,8.977,5.589,14.111,8.159
		C210.211,612.218,238.273,601.535,239.689,600.995z M209.987,596.831c4.435-2.065,6.594-7.038,5.292-11.603
		c-0.811-0.616-1.62-1.252-2.43-1.889c-2.094-1.671-4.172-3.413-6.246-5.186c-1.627-0.136-3.31,0.12-4.89,0.855
		c-1.787,0.831-43.96,20.528-73.366,43.722c-2.068,1.631-3.373,3.956-3.67,6.56c-0.217,1.828,0.081,3.63,0.833,5.253
		c2.249,1.925,4.526,3.769,6.803,5.498c2.805,0.618,5.815,0.001,8.197-1.883C168.311,616.227,209.573,597.023,209.987,596.831z
		 M200.733,576.915c1.078-0.498,2.194-0.826,3.315-0.986c-2.542-2.264-5.056-4.61-7.492-7.011
		c-3.452-3.401-7.391-7.544-11.37-12.287c-0.502,3.609-2.609,6.958-6.009,8.887c-1.188,0.676-21.688,12.248-46.226,23.675
		c4.617,5.771,9.784,11.351,15.409,16.596C173.642,589.564,199.349,577.552,200.733,576.915z M178.031,563.515
		c3.509-1.992,5.327-5.837,4.916-9.622c-2.028-2.521-4.053-5.198-6.015-7.995c-0.362-0.158-0.735-0.296-1.134-0.394
		c-2.525-0.707-5.175-0.382-7.453,0.917c-1.616,0.909-39.629,22.285-72.833,34.896c-3.859,1.469-6.255,5.127-6.324,9.025
		c1.577,2.898,3.337,5.844,5.271,8.836c2.463,1.286,5.397,1.508,8.035,0.503C137.57,586.351,176.393,564.432,178.031,563.515z
		 M171.786,637.367c2.658-1.932,5.497-3.89,8.582-5.93c-5.091-2.598-9.721-5.321-14.059-8.28c-3.007,1.859-6.03,3.79-9.007,5.777
		C162.295,632.275,167.166,635.104,171.786,637.367z M167.201,544.407c2.377-1.352,5.083-1.84,7.75-1.433
		c-3.022-4.594-5.839-9.482-8.208-14.602c-1.037,2.819-3.105,5.275-6.011,6.705c-1.137,0.566-21.974,10.781-47.83,18.875
		c0.968,2.822,2.148,5.486,3.399,8.292c0.949,2.1,1.911,4.285,2.821,6.591C144.033,557.43,165.991,545.092,167.201,544.407z
		 M163.107,644.03c2.062-1.683,4.294-3.403,6.599-5.117c-4.644-2.339-9.501-5.218-14.48-8.589
		c-4.612,3.114-9.101,6.354-13.281,9.653c-1.876,1.47-4.05,2.319-6.284,2.546c8.003,5.741,15.956,10.173,23.167,12.868
		C158.139,651.204,159.671,646.822,163.107,644.03z M168.973,662.723c-7.302-0.876-15.793-4.093-24.663-9.119
		c3.829,6.18,4.209,13.209,0.846,20.193c-0.244,0.51-0.831,0.771-1.379,0.596c-0.549-0.164-0.887-0.706-0.804-1.273
		c0.392-2.502,0.704-8.758-4.742-13.09c-7.045-5.592-18.175-1.749-21.518,2.46c-4.863,6.129-3.533,12.701,3.766,18.493
		c6.022,4.78,12.876,2.39,15.536,1.136c0.523-0.245,1.144-0.064,1.465,0.424c0.312,0.477,0.223,1.116-0.208,1.495
		c-5.235,4.582-11.249,7.027-17.181,7.287c10.569,4.834,18.898,7.64,22.492,8.767C148.668,686.171,157.758,673.908,168.973,662.723z
		 M159.707,533.012c3.288-1.625,5.259-4.851,5.452-8.269c-0.968-2.352-1.837-4.759-2.589-7.196c-0.343-0.365-0.697-0.72-1.087-1.027
		c-2.884-2.295-6.957-2.86-10.474-1.13c-0.339,0.168-34.331,16.894-67.995,23.701c-2.573,0.52-4.785,2.013-6.234,4.2
		c-0.326,0.493-0.603,1.021-0.84,1.563c0.121,2.945,0.385,6.048,0.854,9.306c0.561,0.844,1.255,1.606,2.053,2.241
		c2.28,1.813,5.223,2.516,8.062,1.946c3.976-0.801,7.934-1.74,11.845-2.745c0,0,0,0,0.001-0.01l0.01,0.001
		C130.275,547.434,158.385,533.655,159.707,533.012z M161.511,513.756c-1.497-5.991-2.205-12.162-1.851-18.425
		c-13.324,8.156-29.922,15.234-49.751,21.197c-0.735,4.339-1.071,8.777-1.011,13.22c22.747-7.413,40.845-16.308,41.086-16.433
		C153.785,511.443,158.1,511.758,161.511,513.756z M144.999,666.611c0.819-5.971-1.415-11.663-6.559-16.573
		c-2.249-1.455-4.51-3.016-6.773-4.67c-10.566-4.75-25.314-1.88-32.543,7.221c-3.697,4.658-5.265,9.904-4.517,15.17
		c0.798,5.636,4.282,11.127,9.854,15.679c3.291,1.831,6.492,3.497,9.561,5.015c5.325,1.272,11.045,0.471,16.322-2.374
		c-3.412,0.33-7.484-0.245-11.303-3.282c-8.34-6.628-9.851-14.552-4.131-21.742c3.756-4.736,16.328-9.525,24.757-2.837
		C142.356,660.36,144.18,663.291,144.999,666.611z M126.504,718.337c6.528-0.854,12.169-5.879,15.442-13.603
		c-3.515-1.078-13.767-4.443-26.823-10.639c-3.718,7.443-4.043,14.315-0.859,19.069
		C116.852,717.009,121.538,718.997,126.504,718.337z M137.438,613.117c2.931-2.064,5.921-4.082,8.937-6.045
		c-5.7-5.336-10.932-11.005-15.593-16.874c-3.365,1.545-6.803,3.094-10.269,4.599C125.494,601.175,131.184,607.324,137.438,613.117z
		 M126.913,620.919c2.765-2.184,5.641-4.337,8.597-6.441c-6.368-5.928-12.139-12.22-17.191-18.73
		c-4.995,2.14-10.035,4.203-15.007,6.094c-2.173,0.828-4.513,0.962-6.738,0.511c2.999,4.383,6.375,8.862,10.226,13.405
		c4.879,5.763,10.147,11.154,15.575,16.037c-0.095-0.917-0.106-1.836-0.001-2.777C122.757,625.807,124.363,622.924,126.913,620.919z
		 M97.323,651.143c6.604-8.311,18.524-11.885,28.993-9.889c-8.022-6.453-15.898-14.062-23.042-22.503
		c-2.831-3.345-5.405-6.645-7.783-9.918c0.577,7.047-2.039,14.662-7.901,22.038c-4.922,6.207-12,10.154-19.431,10.832
		c-6.452,0.589-12.745-1.303-18.335-5.428c6.998,9.942,15.694,19.232,26.044,27.784c6.996,5.786,14.219,10.789,21.235,15.084
		c-2.59-3.469-4.247-7.22-4.779-11.057C91.487,662.175,93.215,656.317,97.323,651.143z M117.01,569.793
		c-0.889-2.304-1.862-4.489-2.81-6.6c-1.297-2.873-2.502-5.612-3.51-8.563c-3.317,1.017-6.714,1.985-10.147,2.898
		c1.664,5.526,3.91,11.084,6.695,16.564C110.516,572.696,113.778,571.256,117.01,569.793z M91.978,702.809
		c6.778-0.142,12.771-4.447,16.688-11.904c-8.222-4.226-17.207-9.492-26.132-15.89c-5.12,7.244-6.472,14.503-3.661,20.164
		C81.223,699.931,86.371,702.931,91.978,702.809z M106.597,530.491c-0.112-4.447,0.182-8.878,0.846-13.235
		c-1.04,0.303-2.069,0.607-3.129,0.898c-2.057,0.588-4.112,1.144-6.153,1.67c-0.811,4.489-1.239,9.023-1.249,13.543
		C100.198,532.462,103.438,531.491,106.597,530.491z M105.101,574.986c-2.829-5.579-5.107-11.243-6.802-16.887
		c-3.612,0.928-7.268,1.768-10.927,2.515c-3.488,0.709-7.095-0.158-9.894-2.351c1.648,8.719,4.716,18.37,9.937,28.694
		c1.063-3.464,3.636-6.417,7.279-7.802C98.131,577.846,101.619,576.447,105.101,574.986z M85.787,629.435
		c6.934-8.73,8.948-17.778,6.187-25.616c-1.86-2.767-3.567-5.499-5.13-8.197c-0.906-0.958-1.886-1.892-2.987-2.774
		c-10.904-8.654-30.466-6.811-39.505,3.734c-5.68,6.63-7.115,14.811-4.588,22.576c1.372,2.859,2.872,5.676,4.501,8.454
		c1.391,1.827,3.039,3.583,4.927,5.235c5.624,4.911,12.103,7.164,18.756,6.552C74.748,638.778,81.244,635.144,85.787,629.435z
		 M94.6,533.995c-0.033-4.513,0.343-9.041,1.102-13.535c-6.25,1.589-12.345,2.961-18.151,4.141
		c-0.917,4.396-1.635,9.823-1.678,16.104c1.734-1.984,4.06-3.351,6.686-3.877C86.589,536.009,90.622,535.046,94.6,533.995z
		 M77.535,671.287c-0.674-0.52-1.348-1.029-2.02-1.57c-0.868-0.684-1.733-1.388-2.588-2.101c-5.17-4.265-9.917-8.711-14.283-13.332
		c-6.615,5.293-9.615,11.496-8.265,17.265c1.112,4.704,5.021,8.25,9.983,9.03C66.588,681.567,72.759,678.186,77.535,671.287z
		 M83.746,589.915c-7.2-13.969-10.628-26.815-11.894-37.922c-3.839,7.975-11.747,14.3-20.504,15.1
		c-5.422,0.504-10.281-0.841-14.109-3.889c-0.234-0.188-0.467-0.376-0.69-0.574c-3.135-2.756-5.383-6.664-6.601-11.346
		c-2.82,21.377-0.724,41.37,6.287,59.644c0.19-5.599,2.28-11.08,6.363-15.849C52.128,583.95,71.582,581.691,83.746,589.915z
		 M71.385,546.502c-0.197-3.494-0.184-6.781-0.024-9.836c-0.938-4.083-2.812-7.383-5.563-9.656
		c-0.069-0.048-0.126-0.105-0.195-0.153c-0.349,0.052-0.689,0.115-1.029,0.179c1.065,1.735,1.747,3.675,1.936,5.749
		c0.855,9.41-8.702,16.318-13.998,16.812c-3.516,0.321-6.575-0.487-8.913-2.347c-0.283-0.224-0.573-0.48-0.842-0.733
		c-2.387-2.365-3.816-5.855-4.231-10.413c-0.181-2.052,0.088-3.876,0.617-5.467c-1.202,0.132-2.256,0.246-3.162,0.332
		c-1.31,1.448-2.408,3.093-3.209,4.921c-0.575,2.443-1.085,4.872-1.532,7.285c-0.008,0.323-0.006,0.647,0.007,0.971
		c0.284,7.177,2.703,13.126,6.825,16.743c3.436,3.002,7.959,4.37,13.063,3.91C60.515,563.94,69.077,555.679,71.385,546.502z
		 M71.832,531.081c0.229-1.963,0.509-3.806,0.819-5.512c-1.413,0.27-2.813,0.52-4.183,0.772
		C69.808,527.694,70.94,529.278,71.832,531.081z M52.313,547.292c3.989-0.362,12.641-6.14,11.903-14.297
		c-0.22-2.316-1.069-4.136-2.111-5.545c-2.914,0.479-5.657,0.911-8.238,1.284c-0.052,0.235-0.37,1.679-0.549,3.667
		c3.195-0.005,5.029-0.32,5.06-0.317c0.626-0.111,1.226,0.298,1.337,0.924c0.12,0.637-0.299,1.236-0.925,1.347
		c-0.127,0.02-2.121,0.373-5.566,0.366c-0.005,1.221,0.086,2.524,0.338,3.789c0.121,0.627-0.289,1.237-0.916,1.358
		c-0.341,0.074-0.687-0.02-0.94-0.231c-0.204-0.165-0.361-0.398-0.409-0.674c-0.287-1.456-0.394-2.927-0.385-4.304
		c-1.227-0.058-2.575-0.159-4.053-0.323c-0.217-0.02-0.418-0.111-0.584-0.24c-0.302-0.236-0.476-0.627-0.429-1.03
		c0.068-0.641,0.641-1.091,1.272-1.024c1.416,0.159,2.712,0.254,3.887,0.308c0.103-1.379,0.288-2.511,0.429-3.26
		c-3.69,0.514-6.953,0.93-9.696,1.247c-0.72,1.626-1.096,3.482-0.896,5.557c0.351,3.988,1.552,7.009,3.536,8.972
		C46.334,546.796,48.997,547.599,52.313,547.292z M53.171,648.154c-6.029-7.14-11.125-14.666-15.305-22.517
		c-7.556,4.728-11.844,10.398-11.846,15.753c0.007,3.519,1.941,6.626,5.32,8.517C35.803,652.417,43.735,653.131,53.171,648.154z
		 M34.689,619.182c-0.916-2.003-1.779-4.012-2.578-6.047c-2.373-6.122-4.218-12.416-5.537-18.882
		c-9.207,3.243-15.268,8.649-16.442,14.859c-0.726,3.777,0.625,7.218,3.597,9.573c0.019,0.023,0.039,0.035,0.068,0.058
		C18.454,622.44,26.146,622.579,34.689,619.182z M25.169,585.733c-1.083-8.272-1.329-16.802-0.738-25.571
		c-9.419-0.555-16.973,2.65-20.438,8.79c-2.409,4.262-2.206,9.093,0.516,12.605C8.242,586.361,15.698,587.846,25.169,585.733z
		 M24.868,554.951c0.819-7.944,2.312-16.078,4.468-24.382c-17.273,2.737-25.923,10.228-25.265,16.258
		C4.592,551.603,11.239,555.823,24.868,554.951z"/>
	<path class="st2" d="M744.038,7.337c-1.57,108.244-17.991,244.174-87.325,277.077c-21.341,10.128-40.697,16.176-61.444-12.468
		c-2.646-3.662-5.248-7.352-8.006-11.274c-1.759-2.497-3.527-5.005-5.305-7.524c0.01,0.001,0.011-0.009,0.022-0.008
		c0.185-0.088,0.36-0.176,0.535-0.265c0.667-0.337,1.302-0.666,1.895-0.988c0.077-0.045,0.153-0.08,0.231-0.125
		c0.67-0.368,1.297-0.729,1.884-1.094c0.011-0.009,0.023-0.019,0.044-0.027c0.63-0.392,1.219-0.788,1.766-1.177
		c0.011-0.009,0.023-0.019,0.034-0.028c0.525-0.381,1.008-0.765,1.471-1.152c1.677,2.364,3.344,4.727,5.001,7.079
		c2.721,3.878,5.293,7.544,7.921,11.173c3.446,4.747,6.936,8.547,10.385,11.29c10.163,8.065,19.785,7.646,39.6-1.763
		c6.913-3.272,27.938-13.251,46.741-53.549c21.141-45.286,32.944-113.847,35.092-203.78l0.073-3.021l-2.947,0.727
		c-21.045,5.206-75.631,19.684-127.748,41.535c-38.903,16.306-68.967,33.458-89.365,50.979
		c-23.523,20.226-33.313,39.703-29.901,59.573l0.065,0.319c1.302,5.379,5.228,9.198,8.29,11.478
		c5.697,4.208,12.79,6.955,21.085,8.16c0.32,0.039,0.65,0.09,0.99,0.131c-3.027,0.928-5.967,1.812-8.584,2.579
		c-0.041-0.004-0.083-0.007-0.114-0.01c-0.226-0.041-0.464-0.063-0.712-0.095c-0.279-0.036-0.579-0.063-0.88-0.079
		c-0.166-0.015-0.321-0.029-0.487-0.044c-0.281-0.015-0.583-0.021-0.884-0.038c-0.104,0.001-0.208-0.008-0.313-0.007
		c-0.322-0.019-0.677-0.019-1.031-0.03c-0.053,0.006-0.115,0-0.178,0.005c-1.168-0.011-2.476,0.017-3.911,0.076
		c-0.032,0.008-0.063,0.005-0.084,0.003c-0.43,0.024-0.871,0.047-1.311,0.07c-0.168,0.006-0.336,0.022-0.514,0.027
		c-0.399,0.027-0.797,0.043-1.218,0.078c-0.577,0.032-1.166,0.083-1.755,0.124c-0.073,0.004-0.137,0.009-0.21,0.012
		c-14.786-8.199-17.21-20.37-17.31-20.881c-4.11-23.139,7.005-46.202,33.024-68.532c21.177-18.171,52.122-35.84,91.979-52.529
		C668.714,20.826,740.026,4.94,740.739,4.785c0.725-0.165,2.025-0.35,2.655,0.197c0.572,0.49,0.694,1.691,0.658,2.199L744.038,7.337
		z"/>
	<path class="st3" d="M729.878,21.66c-2.321,87.798-13.954,154.704-34.579,198.898c-18.103,38.784-37.995,48.228-44.537,51.325
		c-18.288,8.68-26.081,9.201-34.743,2.315c-3.118-2.473-6.322-5.966-9.516-10.387c-2.61-3.596-5.174-7.241-7.885-11.107
		c-1.75-2.485-3.519-4.983-5.299-7.482c18.257-16.346,25.933-28.34,23.421-36.625c-2.03-6.676-9.788-7.708-10.119-7.748
		l-0.516-0.067l-0.485,0.165c-13.268,4.288-25.841,8.627-37.543,12.795c-0.487-0.503-0.965-0.995-1.433-1.476
		c19.012-13.595,28.19-25.339,27.341-35.051c-0.828-9.366-10.422-12.849-10.837-12.991l-0.961-0.337l-0.899,0.483
		c-10.52,5.652-31.013,13.079-51.837,19.778c-0.882,0.286-4.362,0.787-5.157,0.81c-2.156,0.057-8.634-0.923-9.499-1.053
		c-7.533-1.095-13.921-3.549-18.991-7.303c-2.448-1.797-5.58-4.813-6.544-8.836l-0.032-0.107c-3.06-18.096,6.216-36.157,28.38-55.2
		c20.025-17.199,49.68-34.107,88.138-50.223C655.291,41.459,707.117,27.38,729.878,21.66z M708.679,117.041
		c14.375-18.104,11.353-44.517-6.741-58.891c-18.104-14.375-44.517-11.353-58.891,6.741c-14.375,18.104-11.353,44.517,6.741,58.891
		C667.892,138.157,694.305,135.135,708.679,117.041z"/>
	<path class="st1" d="M701.938,58.15c18.094,14.374,21.116,40.787,6.741,58.891c-14.374,18.094-40.787,21.116-58.891,6.741
		c-18.094-14.374-21.116-40.787-6.741-58.891C657.421,46.797,683.834,43.775,701.938,58.15z M705.971,114.877
		c13.185-16.593,10.406-40.833-6.187-54.018c-16.603-13.186-40.833-10.406-54.029,6.197c-13.185,16.593-10.406,40.833,6.198,54.019
		C668.546,134.259,692.786,131.48,705.971,114.877z"/>
	<path class="st4" d="M699.784,60.859c16.593,13.185,19.372,37.425,6.187,54.018c-13.186,16.603-37.426,19.382-54.019,6.198
		c-16.603-13.186-19.382-37.426-6.198-54.019C658.951,50.453,683.18,47.673,699.784,60.859z"/>
	<path class="st5" d="M612.318,209.943c1.111,3.67-0.508,12.732-23.024,32.673l-0.465,0.407c-0.635,0.559-1.27,1.118-1.937,1.684
		c-0.386,0.341-0.823,0.678-1.28,1.002c-0.078,0.056-0.156,0.111-0.234,0.167c-0.446,0.315-0.923,0.627-1.431,0.936
		c-0.133,0.082-0.254,0.155-0.387,0.237c-0.529,0.307-1.079,0.623-1.661,0.936c-0.099,0.054-0.198,0.107-0.295,0.151
		c-0.527,0.287-1.085,0.571-1.674,0.852c-0.175,0.089-0.36,0.176-0.546,0.264c-0.698,0.334-1.418,0.676-2.179,1.015l-0.087,0.034
		c-2.6,1.165-5.58,2.38-8.946,3.705l-0.4,0.152l-0.32,0.305c-0.238,0.208-23.219,21.37-50.371,34.014
		c-0.273,0.132-0.552,0.222-0.833,0.322c-3.036,1.022-5.595,2.545-8.606,11.879c-1.548,4.788-8.342,20.787-17.844,41.24
		c-0.291,0.339-0.462,0.731-0.531,1.142c-21.463,46.082-56.271,113.785-76.279,127.771c-1.037,0.732-1.292,2.181-0.562,3.228
		c0.129,0.189,0.282,0.349,0.458,0.48c0.779,0.623,1.901,0.683,2.759,0.081c20.877-14.596,55.947-83.247,77.583-129.616l0.011-0.009
		c22.088-23.539,58.379-34.828,84.485-26.311c0.428,0.237,2.321,1.357,2.38,3.022c0.049,1.195-0.856,4.527-10.144,9.715
		c-22.666,12.671-54.579,52.364-70.512,75.955c-1.277,1.9-2.703,4.058-4.285,6.442c-19.497,29.44-60.073,90.695-131.18,134.265
		c-14.463,8.868-29.753,15.782-44.541,22.47c-12.667,5.73-25.779,11.65-38.387,18.805c-6.039,3.424-12.041,6.778-17.999,10.105
		c-1.562,0.883-3.123,1.755-4.684,2.627c-3.435,0.349-11.236-1.825-23.368-9.013c-11.894-7.041-24.391-16.788-35.208-27.449
		c-14.863-14.658-39.002-43.544-35.195-73.455c15.471-10.437,25.9-22.517,31.179-36.168c1.73-3.801,70.665-154.97,85.728-172.824
		c13.297-15.748,26.189-44.3,35.601-65.147c2.647-5.869,5.15-11.417,7.306-15.89c0.385-0.801,0.741-1.625,1.099-2.469
		c2.022-4.725,4.121-9.61,14.609-13.97c15.399-6.393,54.289-24.182,60.017-26.809c1.571,0.413,5.58,1.796,6.412,5.431
		c1.142,4.947-2.606,17.252-40.5,44.161l-0.602,0.426l-0.241,0.709c-4.582,13.452-12.304,34.545-15.156,38.517
		c-0.896,0.671-1.768,1.323-2.596,1.938c-4.925,3.691-8.809,6.599-9.852,7.278c-4.292,2.798-13.092,5.807-13.178,5.841
		c-1.206,0.414-1.857,1.723-1.443,2.929c0.148,0.441,0.408,0.799,0.749,1.07c0.594,0.471,1.404,0.638,2.18,0.374
		c0.387-0.122,9.435-3.223,14.215-6.343c1.165-0.762,4.723-3.417,10.096-7.444c16.788-12.553,48.038-35.925,62.034-43.081
		l0.355-0.229c0.068-0.057,7.19-5.419,20.41-6.736c4.129-0.412,11.196-1.446,19.384-2.642c10.738-1.571,24.67-3.607,35.91-4.736
		c-9.061,2.432-16.154,4.101-19.655,4.611c-14.711,2.101-24.048,11.785-25.009,12.836c-14.936,14.014-22.165,20.337-22.891,20.971
		c-39.775,29.83-58.765,48.876-58.949,49.058c-0.896,0.911-0.892,2.373,0.019,3.269c0.057,0.068,0.124,0.126,0.183,0.173
		c0.917,0.719,2.248,0.661,3.086-0.182c0.184-0.192,18.99-19.046,58.507-48.67l0.124-0.104c0.068-0.057,7.326-6.357,23.142-21.21
		l0.127-0.135c0.092-0.096,8.799-9.502,22.315-11.44c5.636-0.798,20.385-4.598,37.756-9.706c0.085-0.013,0.16-0.038,0.235-0.062
		l0.009,0.011c5.008-1.471,11.243-3.363,17.098-5.196c0.033-0.018,0.055-0.037,0.087-0.044c22.571-7.084,45.913-15.32,57.98-21.574
		c1.951,0.938,6.478,3.652,6.903,8.68c1.261,15-31.356,35.817-51.043,46.94c-2.031,0.757-4.04,1.505-5.994,2.227
		c-16.621,6.168-30.976,11.506-42.107,14.9c-24.226,7.384-35.134,22.804-36.439,24.775c-53.964,58.412-57.812,69.153-58.071,70.184
		c-0.309,1.235,0.434,2.492,1.679,2.803c1.204,0.307,2.426-0.398,2.772-1.567c0.235-0.637,4.842-11.821,57.141-68.43l0.138-0.144
		l0.11-0.178c0.108-0.157,10.272-15.78,34.026-23.018c11.261-3.445,25.668-8.789,42.366-14.992c6.47-2.404,13.468-5,20.906-7.724
		c1.597-0.577,3.216-1.172,4.856-1.756c0.68-0.252,1.36-0.494,2.04-0.746c1.921-0.694,3.863-1.396,5.826-2.096
		c12.081-4.321,25.119-8.838,38.904-13.299C607.763,205.796,611.365,206.84,612.318,209.943z M338.248,446.623
		c0.64-0.036,1.138-0.576,1.101-1.216c-0.037-0.87-0.095-1.731-0.156-2.561c-1.115-13.494-6.393-24.92-15.707-33.953
		c-1.632-1.587-3.453-3.161-5.399-4.63c-0.039-0.035-0.117-0.094-0.205-0.154c-11.551-8.66-23.312-11.137-23.804-11.244
		c-0.625-0.129-1.236,0.275-1.365,0.9c-0.129,0.625,0.275,1.236,0.9,1.365c0.112,0.031,11.802,2.502,22.939,10.874l0.128,0.085
		c1.886,1.433,3.63,2.936,5.194,4.465c8.901,8.63,13.953,19.556,15.014,32.481c0.063,0.81,0.114,1.639,0.152,2.488
		c0.011,0.345,0.181,0.653,0.435,0.853C337.691,446.541,337.954,446.638,338.248,446.623z M329.923,489.627
		c1.785-10.561,2.394-20.351,1.825-29.119c-0.519-7.814-1.991-15.014-4.349-21.406c-6.311-17.01-18.9-28.738-37.423-34.862
		c-5.15-1.705-10.685-2.955-16.445-3.692c-12.104-1.579-21.473-0.595-22.686-0.453c-2.126,0.07-3.413,1.04-4.122,1.842
		c-1.581,1.789-1.637,4.269-1.59,5.254c-5.247,27.12-1.992,48.616,9.662,63.904c2.876,3.777,6.105,6.99,9.555,9.723
		c17.401,13.832,40.246,15.541,49.827,16.267c1.026,0.082,1.877,0.138,2.518,0.206c5.037,0.526,8.758-0.34,11.036-2.567
		C329.701,492.791,329.915,490.524,329.923,489.627z"/>
	<path class="st1" d="M339.349,445.406c0.036,0.64-0.461,1.18-1.101,1.216c-0.294,0.015-0.556-0.081-0.771-0.247
		c-0.253-0.2-0.424-0.508-0.435-0.853c-0.038-0.849-0.089-1.678-0.152-2.488c-1.061-12.926-6.113-23.851-15.014-32.481
		c-1.564-1.529-3.308-3.033-5.194-4.465l-0.128-0.085c-11.138-8.372-22.827-10.843-22.939-10.874c-0.625-0.129-1.03-0.74-0.9-1.365
		c0.129-0.625,0.74-1.03,1.365-0.9c0.491,0.107,12.253,2.584,23.804,11.244c0.089,0.06,0.167,0.119,0.205,0.154
		c1.945,1.469,3.767,3.043,5.399,4.63c9.314,9.033,14.592,20.459,15.707,33.953C339.254,443.675,339.312,444.537,339.349,445.406z"
		/>
	<path class="st1" d="M331.748,460.508c0.569,8.768-0.04,18.558-1.825,29.119c-0.008,0.897-0.222,3.164-2.191,5.096
		c-2.278,2.228-5.999,3.094-11.036,2.567c-0.641-0.068-1.492-0.124-2.518-0.206c-9.581-0.726-32.426-2.436-49.827-16.267
		c-3.45-2.732-6.679-5.946-9.555-9.723c-11.654-15.288-14.909-36.783-9.662-63.904c-0.047-0.986,0.009-3.465,1.59-5.254
		c0.709-0.803,1.997-1.773,4.122-1.842c1.213-0.141,10.583-1.126,22.686,0.453c5.759,0.737,11.295,1.987,16.445,3.692
		c18.523,6.123,31.113,17.852,37.423,34.862C329.757,445.494,331.229,452.694,331.748,460.508z M325.327,489.067
		c1.48-8.678,2.136-16.783,1.966-24.189c-15.569,16.17-40.401,18.802-57.306,5.37c-18.026-14.316-20.317-41.55-5.096-60.695
		c1.366-1.725,2.846-3.325,4.422-4.822c-10.301-0.958-17.931-0.047-18.016-0.033l-0.252,0.019c-0.617,0.007-0.78,0.201-0.849,0.268
		c-0.395,0.445-0.502,1.521-0.439,2.101l0.032,0.337l-0.064,0.36c-5.054,25.906-2.114,46.266,8.746,60.512
		c16.146,21.173,45.139,23.362,56.048,24.176c1.088,0.087,1.98,0.157,2.652,0.228c3.506,0.367,6.105-0.088,7.329-1.283
		c0.814-0.804,0.806-1.765,0.806-1.765l-0.026-0.295L325.327,489.067z M327.173,461.579c-0.019-0.252-0.017-0.513-0.036-0.765
		c-0.396-5.934-1.38-11.472-2.899-16.526c-0.935,1.576-1.971,3.111-3.136,4.572c-11.396,14.353-30.308,18.363-42.156,8.945
		c-11.849-9.407-12.219-28.743-0.823-43.086c2.131-2.69,4.567-5.049,7.232-7.054c-3.96-1.118-8.121-1.983-12.425-2.537
		c-0.185-0.027-0.362-0.043-0.547-0.07c-2.061,1.788-3.972,3.766-5.69,5.93c-14.421,18.152-12.291,43.921,4.741,57.448
		C287.959,481.573,312.559,478.398,327.173,461.579z M323.265,441.298c-0.066-0.194-0.131-0.398-0.208-0.593
		c-3.37-9.083-8.712-16.537-15.961-22.304c-5.214-4.133-11.413-7.405-18.57-9.771c-0.132-0.043-0.254-0.075-0.376-0.117
		c-3.079,2.082-5.836,4.643-8.214,7.644c-10.607,13.349-10.407,31.218,0.447,39.836c10.854,8.628,28.311,4.78,38.917-8.569
		C320.831,445.495,322.154,443.443,323.265,441.298z"/>
	<path class="st6" d="M327.294,464.878c0.169,7.407-0.487,15.511-1.966,24.189l-0.047,0.288l0.026,0.295
		c0,0,0.008,0.961-0.806,1.765c-1.224,1.195-3.823,1.65-7.329,1.283c-0.672-0.071-1.564-0.141-2.652-0.228
		c-10.909-0.814-39.902-3.004-56.048-24.176c-10.86-14.245-13.8-34.606-8.746-60.512l0.064-0.36l-0.032-0.337
		c-0.063-0.58,0.045-1.656,0.439-2.101c0.069-0.067,0.232-0.261,0.849-0.268l0.252-0.019c0.085-0.013,7.715-0.924,18.016,0.033
		c-1.575,1.497-3.055,3.097-4.422,4.822c-15.22,19.145-12.93,46.38,5.096,60.695C286.893,483.68,311.725,481.048,327.294,464.878z"
		/>
	<path class="st4" d="M327.137,460.813c0.019,0.252,0.017,0.513,0.036,0.765c-14.614,16.819-39.214,19.994-55.738,6.858
		c-17.032-13.527-19.162-39.296-4.741-57.448c1.719-2.163,3.63-4.142,5.69-5.93c0.185,0.027,0.362,0.043,0.547,0.07
		c4.304,0.554,8.464,1.419,12.425,2.537c-2.665,2.005-5.101,4.364-7.232,7.054c-11.395,14.342-11.025,33.679,0.823,43.086
		c11.848,9.417,30.76,5.407,42.156-8.945c1.165-1.461,2.201-2.997,3.136-4.572C325.757,449.341,326.742,454.879,327.137,460.813z"/>
	<path class="st7" d="M323.058,440.705c0.076,0.195,0.142,0.399,0.208,0.593c-1.112,2.145-2.434,4.197-3.965,6.126
		c-10.607,13.349-28.063,17.197-38.917,8.569c-10.855-8.618-11.054-26.488-0.447-39.836c2.379-3.001,5.135-5.562,8.214-7.644
		c0.121,0.042,0.244,0.074,0.376,0.117c7.158,2.366,13.357,5.638,18.57,9.771C314.345,424.168,319.688,431.622,323.058,440.705z"/>
	<path class="st3" d="M250.902,605.625c0.134,0.137,0.256,0.284,0.388,0.442c-5.673,3.185-11.285,6.377-16.793,9.587
		c-14.341,6.237-42.44,19.652-64.074,37.323c-0.247,0.197-0.29,0.559-0.083,0.807c0.028,0.034,0.057,0.068,0.086,0.091
		c0.204,0.165,0.507,0.171,0.721-0.008c17.385-14.19,38.948-25.624,54.143-32.766c-19.29,11.586-37.077,23.631-51.736,37.232
		c-3.612,0.114-7.713-0.6-12.147-2.032c-1.155-3.758,0.035-7.931,3.167-10.489c2.511-2.04,5.237-4.143,8.098-6.235
		c3.196-2.343,6.635-4.707,10.483-7.211c0.023-0.019,0.044-0.027,0.056-0.047c0.032-0.008,0.065-0.026,0.087-0.044
		c27.711-17.928,56.063-28.699,57.253-29.156c0.767-0.286,1.556-0.466,2.358-0.56C245.777,603.88,248.462,604.905,250.902,605.625z"
		/>
	<path class="st7" d="M217.947,587.253c7.574,5.63,15.063,10.354,21.742,13.742c-1.416,0.541-29.478,11.223-57.092,28.993
		c-5.135-2.571-9.769-5.253-14.111-8.159c21.715-13.237,42.177-22.766,42.472-22.906
		C215.577,596.78,218.203,592.068,217.947,587.253z"/>
	<path class="st3" d="M215.279,585.228c1.302,4.564-0.858,9.538-5.292,11.603c-0.414,0.192-41.676,19.397-69.476,41.326
		c-2.383,1.884-5.393,2.501-8.197,1.883c-2.277-1.729-4.554-3.573-6.803-5.498c-0.752-1.623-1.049-3.425-0.833-5.253
		c0.297-2.604,1.602-4.93,3.67-6.56c29.406-23.194,71.579-42.891,73.366-43.722c1.58-0.735,3.263-0.991,4.89-0.855
		c2.075,1.773,4.152,3.516,6.246,5.186C213.659,583.975,214.468,584.612,215.279,585.228z M206.085,588.441
		c0.294-0.13,0.418-0.474,0.288-0.768c-0.141-0.284-0.484-0.419-0.768-0.278c-0.425,0.202-42.912,20.017-71.532,42.592
		c-0.258,0.196-0.301,0.558-0.105,0.815c0.039,0.035,0.067,0.069,0.096,0.092c0.204,0.165,0.507,0.171,0.72,0.002
		C163.303,608.407,205.66,588.643,206.085,588.441z"/>
	<path class="st1" d="M206.373,587.674c0.13,0.294,0.005,0.637-0.288,0.768c-0.425,0.202-42.782,19.966-71.3,42.456
		c-0.214,0.169-0.516,0.162-0.72-0.002c-0.029-0.023-0.057-0.057-0.096-0.092c-0.196-0.258-0.153-0.619,0.105-0.815
		c28.62-22.576,71.106-42.39,71.532-42.592C205.889,587.254,206.232,587.389,206.373,587.674z"/>
	<path class="st7" d="M204.047,575.929c-1.121,0.16-2.236,0.488-3.315,0.986c-1.383,0.638-27.091,12.649-52.373,28.875
		c-5.625-5.245-10.792-10.826-15.409-16.596c24.538-11.428,45.038-22.999,46.226-23.675c3.399-1.928,5.507-5.278,6.009-8.887
		c3.979,4.742,7.918,8.886,11.37,12.287C198.991,571.319,201.505,573.664,204.047,575.929z"/>
	<path class="st3" d="M182.947,553.893c0.411,3.785-1.407,7.63-4.916,9.622c-1.638,0.918-40.461,22.836-75.537,36.166
		c-2.638,1.005-5.572,0.783-8.035-0.503c-1.934-2.993-3.694-5.938-5.271-8.836c0.069-3.898,2.465-7.556,6.324-9.025
		c33.205-12.611,71.217-33.987,72.833-34.896c2.278-1.298,4.927-1.624,7.453-0.917c0.398,0.098,0.772,0.237,1.134,0.394
		C178.894,548.695,180.918,551.372,182.947,553.893z M173.472,555.463c0.275-0.153,0.369-0.51,0.217-0.784
		c-0.163-0.276-0.51-0.369-0.784-0.217c-0.396,0.225-39.672,22.417-74.108,35.491c-0.293,0.12-0.448,0.45-0.329,0.753
		c0.033,0.097,0.099,0.176,0.176,0.245c0.156,0.118,0.372,0.159,0.567,0.082C133.734,577.926,173.076,555.688,173.472,555.463z"/>
	<path class="st2" d="M180.368,631.437c-3.086,2.04-5.924,3.998-8.582,5.93c-4.62-2.263-9.491-5.092-14.484-8.433
		c2.977-1.987,6-3.918,9.007-5.777C170.647,626.115,175.278,628.839,180.368,631.437z"/>
	<path class="st7" d="M174.95,542.974c-2.667-0.407-5.373,0.081-7.75,1.433c-1.21,0.685-23.168,13.023-48.079,24.427
		c-0.91-2.305-1.872-4.49-2.821-6.591c-1.251-2.806-2.431-5.47-3.399-8.292c25.856-8.094,46.694-18.309,47.83-18.875
		c2.906-1.43,4.974-3.885,6.011-6.705C169.111,533.492,171.929,538.381,174.95,542.974z"/>
	<path class="st1" d="M173.689,554.679c0.153,0.275,0.058,0.632-0.217,0.784c-0.396,0.225-39.739,22.463-74.262,35.571
		c-0.195,0.076-0.41,0.036-0.567-0.082c-0.077-0.07-0.143-0.149-0.176-0.245c-0.119-0.303,0.036-0.634,0.329-0.753
		c34.437-13.074,73.712-35.266,74.108-35.491C173.179,554.309,173.526,554.403,173.689,554.679z"/>
	<path class="st7" d="M169.705,638.913c-2.305,1.714-4.537,3.434-6.599,5.117c-3.435,2.792-4.967,7.174-4.279,11.36
		c-7.212-2.695-15.165-7.126-23.167-12.868c2.234-0.227,4.408-1.076,6.284-2.546c4.18-3.299,8.668-6.539,13.281-9.653
		C160.205,633.695,165.061,636.575,169.705,638.913z"/>
	<path class="st2" d="M144.31,653.604c8.871,5.026,17.361,8.243,24.663,9.119c-11.216,11.185-20.305,23.448-26.391,37.371
		c-3.594-1.127-11.923-3.933-22.492-8.767c5.932-0.26,11.946-2.705,17.181-7.287c0.431-0.379,0.52-1.018,0.208-1.495
		c-0.321-0.488-0.942-0.669-1.465-0.424c-2.66,1.254-9.515,3.644-15.536-1.136c-7.298-5.793-8.628-12.364-3.766-18.493
		c3.343-4.209,14.473-8.052,21.518-2.46c5.446,4.332,5.134,10.588,4.742,13.09c-0.082,0.567,0.255,1.109,0.804,1.273
		c0.548,0.175,1.135-0.086,1.379-0.596C148.52,666.813,148.139,659.784,144.31,653.604z M135.34,673.719
		c0.15-0.623-0.232-1.253-0.856-1.392c-1.502-0.365-3.219-1.125-4.845-1.96c1.94-2.415,3.648-4.349,3.673-4.388
		c0.429-0.473,0.38-1.208-0.094-1.627c-0.501-0.463-1.208-0.38-1.638,0.103c-0.128,0.145-1.964,2.224-4,4.777
		c-2.172-1.271-3.812-2.42-3.841-2.444c-0.52-0.37-1.241-0.247-1.611,0.273c-0.359,0.511-0.254,1.199,0.224,1.576
		c0.02,0.012,0.04,0.024,0.049,0.036c0.138,0.096,1.669,1.173,3.751,2.404c-1.017,1.328-1.997,2.702-2.743,3.919
		c-0.317,0.504-0.198,1.151,0.261,1.506c0.028,0.034,0.068,0.058,0.107,0.083c0.544,0.331,1.259,0.165,1.59-0.379
		c0.757-1.216,1.77-2.618,2.822-3.985c1.874,0.983,3.931,1.909,5.76,2.355C134.572,674.714,135.191,674.332,135.34,673.719z"/>
	<path class="st3" d="M165.158,524.743c-0.192,3.417-2.163,6.643-5.452,8.269c-1.321,0.643-29.432,14.422-60.942,22.581l-0.01-0.001
		c-0.001,0.01-0.001,0.01-0.001,0.01c-3.911,1.005-7.869,1.944-11.845,2.745c-2.839,0.569-5.782-0.134-8.062-1.946
		c-0.799-0.636-1.492-1.397-2.053-2.241c-0.469-3.258-0.733-6.361-0.854-9.306c0.237-0.542,0.514-1.071,0.84-1.563
		c1.449-2.187,3.661-3.68,6.234-4.2c33.664-6.807,67.657-23.533,67.995-23.701c3.517-1.73,7.59-1.165,10.474,1.13
		c0.39,0.307,0.744,0.662,1.087,1.027C163.321,519.984,164.19,522.391,165.158,524.743z M155.619,524.72
		c0.284-0.141,0.399-0.486,0.258-0.781c-0.132-0.273-0.486-0.399-0.77-0.257c-0.35,0.177-35.561,17.452-70.257,24.469
		c-0.309,0.066-0.514,0.371-0.447,0.68c0.019,0.137,0.102,0.26,0.199,0.342c0.138,0.096,0.3,0.142,0.48,0.116
		C119.916,542.232,155.258,524.897,155.619,524.72z"/>
	<path class="st7" d="M159.66,495.331c-0.354,6.263,0.354,12.434,1.851,18.425c-3.412-1.998-7.726-2.313-11.527-0.442
		c-0.241,0.125-18.339,9.02-41.086,16.433c-0.06-4.442,0.277-8.88,1.011-13.22C129.738,510.565,146.337,503.486,159.66,495.331z"/>
	<path class="st4" d="M138.44,650.038c5.144,4.91,7.377,10.602,6.559,16.573c-0.818-3.32-2.643-6.251-5.332-8.393
		c-8.429-6.688-21.001-1.899-24.757,2.837c-5.72,7.19-4.209,15.114,4.131,21.742c3.819,3.037,7.891,3.612,11.303,3.282
		c-5.277,2.845-10.997,3.646-16.322,2.374c-3.068-1.518-6.27-3.184-9.561-5.015c-5.573-4.552-9.056-10.043-9.854-15.679
		c-0.748-5.266,0.82-10.512,4.517-15.17c7.228-9.101,21.977-11.971,32.543-7.221C133.93,647.023,136.191,648.583,138.44,650.038z"/>
	<path class="st1" d="M155.877,523.94c0.141,0.294,0.026,0.639-0.258,0.781c-0.36,0.176-35.702,17.512-70.537,24.569
		c-0.18,0.026-0.343-0.02-0.48-0.116c-0.097-0.082-0.18-0.204-0.199-0.342c-0.066-0.309,0.139-0.614,0.447-0.68
		c34.696-7.017,69.907-24.291,70.257-24.469C155.391,523.541,155.745,523.667,155.877,523.94z"/>
	<path class="st3" d="M141.946,704.734c-3.273,7.723-8.914,12.749-15.442,13.603c-4.966,0.66-9.652-1.327-12.24-5.172
		c-3.185-4.755-2.859-11.626,0.859-19.069C128.179,700.291,138.431,703.656,141.946,704.734z"/>
	<path class="st1" d="M134.484,672.326c0.624,0.14,1.006,0.769,0.856,1.392c-0.149,0.613-0.768,0.996-1.392,0.856
		c-1.829-0.446-3.885-1.372-5.76-2.355c-1.052,1.367-2.065,2.769-2.822,3.985c-0.331,0.544-1.045,0.71-1.59,0.379
		c-0.04-0.024-0.079-0.049-0.107-0.083c-0.459-0.354-0.578-1.002-0.261-1.506c0.746-1.217,1.726-2.59,2.743-3.919
		c-2.082-1.231-3.613-2.308-3.751-2.404c-0.009-0.011-0.029-0.023-0.049-0.036c-0.478-0.377-0.583-1.065-0.224-1.576
		c0.37-0.52,1.091-0.643,1.611-0.273c0.029,0.023,1.669,1.173,3.841,2.444c2.036-2.552,3.872-4.631,4-4.777
		c0.43-0.483,1.137-0.566,1.638-0.103c0.474,0.418,0.523,1.154,0.094,1.627c-0.024,0.04-1.733,1.974-3.673,4.388
		C131.265,671.202,132.982,671.962,134.484,672.326z"/>
	<path class="st2" d="M146.375,607.072c-3.016,1.963-6.006,3.98-8.937,6.045c-6.254-5.793-11.944-11.942-16.925-18.319
		c3.466-1.505,6.904-3.054,10.269-4.599C135.443,596.067,140.675,601.737,146.375,607.072z"/>
	<path class="st7" d="M135.51,614.478c-2.956,2.104-5.832,4.257-8.597,6.441c-2.55,2.005-4.156,4.888-4.539,8.1
		c-0.105,0.94-0.094,1.86,0.001,2.777c-5.428-4.883-10.695-10.274-15.575-16.037c-3.851-4.543-7.227-9.023-10.226-13.405
		c2.225,0.451,4.565,0.317,6.738-0.511c4.972-1.891,10.012-3.954,15.007-6.094C123.371,602.258,129.142,608.55,135.51,614.478z"/>
	<path class="st2" d="M126.316,641.254c-10.469-1.996-22.389,1.578-28.993,9.889c-4.109,5.174-5.836,11.032-5,16.943
		c0.532,3.837,2.189,7.588,4.779,11.057c-7.015-4.295-14.239-9.298-21.235-15.084c-10.349-8.552-19.045-17.842-26.044-27.784
		c5.59,4.125,11.882,6.017,18.335,5.428c7.431-0.678,14.509-4.625,19.431-10.832c5.862-7.376,8.478-14.991,7.901-22.038
		c2.378,3.273,4.952,6.573,7.783,9.918C110.418,627.192,118.294,634.801,126.316,641.254z"/>
	<path class="st2" d="M114.2,563.193c0.948,2.111,1.921,4.296,2.81,6.6c-3.232,1.463-6.494,2.903-9.772,4.299
		c-2.785-5.481-5.031-11.038-6.695-16.564c3.433-0.913,6.83-1.881,10.147-2.898C111.698,557.581,112.903,560.32,114.2,563.193z"/>
	<path class="st3" d="M108.666,690.905c-3.917,7.457-9.911,11.762-16.688,11.904c-5.607,0.122-10.755-2.878-13.105-7.63
		c-2.811-5.661-1.459-12.92,3.661-20.164C91.459,681.413,100.444,686.679,108.666,690.905z"/>
	<path class="st2" d="M107.443,517.256c-0.663,4.356-0.957,8.788-0.846,13.235c-3.159,1-6.399,1.972-9.686,2.877
		c0.01-4.519,0.438-9.054,1.249-13.543c2.041-0.526,4.096-1.083,6.153-1.67C105.373,517.863,106.403,517.559,107.443,517.256z"/>
	<path class="st7" d="M98.299,558.099c1.695,5.644,3.973,11.309,6.802,16.887c-3.483,1.462-6.97,2.86-10.407,4.169
		c-3.643,1.385-6.215,4.337-7.279,7.802c-5.221-10.325-8.288-19.975-9.937-28.694c2.799,2.193,6.406,3.061,9.894,2.351
		C91.031,559.867,94.687,559.026,98.299,558.099z"/>
	<path class="st4" d="M91.975,603.819c2.761,7.838,0.747,16.885-6.187,25.616c-4.543,5.709-11.04,9.343-17.84,9.963
		c-6.653,0.613-13.132-1.64-18.756-6.552c-1.887-1.652-3.535-3.408-4.927-5.235c-1.629-2.777-3.13-5.595-4.501-8.454
		c-2.528-7.765-1.092-15.946,4.588-22.576c9.039-10.546,28.602-12.388,39.505-3.734c1.1,0.882,2.081,1.816,2.987,2.774
		C88.408,598.32,90.115,601.053,91.975,603.819z"/>
	<path class="st7" d="M95.702,520.46c-0.759,4.494-1.135,9.022-1.102,13.535c-3.978,1.052-8.011,2.015-12.041,2.832
		c-2.626,0.526-4.952,1.893-6.686,3.877c0.043-6.281,0.761-11.708,1.678-16.104C83.357,523.421,89.452,522.048,95.702,520.46z"/>
	<path class="st3" d="M75.515,669.717c0.672,0.541,1.346,1.05,2.02,1.57c-4.775,6.899-10.947,10.28-17.174,9.292
		c-4.962-0.78-8.871-4.326-9.983-9.03c-1.35-5.769,1.651-11.972,8.265-17.265c4.366,4.621,9.113,9.067,14.283,13.332
		C73.781,668.329,74.647,669.033,75.515,669.717z"/>
	<path class="st2" d="M71.851,551.993c1.267,11.107,4.694,23.953,11.894,37.922c-12.164-8.224-31.618-5.965-41.148,5.163
		c-4.083,4.769-6.173,10.25-6.363,15.849c-7.011-18.274-9.107-38.266-6.287-59.644c1.218,4.682,3.466,8.59,6.601,11.346
		c0.222,0.198,0.456,0.385,0.69,0.574c3.829,3.048,8.687,4.393,14.109,3.889C60.105,566.294,68.013,559.968,71.851,551.993z"/>
	<path class="st4" d="M71.361,536.665c-0.16,3.055-0.174,6.342,0.024,9.836c-2.308,9.178-10.87,17.438-20.249,18.296
		c-5.105,0.46-9.627-0.908-13.063-3.91c-4.122-3.617-6.541-9.566-6.825-16.743c-0.013-0.325-0.015-0.649-0.007-0.971
		c0.447-2.413,0.957-4.841,1.532-7.285c0.801-1.828,1.899-3.473,3.209-4.921c0.906-0.086,1.96-0.2,3.162-0.332
		c-0.529,1.591-0.798,3.415-0.617,5.467c0.415,4.558,1.844,8.048,4.231,10.413c0.269,0.254,0.56,0.51,0.842,0.733
		c2.338,1.86,5.398,2.667,8.913,2.347c5.296-0.495,14.853-7.402,13.998-16.812c-0.189-2.074-0.871-4.014-1.936-5.749
		c0.34-0.063,0.68-0.127,1.029-0.179c0.069,0.048,0.126,0.105,0.195,0.153C68.549,529.282,70.423,532.583,71.361,536.665z"/>
	<path class="st2" d="M64.216,532.995c0.738,8.157-7.914,13.935-11.903,14.297c-3.316,0.307-5.979-0.496-7.935-2.426
		c-1.984-1.964-3.185-4.984-3.536-8.972c-0.2-2.075,0.176-3.93,0.896-5.557c2.743-0.317,6.006-0.734,9.696-1.247
		c-0.14,0.749-0.326,1.881-0.429,3.26c-1.175-0.053-2.471-0.149-3.887-0.308c-0.631-0.067-1.204,0.382-1.272,1.024
		c-0.047,0.403,0.127,0.794,0.429,1.03c0.166,0.13,0.366,0.221,0.584,0.24c1.478,0.164,2.826,0.265,4.053,0.323
		c-0.009,1.377,0.099,2.848,0.385,4.304c0.048,0.276,0.205,0.509,0.409,0.674c0.252,0.211,0.599,0.304,0.94,0.231
		c0.627-0.121,1.037-0.732,0.916-1.358c-0.252-1.265-0.343-2.568-0.338-3.789c3.444,0.007,5.439-0.346,5.566-0.366
		c0.626-0.111,1.045-0.71,0.925-1.347c-0.111-0.626-0.711-1.035-1.337-0.924c-0.031-0.003-1.865,0.312-5.06,0.317
		c0.179-1.988,0.497-3.432,0.549-3.667c2.581-0.373,5.324-0.805,8.238-1.284C63.148,528.859,63.997,530.679,64.216,532.995z"/>
	<path class="st3" d="M37.866,625.637c4.18,7.851,9.276,15.377,15.305,22.517c-9.436,4.977-17.369,4.263-21.83,1.753
		c-3.379-1.891-5.313-4.998-5.32-8.517C26.022,636.035,30.311,630.366,37.866,625.637z"/>
	<path class="st3" d="M32.111,613.135c0.798,2.034,1.662,4.043,2.578,6.047c-8.542,3.397-16.234,3.259-20.892-0.438
		c-0.029-0.023-0.049-0.036-0.068-0.058c-2.972-2.355-4.323-5.797-3.597-9.573c1.174-6.21,7.235-11.616,16.442-14.859
		C27.893,600.719,29.738,607.013,32.111,613.135z"/>
	<path class="st3" d="M24.43,560.162c-0.59,8.768-0.345,17.299,0.738,25.571c-9.471,2.113-16.927,0.628-20.66-4.176
		c-2.722-3.512-2.924-8.343-0.516-12.605C7.457,562.812,15.012,559.608,24.43,560.162z"/>
	<path class="st3" d="M29.336,530.569c-2.156,8.304-3.65,16.438-4.468,24.382c-13.629,0.873-20.276-3.348-20.796-8.124
		C3.413,540.796,12.063,533.306,29.336,530.569z"/>
</g>
</svg>
