<?xml version="1.0" encoding="utf-8"?>
<!-- Generator: Adobe Illustrator 19.1.0, SVG Export Plug-In . SVG Version: 6.00 Build 0)  -->
<svg version="1.1" id="final_comp" xmlns="http://www.w3.org/2000/svg" xmlns:xlink="http://www.w3.org/1999/xlink" x="0px" y="0px"
	 viewBox="-54 68.221 790.988 764.779" style="enable-background:new -54 68.221 790.988 764.779;" xml:space="preserve">
<style type="text/css">
	.st0{opacity:0.23;fill:#6D4529;enable-background:new    ;}
	.st1{fill:#EDCCB4;}
	.st2{fill:#F28B6D;}
	.st3{fill:#A45060;}
	.st4{fill:#513D5F;}
	.st5{fill:#EFC986;}
	.st6{fill:#233E66;}
</style>
<path class="st0" d="M736.836,739.776c-13.153-46.476-129.191-16.261-129.191-16.261s-92.444-20.405-161.419-20.996
	c-69.893-0.599-78.364,52.415-206.955,49.866c-125.143-2.48-172.374-11.547-227.638,2.028
	c-51.086,12.549-79.402,83.951,16.955,78.266c62.5-3.687,138.243-22.816,187.965-16.834c50.541,6.08,84.691,13.823,205.241,16.483
	c120.55,2.661,38.897-24.078,38.897-24.078c24.736-19.035,164.596-26.061,164.596-26.061
	C651.343,817.392,741.176,755.113,736.836,739.776z M701.984,743.645c-7.807,1.228-14.862-1.229-15.758-5.489
	s4.706-8.71,12.513-9.938c7.807-1.228,14.862,1.229,15.758,5.489S709.791,742.416,701.984,743.645z"/>
<path class="st1" d="M203.619,671.347c-4.841,0-13.271-3.349-23.128-9.186c-11.952-7.077-24.521-16.878-35.393-27.599
	c-14.915-14.705-39.359-43.911-35.49-74.298l0.058-0.45l0.375-0.253c15.26-10.288,25.625-22.297,30.807-35.691
	c0.723-1.596,70.497-154.849,85.897-173.114c13.233-15.683,26.076-44.139,35.453-64.917l0.524-1.16
	c2.455-5.429,4.773-10.558,6.786-14.751c0.349-0.717,0.691-1.482,1.078-2.412c2.11-4.917,4.289-9.991,15.149-14.509
	c13.774-5.724,46.439-20.6,59.843-26.73l0.469-0.214l0.345,0.09c1.83,0.478,6.188,2.037,7.132,6.176
	c1.463,6.333-4.445,19.317-40.896,45.198l-0.336,0.235l-0.135,0.399c-3.911,11.494-12.14,34.388-15.295,38.783l-0.089,0.124
	l-3.432,2.571c-4.744,3.551-8.171,6.117-9.198,6.781c-3.489,2.269-9.745,4.649-13.164,5.866l-0.186,0.066
	c-0.376,0.129-0.645,0.364-0.8,0.677s-0.179,0.669-0.066,1c0.083,0.246,0.227,0.451,0.425,0.609
	c0.226,0.177,0.515,0.277,0.807,0.277c0.145,0,0.29-0.024,0.431-0.072c0.111-0.035,9.224-3.117,13.994-6.23
	c1.166-0.764,5.062-3.68,10.036-7.412l0.171-0.128c16.75-12.521,47.914-35.814,61.965-43.018l0.305-0.201
	c0.737-0.546,7.911-5.606,20.86-6.889c3.857-0.383,10.351-1.327,17.868-2.42l1.478-0.215c9.048-1.333,24.195-3.563,35.954-4.746
	l0.358,1.961c-9.225,2.474-16.248,4.12-19.774,4.634c-14.744,2.104-24.028,12.101-24.416,12.525
	c-13.73,12.888-21.026,19.345-22.937,21.018l-0.093,0.077c-39.13,29.351-58.053,48.177-58.839,48.964
	c-0.242,0.247-0.376,0.579-0.375,0.929c0.001,0.347,0.138,0.671,0.384,0.912l-0.574,0.843l0.541-0.569l0.13-0.166
	c0.005,0.004,0.01,0.008,0.016,0.012l0.002-0.002l0.018,0.018c0.229,0.167,0.51,0.258,0.795,0.258c0.355,0,0.688-0.137,0.936-0.386
	c0.141-0.148,19.045-19.101,58.578-48.732l0.083-0.077c0.094-0.082,7.361-6.39,23.132-21.203l0.107-0.108
	c0.051-0.059,8.869-9.722,22.886-11.723c5.528-0.786,20.291-4.585,37.609-9.68l0.083-0.024l0.086-0.01l0.107-0.036l0.304-0.077
	c5.31-1.563,11.362-3.406,16.674-5.076l0.15-0.059c26.271-8.241,47.346-16.079,57.828-21.507l0.441-0.229l0.449,0.214
	c2.09,0.997,6.999,3.918,7.465,9.5c0.584,6.944-5.482,15.619-18.03,25.781c-10.704,8.669-24.133,16.81-33.514,22.112l-0.07,0.04
	l-6.621,2.454c-16.406,6.091-30.575,11.352-41.609,14.712c-24,7.32-34.752,22.653-35.898,24.377l-0.045,0.066l-0.054,0.059
	c-54.721,59.233-57.733,69.345-57.835,69.746c-0.085,0.341-0.033,0.695,0.146,0.994c0.178,0.296,0.464,0.506,0.805,0.59
	c0.117,0.03,0.228,0.044,0.336,0.044c0.57,0,1.077-0.375,1.233-0.912c0.456-1.226,5.742-12.953,57.366-68.83l0.083-0.089
	l0.062-0.097c1.114-1.675,11.43-16.379,34.576-23.432c11.326-3.47,25.682-8.8,42.305-14.971c6.47-2.41,13.472-5,20.913-7.731
	c1.595-0.582,3.218-1.173,4.861-1.754c0.433-0.166,0.888-0.331,1.344-0.496c0,0,5.358-1.937,6.523-2.353
	c13.804-4.936,26.537-9.29,38.928-13.309l0.259-0.084l0.265,0.059c1.611,0.355,5.475,1.562,6.57,5.101
	c1.424,4.708-1.47,14.375-23.322,33.725l-0.467,0.406c-0.627,0.557-1.273,1.122-1.949,1.697c-0.379,0.34-0.842,0.702-1.355,1.059
	l0,0c0.007,0-0.064,0.052-0.138,0.104l-0.097,0.069c-0.465,0.32-0.95,0.641-1.478,0.961c-0.059,0.042-0.167,0.107-0.275,0.171
	l-0.112,0.067c-0.554,0.324-1.11,0.638-1.698,0.963c-0.125,0.063-0.209,0.104-0.285,0.147c-0.563,0.298-1.137,0.594-1.74,0.881
	c-0.151,0.081-0.362,0.181-0.563,0.271c-0.677,0.33-1.407,0.674-2.177,1.019l-0.094,0.036c-2.862,1.283-6.15,2.601-8.987,3.721
	l-0.229,0.086l-0.174,0.163c-0.984,0.901-23.895,21.745-50.633,34.198c-0.246,0.118-0.51,0.213-0.776,0.306l-0.141,0.05
	c-2.781,0.933-5.123,2.35-7.994,11.245c-1.481,4.608-8.101,20.293-17.884,41.354l-0.058,0.124l-0.089,0.104
	c-0.159,0.187-0.263,0.409-0.306,0.66l-0.022,0.132l-0.057,0.122c-12.096,25.96-53.368,111.927-76.613,128.167
	c-0.588,0.413-0.729,1.239-0.312,1.84c0.072,0.106,0.145,0.183,0.225,0.24c0.264,0.211,0.549,0.31,0.843,0.31
	c0.269,0,0.526-0.082,0.745-0.236c7.565-5.29,30.232-28.467,77.261-129.216l0.074-0.16l0.125-0.125
	c16.78-17.882,42.83-29.446,66.353-29.446c6.864,0,13.309,0.966,19.153,2.873l0.093,0.03l0.084,0.047
	c0.845,0.47,2.818,1.789,2.893,3.868c0.073,1.698-1.214,5.347-10.651,10.619c-22.491,12.57-54.285,52.126-70.168,75.646
	c-1.278,1.897-2.707,4.044-4.285,6.433c-19.521,29.487-60.143,90.844-131.492,134.561c-14.603,8.958-29.878,15.856-44.651,22.528
	l-0.245,0.11c-12.573,5.688-25.574,11.567-38.063,18.658c-6.043,3.422-12.044,6.782-17.996,10.104
	c-1.56,0.884-3.116,1.752-4.672,2.62l-0.18,0.101l-0.224,0.031C204.209,671.332,203.926,671.347,203.619,671.347z M205.784,468.882
	c-4.916,0-8.209,0.352-8.819,0.422c-1.858,0.064-2.917,0.86-3.493,1.517c-1.27,1.439-1.386,3.469-1.343,4.551l0.005,0.115
	l-0.022,0.114c-5.184,26.832-1.994,48.062,9.483,63.104c2.673,3.521,5.828,6.734,9.377,9.554
	c17.15,13.632,39.657,15.322,49.268,16.045c0.462,0.04,0.865,0.071,1.235,0.1c0.507,0.039,0.953,0.073,1.333,0.114
	c0.912,0.096,1.793,0.146,2.615,0.146c3.396,0,5.956-0.82,7.608-2.437c1.619-1.586,1.879-3.429,1.889-4.386l0.001-0.079l0.013-0.077
	c1.772-10.456,2.384-20.176,1.818-28.889c-0.512-7.695-1.955-14.805-4.29-21.128c-6.199-16.711-18.579-28.236-36.796-34.257
	c-5.127-1.702-10.598-2.93-16.262-3.647C214.929,469.178,210.348,468.882,205.784,468.882z M239.845,462.057
	c-0.063,0-0.139,0.045-0.156,0.129c-0.019,0.091,0.05,0.17,0.126,0.187c1.295,0.289,12.606,2.98,23.336,11.05l0.097,0.065
	c1.92,1.451,3.701,2.979,5.33,4.567c9.077,8.801,14.228,19.942,15.309,33.114c0.062,0.826,0.112,1.665,0.152,2.524
	c0.001,0.034,0.002,0.075,0.069,0.129c0.031,0.003,0.057,0.005,0.079,0.005c0.091,0,0.118-0.023,0.131-0.039
	c0.037-0.041,0.035-0.081,0.034-0.095c-0.041-0.878-0.1-1.738-0.16-2.55c-1.088-13.238-6.27-24.45-15.399-33.315
	c-1.656-1.605-3.442-3.137-5.308-4.551l-0.158-0.112c-10.693-8.016-21.392-10.652-23.429-11.1L239.845,462.057z"/>
<path class="st1" d="M558.32,278.161c-0.96-3.1-4.56-4.14-5.83-4.42c-13.78,4.47-26.82,8.98-38.9,13.3c-1.96,0.7-3.91,1.41-5.83,2.1
	c-0.68,0.25-1.36,0.49-2.04,0.75c-1.64,0.58-3.26,1.17-4.85,1.75c-7.44,2.73-14.44,5.32-20.91,7.73
	c-16.7,6.2-31.1,11.54-42.36,14.99c-23.76,7.24-33.92,22.86-34.03,23.02l-0.11,0.17l-0.14,0.15c-52.3,56.61-56.9,67.79-57.14,68.43
	c-0.34,1.17-1.57,1.87-2.77,1.56c-1.25-0.31-1.99-1.56-1.68-2.8c0.26-1.03,4.11-11.77,58.07-70.18
	c1.31-1.97,12.21-17.39,36.44-24.78c11.13-3.39,25.49-8.73,42.11-14.9c1.95-0.72,3.96-1.47,5.99-2.22
	c19.69-11.13,52.3-31.94,51.04-46.94c-0.42-5.03-4.95-7.75-6.9-8.68c-12.07,6.25-35.41,14.49-57.98,21.57
	c-0.03,0.01-0.05,0.03-0.09,0.04c-5.85,1.84-12.09,3.73-17.09,5.2l-0.01-0.01c-0.08,0.02-0.15,0.05-0.24,0.06
	c-17.37,5.11-32.12,8.91-37.75,9.71c-13.52,1.93-22.23,11.34-22.32,11.44l-0.13,0.13c-15.81,14.85-23.07,21.15-23.14,21.21
	l-0.12,0.11c-39.52,29.62-58.32,48.47-58.51,48.67c-0.84,0.84-2.17,0.9-3.09,0.18c-0.05-0.05-0.12-0.11-0.18-0.18
	c-0.91-0.89-0.91-2.35-0.02-3.26c0.19-0.19,19.18-19.23,58.95-49.06c0.73-0.64,7.96-6.96,22.89-20.97
	c0.96-1.05,10.3-10.74,25.01-12.84c3.5-0.51,10.6-2.18,19.66-4.61c-11.24,1.13-25.18,3.16-35.91,4.74
	c-8.19,1.19-15.26,2.23-19.39,2.64c-13.22,1.31-20.34,6.68-20.41,6.73l-0.35,0.23c-14,7.16-45.25,30.53-62.04,43.08
	c-5.37,4.03-8.93,6.69-10.09,7.45c-4.78,3.12-13.83,6.22-14.22,6.34c-0.77,0.26-1.58,0.1-2.18-0.37c-0.34-0.27-0.6-0.63-0.75-1.07
	c-0.41-1.21,0.24-2.52,1.45-2.93c0.08-0.04,8.88-3.05,13.17-5.84c1.05-0.68,4.93-3.59,9.86-7.28c0.82-0.62,1.7-1.27,2.59-1.94
	c2.85-3.97,10.58-25.06,15.16-38.52l0.24-0.71l0.6-0.42c37.9-26.91,41.64-39.22,40.5-44.16c-0.83-3.64-4.84-5.02-6.41-5.43
	c-5.73,2.62-44.62,20.41-60.02,26.81c-10.48,4.36-12.58,9.24-14.61,13.97c-0.35,0.84-0.71,1.66-1.1,2.46
	c-2.15,4.48-4.65,10.03-7.3,15.89c-9.41,20.85-22.31,49.4-35.6,65.15c-15.06,17.86-84,169.02-85.73,172.83
	c-5.28,13.65-15.71,25.73-31.18,36.16c-3.81,29.92,20.33,58.8,35.2,73.46c10.81,10.66,23.31,20.41,35.2,27.45
	c12.14,7.19,19.94,9.36,23.37,9.01c1.56-0.87,3.12-1.74,4.69-2.63c5.95-3.32,11.95-6.68,17.99-10.1
	c12.61-7.16,25.72-13.08,38.39-18.81c14.79-6.68,30.08-13.6,44.54-22.47c71.11-43.57,111.69-104.82,131.18-134.26
	c1.58-2.39,3.01-4.54,4.29-6.44c15.93-23.59,47.84-63.29,70.51-75.96c9.29-5.19,10.19-8.52,10.14-9.71
	c-0.06-1.67-1.95-2.79-2.38-3.03c-26.1-8.51-62.39,2.78-84.48,26.32l-0.01,0.01c-21.64,46.36-56.71,115.01-77.59,129.61
	c-0.85,0.6-1.98,0.54-2.75-0.08c-0.18-0.13-0.33-0.29-0.46-0.48c-0.73-1.05-0.48-2.5,0.56-3.23
	c20.01-13.98,54.81-81.69,76.28-127.77c0.07-0.41,0.24-0.8,0.53-1.14c9.5-20.45,16.3-36.45,17.84-41.24
	c3.01-9.33,5.57-10.86,8.61-11.88c0.28-0.1,0.56-0.19,0.83-0.32c27.16-12.65,50.14-33.81,50.37-34.02l0.32-0.3l0.4-0.15
	c3.37-1.33,6.35-2.54,8.95-3.71l0.09-0.03c0.76-0.34,1.48-0.68,2.18-1.02c0.18-0.08,0.37-0.17,0.54-0.26
	c0.59-0.28,1.15-0.57,1.68-0.85c0.09-0.05,0.19-0.1,0.29-0.15c0.58-0.32,1.13-0.63,1.66-0.94c0.13-0.08,0.26-0.15,0.39-0.24
	c0.51-0.31,0.98-0.62,1.43-0.93c0.08-0.06,0.16-0.11,0.23-0.17c0.46-0.32,0.9-0.66,1.28-1c0.67-0.57,1.31-1.13,1.94-1.69l0.46-0.4
	C557.81,290.901,559.43,281.831,558.32,278.161z M275.92,557.851c-0.01,0.89-0.22,3.16-2.19,5.09c-2.28,2.23-6,3.1-11.03,2.57
	c-0.65-0.07-1.5-0.12-2.52-0.21c-9.58-0.72-32.43-2.43-49.83-16.26c-3.45-2.74-6.68-5.95-9.55-9.73
	c-11.66-15.28-14.91-36.78-9.67-63.9c-0.04-0.99,0.01-3.46,1.59-5.25c0.71-0.81,2-1.78,4.13-1.85c1.21-0.14,10.58-1.12,22.68,0.46
	c5.76,0.73,11.3,1.98,16.45,3.69c18.52,6.12,31.11,17.85,37.42,34.86c2.36,6.39,3.83,13.59,4.35,21.41
	C278.32,537.501,277.71,547.291,275.92,557.851z M284.25,514.841c-0.3,0.02-0.56-0.08-0.77-0.24c-0.26-0.21-0.43-0.51-0.44-0.86
	c-0.04-0.85-0.09-1.68-0.15-2.49c-1.06-12.92-6.11-23.85-15.01-32.48c-1.57-1.53-3.31-3.03-5.2-4.46l-0.13-0.09
	c-11.13-8.37-22.82-10.84-22.94-10.87c-0.62-0.13-1.03-0.74-0.9-1.37c0.13-0.62,0.74-1.03,1.37-0.9c0.49,0.11,12.25,2.59,23.8,11.25
	c0.09,0.06,0.17,0.12,0.21,0.15c1.94,1.47,3.77,3.05,5.4,4.63c9.31,9.04,14.59,20.46,15.7,33.96c0.06,0.82,0.12,1.69,0.16,2.56
	C285.39,514.271,284.89,514.811,284.25,514.841z"/>
<path class="st2" d="M16.934,599.744c-0.838-1.694-1.906-3.201-3.174-4.479l-1.337-1.347l2.841-0.519
	c1.055-0.191,2.124-0.385,3.198-0.591l1.434-0.273l-0.262,1.436c-0.318,1.745-0.591,3.577-0.811,5.446l-0.393,3.353L16.934,599.744z
	"/>
<path class="st2" d="M18.65,593.791c-0.31,1.7-0.59,3.55-0.82,5.51c-0.89-1.8-2.02-3.39-3.36-4.74
	C15.84,594.311,17.24,594.061,18.65,593.791z"/>
<path class="st3" d="M574.349,348.145c-4.656,0-8.65-1.524-12.951-4.94c-3.218-2.559-6.484-6.122-9.708-10.588
	c-2.691-3.711-5.373-7.529-7.889-11.122c-1.747-2.477-3.517-4.976-5.295-7.474l-0.519-0.729l0.666-0.597
	c17.701-15.849,25.483-27.821,23.13-35.584c-1.847-6.077-8.98-7.011-9.283-7.047l-0.294-0.039l-0.252,0.089
	c-11.681,3.768-23.954,7.948-37.548,12.79l-0.609,0.217l-0.447-0.466c-0.479-0.498-0.955-0.985-1.424-1.463l-0.818-0.834l0.95-0.68
	c18.681-13.363,27.74-24.856,26.927-34.16c-0.749-8.441-9.21-11.783-10.173-12.136l-0.54-0.184l-0.507,0.273
	c-12.593,6.763-37.99,15.341-52.008,19.852c-0.979,0.312-4.577,0.836-5.441,0.857l-0.193,0.002c-2.025,0-6.772-0.667-9.422-1.064
	c-7.76-1.123-14.301-3.642-19.496-7.494c-2.583-1.898-5.883-5.072-6.917-9.401l-0.022-0.084
	c-3.146-18.579,6.246-36.938,28.694-56.217c20.12-17.287,49.86-34.238,88.395-50.383c50.448-21.157,103.721-35.46,124.282-40.627
	l1.278-0.321l-0.034,1.317c-2.323,87.905-13.989,154.958-34.674,199.296c-18.281,39.169-38.406,48.677-45.02,51.801
	C586.502,346.076,579.885,348.145,574.349,348.145z M621.898,118.294c-12.584,0-24.271,5.627-32.065,15.439
	c-6.789,8.545-9.843,19.238-8.6,30.108c1.244,10.871,6.635,20.593,15.179,27.377c7.299,5.799,16.085,8.864,25.408,8.864
	c12.584,0,24.275-5.629,32.076-15.443c14.029-17.671,11.079-43.459-6.578-57.485C640.014,121.358,631.224,118.294,621.898,118.294z"
	/>
<path class="st3" d="M551.74,130.461c-38.45,16.11-68.11,33.02-88.13,50.22c-22.17,19.04-31.44,37.1-28.38,55.2l0.03,0.11
	c0.96,4.02,4.09,7.03,6.54,8.83c5.07,3.76,11.46,6.21,18.99,7.3c0.87,0.13,7.35,1.11,9.5,1.06c0.8-0.02,4.28-0.53,5.16-0.81
	c20.82-6.7,41.32-14.13,51.84-19.78l0.89-0.48l0.97,0.33c0.41,0.15,10,3.63,10.83,12.99c0.85,9.72-8.33,21.46-27.34,35.06
	c0.47,0.48,0.95,0.97,1.43,1.47c11.71-4.17,24.28-8.51,37.55-12.79l0.48-0.17l0.52,0.07c0.33,0.04,8.09,1.07,10.12,7.75
	c2.51,8.28-5.17,20.28-23.42,36.62c1.78,2.5,3.55,5,5.3,7.48c2.71,3.87,5.27,7.51,7.88,11.11c3.19,4.42,6.4,7.91,9.52,10.39
	c8.66,6.88,16.45,6.36,34.74-2.32c6.54-3.09,26.44-12.54,44.54-51.32c20.62-44.2,32.26-111.1,34.58-198.9
	C653.12,95.601,601.29,109.681,551.74,130.461z M595.79,192.001c-18.1-14.37-21.12-40.79-6.74-58.89
	c14.37-18.09,40.78-21.11,58.89-6.74c18.09,14.37,21.11,40.79,6.74,58.89C640.3,203.351,613.89,206.381,595.79,192.001z"/>
<path class="st2" d="M574.362,362.041c-12.609,0-23.382-6.763-33.902-21.283c-2.75-3.81-5.549-7.785-8.018-11.292
	c-1.491-2.13-2.995-4.258-4.508-6.398l-1.905-2.697h1.535l0.005-0.005l0.17-0.002l0.333-0.167c0.65-0.325,1.28-0.65,1.861-0.964
	c0.005-0.006,0.064-0.038,0.123-0.068l0.051-0.037l0.049-0.022c0.618-0.341,1.203-0.673,1.751-1.006l0.038-0.038l0.117-0.062
	c0.578-0.359,1.121-0.726,1.63-1.085l0.233-0.233l0.092-0.004c0.417-0.314,0.804-0.623,1.176-0.939l0.832-0.705l0.63,0.89
	c1.089,1.535,2.169,3.067,3.246,4.594l1.755,2.486c2.65,3.782,5.249,7.479,7.914,11.172c3.405,4.679,6.839,8.412,10.203,11.093
	c4.771,3.786,9.216,5.474,14.409,5.474c5.965,0,13.409-2.271,24.139-7.365c6.827-3.23,27.599-13.061,46.263-53.07
	c21.074-45.14,32.849-113.567,34.996-203.381l0.04-1.71l-1.669,0.415c-21.035,5.206-75.575,19.669-127.604,41.481
	c-38.812,16.273-68.791,33.37-89.105,50.817c-23.237,19.987-32.908,39.173-29.565,58.652l0.062,0.277
	c1.216,5.023,4.974,8.691,7.91,10.88c5.56,4.113,12.5,6.796,20.626,7.972c0,0,0.776,0.104,0.964,0.126l0.177,1.949
	c-3.257,1.003-6.148,1.873-8.595,2.584l-0.137,0.04h-0.143c-0.07,0-0.2,0-0.357-0.038c-0.076-0.012-0.593-0.069-0.593-0.069
	c-0.267-0.038-0.528-0.055-0.79-0.072c-0.231-0.025-0.372-0.034-0.512-0.042c-0.284-0.019-0.572-0.029-0.86-0.038l-0.277-0.01
	c-0.265-0.015-0.484-0.019-0.707-0.022l-0.282-0.006l-0.131,0.004l-0.089,0.015l-0.019-0.01c-0.237-0.004-0.481-0.006-0.731-0.006
	c-0.918,0-1.913,0.026-2.977,0.069l-0.02,0.007l-0.255,0.01c-0.41,0.02-0.826,0.04-1.243,0.067c-0.126,0.002-0.187,0.007-0.249,0.01
	c-0.106,0.006-0.216,0.012-0.328,0.012l-1.149,0.078c-0.402,0.021-0.792,0.05-1.179,0.079l-0.973,0.073l-0.364-0.135
	c-14.79-8.201-17.541-20.227-17.807-21.571c-4.182-23.532,7.04-46.903,33.351-69.482c21.257-18.236,52.293-35.965,92.244-52.694
	c67.923-28.444,139.609-44.462,140.29-44.606c0.36-0.085,0.944-0.193,1.556-0.193c0.829,0,1.485,0.203,1.952,0.602
	c1.153,0.974,1.008,3.017,1.006,3.038l-0.009,0.143c-1.572,108.478-18.101,244.794-87.899,277.913
	C592.382,358.64,583.372,362.041,574.362,362.041z"/>
<path class="st2" d="M690.05,75.401l-0.01,0.16c-1.57,108.24-17.99,244.17-87.33,277.07c-21.34,10.13-40.69,16.18-61.44-12.46
	c-2.65-3.67-5.25-7.36-8.01-11.28c-1.75-2.5-3.52-5-5.3-7.52c0.01,0,0.01-0.01,0.02-0.01c0.19-0.09,0.36-0.18,0.54-0.27
	c0.66-0.33,1.3-0.66,1.89-0.98c0.08-0.05,0.16-0.08,0.23-0.13c0.67-0.37,1.3-0.73,1.89-1.09c0.01-0.01,0.02-0.02,0.04-0.03
	c0.63-0.39,1.22-0.79,1.77-1.18c0.01-0.01,0.02-0.02,0.03-0.02c0.53-0.39,1.01-0.77,1.47-1.16c1.68,2.37,3.34,4.73,5,7.08
	c2.72,3.88,5.3,7.55,7.92,11.18c3.45,4.74,6.94,8.54,10.39,11.29c10.16,8.06,19.78,7.64,39.6-1.77
	c6.91-3.27,27.94-13.25,46.74-53.55c21.14-45.28,32.94-113.84,35.09-203.78l0.07-3.02l-2.94,0.73
	c-21.05,5.21-75.63,19.68-127.75,41.53c-38.9,16.31-68.97,33.46-89.37,50.98c-23.52,20.23-33.31,39.71-29.9,59.58l0.07,0.32
	c1.3,5.37,5.23,9.19,8.29,11.47c5.69,4.21,12.79,6.96,21.08,8.16c0.32,0.04,0.65,0.09,0.99,0.13c-3.02,0.93-5.97,1.82-8.58,2.58
	c-0.04,0-0.08,0-0.12-0.01c-0.22-0.04-0.46-0.06-0.71-0.09c-0.28-0.04-0.58-0.06-0.88-0.08c-0.16-0.02-0.32-0.03-0.48-0.04
	c-0.29-0.02-0.59-0.03-0.89-0.04c-0.1,0-0.21-0.01-0.31-0.01c-0.32-0.02-0.68-0.02-1.03-0.03c-0.06,0.01-0.12,0-0.18,0.01
	c-1.17-0.02-2.48,0.01-3.91,0.07c-0.03,0.01-0.06,0.01-0.09,0.01c-0.43,0.02-0.87,0.04-1.31,0.07c-0.16,0-0.33,0.02-0.51,0.02
	c-0.4,0.03-0.8,0.05-1.22,0.08c-0.58,0.03-1.17,0.08-1.75,0.12c-0.08,0.01-0.14,0.01-0.21,0.02c-14.79-8.2-17.21-20.38-17.31-20.89
	c-4.11-23.13,7-46.2,33.02-68.53c21.18-18.17,52.12-35.84,91.98-52.53c68.08-28.51,139.4-44.4,140.11-44.55
	c0.72-0.17,2.02-0.35,2.65,0.19C689.97,73.691,690.09,74.891,690.05,75.401z"/>
<path class="st3" d="M-32.604,624.285c-12.774,0-17.84-4.714-18.321-9.126c-0.933-8.529,12.428-15.188,26.107-17.355l1.509-0.239
	l-0.385,1.479c-2.135,8.206-3.63,16.358-4.443,24.23l-0.087,0.842l-0.844,0.054C-30.278,624.246-31.468,624.285-32.604,624.285z"/>
<path class="st3" d="M-24.66,598.791c-2.16,8.3-3.65,16.44-4.47,24.38c-13.63,0.87-20.28-3.35-20.8-8.12
	C-50.59,609.021-41.94,601.531-24.66,598.791z"/>
<path class="st3" d="M-36.697,655.893c-6.091,0-10.788-1.901-13.583-5.499c-2.978-3.854-3.207-9.107-0.6-13.715
	c3.36-5.947,10.378-9.358,19.252-9.358c0.695,0,1.399,0.021,2.116,0.062l1.007,0.059l-0.068,1.007
	c-0.582,8.65-0.335,17.188,0.734,25.373l0.118,0.906l-0.892,0.199C-31.474,655.568-34.194,655.893-36.697,655.893z"/>
<path class="st3" d="M-28.83,653.951c-9.47,2.12-16.93,0.63-20.66-4.17c-2.72-3.52-2.93-8.35-0.52-12.61
	c3.47-6.14,11.02-9.34,20.44-8.79C-30.16,637.151-29.91,645.681-28.83,653.951z"/>
<path class="st3" d="M-30.774,690.848c-4.021,0-7.497-1.073-10.049-3.104l-0.124-0.099l-0.012-0.015
	c-3.249-2.606-4.667-6.424-3.894-10.486c1.24-6.525,7.469-12.217,17.089-15.616l1.083-0.382l0.23,1.125
	c1.296,6.353,3.145,12.654,5.493,18.729c0.779,1.975,1.639,3.99,2.556,5.982l0.44,0.957l-0.979,0.39
	C-23.137,690.001-27.119,690.848-30.774,690.848z"/>
<path class="st3" d="M-19.31,687.401c-8.54,3.4-16.24,3.26-20.89-0.44c-0.03-0.02-0.05-0.03-0.07-0.06
	c-2.97-2.35-4.32-5.79-3.6-9.57c1.18-6.21,7.24-11.61,16.44-14.86c1.32,6.47,3.17,12.76,5.54,18.89
	C-21.09,683.391-20.23,685.401-19.31,687.401z"/>
<path class="st3" d="M-14.396,721.074c-3.319,0-6.346-0.716-8.754-2.071c-3.693-2.065-5.818-5.487-5.83-9.389
	c0-5.745,4.375-11.64,12.32-16.602l0.909-0.567l0.503,0.946c4.166,7.825,9.274,15.34,15.181,22.335l0.801,0.949l-1.099,0.581
	C-5.093,719.753-9.946,721.074-14.396,721.074z"/>
<path class="st3" d="M-0.83,716.371c-9.43,4.98-17.37,4.27-21.83,1.76c-3.38-1.89-5.31-5-5.32-8.52c0-5.36,4.29-11.03,11.85-15.75
	C-11.95,701.711-6.86,709.231-0.83,716.371z"/>
<path class="st3" d="M8.497,749.971c-0.763,0-1.535-0.062-2.294-0.183c-5.353-0.842-9.591-4.684-10.796-9.788
	c-1.445-6.179,1.612-12.67,8.608-18.279l0.719-0.576l0.633,0.669c4.38,4.631,9.157,9.091,14.2,13.256
	c0.848,0.708,1.711,1.403,2.574,2.087c0.611,0.493,1.216,0.955,1.828,1.424l0.936,0.716l-0.543,0.784
	C19.944,746.458,14.31,749.971,8.497,749.971z"/>
<path class="st3" d="M23.54,739.511c-4.78,6.9-10.95,10.28-17.18,9.29c-4.96-0.78-8.87-4.33-9.98-9.03
	c-1.35-5.77,1.65-11.97,8.26-17.27c4.37,4.62,9.12,9.07,14.29,13.34c0.85,0.71,1.72,1.41,2.59,2.1
	C22.19,738.481,22.86,738.991,23.54,739.511z"/>
<path class="st3" d="M37.655,772.034c-5.85,0-11.221-3.215-13.682-8.19c-2.946-5.934-1.583-13.654,3.74-21.181l0.581-0.821
	l0.818,0.585c8.037,5.752,16.789,11.072,26.015,15.814l0.898,0.462l-0.47,0.894c-4.081,7.756-10.479,12.288-17.554,12.434
	L37.655,772.034z"/>
<path class="st3" d="M54.67,759.131c-3.92,7.45-9.91,11.76-16.69,11.9c-5.61,0.12-10.76-2.88-13.11-7.63
	c-2.81-5.66-1.46-12.92,3.66-20.16C37.46,749.631,46.44,754.901,54.67,759.131z"/>
<path class="st3" d="M70.628,787.686c-4.591,0-8.777-2.148-11.198-5.746c-3.36-5.02-3.069-12.336,0.795-20.075l0.438-0.878
	l0.885,0.421c13.434,6.378,23.827,9.716,26.692,10.587l1.064,0.324l-0.435,1.023c-3.449,8.126-9.368,13.306-16.24,14.21
	C71.966,787.641,71.292,787.686,70.628,787.686z"/>
<path class="st3" d="M87.95,772.951c-3.28,7.73-8.92,12.75-15.45,13.61c-4.96,0.66-9.65-1.33-12.24-5.18
	c-3.18-4.75-2.86-11.62,0.86-19.07C74.18,768.511,84.43,771.881,87.95,772.951z"/>
<path class="st2" d="M-3.036,616.576c-2.976,0-5.427-0.933-7.287-2.773c-2.173-2.151-3.463-5.383-3.833-9.604
	c-0.202-2.086,0.129-4.122,0.983-6.043l0.231-0.521l0.566-0.066c2.764-0.323,6.017-0.743,9.669-1.247l1.375-0.19l-0.255,1.364
	c-0.192,1.031-0.329,2.091-0.406,3.148l-0.07,0.968l-0.969-0.041c-1.253-0.053-2.585-0.159-3.96-0.315c-0.001,0-0.001,0-0.002,0
	c-0.07,0-0.15,0.035-0.159,0.129c-0.009,0.074,0.01,0.119,0.045,0.146c1.409,0.183,2.752,0.288,4.069,0.354l0.958,0.048
	l-0.007,0.959c-0.011,1.436,0.114,2.814,0.37,4.096l0.073,0.11l0.107,0.015c0.079-0.016,0.134-0.105,0.118-0.191
	c-0.237-1.205-0.358-2.545-0.358-3.978v-1.003l1.155,0.003c3.367,0,5.183-0.343,5.2-0.347c0.097-0.018,0.126-0.046,0.142-0.067
	c0.022-0.031,0.028-0.067,0.02-0.111c-0.016-0.086-0.09-0.132-0.155-0.132l-0.087,0.015l-0.032,0.001
	c-0.859,0.126-2.593,0.322-5.144,0.322h-1.095l0.099-1.09c0.081-0.89,0.243-2.262,0.559-3.743l0.146-0.683l0.7-0.145
	c2.386-0.342,4.998-0.748,8.22-1.276l0.604-0.1l0.363,0.492c1.315,1.783,2.089,3.815,2.301,6.039
	c0.772,8.623-7.981,14.954-12.815,15.391C-2.087,616.552-2.571,616.576-3.036,616.576z"/>
<path class="st2" d="M-1.69,615.511c-3.31,0.31-5.98-0.49-7.93-2.42c-1.99-1.97-3.19-4.99-3.54-8.98c-0.2-2.07,0.18-3.93,0.9-5.55
	c2.74-0.32,6-0.74,9.69-1.25c-0.14,0.75-0.32,1.88-0.42,3.26c-1.18-0.05-2.48-0.15-3.89-0.31c-0.63-0.07-1.21,0.38-1.27,1.03
	c-0.05,0.4,0.12,0.79,0.43,1.03c0.16,0.12,0.36,0.22,0.58,0.24c1.48,0.16,2.83,0.26,4.05,0.32c-0.01,1.38,0.1,2.85,0.39,4.3
	c0.05,0.28,0.2,0.51,0.41,0.68c0.25,0.21,0.6,0.3,0.94,0.23c0.62-0.12,1.03-0.73,0.91-1.36c-0.25-1.27-0.34-2.57-0.34-3.79
	c3.45,0.01,5.44-0.34,5.57-0.37c0.63-0.11,1.05-0.7,0.93-1.34c-0.12-0.63-0.72-1.04-1.34-0.93c-0.03,0-1.87,0.32-5.06,0.32
	c0.18-1.99,0.5-3.43,0.55-3.67c2.58-0.37,5.32-0.8,8.24-1.28c1.04,1.41,1.89,3.23,2.11,5.54C10.95,609.371,2.3,615.151-1.69,615.511
	z"/>
<path class="st2" d="M-18.693,679.509c-7.054-18.365-9.189-38.599-6.348-60.139l1.959-0.121c1.173,4.512,3.349,8.264,6.292,10.851
	c0.215,0.195,0.436,0.368,0.647,0.534c3.108,2.476,7.008,3.782,11.284,3.782c0.692,0,1.404-0.034,2.115-0.101
	c8.068-0.737,15.797-6.443,19.693-14.538l1.501-3.12l0.394,3.44c1.433,12.537,5.401,25.179,11.795,37.575l-1.448,1.287
	c-4.55-3.073-10.465-4.767-16.656-4.767c-9.28,0-17.943,3.648-23.175,9.758c-3.817,4.462-5.934,9.729-6.12,15.233L-18.693,679.509z"
	/>
<path class="st2" d="M29.75,658.131c-12.17-8.22-31.62-5.96-41.15,5.17c-4.08,4.77-6.17,10.25-6.36,15.85
	c-7.02-18.28-9.11-38.27-6.29-59.65c1.22,4.69,3.46,8.59,6.6,11.35c0.22,0.2,0.46,0.39,0.69,0.57c3.83,3.05,8.69,4.4,14.11,3.89
	c8.76-0.8,16.66-7.12,20.5-15.1C19.12,631.321,22.55,644.171,29.75,658.131z"/>
<path class="st2" d="M42.578,748.213c-7.725-4.727-14.907-9.828-21.346-15.162c-10.359-8.558-19.184-17.969-26.23-27.974
	l1.411-1.381c4.732,3.487,10.07,5.33,15.439,5.33c0.734,0,1.48-0.034,2.217-0.102c7.155-0.645,13.984-4.456,18.737-10.455
	c5.598-7.049,8.255-14.427,7.688-21.337l-0.293-3.562l2.099,2.894c2.493,3.437,5.022,6.661,7.733,9.86
	c6.968,8.226,14.677,15.751,22.914,22.367l-0.813,1.762c-1.82-0.346-3.709-0.521-5.614-0.521c-9.03,0-17.41,3.758-22.417,10.052
	c-3.926,4.948-5.583,10.546-4.792,16.188c0.512,3.632,2.057,7.195,4.591,10.59L42.578,748.213z"/>
<path class="st2" d="M72.32,709.471c-10.47-1.99-22.39,1.58-29,9.89c-4.11,5.18-5.83,11.03-5,16.95c0.54,3.83,2.19,7.58,4.78,11.05
	c-7.01-4.29-14.24-9.29-21.23-15.08c-10.35-8.55-19.05-17.84-26.05-27.78c5.59,4.12,11.89,6.01,18.34,5.42
	c7.43-0.67,14.51-4.62,19.43-10.83c5.86-7.38,8.48-14.99,7.9-22.04c2.38,3.28,4.95,6.58,7.78,9.92
	C56.42,695.411,64.29,703.021,72.32,709.471z"/>
<path class="st2" d="M88.28,769.265c-4.01-1.263-12.278-4.086-22.606-8.814l0.373-1.908c5.878-0.259,11.606-2.69,16.565-7.033
	c0.056-0.05,0.07-0.142,0.029-0.205c-0.044-0.067-0.108-0.075-0.133-0.075c-1.503,0.692-4.417,1.827-7.825,1.827
	c-3.288,0-6.257-1.033-8.823-3.071c-7.688-6.098-9.121-13.35-3.932-19.895c2.173-2.731,7.718-5.633,13.716-5.633
	c3.544,0,6.729,1.041,9.209,3.011c5.887,4.677,5.532,11.37,5.105,14.031c-0.008,0.061,0.032,0.131,0.101,0.15
	c0.023,0.004,0.044,0.005,0.062,0.005c0.083,0,0.121-0.03,0.142-0.074c3.176-6.606,2.899-13.26-0.802-19.233l1.343-1.396
	c8.913,5.055,17.311,8.166,24.285,8.997l2.047,0.244l-1.459,1.457c-11.905,11.884-20.468,24.007-26.18,37.062l-0.36,0.823
	L88.28,769.265z M70.387,743.972c0.026,0,0.09-0.007,0.125-0.065c0.681-1.099,1.622-2.427,2.883-4.074l0.512-0.668l0.746,0.391
	c2.183,1.145,4.044,1.906,5.53,2.264c0.001,0,0.002,0,0.003,0c0.087,0,0.163-0.041,0.181-0.116c0.012-0.052-0.002-0.092-0.018-0.116
	c-0.02-0.031-0.048-0.05-0.087-0.059c-1.417-0.35-3.071-1.018-5.08-2.047l-1.091-0.559l0.767-0.956
	c1.498-1.869,2.846-3.432,3.421-4.099l0.191-0.223l0.007-0.015l0.086-0.096c0.028-0.032,0.042-0.069,0.04-0.111
	c-0.001-0.024-0.01-0.07-0.051-0.106l-0.096-0.052c-0.042,0-0.092,0.027-0.132,0.073c-0.641,0.733-2.243,2.585-3.965,4.738
	l-0.54,0.675l-0.746-0.437c-1.915-1.122-3.453-2.17-3.878-2.464l-0.126-0.055c-0.03,0-0.085,0.009-0.125,0.064
	c-0.04,0.057-0.042,0.128-0.006,0.181l0.015,0.008l0.049,0.043c0.198,0.139,1.667,1.162,3.66,2.35l0.969,0.578l-0.689,0.893
	c-1.073,1.389-1.999,2.71-2.678,3.82c-0.053,0.085-0.033,0.158,0.012,0.192l0.005,0.004L70.387,743.972z"/>
<path class="st2" d="M90.31,721.821c3.83,6.18,4.21,13.21,0.85,20.2c-0.25,0.51-0.83,0.77-1.38,0.59c-0.55-0.16-0.89-0.7-0.81-1.27
	c0.4-2.5,0.71-8.76-4.74-13.09c-7.04-5.59-18.17-1.75-21.52,2.46c-4.86,6.13-3.53,12.7,3.77,18.49c6.02,4.78,12.88,2.39,15.53,1.14
	c0.53-0.25,1.15-0.07,1.47,0.42c0.31,0.48,0.22,1.12-0.21,1.5c-5.23,4.58-11.25,7.02-17.18,7.28c10.57,4.84,18.9,7.64,22.49,8.77
	c6.09-13.92,15.18-26.18,26.39-37.37C107.67,730.071,99.18,726.851,90.31,721.821z M81.34,741.941c-0.15,0.61-0.77,0.99-1.39,0.85
	c-1.83-0.44-3.89-1.37-5.76-2.35c-1.05,1.37-2.07,2.77-2.82,3.98c-0.33,0.55-1.05,0.71-1.59,0.38c-0.04-0.02-0.08-0.05-0.11-0.08
	c-0.46-0.35-0.58-1-0.26-1.51c0.74-1.21,1.72-2.59,2.74-3.91c-2.08-1.24-3.61-2.31-3.75-2.41c-0.01-0.01-0.03-0.02-0.05-0.03
	c-0.48-0.38-0.58-1.07-0.22-1.58c0.37-0.52,1.09-0.64,1.61-0.27c0.03,0.02,1.67,1.17,3.84,2.44c2.04-2.55,3.87-4.63,4-4.78
	c0.43-0.48,1.14-0.56,1.64-0.1c0.47,0.42,0.52,1.15,0.09,1.63c-0.02,0.04-1.73,1.97-3.67,4.39c1.62,0.83,3.34,1.59,4.84,1.96
	C81.11,740.691,81.49,741.311,81.34,741.941z"/>
<path class="st2" d="M117.349,706.489c-4.792-2.354-9.706-5.217-14.607-8.508l-1.243-0.835l1.248-0.828
	c2.923-1.941,5.963-3.889,9.038-5.787l0.552-0.342l0.537,0.366c4.277,2.917,8.84,5.604,13.952,8.216l1.527,0.78l-1.431,0.945
	c-3.286,2.169-6.08,4.1-8.54,5.901l-0.488,0.357L117.349,706.489z"/>
<path class="st2" d="M126.37,699.661c-3.09,2.04-5.93,3.99-8.58,5.93c-4.62-2.27-9.5-5.09-14.49-8.44c2.98-1.98,6-3.91,9.01-5.77
	C116.65,694.341,121.28,697.061,126.37,699.661z"/>
<path class="st2" d="M82.76,682.075c-6.314-5.851-12.047-12.054-17.038-18.438l-0.796-1.018l1.185-0.516
	c3.103-1.35,6.457-2.852,10.253-4.592l0.712-0.326l0.487,0.613c4.634,5.839,9.849,11.478,15.5,16.762l0.932,0.871l-1.068,0.697
	c-3.293,2.147-6.207,4.119-8.909,6.028l-0.662,0.468L82.76,682.075z"/>
<path class="st2" d="M92.38,675.291c-3.02,1.97-6.01,3.98-8.94,6.05c-6.26-5.8-11.95-11.95-16.93-18.32
	c3.47-1.51,6.91-3.06,10.27-4.6C81.44,664.291,86.68,669.961,92.38,675.291z"/>
<path class="st2" d="M41.91,601.589c0.01-4.507,0.436-9.124,1.266-13.726l0.114-0.633l0.623-0.158
	c2.016-0.515,4.075-1.073,6.121-1.662c0.89-0.244,1.747-0.491,2.605-0.739l2.023-0.584l-0.234,1.544
	c-0.657,4.332-0.936,8.725-0.829,13.056l0.019,0.751l-0.716,0.227c-3.334,1.056-6.605,2.027-9.725,2.891l-1.27,0.352L41.91,601.589z
	"/>
<path class="st2" d="M52.6,598.711c-3.16,1-6.4,1.97-9.69,2.88c0.01-4.52,0.44-9.06,1.25-13.55c2.04-0.52,4.1-1.08,6.15-1.67
	c1.06-0.29,2.09-0.59,3.13-0.89C52.78,589.831,52.49,594.261,52.6,598.711z"/>
<path class="st2" d="M52.349,642.765c-2.791-5.48-5.067-11.107-6.766-16.724l-0.3-0.992l1.001-0.265
	c3.392-0.897,6.794-1.869,10.112-2.89l0.926-0.284l0.314,0.916c1.037,3.029,2.285,5.847,3.475,8.472
	c0.888,1.973,1.912,4.273,2.832,6.652l0.34,0.88l-0.859,0.391c-3.447,1.568-6.65,2.979-9.793,4.311l-0.858,0.363L52.349,642.765z"/>
<path class="st2" d="M63.01,638.011c-3.23,1.47-6.49,2.91-9.77,4.3c-2.79-5.48-5.03-11.04-6.7-16.56c3.44-0.91,6.83-1.88,10.15-2.9
	c1.01,2.95,2.21,5.69,3.51,8.56C61.15,633.521,62.12,635.711,63.01,638.011z"/>
<path class="st3" d="M118.772,727.564c-3.446,0-7.372-0.703-11.669-2.092l-0.495-0.159l-0.153-0.497
	c-1.305-4.229,0.066-8.766,3.494-11.561c2.583-2.1,5.319-4.206,8.132-6.262c3.082-2.263,6.47-4.597,10.351-7.131l0.064-0.129
	l0.295-0.104c27.67-17.888,56.204-28.769,57.405-29.224c0.816-0.308,1.691-0.516,2.602-0.618l0.277-0.032l0.253,0.117
	c2.766,1.272,5.41,2.288,7.858,3.021l0.223,0.066l0.17,0.158c0.167,0.155,0.314,0.331,0.469,0.521l0.747,0.921l-1.016,0.604
	c-6.222,3.489-11.71,6.62-16.776,9.572l-0.051,0.029l-0.054,0.023c-2.784,1.211-6.042,2.673-9.64,4.366l0.546,1.023
	c-22.423,13.473-38.808,25.264-51.565,37.105l-0.273,0.255l-0.374,0.012C119.322,727.56,119.048,727.564,118.772,727.564z"/>
<path class="st3" d="M116.42,721.201c-0.24,0.19-0.29,0.55-0.08,0.8c0.03,0.04,0.06,0.07,0.09,0.09c0.2,0.17,0.5,0.17,0.72,0
	c17.38-14.19,38.95-25.63,54.14-32.77c-19.29,11.59-37.08,23.63-51.73,37.23c-3.62,0.12-7.72-0.6-12.15-2.03
	c-1.16-3.76,0.03-7.93,3.17-10.49c2.51-2.04,5.23-4.14,8.09-6.23c3.2-2.35,6.64-4.71,10.49-7.22c0.02-0.01,0.04-0.02,0.05-0.04
	c0.03-0.01,0.07-0.03,0.09-0.05c27.71-17.92,56.06-28.7,57.25-29.15c0.77-0.29,1.56-0.47,2.36-0.56c2.87,1.32,5.55,2.34,7.99,3.07
	c0.14,0.13,0.26,0.28,0.39,0.44c-5.67,3.18-11.28,6.37-16.79,9.58C166.16,690.111,138.06,703.521,116.42,721.201z"/>
<path class="st3" d="M80.438,709.493c-0.786,0-1.575-0.086-2.343-0.256l-0.215-0.048l-0.176-0.134
	c-2.328-1.774-4.63-3.637-6.845-5.536l-0.165-0.142l-0.092-0.197c-0.836-1.808-1.153-3.81-0.915-5.789
	c0.318-2.854,1.754-5.423,4.044-7.227c28.746-22.675,69.054-41.741,73.556-43.841c1.396-0.654,2.909-0.986,4.493-0.986
	c0.302,0,0.603,0.013,0.901,0.036l0.323,0.026l0.246,0.211c2.363,2.021,4.34,3.663,6.224,5.168c0.802,0.634,1.607,1.261,2.414,1.878
	l0.263,0.201l0.091,0.318c1.444,5.068-1.062,10.562-5.83,12.78c-0.411,0.187-41.787,19.519-69.283,41.209
	C85.202,708.689,82.888,709.493,80.438,709.493C80.438,709.493,80.438,709.493,80.438,709.493z"/>
<path class="st3" d="M161.28,653.451c-0.81-0.62-1.62-1.25-2.43-1.89c-2.09-1.67-4.17-3.41-6.25-5.19
	c-1.62-0.13-3.31,0.12-4.89,0.86c-1.78,0.83-43.96,20.53-73.36,43.72c-2.07,1.63-3.38,3.96-3.67,6.56
	c-0.22,1.83,0.08,3.63,0.83,5.25c2.25,1.93,4.53,3.77,6.8,5.5c2.81,0.62,5.82,0,8.2-1.88c27.8-21.93,69.06-41.14,69.48-41.33
	C160.42,662.991,162.58,658.011,161.28,653.451z M152.09,656.661c-0.43,0.2-42.79,19.97-71.3,42.46c-0.22,0.17-0.52,0.16-0.72,0
	l-0.1-0.1c-0.2-0.25-0.15-0.62,0.1-0.81c28.62-22.58,71.11-42.39,71.54-42.59c0.28-0.15,0.62-0.01,0.76,0.27
	C152.5,656.191,152.38,656.531,152.09,656.661z"/>
<path class="st3" d="M45.064,669.532c-1.75,0-3.502-0.43-5.065-1.244l-0.235-0.122l-0.144-0.223
	c-1.944-3.012-3.73-6.008-5.308-8.903l-0.126-0.232l0.004-0.264c0.08-4.456,2.813-8.356,6.964-9.937
	c32.083-12.183,68.625-32.544,72.686-34.826c1.629-0.933,3.463-1.422,5.316-1.422c0.977,0,1.956,0.135,2.911,0.398
	c0.388,0.097,0.8,0.241,1.27,0.45l0.254,0.113l0.159,0.228c1.822,2.603,3.833,5.272,5.979,7.935l0.184,0.229l0.031,0.292
	c0.465,4.302-1.662,8.465-5.419,10.606l-0.282,0.157c-6.911,3.865-43.026,23.768-75.398,36.068
	C47.645,669.297,46.371,669.532,45.064,669.532L45.064,669.532z"/>
<path class="st3" d="M128.95,622.111c-2.03-2.52-4.06-5.19-6.02-7.99c-0.36-0.16-0.73-0.3-1.13-0.4c-2.53-0.7-5.18-0.38-7.45,0.92
	c-1.62,0.91-39.63,22.29-72.84,34.9c-3.86,1.47-6.25,5.12-6.32,9.02c1.58,2.9,3.34,5.85,5.27,8.84c2.46,1.28,5.4,1.51,8.03,0.5
	c35.08-13.33,73.9-35.25,75.54-36.16C127.54,629.741,129.36,625.901,128.95,622.111z M119.47,623.681
	c-0.39,0.23-39.74,22.47-74.26,35.57c-0.2,0.08-0.41,0.04-0.57-0.08c-0.07-0.07-0.14-0.15-0.17-0.24c-0.12-0.31,0.03-0.64,0.33-0.76
	c34.43-13.07,73.71-35.26,74.1-35.49c0.28-0.15,0.63-0.06,0.79,0.22C119.84,623.171,119.75,623.531,119.47,623.681z"/>
<path class="st3" d="M30.975,627.763c-2.435,0-4.831-0.838-6.747-2.358c-0.86-0.678-1.646-1.532-2.271-2.469l-0.125-0.188
	l-0.032-0.224c-0.446-3.096-0.728-6.174-0.859-9.412l-0.01-0.234l0.095-0.213c0.303-0.681,0.597-1.225,0.924-1.712
	c1.591-2.404,4.029-4.048,6.86-4.622c33.483-6.771,67.418-23.447,67.751-23.614c1.507-0.74,3.113-1.114,4.778-1.114
	c2.449,0,4.851,0.837,6.762,2.355c0.401,0.319,0.795,0.691,1.205,1.137l0.152,0.166l0.066,0.216
	c0.733,2.375,1.594,4.766,2.559,7.104l0.087,0.211l-0.013,0.227c-0.217,3.897-2.519,7.388-6.006,9.11
	c-3.027,1.48-30.136,14.538-60.506,22.486L45,624.788c-4.32,1.117-8.21,2.021-11.893,2.763
	C32.406,627.692,31.688,627.763,30.975,627.763z"/>
<path class="st3" d="M108.57,585.771c-0.34-0.37-0.7-0.72-1.09-1.03c-2.88-2.29-6.95-2.86-10.47-1.13
	c-0.34,0.17-34.33,16.89-68,23.7c-2.57,0.52-4.78,2.01-6.23,4.2c-0.33,0.49-0.6,1.02-0.84,1.56c0.12,2.95,0.38,6.05,0.85,9.31
	c0.56,0.84,1.26,1.61,2.06,2.24c2.28,1.81,5.22,2.52,8.06,1.95c3.97-0.8,7.93-1.74,11.84-2.75c0,0,0,0,0-0.01h0.01
	c31.51-8.16,59.62-21.93,60.95-22.58c3.28-1.62,5.26-4.85,5.45-8.27C110.19,590.611,109.32,588.201,108.57,585.771z M101.62,592.941
	c-0.36,0.18-35.7,17.51-70.54,24.57c-0.18,0.03-0.34-0.02-0.48-0.12c-0.1-0.08-0.18-0.2-0.2-0.34c-0.06-0.31,0.14-0.61,0.45-0.68
	c34.7-7.01,69.91-24.29,70.26-24.47c0.28-0.14,0.63-0.01,0.77,0.26C102.02,592.451,101.9,592.801,101.62,592.941z"/>
<path class="st4" d="M128.153,699.106c-5.101-2.551-9.755-5.24-14.228-8.223l-1.305-0.87l1.339-0.815
	c21.519-13.118,41.729-22.567,42.578-22.963c4.135-1.915,6.652-6.119,6.414-10.712l-0.11-2.123l1.706,1.269
	c7.496,5.575,14.963,10.296,21.595,13.65l2.02,1.022l-2.116,0.805c-3,1.142-30.09,11.648-56.904,28.906l-0.479,0.309
	L128.153,699.106z"/>
<path class="st4" d="M185.69,669.211c-1.42,0.54-29.48,11.23-57.09,29c-5.14-2.57-9.77-5.26-14.12-8.16
	c21.72-13.24,42.18-22.77,42.48-22.91c4.62-2.14,7.24-6.85,6.99-11.67C171.52,661.101,179.01,665.831,185.69,669.211z"/>
<path class="st4" d="M104.48,724.547c-7.212-2.689-15.305-7.184-23.403-12.994l-2.157-1.548l2.642-0.26
	c2.091-0.206,4.083-1.012,5.76-2.33c3.994-3.154,8.486-6.419,13.348-9.703l0.562-0.379l0.561,0.381
	c4.855,3.302,9.689,6.17,14.367,8.523l1.447,0.729l-1.299,0.967c-2.446,1.821-4.655,3.535-6.565,5.093
	c-3.071,2.491-4.574,6.483-3.925,10.423l0.28,1.702L104.48,724.547z"/>
<path class="st4" d="M115.71,707.131c-2.31,1.72-4.54,3.44-6.6,5.12c-3.44,2.79-4.97,7.17-4.28,11.36
	c-7.21-2.69-15.17-7.13-23.17-12.87c2.23-0.22,4.41-1.07,6.28-2.54c4.18-3.3,8.67-6.54,13.29-9.66
	C106.2,701.921,111.06,704.791,115.71,707.131z"/>
<path class="st4" d="M67.71,700.764c-5.603-5.046-10.876-10.476-15.674-16.137c-3.668-4.327-7.131-8.866-10.292-13.492l-1.388-2.031
	l2.411,0.486c0.774,0.156,1.56,0.236,2.333,0.236c1.343,0,2.639-0.235,3.852-0.699c4.623-1.758,9.66-3.802,14.974-6.075l0.71-0.305
	l0.473,0.61c5.02,6.471,10.767,12.732,17.082,18.612l0.899,0.837l-1.002,0.71c-2.914,2.067-5.793,4.224-8.558,6.408
	c-2.328,1.826-3.807,4.466-4.167,7.436c-0.088,0.827-0.084,1.666,0.011,2.553l0.282,2.603L67.71,700.764z"/>
<path class="st4" d="M81.51,682.701c-2.96,2.1-5.83,4.25-8.6,6.44c-2.55,2-4.15,4.89-4.54,8.1c-0.1,0.94-0.09,1.86,0.01,2.78
	c-5.43-4.89-10.7-10.28-15.58-16.04c-3.85-4.54-7.23-9.02-10.23-13.41c2.23,0.45,4.57,0.32,6.74-0.51
	c4.97-1.89,10.01-3.95,15.01-6.09C69.37,670.481,75.14,676.771,81.51,682.701z"/>
<path class="st4" d="M32.518,655.632c-4.815-9.529-8.187-19.274-10.02-28.966l-0.496-2.618l2.096,1.646
	c1.954,1.535,4.39,2.38,6.858,2.38c0.741,0,1.486-0.075,2.215-0.223c3.65-0.738,7.311-1.579,10.879-2.5l0.931-0.239l0.276,0.921
	c1.676,5.592,3.941,11.219,6.734,16.726l0.486,0.958l-0.991,0.416c-3.519,1.477-7.032,2.884-10.441,4.183
	c-3.219,1.22-5.653,3.83-6.68,7.16l-0.73,2.368L32.518,655.632z"/>
<path class="st4" d="M51.1,643.211c-3.48,1.46-6.97,2.86-10.41,4.17c-3.64,1.38-6.21,4.33-7.28,7.8
	c-5.22-10.33-8.28-19.98-9.93-28.7c2.8,2.2,6.4,3.06,9.89,2.35c3.66-0.74,7.32-1.58,10.93-2.51
	C45.99,631.961,48.27,637.631,51.1,643.211z"/>
<path class="st4" d="M20.87,608.923c0.044-5.636,0.617-11.122,1.701-16.308l0.135-0.644l0.645-0.132
	c6.155-1.249,12.246-2.639,18.103-4.128l1.489-0.379l-0.257,1.515c-0.75,4.432-1.116,8.926-1.086,13.356l0.005,0.774l-0.748,0.199
	c-4.138,1.102-8.208,2.062-12.098,2.853c-2.395,0.474-4.515,1.703-6.137,3.559l-1.774,2.029L20.87,608.923z"/>
<path class="st4" d="M41.7,588.681c-0.76,4.49-1.13,9.02-1.1,13.53c-3.98,1.06-8.01,2.02-12.04,2.84c-2.63,0.52-4.95,1.89-6.69,3.88
	c0.05-6.29,0.76-11.71,1.68-16.11C29.36,591.641,35.45,590.271,41.7,588.681z"/>
<path class="st4" d="M53.9,597.985c-0.061-4.548,0.283-9.057,1.024-13.401l0.104-0.611l0.594-0.179
	c19.644-5.904,36.304-13.001,49.515-21.095l1.627-0.997l-0.106,1.905c-0.329,5.882,0.284,11.981,1.821,18.132l0.577,2.31
	l-2.053-1.205c-1.73-1.015-3.697-1.551-5.687-1.551c-1.707,0-3.354,0.386-4.895,1.146c-0.168,0.085-18.42,9.05-41.212,16.484
	l-1.292,0.421L53.9,597.985z"/>
<path class="st4" d="M107.51,581.981c-3.41-2-7.72-2.32-11.53-0.44c-0.24,0.12-18.33,9.01-41.08,16.43
	c-0.06-4.45,0.27-8.88,1.01-13.22c19.83-5.96,36.43-13.04,49.75-21.2C105.31,569.811,106.01,575.981,107.51,581.981z"/>
<path class="st4" d="M64.19,637.427c-0.986-2.501-2.015-4.816-2.801-6.554c-1.365-3.057-2.482-5.61-3.435-8.377l-0.334-0.973
	l0.982-0.307c26.035-8.146,46.813-18.381,47.685-18.812c2.567-1.261,4.525-3.447,5.515-6.156l0.831-2.273l1.017,2.196
	c2.176,4.702,4.914,9.57,8.138,14.47l1.23,1.87l-2.214-0.331c-0.555-0.083-1.118-0.125-1.672-0.125c-1.901,0-3.78,0.499-5.434,1.444
	c-2.39,1.343-23.948,13.381-48.16,24.471l-0.96,0.439L64.19,637.427z"/>
<path class="st4" d="M120.95,611.191c-2.67-0.4-5.37,0.08-7.75,1.44c-1.21,0.68-23.17,13.02-48.08,24.43
	c-0.91-2.31-1.87-4.5-2.82-6.6c-1.25-2.8-2.43-5.47-3.4-8.29c25.86-8.09,46.7-18.31,47.83-18.87c2.91-1.43,4.98-3.89,6.01-6.71
	C115.11,601.711,117.93,606.601,120.95,611.191z"/>
<path class="st4" d="M93.677,674.742c-5.614-5.244-10.832-10.865-15.508-16.705l-0.796-0.994l1.155-0.537
	c23.145-10.771,42.487-21.564,46.13-23.618c3.042-1.727,5.051-4.7,5.542-8.176l0.314-2.225l1.443,1.722
	c3.485,4.161,7.289,8.272,11.305,12.22c2.258,2.229,4.696,4.512,7.455,6.977l1.602,1.432l-2.126,0.305
	c-1.03,0.147-2.055,0.45-3.048,0.9c-1.075,0.499-26.797,12.475-52.243,28.812l-0.654,0.42L93.677,674.742z"/>
<path class="st4" d="M150.05,644.151c-1.12,0.16-2.24,0.49-3.32,0.98c-1.38,0.64-27.09,12.65-52.37,28.88
	c-5.62-5.25-10.79-10.83-15.41-16.6c24.54-11.42,45.04-23,46.23-23.67c3.4-1.93,5.5-5.28,6.01-8.89c3.97,4.74,7.91,8.89,11.37,12.29
	C144.99,639.541,147.51,641.881,150.05,644.151z"/>
<path class="st5" d="M65.024,758.261c-1.77,0-3.532-0.208-5.237-0.617l-0.108-0.026l-0.1-0.049c-3.172-1.56-6.403-3.253-9.604-5.033
	l-0.078-0.043l-0.069-0.057c-5.853-4.782-9.382-10.424-10.208-16.316c-0.787-5.529,0.844-11.038,4.716-15.93
	c4.834-6.084,13.359-9.863,22.247-9.863c4.097,0,8.072,0.813,11.497,2.353l0.096,0.043l0.084,0.062
	c2.258,1.647,4.521,3.209,6.725,4.639l0.079,0.051l0.068,0.065c5.352,5.111,7.724,11.139,6.86,17.429l-1.961,0.104
	c-0.781-3.161-2.503-5.875-4.982-7.848c-2.577-2.045-5.715-3.082-9.326-3.082c-5.92,0-11.781,2.929-14.028,5.761
	c-2.657,3.341-3.669,6.797-3.008,10.272c0.671,3.531,3.019,6.917,6.977,10.063c2.631,2.087,5.658,3.146,8.997,3.146
	c0.52,0,1.053-0.026,1.584-0.077l0.571,1.875C73.076,757.196,68.999,758.261,65.024,758.261z"/>
<path class="st5" d="M91,734.831c-0.82-3.32-2.64-6.25-5.33-8.39c-8.43-6.69-21-1.9-24.76,2.84c-5.72,7.19-4.21,15.11,4.13,21.74
	c3.82,3.03,7.89,3.61,11.3,3.28c-5.27,2.84-10.99,3.65-16.32,2.37c-3.07-1.51-6.27-3.18-9.56-5.01c-5.57-4.55-9.06-10.04-9.85-15.68
	c-0.75-5.27,0.82-10.51,4.51-15.17c7.23-9.1,21.98-11.97,32.55-7.22c2.26,1.65,4.52,3.21,6.77,4.67
	C89.58,723.171,91.82,728.861,91,734.831z"/>
<path class="st5" d="M-4.777,634.108c-4.543,0-8.627-1.467-11.81-4.243c-4.328-3.804-6.871-10.001-7.162-17.454
	c-0.021-0.34-0.021-0.691-0.01-1.042l0.002-0.076l0.014-0.074c0.449-2.415,0.967-4.883,1.54-7.335l0.021-0.089l0.037-0.084
	c0.811-1.855,1.95-3.602,3.384-5.189l0.259-0.287l0.385-0.038c0.907-0.09,1.954-0.199,3.151-0.329l1.549-0.168l-0.493,1.479
	c-0.536,1.606-0.725,3.306-0.563,5.051c0.386,4.298,1.711,7.595,3.938,9.803c0.226,0.207,0.493,0.45,0.753,0.653
	c1.842,1.465,4.135,2.205,6.821,2.205c0.449,0,0.914-0.021,1.381-0.064c4.94-0.466,13.887-6.952,13.095-15.724
	c-0.171-1.879-0.775-3.667-1.794-5.313l-0.753-1.217l1.401-0.289c0.36-0.074,0.721-0.138,1.092-0.19l0.396-0.056l0.581,0.424
	c2.909,2.402,4.893,5.836,5.898,10.208l0.031,0.136l-0.007,0.141c-0.167,3.19-0.157,6.461,0.03,9.72l0.009,0.153l-0.038,0.148
	c-2.513,9.987-11.601,18.178-21.139,19.052C-3.451,634.077-4.123,634.108-4.777,634.108z"/>
<path class="st5" d="M17.39,614.721c-2.31,9.18-10.88,17.44-20.26,18.3c-5.1,0.46-9.62-0.91-13.06-3.91
	c-4.12-3.62-6.54-9.57-6.82-16.74c-0.02-0.33-0.02-0.65-0.01-0.97c0.45-2.42,0.96-4.85,1.53-7.29c0.8-1.83,1.9-3.47,3.21-4.92
	c0.91-0.09,1.96-0.2,3.16-0.33c-0.53,1.59-0.8,3.41-0.61,5.46c0.41,4.56,1.84,8.05,4.23,10.42c0.27,0.25,0.56,0.51,0.84,0.73
	c2.34,1.86,5.4,2.67,8.91,2.35c5.3-0.5,14.85-7.4,14-16.81c-0.19-2.08-0.87-4.02-1.94-5.75c0.34-0.07,0.68-0.13,1.03-0.18
	c0.07,0.05,0.13,0.1,0.2,0.15c2.75,2.27,4.62,5.57,5.56,9.66C17.2,607.941,17.19,611.231,17.39,614.721z"/>
<path class="st5" d="M11.823,708.719c-6.14,0-12.118-2.384-17.29-6.895c-1.914-1.68-3.618-3.491-5.067-5.386l-0.039-0.05
	l-0.032-0.055c-1.642-2.819-3.168-5.685-4.536-8.519l-0.03-0.062l-0.021-0.064c-2.685-8.279-0.941-16.858,4.782-23.539
	c5.137-5.99,13.742-9.565,23.018-9.565c6.893,0,13.24,2.024,17.873,5.702c1.074,0.859,2.083,1.798,3.088,2.87l0.078,0.083
	l0.057,0.098c1.602,2.754,3.316,5.494,5.096,8.146l0.071,0.105l0.042,0.119c2.932,8.297,0.681,17.73-6.34,26.564
	c-4.726,5.932-11.48,9.701-18.532,10.345C13.304,708.685,12.558,708.719,11.823,708.719z"/>
<path class="st5" d="M31.79,697.651c-4.55,5.71-11.04,9.35-17.84,9.97c-6.65,0.61-13.13-1.64-18.76-6.55
	c-1.89-1.66-3.53-3.41-4.93-5.24c-1.62-2.78-3.12-5.59-4.5-8.45c-2.52-7.77-1.09-15.95,4.59-22.58c9.04-10.54,28.6-12.39,39.51-3.73
	c1.1,0.88,2.08,1.81,2.98,2.77c1.57,2.7,3.27,5.43,5.13,8.2C40.74,679.881,38.72,688.931,31.79,697.651z"/>
<path class="st5" d="M621.827,198.619c-8.991,0-17.463-2.955-24.499-8.546c-8.238-6.54-13.437-15.914-14.638-26.395
	s1.741-20.787,8.286-29.02c7.522-9.472,18.798-14.905,30.934-14.905c8.987,0,17.457,2.955,24.492,8.545
	c8.237,6.541,13.437,15.915,14.638,26.396c1.201,10.482-1.742,20.791-8.287,29.028C645.236,193.19,633.965,198.619,621.827,198.619z
	"/>
<path class="st5" d="M651.97,183.101c-13.18,16.6-37.42,19.38-54.02,6.19c-16.6-13.18-19.38-37.42-6.19-54.01
	c13.19-16.61,37.42-19.39,54.02-6.2C662.38,142.261,665.16,166.501,651.97,183.101z"/>
<path class="st4" d="M240.1,529.819c-5.411,0-10.37-1.669-14.342-4.824c-5.488-4.355-8.558-11.071-8.645-18.91
	c-0.086-7.761,2.771-15.689,8.044-22.325c2.412-3.053,5.249-5.696,8.431-7.855l0.409-0.277l0.469,0.156
	c0.107,0.035,0.214,0.071,0.339,0.106c7.257,2.405,13.607,5.748,18.916,9.948c7.384,5.876,12.859,13.528,16.277,22.746
	c0.073,0.198,0.359,1.018,0.359,1.018l-0.201,0.384c-1.166,2.228-2.536,4.34-4.073,6.277
	C259.337,524.751,249.624,529.819,240.1,529.819z"/>
<path class="st4" d="M269.27,509.521c-1.12,2.14-2.44,4.19-3.97,6.12c-10.61,13.35-28.06,17.2-38.92,8.57
	c-10.85-8.61-11.05-26.48-0.44-39.83c2.37-3,5.13-5.56,8.21-7.65c0.12,0.04,0.24,0.08,0.38,0.12c7.15,2.37,13.35,5.64,18.57,9.77
	c7.25,5.77,12.59,13.22,15.96,22.31C269.13,509.121,269.2,509.321,269.27,509.521z"/>
<path class="st5" d="M241.002,545.776c-8.966,0-17.333-2.881-24.194-8.331c-8.456-6.718-13.619-16.553-14.539-27.693
	c-0.917-11.118,2.505-22.185,9.637-31.162c1.706-2.151,3.663-4.191,5.817-6.063l0.352-0.306l0.461,0.073
	c0.076,0.012,0.15,0.02,0.223,0.027c0.113,0.013,0.224,0.025,0.335,0.044c4.188,0.535,8.419,1.399,12.536,2.564l1.946,0.55
	l-1.618,1.213c-2.634,1.973-5.007,4.284-7.055,6.87c-5.366,6.755-8.237,14.835-8.084,22.752c0.151,7.847,3.259,14.566,8.752,18.924
	c4.014,3.193,9.032,4.881,14.514,4.881c9.636,0,19.442-5.106,26.231-13.659c1.048-1.308,2.049-2.766,3.065-4.462l1.163-1.942
	l0.652,2.168c1.549,5.147,2.538,10.779,2.94,16.74c0.011,0.14,0.014,0.289,0.017,0.437c0.002,0.108,0.003,0.216,0.012,0.321
	l0.034,0.419l-0.275,0.316C265.469,540.193,253.469,545.776,241.002,545.776z"/>
<path class="st5" d="M273.17,529.801c-14.61,16.82-39.21,19.99-55.74,6.86c-17.03-13.53-19.16-39.3-4.74-57.45
	c1.72-2.17,3.63-4.14,5.69-5.93c0.19,0.03,0.37,0.04,0.55,0.07c4.3,0.55,8.47,1.42,12.43,2.54c-2.67,2-5.11,4.36-7.24,7.05
	c-11.39,14.34-11.02,33.68,0.83,43.08c11.84,9.42,30.76,5.41,42.15-8.94c1.17-1.46,2.2-3,3.14-4.57c1.52,5.05,2.5,10.59,2.9,16.52
	C273.16,529.291,273.15,529.551,273.17,529.801z"/>
<path class="st6" d="M80.429,700.244c-0.356,0-0.705-0.121-0.981-0.34l-0.086-0.078l-0.138-0.139l-0.034-0.043
	c-0.262-0.327-0.382-0.756-0.33-1.174c0.052-0.419,0.273-0.804,0.607-1.057c28.705-22.646,71.296-42.502,71.724-42.7
	c0.167-0.092,0.415-0.154,0.664-0.154c0.589,0,1.143,0.347,1.412,0.884c0.374,0.858,0.028,1.772-0.764,2.129
	c-0.413,0.192-42.602,19.859-71.092,42.334C81.124,700.127,80.778,700.244,80.429,700.244z"/>
<path class="st6" d="M152.09,656.661c-0.43,0.2-42.79,19.97-71.3,42.46c-0.22,0.17-0.52,0.16-0.72,0l-0.1-0.1
	c-0.2-0.25-0.15-0.62,0.1-0.81c28.62-22.58,71.11-42.39,71.54-42.59c0.28-0.15,0.62-0.01,0.76,0.27
	C152.5,656.191,152.38,656.531,152.09,656.661z"/>
<path class="st6" d="M44.996,660.293c-0.346,0-0.677-0.112-0.957-0.323l-0.056-0.042l-0.05-0.05
	c-0.129-0.129-0.312-0.335-0.411-0.628c-0.302-0.78,0.089-1.68,0.906-2.008c34.414-13.063,73.604-35.213,73.965-35.424
	c0.267-0.144,0.529-0.21,0.792-0.21c0.567,0,1.093,0.305,1.374,0.796c0.21,0.378,0.258,0.82,0.139,1.225
	c-0.119,0.404-0.387,0.735-0.755,0.933c-0.313,0.187-39.703,22.465-74.377,35.624C45.394,660.255,45.197,660.293,44.996,660.293z"/>
<path class="st6" d="M119.47,623.681c-0.39,0.23-39.74,22.47-74.26,35.57c-0.2,0.08-0.41,0.04-0.57-0.08
	c-0.07-0.07-0.14-0.15-0.17-0.24c-0.12-0.31,0.03-0.64,0.33-0.76c34.43-13.07,73.71-35.26,74.1-35.49c0.28-0.15,0.63-0.06,0.79,0.22
	C119.84,623.171,119.75,623.531,119.47,623.681z"/>
<path class="st6" d="M30.978,618.52c-0.337,0-0.668-0.108-0.957-0.313c-0.354-0.282-0.556-0.63-0.61-1.014
	c-0.156-0.798,0.377-1.608,1.222-1.797c34.322-6.935,69.687-24.215,70.022-24.385c0.222-0.111,0.46-0.167,0.699-0.167
	c0.59,0,1.146,0.337,1.415,0.858c0.388,0.803,0.068,1.749-0.702,2.133c-0.344,0.173-36.08,17.623-70.788,24.656
	C31.154,618.513,31.065,618.52,30.978,618.52z"/>
<path class="st6" d="M101.62,592.941c-0.36,0.18-35.7,17.51-70.54,24.57c-0.18,0.03-0.34-0.02-0.48-0.12
	c-0.1-0.08-0.18-0.2-0.2-0.34c-0.06-0.31,0.14-0.61,0.45-0.68c34.7-7.01,69.91-24.29,70.26-24.47c0.28-0.14,0.63-0.01,0.77,0.26
	C102.02,592.451,101.9,592.801,101.62,592.941z"/>
<g>
	<path class="st6" d="M81.34,741.941c-0.15,0.61-0.77,0.99-1.39,0.85c-1.83-0.44-3.89-1.37-5.76-2.35
		c-1.05,1.37-2.07,2.77-2.82,3.98c-0.33,0.55-1.05,0.71-1.59,0.38c-0.04-0.02-0.08-0.05-0.11-0.08c-0.46-0.35-0.58-1-0.26-1.51
		c0.74-1.21,1.72-2.59,2.74-3.91c-2.08-1.24-3.61-2.31-3.75-2.41c-0.01-0.01-0.03-0.02-0.05-0.03c-0.48-0.38-0.58-1.07-0.22-1.58
		c0.37-0.52,1.09-0.64,1.61-0.27c0.03,0.02,1.67,1.17,3.84,2.44c2.04-2.55,3.87-4.63,4-4.78c0.43-0.48,1.14-0.56,1.64-0.1
		c0.47,0.42,0.52,1.15,0.09,1.63c-0.02,0.04-1.73,1.97-3.67,4.39c1.62,0.83,3.34,1.59,4.84,1.96
		C81.11,740.691,81.49,741.311,81.34,741.941z"/>
	<path class="st6" d="M692.46,69.741c-1.11-1-3.19-2.02-6.72-1.25c-0.71,0.15-72.38,16.12-140.85,44.78
		c-40.32,16.88-71.68,34.81-93.23,53.29c-27.37,23.48-39,48-34.59,72.87c0.1,0.55,2.25,11.75,14.42,20.78
		c-10.48,1.13-22.81,2.93-33.76,4.53c-8.13,1.18-15.15,2.21-19.17,2.61c-13.49,1.36-21.28,6.6-22.58,7.53
		c-11.76,6.07-34.72,22.74-51.92,35.52c4.42-10.49,9.85-26.21,11.28-30.36c30.15-21.49,44.19-37.81,41.72-48.53
		c-1.74-7.51-10.44-9.04-10.8-9.09l-0.7-0.12l-0.65,0.29c-0.44,0.2-44.09,20.22-60.57,27.07c-12.22,5.07-14.92,11.37-17.07,16.41
		c-0.34,0.78-0.67,1.54-1.02,2.29c-2.18,4.53-4.7,10.09-7.36,15.99c-9.31,20.6-22.04,48.81-34.92,64.07
		c-15.59,18.48-83.55,167.62-86.43,173.95l-0.06,0.13c-16.55,43.01-87.15,61.22-128.68,68.32c-6.13,1.3-20.54,3.17-24.85,3.52
		c-3.68,0.4-5.85,0.57-6,0.57l-1.63,0.13l-0.36,1.3c-19.56,2.85-29,11.56-28.19,18.96c0.27,2.48,1.52,4.47,3.46,6.01
		c4.24,3.37,11.76,4.58,19.4,4.19c-0.01,0.2-0.02,0.39-0.04,0.58c-10.34-0.62-18.7,3.02-22.62,9.95c-2.87,5.09-2.6,10.91,0.71,15.17
		c0.67,0.86,1.43,1.63,2.28,2.31c4.61,3.66,11.82,4.63,20.51,2.75c0.19,1.3,0.42,2.59,0.66,3.89c-10.18,3.52-16.93,9.66-18.28,16.75
		c-0.87,4.6,0.82,8.96,4.44,11.82c0.03,0.02,0.06,0.05,0.08,0.07c5.33,4.23,13.92,4.45,23.29,0.71c0.36,0.76,0.74,1.54,1.13,2.3
		c-8.34,5.19-13.09,11.6-13.08,17.81c-0.01,3.65,1.64,6.93,4.57,9.26c0.59,0.46,1.23,0.89,1.93,1.28c6.51,3.65,15.55,2.9,24.5-1.97
		c0.77,0.88,1.55,1.76,2.35,2.64c-7.24,5.84-10.49,12.85-8.94,19.48c0.75,3.13,2.51,5.83,4.95,7.76c1.94,1.56,4.31,2.61,6.93,3.03
		c7.01,1.1,14.11-2.68,19.37-10.17c0.43,0.32,0.86,0.64,1.29,0.95c-2.44,3.46-4.09,6.93-4.91,10.29c-1.1,4.41-0.77,8.6,1.04,12.26
		c1.04,2.08,2.51,3.86,4.3,5.29c2.99,2.37,6.86,3.71,10.93,3.63c3.71-0.07,12.65-1.56,18.71-13.16c0.78,0.38,1.54,0.76,2.31,1.14
		c-4.08,8.2-4.37,15.9-0.69,21.36c0.81,1.2,1.78,2.24,2.89,3.13c3.11,2.47,7.25,3.61,11.57,3.04c7.42-0.97,13.8-6.62,17.37-15.24
		l1.07,0.29l0.78-1.89c3.61-8.74,8.47-16.83,14.36-24.42c23.48-30.32,63.28-52.58,104.92-75.86c5.96-3.34,11.98-6.7,18.02-10.12
		c12.43-7.06,25.43-12.94,38.01-18.62c14.91-6.75,30.34-13.73,45.05-22.74c30.99-18.98,59.97-43.74,86.17-73.58
		c21.75-24.78,36.62-47.22,46.45-62.07c1.57-2.38,3-4.52,4.26-6.41c15.09-22.34,47.14-62.33,68.94-74.51
		c8.59-4.79,12.68-9.34,12.51-13.92c-0.13-3.77-3.29-6.24-5.13-7.09l-0.26-0.1c-24.99-8.26-57.43-0.08-80.96,19.5
		c7.59-16.64,12.71-28.8,13.66-31.75c2.55-7.86,4.22-8.42,5.69-8.92c0.4-0.14,0.84-0.29,1.31-0.51
		c26.04-12.13,48.28-31.85,51.23-34.52c2.74-1.08,5.18-2.08,7.4-3.04c1.96,2.75,3.91,5.5,5.82,8.22c2.64,3.75,5.37,7.64,8.05,11.34
		c4.3,5.93,8.6,10.49,12.9,13.91c18.48,14.66,36.83,8.29,54.26,0.01c21.83-10.36,39.29-30.05,53.36-60.21
		c22.87-49,35.19-123.32,36.61-220.9C694.71,74.981,694.78,71.791,692.46,69.741z M108.57,585.771c0.75,2.43,1.62,4.84,2.59,7.19
		c-0.19,3.42-2.17,6.65-5.45,8.27c-1.33,0.65-29.44,14.42-60.95,22.58h-0.01c0,0.01,0,0.01,0,0.01c-3.91,1.01-7.87,1.95-11.84,2.75
		c-2.84,0.57-5.78-0.14-8.06-1.95c-0.8-0.63-1.5-1.4-2.06-2.24c-0.47-3.26-0.73-6.36-0.85-9.31c0.24-0.54,0.51-1.07,0.84-1.56
		c1.45-2.19,3.66-3.68,6.23-4.2c33.67-6.81,67.66-23.53,68-23.7c3.52-1.73,7.59-1.16,10.47,1.13
		C107.87,585.051,108.23,585.401,108.57,585.771z M163.95,655.471c7.57,5.63,15.06,10.36,21.74,13.74
		c-1.42,0.54-29.48,11.23-57.09,29c-5.14-2.57-9.77-5.26-14.12-8.16c21.72-13.24,42.18-22.77,42.48-22.91
		C161.58,665.001,164.2,660.291,163.95,655.471z M104.83,723.611c-7.21-2.69-15.17-7.13-23.17-12.87c2.23-0.22,4.41-1.07,6.28-2.54
		c4.18-3.3,8.67-6.54,13.29-9.66c4.97,3.38,9.83,6.25,14.48,8.59c-2.31,1.72-4.54,3.44-6.6,5.12
		C105.67,715.041,104.14,719.421,104.83,723.611z M103.3,697.151c2.98-1.98,6-3.91,9.01-5.77c4.34,2.96,8.97,5.68,14.06,8.28
		c-3.09,2.04-5.93,3.99-8.58,5.93C113.17,703.321,108.29,700.501,103.3,697.151z M155.99,665.051c-0.42,0.19-41.68,19.4-69.48,41.33
		c-2.38,1.88-5.39,2.5-8.2,1.88c-2.27-1.73-4.55-3.57-6.8-5.5c-0.75-1.62-1.05-3.42-0.83-5.25c0.29-2.6,1.6-4.93,3.67-6.56
		c29.4-23.19,71.58-42.89,73.36-43.72c1.58-0.74,3.27-0.99,4.89-0.86c2.08,1.78,4.16,3.52,6.25,5.19c0.81,0.64,1.62,1.27,2.43,1.89
		C162.58,658.011,160.42,662.991,155.99,665.051z M68.38,700.021c-5.43-4.89-10.7-10.28-15.58-16.04
		c-3.85-4.54-7.23-9.02-10.23-13.41c2.23,0.45,4.57,0.32,6.74-0.51c4.97-1.89,10.01-3.95,15.01-6.09
		c5.05,6.51,10.82,12.8,17.19,18.73c-2.96,2.1-5.83,4.25-8.6,6.44c-2.55,2-4.15,4.89-4.54,8.1
		C68.27,698.181,68.28,699.101,68.38,700.021z M66.51,663.021c3.47-1.51,6.91-3.06,10.27-4.6c4.66,5.87,9.9,11.54,15.6,16.87
		c-3.02,1.97-6.01,3.98-8.94,6.05C77.18,675.541,71.49,669.391,66.51,663.021z M146.73,645.131c-1.38,0.64-27.09,12.65-52.37,28.88
		c-5.62-5.25-10.79-10.83-15.41-16.6c24.54-11.42,45.04-23,46.23-23.67c3.4-1.93,5.5-5.28,6.01-8.89
		c3.97,4.74,7.91,8.89,11.37,12.29c2.43,2.4,4.95,4.74,7.49,7.01C148.93,644.311,147.81,644.641,146.73,645.131z M124.03,631.741
		c-1.64,0.91-40.46,22.83-75.54,36.16c-2.63,1.01-5.57,0.78-8.03-0.5c-1.93-2.99-3.69-5.94-5.27-8.84c0.07-3.9,2.46-7.55,6.32-9.02
		c33.21-12.61,71.22-33.99,72.84-34.9c2.27-1.3,4.92-1.62,7.45-0.92c0.4,0.1,0.77,0.24,1.13,0.4c1.96,2.8,3.99,5.47,6.02,7.99
		C129.36,625.901,127.54,629.741,124.03,631.741z M51.1,643.211c-3.48,1.46-6.97,2.86-10.41,4.17c-3.64,1.38-6.21,4.33-7.28,7.8
		c-5.22-10.33-8.28-19.98-9.93-28.7c2.8,2.2,6.4,3.06,9.89,2.35c3.66-0.74,7.32-1.58,10.93-2.51
		C45.99,631.961,48.27,637.631,51.1,643.211z M46.54,625.751c3.44-0.91,6.83-1.88,10.15-2.9c1.01,2.95,2.21,5.69,3.51,8.56
		c0.95,2.11,1.92,4.3,2.81,6.6c-3.23,1.47-6.49,2.91-9.77,4.3C50.45,636.831,48.21,631.271,46.54,625.751z M32.84,663.841
		c1.57,2.7,3.27,5.43,5.13,8.2c2.77,7.84,0.75,16.89-6.18,25.61c-4.55,5.71-11.04,9.35-17.84,9.97c-6.65,0.61-13.13-1.64-18.76-6.55
		c-1.89-1.66-3.53-3.41-4.93-5.24c-1.62-2.78-3.12-5.59-4.5-8.45c-2.52-7.77-1.09-15.95,4.59-22.58
		c9.04-10.54,28.6-12.39,39.51-3.73C30.96,661.951,31.94,662.881,32.84,663.841z M113.2,612.631c-1.21,0.68-23.17,13.02-48.08,24.43
		c-0.91-2.31-1.87-4.5-2.82-6.6c-1.25-2.8-2.43-5.47-3.4-8.29c25.86-8.09,46.7-18.31,47.83-18.87c2.91-1.43,4.98-3.89,6.01-6.71
		c2.37,5.12,5.19,10.01,8.21,14.6C118.28,610.791,115.58,611.271,113.2,612.631z M55.91,584.751c19.83-5.96,36.43-13.04,49.75-21.2
		c-0.35,6.26,0.35,12.43,1.85,18.43c-3.41-2-7.72-2.32-11.53-0.44c-0.24,0.12-18.33,9.01-41.08,16.43
		C54.84,593.521,55.17,589.091,55.91,584.751z M44.16,588.041c2.04-0.52,4.1-1.08,6.15-1.67c1.06-0.29,2.09-0.59,3.13-0.89
		c-0.66,4.35-0.95,8.78-0.84,13.23c-3.16,1-6.4,1.97-9.69,2.88C42.92,597.071,43.35,592.531,44.16,588.041z M23.55,592.821
		c5.81-1.18,11.9-2.55,18.15-4.14c-0.76,4.49-1.13,9.02-1.1,13.53c-3.98,1.06-8.01,2.02-12.04,2.84c-2.63,0.52-4.95,1.89-6.69,3.88
		C21.92,602.641,22.63,597.221,23.55,592.821z M18.65,593.791c-0.31,1.7-0.59,3.55-0.82,5.51c-0.89-1.8-2.02-3.39-3.36-4.74
		C15.84,594.311,17.24,594.061,18.65,593.791z M-12.26,598.561c2.74-0.32,6-0.74,9.69-1.25c-0.14,0.75-0.32,1.88-0.42,3.26
		c-1.18-0.05-2.48-0.15-3.89-0.31c-0.63-0.07-1.21,0.38-1.27,1.03c-0.05,0.4,0.12,0.79,0.43,1.03c0.16,0.12,0.36,0.22,0.58,0.24
		c1.48,0.16,2.83,0.26,4.05,0.32c-0.01,1.38,0.1,2.85,0.39,4.3c0.05,0.28,0.2,0.51,0.41,0.68c0.25,0.21,0.6,0.3,0.94,0.23
		c0.62-0.12,1.03-0.73,0.91-1.36c-0.25-1.27-0.34-2.57-0.34-3.79c3.45,0.01,5.44-0.34,5.57-0.37c0.63-0.11,1.05-0.7,0.93-1.34
		c-0.12-0.63-0.72-1.04-1.34-0.93c-0.03,0-1.87,0.32-5.06,0.32c0.18-1.99,0.5-3.43,0.55-3.67c2.58-0.37,5.32-0.8,8.24-1.28
		c1.04,1.41,1.89,3.23,2.11,5.54c0.73,8.16-7.92,13.94-11.91,14.3c-3.31,0.31-5.98-0.49-7.93-2.42c-1.99-1.97-3.19-4.99-3.54-8.98
		C-13.36,602.041-12.98,600.181-12.26,598.561z M-21.23,604.111c0.8-1.83,1.9-3.47,3.21-4.92c0.91-0.09,1.96-0.2,3.16-0.33
		c-0.53,1.59-0.8,3.41-0.61,5.46c0.41,4.56,1.84,8.05,4.23,10.42c0.27,0.25,0.56,0.51,0.84,0.73c2.34,1.86,5.4,2.67,8.91,2.35
		c5.3-0.5,14.85-7.4,14-16.81c-0.19-2.08-0.87-4.02-1.94-5.75c0.34-0.07,0.68-0.13,1.03-0.18c0.07,0.05,0.13,0.1,0.2,0.15
		c2.75,2.27,4.62,5.57,5.56,9.66c-0.16,3.05-0.17,6.34,0.03,9.83c-2.31,9.18-10.88,17.44-20.26,18.3c-5.1,0.46-9.62-0.91-13.06-3.91
		c-4.12-3.62-6.54-9.57-6.82-16.74c-0.02-0.33-0.02-0.65-0.01-0.97C-22.31,608.981-21.8,606.551-21.23,604.111z M-49.49,649.781
		c-2.72-3.52-2.93-8.35-0.52-12.61c3.47-6.14,11.02-9.34,20.44-8.79c-0.59,8.77-0.34,17.3,0.74,25.57
		C-38.3,656.071-45.76,654.581-49.49,649.781z M-29.13,623.171c-13.63,0.87-20.28-3.35-20.8-8.12c-0.66-6.03,7.99-13.52,25.27-16.26
		C-26.82,607.091-28.31,615.231-29.13,623.171z M-40.2,686.961c-0.03-0.02-0.05-0.03-0.07-0.06c-2.97-2.35-4.32-5.79-3.6-9.57
		c1.18-6.21,7.24-11.61,16.44-14.86c1.32,6.47,3.17,12.76,5.54,18.89c0.8,2.03,1.66,4.04,2.58,6.04
		C-27.85,690.801-35.55,690.661-40.2,686.961z M-17.76,679.151c-7.02-18.28-9.11-38.27-6.29-59.65c1.22,4.69,3.46,8.59,6.6,11.35
		c0.22,0.2,0.46,0.39,0.69,0.57c3.83,3.05,8.69,4.4,14.11,3.89c8.76-0.8,16.66-7.12,20.5-15.1c1.27,11.11,4.7,23.96,11.9,37.92
		c-12.17-8.22-31.62-5.96-41.15,5.17C-15.48,668.071-17.57,673.551-17.76,679.151z M-22.66,718.131c-3.38-1.89-5.31-5-5.32-8.52
		c0-5.36,4.29-11.03,11.85-15.75c4.18,7.85,9.27,15.37,15.3,22.51C-10.26,721.351-18.2,720.641-22.66,718.131z M6.36,748.801
		c-4.96-0.78-8.87-4.33-9.98-9.03c-1.35-5.77,1.65-11.97,8.26-17.27c4.37,4.62,9.12,9.07,14.29,13.34c0.85,0.71,1.72,1.41,2.59,2.1
		c0.67,0.54,1.34,1.05,2.02,1.57C18.76,746.411,12.59,749.791,6.36,748.801z M21.87,732.281c-10.35-8.55-19.05-17.84-26.05-27.78
		c5.59,4.12,11.89,6.01,18.34,5.42c7.43-0.67,14.51-4.62,19.43-10.83c5.86-7.38,8.48-14.99,7.9-22.04c2.38,3.28,4.95,6.58,7.78,9.92
		c7.15,8.44,15.02,16.05,23.05,22.5c-10.47-1.99-22.39,1.58-29,9.89c-4.11,5.18-5.83,11.03-5,16.95c0.54,3.83,2.19,7.58,4.78,11.05
		C36.09,743.071,28.86,738.071,21.87,732.281z M37.98,771.031c-5.61,0.12-10.76-2.88-13.11-7.63c-0.97-1.95-1.44-4.09-1.44-6.36
		c0-0.25,0.01-0.51,0.02-0.77v-0.04c0.01-0.21,0.03-0.42,0.05-0.63c0.01-0.16,0.03-0.33,0.05-0.5c0.03-0.22,0.06-0.45,0.09-0.68
		c0.04-0.22,0.08-0.45,0.12-0.68c0.04-0.23,0.09-0.45,0.15-0.68c0.05-0.23,0.11-0.46,0.17-0.69c0.06-0.24,0.13-0.47,0.2-0.7
		c0.09-0.31,0.19-0.62,0.29-0.93c0.29-0.83,0.63-1.66,1.03-2.5c0.11-0.25,0.23-0.5,0.36-0.75c0.2-0.4,0.41-0.8,0.65-1.21
		c0.12-0.22,0.24-0.45,0.38-0.67c0.11-0.19,0.23-0.39,0.36-0.59c0.18-0.29,0.37-0.59,0.57-0.89c0.2-0.3,0.4-0.59,0.61-0.89
		c0.81,0.58,1.62,1.15,2.44,1.72c1.53,1.05,3.05,2.08,4.57,3.07c0.77,0.51,1.55,1,2.32,1.49c0.72,0.46,1.44,0.91,2.16,1.35
		c0.06,0.05,0.13,0.09,0.19,0.12c0.66,0.4,1.31,0.8,1.96,1.19c1,0.6,1.99,1.18,2.97,1.75c1.84,1.06,3.66,2.08,5.46,3.05
		c0.68,0.37,1.37,0.74,2.05,1.1c0.68,0.36,1.35,0.71,2.02,1.05C50.75,766.581,44.76,770.891,37.98,771.031z M50.46,751.661
		c-0.62-0.51-1.22-1.03-1.78-1.56c-0.28-0.26-0.56-0.52-0.82-0.79c-0.25-0.24-0.49-0.49-0.72-0.74c-0.03-0.02-0.05-0.04-0.07-0.07
		c-0.03-0.03-0.06-0.06-0.08-0.09c-0.18-0.19-0.35-0.38-0.52-0.57c-0.45-0.51-0.88-1.02-1.28-1.54c-0.19-0.25-0.38-0.5-0.56-0.76
		c-0.18-0.24-0.34-0.48-0.51-0.73c-0.02-0.03-0.04-0.06-0.05-0.08c-0.16-0.24-0.32-0.48-0.46-0.72c-0.24-0.38-0.46-0.77-0.67-1.16
		c-0.12-0.21-0.23-0.42-0.33-0.63c-0.16-0.3-0.31-0.61-0.44-0.92c-0.03-0.06-0.05-0.11-0.08-0.17c-0.12-0.27-0.24-0.55-0.34-0.83
		c-0.24-0.63-0.45-1.26-0.63-1.89c-0.07-0.23-0.13-0.46-0.18-0.7c-0.06-0.24-0.11-0.48-0.16-0.72c-0.07-0.33-0.12-0.67-0.17-1.01
		c-0.75-5.27,0.82-10.51,4.51-15.17c7.23-9.1,21.98-11.97,32.55-7.22c2.26,1.65,4.52,3.21,6.77,4.67c5.14,4.91,7.38,10.6,6.56,16.57
		c-0.82-3.32-2.64-6.25-5.33-8.39c-8.43-6.69-21-1.9-24.76,2.84c-0.29,0.36-0.55,0.72-0.8,1.08s-0.48,0.73-0.69,1.09
		c-0.54,0.91-0.96,1.83-1.27,2.76c-0.57,1.7-0.77,3.41-0.59,5.11c0.04,0.4,0.1,0.8,0.18,1.2c0.04,0.19,0.09,0.39,0.14,0.59
		s0.11,0.4,0.17,0.6c0.12,0.39,0.26,0.79,0.42,1.18c0.08,0.19,0.16,0.37,0.24,0.56c0.09,0.21,0.19,0.42,0.31,0.62
		c0.3,0.58,0.65,1.16,1.04,1.74c0.4,0.57,0.84,1.15,1.32,1.71c0.25,0.3,0.52,0.6,0.8,0.89c0.83,0.89,1.79,1.76,2.86,2.61
		c3.82,3.03,7.89,3.61,11.3,3.28c-5.27,2.84-10.99,3.65-16.32,2.37C56.95,755.161,53.75,753.491,50.46,751.661z M72.5,786.561
		c-4.96,0.66-9.65-1.33-12.24-5.18c-3.18-4.75-2.86-11.62,0.86-19.07c13.06,6.2,23.31,9.57,26.83,10.64
		C84.67,780.681,79.03,785.701,72.5,786.561z M112.38,733.591c-0.51,0.53-1.02,1.06-1.51,1.6c-0.54,0.58-1.08,1.16-1.6,1.75
		c-0.58,0.64-1.16,1.29-1.73,1.95c-0.04,0.04-0.07,0.08-0.11,0.12c-0.58,0.68-1.15,1.36-1.72,2.04c-0.58,0.69-1.15,1.39-1.71,2.09
		c-0.55,0.69-1.1,1.39-1.63,2.08c-0.03,0.02-0.04,0.04-0.05,0.07c-0.53,0.69-1.05,1.38-1.56,2.08c-0.02,0.01-0.03,0.02-0.03,0.04
		c-0.02,0.01-0.03,0.02-0.03,0.04c-0.49,0.67-0.97,1.34-1.44,2.01c-0.22,0.29-0.43,0.59-0.62,0.89c-0.31,0.44-0.61,0.88-0.89,1.32
		c-0.27,0.39-0.53,0.78-0.78,1.17c-0.31,0.47-0.62,0.94-0.91,1.42c-0.23,0.35-0.45,0.7-0.66,1.05c-0.26,0.42-0.51,0.84-0.75,1.26
		c-0.3,0.46-0.57,0.93-0.83,1.4c-0.43,0.73-0.84,1.46-1.24,2.2c-0.45,0.82-0.89,1.65-1.31,2.48c-0.23,0.45-0.46,0.9-0.68,1.35
		c-0.29,0.57-0.56,1.14-0.83,1.72c-0.41,0.86-0.8,1.72-1.18,2.59c-3.59-1.13-11.92-3.93-22.49-8.77c5.93-0.26,11.95-2.7,17.18-7.28
		c0.43-0.38,0.52-1.02,0.21-1.5c-0.32-0.49-0.94-0.67-1.47-0.42c-2.65,1.25-9.51,3.64-15.53-1.14c-0.74-0.59-1.42-1.19-2.04-1.8
		c-0.39-0.37-0.75-0.74-1.08-1.13c-0.16-0.18-0.33-0.37-0.48-0.56c-0.47-0.57-0.89-1.15-1.24-1.73c-0.11-0.16-0.21-0.33-0.3-0.5
		c-0.04-0.06-0.07-0.12-0.1-0.18c-0.09-0.16-0.17-0.32-0.25-0.48c-0.1-0.19-0.19-0.39-0.27-0.58c-0.19-0.43-0.34-0.86-0.47-1.29
		c-0.07-0.24-0.13-0.47-0.18-0.71c-0.05-0.2-0.08-0.39-0.11-0.58c-0.02-0.08-0.03-0.17-0.04-0.25c-0.03-0.19-0.05-0.38-0.06-0.58
		c-0.2-2.72,0.74-5.46,2.85-8.12c3.35-4.21,14.48-8.05,21.52-2.46c5.45,4.33,5.14,10.59,4.74,13.09c-0.08,0.57,0.26,1.11,0.81,1.27
		c0.55,0.18,1.13-0.08,1.38-0.59c3.36-6.99,2.98-14.02-0.85-20.2c8.87,5.03,17.36,8.25,24.66,9.12
		C114.09,731.821,113.23,732.701,112.38,733.591z M180.5,683.871c-14.34,6.24-42.44,19.65-64.08,37.33
		c-0.24,0.19-0.29,0.55-0.08,0.8c0.03,0.04,0.06,0.07,0.09,0.09c0.2,0.17,0.5,0.17,0.72,0c17.38-14.19,38.95-25.63,54.14-32.77
		c-19.29,11.59-37.08,23.63-51.73,37.23c-3.62,0.12-7.72-0.6-12.15-2.03c-1.16-3.76,0.03-7.93,3.17-10.49
		c2.51-2.04,5.23-4.14,8.09-6.23c3.2-2.35,6.64-4.71,10.49-7.22c0.02-0.01,0.04-0.02,0.05-0.04c0.03-0.01,0.07-0.03,0.09-0.05
		c27.71-17.92,56.06-28.7,57.25-29.15c0.77-0.29,1.56-0.47,2.36-0.56c2.87,1.32,5.55,2.34,7.99,3.07c0.14,0.13,0.26,0.28,0.39,0.44
		C191.62,677.471,186.01,680.661,180.5,683.871z M527.61,316.361c-0.53,0.28-1.09,0.57-1.68,0.85c-0.17,0.09-0.36,0.18-0.54,0.26
		c-0.7,0.34-1.42,0.68-2.18,1.02l-0.09,0.03c-2.6,1.17-5.58,2.38-8.95,3.71l-0.4,0.15l-0.32,0.3c-0.23,0.21-23.21,21.37-50.37,34.02
		c-0.27,0.13-0.55,0.22-0.83,0.32c-3.04,1.02-5.6,2.55-8.61,11.88c-1.54,4.79-8.34,20.79-17.84,41.24
		c-0.29,0.34-0.46,0.73-0.53,1.14c-21.47,46.08-56.27,113.79-76.28,127.77c-1.04,0.73-1.29,2.18-0.56,3.23
		c0.13,0.19,0.28,0.35,0.46,0.48c0.77,0.62,1.9,0.68,2.75,0.08c20.88-14.6,55.95-83.25,77.59-129.61l0.01-0.01
		c22.09-23.54,58.38-34.83,84.48-26.32c0.43,0.24,2.32,1.36,2.38,3.03c0.05,1.19-0.85,4.52-10.14,9.71
		c-22.67,12.67-54.58,52.37-70.51,75.96c-1.28,1.9-2.71,4.05-4.29,6.44c-19.49,29.44-60.07,90.69-131.18,134.26
		c-14.46,8.87-29.75,15.79-44.54,22.47c-12.67,5.73-25.78,11.65-38.39,18.81c-6.04,3.42-12.04,6.78-17.99,10.1
		c-1.57,0.89-3.13,1.76-4.69,2.63c-3.43,0.35-11.23-1.82-23.37-9.01c-11.89-7.04-24.39-16.79-35.2-27.45
		c-14.87-14.66-39.01-43.54-35.2-73.46c15.47-10.43,25.9-22.51,31.18-36.16c1.73-3.81,70.67-154.97,85.73-172.83
		c13.29-15.75,26.19-44.3,35.6-65.15c2.65-5.86,5.15-11.41,7.3-15.89c0.39-0.8,0.75-1.62,1.1-2.46c2.03-4.73,4.13-9.61,14.61-13.97
		c15.4-6.4,54.29-24.19,60.02-26.81c1.57,0.41,5.58,1.79,6.41,5.43c1.14,4.94-2.6,17.25-40.5,44.16l-0.6,0.42l-0.24,0.71
		c-4.58,13.46-12.31,34.55-15.16,38.52c-0.89,0.67-1.77,1.32-2.59,1.94c-4.93,3.69-8.81,6.6-9.86,7.28
		c-4.29,2.79-13.09,5.8-13.17,5.84c-1.21,0.41-1.86,1.72-1.45,2.93c0.15,0.44,0.41,0.8,0.75,1.07c0.6,0.47,1.41,0.63,2.18,0.37
		c0.39-0.12,9.44-3.22,14.22-6.34c1.16-0.76,4.72-3.42,10.09-7.45c16.79-12.55,48.04-35.92,62.04-43.08l0.35-0.23
		c0.07-0.05,7.19-5.42,20.41-6.73c4.13-0.41,11.2-1.45,19.39-2.64c10.73-1.58,24.67-3.61,35.91-4.74
		c-9.06,2.43-16.16,4.1-19.66,4.61c-14.71,2.1-24.05,11.79-25.01,12.84c-14.93,14.01-22.16,20.33-22.89,20.97
		c-39.77,29.83-58.76,48.87-58.95,49.06c-0.89,0.91-0.89,2.37,0.02,3.26c0.06,0.07,0.13,0.13,0.18,0.18
		c0.92,0.72,2.25,0.66,3.09-0.18c0.19-0.2,18.99-19.05,58.51-48.67l0.12-0.11c0.07-0.06,7.33-6.36,23.14-21.21l0.13-0.13
		c0.09-0.1,8.8-9.51,22.32-11.44c5.63-0.8,20.38-4.6,37.75-9.71c0.09-0.01,0.16-0.04,0.24-0.06l0.01,0.01
		c5-1.47,11.24-3.36,17.09-5.2c0.04-0.01,0.06-0.03,0.09-0.04c22.57-7.08,45.91-15.32,57.98-21.57c1.95,0.93,6.48,3.65,6.9,8.68
		c1.26,15-31.35,35.81-51.04,46.94c-2.03,0.75-4.04,1.5-5.99,2.22c-16.62,6.17-30.98,11.51-42.11,14.9
		c-24.23,7.39-35.13,22.81-36.44,24.78c-53.96,58.41-57.81,69.15-58.07,70.18c-0.31,1.24,0.43,2.49,1.68,2.8
		c1.2,0.31,2.43-0.39,2.77-1.56c0.24-0.64,4.84-11.82,57.14-68.43l0.14-0.15l0.11-0.17c0.11-0.16,10.27-15.78,34.03-23.02
		c11.26-3.45,25.66-8.79,42.36-14.99c6.47-2.41,13.47-5,20.91-7.73c1.59-0.58,3.21-1.17,4.85-1.75c0.68-0.26,1.36-0.5,2.04-0.75
		c1.92-0.69,3.87-1.4,5.83-2.1c12.08-4.32,25.12-8.83,38.9-13.3c1.27,0.28,4.87,1.32,5.83,4.42c1.11,3.67-0.51,12.74-23.03,32.68
		l-0.46,0.4c-0.63,0.56-1.27,1.12-1.94,1.69c-0.38,0.34-0.82,0.68-1.28,1c-0.07,0.06-0.15,0.11-0.23,0.17
		c-0.45,0.31-0.92,0.62-1.43,0.93c-0.13,0.09-0.26,0.16-0.39,0.24c-0.53,0.31-1.08,0.62-1.66,0.94
		C527.8,316.261,527.7,316.311,527.61,316.361z M562.74,276.821c-2.03-6.68-9.79-7.71-10.12-7.75l-0.52-0.07l-0.48,0.17
		c-13.27,4.28-25.84,8.62-37.55,12.79c-0.48-0.5-0.96-0.99-1.43-1.47c19.01-13.6,28.19-25.34,27.34-35.06
		c-0.83-9.36-10.42-12.84-10.83-12.99l-0.97-0.33l-0.89,0.48c-10.52,5.65-31.02,13.08-51.84,19.78c-0.88,0.28-4.36,0.79-5.16,0.81
		c-2.15,0.05-8.63-0.93-9.5-1.06c-7.53-1.09-13.92-3.54-18.99-7.3c-2.45-1.8-5.58-4.81-6.54-8.83l-0.03-0.11
		c-3.06-18.1,6.21-36.16,28.38-55.2c20.02-17.2,49.68-34.11,88.13-50.22c49.55-20.78,101.38-34.86,124.14-40.58
		c-2.32,87.8-13.96,154.7-34.58,198.9c-18.1,38.78-38,48.23-44.54,51.32c-18.29,8.68-26.08,9.2-34.74,2.32
		c-3.12-2.48-6.33-5.97-9.52-10.39c-2.61-3.6-5.17-7.24-7.88-11.11c-1.75-2.48-3.52-4.98-5.3-7.48
		C557.57,297.101,565.25,285.101,562.74,276.821z M690.05,75.401l-0.01,0.16c-1.57,108.24-17.99,244.17-87.33,277.07
		c-21.34,10.13-40.69,16.18-61.44-12.46c-2.65-3.67-5.25-7.36-8.01-11.28c-1.75-2.5-3.52-5-5.3-7.52c0.01,0,0.01-0.01,0.02-0.01
		c0.19-0.09,0.36-0.18,0.54-0.27c0.66-0.33,1.3-0.66,1.89-0.98c0.08-0.05,0.16-0.08,0.23-0.13c0.67-0.37,1.3-0.73,1.89-1.09
		c0.01-0.01,0.02-0.02,0.04-0.03c0.63-0.39,1.22-0.79,1.77-1.18c0.01-0.01,0.02-0.02,0.03-0.02c0.53-0.39,1.01-0.77,1.47-1.16
		c1.68,2.37,3.34,4.73,5,7.08c2.72,3.88,5.3,7.55,7.92,11.18c3.45,4.74,6.94,8.54,10.39,11.29c10.16,8.06,19.78,7.64,39.6-1.77
		c6.91-3.27,27.94-13.25,46.74-53.55c21.14-45.28,32.94-113.84,35.09-203.78l0.07-3.02l-2.94,0.73
		c-21.05,5.21-75.63,19.68-127.75,41.53c-38.9,16.31-68.97,33.46-89.37,50.98c-23.52,20.23-33.31,39.71-29.9,59.58l0.07,0.32
		c1.3,5.37,5.23,9.19,8.29,11.47c5.69,4.21,12.79,6.96,21.08,8.16c0.32,0.04,0.65,0.09,0.99,0.13c-3.02,0.93-5.97,1.82-8.58,2.58
		c-0.04,0-0.08,0-0.12-0.01c-0.22-0.04-0.46-0.06-0.71-0.09c-0.28-0.04-0.58-0.06-0.88-0.08c-0.16-0.02-0.32-0.03-0.48-0.04
		c-0.29-0.02-0.59-0.03-0.89-0.04c-0.1,0-0.21-0.01-0.31-0.01c-0.32-0.02-0.68-0.02-1.03-0.03c-0.06,0.01-0.12,0-0.18,0.01
		c-1.17-0.02-2.48,0.01-3.91,0.07c-0.03,0.01-0.06,0.01-0.09,0.01c-0.43,0.02-0.87,0.04-1.31,0.07c-0.16,0-0.33,0.02-0.51,0.02
		c-0.4,0.03-0.8,0.05-1.22,0.08c-0.58,0.03-1.17,0.08-1.75,0.12c-0.08,0.01-0.14,0.01-0.21,0.02c-14.79-8.2-17.21-20.38-17.31-20.89
		c-4.11-23.13,7-46.2,33.02-68.53c21.18-18.17,52.12-35.84,91.98-52.53c68.08-28.51,139.4-44.4,140.11-44.55
		c0.72-0.17,2.02-0.35,2.65,0.19C689.97,73.691,690.09,74.891,690.05,75.401z"/>
	<path class="st6" d="M647.94,126.371c-18.11-14.37-44.52-11.35-58.89,6.74c-14.38,18.1-11.36,44.52,6.74,58.89
		c18.1,14.38,44.51,11.35,58.89-6.74C669.05,167.161,666.03,140.741,647.94,126.371z M651.97,183.101
		c-13.18,16.6-37.42,19.38-54.02,6.19c-16.6-13.18-19.38-37.42-6.19-54.01c13.19-16.61,37.42-19.39,54.02-6.2
		C662.38,142.261,665.16,166.501,651.97,183.101z"/>
	<path class="st6" d="M285.35,513.631c0.04,0.64-0.46,1.18-1.1,1.21c-0.3,0.02-0.56-0.08-0.77-0.24c-0.26-0.21-0.43-0.51-0.44-0.86
		c-0.04-0.85-0.09-1.68-0.15-2.49c-1.06-12.92-6.11-23.85-15.01-32.48c-1.57-1.53-3.31-3.03-5.2-4.46l-0.13-0.09
		c-11.13-8.37-22.82-10.84-22.94-10.87c-0.62-0.13-1.03-0.74-0.9-1.37c0.13-0.62,0.74-1.03,1.37-0.9
		c0.49,0.11,12.25,2.59,23.8,11.25c0.09,0.06,0.17,0.12,0.21,0.15c1.94,1.47,3.77,3.05,5.4,4.63c9.31,9.04,14.59,20.46,15.7,33.96
		C285.25,511.891,285.31,512.761,285.35,513.631z"/>
	<path class="st6" d="M277.75,528.731c-0.52-7.82-1.99-15.02-4.35-21.41c-6.31-17.01-18.9-28.74-37.42-34.86
		c-5.15-1.71-10.69-2.96-16.45-3.69c-12.1-1.58-21.47-0.6-22.68-0.46c-2.13,0.07-3.42,1.04-4.13,1.85
		c-1.58,1.79-1.63,4.26-1.59,5.25c-5.24,27.12-1.99,48.62,9.67,63.9c2.87,3.78,6.1,6.99,9.55,9.73
		c17.4,13.83,40.25,15.54,49.83,16.26c1.02,0.09,1.87,0.14,2.52,0.21c5.03,0.53,8.75-0.34,11.03-2.57c1.97-1.93,2.18-4.2,2.19-5.09
		C277.71,547.291,278.32,537.501,277.75,528.731z M234.53,476.851c7.15,2.37,13.35,5.64,18.57,9.77
		c7.25,5.77,12.59,13.22,15.96,22.31c0.07,0.19,0.14,0.39,0.21,0.59c-1.12,2.14-2.44,4.19-3.97,6.12
		c-10.61,13.35-28.06,17.2-38.92,8.57c-10.85-8.61-11.05-26.48-0.44-39.83c2.37-3,5.13-5.56,8.21-7.65
		C234.27,476.771,234.39,476.811,234.53,476.851z M218.38,473.281c0.19,0.03,0.37,0.04,0.55,0.07c4.3,0.55,8.47,1.42,12.43,2.54
		c-2.67,2-5.11,4.36-7.24,7.05c-11.39,14.34-11.02,33.68,0.83,43.08c11.84,9.42,30.76,5.41,42.15-8.94c1.17-1.46,2.2-3,3.14-4.57
		c1.52,5.05,2.5,10.59,2.9,16.52c0.02,0.26,0.01,0.52,0.03,0.77c-14.61,16.82-39.21,19.99-55.74,6.86
		c-17.03-13.53-19.16-39.3-4.74-57.45C214.41,477.041,216.32,475.071,218.38,473.281z M271.33,557.291l-0.05,0.29l0.03,0.29
		c0,0,0,0.96-0.81,1.77c-1.22,1.19-3.82,1.65-7.33,1.28c-0.67-0.07-1.56-0.14-2.65-0.23c-10.91-0.81-39.9-3-56.05-24.17
		c-10.86-14.25-13.8-34.61-8.75-60.52l0.07-0.36l-0.03-0.33c-0.07-0.58,0.04-1.66,0.44-2.1c0.06-0.07,0.23-0.27,0.84-0.27l0.26-0.02
		c0.08-0.02,7.71-0.93,18.01,0.03c-1.57,1.5-3.05,3.1-4.42,4.82c-15.22,19.15-12.93,46.38,5.1,60.7c16.9,13.43,41.73,10.8,57.3-5.37
		C273.46,540.501,272.81,548.611,271.33,557.291z"/>
</g>
</svg>
