<?xml version="1.0" encoding="utf-8"?>
<!-- Generator: Adobe Illustrator 19.1.0, SVG Export Plug-In . SVG Version: 6.00 Build 0)  -->
<svg version="1.1" id="Layer_2" xmlns="http://www.w3.org/2000/svg" xmlns:xlink="http://www.w3.org/1999/xlink" x="0px" y="0px"
	 viewBox="0 0 342.6 762.5" style="enable-background:new 0 0 342.6 762.5;" xml:space="preserve">
<style type="text/css">
	.st0{fill:url(#SVGID_1_);}
	.st1{fill:#D8455E;}
	.st2{opacity:0.32;fill:url(#SVGID_2_);}
	.st3{opacity:0.32;fill:url(#SVGID_3_);}
</style>
<linearGradient id="SVGID_1_" gradientUnits="userSpaceOnUse" x1="171.3242" y1="762.483" x2="171.3242" y2="549.3386">
	<stop  offset="0.6189" style="stop-color:#E09B75"/>
	<stop  offset="0.6934" style="stop-color:#DC9772"/>
	<stop  offset="0.772" style="stop-color:#CF8B67"/>
	<stop  offset="0.8525" style="stop-color:#BA7856"/>
	<stop  offset="0.9337" style="stop-color:#9D5D3E"/>
	<stop  offset="1" style="stop-color:#7F4126"/>
</linearGradient>
<path class="st0" d="M180.7,762.5h-18.8c-8.8,0-16-7.2-16-16V486.9c0-6.2,5.1-11.3,11.3-11.3h28.1c6.2,0,11.3,5.1,11.3,11.3v259.6
	C196.7,755.3,189.5,762.5,180.7,762.5z"/>
<circle class="st1" cx="171.3" cy="171.3" r="171.3"/>
<path class="st1" d="M282.6,554.3H60c-33,0-60-27-60-60V171.3h342.6v322.9C342.6,527.3,315.6,554.3,282.6,554.3z"/>
<linearGradient id="SVGID_2_" gradientUnits="userSpaceOnUse" x1="244.1687" y1="480.4948" x2="244.1687" y2="157.4749">
	<stop  offset="0" style="stop-color:#FFFFFF;stop-opacity:0.5"/>
	<stop  offset="9.390633e-03" style="stop-color:#FCE8EB;stop-opacity:0.5146"/>
	<stop  offset="2.748538e-02" style="stop-color:#F6C3CA;stop-opacity:0.5426"/>
	<stop  offset="4.767688e-02" style="stop-color:#F2A1AD;stop-opacity:0.5739"/>
	<stop  offset="6.981172e-02" style="stop-color:#EE8594;stop-opacity:0.6083"/>
	<stop  offset="9.458076e-02" style="stop-color:#EB6F80;stop-opacity:0.6467"/>
	<stop  offset="0.1231" style="stop-color:#E85D71;stop-opacity:0.691"/>
	<stop  offset="0.1579" style="stop-color:#E65166;stop-opacity:0.7448"/>
	<stop  offset="0.2052" style="stop-color:#E54A60;stop-opacity:0.8183"/>
	<stop  offset="0.3224" style="stop-color:#E5485E"/>
	<stop  offset="0.392" style="stop-color:#D64358;stop-opacity:0.9794"/>
	<stop  offset="0.5257" style="stop-color:#AF3748;stop-opacity:0.94"/>
	<stop  offset="0.7098" style="stop-color:#70232E;stop-opacity:0.8857"/>
	<stop  offset="0.935" style="stop-color:#1A080B;stop-opacity:0.8192"/>
	<stop  offset="1" style="stop-color:#000000;stop-opacity:0.8"/>
</linearGradient>
<path class="st2" d="M254.6,157.5h-20.9c-20.4,0-37,16.7-37,37v244.1c0,20.4,16.6,37,37,37h20.9c20.4,0,37-16.6,37-37V194.5
	C291.6,174.2,275,157.5,254.6,157.5z"/>
<linearGradient id="SVGID_3_" gradientUnits="userSpaceOnUse" x1="98.4798" y1="480.4948" x2="98.4798" y2="157.4749">
	<stop  offset="0" style="stop-color:#FFFFFF;stop-opacity:0.5"/>
	<stop  offset="9.390633e-03" style="stop-color:#FCE8EB;stop-opacity:0.5146"/>
	<stop  offset="2.748538e-02" style="stop-color:#F6C3CA;stop-opacity:0.5426"/>
	<stop  offset="4.767688e-02" style="stop-color:#F2A1AD;stop-opacity:0.5739"/>
	<stop  offset="6.981172e-02" style="stop-color:#EE8594;stop-opacity:0.6083"/>
	<stop  offset="9.458076e-02" style="stop-color:#EB6F80;stop-opacity:0.6467"/>
	<stop  offset="0.1231" style="stop-color:#E85D71;stop-opacity:0.691"/>
	<stop  offset="0.1579" style="stop-color:#E65166;stop-opacity:0.7448"/>
	<stop  offset="0.2052" style="stop-color:#E54A60;stop-opacity:0.8183"/>
	<stop  offset="0.3224" style="stop-color:#E5485E"/>
	<stop  offset="0.392" style="stop-color:#D64358;stop-opacity:0.9794"/>
	<stop  offset="0.5257" style="stop-color:#AF3748;stop-opacity:0.94"/>
	<stop  offset="0.7098" style="stop-color:#70232E;stop-opacity:0.8857"/>
	<stop  offset="0.935" style="stop-color:#1A080B;stop-opacity:0.8192"/>
	<stop  offset="1" style="stop-color:#000000;stop-opacity:0.8"/>
</linearGradient>
<path class="st3" d="M108.9,157.5H88c-20.3,0-37,16.7-37,37v244.1c0,20.4,16.7,37,37,37h20.9c20.3,0,37-16.6,37-37V194.5
	C145.9,174.2,129.3,157.5,108.9,157.5z"/>
</svg>
