<svg xmlns="http://www.w3.org/2000/svg" id="Layer_2" viewBox="0 0 310.2 762.5">
  <style>
    .st0{opacity:0.28;fill:#2FE1EA;} .st1{opacity:0.48;fill:#2FE1EA;} .st2{opacity:0.7;fill:#2FE1EA;}
  </style>
  <path class="st0" d="M299 216h-408.2c-6.2 0-11.3-5-11.3-11.3V11.3c0-6.2 5-11.3 11.3-11.3h408c6.3 0 11.4 5 11.4 11.3v193.3c0 6.3-5 11.4-11.3 11.4z"/>
  <path class="st1" d="M299 489.6h-408.2c-6.2 0-11.3-5-11.3-11.3V285c0-6.3 5-11.4 11.3-11.4h408c6.3 0 11.4 5 11.4 11.3V478c0 6.3-5 11.4-11.3 11.4z"/>
  <path class="st2" d="M299 762.5h-408.2c-6.2 0-11.3-5-11.3-11.3V557.8c0-6.2 5-11.3 11.3-11.3h408c6.3 0 11.4 5 11.4 11.3V751c0 6.4-5 11.5-11.3 11.5z"/>
</svg>
