<?xml version="1.0" encoding="utf-8"?>
<!-- Generator: Adobe Illustrator 19.1.0, SVG Export Plug-In . SVG Version: 6.00 Build 0)  -->
<svg version="1.1" id="Layer_2" xmlns="http://www.w3.org/2000/svg" xmlns:xlink="http://www.w3.org/1999/xlink" x="0px" y="0px"
	 viewBox="0 0 310.2 762.5" style="enable-background:new 0 0 310.2 762.5;" xml:space="preserve">
<style type="text/css">
	.st0{opacity:0.28;fill:#2FE1EA;}
	.st1{opacity:0.48;fill:#2FE1EA;}
	.st2{opacity:0.7;fill:#2FE1EA;}
</style>
<path class="st0" d="M298.9,216h-408.1c-6.2,0-11.3-5.1-11.3-11.3V11.3c0-6.2,5.1-11.3,11.3-11.3h408.1c6.2,0,11.3,5.1,11.3,11.3
	v193.3C310.2,210.9,305.1,216,298.9,216z"/>
<path class="st1" d="M298.9,489.6h-408.1c-6.2,0-11.3-5.1-11.3-11.3V284.9c0-6.2,5.1-11.3,11.3-11.3h408.1c6.2,0,11.3,5.1,11.3,11.3
	v193.3C310.2,484.5,305.1,489.6,298.9,489.6z"/>
<path class="st2" d="M298.9,762.5h-408.1c-6.2,0-11.3-5.1-11.3-11.3V557.8c0-6.2,5.1-11.3,11.3-11.3h408.1c6.2,0,11.3,5.1,11.3,11.3
	v193.3C310.2,757.4,305.1,762.5,298.9,762.5z"/>
</svg>
