<?xml version="1.0" encoding="utf-8"?>
<!-- Generator: Adobe Illustrator 19.1.0, SVG Export Plug-In . SVG Version: 6.00 Build 0)  -->
<svg version="1.1" xmlns="http://www.w3.org/2000/svg" xmlns:xlink="http://www.w3.org/1999/xlink" x="0px" y="0px"
	 viewBox="0 0 900 900" style="enable-background:new 0 0 900 900;" xml:space="preserve">
<style type="text/css">
	.st0{fill:#9BC4C0;}
	.st1{fill:#7BADAA;}
	.st2{fill:#497275;}
	.st3{fill:#2D5051;}
	.st4{fill:#7A2B1E;}
	.st5{fill:#DB4D4D;}
	.st6{fill:#AD4234;}
	.st7{fill:#78A2A8;}
	.st8{fill:#102930;}
</style>
<g id="waves">
	<path class="st0" d="M-146,620l1083-25l-34-444c0,0-39.4,32.9-102.4,32.9S703,151,703,151s-39.4,32.9-102.4,32.9S503,151,503,151
		s-39.4,32.9-102.4,32.9S303,151,303,151s-39.4,32.9-102.4,32.9S103,151,103,151S63.6,183.9,0.6,183.9S-97,151-97,151L-146,620z"/>
	<path class="st1" d="M-50,723l995-17l54-452c0,0-39.4,32.9-102.4,32.9S799,254,799,254s-39.4,32.9-102.4,32.9S599,254,599,254
		s-39.4,32.9-102.4,32.9S399,254,399,254s-39.4,32.9-102.4,32.9S199,254,199,254s-39.4,32.9-102.4,32.9S-1,254-1,254L-50,723z"/>
	<path class="st2" d="M-146,939H937l-34-469c0,0-39.4,32.9-102.4,32.9S703,470,703,470s-39.4,32.9-102.4,32.9S503,470,503,470
		s-39.4,32.9-102.4,32.9S303,470,303,470s-39.4,32.9-102.4,32.9S103,470,103,470S63.6,502.9,0.6,502.9S-97,470-97,470L-146,939z"/>
	<path class="st3" d="M-52,1174h1083l-34-469c0,0-39.4,32.9-102.4,32.9S797,705,797,705s-39.4,32.9-102.4,32.9S597,705,597,705
		s-39.4,32.9-102.4,32.9S397,705,397,705s-39.4,32.9-102.4,32.9S197,705,197,705s-39.4,32.9-102.4,32.9S-3,705-3,705L-52,1174z"/>
	<path class="st3" d="M191,162.6l0-11.7l0-13l0-1l-14,7l12,6l0,12.6c-14.1-0.4-25-8.6-25-8.6c28.7,64.4,49.5-0.2,49.5-0.2
		C205.9,160.2,198.1,162.5,191,162.6z"/>
	<path class="st3" d="M780.7,152.8l2.2-9.8l20.5,4.6c2.4-10.7-1.9-18.9-1.9-18.9l-14.6-3.3l0.9-3.9l11.9,2.7
		c1.5-6.8-1.5-12.6-1.5-12.6l-7.8-1.7l0.9-3.9l-2.9-0.7l-0.9,3.9l-8-1.8c0.5,7.3-2.6,11.7-2.6,11.7l8,1.8l-0.9,3.9l-8.8-2
		c0.7,10.4-4,17.6-4,17.6l8.8,2l-2.2,9.8l-26.3-5.9l2.2-9.8l11.9,2.7c1.5-6.8-1.5-12.6-1.5-12.6l-7.8-1.7l0.4-2l-2-0.4l-0.4,2l-9-2
		c0.5,7.3-2.6,11.7-2.6,11.7l9,2l-2.2,9.8l-18.5-4.2c2.2,33.3,34.5,38,34.5,38c41.7,5.8,47.5-19.5,47.5-19.5L780.7,152.8z
		 M747.2,159.3c-2-0.5-3.3-2.5-2.8-4.5c0.5-2,2.5-3.3,4.5-2.8s3.3,2.5,2.8,4.5C751.3,158.4,749.3,159.7,747.2,159.3z M776.5,165.9
		c-2-0.5-3.3-2.5-2.8-4.5c0.5-2,2.5-3.3,4.5-2.8s3.3,2.5,2.8,4.5C780.5,165,778.5,166.3,776.5,165.9z"/>
</g>
<g id="squid">
	<path class="st4" d="M510.6,832.7C510.6,832.7,510.6,832.7,510.6,832.7c-0.3,0.1-0.7,0.1-1.1,0.1c-1.5,0-3.3-0.2-4.9-0.6
		c-1.7-0.3-3.3-0.7-5-1.1c-1.7-0.4-3.3-0.8-5-1.3c-1.6-0.4-3.3-1-4.9-1.5c-1.6-0.6-3.2-1.2-4.8-1.8c-1-0.5-2-0.9-3-1.3
		c0.2-0.9,0.4-1.8,0.6-2.7c0.7-2.9,1.5-5.7,2.3-8.5c1.4,1.1,2.7,2.1,4.2,3.1c1.4,1,2.8,2.1,4.3,3l4.4,2.9c0.4,0.2,0.7,0.5,1.1,0.7
		l1.1,0.7l2.2,1.4c1.4,0.9,2.9,1.9,4.2,2.9c1.3,1,2.7,2.1,3.7,3.2C510.3,832.2,510.5,832.5,510.6,832.7z"/>
	<path class="st4" d="M557.9,695c-0.2,2-0.5,4-0.9,5.9c-0.1,0.4-0.4,0.8-0.6,1.1c-0.3,0.5-0.6,0.9-1,1.4c-0.4,0.4-0.7,0.9-1.1,1.3
		c-0.4,0.4-0.8,0.8-1.3,1.2c-0.4,0.4-0.9,0.7-1.4,1.1c-0.5,0.4-1,0.6-1.5,0.9c-0.5,0.3-1.1,0.5-1.6,0.8c-0.5,0.3-1.1,0.4-1.7,0.6
		c-0.6,0.2-1.2,0.4-1.8,0.5c-0.6,0.2-1.2,0.3-1.8,0.4c-0.6,0.1-1.2,0.2-1.8,0.3l-1.9,0.1c-0.6,0-1.2,0-1.8,0c-0.6,0-1.2-0.1-1.7-0.3
		c-0.1,0-0.2-0.1-0.3-0.1c0-0.1,0.1-0.1,0.2-0.2c0.2-0.2,0.4-0.3,0.6-0.5c1.1-0.7,2.1-1.4,3-2.2c0.5-0.4,0.9-0.8,1.4-1.2
		c0.5-0.4,0.9-0.9,1.3-1.3c0.4-0.5,0.8-0.9,1.2-1.4l1.1-1.4l0.6-0.7l0.5-0.8l1-1.5c0.7-1,1.2-2.1,1.9-3.1c0.6-1.1,1.1-2.2,1.6-3.3
		c0.5-1.1,0.9-2.3,1.4-3.4l0.6-1.7c0.2-0.6,0.3-1.2,0.5-1.8c0.3-1.2,0.7-2.3,1-3.5l0.7-3.6c0.1-0.6,0.3-1.2,0.4-1.8l0.2-1.8l0.4-3.4
		c0.6,2.1,1.1,4.2,1.5,6.3C557.9,683.6,558.5,689.4,557.9,695z"/>
	<path class="st4" d="M600,633.7c0,0.7,0,1.3-0.1,2c-0.1,0.6-0.2,1.3-0.2,1.9c-0.1,1.2-0.4,2.3-0.6,3.4c-0.1,0.3-0.1,0.5-0.2,0.8
		c0,0,0,0.1,0,0.1c-0.6-3.4-1.3-6.9-2.2-10.2c-1.5-5.9-3.1-11.7-5-17.5c-3.8-11.5-8.3-22.6-13.1-33.6c-1.1-2.6-2.3-5.3-3.5-7.9
		c0.6,1,1.3,2,1.9,3c3.8,6.1,7.7,12.6,11.2,19.3c1.8,3.4,3.4,6.7,4.9,10.2c1.5,3.4,2.8,6.8,3.9,10.1c0.5,1.7,1,3.3,1.4,4.9
		c0.4,1.6,0.7,3.2,1,4.8C599.8,628,600.1,631,600,633.7z"/>
	<path class="st4" d="M530.9,639.2c0,0.7,0,1.4,0,2.1c0,1.4,0,2.8-0.1,4.2c-0.2,2.8-0.5,5.6-0.6,8.4c-0.4,2.8-0.8,5.5-1.1,8.1
		c-0.5,2.6-1,5.1-1.5,7.5c-0.2,1.2-0.5,2.4-0.8,3.5c-0.3,1.1-0.6,2.2-0.9,3.2c-0.5,1.7-0.9,3.4-1.3,4.8c-0.9-6-2.2-11.9-3.7-17.7
		c-3.6-13.7-8.8-26.8-13.8-39.7c-1.3-3.3-2.4-6.5-3.6-9.7c-0.6-1.6-1.1-3.2-1.7-4.9c-0.5-1.6-1.1-3.3-1.6-4.9
		c-2.1-6.6-3.9-13.3-5.5-20c-1.6-6.7-3-13.5-4-20.4c-0.9-6.8-1.6-13.8-1.2-20.3c0.1-1.6,0.3-3.2,0.7-4.7c0.2-0.7,0.4-1.5,0.7-2.1
		c0.2-0.5,0.4-0.9,0.7-1.2c0.2,0.2,0.4,0.4,0.6,0.8c0.7,1.1,1.3,2.7,1.7,4.2c0.2,0.8,0.5,1.6,0.7,2.5c0.3,0.9,0.5,1.8,0.9,2.6l1,2.5
		c0.3,0.8,0.7,1.6,1,2.4c1.4,3.2,3,6.4,4.6,9.5c3.2,6.2,6.6,12.3,10,18.4l10.1,18.3l0,0l0,0.1c0.9,1.5,1.8,2.9,2.7,4.4l-0.5,0.3
		c0,0,0.2,0.3,0.4,0.9c0.2,0.6,0.5,1.5,0.9,2.7c0.2,0.6,0.4,1.2,0.6,1.9c0.2,0.7,0.4,1.5,0.6,2.3c0.2,0.8,0.4,1.7,0.7,2.6
		c0.2,0.9,0.4,1.9,0.7,2.9c0.3,1,0.4,2.1,0.6,3.2c0.2,1.1,0.5,2.3,0.6,3.5c0.1,1.2,0.3,2.4,0.5,3.7c0.2,1.2,0.3,2.5,0.4,3.8
		c0.1,0.7,0.1,1.3,0.2,2c0.1,0.7,0.2,1.3,0.2,2c0.1,1.3,0.1,2.7,0.2,4.1C530.9,637.8,530.9,638.5,530.9,639.2z"/>
	<path class="st4" d="M461.1,654.7l-0.6-0.1c0,0-0.1,0.5-0.2,1.4c-0.1,0.9-0.3,2.2-0.5,3.9c-0.4,3.3-1,8-1.5,13.7
		c-0.3,2.9-0.5,5.9-0.7,9.2c-0.2,3.3-0.5,6.7-0.6,10.3c-0.2,3.6-0.4,7.3-0.5,11c0,1.9-0.1,3.8-0.2,5.7c0,1.9-0.1,3.8-0.1,5.7
		c-0.1,3.8,0,7.6,0,11.4c0,3.8,0.1,7.4,0.2,11c0.1,3.6,0.3,7,0.4,10.3c0.1,1.6,0.2,3.2,0.3,4.7c0.1,1.5,0.2,3,0.3,4.4
		c0.2,2.8,0.4,5.4,0.7,7.8c0.3,2.3,0.5,4.3,0.7,6c0.1,0.5,0.2,1,0.2,1.4c0,1.5-0.6,3.1-0.8,4.6c-0.1,0.7-0.2,1.4-0.3,2
		c-2.3-3.7-4.4-7.4-6.4-11.2l-2.3-4.6c-0.7-1.5-1.4-3.1-2.1-4.7c-0.7-1.5-1.3-3.2-1.9-4.7l-0.9-2.4l-0.8-2.4
		c-4.6-12.9-7.2-26.5-8.3-40.1c-1.1-13.7-0.8-27.5,1.2-41c0.5-3.4,1.2-6.7,1.9-10.1c0.7-3.4,1.3-6.9,1.9-10.3
		c1.2-6.9,2.3-13.8,3.3-20.7c1-6.9,1.9-13.8,2.6-20.8c0.4-3.5,0.7-7,0.9-10.5c0.1-1.8,0.3-3.5,0.4-5.2l0.2-2.6
		c0-0.8,0.1-1.7,0.2-2.5c0.1-0.8,0.3-1.6,0.5-2.3c0-0.2,0.1-0.3,0.1-0.4c0.1,0.3,0.2,0.6,0.3,1c0.1,0.3,0.1,0.7,0.1,1.1
		c0,0.3,0,0.8,0,1.2c0,0.9,0,1.8,0.1,2.7c0.1,1.8,0.2,3.5,0.3,5.3c0.5,7,1.5,13.9,2.6,20.9c1.1,6.9,2.5,13.8,4,20.6
		c0.8,3.4,1.7,6.8,2.6,10.3L461.1,654.7z"/>
	<path class="st4" d="M562.8,216.1c-0.8,2.1-2.1,3.7-3.4,5.1c-1.4,1.4-2.8,2.5-4,3.3c-0.7,0.5-1.3,0.9-1.9,1.2
		c-3-10.1-6.1-20.1-9.8-29.9c-5.8-15.5-12.5-30.5-19.4-45.4c0.2,0.2,0.5,0.5,0.7,0.7c3.6,4.2,7.8,9,12.3,14.2
		c2.3,2.6,4.5,5.3,6.8,8.1c2.3,2.8,4.5,5.7,6.6,8.6c4.2,5.9,8.1,12.1,10.7,18c1.2,3,2.2,5.9,2.4,8.6
		C564,211.7,563.6,214.1,562.8,216.1z"/>
	<path class="st5" d="M562.4,676.9c-0.6-3-1.4-6-2.3-9l-0.7-2.2c-0.3-0.8-0.5-1.4-0.8-2.2l-1.5-4.2c-1-2.8-2.1-5.6-3.3-8.4
		c1.1,2.8,2.2,5.6,3.3,8.4l1.5,4.2c0.3,0.7,0.5,1.4,0.8,2.2l0.7,2.2C561,670.9,561.7,673.9,562.4,676.9c0.9,5,1.4,10.2,1.2,15.4
		C563.9,687.1,563.4,682,562.4,676.9z M538.1,736c1.6-1.6,3.2-3.2,4.8-4.8c-2,2-4,4-6,5.9C537.3,736.8,537.7,736.4,538.1,736z
		 M531.3,742.8l2-1.8h0c0.1,0,0.3-0.5,0.4-0.7c-0.1,0.2-0.3,0.3-0.4,0.4L531.3,742.8z"/>
	<path class="st6" d="M593.2,650.4c-1.5-11.5-4.7-22.9-8.4-34.1c-1.9-5.6-3.9-11.1-6-16.7c-2.1-5.5-4.4-11-6.7-16.5
		c-4.6-11-9.4-21.8-14.3-32.8l-3.6-8.2c-0.6-1.4-1.2-2.8-1.7-4.2c-0.6-1.4-1.1-2.8-1.7-4.2c-2.1-5.7-3.9-11.5-5.3-17.4
		c-1.4-5.9-2.6-11.8-3.3-17.8c-0.8-6-1.4-12-1.6-18c-0.5-12-0.2-24,1.3-36c1.6-11.9,3.9-23.7,8-35.1c2.6-8.6,4.9-17.3,6.7-26.1
		c1.8-8.8,3.2-17.8,4.2-26.7c0.9-9,1.5-17.9,1.8-26.9c0.2-9,0-18-0.5-27c-0.2-2.2-0.2-4.5-0.5-6.7l-0.6-6.7c-0.5-4.5-1-8.9-1.6-13.4
		c-1.3-8.9-2.8-17.8-4.6-26.6c-3.8-17.6-8.8-35-15.1-51.9c-6.3-16.9-13.7-33.4-22.3-49.3c-8.6-15.9-18.2-31.2-28.3-46.1
		c-10.1-14.9-20.8-29.4-31.5-43.8c-1.4-1.8-2.7-3.6-4.1-5.4l-2.1-2.6c-0.6-0.8-1.5-1.6-2.2-2.4c-3.1-3.1-6.7-5.6-10.8-7.2
		c-0.5-0.2-1-0.4-1.6-0.5l-1.6-0.5c-1.1-0.2-2.2-0.5-3.3-0.6c-2.2-0.3-4.4-0.2-6.6,0.1c-2.2,0.3-4.3,0.9-6.4,1.7
		c-2.1,0.8-4.1,1.8-5.9,3.1c-1.9,1.2-3.7,2.6-5.2,4.2c-0.8,0.8-1.6,1.6-2.3,2.4c-0.7,0.9-1.4,1.7-2.1,2.6c-1.3,1.8-2.4,3.8-3.4,5.7
		c-0.9,2-1.7,4.1-2.2,6.2c-0.5,2.1-0.9,4.3-1,6.5c-0.1,1,0,2.2,0,3.3l0.1,3.4c0,0.1,0,0.1,0,0.2c0.2-0.2,0.5-0.4,0.7-0.6
		c2.1-1.6,4.3-2.8,6.4-3.6c2.1-0.8,4.1-1.1,5.8-1.1c0.8-0.1,1.6,0,2.4,0.1c0.7,0.1,1.4,0.1,2,0.2c0.6,0.1,1.1,0.2,1.5,0.3
		c0.4,0.1,0.8,0.2,1.1,0.3c0.4,0.1,0.6,0.2,0.8,0.2c-0.1,0-0.4-0.1-0.8-0.2c-0.3-0.1-0.7-0.1-1.1-0.2c-0.4-0.1-1-0.1-1.5-0.2
		c-0.6-0.1-1.2-0.1-1.9-0.2c-0.7,0-1.5-0.1-2.3,0c-1.7,0.1-3.6,0.5-5.6,1.3c-2,0.8-4.1,2.1-6.1,3.7c-0.4,0.3-0.8,0.7-1.2,1
		c-1,0.9-2.1,1.9-3.1,3c-0.6,0.6-1.2,1.2-1.8,1.9c-4.1,4.5-8.4,9.9-13.9,15.1c-1.4,1.3-2.8,2.6-4.3,3.9c-0.8,0.7-1.5,1.3-2.3,1.9
		c-0.8,0.6-1.6,1.2-2.4,1.8c-3.3,2.5-6.8,4.8-10.5,7c-3.7,2.3-7.7,4.3-11.8,6.3c-4.2,1.9-8.5,3.6-13.2,5c-0.6,0.2-1.2,0.3-1.8,0.5
		l-1.7,0.4c-1.1,0.3-2.2,0.6-3.2,0.9c-2.1,0.7-4.1,1.7-5.8,3c-1.7,1.3-3.2,2.8-4.2,4.5c-1,1.8-1.6,3.7-1.9,5.9
		c-0.5,4.2,0.3,8.8,1.7,13.3c1.4,4.5,3.3,8.9,5.5,13.2c4.4,8.6,9.7,16.9,15.3,24.7c2.8,3.9,5.8,7.7,8.8,11.2
		c0.8,0.9,1.5,1.7,2.3,2.6c0.4,0.4,0.7,0.8,1.1,1.2l0.6,0.6l0.6,0.6c1.7,1.5,3.4,2.9,5.1,4.2c1.7,1.2,3.5,2.3,5.4,3
		c1.8,0.7,3.7,1.2,5.5,1.3c1.4,0.1,2.8,0,4.1-0.4c2.2-0.5,4.3-1.5,6.3-2.8c0.1-0.1,0.1-0.1,0.2-0.1c1.5-1,3-2.2,4.3-3.5
		c0.7-0.7,1.4-1.4,2-2.1c0.6-0.7,1.2-1.4,1.9-2.2c2.4-3.1,4.6-6.2,6.7-9.3c4.1-6.2,7.4-12.1,10.2-17.5c2.8-5.4,5.1-10.1,6.9-14.1
		c1.8-4,3.2-7.1,4.1-9.3c0.9-2.2,1.4-3.3,1.4-3.3l0.5,0.2c0,0-0.3,1.2-1,3.5c-0.7,2.3-1.7,5.5-3.2,9.7c-1.4,4.1-3.3,9.1-5.7,14.8
		c-2.4,5.6-5.4,11.9-9.2,18.5c-1,1.6-1.9,3.3-3,5c-0.5,0.8-1.1,1.7-1.7,2.5c-0.3,0.4-0.5,0.8-0.9,1.3c-0.3,0.4-0.6,0.8-0.9,1.2
		c-0.5,0.8-1.3,1.7-2,2.6c-0.7,0.8-1.4,1.7-2.2,2.5c-1.5,1.6-3.2,3.2-5.1,4.6c-1.5,1.1-3.2,2.2-5,3c-2.2,10.7-4.6,21.3-7.1,32
		c-1,4.4-2.1,8.8-3.2,13.3L364,273l-1.7,6.6c-1.1,4.4-2.3,8.8-3.4,13.2l-1.6,6.5c-0.5,2.2-0.8,4.4-1.2,6.5
		c-1.5,8.7-2.2,17.6-2.2,26.5c0.1,8.9,1,17.7,2.5,26.5c3.1,17.5,9.3,34.4,17.5,50.3c2.1,4,4.3,7.8,6.6,11.6
		c2.4,3.8,4.8,7.5,7.5,11.1c2.6,3.6,5.4,7.1,8.2,10.5c1.5,1.7,3.2,3.3,4.7,4.9c0.5,0.5,1,1.1,1.7,1.6c1.1-1.7,2.2-3.3,3.4-4.7
		c1.3-1.5,2.4-2.9,3.7-4.2c0.6-0.6,1.2-1.3,1.8-1.9c0.6-0.6,1.2-1.1,1.8-1.6c1.1-1.1,2.3-2,3.4-2.8c0.5-0.4,1-0.8,1.5-1.2
		c0.5-0.4,1-0.7,1.4-1c0.9-0.6,1.7-1.2,2.5-1.7c0.7-0.5,1.4-0.8,1.9-1.1c1-0.6,1.6-0.9,1.6-0.9s-0.5,0.4-1.4,1.2
		c-0.9,0.8-2.2,2-3.7,3.5c-0.4,0.4-0.8,0.8-1.2,1.2c-0.4,0.4-0.8,0.9-1.3,1.4c-0.9,1-1.9,2-2.8,3.2c-0.5,0.6-1,1.2-1.5,1.8
		c-0.5,0.7-1,1.3-1.5,2c-1.1,1.3-2,2.8-3.1,4.4c-1.9,3.1-3.9,6.6-5.6,10.5c-1.6,3.9-3,8-3.7,12.5c-0.7,4.4-0.9,9.1-0.3,13.7
		c0.6,4.6,2.1,9.1,4.3,13.2c2.3,4.1,5.4,7.6,9,10.6c3.6,3,7.7,5.3,11.8,7c1,0.4,2,0.9,3.1,1.2c1.1,0.4,2.2,0.7,3.3,1.1l0.2,0.1
		l0.1,0l0,0l0.4,0.1l0.8,0.2c0.5,0.1,1,0.2,1.6,0.4c0.5,0.1,1,0.3,1.6,0.3c0.5,0.1,1,0.1,1.5,0.2c0.5,0.1,1,0.1,1.5,0.2
		c0.5,0.1,1,0.1,1.5,0.1c1,0,2,0.1,3,0.1c1.9-0.1,3.9-0.1,5.7-0.5l1.3-0.2c0.4-0.1,0.9-0.2,1.3-0.3c0.9-0.2,1.7-0.3,2.5-0.5
		c0.8-0.2,1.6-0.5,2.4-0.7c0.8-0.2,1.5-0.5,2.2-0.8c2.8-1.1,5.3-2.2,7.2-3.3c1.9-1.1,3.4-2,4.4-2.7c0.9-0.6,1.3-1,1.5-1.1
		c-0.1,0.1-0.5,0.6-1.3,1.3c-0.9,0.8-2.2,2-4,3.4c-1.8,1.3-4.1,2.9-6.9,4.3c-2.8,1.4-6.2,2.8-10,3.7c-1.9,0.5-4,0.7-6.1,1
		c-2.1,0.1-4.4,0.3-6.6,0c-0.6,0-1.2-0.1-1.7-0.1c-0.6,0-1.1-0.2-1.7-0.3c-0.6-0.1-1.2-0.2-1.8-0.3l-0.9-0.2l-0.5-0.1l-0.1,0
		c0,0-0.1,0-0.1,0l-0.1,0l-0.2,0c-1.1-0.3-2.2-0.6-3.4-0.9c-1.1-0.3-2.4-0.8-3.5-1.2c-4.7-1.7-9.3-4.1-13.5-7.4
		c-3.1-2.4-6-5.3-8.3-8.6c-0.1,2.3-0.2,5.2-0.6,8.5c-0.5,4.7-1.3,10.3-2.6,16.7c-1.3,6.4-3,13.6-5.2,21.3c-0.5,1.9-1.2,3.9-1.8,5.9
		c-0.6,2-1.3,4-2,6.1c-0.7,2-1.5,4.1-2.3,6.2c-0.8,2.1-1.6,4.2-2.5,6.3c-3.4,8.5-7.4,17.4-11.5,26.4c-2.1,4.5-4.1,9.2-6.2,13.9
		c-2.1,4.7-4.2,9.4-6.3,14.2c-2.1,4.8-4.1,9.6-6.1,14.5c-0.9,2.5-1.9,4.9-2.8,7.4c-1,2.5-1.7,5-2.6,7.4c-3.4,10-6.2,20.1-8.1,30.1
		c-0.3,1.3-0.5,2.5-0.6,3.8c-0.2,1.3-0.4,2.5-0.5,3.7c-0.1,1.2-0.3,2.5-0.4,3.7s-0.1,2.5-0.2,3.7c-0.2,4.9-0.3,9.8,0,14.6
		c0.1,1.2,0.2,2.4,0.3,3.6c0.1,1.2,0.3,2.4,0.5,3.6c0.2,1,0.4,2.1,0.7,2.9c1.8-2.7,2.7-7.7,4.5-11.4c3.7-8.5,7.5-16.2,11.2-23.3
		c1.9-3.5,3.7-6.9,5.7-10.1c1-1.6,2-3.2,3-4.5c1-1.5,2-2.7,2.9-4.1c3.6-5.3,6.5-10.1,8.9-14.1c2.3-4,4.1-7.2,5.4-9.3
		c0.1-0.2,0.2-0.5,0.4-0.7c1-4.9,2.1-9.8,3.3-14.6c0.9-3.4,1.8-6.8,2.8-10.1l1.5-5c0.5-1.7,1-3.3,1.6-5l1.7-5l0.4-1.2l0.2-0.6
		c0-0.1,0,0,0.1-0.2l0.1-0.3l0.7-2.5c1-3.3,1.9-6.6,2.7-10c1.7-6.7,3.3-13.4,4.5-20.2c1.2-6.8,2.1-13.6,2.2-20.6l1-0.1
		c0.9,7,0.5,14.1-0.1,21.1c-0.7,7-1.8,13.9-3.2,20.8c-0.7,3.4-1.5,6.9-2.3,10.3l-0.7,2.6l-0.1,0.3c0,0-0.1,0.3-0.1,0.4l-0.2,0.6
		l-0.4,1.2l-1.5,5c-1.1,3.3-1.9,6.6-2.9,10c-0.9,3.3-1.7,6.7-2.6,10c-1.1,4.4-2.1,8.8-2.9,13.2l0.6,0.3c0,0-0.3,0.5-0.9,1.4
		c-0.3,1.7-0.7,3.5-1,5.2c-1.1,6.8-2,13.6-2.4,20.4c-0.1,1.7-0.2,3.4-0.2,5.1c0,0.8,0,1.7,0,2.5c0,0.4,0,0.8,0,1.2l0.1,1.4l0.3,5.1
		c0.1,1.7,0.4,3.4,0.5,5c0.9,6.7,2.4,13.4,4.4,19.9c1.9,6.5,4.5,12.9,7.4,19.1c2.9,6.2,6.1,12.3,9.7,18.1c3.6,5.8,7.5,11.5,11.7,17
		c4.2,5.5,8.6,10.7,13.3,15.8c4.7,5.1,9.7,9.8,14.8,14.4c3.5,3.1,7.2,6.1,10.9,8.9c-0.8-8.2-0.7-16.4,0.1-24.6
		c-3.6-5-6.9-10.3-9.9-15.7c-3.4-6.2-6.1-12.8-8.5-19.4c-4.7-13.3-7.5-27.3-8.6-41.4c-0.6-7-0.7-14.1-0.5-21.1
		c0.2-7,0.9-14.1,2-21.1c0.6-3.5,1.3-7,2.1-10.3c0.7-3.4,1.4-6.8,2-10.2c1.3-6.8,2.4-13.6,3.5-20.5c1-6.9,2-13.7,2.8-20.6
		c0.4-3.4,0.7-6.9,1-10.3c0.1-1.7,0.3-3.4,0.4-5.2l0.2-2.6c0.1-0.9,0.2-1.8,0.3-2.7c0.1-0.9,0.3-1.9,0.6-2.8c0.1-0.5,0.3-1,0.5-1.5
		c0.2-0.5,0.5-1.1,1.1-1.7c0.2-0.2,0.3-0.3,0.6-0.5c0.2-0.1,0.5-0.3,0.8-0.4c0.6-0.2,1.4-0.1,1.9,0.1c1,0.5,1.4,1.1,1.8,1.7
		c0.6,1.1,0.9,2.1,1.1,3.1c0.1,0.5,0.2,1,0.2,1.5c0,0.6,0,0.9,0,1.4c0,0.8,0,1.7,0,2.5c0,1.7,0.1,3.4,0.2,5.2
		c0.3,6.9,1,13.8,2.1,20.6c1.1,6.8,2.5,13.6,4.4,20.2c0.9,3.3,2,6.6,3.1,9.8l1.9,4.9l1.9,4.9c0.2,0.6,0.5,1.2,0.7,1.8l0.5,0.1
		c0,0,0,0.3-0.1,0.9c0,0,0,0,0,0c2.2,5.6,4.1,11.4,5.7,17.3c1.9,6.8,3.1,13.9,3.6,21.1s0,14.4-1.4,21.4c-1.3,7-3.3,13.8-5.1,20.5
		c-1.9,6.7-3.8,13.4-5.3,20.2c-1.5,6.8-2.5,13.6-3.3,20.5c-0.2,2.1-0.4,4.1-0.6,6.2c0,0-0.4,4.7-0.4,6.5c-0.2,2.6-0.3,5.3-0.3,7.9
		c-0.1,5,0.1,9.9,0.5,14.9l0.4,4c0.1,0.5,0.1,1.1,0.2,1.6c0.2,1.7,0.4,3.5,0.7,5.1c0.3,1.7,0.6,3.3,1,5c0.8,3.3,1.8,6.6,3,9.9
		c1.2,3.2,2.5,6.5,4,9.6c1.5,3.1,3.1,6.2,5.3,8.8c0.5,0.6,1.1,1.2,1.7,1.6c0.3,0.2,0.5,0.2,0.6,0.2c0.1,0,0.3-0.2,0.4-0.6
		c0.3-0.7,0.4-1.5,0.4-2.3c0-0.8,0-1.7,0-2.5c-0.1-1.7-0.3-3.4-0.6-5.1l-0.6-5.3c-0.4-5.4-0.3-11,0.5-16.4l0.4-3
		c0.1-0.6,0.2-1.2,0.3-1.8c0.7-3.6,1.6-7.2,2.6-10.8l1-3.2c0.7-2.2,1.4-4.3,2.2-6.5c2.4-6.6,5.3-13.1,8.6-19.4
		c0.9-1.6,1.7-3.1,2.7-4.7l2.7-4.4c0.9-1.4,1.7-3,2.5-4.5c0.8-1.5,1.7-3,2.4-4.5c3.2-6.1,5.8-12.3,8.1-18.7
		c4.6-12.8,7.2-26.2,7.6-39.7c0.4-13.5-1.3-27.1-4.5-40.4c-3.1-13.3-7.5-26.4-12-39.6c-1.1-3.3-2.2-6.7-3.2-10c-1-3.4-2-6.7-3-10.1
		c-1.9-6.8-3.5-13.5-5-20.4c-0.8-3.4-1.4-6.8-2.1-10.3l-1-5.1l-0.9-5.2c-1.2-6.9-2.4-13.8-2.3-21.2c0.1-1.8,0.3-3.7,0.7-5.6
		c0.2-1,0.5-1.9,0.9-2.9c0.4-1,0.9-2,2-3c0.5-0.5,1.3-1,2.3-1.2c1-0.2,2.1,0.1,2.9,0.5c1.5,0.8,2.1,1.9,2.7,2.8
		c1.1,1.9,1.7,3.6,2.2,5.5c0.2,0.8,0.4,1.7,0.7,2.5c0.2,0.8,0.4,1.6,0.7,2.4l0.8,2.4l0.9,2.4c1.2,3.2,2.6,6.4,4,9.5
		c5.6,12.6,11.9,25,18.8,37c1,1.5,2,3.1,3,4.6l0.5-0.3c0,0,0.2,0.3,0.6,0.9c0.4,0.6,0.8,1.6,1.4,2.7c0.3,0.7,0.7,1.6,1.1,2.5
		c0,0,0,0,0,0c0,0,0,0,0,0c0.9,1.6,1.9,3.2,2.8,4.8c3,5.2,5.9,10.5,8.6,15.8c0.7,1.3,1.3,2.6,2,3.9c0.6,1.3,1.3,2.6,1.9,3.8
		c0.2,0.4,0.4,0.9,0.7,1.4c0.5,1,1,2,1.5,3.1c0.6,1.2,1.1,2.4,1.7,3.6c0.1,0.2,0.2,0.5,0.3,0.7c0.6,1.3,1.1,2.6,1.7,3.9
		c0.6,1.4,1.2,2.8,1.7,4.2c1.2,2.8,2.3,5.6,3.3,8.4l1.5,4.2c0.3,0.7,0.5,1.4,0.8,2.2l0.7,2.2c0.9,2.9,1.7,5.9,2.3,9
		c0.9,5,1.5,10.2,1.2,15.4c-0.1,1.1-0.1,2.2-0.2,3.2c-0.3,2.5-1.4,5-1.4,7.5c0,0,0,0,0,0l-0.2,0c0,0-0.1,0-0.1,0s-0.1,0-0.1,0
		c0,0,0,0,0,0c0,0,0,0,0,0c-1.1,3.6-2.6,7-4.4,10.1c-2,3.6-4.4,6.8-7,9.9c-0.4,0.5-0.9,1-1.3,1.5c-0.4,0.5-0.9,1-1.3,1.5
		c-0.5,0.6-1,1.1-1.5,1.7c-1,1.1-2.1,2.2-3.1,3.3c-1.6,1.6-3.2,3.2-4.8,4.8c-0.4,0.4-0.8,0.8-1.2,1.1c-1,1-2.1,2-3.1,3
		c0,0,0,0.2,0,0.2c-0.1,0.2-0.3,0.7-0.4,0.7h0l-2,1.8l-1.1,1.1c-0.8,0.8-1.5,1.6-2.2,2.4c-0.2,0.3-0.5,0.5-0.7,0.8
		c-0.9,1.1-1.8,2.3-2.4,3.5c-0.7,1.2-1.2,2.5-1.1,3.6c0.1,0.5,0.2,0.8,0.6,1.1c0.4,0.3,1,0.4,1.6,0.4c1.3,0.1,2.7-0.2,4.1-0.6
		c2.7-0.8,5.4-2.1,8-3.6c5.1-2.9,9.9-6.5,14.4-10.3c9-7.7,17-16.6,24.4-25.8c0.9-1.2,1.8-2.3,2.6-3.4l2.4-3.6
		c0.4-0.6,0.8-1.2,1.1-1.8l1.1-1.9c0.4-0.6,0.7-1.2,1.1-1.9l1-1.9c2.6-5.1,4.7-10.5,6-16.1C594.7,673.6,594.8,661.9,593.2,650.4z
		 M474.7,467.7l-0.1,2.4c-0.2,1.6-0.3,3.2-0.7,4.8c-0.3,1.6-0.8,3.1-1.3,4.7c-0.3,0.7-0.6,1.4-0.8,2.2l-0.2,0.5l-0.1,0.3l-0.1,0.1
		l0,0.1l0,0.1l-0.5,1.1c-1.3,3-3.2,5.6-5.1,8.1c-2.1,2.4-4.4,4.6-6.8,6.5c-5,3.7-10.8,6.4-16.8,7.2c-0.4,0.1-0.7,0.1-1.1,0.2
		l-1.1,0.1c-0.7,0-1.5,0.1-2.3,0.1c-0.8,0-1.5-0.1-2.3-0.1c-0.4,0-0.8,0-1.1-0.1l-1.2-0.2c-1.6-0.2-2.8-0.7-4.2-1l-0.1,0l-0.1,0
		l-0.2-0.1l-0.3-0.1l-0.5-0.2l-1-0.4c-0.7-0.2-1.3-0.5-1.9-0.8c-0.6-0.3-1.3-0.6-1.9-0.9c-0.6-0.4-1.2-0.7-1.8-1.1l-0.9-0.5
		l-0.8-0.6c-0.6-0.4-1.1-0.8-1.6-1.2c-1-0.9-2.1-1.8-2.9-2.8c-0.4-0.5-0.9-1-1.3-1.5c-0.4-0.5-0.8-1.1-1.1-1.6l-0.5-0.8l-0.5-0.8
		c-0.3-0.6-0.6-1.1-0.9-1.7c-0.3-0.6-0.5-1.1-0.7-1.7c-0.2-0.6-0.4-1.1-0.6-1.7c-0.2-1.2-0.5-2.3-0.7-3.4c-0.1-1.1-0.3-2.2-0.3-3.2
		c0-1,0-2,0-3c0-1,0.2-1.9,0.2-2.8c0-0.4,0.1-0.9,0.1-1.3c0.1-0.4,0.1-0.8,0.2-1.2c0.2-0.8,0.3-1.5,0.5-2.2c0.4-1.4,0.8-2.7,1.1-3.8
		c0.2-0.6,0.3-1,0.5-1.4c0.2-0.4,0.3-0.8,0.5-1.1c0.6-1.3,0.9-2,0.9-2l0-0.1c0,0,0.4-0.7,1.1-2.1c0.2-0.3,0.4-0.7,0.6-1.1
		c0.3-0.4,0.5-0.8,0.9-1.3c0.3-0.5,0.6-1,1-1.5c0.4-0.5,0.8-1,1.3-1.6c0.9-1.1,2-2.2,3.2-3.5c1.3-1.1,2.7-2.3,4.3-3.4
		c0.8-0.6,1.7-1.1,2.6-1.6c0.9-0.6,1.9-1,2.8-1.4c1-0.5,2-0.8,3.1-1.2c0.3-0.1,0.5-0.2,0.8-0.3c0.3-0.1,0.5-0.2,0.8-0.3
		c0.5-0.2,1.1-0.4,1.6-0.6c0.6-0.2,1.1-0.3,1.7-0.5c0.6-0.1,1.2-0.3,1.8-0.4c1.2-0.2,2.5-0.4,3.8-0.4c2.6-0.2,5.3,0.1,8,0.8
		c0.6,0.2,1.3,0.4,1.9,0.6l0.5,0.1l0.1,0l0.2,0.1l0.2,0.1l1,0.4c0.7,0.3,1.3,0.5,2,0.8c0.7,0.3,1.3,0.7,1.9,1c2.6,1.3,5,3.1,7.2,5.2
		c0.5,0.6,1.1,1.1,1.6,1.7c0.5,0.6,0.9,1.2,1.4,1.9c0.2,0.3,0.5,0.6,0.7,1l0.6,1c0.4,0.7,0.8,1.4,1.1,2.1l0.9,2.2
		c0.2,0.8,0.5,1.5,0.7,2.3c0.3,0.8,0.3,1.6,0.5,2.4l0.2,1.2l0.1,1.2C474.6,466.1,474.7,466.9,474.7,467.7z"/>
	<g>
		<path class="st7" d="M470.8,465.6c-0.5-5.7-3-10.8-6.7-14.8c-3.7-3.9-8.5-6.7-13.3-8.5c-0.6-0.2-1.2-0.3-1.8-0.5
			c-0.6-0.1-1.2-0.3-1.8-0.4c-0.6-0.1-1.2-0.2-1.8-0.3c-0.6-0.1-1.2,0-1.8-0.1c-1.2-0.1-2.4,0.1-3.5,0.2c-0.6,0-1.1,0.2-1.7,0.3
			c-0.6,0.1-1.1,0.2-1.7,0.3c-0.5,0.2-1.1,0.3-1.6,0.5c-0.5,0.2-1,0.3-1.5,0.6c-1,0.5-1.9,1-2.7,1.6c-0.8,0.6-1.7,1.1-2.4,1.7
			c-0.7,0.6-1.5,1.2-2.1,1.8c-1.3,1.2-2.4,2.6-3.3,3.8c-0.9,1.3-1.7,2.4-2.3,3.5c-0.3,0.6-0.6,1.1-0.9,1.6c-0.2,0.5-0.5,1-0.7,1.4
			c-0.2,0.4-0.4,0.8-0.6,1.2c-0.1,0.4-0.7,0.7-0.8,1c-0.4,1-1.2,1.6-1.2,1.8v0c0,0,0.4,0,0.4,0c0,0.2,0,0.9-0.4,2.1
			c-0.1,0.3-0.2,0.7-0.3,1.2c-0.2,0.4-0.3,0.9-0.4,1.3c-0.2,0.9-0.5,2-0.8,3.2c-0.4,2.5-1,5.4-0.8,8.8c0.2,3.4,1.1,7,3.1,10.5
			c0.3,0.4,0.5,0.9,0.8,1.3c0.3,0.4,0.6,0.8,0.9,1.3c0.6,0.9,1.4,1.6,2.1,2.5c1.7,1.5,3.4,3.1,5.6,4.3c0.5,0.3,1.1,0.6,1.6,0.9
			c0.5,0.3,1.1,0.5,1.6,0.8c1.3,0.5,2.6,1.1,3.7,1.3l0.9,0.2c0.3,0.1,0.6,0.1,0.9,0.2c0.7,0.1,1.3,0.2,2,0.3c0.7,0.1,1.3,0,2,0.1
			l1,0c0.3,0,0.7-0.1,1-0.1c2.7-0.1,5.5-1,8.1-2c0.6-0.3,1.3-0.6,2-0.9c0.6-0.3,1.3-0.7,1.9-1l0.9-0.5l0.9-0.6
			c0.6-0.4,1.2-0.8,1.8-1.2c1.1-1,2.3-1.8,3.3-2.9c0.5-0.5,1.1-1,1.5-1.6l1.4-1.7c1.7-2.4,3.3-4.9,4.4-7.6l0.1-1l-0.4-0.1v0l0.5-0.1
			l0.4-0.3l0.3-0.6c0.2-0.7,0.5-1.5,0.8-2.2c0.3-1.4,0.8-2.8,1-4.2C470.9,471.4,471.1,468.5,470.8,465.6z M446.9,488.4
			c0,0-13.2-16.1-17.9-30.4c0,0,4.1-4.9,9.8-7.3c0,0,12.4,25.8,17.4,32.3C456.2,483,450.6,487,446.9,488.4z"/>
	</g>
	<g>
		<path class="st8" d="M603.4,624.1c-0.7-3.3-1.6-6.8-2.9-10.2c-1.3-3.4-2.7-6.9-4.4-10.3c-1.6-3.4-3.5-6.8-5.4-10.2
			c-3.8-6.7-8-13.1-11.9-19.1c-3.3-4.9-6.4-9.5-9.2-13.6c-2-4.4-4-8.7-6-13l-3.7-8.1c-1.3-2.7-2.4-5.4-3.6-8.1l-1.6-4.1
			c-0.6-1.4-1.1-2.7-1.6-4.1c-0.5-1.4-1-2.7-1.5-4.1l-1.4-4.2c-3.6-11.2-6.1-22.8-7.2-34.7c-1.1-11.8-0.8-23.8,0.7-35.5
			c0.7-5.9,1.8-11.7,3.2-17.5c1.4-5.8,3-11.5,5.1-17l0-0.1l0,0c2.8-8.7,5.3-17.4,7.4-26.3c2-8.9,3.7-17.8,5-26.9
			c1.2-9,2.1-18.1,2.5-27.3c0.4-9.1,0.3-18.3-0.1-27.4c-0.9-18.2-3.8-36.4-7.8-54.2c-1.4-6-2.8-12-4.8-17.9c0.5-0.1,0.7-0.1,0.9-0.2
			c0.1-0.1,0.2-0.1,0.4-0.2c0.6-0.3,1.5-0.5,2.2-0.9c1.6-0.7,3.5-1.8,5.5-3.4c1.9-1.6,4-3.9,5.3-7c0.4-0.8,0.6-1.6,0.9-2.4
			c0.2-0.8,0.4-1.7,0.5-2.6c0.2-1.7,0.2-3.6,0-5.3c-0.5-3.6-1.7-7.1-3.3-10.3c-3.2-6.6-7.9-12.6-12.8-18.2c-2.4-2.8-5-5.5-7.5-8.2
			c-2.5-2.6-5-5.2-7.5-7.6c-4.8-4.9-9.4-9.5-13.2-13.4c-1.3-1.4-2.7-2.7-3.7-3.9c0-0.2-0.2-0.5-0.3-0.7c-8-16.4-16.9-32.3-26.8-47.6
			c-10-15.3-20.8-30.1-33.4-43.4c-1.6-1.7-3.2-3.3-4.8-4.9l-2.5-2.4c-0.9-0.9-1.8-1.6-2.7-2.3c-3.7-2.9-8-5.2-12.5-6.5
			c-0.6-0.2-1.1-0.3-1.7-0.4l-1.7-0.4c-1.2-0.1-2.3-0.4-3.5-0.4c-2.3-0.2-4.7,0.1-6.9,0.4c-2.3,0.4-4.5,1.1-6.6,1.9
			c-2.1,0.9-4.2,1.9-6.1,3.2c-7.7,5-13.7,12.6-16.5,21.5c-0.7,2.2-1.2,4.5-1.5,6.9c-0.2,1.2-0.2,2.3-0.2,3.5l-0.1,3.4
			c0,0.9-0.1,1.9-0.1,2.8c-0.9,0.8-1.8,1.7-2.7,2.6c-4.3,4.4-8.8,9.5-14.4,14.4c-1.4,1.2-2.9,2.4-4.4,3.6c-0.7,0.6-1.5,1.2-2.3,1.7
			c-0.8,0.6-1.6,1.1-2.4,1.7c-3.3,2.3-6.8,4.4-10.6,6.4c-3.7,2-7.7,3.9-11.8,5.6c-4.1,1.7-8.4,3.2-12.8,4.3
			c-0.6,0.1-1.1,0.3-1.7,0.4l-1.7,0.3c-1.2,0.2-2.4,0.5-3.7,0.9c-2.4,0.7-4.9,1.7-7.2,3.1c-2.3,1.4-4.4,3.4-6,5.7
			c-1.6,2.4-2.7,5.1-3.2,7.8c-1.1,5.5-0.5,11,0.7,16.1c1.2,5.2,3.1,10,5.2,14.8c2.2,4.7,4.7,9.2,7.4,13.5c2.7,4.3,5.6,8.5,8.6,12.5
			c3,4,6.2,7.8,9.5,11.5c0.8,0.9,1.7,1.8,2.6,2.7c0.4,0.4,1,0.9,1.4,1.4l0.7,0.6l0.7,0.6c1.9,1.6,3.9,3.2,6,4.6
			c2.1,1.4,4.4,2.6,6.9,3.5c2.5,0.9,5.1,1.5,7.8,1.5c0.9,0,1.9,0,2.8-0.1c-2.1,9.6-4.4,19.2-6.8,28.7c-1,4.4-2.2,8.8-3.3,13.1
			l-1.7,6.6l-1.8,6.6c-1.2,4.4-2.4,8.7-3.5,13.2l-1.6,6.7c-0.5,2.3-0.9,4.5-1.3,6.8c-1.5,9.1-2.3,18.4-2.2,27.7
			c0.1,9.2,1,18.5,2.7,27.6c3.3,18.2,9.4,35.8,17.7,52.3c4.1,8.3,8.7,16.3,13.7,24c2.5,3.9,5.1,7.7,7.8,11.5
			c2.6,3.6,5.3,7.1,8.2,10.7c-1.3,3.1-2.3,6.3-3.1,9.8c-1.1,4.9-1.4,10.2-0.7,15.5c0.6,5.3,2.4,10.6,5.1,15.3
			c0.1,0.1,0.2,0.3,0.3,0.4c0,0.1-0.1,0.3-0.1,0.4c-0.8,2.4-1.8,5.9-3,10.4c-1.2,4.5-2.5,10-3.9,16.2c-0.7,3.1-1.5,6.5-2.4,9.9
			c-0.4,1.7-0.9,3.5-1.4,5.4c-0.5,1.8-1,3.7-1.5,5.6c-2.1,7.6-4.7,15.7-7.8,24.3c-3.1,8.5-6.7,17.4-10.7,26.5
			c-2,4.6-4.1,9.2-6.2,13.8c-2.1,4.7-4.3,9.4-6.5,14.1c-1.1,2.4-2.2,4.8-3.3,7.2c-1.1,2.4-2.2,4.8-3.3,7.3c-1.1,2.5-2.1,4.9-3.1,7.4
			c-1.1,2.4-2,5-3,7.5c-3.8,10-7.2,20.3-9.3,30.8c-1,5.3-1.8,10.6-1.9,15.9c-0.2,5.3,0.4,10.6,1.5,15.7c0.3,1.2,0.6,2.5,0.9,3.7
			c0.3,1.2,0.5,2.4,0.9,3.7c0.4,1.3,0.7,2.5,1.4,3.9c0.2,0.3,0.4,0.7,0.7,1.1c0.3,0.4,0.6,0.8,1.2,1.2c0.6,0.4,1.7,0.6,2.5,0.4
			c0.8-0.2,1.3-0.7,1.6-1c0.7-0.7,1-1.3,1.4-2c0.3-0.6,0.6-1.2,0.8-1.8c0.4-1.2,0.8-2.4,1.1-3.6c0.3-1.2,0.5-2.2,0.9-3.3
			c0.3-1.1,0.7-2.1,1.1-3.2c1.6-4.2,3.4-8.3,5.2-12.1c1.8-3.9,3.8-7.5,5.7-11c1.9-3.5,3.8-6.7,5.8-9.7c1-1.5,1.9-2.9,3-4.3
			c1-1.4,2.1-2.7,3-4c3.7-4.9,6.8-9.4,9.3-13.1c-0.6,4.6-1.1,9.2-1.4,13.9c-0.1,1.8-0.2,3.6-0.2,5.3c0,0.9,0,1.8,0,2.7
			c0,0.5,0,0.9,0.1,1.4l0.1,1.2l0.3,5.3c0.2,1.8,0.4,3.5,0.6,5.3c1,7.1,2.6,14,4.8,20.8c2.1,6.8,4.9,13.3,7.9,19.7
			c3.1,6.4,6.5,12.5,10.3,18.4c3.8,5.9,7.9,11.7,12.3,17.2c4.4,5.5,9,10.8,13.9,15.8c8.9,9.2,18.6,17.5,29.1,24.9
			c0.2,1.5,0.4,2.9,0.6,4.4c0.3,1.7,0.6,3.4,1,5.2c0.4,1.7,0.8,3.5,1.3,5.1c1,3.4,2.2,6.7,3.5,9.9c1.3,3.2,2.8,6.4,4.4,9.6
			c0.8,1.6,1.7,3.1,2.6,4.6c0.9,1.5,1.9,3,3,4.4c0.6,0.7,1.2,1.4,2.2,1.9c0.5,0.2,1.1,0.5,1.9,0.2c0.7-0.3,1-0.9,1.3-1.3
			c0.4-1,0.5-1.9,0.6-2.8c0.1-0.9,0.1-1.8,0.1-2.7c0-1.8-0.1-3.5-0.2-5.3l-0.1-5.1c0.1-4.9,0.8-9.8,1.8-14.6
			c0.9,0.4,1.7,0.7,2.6,1.1c1.7,0.6,3.3,1.2,5,1.8c1.7,0.5,3.3,1,5,1.5c1.7,0.5,3.4,0.9,5.1,1.3c1.7,0.4,3.4,0.8,5.2,1.1
			c1.8,0.3,3.5,0.6,5.5,0.6c0.5,0,1-0.1,1.6-0.2c0.3-0.1,0.6-0.2,0.9-0.3c0.3-0.2,0.8-0.5,1-1c0.2-0.5,0.2-1.1,0.1-1.5
			c-0.1-0.4-0.2-0.7-0.4-0.9c-0.3-0.5-0.6-0.9-0.9-1.3c-1.3-1.4-2.7-2.5-4.1-3.6c-1.4-1.1-2.9-2.1-4.4-3l-2.2-1.4l-1.1-0.7
			c-0.3-0.2-0.7-0.5-1.1-0.7c-2.8-2-5.8-3.8-8.5-6c-1.4-1.1-2.8-2.1-4.1-3.2l-0.7-0.6c0.9-2.7,1.9-5.4,3-8c2.6-6.3,5.6-12.5,9-18.4
			c0.9-1.5,1.7-3,2.6-4.3l2.9-4.4c1-1.5,1.8-3,2.8-4.5c0.9-1.5,1.8-3,2.7-4.6l2.5-4.7l2.3-4.8c0.8-1.6,1.5-3.2,2.2-4.9
			c0.7-1.6,1.4-3.3,2-5c2.5-6.6,4.5-13.5,5.9-20.6c1.4-7,2.2-14.1,2.4-21.3c0.2-6.8,0-13.5-1-20.2v0c1-0.8,0.9-1.7,1.4-2.7
			c0.9-1.6,1.6-3.4,2.4-5.5c0.4-1,0.8-2.1,1.3-3.2c0.4-1.1,0.9-2.2,1.3-3.5c0.7-2.4,1.5-5,2.3-7.6c0.6-2.7,1.2-5.5,1.8-8.3
			c0.2-1.4,0.4-2.9,0.6-4.4c0.2-1.5,0.4-2.9,0.5-4.4c0.1-1.5,0.2-3,0.3-4.4c0-0.7,0.1-1.5,0.1-2.2c0-0.7,0-1.5,0-2.2
			c0-1.5-0.1-2.9-0.1-4.3c0-1.4-0.2-2.8-0.3-4.2c-0.2-2.7-0.7-5.3-1.1-7.8c1.2,2.5,2.4,5,3.5,7.6c4.6,10.3,8.8,20.9,12.5,31.5
			c0.2,1.5,0.4,3.1,0.5,4.6c0.1,1.2,0.1,2.3,0.1,3.5c0,1.2,0.1,2.3,0.1,3.5l-0.2,3.5l-0.1,1.8c-0.1,0.6-0.2,1.1-0.2,1.7l-0.5,3.5
			c-0.2,1.1-0.5,2.3-0.8,3.4c-0.1,0.6-0.2,1.1-0.4,1.7l-0.5,1.7c-0.4,1.1-0.7,2.2-1.2,3.3c-0.5,1.1-0.9,2.2-1.4,3.2
			c-0.6,1-1.1,2.1-1.7,3l-0.9,1.4l-0.5,0.7l-0.5,0.7l-1.1,1.4c-0.4,0.4-0.8,0.9-1.2,1.3c-0.4,0.4-0.8,0.8-1.2,1.2
			c-0.4,0.4-0.8,0.8-1.3,1.2c-0.9,0.7-1.8,1.4-2.7,2l-0.1,0.1l0,0c-0.3,0.2-0.6,0.4-0.9,0.7c-0.3,0.3-0.6,0.6-0.8,1.2
			c-0.1,0.3-0.2,0.8,0,1.2c0.1,0.4,0.4,0.7,0.6,0.8c0.5,0.3,0.8,0.5,1.2,0.6c0.7,0.2,1.4,0.3,2.1,0.4c0.7,0.1,1.4,0.1,2,0.1l2,0
			c0.7,0,1.3-0.1,2-0.2c0.7,0,1.3-0.2,2-0.3s1.3-0.2,2-0.4c0.6-0.2,1.3-0.3,2-0.5c0.6-0.2,1.3-0.4,1.9-0.7c0.6-0.3,1.3-0.5,1.9-0.8
			c0.3-0.2,0.7-0.4,1-0.5c-0.3,0.7-0.6,1.3-0.9,2c-2.6,5.1-6,9.9-9.8,14.4c-3.8,4.5-8,8.7-12.1,13.1l-3.1,3.3c-1,1.1-2,2.3-3,3.5
			c-0.9,1.2-1.8,2.5-2.5,3.9c-0.4,0.7-0.7,1.5-0.9,2.3c-0.2,0.8-0.4,1.7-0.3,2.7c0.1,1,0.7,2.1,1.6,2.6c0.9,0.5,1.8,0.7,2.7,0.7
			c1.7,0,3.2-0.4,4.7-0.8c3-0.9,5.7-2.3,8.3-3.8c5.3-3,10.2-6.5,14.9-10.2c4.7-3.7,9.3-7.6,13.7-11.7c4.4-4.1,8.8-8.2,12.9-12.7
			c8.4-8.9,14.5-20.1,17.5-32.2c2.9-11.6,3.8-23.7,1.7-35.4c1-0.7,1.2-1.6,1.6-2.8c0.4-0.8,0.9-1.7,1.2-2.8c0.2-0.5,0.4-1.1,0.6-1.6
			c0.1-0.3,0.2-0.6,0.3-0.9c0.1-0.3,0.1-0.6,0.2-0.9c0.2-1.2,0.6-2.5,0.6-3.9c0.1-0.7,0.1-1.4,0.2-2.1c0-0.7,0-1.5,0-2.2
			C604.5,630.7,604.1,627.5,603.4,624.1z M524.3,150.5c0.2,0.2,0.5,0.5,0.7,0.7c3.6,4.2,7.8,9,12.3,14.2c2.3,2.6,4.5,5.3,6.8,8.1
			c2.3,2.8,4.5,5.7,6.6,8.6c4.2,5.9,8.1,12.1,10.7,18c1.2,3,2.2,5.9,2.4,8.6c0.3,2.7,0,5.2-0.8,7.2c-0.8,2.1-2.1,3.7-3.4,5.1
			c-1.4,1.4-2.8,2.5-4,3.3c-0.7,0.5-1.3,0.9-1.9,1.2c-3-10.1-6.1-20.1-9.8-29.9C537.9,180.4,531.2,165.4,524.3,150.5
			c-0.2-0.2-0.3-0.4-0.3-0.6C524.1,150.1,524.2,150.3,524.3,150.5z M458.3,776.9c-0.1,0.7-0.2,1.4-0.3,2c-2.3-3.7-4.4-7.4-6.4-11.2
			l-2.3-4.6c-0.7-1.5-1.4-3.1-2.1-4.7c-0.7-1.5-1.3-3.2-1.9-4.7l-0.9-2.4l-0.8-2.4c-4.6-12.9-7.2-26.5-8.3-40.1
			c-1.1-13.7-0.8-27.5,1.2-41c0.5-3.4,1.2-6.7,1.9-10.1c0.7-3.4,1.3-6.9,1.9-10.3c1.2-6.9,2.3-13.8,3.3-20.7
			c1-6.9,1.9-13.8,2.6-20.8c0.4-3.5,0.7-7,0.9-10.5c0.1-1.8,0.3-3.5,0.4-5.2l0.2-2.6c0-0.8,0.1-1.7,0.2-2.5c0.1-0.8,0.3-1.6,0.5-2.3
			c0-0.2,0.1-0.3,0.1-0.4c0.1,0.3,0.2,0.6,0.3,1c0.1,0.3,0.1,0.7,0.1,1.1c0,0.3,0,0.8,0,1.2c0,0.9,0,1.8,0.1,2.7
			c0.1,1.8,0.2,3.5,0.3,5.3c0.5,7,1.5,13.9,2.6,20.9c1.1,6.9,2.5,13.8,4,20.6c0.8,3.4,1.7,6.8,2.6,10.3l2.7,9.4l-0.6-0.1
			c0,0-0.1,0.5-0.2,1.4c-0.1,0.9-0.3,2.2-0.5,3.9c-0.4,3.3-1,8-1.5,13.7c-0.3,2.9-0.5,5.9-0.7,9.2c-0.2,3.3-0.5,6.7-0.6,10.3
			c-0.2,3.6-0.4,7.3-0.5,11c0,1.9-0.1,3.8-0.2,5.7c0,1.9-0.1,3.8-0.1,5.7c-0.1,3.8,0,7.6,0,11.4c0,3.8,0.1,7.4,0.2,11
			c0.1,3.6,0.3,7,0.4,10.3c0.1,1.6,0.2,3.2,0.3,4.7c0.1,1.5,0.2,3,0.3,4.4c0.2,2.8,0.4,5.4,0.7,7.8c0.3,2.3,0.5,4.3,0.7,6
			c0.1,0.5,0.2,1,0.2,1.4C459.1,773.9,458.5,775.4,458.3,776.9z M461.4,737.7c0.2-3.5,0.2-7.2,0.4-10.9c0.2-3.7,0.4-7.5,0.6-11.2
			c0.1-1.9,0.2-3.8,0.3-5.7c0.1-1.9,0.3-3.7,0.4-5.6c0.2-3.7,0.5-7.4,0.8-10.9c0.3-3.5,0.6-6.9,0.8-10.2c0.3-3.2,0.5-6.3,0.8-9.1
			c0-0.5,0.1-1,0.1-1.5c0.2,0.9,0.4,1.7,0.5,2.6c1.4,6.7,2.4,13.4,3,20.1c0.6,6.7,0.9,13.4,0.7,20.2c-0.2,6.8-0.9,13.7-2.3,20.5
			c-1.3,6.8-3,13.5-4.7,20.3c-0.7,2.8-1.8,5.6-1.8,8.4c0-2.3-0.1-4.9-0.1-7.7c0-2.8,0-5.9,0.1-9.2
			C461.2,744.7,461.2,741.3,461.4,737.7z M489,817c1.4,1,2.8,2.1,4.3,3l4.4,2.9c0.4,0.2,0.7,0.5,1.1,0.7l1.1,0.7l2.2,1.4
			c1.4,0.9,2.9,1.9,4.2,2.9c1.3,1,2.7,2.1,3.7,3.2c0.3,0.3,0.5,0.6,0.6,0.8c0,0,0,0,0,0c-0.3,0.1-0.6,0.1-1,0.1
			c-1.5,0-3.3-0.2-4.9-0.6c-1.7-0.3-3.3-0.7-5-1.1c-1.7-0.4-3.3-0.8-5-1.3c-1.6-0.4-3.3-1-4.9-1.5c-1.6-0.6-3.2-1.2-4.8-1.8
			c-1-0.5-2-0.9-3-1.3c0.2-0.9,0.4-1.8,0.6-2.7c0.7-2.9,1.5-5.7,2.3-8.5C486.2,815,487.6,816,489,817z M530.9,641.2
			c0,1.4,0,2.8-0.1,4.2c-0.2,2.8-0.5,5.6-0.6,8.4c-0.4,2.8-0.8,5.5-1.1,8.1c-0.5,2.6-1,5.1-1.5,7.5c-0.2,1.2-0.5,2.4-0.8,3.5
			c-0.3,1.1-0.6,2.2-0.9,3.2c-0.5,1.7-0.9,3.4-1.3,4.8c-0.9-6-2.2-11.9-3.7-17.7c-3.6-13.7-8.8-26.8-13.8-39.7
			c-1.3-3.3-2.4-6.5-3.6-9.7c-0.6-1.6-1.1-3.2-1.7-4.9c-0.5-1.6-1.1-3.3-1.6-4.9c-2.1-6.6-3.9-13.3-5.5-20c-1.6-6.7-3-13.5-4-20.4
			c-0.9-6.8-1.6-13.8-1.2-20.3c0.1-1.6,0.3-3.2,0.7-4.7c0.2-0.7,0.4-1.5,0.7-2.1c0.2-0.5,0.4-0.9,0.7-1.2c0.2,0.2,0.4,0.4,0.6,0.8
			c0.7,1.1,1.3,2.7,1.7,4.2c0.2,0.8,0.5,1.6,0.7,2.5c0.3,0.9,0.5,1.8,0.9,2.6l1,2.5c0.3,0.8,0.7,1.6,1,2.4c1.4,3.2,3,6.4,4.6,9.5
			c3.2,6.2,6.6,12.3,10,18.4l10.1,18.3l0,0l0,0.1c0.9,1.5,1.8,2.9,2.7,4.4l-0.5,0.3c0,0,0.2,0.3,0.4,0.9c0.2,0.6,0.5,1.5,0.9,2.7
			c0.2,0.6,0.4,1.2,0.6,1.9c0.2,0.7,0.4,1.5,0.6,2.3c0.2,0.8,0.4,1.7,0.7,2.6c0.2,0.9,0.4,1.9,0.7,2.9c0.3,1,0.4,2.1,0.6,3.2
			c0.2,1.1,0.5,2.3,0.6,3.5c0.1,1.2,0.3,2.4,0.5,3.7c0.2,1.2,0.3,2.5,0.4,3.8c0.1,0.7,0.1,1.3,0.2,2c0.1,0.7,0.2,1.3,0.2,2
			c0.1,1.3,0.1,2.7,0.2,4.1c0,0.7,0.1,1.4,0.1,2.1C530.9,639.9,530.9,640.5,530.9,641.2z M553,705.9c-0.4,0.4-0.9,0.7-1.4,1.1
			c-0.5,0.4-1,0.6-1.5,0.9c-0.5,0.3-1.1,0.5-1.6,0.8c-0.5,0.3-1.1,0.4-1.7,0.6c-0.6,0.2-1.2,0.4-1.8,0.5c-0.6,0.2-1.2,0.3-1.8,0.4
			c-0.6,0.1-1.2,0.2-1.8,0.3l-1.9,0.1c-0.6,0-1.2,0-1.8,0c-0.6,0-1.2-0.1-1.7-0.3c-0.1,0-0.2-0.1-0.3-0.1c0-0.1,0.1-0.1,0.2-0.2
			c0.2-0.2,0.4-0.3,0.6-0.5c1.1-0.7,2.1-1.4,3-2.2c0.5-0.4,0.9-0.8,1.4-1.2c0.5-0.4,0.9-0.9,1.3-1.3c0.4-0.5,0.8-0.9,1.2-1.4
			l1.1-1.4l0.6-0.7l0.5-0.8l1-1.5c0.7-1,1.2-2.1,1.9-3.1c0.6-1.1,1.1-2.2,1.6-3.3c0.5-1.1,0.9-2.3,1.4-3.4l0.6-1.7
			c0.2-0.6,0.3-1.2,0.5-1.8c0.3-1.2,0.7-2.3,1-3.5l0.7-3.6c0.1-0.6,0.3-1.2,0.4-1.8l0.2-1.8l0.4-3.4c0.6,2.1,1.1,4.2,1.5,6.3
			c1.1,5.6,1.6,11.3,1.1,17c-0.2,2-0.5,4-0.9,5.9c-0.1,0.4-0.4,0.8-0.6,1.1c-0.3,0.5-0.6,0.9-1,1.4c-0.4,0.4-0.7,0.9-1.1,1.3
			C553.9,705.2,553.5,705.6,553,705.9z M592.1,684.8c-1.3,5.6-3.4,10.9-6,16.1l-1,1.9c-0.3,0.6-0.7,1.3-1.1,1.9l-1.1,1.9
			c-0.4,0.6-0.7,1.3-1.1,1.8l-2.4,3.6c-0.9,1.2-1.8,2.3-2.6,3.4c-7.4,9.2-15.4,18.1-24.4,25.8c-4.5,3.8-9.3,7.4-14.4,10.3
			c-2.5,1.4-5.2,2.7-8,3.6c-1.4,0.4-2.8,0.7-4.1,0.6c-0.6,0-1.2-0.2-1.6-0.4c-0.4-0.3-0.5-0.6-0.6-1.1c-0.1-1,0.5-2.4,1.1-3.6
			c0.7-1.2,1.5-2.4,2.4-3.5c0.2-0.3,0.5-0.6,0.7-0.8c0.5-0.6,1-1,1.5-1.5c0.2-0.3,0.5-0.7,0.8-0.7h0l1.1-1.1l2-1.9h0
			c0.1,0,0.3-0.5,0.4-0.7c0,0,0-0.1,0-0.1c1-1.2,2.1-2.1,3.1-3.1c0.4-0.4,0.8-0.7,1.2-1.1c1.6-1.6,3.2-3.2,4.8-4.8
			c1.1-1.1,2.1-2.2,3.1-3.3c0.5-0.6,1-1.1,1.5-1.7c0.4-0.5,0.9-1,1.3-1.5c0.4-0.5,0.9-1,1.3-1.5c2.5-3.1,4.9-6.4,6.9-9.9
			c1.8-3.2,3.3-6.6,4.3-10.1c0,0,0,0,0.1,0c0,0,0,0,0,0c0,0,0,0,0.1,0c0,0,0.1,0,0.1,0l0.2,0c0,0,0,0,0,0c0-2.4,1-4.9,1.4-7.5
			c0.1-1.1,0.2-2.2,0.3-3.2c0.3-5.2-0.2-10.4-1.2-15.4c-0.6-3-1.4-6-2.3-9l-0.7-2.2c-0.3-0.8-0.5-1.4-0.8-2.2l-1.5-4.2
			c-1-2.8-2.1-5.6-3.3-8.4c-0.6-1.4-1.1-2.8-1.7-4.2c-0.6-1.3-1.1-2.6-1.7-3.9c-0.1-0.2-0.2-0.5-0.3-0.7c-0.5-1.2-1.1-2.4-1.7-3.6
			c-0.5-1-1-2-1.5-3.1c-0.2-0.5-0.4-0.9-0.7-1.4c-0.6-1.3-1.3-2.6-1.9-3.8c-0.6-1.3-1.3-2.6-2-3.9c-2.8-5.3-5.6-10.6-8.6-15.8
			c-0.9-1.6-1.9-3.2-2.8-4.8c0,0,0,0,0,0c0,0,0,0,0,0c-0.4-0.9-0.8-1.8-1.1-2.5c-0.6-1.2-1-2.1-1.4-2.7c-0.4-0.7-0.6-0.9-0.6-0.9
			l-0.5,0.3c-1-1.5-2-3.1-3-4.6c-6.9-12-13.2-24.4-18.8-37c-1.4-3.2-2.8-6.3-4-9.5l-0.9-2.4l-0.8-2.4c-0.3-0.8-0.5-1.6-0.7-2.4
			c-0.2-0.8-0.5-1.6-0.7-2.5c-0.5-1.9-1.1-3.6-2.2-5.5c-0.6-0.9-1.2-1.9-2.7-2.8c-0.7-0.4-1.8-0.7-2.9-0.5c-1,0.2-1.8,0.7-2.3,1.2
			c-1.1,1-1.6,2-2,3c-0.4,1-0.7,1.9-0.9,2.9c-0.4,1.9-0.6,3.8-0.7,5.6c-0.2,7.4,1.1,14.3,2.3,21.2l0.9,5.2l1,5.1
			c0.7,3.4,1.4,6.9,2.1,10.3c1.5,6.8,3.2,13.6,5,20.4c0.9,3.4,1.9,6.7,3,10.1c1,3.3,2.1,6.7,3.2,10c4.5,13.2,8.9,26.3,12,39.6
			c3.1,13.3,4.9,26.9,4.5,40.4c-0.4,13.5-3,26.9-7.6,39.7c-2.3,6.4-5,12.7-8.1,18.7c-0.7,1.5-1.6,3-2.4,4.5c-0.8,1.5-1.6,3-2.5,4.5
			l-2.7,4.4c-1,1.6-1.8,3.2-2.7,4.7c-3.3,6.3-6.2,12.7-8.6,19.4c-0.8,2.1-1.5,4.3-2.2,6.5l-1,3.2c-1,3.5-1.9,7.1-2.6,10.8
			c-0.1,0.6-0.2,1.2-0.3,1.8l-0.4,3c-0.7,5.4-0.9,10.9-0.5,16.4l0.6,5.3c0.3,1.7,0.5,3.4,0.6,5.1c0.1,0.8,0,1.7,0,2.5
			c0,0.8-0.2,1.7-0.4,2.3c-0.1,0.3-0.3,0.5-0.4,0.6c-0.1,0-0.4,0-0.6-0.2c-0.6-0.3-1.2-0.9-1.7-1.6c-2.1-2.6-3.8-5.7-5.3-8.8
			c-1.5-3.1-2.8-6.3-4-9.6c-1.2-3.2-2.2-6.5-3-9.9c-0.4-1.7-0.8-3.3-1-5c-0.3-1.6-0.5-3.4-0.7-5.1c-0.1-0.5-0.1-1.1-0.2-1.6l-0.4-4
			c-0.4-4.9-0.6-9.9-0.5-14.9c0.1-2.6,0.2-5.3,0.3-7.9c0.1-1.8,0.4-6.5,0.4-6.5c0.2-2.1,0.4-4.1,0.6-6.2c0.8-6.9,1.8-13.7,3.3-20.5
			c1.5-6.8,3.4-13.4,5.3-20.2c1.8-6.7,3.8-13.5,5.1-20.5c1.4-7,1.9-14.2,1.4-21.4s-1.7-14.3-3.6-21.1c-1.6-5.9-3.5-11.6-5.7-17.3
			c0,0,0,0,0,0c0.1-0.6,0.1-0.9,0.1-0.9l-0.5-0.1c-0.2-0.6-0.5-1.2-0.7-1.8l-1.9-4.9l-1.9-4.9c-1.1-3.2-2.2-6.5-3.1-9.8
			c-1.9-6.6-3.3-13.4-4.4-20.2c-1.1-6.8-1.7-13.7-2.1-20.6c-0.1-1.7-0.2-3.4-0.2-5.2c0-0.8,0-1.7,0-2.5c0-0.5,0-0.8,0-1.4
			c0-0.5-0.1-1-0.2-1.5c-0.2-1-0.4-2-1.1-3.1c-0.4-0.5-0.7-1.2-1.8-1.7c-0.5-0.2-1.3-0.3-1.9-0.1c-0.3,0.1-0.6,0.2-0.8,0.4
			c-0.2,0.2-0.4,0.3-0.6,0.5c-0.6,0.6-0.9,1.2-1.1,1.7c-0.2,0.5-0.4,1-0.5,1.5c-0.3,1-0.5,1.9-0.6,2.8c-0.1,0.9-0.2,1.8-0.3,2.7
			l-0.2,2.6c-0.1,1.7-0.3,3.5-0.4,5.2c-0.3,3.4-0.7,6.9-1,10.3c-0.8,6.9-1.7,13.8-2.8,20.6c-1,6.8-2.2,13.7-3.5,20.5
			c-0.6,3.4-1.3,6.8-2,10.2c-0.7,3.4-1.5,6.8-2.1,10.3c-1.1,7-1.8,14-2,21.1c-0.2,7-0.1,14.1,0.5,21.1c1.2,14,3.9,28,8.6,41.4
			c2.3,6.7,5.1,13.2,8.5,19.4c2.9,5.5,6.2,10.7,9.9,15.7c-0.8,8.2-0.8,16.4-0.1,24.6c-3.8-2.8-7.4-5.8-10.9-8.9
			c-5.2-4.5-10.2-9.3-14.8-14.4c-4.7-5.1-9.1-10.3-13.3-15.8c-4.2-5.5-8.1-11.2-11.7-17c-3.6-5.8-6.8-11.9-9.7-18.1
			c-2.9-6.2-5.4-12.6-7.4-19.1c-2-6.5-3.5-13.2-4.4-19.9c-0.2-1.7-0.4-3.4-0.5-5L384,687l-0.1-1.4c0-0.4,0-0.8,0-1.2
			c0-0.8,0-1.7,0-2.5c0-1.7,0.1-3.4,0.2-5.1c0.4-6.8,1.3-13.6,2.4-20.4c0.3-1.8,0.6-3.5,1-5.2c0.6-0.9,0.9-1.4,0.9-1.4l-0.6-0.3
			c0.9-4.4,1.9-8.8,2.9-13.2c0.9-3.3,1.7-6.7,2.6-10c1-3.3,1.8-6.7,2.9-10l1.5-5l0.4-1.2l0.2-0.6c0-0.1,0.1-0.4,0.1-0.4l0.1-0.3
			l0.7-2.6c0.8-3.4,1.6-6.8,2.3-10.3c1.4-6.9,2.5-13.8,3.2-20.8c0.7-7,1-14.1,0.1-21.1l-1,0.1c0,6.9-1,13.8-2.2,20.6
			c-1.2,6.8-2.8,13.5-4.5,20.2c-0.9,3.3-1.8,6.7-2.7,10l-0.7,2.5l-0.1,0.3c-0.1,0.2,0,0.1-0.1,0.2l-0.2,0.6l-0.4,1.2l-1.7,5
			c-0.6,1.7-1.1,3.3-1.6,5l-1.5,5c-1,3.4-1.9,6.7-2.8,10.1c-1.2,4.8-2.3,9.7-3.3,14.6c-0.1,0.2-0.2,0.4-0.4,0.7
			c-1.2,2.2-3,5.3-5.4,9.3c-2.4,4-5.3,8.8-8.9,14.1c-0.9,1.4-1.8,2.6-2.9,4.1c-1,1.4-2,3-3,4.5c-1.9,3.1-3.8,6.5-5.7,10.1
			c-3.7,7.1-7.5,14.9-11.2,23.3c-1.8,3.7-2.7,8.7-4.5,11.4c-0.3-0.8-0.6-1.9-0.7-2.9c-0.2-1.1-0.3-2.3-0.5-3.6
			c-0.1-1.2-0.2-2.4-0.3-3.6c-0.4-4.8-0.3-9.7,0-14.6c0.1-1.2,0.1-2.5,0.2-3.7s0.3-2.5,0.4-3.7c0.1-1.3,0.4-2.5,0.5-3.7
			c0.2-1.3,0.4-2.5,0.6-3.8c1.8-10,4.7-20.2,8.1-30.1c0.9-2.5,1.7-5,2.6-7.4c0.9-2.5,1.9-4.9,2.8-7.4c2-4.9,4-9.7,6.1-14.5
			c2.1-4.8,4.2-9.5,6.3-14.2c2.1-4.7,4.2-9.3,6.2-13.9c4.1-9.1,8.1-17.9,11.5-26.4c0.9-2.1,1.7-4.3,2.5-6.3c0.8-2.1,1.6-4.2,2.3-6.2
			c0.7-2.1,1.4-4.1,2-6.1c0.6-2,1.3-3.9,1.8-5.9c2.3-7.7,3.9-14.9,5.2-21.3c1.3-6.4,2.2-12,2.6-16.7c0.4-3.4,0.5-6.2,0.6-8.5
			c2.4,3.3,5.2,6.2,8.3,8.6c4.2,3.2,8.8,5.6,13.5,7.4c1.2,0.4,2.4,0.9,3.5,1.2c1.1,0.3,2.2,0.6,3.4,0.9l0.2,0l0.1,0c0,0,0.1,0,0.1,0
			l0.1,0l0.5,0.1l0.9,0.2c0.6,0.1,1.2,0.2,1.8,0.3c0.6,0.1,1.1,0.2,1.7,0.3c0.6,0,1.2,0.1,1.7,0.1c2.3,0.3,4.5,0.1,6.6,0
			c2.1-0.3,4.2-0.5,6.1-1c3.8-0.9,7.2-2.2,10-3.7c2.8-1.4,5.1-2.9,6.9-4.3c1.8-1.3,3.1-2.5,4-3.4c0.8-0.7,1.2-1.2,1.3-1.3
			c-0.1,0.1-0.6,0.5-1.5,1.1c-1,0.7-2.4,1.6-4.4,2.7c-1.9,1.1-4.3,2.2-7.2,3.3c-0.7,0.3-1.4,0.6-2.2,0.8c-0.8,0.2-1.6,0.4-2.4,0.7
			c-0.8,0.2-1.7,0.4-2.5,0.5c-0.4,0.1-0.9,0.2-1.3,0.3l-1.3,0.2c-1.8,0.3-3.7,0.4-5.7,0.5c-1,0-2-0.1-3-0.1c-0.5,0-1,0-1.5-0.1
			c-0.5-0.1-1-0.1-1.5-0.2c-0.5-0.1-1-0.1-1.5-0.2c-0.5-0.1-1-0.2-1.6-0.3c-0.5-0.1-1-0.2-1.6-0.4l-0.8-0.2l-0.4-0.1l0,0l-0.1,0
			l-0.2-0.1c-1.1-0.4-2.2-0.7-3.3-1.1c-1.1-0.4-2.1-0.8-3.1-1.2c-4.1-1.7-8.3-4.1-11.8-7c-3.6-3-6.7-6.5-9-10.6
			c-2.2-4.1-3.6-8.6-4.3-13.2c-0.6-4.6-0.5-9.2,0.3-13.7c0.7-4.4,2.1-8.6,3.7-12.5c1.6-3.9,3.6-7.3,5.6-10.5c1.1-1.5,2-3,3.1-4.4
			c0.5-0.7,1-1.3,1.5-2c0.5-0.6,1-1.2,1.5-1.8c1-1.2,1.9-2.2,2.8-3.2c0.4-0.5,0.9-1,1.3-1.4c0.4-0.4,0.8-0.8,1.2-1.2
			c1.6-1.6,2.9-2.7,3.7-3.5c0.9-0.8,1.4-1.2,1.4-1.2s-0.5,0.3-1.6,0.9c-0.5,0.3-1.1,0.7-1.9,1.1c-0.8,0.4-1.5,1-2.5,1.7
			c-0.5,0.3-0.9,0.7-1.4,1c-0.5,0.4-1,0.8-1.5,1.2c-1.1,0.9-2.2,1.8-3.4,2.8c-0.6,0.5-1.2,1.1-1.8,1.6c-0.6,0.6-1.2,1.2-1.8,1.9
			c-1.3,1.2-2.4,2.7-3.7,4.2c-1.2,1.5-2.3,3-3.4,4.7c-0.8-0.5-1.2-1.1-1.7-1.6c-1.5-1.6-3.2-3.3-4.7-4.9c-2.9-3.4-5.6-6.9-8.2-10.5
			c-2.7-3.6-5.1-7.3-7.5-11.1c-2.3-3.8-4.6-7.7-6.6-11.6c-8.2-15.8-14.4-32.7-17.5-50.3c-1.6-8.7-2.4-17.6-2.5-26.5
			c0-8.9,0.7-17.7,2.2-26.5c0.4-2.2,0.8-4.4,1.2-6.5l1.6-6.5c1.1-4.4,2.3-8.8,3.4-13.2l1.7-6.6l1.6-6.6c1.1-4.4,2.2-8.8,3.2-13.3
			c2.5-10.6,4.8-21.3,7.1-32c1.8-0.8,3.5-1.9,5-3c1.9-1.4,3.6-3,5.1-4.6c0.8-0.8,1.5-1.7,2.2-2.5c0.7-0.9,1.4-1.8,2-2.6
			c0.3-0.4,0.6-0.8,0.9-1.2c0.3-0.5,0.6-0.9,0.9-1.3c0.6-0.9,1.1-1.7,1.7-2.5c1.1-1.7,2-3.4,3-5c3.8-6.6,6.8-12.9,9.2-18.5
			c2.4-5.6,4.3-10.6,5.7-14.8c1.5-4.1,2.5-7.4,3.2-9.7c0.7-2.3,1-3.5,1-3.5l-0.5-0.2c0,0-0.5,1.2-1.4,3.3c-0.9,2.2-2.3,5.3-4.1,9.3
			c-1.8,4-4.1,8.7-6.9,14.1c-2.8,5.3-6.1,11.3-10.2,17.5c-2.1,3-4.3,6.2-6.7,9.3c-0.6,0.8-1.3,1.5-1.9,2.2c-0.7,0.7-1.3,1.4-2,2.1
			c-1.3,1.3-2.8,2.5-4.3,3.5c-0.1,0.1-0.1,0.1-0.2,0.1c-2,1.3-4.1,2.3-6.3,2.8c-1.4,0.3-2.7,0.5-4.1,0.4c-1.8-0.1-3.7-0.6-5.5-1.3
			c-1.8-0.8-3.6-1.8-5.4-3c-1.8-1.2-3.4-2.6-5.1-4.2l-0.6-0.6l-0.6-0.6c-0.4-0.4-0.7-0.7-1.1-1.2c-0.8-0.8-1.5-1.7-2.3-2.6
			c-3.1-3.5-6-7.3-8.8-11.2c-5.6-7.8-10.9-16.1-15.3-24.7c-2.2-4.3-4.1-8.7-5.5-13.2c-1.4-4.4-2.2-9-1.7-13.3
			c0.2-2.1,0.9-4.1,1.9-5.9c1-1.8,2.5-3.3,4.2-4.5c1.7-1.3,3.7-2.2,5.8-3c1-0.4,2.1-0.7,3.2-0.9l1.7-0.4c0.6-0.2,1.2-0.3,1.8-0.5
			c4.6-1.4,9-3.1,13.2-5c4.2-1.9,8.1-4,11.8-6.3c3.7-2.2,7.2-4.6,10.5-7c0.8-0.6,1.6-1.2,2.4-1.8c0.8-0.6,1.5-1.2,2.3-1.9
			c1.5-1.3,2.9-2.6,4.3-3.9c5.5-5.2,9.8-10.6,13.9-15.1c0.6-0.6,1.2-1.3,1.8-1.9c1-1.1,2.1-2.1,3.1-3c0.4-0.4,0.8-0.7,1.2-1
			c2-1.6,4.1-2.9,6.1-3.7c2-0.8,3.9-1.2,5.6-1.3c0.8-0.1,1.6,0,2.3,0c0.7,0.1,1.4,0.1,1.9,0.2c0.6,0.1,1.1,0.2,1.5,0.2
			c0.4,0.1,0.8,0.2,1.1,0.2c0.4,0.1,0.6,0.1,0.8,0.2c-0.1,0-0.4-0.1-0.8-0.2c-0.3-0.1-0.7-0.2-1.1-0.3c-0.4-0.1-1-0.2-1.5-0.3
			c-0.6-0.1-1.2-0.2-2-0.2c-0.7,0-1.5-0.1-2.4-0.1c-1.7,0-3.7,0.3-5.8,1.1c-2.1,0.7-4.3,2-6.4,3.6c-0.2,0.2-0.5,0.4-0.7,0.6
			c0-0.1,0-0.1,0-0.2l-0.1-3.4c0-1.1-0.1-2.3,0-3.3c0.1-2.1,0.4-4.3,1-6.5c0.5-2.1,1.3-4.2,2.2-6.2c1-2,2-4,3.4-5.7
			c0.6-0.9,1.4-1.8,2.1-2.6c0.7-0.8,1.5-1.7,2.3-2.4c1.6-1.6,3.4-2.9,5.2-4.2c1.9-1.2,3.9-2.2,5.9-3.1c2.1-0.8,4.2-1.4,6.4-1.7
			c2.2-0.3,4.4-0.4,6.6-0.1c1.1,0.1,2.2,0.4,3.3,0.6l1.6,0.5c0.5,0.1,1.1,0.3,1.6,0.5c4.1,1.6,7.8,4.1,10.8,7.2
			c0.7,0.8,1.5,1.6,2.2,2.4l2.1,2.6c1.4,1.8,2.8,3.6,4.1,5.4C468.3,72.6,479,87.1,489,102c10.1,14.9,19.7,30.2,28.3,46.1
			c8.6,15.9,16,32.4,22.3,49.3c6.3,16.9,11.3,34.3,15.1,51.9c1.9,8.8,3.4,17.7,4.6,26.6c0.6,4.4,1.1,8.9,1.6,13.4l0.6,6.7
			c0.2,2.2,0.3,4.5,0.5,6.7c0.5,9,0.7,18,0.5,27c-0.2,9-0.8,18-1.8,26.9c-1,8.9-2.4,17.8-4.2,26.7c-1.8,8.8-4.1,17.5-6.7,26.1
			c-4.1,11.4-6.5,23.2-8,35.1c-1.5,11.9-1.8,24-1.3,36c0.2,6,0.8,12,1.6,18c0.8,6,1.9,11.9,3.3,17.8c1.4,5.9,3.2,11.7,5.3,17.4
			c0.5,1.4,1.1,2.8,1.7,4.2c0.6,1.4,1.1,2.8,1.7,4.2l3.6,8.2c4.8,10.9,9.7,21.8,14.3,32.8c2.3,5.5,4.6,11,6.7,16.5
			c2.1,5.5,4.2,11.1,6,16.7c3.7,11.2,6.8,22.5,8.4,34.1C594.8,661.9,594.7,673.6,592.1,684.8z M600,633.7c0,0.7,0,1.3-0.1,2
			c-0.1,0.6-0.2,1.3-0.2,1.9c-0.1,1.2-0.4,2.3-0.6,3.4c-0.1,0.3-0.1,0.5-0.2,0.8c0,0,0,0.1,0,0.1c-0.6-3.4-1.3-6.9-2.2-10.2
			c-1.5-5.9-3.1-11.7-5-17.5c-3.8-11.5-8.3-22.6-13.1-33.6c-1.1-2.6-2.3-5.3-3.5-7.9c0.6,1,1.3,2,1.9,3c3.8,6.1,7.7,12.6,11.2,19.3
			c1.8,3.4,3.4,6.7,4.9,10.2c1.5,3.4,2.8,6.8,3.9,10.1c0.5,1.7,1,3.3,1.4,4.9c0.4,1.6,0.7,3.2,1,4.8C599.8,628,600.1,631,600,633.7z
			"/>
		<path class="st8" d="M474.6,465.3l-0.1-1.2l-0.2-1.2c-0.2-0.8-0.2-1.6-0.5-2.4c-0.2-0.8-0.5-1.5-0.7-2.3l-0.9-2.2
			c-0.3-0.8-0.7-1.4-1.1-2.1l-0.6-1c-0.2-0.3-0.5-0.6-0.7-1c-0.5-0.6-0.9-1.3-1.4-1.9c-0.5-0.6-1.1-1.1-1.6-1.7
			c-2.2-2.1-4.7-3.9-7.2-5.2c-0.7-0.3-1.3-0.7-1.9-1c-0.7-0.3-1.3-0.6-2-0.8l-1-0.4l-0.2-0.1l-0.2-0.1l-0.1,0l-0.5-0.1
			c-0.6-0.2-1.3-0.4-1.9-0.6c-2.8-0.6-5.5-1-8-0.8c-1.3,0-2.5,0.3-3.8,0.4c-0.6,0.1-1.2,0.3-1.8,0.4c-0.6,0.2-1.2,0.3-1.7,0.5
			c-0.6,0.2-1.1,0.4-1.6,0.6c-0.3,0.1-0.5,0.2-0.8,0.3c-0.3,0.1-0.5,0.2-0.8,0.3c-1,0.4-2.1,0.7-3.1,1.2c-1,0.5-2,0.9-2.8,1.4
			c-0.9,0.5-1.8,1-2.6,1.6c-1.7,1.1-3,2.3-4.3,3.4c-1.2,1.2-2.4,2.3-3.2,3.5c-0.4,0.6-0.9,1.1-1.3,1.6c-0.4,0.5-0.7,1-1,1.5
			c-0.3,0.5-0.6,0.9-0.9,1.3c-0.2,0.4-0.4,0.8-0.6,1.1c-0.7,1.4-1.1,2.1-1.1,2.1l0,0.1c0,0-0.3,0.7-0.9,2c-0.1,0.3-0.3,0.7-0.5,1.1
			c-0.2,0.4-0.3,0.9-0.5,1.4c-0.3,1.1-0.7,2.4-1.1,3.8c-0.1,0.7-0.3,1.5-0.5,2.2c-0.1,0.4-0.1,0.8-0.2,1.2c0,0.4-0.1,0.9-0.1,1.3
			c-0.1,0.9-0.2,1.8-0.2,2.8c0,1,0,2,0,3c0.1,1,0.2,2.1,0.3,3.2c0.2,1.1,0.4,2.2,0.7,3.4c0.1,0.6,0.4,1.1,0.6,1.7
			c0.2,0.6,0.4,1.2,0.7,1.7c0.3,0.6,0.6,1.1,0.9,1.7l0.5,0.8l0.5,0.8c0.4,0.5,0.8,1.1,1.1,1.6c0.4,0.5,0.9,1,1.3,1.5
			c0.8,1,1.9,1.9,2.9,2.8c0.5,0.4,1.1,0.8,1.6,1.2l0.8,0.6l0.9,0.5c0.6,0.3,1.2,0.7,1.8,1.1c0.6,0.3,1.3,0.6,1.9,0.9
			c0.6,0.3,1.3,0.6,1.9,0.8l1,0.4l0.5,0.2l0.3,0.1l0.2,0.1l0.1,0l0.1,0c1.3,0.3,2.5,0.8,4.2,1l1.2,0.2c0.4,0.1,0.8,0.1,1.1,0.1
			c0.8,0,1.5,0.1,2.3,0.1c0.8,0,1.5-0.1,2.3-0.1l1.1-0.1c0.4,0,0.7-0.1,1.1-0.2c6-0.9,11.8-3.5,16.8-7.2c2.5-1.9,4.8-4.1,6.8-6.5
			c2-2.5,3.8-5.1,5.1-8.1l0.5-1.1l0-0.1l0-0.1l0.1-0.1l0.1-0.3l0.2-0.5c0.3-0.7,0.6-1.4,0.8-2.2c0.5-1.6,1-3.1,1.3-4.7
			c0.4-1.6,0.5-3.2,0.7-4.8l0.1-2.4C474.7,466.9,474.6,466.1,474.6,465.3z M470.4,474.2c-0.2,1.5-0.6,2.8-1,4.2
			c-0.2,0.7-0.5,1.5-0.7,2.2l-0.2,0.6l-0.3,0.3l-0.3,0.1v0l0.2,0.1l-0.3,1c-1.1,2.8-2.6,5.3-4.4,7.6l-1.4,1.7
			c-0.5,0.6-1,1.1-1.5,1.6c-1,1.1-2.2,2-3.3,2.9c-0.6,0.4-1.2,0.8-1.8,1.2l-0.9,0.6l-0.9,0.5c-0.6,0.3-1.3,0.7-1.9,1
			c-0.7,0.3-1.3,0.6-2,0.9c-2.7,1-5.4,1.8-8.1,2c-0.3,0-0.7,0.1-1,0.1l-1,0c-0.7,0-1.3,0-2-0.1c-0.7-0.1-1.3-0.2-2-0.3
			c-0.3,0-0.6-0.1-0.9-0.2l-0.9-0.2c-1.1-0.2-2.5-0.8-3.7-1.3c-0.5-0.3-1.1-0.6-1.6-0.8c-0.6-0.3-1.1-0.6-1.6-0.9
			c-2.2-1.2-3.9-2.8-5.6-4.3c-0.7-0.9-1.6-1.6-2.1-2.5c-0.3-0.4-0.6-0.8-0.9-1.3c-0.3-0.4-0.5-0.9-0.8-1.3c-1.9-3.6-2.9-7.2-3-10.5
			c-0.2-3.4,0.4-6.4,0.9-8.8c0.3-1.2,0.6-2.2,0.8-3.2c0.1-0.5,0.2-0.9,0.4-1.3c0.1-0.4,0.3-0.8,0.4-1.2c0.4-1.2,0.4-1.9,0.5-2.1
			c0,0-0.2,0-0.2,0v0c0-0.2,0.5-0.8,0.9-1.8c0.1-0.3,0.4-0.7,0.5-1c0.2-0.4,0.4-0.8,0.6-1.2c0.2-0.4,0.5-0.9,0.7-1.4
			c0.3-0.5,0.6-1,0.9-1.6c0.6-1.1,1.5-2.2,2.3-3.5c1-1.2,2-2.5,3.3-3.8c0.6-0.7,1.4-1.2,2.1-1.8c0.7-0.6,1.6-1.2,2.4-1.7
			c0.8-0.6,1.8-1.1,2.7-1.6c0.5-0.3,1-0.4,1.5-0.6c0.5-0.2,1.1-0.3,1.6-0.5c0.5-0.2,1.1-0.2,1.7-0.3c0.6-0.1,1.1-0.3,1.7-0.3
			c1.2-0.1,2.3-0.3,3.5-0.2c0.6,0,1.2,0,1.8,0.1c0.6,0.1,1.2,0.2,1.8,0.3c0.6,0.1,1.2,0.2,1.8,0.4c0.6,0.2,1.2,0.3,1.8,0.5
			c4.8,1.8,9.6,4.5,13.3,8.5c3.7,3.9,6.2,9.1,6.7,14.8C471.1,468.5,470.9,471.4,470.4,474.2z"/>
		<path class="st8" d="M456.2,483c0,0-5.6,4-9.3,5.4c0,0-13.2-16.1-17.9-30.4c0,0,4.1-4.9,9.8-7.3
			C438.7,450.7,451.2,476.5,456.2,483z"/>
	</g>
</g>
</svg>
