<svg xmlns="http://www.w3.org/2000/svg" viewBox="0 0 900 900">
  <style>
    .st0{fill:#9BC4C0;} .st1{fill:#7BADAA;} .st2{fill:#497275;} .st3{fill:#2D5051;} .st4{fill:#7A2B1E;} .st5{fill:#DB4D4D;} .st6{fill:#AD4234;} .st7{fill:#78A2A8;} .st8{fill:#102930;}
  </style>
  <g id="waves">
    <path class="st0" d="M-146 620l1083-25-34-444s-39.4 33-102.4 33-97.6-33-97.6-33-39.4 33-102.4 33-97.6-33-97.6-33-39.4 33-102.4 33-97.6-33-97.6-33-39.4 33-102.4 33-97.6-33-97.6-33S63.6 184 .6 184-97 151-97 151l-49 469z"/>
    <path class="st1" d="M-50 723l995-17 54-452s-39.4 33-102.4 33-97.6-33-97.6-33-39.4 33-102.4 33-97.6-33-97.6-33-39.4 33-102.4 33-97.6-33-97.6-33-39.4 33-102.4 33-97.6-33-97.6-33-39.4 33-102.4 33S-1 254-1 254l-49 469z"/>
    <path class="st2" d="M-146 939H937l-34-469s-39.4 33-102.4 33-97.6-33-97.6-33-39.4 33-102.4 33-97.6-33-97.6-33-39.4 33-102.4 33-97.6-33-97.6-33-39.4 33-102.4 33-97.6-33-97.6-33S63.6 503 .6 503-97 470-97 470l-49 469z"/>
    <path class="st3" d="M-52 1174h1083l-34-469s-39.4 33-102.4 33-97.6-33-97.6-33-39.4 33-102.4 33-97.6-33-97.6-33-39.4 33-102.4 33-97.6-33-97.6-33-39.4 33-102.4 33-97.6-33-97.6-33-39.4 33-102.4 33S-3 705-3 705l-49 469zM191 162.6V137l-14 7 12 6v12.5c-14-.4-25-8.6-25-8.6 28.7 64.3 49.5-.3 49.5-.3-7.6 6.5-15.4 8.8-22.5 9zM780.7 152.8l2.2-9.8 20.4 4.6c2.4-10.7-2-19-2-19l-14.5-3.2.8-4 12 2.8c1.4-6.8-1.6-12.6-1.6-12.6l-7.8-1.7 1-4-3-.7-1 4-8-2c.6 7.4-2.5 11.8-2.5 11.8l8 2-1 3.8-8.8-2c.7 10.4-4 17.6-4 17.6l8.8 2-2.2 9.8-26.3-6 2.2-9.7 12 2.7c1.4-6.8-1.6-12.6-1.6-12.6l-7.7-1.7.4-2-2-.5-.4 2-9-2c.5 7.3-2.6 11.7-2.6 11.7l9 2-2.2 9.8-18.5-4.2c2.2 33.3 34.5 38 34.5 38 41.7 5.8 47.5-19.5 47.5-19.5l-32.3-7.5zm-33.5 6.5c-2-.5-3.3-2.5-2.8-4.5s2.5-3.3 4.5-2.8 3.2 2.5 2.7 4.5c-.4 2-2.4 3.2-4.5 2.8zm29.3 6.6c-2-.6-3.3-2.6-2.8-4.6.5-2 2.5-3.3 4.5-2.8s3.3 2.5 2.8 4.5-2.5 3.3-4.5 3z"/>
  </g>
  <g id="squid">
    <path class="st4" d="M509.5 834c-1.7 0-3.6-.4-5-.7l-5-1-5-1.4c-1.2-.4-2.3-.8-3.4-1-.4-.3-1-.5-1.5-.6l-4.8-1.8-1.8-.8-2-1v-.7l.7-2.7c.6-2.8 1.4-5.6 2.3-8.6l.4-1.4 1 1c1.6 1 3 2 4.2 3l.8.5c1 .8 2.3 1.7 3.5 2.4l4.7 3.2c.2 0 .4.3.7.5l1 .6 2.3 1.4 4.3 3c1.3 1 2.8 2 4 3.4l.6 1 .8 1.7h-3zM538.8 711.7h-1.2l-2-.4s-.3 0-.4-.2l-1-.5.7-1 .2-.2.7-.6 2.8-2 1-1 .3-.3c.6-.4 1-1 1.3-1.2l.5-.5.8-.8 1-1.5.7-.7 1.5-2.2c.4-.6.8-1.2 1-2l.8-1 1-2 .6-1.3 1-2.3.3-1 .6-1.7.4-1 .4-1.6.7-2.5.7-3.5v-.6c.2-.3.3-.7.3-1l.2-2 .4-3.3 2-.2c.7 2 1.2 4 1.7 6.3 1.3 6.3 1.6 12 1.2 17.3l-1 6v.2l-.7 1.3-1 1.5h-.2l-1 1.4c-.5.4-1 1-1.5 1.3l-1 .8-.4.3c-.2.3-.6.5-1 .7-.2 0-.4.2-.5.3l-1 .6c-.3 0-.5.2-.7.3l-1.2.5c-.2 0-.4 0-.6.2l-1.8.5c-.8 0-1.4.2-2 .3h-.8l-1 .3h-2-.6zM597.8 642c-.6-3.5-1.4-7-2.2-10.2-1.6-6.5-3.3-12.2-5-17.4-3.3-10-7.3-20.2-13-33.6l-3-6.5-.5-1.4 2-1 1.8 3c4.6 7.4 8.2 13.6 11.2 19.4l5 10.2c1.3 3 2.6 6.6 3.8 10.2v.3c.6 1.6 1 3.2 1.4 4.8.4 1.3.6 2.6.8 3.8l.2 1c.6 3.7.8 6.5.7 9v.7c0 .4 0 1-.2 1.3l-.2 2c0 .8-.3 1.8-.5 2.6v.8l-.3 1h-2zM523.5 681.2c-.8-5.6-2-11.3-3.7-17.6-3.3-12.5-8-24.7-12.5-36.5l-1.3-3-3.6-9.8-1.7-5-.6-1.8c-.2-1-.5-2-1-3-2-6.4-3.7-13.2-5.4-20-1.8-7.6-3-14.3-4-20.6-.8-6.3-1.6-13.6-1.2-20.5 0-2 .4-3.5.8-5l.7-2c0-.6.4-1 .7-1.5l.7-1 .8 1c.2 0 .5.4.7 1 .7 1.2 1.3 3 1.7 4.3l.7 2.6.2.7.6 2 1 2.4.6 1.3.5 1c1.6 3.6 3.3 7 4.6 9.5 3 6 6.4 12.2 9.8 18.4l10 18.2 3 4.5.4 1-.7.2c0 .3.3.8.5 1.3 0 .4.3.8.4 1.3l.6 2 .7 2.4.2.6c0 .6.2 1.3.4 2l.7 3c.3.6.4 1.3.5 2 0 .4 0 .8.2 1.2l.2 1.3.3 2.4c0 1.2.3 2.4.5 3.6.2.8.2 1.7.3 2.6l.2 1.3.2 2v2l.3 4v8.5l-.4 4.6c0 1.4-.2 2.7-.3 4l-1.2 8.2-1.5 7.6-.8 3.2-1 3.5c0 .6-.2 1.3-.4 1.8-.2 1-.4 2-.8 3h-1.7zM457 779.5c-2.2-3.7-4.4-7.5-6.3-11.3l-2.3-4.6-1.5-3.4-.7-1.3-1.4-3.5c-.3-.4-1.6-3.7-1.6-3.7l-1-2.5c-4.3-12.4-7-26-8.3-40.4-1-14.3-.7-28.2 1.3-41.4.5-3.4 1.2-7 2-10.2L439 647c1.3-6.5 2.4-13.5 3.4-20.5 1-7.4 2-14.2 2.6-20.7l1-10.4.3-5.2.2-2.6c0-1 0-1.7.2-2.5 0-.6.2-1.5.5-2.4 0-.2 0-.3.2-.5l1-2.6 1 2.7c0 .5 0 1 .2 1.2 0 .4 0 .8.2 1.2V588.3l.4 5.2c.5 6 1.3 12.7 2.5 20.8 1 6.8 2.4 13.7 4 20.6l2 8.4.5 1.7 3 11-1-.2v1l-.5 3.2-.2 2-1.2 11.7-.7 9.2-.2 2.3-.5 8-.2 2.8-.3 8.2v5.5l-.2 6V727c0 3.3 0 6.6.2 9.8v1.2c0 3.6.3 7 .4 10.2l.2 4.8c0 1.5.2 3 .3 4.4v1.3l.7 6.5.3 3 .3 3v.5c.2.3.2.7.2 1 0 1-.3 2-.5 3 0 .7-.3 1.2-.4 1.7 0 .7 0 1.4-.2 2l-.4 2.7-1.3-2.5zM552.5 226c-3.3-11-6.5-21-9.8-29.8-6.3-17-13.7-33-19.4-45.3l1.7-1s.2 0 .3.2l.3.3 9.8 11.4 2.5 2.8 6.7 8.2c2.4 3 4.7 6 6.6 8.7 5 7 8.5 13 10.8 18.2 1.5 3.4 2.3 6.3 2.6 8.8.3 2.7 0 5.3-1 7.7-.6 2-2 3.8-3.6 5.5-1.2 1.3-2.6 2.4-4.2 3.5l-2 1.3-1 .7-.3-1.4z"/>
    <path class="st5" d="M530.6 742l2-2 .5-.3 1.6 1.4v.2c0 .2-.3.6-.6.8l-2 1.7-1.4-1.6zm5.6-5.6l6-6 1.4 1.5-4.8 4.7-1.2 1.2-1.4-1.6zm26.4-44c.3-4.6 0-9.5-1.2-15.3-.7-3.2-1.4-6-2.2-8.7l-.7-2.2-.5-1.3c0-.3-1.8-5-1.8-5-1-3-2.2-5.7-3.3-8.4l1.7-.8c1.2 2.8 2.3 5.7 3.3 8.5l1.5 4.2c0 .3.2.5.3.8l.5 1.4.7 2.2c1 3 1.7 6 2.3 9 1 6 1.5 11 1.2 15.8h-2z"/>
    <path class="st6" d="M477.3 859.6c-.3 0-.7 0-1-.3-.7-.4-1.4-1-2-1.8-2.3-2.8-4-6-5.4-9-1.5-3-2.8-6-4-9.7-1.3-3.3-2.3-6.6-3-10-.5-1.8-1-3.5-1.2-5l-.6-4v-1.2l-.3-1.6-.5-4c-.4-5.3-.6-10.4-.5-15 0-3 .2-5.5.3-8 0-2 .4-6.4.4-6.6l.6-6.2c.8-7.7 2-14.4 3.3-20.6 1.2-5.6 2.8-11.2 4.3-16.6.2-1.2.6-2.4 1-3.7l.7-3c1.6-5.6 3.2-11.5 4.3-17.4 1.4-7.3 2-14.4 1.4-21.2-.5-7-1.7-14.2-3.6-21-1.5-5.4-3.3-11-5.6-17h-.2v-.6l-.2-.6-.7-1.8-1.8-5-2-4.8c-1-3-2-6.3-3-10-2-6.4-3.4-13.2-4.5-20.2-1-6.6-1.7-13.6-2-20.7l-.3-5v-2.6-1.4c0-.5 0-1-.2-1.4-.2-1-.4-1.8-1-2.8-.3-.5-.6-1-1.4-1.3h-.7-.3c-.3 0-.4 0-.6.2l-.3.3c-.4.4-.6 1-1 1.3 0 .5-.3 1-.4 1.3l-.6 2.7c0 1-.2 1.8-.3 2.7l-.2 2.6c0 1.7-.3 3.4-.4 5.2l-1 10.4c-.7 6.6-1.7 13.6-2.8 20.7-1 7-2.3 13.8-3.5 20.4l-2 10.2v.5c-.8 3.3-1.5 6.6-2 10-1 6.8-1.8 13.8-2 20.8-.2 7 0 14 .4 21 1 14.6 4 28.4 8.5 41 2.5 7.2 5.3 13.6 8.4 19.4 3 5.5 6.2 10.7 9.7 15.6l.2.3v.5c-1 8-1 16.4-.2 24.4l.2 2-1.8-1.2c-3.6-2.7-7.2-5.6-11-9-5.4-4.7-10.5-9.5-15-14.4-4.6-5-9-10.4-13.3-15.8-4-5.3-8-11-11.8-17-3.5-5.7-6.8-11.8-9.8-18.3-3.2-7-5.7-13.3-7.4-19.3-2-7-3.6-13.7-4.4-20 0-.6 0-1.3-.2-2l-.3-3-.2-5.2v-1.4V684.2v-2.5-5.2c.4-6 1.2-12.5 2.5-20.5l1-5.3v-.2l.5-.7-.3-.2v-.7l3-13.4.7-2.6 2-7.4 1-3.8c.6-2 1-4.2 1.8-6.2l2-6.8.2-.4v-.3l.8-2.5c1-3.7 1.7-7 2.3-10.2 1.5-7.5 2.6-14.3 3.2-20.7.3-3.4.6-7.4.6-11.7-.3 3.4-.8 7.2-1.6 11.5-1.3 7.5-3 14.8-4.5 20.3l-.2.2-2.7 9.8-.6 2.5v.3l-.2.2-.7 2-1.7 5-1.6 5-1.5 5c-1 3.3-2 6.7-2.8 10-1.4 5-2.5 10-3.4 14.5l-.4 1-5.4 9.3c-2.2 3.7-5.2 8.6-9 14-.5 1-1 1.8-1.7 2.6l-1 1.6-3 4.5-5.5 10c-4.3 8.3-8 16-11.2 23.3-.8 1.6-1.4 3.5-2 5.4-.8 2.4-1.5 4.6-2.6 6.2l-1 1.6-.8-1.8-1-3c0-1.3-.2-2.5-.4-3.7l-.3-3.7c-.3-4.3-.3-9 0-14.7V700v-2l.5-3.8.3-2.5.3-1.4.6-3.8c1.6-9.4 4.3-19.6 8-30.2l1-2.7c.4-1.7 1-3.3 1.6-5l2-5.3.8-2 6-14.5L365 613l6.2-14c4.2-9.2 8-17.8 11.5-26.3.7-1.6 1.3-3 1.8-4.7l.6-1.7 2.2-6.2c1-2.4 1.5-4.2 2-6l.7-2 1-3.8c2.6-8.5 4.3-16.2 5.3-21.2 1.2-6 2-11.5 2.6-16.6l.5-8.5v-3l1.8 2.4c2.3 3.2 5 6 8 8.4 4 3 8.4 5.4 13.4 7.2.4 0 .8.3 1.2.4l2 .7 3.8 1 3.8.8c.3 0 .7 0 1 .2h1.6c.8.2 1.6.2 2.5.2h3c.3 0 .7 0 1-.2h1c1.7-.3 3.4-.5 5-1 3.3-.8 6.5-2 9.7-3.6l1-.5-1 .3-.7.3-1.6.5-.6.3-1.7.5-1.7.4c-.3 0-.6 0-1 .2h-.3c-.3.2-.6.2-1 .3l-1.4.2c-1.5.2-3 .2-4.6.3h-4.2c-.4 0-1 0-1.7-.2h-1.5l-1.5-.3c-.4 0-.7 0-1-.2h-.7l-2.3-.7h-.4l-1.6-.6-2-.7-2-.8-1-.5c-4.7-2-8.8-4.3-12.2-7.2-4-3.4-7-7-9.2-11-2.2-4-3.7-8.5-4.4-13.4-.7-4.5-.6-9.2.2-14 .6-4 2-8 3.8-12.7 1.7-4 3.8-7.7 5.6-10.7l1-1.4c.6-1.2 1.3-2.2 2-3.2l1.6-2 1.5-1.7 2.6-2.8-3 2.5-1.7 1.7-1.7 1.8-2.7 3-1 1-3.3 4.7-.6.8-.8-.6-1.7-1.5-.3-.3-1.5-1.6-3.2-3.4c-3-3.4-5.7-7-8.3-10.5-2.7-3.7-5-7.4-7.5-11.2-2.8-4.6-5-8.2-6.7-11.7-8.7-16.6-14.6-33.6-17.6-50.4-1.7-9-2.6-18-2.7-26.7 0-9 .7-18 2.2-26.8l.5-2.7.7-4 1.6-6.4 2-7.5 1.4-5.6 1.7-6.7 1.6-6.6 1-4 2.2-9.2c2.4-10 4.7-20.5 7-32v-.4h.6c1.6-.8 3.2-1.8 4.8-3 1.7-1.3 3.4-2.8 5-4.5l1.5-1.7.8-.8.7-.8c.5-.6 1-1 1.2-1.6l.3-.4.6-.8.7-1v-.3c.5-.5.8-1 1.2-1.6l.5-.8 2-3 1-2c3.3-5.8 6.4-12 9-18.3 2.2-5 4-10 5.8-14.7-1.8 4-4 8.7-7 14-2.7 5.3-6 11.4-10.2 17.7-2 3-4.3 6.2-6.8 9.3l-1.2 1.5-.7 1-.7.6-1.5 1.5c-1.4 1.5-3 2.7-4.4 3.7h-.2c-2.2 1.6-4.4 2.6-6.6 3-1.2.4-2.3.5-3.5.5h-1c-1.7 0-3.6-.5-5.7-1.4-2-.8-3.8-2-5.6-3l-5.2-4.3-1.2-1.2-1.2-1.2-2.2-2.5c-3-3.4-5.8-7-9-11.3-6.3-9-11.4-17-15.3-24.8-2.4-4.6-4.2-9-5.6-13.3-1.7-5.2-2.3-9.7-1.8-13.6.3-2.2 1-4.3 2-6.2 1-1.8 2.5-3.5 4.4-5 1.7-1.2 3.7-2.2 6-3l3.4-1 1.7-.4 1.7-.5c4.4-1.3 8.7-3 13-5 4.2-2 8.2-4 11.7-6.2 4-2.3 7.5-4.6 10.5-7 .3 0 .7-.4 1-.6l1.4-1 .4-.5 1.8-1.6 4.3-3.8c3.8-3.7 7-7.3 10.2-11l3.7-4 1.8-2L395 79v-4.6c0-1-.2-2.2 0-3.2 0-2 .3-4.3 1-6.6.5-2.4 1.4-4.7 2.2-6.4 1-2 2-4 3.5-6l1.6-2 .5-.5.5-.5c.6-.7 1.2-1.4 2-2 1.3-1.4 3-2.8 5.3-4.3 1.7-1.2 3.7-2.3 6-3.2 2.5-1 4.7-1.4 6.8-1.7l4-.2c1 0 2 0 2.8.2.7 0 1.5.2 2.2.4.3 0 .7 0 1 .2l1.7.5 1.8.7c4 1.6 8 4.2 11 7.4l1 1c.4.5 1 1 1.3 1.6l2.2 2.6 3.6 4.7.5.6c11.5 15.5 22 29.5 31.6 44 11 16.3 20.3 31.4 28.2 46 8.4 15.6 16 32.2 22.4 49.5 6.2 17 11.3 34.4 15 52 2 8.5 3.4 17.2 4.8 26.8l1.4 11.4.2 2 .6 6.7.3 4.2v2.5c.6 9 .8 18.2.6 27-.2 9-.8 18-1.8 27s-2.4 18-4.2 27c-1.8 8.4-4 17.2-6.7 26-3.8 10.4-6.3 21.5-8 35-1.5 11.2-2 23-1.4 36 .2 5.3.7 11.2 1.6 17.8.7 5.6 1.8 11.4 3.3 17.7 1.3 5.3 3 11 5.3 17.3l1.2 3 .7 1.7 1.5 3.7 3.6 8 1.8 4.2c4 9.4 8.4 19 12.4 28.6 2.4 5.8 4.6 11 6.7 16.5 2.3 6 4.3 11.3 6 16.7 4.5 13 7.2 24 8.5 34.3 1.8 12.4 1.4 24-1 34.7-1.3 5.2-3.3 10.6-6 16.3l-1 2-1 1.2-1.3 2.4-1.3 1.8-2.4 3.6-1.6 2.2-1 1.3c-8.4 10.4-16.4 19-24.6 25.8-5 4.4-9.8 7.8-14.4 10.4-3 1.7-5.6 3-8.2 3.7-1 .2-2.5.6-4 .6h-.4c-.8 0-1.6-.3-2-.6-.7-.4-1-1-1-1.8-.2-1 .2-2.5 1-4.2.7-1 1.5-2.3 2.6-3.6l.7-.8 2-2 .3-.4 1-1 2.2-2v-.3c0-.2 0-.2.2-.3v-.2l3.3-3.2 1.2-1 4.8-5 3-3.2c.6-.4 1-1 1.5-1.5l1.4-1.6c.4-.6 1-1 1.3-1.6 2.8-3.4 5-6.6 7-9.8 1.8-3.3 3.2-6.6 4.2-10l.5-.5c0-1.2.4-2.5.7-3.7 0-1 .4-2 .5-3 0-.8 0-1.6.2-2.4v-1c.3-4.5 0-9.5-1-15l-2.4-9-.7-2-.5-1.4c0-.3 0-.5-.2-.8l-1.5-4.2c-1-2.8-2-5.6-3.3-8.4-.6-1.4-1-2.8-1.7-4-.6-1.4-1-2.7-1.7-4l-.3-.6c-.5-1.3-1-2.5-1.7-3.7l-1.4-3-.7-1.5-2-3.8c-.5-1.3-1.2-2.5-1.8-3.8-3.3-6.4-6-11.4-8.7-16-1-1.5-1.8-3-2.7-4.6v-.2l-1-2-.2-.5-1.3-2.6-.6.3-.4-.8-3-4.6c-7-12.2-13.2-24.7-18.8-37.3l-.4-1c-1.2-2.7-2.5-5.6-3.6-8.6l-1-2.3-.7-2.4c0-.6-.3-1.2-.5-1.8l-.2-.6-.7-2.6c-.5-1.6-1-3.4-2-5.2-.7-1-1.2-1.7-2.4-2.4-.5-.3-1-.4-1.6-.4h-.6c-1 .3-1.5.7-1.8 1-1 1-1.3 1.8-1.8 2.8l-.8 2.7c-.4 1.6-.6 3.4-.7 5.3-.3 6.7.8 13.2 2 19.5l.2 1.5 1 5.2 1 5.4 2 10 5 20.2c1 3 2 6.2 3 10 1 3.6 2.2 7 3.2 10l.3.8c4.3 12.7 8.7 25.8 11.8 39 3.4 14.4 5 27.7 4.5 40.6-.4 13.7-3 27.2-7.7 40-2.6 7-5.2 13.2-8.2 18.8l-1.6 3.2-.7 1.3-.8 1.4-1.8 3-2.7 4.4c-.8 1.3-1.6 2.6-2.2 4l-.4.7c-3.4 6.2-6.2 12.7-8.7 19.2-.8 2-1.5 4.3-2.2 6.4l-1 3.2c-1 3.5-1.8 7-2.5 10.7l-.3 1.7-.4 3c-.7 5.3-1 10.8-.5 16.2l.6 5 .5 5.3v2.6c0 1-.2 1.8-.5 2.5-.2.4-.5 1-1 1h.3zm-65.6-395.4l-.5 1.3c-.4 1-.7 2.4-1 3.7l-.2.6-.3 1.6-.2 1.2v1.2l-.3 1-.2 1.7v3l.3 2v1l.6 2.4v1c.2.2.3.6.4 1l.3 1c0 .4.3.8.5 1.2l.8 1.6.5 1 .5.6 1 1.6 1 1 .3.4 2 2 .8.8c.4.2.8.5 1 .8l.6.4.8.6.8.5 1.6 1h.2l1 .4.8.4 2 .8 1.4.6.4.2c.5 0 1 .2 1.3.3l2.8.7 1.2.2h7.7c5.7-1 11.3-3.4 16.4-7.2 2.5-1.8 4.8-4 6.8-6.4 2.4-3 4-5.4 5-7.8l.5-1v-.4l.7-1.5.5-1.5.3-1 1-3.6.5-4v-.8l.2-2.3v-1.6-1l-.2-1-.2-1v-1l-.3-1.3-.7-2.2-1-2.2c0-.5-.3-1-.6-1.3l-.4-.7-.6-1c0-.2-.2-.4-.4-.5l-.7-.8-1-1.2-1.3-2c-2.2-2-4.5-3.8-7-5l-.6-.3-1.3-.6-1.8-.7-1.3-.5-2.6-.7c-2.3-.4-4.3-.7-6.2-.7h-1.5c-1 0-2 .2-2.7.4h-1l-1 .3c-.2 0-.4 0-.7.2h-.6l-1 .4-1.7.6c-.3 0-.6.2-.8.3 0 0-.3 0-.4.2h-.4l-1.2.5-1.8.7h-.5c-1 .5-1.7.8-2.4 1.3l-.6.3-2 1.2c-1.5 1-3 2.2-4.2 3.4l-.7.7c-.8.8-1.7 1.7-2.3 2.6l-.4.5-1 1.2-1.7 2.7-.6 1-1 2-1.3 3.2z"/>
    <path class="st7" d="M439.5 504h-.7c-.5 0-1 0-1.4-.2l-2-.3c-.4 0-.7 0-1-.2l-1-.2c-1 0-2-.5-3-1-.2 0-.5 0-.8-.3l-1.7-.8-1.8-1c-2-1.3-4-3-5.7-4.5l-.7-.8c-.5-.5-1-1-1.5-1.8 0-.2-.2-.4-.3-.5l-.6-.8-.8-1.4c-2-3.6-3-7.4-3.2-11-.2-3.3.3-6.2.8-8.6v-.4l.6-1.8c0-.5.2-1 .3-1.4l.5-1.4v-.5c.2 0 .2-.3.3-.5l.2-1c-.2 0-.4-.4-.4-.8 0-.5.2-.8.5-1l.8-1.2c0-.3.4-.6.6-.8l.2-.3.3-.6c0-.2 0-.4.2-.7l.3-.5c0-.3.3-.5.4-.8 0-.3.3-.6.4-1l.4-.6 1.7-2.6.7-1 .4-.4 3-3.4 1.8-1.5.4-.3c.6-.6 1.4-1 2-1.5l.5-.3c.7-.6 1.6-1 2.4-1.5l.4-.2c.6-.3 1-.5 1.8-.7l1.6-.5c.4 0 .8 0 1.2-.2h.5l.7-.2 1.3-.2h.8c.7-.2 1.4-.2 2-.2h2.7l1.8.4 1.5.3h.3c.3 0 .5 0 .7.2.4 0 .8.2 1.3.4 5.5 2 10.2 5 13.7 8.7 4 4.2 6.4 9.7 7 15.4.2 2.7 0 5.7-.5 9 0 1-.4 2-.7 3 0 .5-.2 1-.3 1.2 0 .4-.3.8-.4 1.2l-.3 1-.4.8-.2.2v.8h-.2c-1 2.6-2.4 5-4.5 8l-1.3 1.7-1 1.2c-.3 0-.4.2-.6.4-.7.8-1.5 1.6-2.4 2.3l-1 .7-1 1c-.3 0-1.7 1-1.7 1l-1 .6c-.3 0-.6.3-.8.4l-1.3.7-1 .5-1 .5c-3.5 1.3-6 2-8.6 2h-2zM430 458c4.4 12.3 15 26 17.2 29 2.7-1 6-3.4 7.6-4.5-4.8-6.8-14.3-26.3-16.5-30.7-4 2-7.2 5-8.2 6.2z"/>
    <path class="st8" d="M474.6 465.3V464l-.3-1c-.2-1-.2-1.7-.5-2.5l-.7-2.3-.8-2.2-1-2-.7-1-.7-1-1.4-2-1.6-1.7c-2.2-2-4.7-4-7.2-5.2-.7-.2-1.3-.6-2-1l-2-.7-1-.4v-.2h-.3l-.6-.2-2-.6c-2.7-.6-5.4-1-8-.8-1.2 0-2.4.3-3.7.4-.6 0-1.2.3-1.8.4l-1.7.5-1.6.6-1 .4-.7.3-3 1.2-3 1.3-2.5 1.6c-1.7 1-3 2.2-4.3 3.3-1.2 1.2-2.4 2.3-3.2 3.5-.4.6-1 1-1.3 1.6l-1 1.5-1 1.2c0 .4-.3.8-.5 1l-1 2.2-1 2c0 .4-.3.8-.5 1.2l-.5 1.4-1 3.8-.6 2.2-.3 1.2v1.3c-.2 1-.3 1.8-.3 2.8v3l.3 3.2.7 3.4c0 .5.4 1 .6 1.6l.7 1.7 1 1.7.4.8.6.8c.4.5.8 1 1 1.6l1.4 1.5c.8 1 2 2 3 2.8l1.5 1.2.8.6 1 .5 1.7 1 2 1 1.8.8 1 .4.5.2h.3l.2.2h.2c1.3.3 2.5.8 4.2 1l1.2.2h1l2.4.2h2.3l1.2-.2c.4 0 .7 0 1-.2 6-1 12-3.5 17-7.2 2.4-2 4.7-4 6.7-6.5s3.7-5 5-8l.5-1.2v-.2l.2-.4.2-.6.7-2.2c.5-1.6 1-3 1.3-4.7.4-1.6.5-3.2.7-4.8v-2.4-2zm-4.2 9c-.2 1.4-.6 2.7-1 4l-.7 2.3-.2.6-.3.3h-.3v.2l-.2 1c-1 2.8-2.6 5.3-4.4 7.6L462 492l-1.5 1.6-3.3 3-1.8 1-1 .7-.8.5-2 1-2 1c-2.6 1-5.3 1.7-8 2h-4l-2-.4c-.3 0-.6 0-1-.2l-.8-.2c-1-.2-2.5-.8-3.7-1.3l-1.5-.8-1.6-1c-2.3-1.2-4-2.8-5.7-4.3-.7-1-1.6-1.6-2-2.5l-1-1.3-.8-1.4c-2-3.6-3-7.2-3-10.5-.2-3.3.4-6.3 1-8.7l.7-3.2c0-.4.2-.8.4-1.2 0-.4.3-.8.4-1.2l.5-2h-.2c0-.3.5-1 1-2l.4-1 .6-1 .7-1.5 1-1.5c.5-1 1.4-2.2 2.2-3.5 1-1.2 2-2.5 3.3-3.8.6-.7 1.4-1.2 2-1.8l2.5-1.7c.8-.6 1.8-1 2.7-1.6l1.5-.5 1.6-.5c.5-.2 1-.2 1.7-.3.6 0 1-.3 1.7-.3 1.2 0 2.3-.3 3.5-.2h1.8l1.8.4c.6 0 1.2.2 1.8.4l2 .5c4.7 1.8 9.5 4.5 13.2 8.5 3.7 4 6.2 9 6.7 14.8 0 2.7 0 5.6-.6 8.4z"/>
    <path class="st8" d="M456.2 483s-5.6 4-9.3 5.4c0 0-13.3-16-18-30.4 0 0 4-5 9.8-7.3 0 0 12.4 25.8 17.4 32.3z"/>
    <path class="st8" d="M603.4 624c-.7-3.2-1.6-6.7-3-10-1.2-3.5-2.6-7-4.3-10.4-1.5-3.4-3.4-6.8-5.3-10.2-3.8-6.7-8-13-12-19l-9-13.7-6-13-3.8-8c-1.4-2.8-2.5-5.5-3.7-8.2l-1.6-4-1.6-4.2-1.4-4-1.4-4.3c-3.6-11.2-6-22.8-7.2-34.7-1-11.8-.8-23.8.7-35.5.7-6 1.8-11.7 3.2-17.5 1.3-5.8 3-11.5 5-17 2.8-8.8 5.3-17.5 7.4-26.4 2-9 3.7-18 5-27 1.2-9 2-18 2.5-27.3.3-9 .2-18.3-.2-27.4-1-18.2-3.8-36.4-7.8-54.2-1.4-6-2.8-12-4.8-17.8.5 0 .7 0 1-.2l.3-.2c.6-.3 1.5-.5 2.2-1 1.6-.6 3.5-1.7 5.5-3.3 2-1.6 4-4 5.3-7l1-2.4c0-.7.3-1.6.4-2.5v-5.3c-.6-3.6-1.8-7-3.4-10.3-3.2-6.7-8-12.7-12.8-18.3-2.4-2.8-5-5.5-7.5-8.2l-7.5-7.6-13.2-13.5c-1.3-1.4-2.7-2.7-3.7-4l-.4-.6c-8-16.5-17-32.4-26.8-47.7-10-15.3-20.8-30-33.4-43.4l-4.8-5-2.5-2.4c-.8-1-1.7-1.6-2.6-2.3-3.7-3-8-5.2-12.5-6.5l-1.8-.4-1.7-.4c-1.2 0-2.3-.4-3.5-.4-2.3-.2-4.7 0-7 .4-2.2.4-4.4 1-6.5 2-2 .8-4.2 1.8-6 3-7.8 5-13.8 12.7-16.6 21.6-.8 2.2-1.3 4.5-1.6 7-.2 1-.2 2.2-.2 3.4v3.4l-.2 2.8c-1 .8-1.8 1.7-2.7 2.6-4.3 4.4-8.8 9.5-14.4 14.4l-4.5 3.6-2.3 1.7c-.8.6-1.6 1-2.4 1.7-3.3 2.3-6.8 4.4-10.6 6.4-3.7 2-7.7 4-11.8 5.6-4 1.7-8.4 3.2-12.8 4.3-.6 0-1 .3-1.7.4l-1.8.2c-1.2.2-2.4.5-3.7 1-2.4.6-5 1.6-7.2 3-2.3 1.4-4.4 3.4-6 5.7-1.6 2.3-2.7 5-3.2 7.7-1 5.5-.4 11 .8 16 1.2 5.3 3 10 5.2 15 2.2 4.6 4.7 9 7.4 13.4s5.6 8.6 8.6 12.6 6.2 7.8 9.5 11.5c.8 1 1.7 2 2.6 2.8l1.5 1.4.7.6.7.6c1.8 1.6 3.8 3.2 6 4.6 2 1.4 4.3 2.6 6.8 3.5 2.5 1 5 1.5 7.8 1.5h2.8c-2 9.5-4.4 19-6.8 28.6-1 4.4-2.2 8.8-3.3 13l-1.7 6.7-1.8 6.6-3.5 13-1.6 6.8c-.5 2.3-1 4.5-1.3 6.8-1.5 9-2.3 18.4-2.2 27.7 0 9.2 1 18.5 2.7 27.6 3.2 18 9.3 35.7 17.6 52.2 4 8.3 8.7 16.3 13.7 24 2.5 4 5 7.7 7.8 11.5l8.3 10.7c-1.3 3-2.3 6.3-3 9.8-1.2 5-1.5 10.2-.8 15.5.6 5.3 2.4 10.6 5 15.3.2 0 .3.3.4.4l-.2.4c-.8 2.4-1.8 6-3 10.4l-4 16.2-2.3 10-1.4 5.3-1.4 5.6c-2 7.6-4.7 15.7-7.8 24.3-3 8.5-6.7 17.4-10.7 26.5l-6 14-6.6 14-3.3 7.2-3.2 7.3-3 7.4c-1.2 2.3-2 5-3 7.4-4 10-7.3 20.3-9.4 30.8-1 5.3-1.8 10.6-2 16 0 5.2.5 10.5 1.6 15.6l1 3.7c.2 1.2.4 2.4.8 3.7.4 1.3.7 2.5 1.4 4l.7 1c.2.4.5.8 1 1.2.7.4 1.8.6 2.6.4.8-.2 1.3-.7 1.6-1 .7-.7 1-1.3 1.4-2l.8-1.8c.4-1.2.8-2.4 1-3.6l1-3.3 1-3c1.7-4.3 3.5-8.4 5.3-12.2 1.8-4 3.8-7.5 5.7-11 2-3.5 3.8-6.7 5.8-9.7l3-4.2 3-4c3.7-5 6.8-9.4 9.3-13-.6 4.5-1 9-1.4 13.8V687l.4 5.3.6 5.3c1 7 2.6 14 4.8 20.8 2 6.8 5 13.3 8 19.7 3 6.4 6.4 12.5 10.2 18.4 3.8 6 8 11.7 12.3 17.2 4.4 5.4 9 10.7 14 15.7 8.8 9.2 18.5 17.5 29 25l.6 4.3c.2 1.7.5 3.4 1 5.2.3 1.7.7 3.5 1.2 5 1 3.5 2.2 6.8 3.5 10 1.3 3.2 2.8 6.4 4.4 9.6l2.7 4.6 3 4.4c.6.7 1.2 1.4 2.2 2 .4 0 1 .4 1.8 0 .7-.2 1-.8 1.3-1.2.5-1 .6-2 .7-2.8V853 848l-.2-5c0-5 .8-10 1.8-14.7l2.6 1.2 5 1.8 5 1.5c1.6.5 3.3 1 5 1.3 1.7.4 3.4.8 5.2 1 1.8.4 3.5.7 5.5.7.5 0 1 0 1.6-.2l1-.3c.2-.2.7-.5 1-1v-1.5c0-.4-.2-.7-.4-1l-1-1.2c-1.3-1.4-2.7-2.5-4-3.6l-4.5-3-2.2-1.4-1-.7-1.2-.7-8.4-6-4-3.3-.8-.6 3-8c2.6-6.2 5.6-12.4 9-18.3l2.6-4.3 3-4.4 2.7-4.5c1-1.5 2-3 2.8-4.6l2.5-4.8 2.3-4.8 2.2-5 2-5c2.5-6.5 4.5-13.4 6-20.5 1.3-7 2-14.2 2.3-21.4.3-6.8 0-13.5-1-20.2 1-.8 1-1.7 1.5-2.7 1-1.6 1.6-3.4 2.4-5.5l1.2-3.2c.4-1 1-2.2 1.3-3.5l2.3-7.6 1.8-8.4.6-4.4.5-4.4c0-1.5.2-3 .3-4.4v-2.2-2.2-4.3l-.3-4.2c-.2-2.7-.7-5.3-1-7.8 1 2.5 2.3 5 3.4 7.6 4.7 10.3 9 21 12.6 31.5l.5 4.6c.2 1.2.2 2.3.2 3.5v6.9l-.2 1.7-.2 1.7-.5 3.5-.8 3.3c0 .6-.2 1-.4 1.7l-.4 1.7-1.2 3.3-1.4 3.2c-.6 1-1 2-1.7 3l-1 1.4-.4.7-.6.7-1 1.4-1.3 1.3-1 1.2-1.4 1c-1 .8-1.8 1.5-2.7 2l-.2.2-1 .7c-.2.2-.5.5-.7 1v1.3c.2.4.5.7.7.8.5.4.8.6 1.2.7l2 .4c.7.2 1.4.2 2 .2h2c.7 0 1.3 0 2-.2.7 0 1.3-.2 2-.3.7 0 1.3-.2 2-.4l2-.5 2-.7 1.8-.7 1-.5-1 2c-2.5 5-6 10-9.7 14.4-3.7 4.5-8 8.7-12 13l-3 3.4c-1 1-2 2.3-3 3.5-1 1.3-2 2.6-2.6 4l-1 2.3c0 .8-.3 1.7-.2 2.7 0 1 .7 2 1.6 2.6 1 .5 1.8.7 2.7.7 1.7 0 3.2-.4 4.7-.8 3-1 5.7-2.3 8.3-3.8 5.3-3 10.2-6.5 15-10.2 4.6-3.7 9.2-7.6 13.6-11.7 4.5-4 9-8.2 13-12.7 8.4-8.8 14.5-20 17.5-32 3-11.7 3.8-23.8 1.7-35.5 1-.7 1.2-1.6 1.6-2.8.4-.8 1-1.7 1.2-2.8l.6-1.7.3-1v-.8c.3-1.2.7-2.5.7-4 0-.6 0-1.3.2-2v-2.2l-1.6-10.2zm-79-473.5c0 .2.4.5.6.7l12.3 14.2 6.8 8c2.4 3 4.6 5.8 6.7 8.7 4.2 6 8 12.2 10.7 18 1.2 3 2.2 6 2.4 8.7.3 2.7 0 5.2-.8 7.2s-2 3.6-3.4 5-2.8 2.5-4 3.3c-.7.5-1.3 1-2 1.2-3-10-6-20-9.7-30-6-15-12.8-30-19.7-45l-.3-.6.3.5zm-68 576.2v11l.5 10.3c0 1.6 0 3.2.2 4.7 0 1.5.2 3 .3 4.4l.7 8 .7 6v1.3c0 1.5-.5 3-.7 4.6l-.3 2c-2.3-3.8-4.4-7.5-6.4-11.3l-2.3-4.6-2-4.6c-.8-1.5-1.4-3.2-2-4.7l-1-2.4-.7-2.4c-4.6-13-7.2-26.6-8.3-40.2-1-13.7-.8-27.5 1.2-41 .5-3.4 1.2-6.7 2-10l1.8-10.4 3.3-20.7c1-7 2-13.8 2.6-20.8l1-10.6c0-1.8.2-3.5.3-5.2l.2-2.6c0-.8 0-1.7.2-2.5 0-.7.2-1.5.4-2.2v-.4l.4 1v2.3c0 1 0 1.8.2 2.7 0 1.8.2 3.5.3 5.3.5 7 1.5 14 2.6 21 1 6.8 2.4 13.7 4 20.5.7 3.4 1.6 6.8 2.5 10.3l2.7 9.4-.6-.2-.2 1.4c0 1-.3 2.2-.5 4-.5 3.2-1 8-1.6 13.6l-.7 9.2c-.2 3.3-.5 6.7-.6 10.3 0 3.6-.3 7.3-.4 11 0 2 0 3.8-.2 5.7v5.7c-.2 3.5-.2 7.3 0 11zM461 748l.4-10.3.4-11 .6-11c0-2 .2-4 .3-5.8 0-2 .3-3.8.4-5.7l1-11 .7-10 .8-9.2v-1.4c.3 1 .5 1.7.6 2.6 1.5 6.7 2.5 13.4 3 20 .7 6.8 1 13.5.8 20.3-.2 6.8-1 13.7-2.3 20.5-1.3 6.8-3 13.5-4.7 20.3-.7 2.8-1.8 5.6-1.8 8.4V757v-9zm28 69l4.3 3 4.4 3c.4 0 .7.4 1 .6l1.2.7 2 1.4 4.3 3c1.3 1 2.7 2 3.7 3l.6 1h-1c-1.5 0-3.3-.2-5-.6-1.6-.2-3.2-.6-5-1l-5-1.3-4.8-1.5-4.8-1.8c-1-.5-2-1-3-1.3l.6-2.6c.7-3 1.5-5.7 2.3-8.5l4 3zm42-175.8c0 1.4 0 2.8-.2 4.2l-.6 8.4c-.4 2.8-.8 5.5-1 8l-1.6 7.6-.8 3.5-1 3-1.2 5c-1-6-2.2-12-3.7-17.8-3.7-13.7-9-26.8-14-39.7l-3.5-9.7-1.7-5-1.6-4.8c-2-6.6-4-13.3-5.5-20-1.6-6.7-3-13.5-4-20.4-1-6.8-1.6-13.8-1.2-20.3 0-1.6.3-3.2.7-4.7.2-.7.4-1.5.7-2 0-.6.3-1 .6-1.3l.6.8c.7 1.2 1.3 2.8 1.7 4.3 0 .8.4 1.6.6 2.5.3 1 .5 1.8 1 2.6l1 2.5 1 2.3c1.3 3.2 3 6.4 4.5 9.5l10 18.4 10.2 18.3 2.7 4.5-.6.3.4 1 1 2.6c0 .5.3 1 .5 1.8l.6 2.3c0 1 .3 1.8.6 2.7l.7 3 .6 3c0 1.2.4 2.4.5 3.6 0 1.2.3 2.4.5 3.7l.4 3.8c0 .7 0 1.3.2 2l.2 2c0 1.3 0 2.7.2 4v4.4zm22 64.7l-1.4 1-1.5 1-1.5.7c-.5.3-1 .4-1.7.6l-1.8.5-1.8.4-1.8.3h-3.7c-.6 0-1.2 0-1.7-.2h-.3c0-.2 0-.2.2-.3 0-.2.3-.3.5-.5l3-2.2 1.4-1.2 1.2-1.2 1.2-1.4 1-1.4.7-.7.6-.8 1-1.5c.7-1 1.2-2 2-3l1.5-3.4c.6-1 1-2.3 1.5-3.4l.6-1.7.6-1.8 1-3.5.7-3.6c0-.6.3-1.2.4-1.8l.2-1.8.3-3.4c.6 2 1 4.2 1.5 6.3 1 5.5 1.6 11.2 1 17 0 2-.4 4-.8 5.8 0 .4-.4.8-.6 1l-1 1.5-1 1.3-1.4 1.3zm39-21.2c-1.2 5.6-3.3 11-6 16l-1 2-1 2-1 1.8-1.2 1.8-2.4 3.6-2.6 3.4c-7.4 9.2-15.4 18-24.4 25.8-4.5 3.8-9.3 7.4-14.4 10.3-2.5 1.4-5.2 2.7-8 3.6-1.4.5-2.8.8-4 .7-.7 0-1.3-.2-1.7-.4-.4-.3-.5-.6-.6-1 0-1 .5-2.5 1-3.7l2.5-3.5.7-.7c.4-.6 1-1 1.4-1.5.2-.3.5-.7.8-.7l1-1 2-2c.2 0 .4-.4.5-.6 1-1.3 2-2.2 3-3.2l1.3-1 4.8-5 3-3.2 1.6-1.7c.4-.5 1-1 1.3-1.5.4-.5 1-1 1.3-1.5 2.5-3 5-6.4 7-10 1.7-3 3.2-6.5 4.2-10h.5c0-2.4 1-5 1.4-7.5l.4-3.2c.3-5.2-.2-10.4-1.2-15.4-.6-3-1.4-6-2.3-9l-.8-2.2-.8-2.2-1.5-4.2c-1-2.8-2.2-5.6-3.4-8.4-.6-1.4-1-2.8-1.7-4.2-.7-1.3-1.2-2.6-1.8-4l-.3-.6-1.8-3.6-1.5-3-.7-1.5-2-3.8c-.5-1.3-1.2-2.6-2-4-2.7-5.2-5.5-10.5-8.5-15.7-1-1.6-2-3.2-2.8-4.8l-3.6-6-3-4.6c-6.8-12-13-24.4-18.7-37-1.4-3.2-2.8-6.3-4-9.5l-1-2.5-.7-2.4-.7-2.3-.8-2.5c-.5-2-1-3.6-2.2-5.5-.6-1-1.2-2-2.7-2.8-.7-.5-1.8-.8-3-.6-1 .2-1.7.7-2.2 1.2-1 1-1.5 2-2 3l-.8 3c-.4 1.8-.6 3.7-.7 5.5-.2 7.5 1 14.4 2.3 21.3l1 5.2 1 5 2 10.4c1.5 6.7 3.2 13.5 5 20.3l3 10c1 3.4 2 6.8 3.2 10 4.5 13.3 9 26.4 12 39.7 3 13.3 5 27 4.5 40.4-.4 13.5-3 27-7.6 39.7-2.4 6.5-5 12.8-8.2 18.8l-2.4 4.5-2.5 4.5-2.8 4.4-2.7 4.7c-3.3 6.2-6.2 12.6-8.6 19.3-1 2-1.6 4.3-2.3 6.5l-1 3.2c-1 3.5-2 7-2.6 10.8 0 .6 0 1.2-.2 1.8l-.4 3c-.7 5.4-1 11-.5 16.4l.5 5.3.6 5c.2 1 0 1.8 0 2.6 0 .7 0 1.6-.3 2.2 0 .3-.3.5-.4.6 0 0-.4 0-.6-.2-.6-.3-1.2-1-1.7-1.6-2-2.6-3.8-5.7-5.3-8.8-1.5-3-2.8-6.3-4-9.6-1.2-3.2-2.2-6.5-3-10-.4-1.6-.8-3.2-1-5l-.7-5c0-.5 0-1-.2-1.6l-.4-4c-.4-5-.6-10-.5-15 0-2.5 0-5.2.2-7.8 0-1.8.4-6.5.4-6.5l.6-6.2c.8-7 1.8-13.7 3.3-20.5 1.5-6.8 3.4-13.4 5.3-20.2 1.8-6.7 3.8-13.5 5-20.5 1.5-7 2-14.2 1.5-21.4-.5-7.3-1.7-14.4-3.6-21.2-1.6-6-3.5-11.6-5.7-17.3v-1h-.4l-.7-1.8-2-5-2-4.8-3-10c-2-6.5-3.3-13.3-4.4-20-1-7-1.7-13.8-2-20.7-.2-1.7-.3-3.4-.3-5.2v-2.4-1.4c0-.5 0-1-.2-1.5 0-1-.3-2-1-3-.4-.6-.7-1.3-1.8-1.8-.5-.3-1.3-.4-2-.2l-.7.4-.6.5c-.7.6-1 1.2-1.2 1.7l-.5 1.5-.6 2.7c0 1-.2 1.8-.3 2.7l-.2 2.6c0 1.7-.3 3.5-.4 5.2l-1 10.3c-.8 7-1.7 13.8-2.8 20.6-1 7-2.2 13.8-3.5 20.6l-2 10.2c-.7 3.4-1.5 6.8-2 10.3-1.2 7-2 14-2 21.2-.3 7-.2 14 .4 21 1 14 3.8 28 8.5 41.5 2.3 6.7 5 13.2 8.5 19.4 3 5.6 6.2 10.8 10 15.8-1 8.2-1 16.4-.2 24.6-3.8-2.8-7.4-5.8-11-9-5-4.4-10-9.2-14.7-14.3-4.6-5-9-10.2-13.2-15.7-4.2-5.5-8-11.2-11.7-17-3.5-5.8-6.7-12-9.6-18-3-6.3-5.4-12.7-7.4-19.2-2-6.4-3.5-13-4.4-19.8l-.5-5v-6.6-1.2-2.5-5.2c.5-6.8 1.4-13.6 2.5-20.4l1-5.2 1-1.4-.7-.3 3-13.2 2.5-10c1-3.3 1.8-6.7 3-10l1.4-5 .4-1.2.3-.5v-.4l.2-.2.7-2.6 2.3-10.3c1.4-7 2.5-14 3.2-21 .7-7 1-14 0-21h-1c0 7-1 14-2 20.7-1.3 6.8-3 13.5-4.6 20.2l-2.6 10-.7 2.4v.3l-.2.2-.2.5-.4 1.2-1.8 5-1.6 5-1.5 5-2.7 10-3.3 14.7-.4.7c-1.2 2.3-3 5.4-5.4 9.4-2.4 4-5.3 8.8-9 14-.8 1.5-1.7 2.7-2.8 4.2l-3 4.5c-2 3.2-3.8 6.6-5.7 10.2-3.7 7-7.5 15-11.2 23.3-1.8 3.7-2.7 8.7-4.5 11.4-.3-1-.6-2-.7-3l-.5-3.6-.3-3.6c-.4-4.8-.3-9.7 0-14.6 0-1.2 0-2.5.2-3.7 0-1.2.3-2.5.4-3.7l.6-3.7.6-3.7c1.8-10 4.7-20.2 8-30l2.7-7.5c.8-2.5 1.8-5 2.7-7.4l6-14.5 6.4-14.3c2.2-4.7 4.3-9.3 6.3-14 4-9 8-17.8 11.5-26.3 1-2 1.7-4.3 2.5-6.3l2.3-6 2-6.2 1.8-6c2.3-7.6 4-14.8 5.2-21.2 1.3-6.4 2.2-12 2.6-16.7.4-3.5.5-6.3.6-8.6 2.4 3.3 5.2 6.2 8.3 8.6 4.3 3.2 9 5.6 13.6 7.4 1.2.4 2.4 1 3.5 1.2l3.5 1h.8l1 .2 1.7.3 1.8.4h1.7c2.3.4 4.5.2 6.6 0 2.2-.2 4.3-.4 6.2-1 3.8-.8 7.2-2 10-3.6 2.8-1.4 5-3 7-4.3 1.7-1.3 3-2.5 4-3.4l1.2-1.2-1.5 1c-1 .8-2.5 1.7-4.5 2.8-2 1-4.3 2.2-7.2 3.3l-2.2.7-2.3.7-2.5.5c-.4 0-1 0-1.3.2l-1.4.2c-1.8.3-3.7.4-5.7.5l-3-.2h-1.6l-1.5-.3c-.6 0-1 0-1.6-.2l-1.6-.3c-.5 0-1-.2-1.6-.4l-.8-.2h-.4l-.3-.2-3.3-1c-1-.5-2-1-3-1.3-4.2-1.8-8.4-4.2-12-7-3.5-3-6.6-6.6-9-10.7-2-4-3.5-8.6-4.2-13.2-.6-4.5-.5-9 .3-13.6.7-4.4 2-8.6 3.7-12.5 1.6-4 3.6-7.4 5.6-10.6l3-4.4 1.6-2 1.5-1.8 2.7-3.2 1.3-1.4 1.2-1.2c1.6-1.6 3-2.7 3.7-3.5.8-1 1.3-1.3 1.3-1.3l-1.6 1-2 1-2.4 1.7-1.4 1-1.6 1.2c-1 1-2.2 1.8-3.4 2.8l-1.8 1.6-1.8 2c-1.3 1-2.4 2.6-3.7 4-1.2 1.6-2.3 3-3.4 4.8-.8-.5-1.2-1-1.7-1.6l-4.7-5c-3-3.3-5.7-6.8-8.3-10.4-2.7-3.6-5-7.3-7.5-11-2.3-4-4.6-7.8-6.6-11.7-8.2-15.7-14.4-32.6-17.5-50.2-1.5-8.7-2.3-17.6-2.4-26.5 0-9 .7-17.7 2.2-26.5l1.2-6.5 1.6-6.5c1-4.4 2.3-8.8 3.4-13.2l1.7-6.6 1.6-6.6 3.2-13.3c2.5-10.5 4.8-21.2 7-32 2-.7 3.6-1.8 5-3 2-1.3 3.7-3 5.2-4.5l2.2-2.5c.6-1 1.3-1.8 2-2.6l.8-1.2c.3-.5.6-1 1-1.3l1.6-2.6 3-5c3.8-6.6 6.8-13 9.2-18.5 2.4-5.7 4.3-10.7 5.7-15 1.5-4 2.5-7.3 3.2-9.6l1-3.5-.5-.3-1.4 3.3-4 9.3c-2 4-4.2 8.7-7 14-2.8 5.4-6 11.4-10.2 17.6-2 3-4.3 6-6.7 9.2l-2 2.2c-.6.7-1.2 1.4-2 2-1.2 1.4-2.7 2.6-4.2 3.6h-.2c-2 1.4-4 2.4-6.3 3-1.4.2-2.7.4-4 .3-2 0-3.8-.6-5.6-1.3-1.8-.8-3.6-1.8-5.4-3-1.8-1.2-3.4-2.6-5-4.2l-.7-.6-.6-.6-1-1.2c-1-.8-1.6-1.7-2.4-2.6-3-3.5-6-7.3-8.8-11.2-5.6-7.8-11-16-15.3-24.7-2.2-4.4-4-8.8-5.5-13.3-1.4-4.4-2.2-9-1.7-13.3.2-2 1-4 2-6 1-1.7 2.4-3.2 4-4.4s3.8-2.2 6-3l3-1 1.8-.3 1.8-.5c4.6-1.4 9-3 13.2-5 4.2-2 8-4 11.8-6.3 3.7-2.3 7.2-4.7 10.5-7l2.5-2c.8-.5 1.5-1 2.3-1.8 1.5-1.3 3-2.6 4.3-4 5.6-5 10-10.5 14-15l1.8-2 3-3c.5-.3 1-.6 1.3-1 2-1.5 4.2-2.8 6.2-3.6 2-.8 4-1.2 5.6-1.3h2.3c.8 0 1.5 0 2 .2l1.5.2 1 .2h1-1c-.2-.2-.6-.3-1-.4l-1.5-.3-2-.2h-2.4c-1.7 0-3.7.3-5.8 1-2 .8-4.3 2-6.4 3.7l-.7.6v-3.5c0-1-.2-2.3 0-3.3 0-2 .3-4.3 1-6.5.4-2.2 1.2-4.3 2-6.3 1-2 2-4 3.5-5.7.6-1 1.4-1.8 2-2.6l2.4-2.4c1.6-1.6 3.4-3 5.2-4.2 2-1.2 4-2.2 6-3 2-1 4-1.5 6.3-1.8 2.3-.3 4.5-.4 6.7 0 1 0 2.2.3 3.3.5l1.6.5c.5 0 1 .3 1.6.5 4 1.6 7.8 4 10.8 7.2l2.2 2.4 2 2.7c1.5 1.8 3 3.6 4.2 5.4 11 14.6 21.6 29 31.6 44s19.7 30.2 28.3 46c8.6 16 16 32.5 22.3 49.4 6.3 17 11.3 34.3 15 52 2 8.7 3.5 17.6 4.7 26.5l1.6 13.3.5 6.7.5 6.7c.5 9 .7 18 .5 27-.2 9-.8 18-1.8 27-1 8.8-2.4 17.7-4.2 26.6-1.8 8.8-4 17.5-6.7 26-4 11.5-6.5 23.3-8 35.2-1.5 12-1.8 24-1.3 36 .2 6 .8 12 1.6 18 1 6 2 12 3.4 17.8 1.4 6 3.2 11.7 5.3 17.4.5 1.4 1 2.8 1.7 4.2.6 1.3 1 2.7 1.7 4l3.7 8.3c4.8 11 9.7 21.8 14.3 32.8 2.3 5.6 4.6 11 6.7 16.6 2 5.5 4.2 11 6 16.7 3.7 11.2 6.8 22.5 8.4 34 1.8 11.6 1.7 23.3-1 34.5zm8-51v2c-.2.5-.3 1.2-.3 1.8 0 1.2-.4 2.3-.6 3.4v.8c-.7-3.3-1.4-6.8-2.3-10-1.5-6-3-11.8-5-17.6-3.8-11.5-8.3-22.6-13-33.6l-3.6-8 2 3c3.8 6.2 7.7 12.7 11.2 19.4 1.8 3.4 3.4 6.7 5 10.2 1.4 3.4 2.7 6.8 3.8 10l1.4 5 1 4.8c.4 3 .7 6 .6 8.7z"/>
  </g>
</svg>
