<?xml version="1.0" encoding="utf-8"?>
<!-- Generator: Adobe Illustrator 19.1.0, SVG Export Plug-In . SVG Version: 6.00 Build 0)  -->
<svg version="1.1" id="expanded" xmlns="http://www.w3.org/2000/svg" xmlns:xlink="http://www.w3.org/1999/xlink" x="0px" y="0px"
	 viewBox="0 0 687.6 833.7" style="enable-background:new 0 0 687.6 833.7;" xml:space="preserve">
<style type="text/css">
	.st0{fill:#1E1E1E;}
	.st1{fill:#3A3A3A;}
	.st2{fill:#4CB9D3;}
</style>
<path class="st0" d="M381.6,99.1c0,0,16.5-31,17.5-54.8c1.1-25,14.1-69.7,57.4-11.5c44.6,60,12.5,132.5,12.5,132.5
	S383.7,130,381.6,99.1z"/>
<path d="M471.2,170.7l-3.8-1.6c-0.9-0.4-21.9-9.1-43.4-21.8c-29.9-17.6-45.6-33.7-46.5-48l-0.1-1.2l0.6-1c0.2-0.3,16-30.4,17-53
	c0.4-8.9,2.1-18,4.7-25c3.7-10,9-16.2,15.8-18.3c12.3-3.8,26.8,5.9,44.4,29.5c18.9,25.4,27.1,57.1,23.8,91.6
	c-2.5,26-10.5,44.2-10.8,45L471.2,170.7z M385.9,99.9c3.1,21.8,55.9,49,80.8,59.8c2.4-6.5,7-20.9,8.7-38.9
	c3.1-32.8-4.4-61.6-22.2-85.6c-14.6-19.6-27.1-29-35.2-26.5c-9.1,2.8-14,20.5-14.6,35.7C402.3,66.7,389,94,385.9,99.9z"/>
<path class="st1" d="M118,538.2c0,0-107.4-323.4,99.1-407.8S498.7,238.8,516.5,413c17.7,174.2-17.7,341.1-17.7,341.1
	s-3.1,80.3-98.1,75.1c0,0-42.8,6.3-41.7-39.6s4.2-85.5-33.4-64.7c0,0,18.8,88.7-31.3,98.1c-50.1,9.4-96,2.1-105.4-25
	C179.6,770.8,139.9,606,118,538.2z"/>
<path d="M395.6,833.7c-7,0-19-1.4-28.3-9.6c-8.7-7.7-12.9-19.3-12.5-34.6c0.1-2.5,0.1-5,0.2-7.4c0.7-25.6,1.3-52.1-7.7-57.6
	c-3.5-2.1-9.3-1.3-17,2.6c2.2,12.2,8.5,56.6-8.6,82.3c-6.4,9.6-15.4,15.5-26.6,17.6c-25.8,4.8-50.5,5.2-69.6,1.2
	c-21.5-4.6-35.5-14.6-40.5-28.9c-4-11.7-13.6-48.6-24.8-91.5c-15-57.7-33.6-129.5-46.2-168.3c-0.5-1.7-27.1-83-28.1-173.5
	c-0.6-53.7,7.7-100.1,24.7-138c21.4-47.7,56.7-81.8,104.8-101.5c68.7-28.1,127.9-27.7,176,1.2c92.7,55.6,120.7,202.4,129.1,284.9
	c17.2,169.2-16,333.5-17.7,342c-0.2,3.9-2.7,34.4-27,56.5c-18,16.4-43.2,23.9-75,22.2C400,833.5,398.2,833.7,395.6,833.7z
	 M342.8,715c3.3,0,6.2,0.8,8.8,2.3c13.2,8,12.5,33.1,11.7,64.9c-0.1,2.4-0.1,4.9-0.2,7.4c-0.3,12.7,3,22.2,9.7,28.2
	c10.8,9.5,27.1,7.3,27.2,7.3c0.3,0,0.6-0.1,0.8,0c29.6,1.6,52.9-5.1,69.3-20c22.9-20.9,24.3-50.8,24.3-51.1c0-0.2,0-0.5,0.1-0.7
	c0.4-1.7,35.1-168.3,17.7-339.8c-8.2-81-35.5-224.9-125.1-278.6c-45.7-27.5-102.5-27.7-168.6-0.6c-46.1,18.9-79.9,51.6-100.4,97.2
	c-16.5,36.8-24.6,82-24,134.5c1,89.7,27.4,170.2,27.7,171c0,0,0,0,0,0c12.6,39.1,31.3,111,46.3,168.8c11.1,42.6,20.6,79.5,24.6,90.8
	c5,14.4,21.4,20.7,34.3,23.5c18.1,3.9,41.6,3.4,66.3-1.2c9.1-1.7,16.1-6.3,21.2-14.1c17.6-26.4,6.9-78.5,6.8-79
	c-0.4-1.8,0.5-3.6,2.1-4.5C331.1,717.1,337.4,715,342.8,715z"/>
<path class="st1" d="M100.3,270.9c0,0-37.5-25.2,0-52.9s55.6-65,76-87.1c8.7-9.4,44.3-13.7,26.2,22.4c-3.4,6.8-13.5,17.4-34.4,33.4
	C145.4,204.1,116,227.9,100.3,270.9z"/>
<path d="M100.3,275.1c-0.8,0-1.6-0.2-2.3-0.7c-0.7-0.5-18.1-12.3-18.5-29.7c-0.2-10.7,5.9-20.8,18.4-30c24.4-18,40.3-40.2,54.4-59.7
	c7.2-9.9,13.9-19.3,21-26.9c6-6.5,22.5-11.5,32.2-4.8c5.7,3.9,10.4,12.7,0.8,31.9c-4.1,8.2-15.8,19.6-35.6,34.8
	c-25.6,19.6-51.7,42.1-66.4,82.4c-0.4,1.2-1.4,2.1-2.6,2.5C101.2,275,100.7,275.1,100.3,275.1z M193.7,128.5c-5,0-11,1.6-14.3,5.2
	c-6.7,7.3-13.3,16.4-20.4,26.1c-14.5,20-30.8,42.7-56.2,61.5c-10.1,7.5-15.2,15.3-15,23.1c0.2,8.5,6.4,15.6,10.7,19.6
	c17.2-42.5,48.2-66.3,67.1-80.7c23.1-17.7,30.8-27.2,33.2-31.9c3.1-6.3,7.6-17.4,1.9-21.3C199.2,129.1,196.6,128.5,193.7,128.5z"/>
<path d="M241.6,360.6c15.1-20.5,136.6-35.7,122.6,3.4c0,0-79.3-13.6-125.2,21.9C239,385.9,232.5,372.9,241.6,360.6z"/>
<path d="M239,390.1c-0.3,0-0.6,0-0.9-0.1c-1.2-0.3-2.2-1.1-2.8-2.2c-0.3-0.6-7.6-15.4,3-29.7l0,0c13.2-17.9,92.2-31.1,120.3-16.1
	c9.7,5.2,13.1,13.5,9.5,23.4c-0.7,1.9-2.6,3-4.6,2.7c-0.8-0.1-78-12.8-121.9,21.1C240.8,389.8,239.9,390.1,239,390.1z M323,343.8
	c-31.5,0-71.1,9.8-78,19.2l0,0c-4.4,5.9-4.4,12-3.7,16.1c14.4-9.7,38.7-20.1,77.4-21.7c19.4-0.8,35.4,0.9,42.4,1.8
	c0.5-4.2-1.6-7.4-6.4-10C347.3,345.4,335.8,343.8,323,343.8z"/>
<path class="st2" d="M339.3,340.7c0,0,6.1,13.3-2.7,42.5s23.8-1.8,27.6-19.3C368.9,342.6,339.3,340.7,339.3,340.7z"/>
<path d="M337.8,399.5c-2.4,0-3.9-1.1-4.7-1.9c-2.7-2.8-2.9-7.6-0.5-15.5c8.2-26.9,3-39.5,2.9-39.6l-2.7-6.2l6.8,0.4
	c0.7,0,17.8,1.2,25.6,11.5c3.5,4.7,4.6,10.3,3.2,16.8c-2.7,12.3-18.4,31.4-27.9,34.2C339.4,399.4,338.5,399.5,337.8,399.5z
	 M344.8,345.8c1.1,7.1,1.4,19.8-4.3,38.7c-0.9,3.1-1.2,5-1.3,6.1c5.6-2.8,18.6-17.3,20.9-27.6c0.9-4,0.3-7.3-1.7-10
	C355.5,349.2,349.6,347,344.8,345.8z"/>
<path class="st2" d="M260.2,350.8c0,0-3.4,19.5,8.1,41.9s-17.5,18.2-29.2-5.7C224.5,357.3,264.9,349.3,260.2,350.8z"/>
<path d="M264.5,411.5c-0.3,0-0.7,0-1,0c-8.8-0.5-21.3-8.5-28.3-22.7c-7.3-14.8-2.2-24.9,3.4-30.8c4.3-4.5,9.6-7.3,13.4-9
	c7.7-3.3,9.3-2.6,10.1-2.2l2.7,1.1l-0.1,2.9c0,0.4-0.1,1.2-0.6,2c-0.5,4.6-1.2,20.4,7.8,38c3.6,7,4.1,12.5,1.5,16.5
	C271.6,410,268.5,411.5,264.5,411.5z M255.5,356.6c-4.7,2-11,5.7-13.9,11.4c-2.5,4.9-2.1,10.5,1.1,17.1c5.8,11.9,16,17.8,21.3,18.1
	c1.2,0.1,2.1-0.1,2.4-0.5c0.4-0.7,0.6-3.2-1.9-8.1C256.5,378.9,255.3,364.6,255.5,356.6z"/>
<path class="st2" d="M435.6,298c0,7.3-2.1,13.3-9.6,13.3c-7.5,0-14.4-6-14.4-13.3s2.9-13.3,10.4-13.3
	C429.6,284.7,435.6,290.7,435.6,298z"/>
<path d="M426.1,315.5c-10.1,0-18.6-8-18.6-17.5c0-10.8,5.6-17.5,14.6-17.5c9.8,0,17.7,7.8,17.7,17.5
	C439.8,313.2,431.2,315.5,426.1,315.5z M422.1,288.9c-1.5,0-6.3,0-6.3,9.1c0,4.8,4.9,9.1,10.3,9.1c2,0,5.4,0,5.4-9.1
	C431.5,293,427.3,288.9,422.1,288.9z"/>
<path class="st2" d="M133.4,352.8c1.6,7.2,4.9,12.5,12.2,10.9s12.8-9,11.2-16.1s-5.8-12.3-13.1-10.7
	C136.5,338.5,131.8,345.6,133.4,352.8z"/>
<path d="M143.1,368.1c-4.9,0-11.1-2.6-13.8-14.4c-2.1-9.4,4-18.8,13.5-20.9c4.8-1.1,9.1,0,12.4,3.1c2.7,2.5,4.6,6.1,5.6,10.8
	c2.1,9.2-4.5,18.9-14.3,21.1C145.6,368,144.4,368.1,143.1,368.1z M146.4,340.7c-0.5,0-1.1,0.1-1.7,0.2c-5.1,1.1-8.3,6-7.2,11
	c2,8.9,5.3,8.2,7.3,7.7c5.2-1.2,9.1-6.5,8-11.1c-0.7-2.9-1.8-5.2-3.2-6.5C149,341.4,148,340.7,146.4,340.7z"/>
<path class="st0" d="M166.5,142.7c0,0-29.2,0.7-76.4-52.5c0,0-13.3-24.5-33.6,0S58.2,225.4,86,234
	C113.7,242.6,166.5,142.7,166.5,142.7z"/>
<path d="M89.5,238.7c-1.7,0-3.2-0.2-4.8-0.7c-15.4-4.8-25.7-32.3-30.5-48.3c-11.1-37.4-14.5-85.8-1-102.2
	c7.4-8.9,15.1-13.1,22.7-12.3c10.1,1,16.2,10.3,17.5,12.5c45.2,50.8,72.6,50.8,72.9,50.8l7.1-0.2l-3.3,6.3
	c-0.1,0.3-13.5,25.5-30.1,49.3C119.1,224,102.5,238.7,89.5,238.7z M74.2,83.5c-4.5,0-9.4,3.2-14.5,9.4c-10.2,12.3-9,55.5,2.6,94.4
	c7.1,23.8,16.6,40.2,24.9,42.7c9.1,2.8,25.9-12,45.9-40.8c11.9-17,22-34.7,26.8-43.3c-11.5-2.6-37.5-13-73-53l-0.3-0.4l-0.2-0.4
	c0-0.1-4.5-8-11.3-8.7C74.8,83.5,74.5,83.5,74.2,83.5z"/>
<path class="st2" d="M152.4,756.2c0,0-3.3-8.9-5.4-16.7c-2.1-7.8,10.3-19.8,15.9,1.5c0,0,3.6,13.6-0.6,24.6
	C158.2,776.5,152.4,756.2,152.4,756.2z"/>
<path d="M159.6,773c-0.1,0-0.2,0-0.3,0c-4.3-0.2-8-5.4-10.8-15.5c-0.5-1.3-3.5-9.5-5.5-16.9c-1.1-4.2,0.3-9.2,3.6-12.6
	c2.7-2.8,6.2-3.8,9.6-2.9c4.9,1.3,8.5,6.3,10.7,14.8c0.2,0.6,3.9,15-0.7,27.1C164.4,771.9,161.7,773,159.6,773z M153.9,733.2
	c-0.5,0-1.1,0.5-1.3,0.8c-1.2,1.2-1.8,3.2-1.5,4.5c2.1,7.5,5.3,16.3,5.3,16.3l0.1,0.3c0.7,2.5,1.7,5.2,2.6,7.1
	c2.6-9.2-0.2-20-0.2-20.1c-1.7-6.5-3.8-8.6-4.8-8.9C154,733.2,153.9,733.2,153.9,733.2z"/>
<path class="st1" d="M109.4,507.5c-12.3-49.2-31.2-149.3-9.1-236.6l0,0c0,0-122.1,323.6-91,482.2c16.9,86.1,103,78.7,134.3,58.6
	c23.8-15.3,20.8-34.1-9.9-84.8C99.7,671.1,100.2,577.1,109.4,507.5z"/>
<path d="M93.4,828.9c-12.8,0-26-2.2-38.1-7.4c-18.4-7.8-41.9-25.9-50.1-67.6c-13-66.4-1.6-168.2,33.9-302.5
	c26.4-99.8,57-181.2,57.3-182c0.8-2.1,3-3.2,5.2-2.5c2.1,0.7,3.3,2.9,2.8,5c-9.3,36.8-20.6,116.2,9.1,234.6c0.1,0.5,0.2,1,0.1,1.6
	c-5.8,43.9-15.1,153,23.7,216.8c29,47.7,37.1,72.1,8.6,90.4C133.3,823.3,113.8,828.9,93.4,828.9z M87.9,318.7
	c-11.2,33.2-26.6,81.4-40.7,135C23,545.1-2.5,671.2,13.4,752.4c6,30.6,21.2,51.3,45.2,61.5c30.6,13.1,66.8,4.6,82.8-5.6
	c22.5-14.4,16.6-33.3-11.2-79.1c-39.9-65.7-30.8-176.1-24.9-221.4c-6-24.2-13.9-61.7-17.4-103.9C85.2,373.5,85.3,345,87.9,318.7z"/>
<path class="st2" d="M143.2,773.5c0,0,6.7-9.5,9.3-17.3c2.6-7.8,31.4-2.1,3.2,35.5c0,0-6.4,7.3-19.4,8.6
	C123.2,801.6,143.2,773.5,143.2,773.5z"/>
<path d="M135.4,804.5c-4,0-5.9-2.1-6.7-3.5c-4-6.9,5.2-21.7,11.1-29.9c0.2-0.3,6.4-9.2,8.7-16.2c1.1-3.2,4.2-5.5,8.2-5.8
	c5.4-0.5,10.7,2.3,13.4,7.1c3.4,6.1,4.2,17.6-11.1,38l-0.2,0.2c-0.3,0.4-7.7,8.6-22.2,10C136.2,804.5,135.8,804.5,135.4,804.5z
	 M156.3,757.7c-2.8,8.3-9.5,17.8-9.8,18.2l0,0c-5.5,7.7-10.1,16.7-10.6,20.2c10.2-1.1,15.7-6.4,16.4-7.1c8-10.7,15.2-25,9.2-30.3
	C159.6,756.9,157,757.2,156.3,757.7z"/>
<path class="st2" d="M107.6,801.6c2.4,5.1,16.7,9.4,35.5-6.3c17.8-14.8-2.6-29.2-12-19.8c-9.4,9.4-19.8,12.5-19.8,12.5
	S103.2,792.2,107.6,801.6z"/>
<path d="M118.4,810.4c-1.7,0-3.4-0.2-5.1-0.5c-4.5-1-8-3.4-9.5-6.5l0,0c-4.5-9.6,0.8-16.6,5.5-19l0.3-0.2l0.4-0.1
	c0.1,0,9.6-3,18.1-11.5c3.9-3.9,9.4-5.2,14.9-3.5c5.7,1.7,9.9,6.1,11,11.5c0.7,3.6,0.6,10.6-8.3,18
	C141.1,802.4,130,810.4,118.4,810.4z M111.4,799.8c0.1,0.3,1.1,1.4,3.7,1.9c10.1,2.2,21.9-6.8,25.3-9.6c4.1-3.4,6-7,5.4-10
	c-0.5-2.3-2.5-4.3-5.2-5.1c-1.2-0.4-4.2-0.9-6.6,1.4c-9,9-18.8,12.6-21.1,13.4C111.6,792.7,109.1,795,111.4,799.8L111.4,799.8z"/>
<path class="st1" d="M379.3,98c-11.8-5.4-42.6,4.2-26.6,27.9c8.4,12.4,45.9,22.8,77.4,39.8c6.1,3.3,38.4,38.8,38.4,38.8
	s49.8-2.2,11.7-47.5c0,0-43.7-8.5-58.8-25S393.6,104.5,379.3,98z"/>
<path d="M468.4,208.6c-1.2,0-2.3-0.5-3.1-1.4c-15.6-17.2-33.8-36.1-37.3-37.9c-12.1-6.5-25.3-12.2-37-17.2
	c-20.1-8.6-36-15.4-41.8-24c-9-13.3-4.4-22.2-0.9-26.3c7.8-9.2,24-11.7,32.7-7.7l0,0c13.9,6.3,26.5,16.4,43.4,34.9
	c14,15.3,56.1,23.6,56.5,23.7c0.9,0.2,1.8,0.7,2.4,1.4c13.5,16,18.1,29.2,13.7,39.2c-6.2,14.1-27.6,15.2-28.5,15.2
	C468.6,208.6,468.5,208.6,468.4,208.6z M371.5,100.7c-5.9,0-13.2,2.3-16.8,6.6c-3.5,4.1-3,9.6,1.5,16.2c4.4,6.5,20.8,13.5,38.2,21
	c11.9,5.1,25.3,10.8,37.7,17.5c6,3.2,30.4,29.7,38.1,38.1c5.7-0.6,16.3-3.2,19.3-10.1c2.9-6.5-1.1-16.7-11.6-29.3
	c-8-1.7-45.2-10.3-59.6-26c-16.1-17.6-27.9-27.1-40.7-32.9C376,101.1,373.8,100.7,371.5,100.7z"/>
<path class="st2" d="M401.2,124.5c0,0-29.2,17.3,8.3,13.7c0,0,19.9-2.1,31.3-6c0,0,15.8-14.7,15.6-23.6
	C456.3,99.7,406.4,104.6,401.2,124.5z"/>
<path d="M400.6,142.8c-8.6,0-12.8-1.8-14.1-5.7c-1.1-3.2,0.1-8.4,11.2-15.3c3.4-9.3,13.9-14.6,22.3-17.5c9.8-3.3,21.4-4.8,29.6-3.8
	c9.5,1.1,11,5.5,11.1,8.1c0.2,10.2-14.1,24.1-16.9,26.7l-0.7,0.6l-0.8,0.3c-11.8,4-31.4,6.1-32.2,6.2
	C406.4,142.7,403.3,142.8,400.6,142.8z M395.5,134.1c1.9,0.4,5.8,0.6,13.7-0.1c0.2,0,18.5-2,29.5-5.5c5.6-5.4,12.8-14.1,13.6-19
	c-3.1-1.4-15.3-1.9-28.4,2.3c-10.4,3.3-17.1,8.3-18.6,13.8l-0.4,1.7l-1.5,0.9C400.2,130,397,132.4,395.5,134.1z"/>
<path class="st2" d="M449.2,110.4c0,0-16.2-3.9-36,7.9c-25.1,14.9-19.8,3-19.8,3c18.8-38.7,73.3-33.9,73.3-33.9
	S466.5,109.9,449.2,110.4z"/>
<path d="M395.6,130c-2,0-3.5-0.6-4.8-1.7c-2.7-2.4-2.4-6.2-1.2-8.7l0.1-0.1c8.2-17,24.3-28.7,46.5-33.7c16.4-3.7,30.3-2.6,30.9-2.5
	l3.8,0.3l0,3.8c-0.1,9.2-4.7,26.7-21.6,27.2l-0.6,0l-0.5-0.1c-0.3-0.1-15-3.2-32.9,7.4C406.1,127.4,399.9,130,395.6,130z
	 M461.2,91.4c-13.2,0-48.4,2.7-63.1,29.8c2.2-0.7,6.2-2.4,12.9-6.4c19-11.3,35-9.1,38.4-8.5c9-0.6,11.8-9.5,12.6-14.9
	C461.9,91.4,461.6,91.4,461.2,91.4z"/>
<path class="st1" d="M669.8,238.8C623.2,36.5,486.2,77.2,472,85.1c-76.6,42.2-7.8,107.4,39.6,133.5c40.5,22.2,56,63,63.3,91.2
	c7.3,28.2,8.3,63.6-30.2-5.2S430.1,165.6,430.1,165.6c49.5,56.2,74.7,147,85,234.8c22.6,29.1,73.4,58.5,73.4,58.5
	C732.4,520.5,669.8,238.8,669.8,238.8z"/>
<path d="M625.3,471.9c-11.4,0-24.2-3-38.5-9.1l-0.4-0.2c-2.1-1.2-51.7-30.1-74.6-59.5l-0.7-0.9l-0.1-1.2
	c-15.3-130.7-54.2-198.6-84-232.5l6-5.8c0.8,0.7,76.9,71.3,115.4,139.9c16.5,29.5,23.7,35.9,26,37.3c1-3.3,0.5-13.6-3.5-29
	c-11.2-43.1-31.2-72.1-61.3-88.6c-28.3-15.5-76.1-52.2-76.2-91c0-19.7,12.3-36.4,36.5-49.8c8.6-4.7,53.6-19.2,101.4,2.2
	c22.4,10,42,26.4,58.3,48.9c19.4,26.7,34.3,62.2,44.2,105.4l0,0c1.6,7.2,38.6,177.3-16.2,222.8C648.7,468.1,637.9,471.9,625.3,471.9
	z M590.3,455.2c26.7,11.4,47.6,11.1,62-0.9c50.8-42.2,14-211.8,13.4-214.5c-9.7-42.1-24.1-76.6-42.8-102.4
	c-15.4-21.3-33.9-36.8-54.9-46.2c-45-20.1-87.5-6.1-94-2.5c-21.4,11.8-32.2,26.1-32.2,42.5c0,21.3,22.5,56.6,71.8,83.7
	c32.2,17.7,53.5,48.4,65.3,93.8c4.2,16,7.3,35.9-1.3,39.3c-9,3.6-21.2-14-36.6-41.5c-21.2-37.8-54-76.2-79-102.9
	c23.2,40.5,46.1,102.2,57.1,195.1C540.6,425.7,586.8,453.1,590.3,455.2z"/>
<path d="M152.1,380.2c-1,0-2-0.6-2.4-1.7c-0.5-1.3,0.1-2.9,1.5-3.4c12.4-4.8,11.2-17,11.2-17.1c-0.2-1.4,0.9-2.7,2.3-2.9
	c1.4-0.1,2.7,0.9,2.9,2.3c0.6,5.6-1.7,17.6-14.5,22.5C152.7,380.1,152.4,380.2,152.1,380.2z"/>
<path d="M423.6,330.1c-0.3,0-0.6,0-0.9-0.1c-14.9-5.2-19.2-17.3-19.3-17.8c-0.5-1.4,0.3-2.8,1.6-3.3c1.4-0.5,2.8,0.3,3.3,1.6
	c0.1,0.4,3.7,10.2,16.1,14.6c1.4,0.5,2.1,2,1.6,3.3C425.7,329.4,424.7,330.1,423.6,330.1z"/>
<path class="st1" d="M189.8,174.2c0,0-10.3,10.1-34.7,17.3c-7.6,2.3-36.4,32.4-36.4,32.4l-4.5,10.7c0,0-15,48.3-17.7,59.9
	L189.8,174.2z"/>
<path class="st1" d="M518.5,393.5c0,0-8.7-42.1-17.9-57.3c-9.2-15.2-148.2-204.4-148.2-204.4s6.2,9,33.8,9.2
	c17.9,0.1,59.6,44,75.8,62.7l22.4,30.8l41.2,116.1L518.5,393.5z"/>
<path class="st2" d="M440.8,148c0,0-23.7-0.9-34.4,2.5c-10.7,3.5,0.9,11.6,12.3,13.1c11.4,1.5,30-0.1,30-0.1S445.4,157.8,440.8,148z
	"/>
<path d="M430.9,168.4c-4.4,0-9-0.2-12.8-0.7c-8-1-19.5-5.7-20.1-12.9c-0.2-1.8,0.2-6.1,7.1-8.3c11.3-3.6,34.9-2.7,35.9-2.7l1.6,0.1
	l1.1,1.1c3.3,11.6,9.3,18.5,9.1,19.4l-0.6,3l-3.1,0.3C448.4,167.7,440,168.4,430.9,168.4z M407,154.7c1.9,1.6,6.6,4,12.2,4.8
	c7.6,1,16.6,1.3,22.6,0.9c-1.5-1.9-1.8-4.1-4-8.3c-5.4-0.1-21.9-0.3-30.2,2.4C407.4,154.6,407.2,154.6,407,154.7z"/>
<path class="st1" d="M103.6,275.1l-15.7,43.6L75.3,430.2l29.9,77.5c0,0-11.1-65.2-8.4-96.2C102.2,348.4,103.6,275.1,103.6,275.1z"/>
</svg>
