<svg xmlns="http://www.w3.org/2000/svg" viewBox="0 0 687.6 833.7">
  <style>
    .st0{fill:#1E1E1E;} .st1{fill:#3A3A3A;} .st2{fill:#4CB9D3;}
  </style>
  <path class="st0" d="M381.6 99S398 68 399 44.4c1.2-25 14.2-69.7 57.5-11.5C501 92.8 469 165.3 469 165.3S383.7 130 381.6 99z"/>
  <path d="M471.2 170.7l-3.8-1.6c-1-.3-22-9-43.4-21.7-30-17.6-45.6-33.7-46.5-48V98l.5-1c.2-.2 16-30.3 17-53 .4-8.8 2-18 4.7-25 3.7-10 9-16 15.8-18.2 12.3-3.8 26.8 6 44.4 29.5 18.8 25.4 27 57 23.7 91.6-2.5 26-10.5 44-10.8 45l-1.8 3.7zM386 100c3 21.7 55.8 49 80.7 59.7 2.4-6.5 7-21 8.7-39 3-32.7-4.4-61.5-22.2-85.5-14.6-19.6-27-29-35.2-26.5-9 2.8-14 20.5-14.6 35.7C402.4 66.7 389 94 386 100z"/>
  <path class="st1" d="M118 538.2S10.6 214.8 217 130.4 498.8 238.8 516.6 413c17.7 174.2-17.7 341-17.7 341s-3 80.4-98 75.2c0 0-43 6.3-41.8-39.6s4.2-85.5-33.4-64.7c0 0 18.8 88.6-31.3 98-50 9.4-96 2-105.4-25-9.4-27.2-49-192-71-259.8z"/>
  <path d="M395.6 833.7c-7 0-19-1.4-28.3-9.6-8.7-7.6-13-19.2-12.5-34.5 0-2.5 0-5 .2-7.4.7-25.5 1.3-52-7.7-57.5-3.5-2-9.3-1.3-17 2.6 2.2 12.3 8.5 56.7-8.6 82.4-6.4 9.6-15.4 15.5-26.6 17.6-25.7 4.8-50.4 5.2-69.5 1.2-21.5-4.6-35.5-14.6-40.5-29-4-11.6-13.6-48.5-24.8-91.4-15-57.7-33.6-129.5-46.2-168.3-.5-1.7-27-83-28-173.5-.7-53.7 7.6-100 24.6-138 21.4-47.7 56.7-81.8 104.8-101.5 68.7-28 128-27.7 176 1.2 92.7 55.6 120.7 202.4 129 285 17.3 169-16 333.4-17.6 342-.2 3.8-2.7 34.3-27 56.4-18 16.5-43.2 24-75 22.3-.8.2-2.6.4-5.2.4zM342.8 715c3.3 0 6.2.8 8.8 2.3 13.2 8 12.5 33 11.7 65 0 2.3 0 4.8-.2 7.3-.2 12.7 3 22.2 9.8 28.2 10.8 9.5 27 7.3 27.2 7.3h.8c29.6 1.7 53-5 69.3-20 23-20.8 24.4-50.7 24.4-51v-.7c.5-1.7 35.2-168.3 17.8-339.8-8.2-81-35.5-225-125-278.6-45.8-27.6-102.6-27.8-168.7-.7-46 19-80 51.6-100.4 97.2-16.4 36.8-24.5 82-24 134.5 1 89.7 27.5 170.2 27.8 171 12.6 39 31.3 111 46.3 168.8 11.2 42.6 20.7 79.5 24.7 90.8 5 14.4 21.4 20.7 34.3 23.5 18 4 41.6 3.5 66.3-1 9-1.8 16-6.4 21.2-14.2 17.6-26.4 7-78.5 6.8-79-.4-1.8.5-3.6 2-4.5 7.8-4.2 14-6.3 19.5-6.3z"/>
  <path class="st1" d="M100.3 271s-37.5-25.3 0-53 55.6-65 76-87c8.7-9.5 44.3-13.8 26.2 22.3-3.4 6.8-13.5 17.4-34.4 33.4-22.6 17.4-52 41.2-67.7 84.2z"/>
  <path d="M100.3 275c-.8 0-1.6 0-2.3-.6-.7-.5-18-12.3-18.5-29.7-.2-10.7 6-20.8 18.4-30 24.3-18 40.2-40.2 54.3-59.7 7.2-10 14-19.3 21-27 6-6.4 22.5-11.4 32.2-4.7 5.7 4 10.4 12.7.8 32-4 8-15.8 19.5-35.6 34.7-25.6 19.6-51.7 42-66.4 82.4-.4 1.2-1.4 2-2.6 2.5h-1.4zm93.4-146.5c-5 0-11 1.6-14.3 5.2-6.7 7.3-13.3 16.4-20.4 26-14.5 20-30.8 42.8-56.2 61.6-10 7.5-15.2 15.3-15 23C88 253 94.2 260 98.5 264c17.2-42.5 48.2-66.3 67-80.7 23.2-17.7 31-27.2 33.3-32 3-6.2 7.6-17.3 2-21.2-1.6-1-4.2-1.5-7-1.5zM241.6 360.6c15-20.5 136.6-35.7 122.6 3.4 0 0-79.3-13.6-125.2 22 0 0-6.5-13 2.6-25.4z"/>
  <path d="M239 390h-1c-1-.3-2-1-2.7-2.2-.3-.6-7.6-15.4 3-29.7 13.2-17.8 92.2-31 120.3-16 9.7 5.2 13 13.5 9.5 23.4-.6 2-2.5 3-4.5 2.7-.8 0-78-12.7-122 21.2-.7.6-1.6 1-2.5 1zm84-46.2c-31.5 0-71 9.8-78 19.2-4.4 6-4.4 12-3.7 16 14.4-9.6 38.7-20 77.4-21.6 19.4-.8 35.4 1 42.4 1.8.6-4.2-1.5-7.4-6.3-10-7.4-3.8-19-5.4-31.7-5.4z"/>
  <path class="st2" d="M339.3 340.7s6 13.3-2.7 42.5 23.8-1.8 27.6-19.3c4.7-21.4-25-23.3-25-23.3z"/>
  <path d="M337.8 399.5c-2.4 0-4-1-4.7-2-2.6-2.7-2.8-7.5-.4-15.4 8.2-26.8 3-39.4 3-39.5l-2.8-6.2 6.8.4c.7 0 17.8 1.2 25.6 11.5 3.5 4.7 4.6 10.3 3.2 16.8-2.7 12.3-18.4 31.4-28 34.2l-2.6.3zm7-53.7c1 7 1.4 19.8-4.3 38.7-1 3-1.2 5-1.3 6 5.6-2.7 18.6-17.2 21-27.5.8-4 .2-7.3-1.8-10-3-3.8-8.8-6-13.6-7.2z"/>
  <path class="st2" d="M260.2 350.8s-3.4 19.5 8 42-17.4 18-29-5.8c-14.7-29.7 25.7-37.7 21-36.2z"/>
  <path d="M264.5 411.5h-1c-8.8-.5-21.3-8.5-28.3-22.7-7.3-14.8-2.2-25 3.4-30.8 4.3-4.5 9.6-7.3 13.4-9 7.7-3.3 9.3-2.6 10-2.2l2.8 1v3c0 .4-.2 1.2-.7 2-.4 4.6-1 20.4 8 38 3.5 7 4 12.5 1.4 16.5-1.8 2.7-5 4.2-9 4.2zm-9-55c-4.7 2-11 5.8-14 11.5-2.4 5-2 10.5 1.2 17 5.8 12 16 18 21.3 18.2 1.2 0 2 0 2.4-.5.4-.7.6-3.2-2-8-8-15.8-9-30-9-38z"/>
  <path class="st2" d="M435.6 298c0 7.3-2 13.3-9.6 13.3-7.5 0-14.4-6-14.4-13.3s3-13.3 10.4-13.3c7.6 0 13.6 6 13.6 13.3z"/>
  <path d="M426 315.5c-10 0-18.5-8-18.5-17.5 0-10.8 5.6-17.5 14.6-17.5 10 0 17.8 7.8 17.8 17.5 0 15.2-8.6 17.5-13.7 17.5zm-4-26.6c-1.4 0-6.2 0-6.2 9 0 4.8 5 9 10.3 9 2 0 5.5 0 5.5-9 0-5-4.2-9-9.4-9z"/>
  <path class="st2" d="M133.4 352.8c1.6 7.2 5 12.5 12.2 11s12.8-9 11.2-16.2-5.8-12.3-13-10.7c-7.3 1.5-12 8.6-10.4 15.8z"/>
  <path d="M143 368c-4.8 0-11-2.5-13.7-14.3-2-9.4 4-18.8 13.5-21 4.8-1 9 0 12.4 3.2 2.7 2.4 4.6 6 5.6 10.7 2 9.2-4.5 19-14.3 21-1 .3-2 .4-3.4.4zm3.4-27.3c-.5 0-1 0-1.7.2-5 1-8.3 6-7.2 11 2 8.8 5.3 8 7.3 7.6 5.2-1.2 9-6.5 8-11-.7-3-1.8-5.3-3.2-6.6-.6-.6-1.6-1.3-3.2-1.3z"/>
  <path class="st0" d="M166.5 142.7s-29.2.7-76.4-52.5c0 0-13.2-24.5-33.5 0S58.2 225.4 86 234c27.7 8.6 80.5-91.3 80.5-91.3z"/>
  <path d="M89.5 238.7c-1.7 0-3.2-.2-4.8-.7-15.4-4.8-25.7-32.3-30.5-48.3-11-37.4-14.5-85.8-1-102.2 7.4-9 15-13 22.7-12.3 10 1 16 10.3 17.4 12.5 45.2 50.8 72.6 50.8 73 50.8l7-.2-3.3 6.3c0 .3-13.4 25.5-30 49.3-21 30-37.5 44.7-50.5 44.7zM74.2 83.5c-4.5 0-9.4 3.2-14.5 9.4-10.2 12.2-9 55.4 2.6 94.3 7 23.8 16.6 40.2 25 42.7 9 2.8 25.8-12 45.8-40.8 12-17 22-34.7 27-43.3-11.6-2.7-37.6-13-73-53l-.4-.5-.2-.4S82 84 75 83.5h-.8z"/>
  <path class="st2" d="M152.4 756.2s-3.3-9-5.4-16.7c-2-7.8 10.3-19.8 16 1.5 0 0 3.5 13.6-.7 24.6-4 11-10-9.4-10-9.4z"/>
  <path d="M159.6 773h-.3c-4.3-.2-8-5.4-10.8-15.5-.5-1.3-3.5-9.5-5.5-17-1-4 .3-9 3.6-12.5 2.7-2.8 6.2-3.8 9.6-3 5 1.4 8.5 6.4 10.7 15 0 .5 3.8 15-.8 27-1.8 5-4.5 6-6.6 6zm-5.7-39.8c-.6 0-1.2.5-1.4.8-1.2 1.2-1.8 3.2-1.5 4.5 2.2 7.5 5.4 16.3 5.4 16.3v.3c.8 2.6 1.8 5.3 2.7 7.2 2.7-9.2 0-20 0-20-1.8-6.6-4-8.7-5-9z"/>
  <path class="st1" d="M109.4 507.5c-12.3-49.2-31.2-149.3-9-236.6 0 0-122.2 323.5-91 482 16.8 86.2 103 78.8 134.2 58.7 23.8-15.3 20.8-34-10-84.8-34-56-33.4-150-24.2-219.5z"/>
  <path d="M93.4 829c-12.8 0-26-2.3-38-7.5-18.5-7.8-42-26-50.2-67.6-13-66.5-1.6-168.3 34-302.6 26.3-99.8 57-181.2 57.2-182 .8-2 3-3.2 5.2-2.5 2 .6 3.3 2.8 2.8 5-9.3 36.7-20.6 116 9 234.5.2.5.3 1 .2 1.6-5.8 44-15 153 23.7 217 29 47.6 37 72 8.6 90.3-12.7 8-32.2 13.6-52.6 13.6zM88 318.6C76.6 352 61.2 400 47 453.7 23 545-2.5 671.2 13.4 752.4c6 30.6 21.2 51.3 45.2 61.5 30.6 13 66.8 4.5 82.8-5.7 22.5-14.4 16.6-33.3-11.2-79-40-65.8-30.8-176.2-25-221.5-6-24.2-13.8-61.7-17.3-104-2.8-30.3-2.7-58.8 0-85z"/>
  <path class="st2" d="M143.2 773.5s6.7-9.5 9.3-17.3c2.6-7.8 31.4-2 3.2 35.5 0 0-6.4 7.3-19.4 8.6-13 1.3 7-26.8 7-26.8z"/>
  <path d="M135.4 804.5c-4 0-6-2-6.7-3.5-4-7 5.2-21.7 11-30 .3-.2 6.5-9 8.8-16 1-3.3 4.2-5.6 8.2-6 5.4-.4 10.7 2.4 13.4 7.2 3.5 6 4.3 17.6-11 38l-.2.2c-.3.4-7.7 8.6-22.2 10h-1.2zm21-46.8c-3 8.3-9.6 17.8-10 18.2-5.4 7.6-10 16.6-10.5 20 10-1 15.6-6.3 16.3-7 8-10.7 15.2-25 9.2-30.3-2-1.8-4.5-1.5-5.2-1z"/>
  <path class="st2" d="M107.6 801.6c2.4 5 16.7 9.4 35.5-6.3 18-14.8-2.5-29.2-12-19.8-9.3 9.4-19.7 12.5-19.7 12.5s-8 4.2-3.7 13.6z"/>
  <path d="M118.4 810.4c-1.7 0-3.4-.2-5-.5-4.6-1-8-3.5-9.6-6.6-4.5-9.6.8-16.6 5.5-19l.3-.2h.4s9.6-3 18-11.6c4-4 9.5-5.2 15-3.5 5.7 1.8 10 6.2 11 11.6.7 3.6.6 10.6-8.3 18-4.6 3.8-15.7 11.8-27.3 11.8zm-7-10.6c0 .3 1 1.4 3.7 2 10.2 2 22-7 25.4-9.7 4-3.3 6-7 5.4-10-.5-2.2-2.5-4.2-5.2-5-1.2-.4-4.2-1-6.6 1.4-9 9-18.8 12.6-21 13.4-1.4 1-4 3.2-1.6 8z"/>
  <path class="st1" d="M379.3 98c-11.8-5.4-42.6 4.2-26.6 28 8.4 12.3 46 22.7 77.4 39.7 6.2 3.3 38.5 38.8 38.5 38.8s49.8-2.2 11.7-47.5c0 0-43.7-8.5-58.8-25s-27.8-27.5-42-34z"/>
  <path d="M468.4 208.6c-1.2 0-2.3-.5-3-1.4-15.7-17.2-34-36-37.4-38-12-6.4-25.3-12-37-17-20-8.7-36-15.5-41.8-24-9-13.4-4.4-22.3-1-26.4 8-9.2 24-11.7 32.8-7.7 14 6.4 26.5 16.5 43.4 35 14 15.3 56 23.6 56.5 23.7.8.2 1.7.7 2.3 1.4 13.5 16 18 29.3 13.7 39.3-6.2 14-27.6 15.2-28.5 15.2zm-97-108c-5.8 0-13 2.4-16.7 6.7-3.5 4-3 9.6 1.5 16.2 4.4 6.5 20.8 13.5 38.2 21 12 5 25.3 10.8 37.7 17.5 6 3.2 30.5 29.7 38.2 38 5.7-.5 16.3-3 19.3-10 3-6.5-1-16.7-11.6-29.3-8-1.7-45.3-10.3-59.7-26-16-17.6-28-27-40.7-33-1.6-.6-3.8-1-6-1z"/>
  <path class="st2" d="M401.2 124.5s-29.2 17.3 8.3 13.7c0 0 20-2 31.3-6 0 0 15.8-14.7 15.6-23.6 0-9-50-4-55.2 16z"/>
  <path d="M400.6 142.8c-8.6 0-12.8-1.8-14-5.7-1.2-3 0-8.3 11-15.2 3.5-9.3 14-14.6 22.4-17.5 9.8-3.3 21.4-4.8 29.6-3.8 9.5 1 11 5.5 11 8 .3 10.3-14 24.2-16.8 26.8l-.7.6-.7.2c-11.8 4-31.4 6-32.2 6.2-3.6.3-6.7.4-9.4.4zm-5-8.7c1.8.5 5.7.7 13.6 0 .2 0 18.5-2 29.5-5.5 5.6-5.4 12.8-14 13.6-19-3-1.4-15.3-2-28.4 2.3-10.5 3.3-17.2 8.3-18.7 13.8l-.4 1.7-1.6 1c-3.2 1.7-6.4 4-8 5.8z"/>
  <path class="st2" d="M449.2 110.4s-16.2-4-36 8c-25 14.8-19.8 3-19.8 3 18.8-38.8 73.3-34 73.3-34s-.2 22.5-17.5 23z"/>
  <path d="M395.6 130c-2 0-3.5-.6-4.8-1.7-2.7-2.4-2.4-6.2-1.2-8.7 8.3-17 24.4-28.8 46.6-33.8 16.4-3.7 30.3-2.6 31-2.5l3.7.3v3.8c-.2 9.2-4.8 26.7-21.7 27.2h-1.1c-.3-.2-15-3.3-33 7.3-9 5.4-15.3 8-19.6 8zm65.6-38.6c-13.2 0-48.4 2.7-63 29.8 2-.7 6-2.4 12.8-6.4 19-11.3 35-9 38.4-8.5 9-.6 11.8-9.5 12.6-15h-.8z"/>
  <path class="st1" d="M669.8 238.8C623.2 36.5 486.2 77.2 472 85c-76.6 42.3-7.8 107.5 39.6 133.6 40.5 22.2 56 63 63.3 91.2 7.2 28.2 8.2 63.6-30.3-5.2S430 165.6 430 165.6c49.6 56.2 74.8 147 85 234.8 22.7 29 73.5 58.5 73.5 58.5 144 61.5 81.3-220.2 81.3-220.2z"/>
  <path d="M625.3 472c-11.4 0-24.2-3-38.5-9.2l-.4-.2c-2-1.2-51.7-30-74.6-59.5l-.7-.8V401c-15.3-130.7-54.2-198.6-84-232.5l6-5.8c.8.7 77 71.3 115.4 140 16.5 29.4 23.7 35.8 26 37.2 1-3.4.5-13.7-3.5-29-11.3-43.2-31.3-72.2-61.4-88.7-28.3-15.5-76-52.2-76.2-91 0-19.7 12.3-36.4 36.5-49.8 8.5-4.7 53.5-19.2 101.3 2.2 22.4 10 42 26.4 58.3 49 19.4 26.6 34.3 62 44.2 105.3 1.6 7.2 38.6 177.3-16.2 222.8-9 7.3-19.7 11-32.3 11zm-35-16.8c26.7 11.4 47.6 11 62-1 50.8-42 14-211.7 13.4-214.4-9.7-42-24-76.6-42.8-102.4-15.5-21.3-34-36.8-55-46.2-45-20-87.5-6-94-2.5-21.4 11.8-32.2 26-32.2 42.5 0 21.3 22.5 56.6 71.8 83.7 32.2 17.6 53.5 48.3 65.3 93.7 4 16 7.2 36-1.4 39.3-9 3.6-21.2-14-36.6-41.5-21.2-37.8-54-76.2-79-103 23.2 40.6 46 102.3 57 195.2 21.6 27 67.8 54.4 71.3 56.5zM152 380.2c-1 0-2-.6-2.3-1.7-.5-1.3 0-3 1.5-3.4 12.4-4.7 11.2-17 11.2-17-.2-1.4 1-2.7 2.3-3 1.4 0 2.7 1 3 2.4.5 5.6-1.8 17.6-14.6 22.5l-1 .2zM423.6 330h-1c-14.8-5.2-19-17.3-19.2-17.8-.5-1.4.3-2.8 1.6-3.3 1.4-.6 2.8.2 3.3 1.5 0 .4 3.7 10.2 16 14.6 1.5.6 2.2 2 1.7 3.4-.3 1-1.3 1.7-2.4 1.7z"/>
  <path class="st1" d="M189.8 174.2s-10.3 10-34.7 17.3c-7.5 2.3-36.3 32.4-36.3 32.4l-4.5 10.6s-15 48.3-17.7 60L189.8 174zM518.5 393.5s-8.7-42-18-57.3c-9-15.2-148-204.4-148-204.4s6 9 33.7 9.2c18 0 59.6 44 75.8 62.7l22.4 30.8 41.2 116-7 43z"/>
  <path class="st2" d="M440.8 148s-23.7-1-34.4 2.5 1 11.6 12.3 13c11.4 1.6 30 0 30 0s-3.3-5.7-8-15.5z"/>
  <path d="M431 168.4c-4.5 0-9-.2-13-.7-8-1-19.4-5.7-20-13-.2-1.7.2-6 7-8.2 11.4-3.6 35-2.7 36-2.7h1.6l1 1.2c3.4 11.6 9.4 18.5 9.2 19.4l-.6 3-3 .3c-.8 0-9.2.7-18.3.7zm-24-13.7c2 1.6 6.6 4 12.2 4.8 7.6 1 16.6 1.3 22.6 1-1.5-2-1.8-4.2-4-8.4-5.4 0-22-.2-30.2 2.5-.2 0-.4 0-.6.2z"/>
  <path class="st1" d="M103.6 275L88 318.8 75.2 430.2l30 77.5s-11.2-65.2-8.5-96.2c5.4-63 6.8-136.4 6.8-136.4z"/>
</svg>
